<?xml version="1.0" encoding="UTF-8"?>
<svg width="101px" height="101px" viewBox="0 0 101 101" version="1.1" xmlns="http://www.w3.org/2000/svg" xmlns:xlink="http://www.w3.org/1999/xlink">
    <!-- Generator: Sketch 64 (93537) - https://sketch.com -->
    <title>Learn the application foundation with the AL programming language for Microsoft Dynamics 365 Business Central/Work-with-AL-built-in-functions-in-Dynamics-365-Business-Central</title>
    <desc>Created with Sketch.</desc>
    <defs>
        <rect id="path-1" x="0" y="0" width="94.3396226" height="94.3396226" rx="47.1698113"></rect>
        <linearGradient x1="77.8299825%" y1="11.1997378%" x2="-99.6885927%" y2="253.807911%" id="linearGradient-3">
            <stop stop-color="#FFFFFF" offset="0%"></stop>
            <stop stop-color="#000000" stop-opacity="0.5" offset="100%"></stop>
        </linearGradient>
        <rect id="path-4" x="0" y="0" width="94.3396226" height="94.3396226"></rect>
        <rect id="path-5" x="0" y="0" width="100" height="100" rx="50"></rect>
        <filter x="-0.5%" y="-0.5%" width="102.0%" height="102.0%" filterUnits="objectBoundingBox" id="filter-6">
            <feOffset dx="1" dy="1" in="SourceAlpha" result="shadowOffsetOuter1"></feOffset>
            <feMorphology radius="4" operator="erode" in="SourceAlpha" result="shadowInner"></feMorphology>
            <feOffset dx="1" dy="1" in="shadowInner" result="shadowInner"></feOffset>
            <feComposite in="shadowOffsetOuter1" in2="shadowInner" operator="out" result="shadowOffsetOuter1"></feComposite>
            <feColorMatrix values="0 0 0 0 0   0 0 0 0 0   0 0 0 0 0  0 0 0 0.15 0" type="matrix" in="shadowOffsetOuter1"></feColorMatrix>
        </filter>
        <path d="M50,2.83018868 C76.0511674,2.83018868 97.1698113,23.9488326 97.1698113,50 C97.1698113,76.0511674 76.0511674,97.1698113 50,97.1698113 C23.9488326,97.1698113 2.83018868,76.0511674 2.83018868,50 C2.83018868,23.9488326 23.9488326,2.83018868 50,2.83018868 Z M50,6.60377358 C26.032926,6.60377358 6.60377358,26.032926 6.60377358,50 C6.60377358,73.967074 26.032926,93.3962264 50,93.3962264 C73.967074,93.3962264 93.3962264,73.967074 93.3962264,50 C93.3962264,26.032926 73.967074,6.60377358 50,6.60377358 Z" id="path-7"></path>
        <filter x="-16.2%" y="-16.2%" width="132.4%" height="132.4%" filterUnits="objectBoundingBox" id="filter-9">
            <feOffset dx="0" dy="2" in="SourceAlpha" result="shadowOffsetOuter1"></feOffset>
            <feGaussianBlur stdDeviation="2" in="shadowOffsetOuter1" result="shadowBlurOuter1"></feGaussianBlur>
            <feColorMatrix values="0 0 0 0 0   0 0 0 0 0   0 0 0 0 0  0 0 0 0.1 0" type="matrix" in="shadowBlurOuter1" result="shadowMatrixOuter1"></feColorMatrix>
            <feMerge>
                <feMergeNode in="shadowMatrixOuter1"></feMergeNode>
                <feMergeNode in="SourceGraphic"></feMergeNode>
            </feMerge>
        </filter>
        <linearGradient x1="50%" y1="100%" x2="50%" y2="0%" id="linearGradient-10">
            <stop stop-color="#D2EBFF" offset="0%"></stop>
            <stop stop-color="#F0FFFD" offset="100%"></stop>
        </linearGradient>
        <path d="M74,40.3497942 L74,31.8230453 L65.285124,28.7777778 L63.1446281,22.9917695 L67.4256198,14.0082305 L67.4256198,13.0946502 L64.6735537,10.3539095 L61.4628099,6.69958848 L60.2396694,6.69958848 L51.677686,11.2674897 L45.8677686,9.59259259 L42.0454545,0 L33.6363636,0 L30.731405,8.67901235 L24.3099174,11.2674897 L14.3719008,6.5473251 L8.40909091,12.4855967 L8.40909091,13.5514403 L12.8429752,22.0781893 L10.2438017,28.473251 L0,32.2798354 L0,40.8065844 L1.2231405,40.8065844 L10.2438017,43.8518519 L12.6900826,49.6378601 L8.10330579,59.5349794 L14.0661157,65.6255144 L15.2892562,65.6255144 L23.6983471,61.3621399 L29.661157,63.7983539 L33.3305785,74 L41.892562,74 L41.892562,72.781893 L44.7975207,63.6460905 L50.607438,61.2098765 L60.6983471,65.9300412 L66.661157,59.9917695 L66.661157,58.7736626 L62.3801653,50.2469136 L64.0619835,44.308642 L74,40.3497942 Z M37.6132257,47.5704434 C31.2426675,46.886422 26.4285714,41.7679228 26.4285714,35.6785651 C26.4285714,29.5892074 31.2426675,24.4707081 37.6132257,23.7866867 C40.9402066,23.7461706 44.1456327,24.9731718 46.5132943,27.1935334 C48.8809558,29.4138949 50.213522,32.4425625 50.2132485,35.6028206 L50.2132485,35.6028206 C50.2565419,38.7892596 48.9429502,41.8572215 46.5705377,44.1105617 C44.1981252,46.3639019 40.9680443,47.6115639 37.6132257,47.5704434 Z" id="path-11"></path>
        <filter x="0.0%" y="0.0%" width="100.0%" height="100.0%" filterUnits="objectBoundingBox" id="filter-12">
            <feOffset dx="0" dy="0" in="SourceAlpha" result="shadowOffsetOuter1"></feOffset>
            <feColorMatrix values="0 0 0 0 0   0 0 0 0 0   0 0 0 0 0  0 0 0 0.1 0" type="matrix" in="shadowOffsetOuter1"></feColorMatrix>
        </filter>
        <filter x="-31.6%" y="-32.7%" width="163.2%" height="166.3%" filterUnits="objectBoundingBox" id="filter-13">
            <feOffset dx="0" dy="2" in="SourceAlpha" result="shadowOffsetOuter1"></feOffset>
            <feGaussianBlur stdDeviation="2" in="shadowOffsetOuter1" result="shadowBlurOuter1"></feGaussianBlur>
            <feColorMatrix values="0 0 0 0 0   0 0 0 0 0   0 0 0 0 0  0 0 0 0.1 0" type="matrix" in="shadowBlurOuter1" result="shadowMatrixOuter1"></feColorMatrix>
            <feMerge>
                <feMergeNode in="shadowMatrixOuter1"></feMergeNode>
                <feMergeNode in="SourceGraphic"></feMergeNode>
            </feMerge>
        </filter>
        <linearGradient x1="50%" y1="100%" x2="50%" y2="0%" id="linearGradient-14">
            <stop stop-color="#0078D4" offset="0%"></stop>
            <stop stop-color="#5EA0EF" offset="82%"></stop>
        </linearGradient>
        <linearGradient x1="50%" y1="100%" x2="50%" y2="0%" id="linearGradient-15">
            <stop stop-color="#CCCCCC" offset="15%"></stop>
            <stop stop-color="#707070" offset="100%"></stop>
        </linearGradient>
        <linearGradient x1="50%" y1="97.5691716%" x2="50%" y2="-5.30956676%" id="linearGradient-16">
            <stop stop-color="#5EA0EF" offset="0%"></stop>
            <stop stop-color="#559CEC" offset="18%"></stop>
            <stop stop-color="#3C91E5" offset="47%"></stop>
            <stop stop-color="#1380DA" offset="84%"></stop>
            <stop stop-color="#0078D4" offset="100%"></stop>
        </linearGradient>
    </defs>
    <g id="Badges" stroke="none" stroke-width="1" fill="none" fill-rule="evenodd">
        <g id="Learn-the-application-foundation-with-the-AL-programming-language-for-Microsoft-Dynamics-365-Business-Central" transform="translate(-160.000000, -700.000000)">
            <g id="Learn-the-application-foundation-with-the-AL-programming-language-for-Microsoft-Dynamics-365-Business-Central/Work-with-AL-built-in-functions-in-Dynamics-365-Business-Central" transform="translate(160.000000, 700.000000)">
                <g id="Badge-Plates/Circle">
                    <g id="BG" transform="translate(2.830189, 2.830189)">
                        <mask id="mask-2" fill="white">
                            <use xlink:href="#path-1"></use>
                        </mask>
                        <g></g>
                        <g id="Colors/Dynamics-365/BG-Solid-Badges" mask="url(#mask-2)">
                            <g id="Rectangle">
                                <use fill="#01B6C3" xlink:href="#path-4"></use>
                                <use fill-opacity="0.4" fill="url(#linearGradient-3)" xlink:href="#path-4"></use>
                            </g>
                        </g>
                    </g>
                    <g id="Border">
                        <g id="White-Border">
                            <use fill="black" fill-opacity="1" filter="url(#filter-6)" xlink:href="#path-5"></use>
                            <rect stroke="#F2F1F0" stroke-width="4" stroke-linejoin="square" x="2" y="2" width="96" height="96" rx="48"></rect>
                        </g>
                        <mask id="mask-8" fill="white">
                            <use xlink:href="#path-7"></use>
                        </mask>
                        <use id="Boarder" fill="#0078D4" fill-rule="nonzero" xlink:href="#path-7"></use>
                        <g id="Colors/Dynamics-365/Border" mask="url(#mask-8)" fill="#008372">
                            <g transform="translate(2.830189, 2.830189)" id="Rectangle">
                                <rect x="0" y="0" width="94.3396226" height="94.3396226"></rect>
                            </g>
                        </g>
                    </g>
                </g>
                <g id="Gear" filter="url(#filter-9)" transform="translate(13.000000, 13.000000)">
                    <g id="a30ee4c9-49d5-4d00-a305-a6a3597e53b7" fill-rule="nonzero">
                        <g id="Shape">
                            <use fill="black" fill-opacity="1" filter="url(#filter-12)" xlink:href="#path-11"></use>
                            <use fill="url(#linearGradient-10)" xlink:href="#path-11"></use>
                        </g>
                    </g>
                    <circle id="Oval" fill="#FFFFFF" cx="38.1212121" cy="35.8787879" r="13.4545455"></circle>
                </g>
                <g id="Group-3" transform="translate(31.000000, 32.000000)">
                    <g id="Computer-w/-code" transform="translate(0.000000, 0.000000)">
                        <g id="Icon-compute-21-Virtual-Machine" filter="url(#filter-13)" fill-rule="nonzero">
                            <rect id="Rectangle" fill="url(#linearGradient-14)" x="0" y="0" width="38" height="26.2068966" rx="0.6"></rect>
                            <path d="M26.8838753,34.4255604 C22.9965351,33.7916139 22.8436622,30.8935727 22.8436622,26.2068966 L15.1344988,26.2068966 C15.1344988,30.8935727 15.0034649,33.7916139 11.1161247,34.4255604 C10.0046622,34.5530632 9.16567094,35.5303668 9.17241379,36.6896552 L28.8275862,36.6896552 C28.8343291,35.5303668 27.9953378,34.5530632 26.8838753,34.4255604 Z" id="Path" fill="url(#linearGradient-15)"></path>
                        </g>
                        <g id="Group-21" transform="translate(2.620690, 0.000000)">
                            <polygon id="Fill-1525" fill="url(#linearGradient-16)" points="4.14545455 26.2068966 4.83636364 26.2068966 4.83636364 2.9793792e-13 4.14545455 2.9793792e-13"></polygon>
                            <g id="Group-24" transform="translate(0.000000, 11.553406)" fill="#FFFFFF">
                                <path d="M1.91211436,0.739988355 C1.91211436,1.14846193 1.53115772,1.47997671 1.06176471,1.47997671 C0.591946531,1.47997671 0.211415062,1.14846193 0.211415062,0.739988355 C0.211415062,0.331144789 0.591946531,0 1.06176471,0 C1.53115772,0 1.91211436,0.331144789 1.91211436,0.739988355" id="Fill-1526"></path>
                                <path d="M1.91211436,4.86278062 C1.91211436,5.27125419 1.53115772,5.60276897 1.06176471,5.60276897 C0.591946531,5.60276897 0.211415062,5.27125419 0.211415062,4.86278062 C0.211415062,4.45393705 0.591946531,4.12279226 1.06176471,4.12279226 C1.53115772,4.12279226 1.91211436,4.45393705 1.91211436,4.86278062" id="Fill-1528"></path>
                                <path d="M1.91211436,8.87986026 C1.91211436,9.28833383 1.53115772,9.61984861 1.06176471,9.61984861 C0.591946531,9.61984861 0.211415062,9.28833383 0.211415062,8.87986026 C0.211415062,8.47101669 0.591946531,8.1398719 1.06176471,8.1398719 C1.53115772,8.1398719 1.91211436,8.47101669 1.91211436,8.87986026" id="Fill-1530"></path>
                            </g>
                            <path d="M15.9972028,21.1732548 L9.56643357,21.1732548 C9.24314126,21.1732548 8.98181818,20.8661068 8.98181818,20.4861228 C8.98181818,20.1061388 9.24314126,19.7989907 9.56643357,19.7989907 L15.9972028,19.7989907 C16.3204951,19.7989907 16.5818182,20.1061388 16.5818182,20.4861228 C16.5818182,20.8661068 16.3204951,21.1732548 15.9972028,21.1732548" id="Fill-1531" fill="#FFFFFE"></path>
                            <path d="M23.9893506,21.1732548 L18.8075325,21.1732548 C18.3299416,21.1732548 17.9438961,20.8661068 17.9438961,20.4861228 C17.9438961,20.1061388 18.3299416,19.7989907 18.8075325,19.7989907 L23.9893506,19.7989907 C24.4669416,19.7989907 24.852987,20.1061388 24.852987,20.4861228 C24.852987,20.8661068 24.4669416,21.1732548 23.9893506,21.1732548" id="Fill-1532" fill="#FFFFFF"></path>
                            <path d="M15.0075325,8.80487805 L9.82571429,8.80487805 C9.34812338,8.80487805 8.96207792,8.49773003 8.96207792,8.11774601 C8.96207792,7.73776198 9.34812338,7.43061396 9.82571429,7.43061396 L15.0075325,7.43061396 C15.4851234,7.43061396 15.8711688,7.73776198 15.8711688,8.11774601 C15.8711688,8.49773003 15.4851234,8.80487805 15.0075325,8.80487805" id="Fill-1532" fill="#FFFFFF"></path>
                            <path d="M16.634965,17.0504626 L9.61958042,17.0504626 C9.2668979,17.0504626 8.98181818,16.7433146 8.98181818,16.3633305 C8.98181818,15.9833465 9.2668979,15.6761985 9.61958042,15.6761985 L16.634965,15.6761985 C16.9876476,15.6761985 17.2727273,15.9833465 17.2727273,16.3633305 C17.2727273,16.7433146 16.9876476,17.0504626 16.634965,17.0504626" id="Fill-1534" fill="#FFFFFE"></path>
                            <path d="M26.3076923,17.0504626 L19.2923077,17.0504626 C18.9396252,17.0504626 18.6545455,16.7433146 18.6545455,16.3633305 C18.6545455,15.9833465 18.9396252,15.6761985 19.2923077,15.6761985 L26.3076923,15.6761985 C26.6603748,15.6761985 26.9454545,15.9833465 26.9454545,16.3633305 C26.9454545,16.7433146 26.6603748,17.0504626 26.3076923,17.0504626" id="Fill-1534" fill="#FFFFFE"></path>
                            <path d="M30.4531469,17.0504626 L23.4377622,17.0504626 C23.0850797,17.0504626 22.8,16.7433146 22.8,16.3633305 C22.8,15.9833465 23.0850797,15.6761985 23.4377622,15.6761985 L30.4531469,15.6761985 C30.8058294,15.6761985 31.0909091,15.9833465 31.0909091,16.3633305 C31.0909091,16.7433146 30.8058294,17.0504626 30.4531469,17.0504626" id="Fill-1534" fill="#FFFFFE"></path>
                            <path d="M9.70613387,12.9276703 C9.29467093,12.9276703 8.96207792,12.6205223 8.96207792,12.2405383 C8.96207792,11.8605542 9.29467093,11.5534062 9.70613387,11.5534062 L17.8907493,11.5534062 C18.3022122,11.5534062 18.6348052,11.8605542 18.6348052,12.2405383 C18.6348052,12.6205223 18.3022122,12.9276703 17.8907493,12.9276703 L9.70613387,12.9276703 Z" id="Fill-1540" fill="#FFFFFE"></path>
                        </g>
                    </g>
                    <g id="Dynamics-BC-01-2" transform="translate(26.500000, 1.500000)" fill="#FFFFFF" fill-rule="nonzero">
                        <path d="M4.94265823,0.723944178 C5.11253165,0.713058102 5.30088608,0.867868229 5.30291139,1.0973619 C5.30468354,1.29558975 5.14025316,1.46698215 4.95607595,1.47217203 C4.76759494,1.4773619 4.58265823,1.3230581 4.58468354,1.09445051 C4.58708861,0.852298608 4.78721519,0.713311267 4.94265823,0.723944178 L4.94265823,0.723944178 Z M1.00392405,4.63217174 C1.20265823,4.63217174 1.36,4.79900747 1.36,5.00938722 C1.36,5.21293152 1.19860759,5.38065304 1.00278481,5.38103307 C0.806582278,5.38128595 0.642531646,5.21027329 0.642278185,5.00508342 C0.642025316,4.79926063 0.804303797,4.63191886 1.00392405,4.63217174 Z M4.59468354,8.86533658 C4.59911392,8.83761506 4.60151899,8.80938722 4.60860759,8.78242519 C4.66126582,8.5787543 4.85974684,8.46002013 5.05164557,8.51634924 C5.19518987,8.55850114 5.30253165,8.6973619 5.31151899,8.86723532 C5.32063291,9.03913405 5.22227848,9.1995138 5.0543038,9.25191886 C4.81594937,9.32622266 4.57708861,9.12255177 4.59468354,8.86533658 Z M6.55101266,6.52407076 L6.12468354,6.11027329 C5.96962025,6.2516657 5.7964557,6.36293152 5.60126582,6.43812139 C5.41582278,6.5095138 5.22455696,6.54824798 5.02481013,6.55331127 C4.7321519,6.56052646 4.4556962,6.50141253 4.19810127,6.36407076 C3.73886076,6.11913405 3.44632911,5.74318468 3.35594937,5.22888089 C3.27392405,4.7630581 3.39670886,4.34280494 3.69974684,3.9795138 C3.96683544,3.6595138 4.31303797,3.47356443 4.72253165,3.40812139 C5.19126582,3.33318468 5.60164557,3.4695138 5.96392405,3.76698215 C6.01835443,3.8116657 6.06987342,3.86002013 6.12721519,3.91077962 L6.49772152,3.49179228 C6.16189873,3.1487543 5.75696203,2.93888089 5.28113924,2.85799481 C5.28,2.84318468 5.27810127,2.8295138 5.27810127,2.81596949 C5.27797468,2.55470367 5.27860759,2.29343785 5.27746835,2.03217203 C5.27746835,2.00115937 5.28594937,1.98774165 5.31582278,1.97369101 C5.64949367,1.81647582 5.84455696,1.55710874 5.88379747,1.18698215 C5.93544304,0.699893545 5.60506329,0.259513798 5.13126582,0.160779621 C4.61696203,0.0536910136 4.10721519,0.371412533 3.99708861,0.904323925 C3.90151899,1.36672899 4.1435443,1.80596949 4.58367089,1.98685557 C4.61329114,1.99900747 4.62443038,2.01331127 4.6243038,2.04483025 C4.6233185,2.30136939 4.6233185,2.55791137 4.6243038,2.81445051 C4.6243038,2.84533658 4.61594937,2.85698215 4.5835443,2.86255177 C4.35101266,2.90229861 4.12936709,2.97533658 3.92177215,3.08824798 C3.5156962,3.30926063 3.20810127,3.62533658 3.00164557,4.04002013 C2.88924051,4.26571633 2.8343038,4.48014671 2.80037975,4.67926063 L1.89278481,4.67926063 C1.79594937,4.43039987 1.62873418,4.24293152 1.3821519,4.13255177 C1.17632911,4.04052646 0.962658228,4.02445051 0.74443038,4.08217203 C0.329873418,4.19153911 0.000886075949,4.5830581 0.0389873418,5.0838176 C0.0701072432,5.51537862 0.390696272,5.87050467 0.816835443,5.94546317 C1.32063291,6.03394418 1.73063291,5.74331127 1.88316456,5.35407076 C1.8943038,5.35331127 1.90658228,5.3516657 1.91886076,5.3516657 C2.20063291,5.3516657 2.48227848,5.35217203 2.76405063,5.35103279 C2.79822785,5.3509062 2.80911392,5.35862772 2.81632911,5.39596949 C2.89683544,5.8116657 3.07962025,6.17533658 3.37240506,6.48356443 C3.61924051,6.74318468 3.91113924,6.9316657 4.25012658,7.04483025 C4.35772152,7.08077962 4.47037975,7.10179228 4.58126582,7.12710874 C4.61012658,7.13356443 4.6243038,7.14179228 4.62417722,7.17495684 C4.62291139,7.42521 4.62316456,7.67546317 4.62417722,7.92558975 C4.62443038,7.95596949 4.6121519,7.96850114 4.58544304,7.98027329 C4.25227848,8.1273619 4.05417722,8.38394418 3.99810127,8.74077962 C3.9535443,9.02495684 4.02721519,9.28508342 4.20949367,9.51014671 C4.36962025,9.70812139 4.57911392,9.82267836 4.83037975,9.85533658 C5.20189873,9.90343785 5.57594937,9.71267836 5.76379747,9.38824798 C5.85556962,9.22976696 5.90632911,9.05913405 5.89962025,8.87812139 C5.88468354,8.46900747 5.69582278,8.16672899 5.32126582,7.98926063 C5.29037975,7.97457709 5.27696203,7.95964038 5.27721519,7.92369101 C5.27898734,7.67660241 5.27873418,7.4295138 5.27734177,7.18242519 C5.27721519,7.14634924 5.28493671,7.13267836 5.32455696,7.12584291 C5.70506329,7.06027329 6.05417722,6.9195138 6.36151899,6.68255177 C6.42468354,6.6338176 6.48417722,6.58027329 6.55101266,6.52407076 L6.55101266,6.52407076 Z" id="path14" transform="translate(3.293497, 5.001402) scale(-1, 1) rotate(-180.000000) translate(-3.293497, -5.001402) "></path>
                        <path d="M8.87468354,4.62320302 C8.89379747,4.62510176 8.91949367,4.62434226 8.94329114,4.63079796 C9.17974684,4.6940891 9.28582278,4.96155745 9.16607595,5.19003847 C9.07075949,5.37168404 8.85443038,5.42586125 8.68556962,5.31029163 C8.53392405,5.20649416 8.48303797,4.98257011 8.57594937,4.81117771 C8.63822785,4.696241 8.73265823,4.62636758 8.87468354,4.62320302 L8.87468354,4.62320302 Z M4.6135443,4.99725366 C4.61810127,4.96484859 4.62037975,4.9319372 4.62746835,4.90016505 C4.68468354,4.64915239 4.96759494,4.54016505 5.16164557,4.69396252 C5.31620253,4.81674733 5.34835443,5.06649416 5.22873418,5.22750682 C5.14734177,5.33700049 5.03848101,5.39294986 4.9021519,5.36586125 C4.72924051,5.33155745 4.61696203,5.18079796 4.6135443,4.99725366 Z M9.7764557,4.91168404 C9.77556962,4.71725366 9.67582278,4.47522834 9.47025316,4.28168404 C9.32873418,4.1483929 9.15911392,4.07117771 8.96367089,4.04750682 C8.54911392,3.99738024 8.17,4.2505448 8.02151899,4.62396252 C8.00848101,4.65662075 7.99227848,4.66446885 7.95987342,4.66434226 C7.25632911,4.66345619 6.55278481,4.66358277 5.84911392,4.66434226 C5.81810127,4.66434226 5.80443038,4.65611442 5.79151899,4.62548151 C5.67126582,4.3419372 5.4678481,4.14953214 5.16683544,4.0683929 C4.83822785,3.9797853 4.46240506,4.10877264 4.2521519,4.37598783 C4.1135443,4.5519372 4.03835443,4.7519372 4.03405063,4.97345619 C4.02518987,5.43168404 4.32417722,5.85497518 4.79455696,5.93851948 C5.21493671,6.01320302 5.59455696,5.78649416 5.76835443,5.42434226 C5.77506329,5.41041821 5.78177215,5.396241 5.78797468,5.38181062 C5.81898734,5.30864606 5.81898734,5.30864606 5.89594937,5.30864606 C6.57113924,5.30864606 7.2464557,5.30953214 7.92164557,5.30700049 C7.98063291,5.30674733 8.00493671,5.32611442 8.02670886,5.37813973 C8.14734177,5.66497518 8.3556962,5.85877264 8.66126582,5.92750682 C9.02518987,6.00915239 9.32962025,5.89459543 9.56582278,5.60851948 C9.71037975,5.43332961 9.77632911,5.22674733 9.7764557,4.91168404 L9.7764557,4.91168404 Z" id="path16" transform="translate(6.905157, 4.996918) scale(-1, 1) rotate(-180.000000) translate(-6.905157, -4.996918) "></path>
                    </g>
                </g>
            </g>
        </g>
    </g>
</svg>