<?xml version="1.0" encoding="UTF-8"?>
<svg width="100px" height="100px" viewBox="0 0 100 100" version="1.1" xmlns="http://www.w3.org/2000/svg" xmlns:xlink="http://www.w3.org/1999/xlink">
    <!-- Generator: Sketch 55.2 (78181) - https://sketchapp.com -->
    <title>Use cost accounting in Microsoft Dynamics 365 Business Central/allocate-costs-in-dynamics-365-business-central</title>
    <desc>Created with Sketch.</desc>
    <defs>
        <rect id="path-1" x="0" y="0" width="96" height="96" rx="48"></rect>
        <path d="M0,9 C0,13.962375 4.03734375,18 9,18 C13.9626563,18 18,13.962375 18,9 C18,4.03734375 13.9626563,0 9,0 C4.03734375,0 0,4.03734375 0,9 Z" id="path-3"></path>
        <filter x="-5.6%" y="-5.6%" width="111.1%" height="122.2%" filterUnits="objectBoundingBox" id="filter-4">
            <feOffset dx="0" dy="2" in="SourceAlpha" result="shadowOffsetOuter1"></feOffset>
            <feColorMatrix values="0 0 0 0 0   0 0 0 0 0   0 0 0 0 0  0 0 0 0.1 0" type="matrix" in="shadowOffsetOuter1"></feColorMatrix>
        </filter>
        <path d="M0,9 C0,13.962375 4.03734375,18 9,18 C13.9626563,18 18,13.962375 18,9 C18,4.03734375 13.9626563,0 9,0 C4.03734375,0 0,4.03734375 0,9 Z" id="path-5"></path>
        <filter x="-5.6%" y="-5.6%" width="111.1%" height="122.2%" filterUnits="objectBoundingBox" id="filter-6">
            <feOffset dx="0" dy="2" in="SourceAlpha" result="shadowOffsetOuter1"></feOffset>
            <feColorMatrix values="0 0 0 0 0   0 0 0 0 0   0 0 0 0 0  0 0 0 0.1 0" type="matrix" in="shadowOffsetOuter1"></feColorMatrix>
        </filter>
        <path d="M0,9 C0,13.962375 4.03734375,18 9,18 C13.9626563,18 18,13.962375 18,9 C18,4.03734375 13.9626563,0 9,0 C4.03734375,0 0,4.03734375 0,9 Z" id="path-7"></path>
        <filter x="-5.6%" y="-5.6%" width="111.1%" height="122.2%" filterUnits="objectBoundingBox" id="filter-8">
            <feOffset dx="0" dy="2" in="SourceAlpha" result="shadowOffsetOuter1"></feOffset>
            <feColorMatrix values="0 0 0 0 0   0 0 0 0 0   0 0 0 0 0  0 0 0 0.1 0" type="matrix" in="shadowOffsetOuter1"></feColorMatrix>
        </filter>
        <filter x="-14.8%" y="-14.8%" width="129.6%" height="133.3%" filterUnits="objectBoundingBox" id="filter-9">
            <feOffset dx="0" dy="2" in="SourceAlpha" result="shadowOffsetOuter1"></feOffset>
            <feColorMatrix values="0 0 0 0 0   0 0 0 0 0   0 0 0 0 0  0 0 0 0.0964956975 0" type="matrix" in="shadowOffsetOuter1" result="shadowMatrixOuter1"></feColorMatrix>
            <feMerge>
                <feMergeNode in="shadowMatrixOuter1"></feMergeNode>
                <feMergeNode in="SourceGraphic"></feMergeNode>
            </feMerge>
        </filter>
    </defs>
    <g id="Badges" stroke="none" stroke-width="1" fill="none" fill-rule="evenodd">
        <g id="Use-cost-accounting-in-Microsoft-Dynamics-365-Business-Central" transform="translate(-50.000000, -260.000000)">
            <g id="Use-cost-accounting-in-Microsoft-Dynamics-365-Business-Central/allocate-costs-in-dynamics-365-business-central" transform="translate(50.000000, 260.000000)">
                <g id="Mask" transform="translate(2.000000, 2.000000)">
                    <mask id="mask-2" fill="white">
                        <use xlink:href="#path-1"></use>
                    </mask>
                    <use id="BG" fill="#01B6C3" xlink:href="#path-1"></use>
                    <path d="M23,60.5 L23,51 C23,49.3431458 24.3431458,48 26,48 L70,48 C71.6568542,48 73,49.3431458 73,51 L73,62.0866684" id="Path-204" stroke="#FFFFFF" stroke-width="2" mask="url(#mask-2)"></path>
                    <rect id="Rectangle" fill="#FFFFFF" mask="url(#mask-2)" x="47" y="39" width="2" height="28"></rect>
                    <g id="Group-4" mask="url(#mask-2)">
                        <g transform="translate(14.000000, 58.000000)" id="Path">
                            <g>
                                <use fill="black" fill-opacity="1" filter="url(#filter-4)" xlink:href="#path-3"></use>
                                <use fill="#F7CB64" fill-rule="evenodd" xlink:href="#path-3"></use>
                            </g>
                        </g>
                    </g>
                    <g id="Group-3" mask="url(#mask-2)">
                        <g transform="translate(39.000000, 58.000000)" id="Path">
                            <g>
                                <use fill="black" fill-opacity="1" filter="url(#filter-6)" xlink:href="#path-5"></use>
                                <use fill="#4D84CD" fill-rule="evenodd" xlink:href="#path-5"></use>
                            </g>
                        </g>
                    </g>
                    <g id="Group-2" mask="url(#mask-2)">
                        <g transform="translate(64.000000, 58.000000)" id="Path">
                            <g>
                                <use fill="black" fill-opacity="1" filter="url(#filter-8)" xlink:href="#path-7"></use>
                                <use fill="#DF5142" fill-rule="evenodd" xlink:href="#path-7"></use>
                            </g>
                        </g>
                    </g>
                    <g id="Coin-Money" filter="url(#filter-9)" mask="url(#mask-2)">
                        <g transform="translate(35.000000, 15.000000)">
                            <path d="M13.5,0 C6.04420313,0 0,6.04420312 0,13.5 C0,20.9557969 6.04420313,27 13.5,27 C20.9557969,27 27,20.9557969 27,13.5 C27,6.04420312 20.9557969,0 13.5,0" id="Fill-21" fill="#F7CB64"></path>
                            <path d="M11.0360724,26.745133 L20.7,2.52535155 C19.602749,1.82026356 18.3966202,1.26911209 17.1112691,0.9 L7.3975195,25.5447353 C8.78059237,26.1897304 9.99344332,26.589863 11.0360724,26.745133 Z" id="Fill-22" fill="#F2BE53"></path>
                            <path d="M13.8429067,27 C21.1093227,27 27,21.005868 27,13.6118362 C27,9.62802074 25.2879332,6.05254425 22.5738716,3.6 L13.5,26.991214 C13.6143022,26.9941427 13.7277822,27 13.8429067,27" id="Fill-23" fill="#F2BE53"></path>
                            <path d="M13.5,3.47142857 C7.97007857,3.47142857 3.47142857,7.97007857 3.47142857,13.5 C3.47142857,19.0299214 7.97007857,23.5285714 13.5,23.5285714 C19.0299214,23.5285714 23.5285714,19.0299214 23.5285714,13.5 C23.5285714,7.97007857 19.0299214,3.47142857 13.5,3.47142857 Z M13.5,25.2 C7.04828571,25.2 1.8,19.9512964 1.8,13.5 C1.8,7.04828571 7.04828571,1.8 13.5,1.8 C19.9517143,1.8 25.2,7.04828571 25.2,13.5 C25.2,19.9512964 19.9517143,25.2 13.5,25.2 L13.5,25.2 Z" id="Fill-24" fill="#EFB252"></path>
                        </g>
                    </g>
                </g>
                <g id="Dynamic-Border" stroke="#1D8E96" stroke-width="4">
                    <rect id="Azure-Border" x="2" y="2" width="96" height="96" rx="48"></rect>
                </g>
            </g>
        </g>
    </g>
</svg>