<?xml version="1.0" encoding="UTF-8"?>
<svg width="100px" height="100px" viewBox="0 0 100 100" version="1.1" xmlns="http://www.w3.org/2000/svg" xmlns:xlink="http://www.w3.org/1999/xlink">
    <!-- Generator: Sketch 55.2 (78181) - https://sketchapp.com -->
    <title>Reconcile bank accounts in Microsoft Dynamics 365 Business Central/perform-a-bank-account-reconciliation-in-dynamics-365-business-central</title>
    <desc>Created with Sketch.</desc>
    <defs>
        <rect id="path-1" x="0" y="0" width="96" height="96" rx="48"></rect>
        <filter x="-9.1%" y="-6.2%" width="118.2%" height="112.5%" filterUnits="objectBoundingBox" id="filter-3">
            <feOffset dx="0" dy="2" in="SourceAlpha" result="shadowOffsetOuter1"></feOffset>
            <feColorMatrix values="0 0 0 0 0   0 0 0 0 0   0 0 0 0 0  0 0 0 0.0957440997 0" type="matrix" in="shadowOffsetOuter1" result="shadowMatrixOuter1"></feColorMatrix>
            <feMerge>
                <feMergeNode in="shadowMatrixOuter1"></feMergeNode>
                <feMergeNode in="SourceGraphic"></feMergeNode>
            </feMerge>
        </filter>
        <filter x="-6.5%" y="-6.5%" width="112.9%" height="112.9%" filterUnits="objectBoundingBox" id="filter-4">
            <feOffset dx="0" dy="2" in="SourceAlpha" result="shadowOffsetOuter1"></feOffset>
            <feColorMatrix values="0 0 0 0 0   0 0 0 0 0   0 0 0 0 0  0 0 0 0.103600543 0" type="matrix" in="shadowOffsetOuter1" result="shadowMatrixOuter1"></feColorMatrix>
            <feMerge>
                <feMergeNode in="shadowMatrixOuter1"></feMergeNode>
                <feMergeNode in="SourceGraphic"></feMergeNode>
            </feMerge>
        </filter>
    </defs>
    <g id="Badges" stroke="none" stroke-width="1" fill="none" fill-rule="evenodd">
        <g id="Reconcile-bank-accounts-in-Microsoft-Dynamics-365-Business-Central" transform="translate(-50.000000, -260.000000)">
            <g id="Reconcile-bank-accounts-in-Microsoft-Dynamics-365-Business-Central/perform-a-bank-account-reconciliation-in-dynamics-365-business-central" transform="translate(50.000000, 260.000000)">
                <g id="Mask" transform="translate(2.000000, 2.000000)">
                    <mask id="mask-2" fill="white">
                        <use xlink:href="#path-1"></use>
                    </mask>
                    <use id="BG" fill="#01B6C3" xlink:href="#path-1"></use>
                    <g id="Group-53" filter="url(#filter-3)" mask="url(#mask-2)">
                        <g transform="translate(27.000000, 17.000000)">
                            <path d="M43.2,3.3975 L39.2,0.3975 C38.488,-0.1325 37.512,-0.1325 36.8,0.3975 L34,2.4975 L31.2,0.3975 C30.488,-0.1325 29.512,-0.1325 28.8,0.3975 L26,2.4975 L23.2,0.3975 C22.488,-0.1325 21.512,-0.1325 20.8,0.3975 L18,2.4975 L15.2,0.3975 C14.488,-0.1325 13.512,-0.1325 12.8,0.3975 L10,2.4975 L7.2,0.3975 C6.488,-0.1325 5.512,-0.1325 4.8,0.3975 L0.8,3.3975 C0.296,3.7775 0,4.3675 0,4.9975 L0,58.9975 C0,59.6275 0.296,60.2175 0.8,60.5975 L4.8,63.5975 C5.512,64.1275 6.488,64.1275 7.2,63.5975 L10,61.4975 L12.8,63.5975 C13.512,64.1275 14.488,64.1275 15.2,63.5975 L18,61.4975 L20.8,63.5975 C21.512,64.1275 22.488,64.1275 23.2,63.5975 L26,61.4975 L28.8,63.5975 C29.512,64.1275 30.488,64.1275 31.2,63.5975 L34,61.4975 L36.8,63.5975 C37.156,63.8675 37.578,63.9975 38,63.9975 C38.422,63.9975 38.844,63.8675 39.2,63.5975 L43.2,60.5975 C43.704,60.2175 44,59.6275 44,58.9975 L44,4.9975 C44,4.3675 43.704,3.7775 43.2,3.3975" id="Fill-749" fill="#E1E4E1"></path>
                            <path d="M36,31.9975 L8,31.9975 C7.448,31.9975 7,31.5475 7,30.9975 C7,30.4475 7.448,29.9975 8,29.9975 L36,29.9975 C36.552,29.9975 37,30.4475 37,30.9975 C37,31.5475 36.552,31.9975 36,31.9975" id="Fill-751" fill="#C5CCCD"></path>
                            <path d="M23,37.9975 L8,37.9975 C7.141,37.9975 7,37.5475 7,36.9975 C7,36.4475 7.141,35.9975 8,35.9975 L23,35.9975 C23.859,35.9975 24,36.4475 24,36.9975 C24,37.5475 23.859,37.9975 23,37.9975" id="Fill-753" fill="#6E828F"></path>
                            <path d="M36,37.9975 L29,37.9975 C28.141,37.9975 28,37.5475 28,36.9975 C28,36.4475 28.141,35.9975 29,35.9975 L36,35.9975 C36.859,35.9975 37,36.4475 37,36.9975 C37,37.5475 36.859,37.9975 36,37.9975" id="Fill-754" fill="#6E828F"></path>
                            <path d="M23,41.9975 L8,41.9975 C7.141,41.9975 7,41.5475 7,40.9975 C7,40.4475 7.141,39.9975 8,39.9975 L23,39.9975 C23.859,39.9975 24,40.4475 24,40.9975 C24,41.5475 23.859,41.9975 23,41.9975" id="Fill-755" fill="#6E828F"></path>
                            <path d="M36,41.9975 L29,41.9975 C28.141,41.9975 28,41.5475 28,40.9975 C28,40.4475 28.141,39.9975 29,39.9975 L36,39.9975 C36.859,39.9975 37,40.4475 37,40.9975 C37,41.5475 36.859,41.9975 36,41.9975" id="Fill-756" fill="#6E828F"></path>
                            <path d="M23,45.9975 L8,45.9975 C7.141,45.9975 7,45.5475 7,44.9975 C7,44.4475 7.141,43.9975 8,43.9975 L23,43.9975 C23.859,43.9975 24,44.4475 24,44.9975 C24,45.5475 23.859,45.9975 23,45.9975" id="Fill-757" fill="#6E828F"></path>
                            <path d="M36,45.9975 L29,45.9975 C28.141,45.9975 28,45.5475 28,44.9975 C28,44.4475 28.141,43.9975 29,43.9975 L36,43.9975 C36.859,43.9975 37,44.4475 37,44.9975 C37,45.5475 36.859,45.9975 36,45.9975" id="Fill-758" fill="#6E828F"></path>
                            <path d="M23,49.9975 L8,49.9975 C7.141,49.9975 7,49.5475 7,48.9975 C7,48.4475 7.141,47.9975 8,47.9975 L23,47.9975 C23.859,47.9975 24,48.4475 24,48.9975 C24,49.5475 23.859,49.9975 23,49.9975" id="Fill-759" fill="#6E828F"></path>
                            <path d="M36,49.9975 L29,49.9975 C28.141,49.9975 28,49.5475 28,48.9975 C28,48.4475 28.141,47.9975 29,47.9975 L36,47.9975 C36.859,47.9975 37,48.4475 37,48.9975 C37,49.5475 36.859,49.9975 36,49.9975" id="Fill-760" fill="#6E828F"></path>
                            <path d="M23,53.9975 L8,53.9975 C7.141,53.9975 7,53.5475 7,52.9975 C7,52.4475 7.141,51.9975 8,51.9975 L23,51.9975 C23.859,51.9975 24,52.4475 24,52.9975 C24,53.5475 23.859,53.9975 23,53.9975" id="Fill-761" fill="#6E828F"></path>
                            <path d="M36,53.9975 L29,53.9975 C28.141,53.9975 28,53.5475 28,52.9975 C28,52.4475 28.141,51.9975 29,51.9975 L36,51.9975 C36.859,51.9975 37,52.4475 37,52.9975 C37,53.5475 36.859,53.9975 36,53.9975" id="Fill-762" fill="#6E828F"></path>
                        </g>
                    </g>
                    <g id="Magnify" filter="url(#filter-4)" mask="url(#mask-2)">
                        <g transform="translate(29.000000, 37.000000)">
                            <path d="M38.8533333,21.3125 C38.8533333,30.9428438 31.0799111,38.75 21.4933333,38.75 C11.9067556,38.75 4.13333333,30.9428438 4.13333333,21.3125 C4.13333333,11.683125 11.9067556,3.875 21.4933333,3.875 C31.0799111,3.875 38.8533333,11.683125 38.8533333,21.3125" id="Fill-1290" fill="#C7E7F1" opacity="0.613327753"></path>
                            <path d="M4.13333333,21.3125 C4.13333333,11.6976562 11.9164,3.875 21.4933333,3.875 C31.0606222,3.875 38.8533333,11.6976562 38.8533333,21.3125 C38.8533333,30.9273437 31.0606222,38.75 21.4933333,38.75 C11.9164,38.75 4.13333333,30.9273437 4.13333333,21.3125 Z M45.9998667,43.1926875 L37.7924444,34.9418437 C40.8593778,31.2450938 42.7111111,26.4924062 42.7111111,21.3125 C42.7111111,9.56059375 33.1920444,0 21.4933333,0 C9.79462222,0 0.275555556,9.56059375 0.275555556,21.3125 C0.275555556,33.0644062 9.79462222,42.625 21.4933333,42.625 C26.6531111,42.625 31.3788889,40.7659688 35.0630667,37.6814687 L43.2801333,45.9323125 L45.9998667,43.1926875 L45.9998667,43.1926875 Z" id="Fill-1292" fill="#30404D"></path>
                            <path d="M31.6778667,7.21040625 C33.7514222,10.0856562 34.9955556,13.6119062 34.9955556,17.4375 C34.9955556,27.0678438 27.2221333,34.875 17.6355556,34.875 C13.826,34.875 10.3154222,33.6282187 7.45102222,31.5395938 C10.6047556,35.901875 15.7163111,38.75 21.4933333,38.75 C31.0799111,38.75 38.8533333,30.9428438 38.8533333,21.3125 C38.8533333,15.50775 36.0178667,10.3801563 31.6778667,7.21040625" id="Fill-1293" fill="#ABDCEC" opacity="0.613327753"></path>
                            <path d="M18.4842667,42.4147813 C24.2034222,43.2110938 29.5657333,41.6969375 33.79,38.6715312 C34.5519111,38.1241875 35.5935111,38.2142813 36.2589778,38.8798125 L41.9106222,44.5625 L44.64,44.5625 L33.7610667,33.6369375 C30.2312,37.1815937 25.1968,39.211125 19.7187556,38.6599063 C11.5981333,37.8442187 5.03026667,31.2499375 4.22013333,23.0969375 C3.6704,17.5905625 5.69573333,12.53175 9.2256,8.9880625 L6.49622222,6.24940625 C1.9344,10.8364375 -0.573155556,17.4995 0.535955556,24.6905312 C1.94404444,33.8568437 9.34133333,41.1428125 18.4842667,42.4147813" id="Fill-1294" fill="#182A37"></path>
                            <path d="M61.4213333,53.4498125 C62.1928889,54.2238437 62.1928889,55.4919375 61.4213333,56.2669375 L56.2904889,61.41875 C55.5189333,62.19375 54.2555111,62.19375 53.4839556,61.41875 L39.432,47.3001875 C38.6604444,46.5261563 38.6604444,45.2580625 39.432,44.4830625 L44.5628444,39.33125 C45.3344,38.55625 46.5978222,38.55625 47.3693778,39.33125 L61.4213333,53.4498125" id="Fill-1296" fill="#DF5142"></path>
                            <path d="M61.6045778,53.6765 L59.0198667,56.2708125 C58.2676,57.0274062 57.0524,57.0274062 56.3001333,56.2708125 L44.5532,44.4791875 C43.8009333,43.7225938 42.5857333,43.7225938 41.8334667,44.4791875 L39.2487556,47.0735 C39.2487556,47.0899688 39.2487556,47.0986875 39.2487556,47.1151563 L53.4839556,61.41875 C54.2555111,62.19375 55.5189333,62.19375 56.2904889,61.41875 L61.4213333,56.2669375 C62.1253778,55.5626563 62.1832444,54.4544063 61.6045778,53.6765" id="Fill-1297" fill="#C2423D"></path>
                        </g>
                    </g>
                    <g id="g12" mask="url(#mask-2)" fill="#1C294F" fill-rule="nonzero">
                        <g transform="translate(37.000000, 21.000000)">
                            <path d="M11.5843048,1.3777147 C11.984978,1.35179146 12.4296033,1.7172576 12.4344239,2.25896892 C12.4385072,2.72640399 12.050651,3.13121153 11.6158369,3.14328561 C11.1712682,3.15560354 10.7344692,2.79133403 10.7396301,2.25199329 C10.7451312,1.68061571 11.2174321,1.35252305 11.5843048,1.3777147 Z M2.28976376,10.5998904 C2.75890587,10.6002309 3.1302134,10.9937017 3.13006032,11.4903323 C3.12988446,11.9704596 2.74931013,12.3663123 2.287172,12.3669937 C1.82416617,12.3676734 1.43704156,11.9642212 1.43639418,11.4802375 C1.4357315,10.9944389 1.81851762,10.5994937 2.28976376,10.5998904 Z M10.7629956,20.5891587 C10.7736575,20.523826 10.7792153,20.457189 10.7957753,20.3933875 C10.9203158,19.9130333 11.3887036,19.6328173 11.841609,19.7656945 C12.1801254,19.8650546 12.433403,20.192739 12.4547269,20.5935256 C12.4762776,20.9991895 12.2440403,21.3778583 11.8477339,21.5013779 C11.2852602,21.6767327 10.7216522,21.1961517 10.7629956,20.5891587 L10.7629956,20.5891587 Z M15.3795563,15.0645188 C15.0352552,14.7302559 14.7055292,14.410171 14.3736482,14.0879878 C14.0074561,14.4216836 13.59907,14.6840352 13.1383951,14.8614317 C12.7007454,15.0299243 12.2493145,15.1214581 11.7779777,15.1331976 C11.087504,15.1504381 10.4350277,15.0109256 9.827184,14.6867574 C8.74369331,14.1088579 8.05333308,13.2217623 7.83992427,12.0081734 C7.64653493,10.908633 7.93622195,9.91730003 8.65142221,9.06014859 C9.28166728,8.30473922 10.0986096,7.86589855 11.0650459,7.71152736 C12.170938,7.53486819 13.1394159,7.85637087 13.994072,8.55830043 C14.122639,8.66389895 14.2441737,8.77800433 14.3797164,8.89766752 C14.668893,8.57072045 14.9573891,8.24451064 15.2538816,7.90928355 C14.4613823,7.09943026 13.5058915,6.60421745 12.3828156,6.41343689 C12.3802635,6.3783319 12.3758399,6.34623268 12.3757832,6.31413345 C12.3754997,5.69761279 12.3769175,5.08109779 12.3743087,4.46457146 C12.3740251,4.39164496 12.3943849,4.35983497 12.464765,4.32664686 C13.2522169,3.95564558 13.7125516,3.34359386 13.8051062,2.47029072 C13.9268678,1.32100229 13.1474691,0.281701341 12.0292137,0.0488258733 C10.8157948,-0.203876595 9.61269765,0.545680053 9.35278465,1.80334138 C9.1273528,2.89432945 9.69856025,3.93085659 10.737078,4.35766288 C10.806891,4.38637071 10.8334324,4.42004654 10.8331488,4.49457232 C10.8307669,5.09997735 10.8307102,5.70532567 10.8329787,6.31073071 C10.8332055,6.38343602 10.8132428,6.41111168 10.7368511,6.42421225 C10.1882152,6.51795787 9.66504321,6.69036361 9.17527479,6.95685525 C8.21706183,7.47815577 7.49125634,8.2242643 7.00403998,9.20255346 C6.7387393,9.73519647 6.60915143,10.2412413 6.52924364,10.7109336 C5.81886393,10.7109336 5.10719685,10.7109336 4.38730079,10.7109336 C4.15890288,10.1237899 3.76433192,9.68160324 3.18225271,9.42112311 C2.69678876,9.20391456 2.19249063,9.16603067 1.67755891,9.30202704 C0.69926975,9.56035209 -0.0771379586,10.4840839 0.0127602934,11.6657438 C0.0916262792,12.7022766 0.856204345,13.5248335 1.84847312,13.699054 C3.03694983,13.9077557 4.00469615,13.2221593 4.36455344,12.3035883 C4.39091337,12.3017735 4.41987073,12.2979738 4.4488451,12.2979738 C5.11364505,12.2976902 5.77842798,12.2988812 6.44326762,12.2963291 C6.52379925,12.2959889 6.5496034,12.3140801 6.56667383,12.4022679 C6.75660371,13.3831659 7.18795834,14.241565 7.87882898,14.9687316 C8.46103864,15.5815659 9.15020791,16.0261913 9.95013652,16.2933067 C10.2038679,16.3780918 10.4696222,16.4276017 10.7312933,16.4871498 C10.7996318,16.502689 10.8330354,16.5221413 10.8326951,16.6001776 C10.8299162,17.190724 10.8303699,17.7812704 10.8329787,18.37176 C10.8332622,18.4433878 10.8043956,18.4727648 10.7411613,18.5006673 C9.95518393,18.8476906 9.48764678,19.4530956 9.35550685,20.2953317 C9.25030532,20.9658993 9.42407216,21.5795844 9.85400898,22.1108663 C10.2319972,22.5779497 10.7261325,22.8481844 11.3193444,22.9252566 C12.1960049,23.0390784 13.0784501,22.5886684 13.5220546,21.8228806 C13.7385826,21.4490324 13.8582458,21.0466011 13.8425364,20.6196133 C13.8070344,19.6538576 13.361445,18.9409258 12.4776387,18.5218211 C12.4047066,18.4872265 12.3731177,18.4521215 12.3736849,18.3672797 C12.3777682,17.7842194 12.3773145,17.2011024 12.3740819,16.6179853 C12.3736282,16.53286 12.3919463,16.5004772 12.4854083,16.4843709 C13.3832226,16.3298295 14.2071405,15.9974381 14.9323222,15.4383104 C15.0814191,15.3233543 15.2216689,15.196999 15.3795563,15.0645188 L15.3795563,15.0645188 Z" id="path14"></path>
                            <path d="M20.8629096,10.5998907 C20.9079959,10.6044844 20.9686215,10.6026129 21.0247101,10.6176984 C21.5825334,10.7673624 21.8329187,11.3984582 21.5502073,11.9376231 C21.325456,12.3663123 20.8150443,12.494142 20.4166396,12.221412 C20.0587275,11.9764711 19.9386106,11.4480815 20.1578041,11.0435519 C20.3046893,10.7724098 20.5276258,10.6074901 20.8629096,10.5998907 Z M10.8075148,11.4827328 C10.8182902,11.4063412 10.8236779,11.3286452 10.8406916,11.2536714 C10.975497,10.6611401 11.6431722,10.4039493 12.100728,10.7670221 C12.4658425,11.0567659 12.5416103,11.6460646 12.2592959,12.0260945 C12.0672677,12.2844762 11.8103037,12.4165595 11.4886309,12.3525879 C11.0806418,12.2714324 10.8157948,11.9158455 10.8075148,11.4827328 L10.8075148,11.4827328 Z M22.9907594,11.2806665 C22.9885476,10.8218063 22.7534179,10.250769 22.2682999,9.79400724 C21.9342638,9.47948019 21.5338742,9.29743334 21.0727455,9.24168503 C20.0945131,9.12338293 19.1999881,9.72062138 18.8495054,10.6017055 C18.8187106,10.6790045 18.7804297,10.6971525 18.7040948,10.697039 C17.0438388,10.6951108 15.3835829,10.6951675 13.7233269,10.697039 C13.6501679,10.6971525 13.6178985,10.6778135 13.5872171,10.6053918 C13.3037118,9.93629869 12.8234143,9.48220238 12.1133182,9.29079798 C11.3378893,9.08175602 10.4510206,9.38607484 9.95473023,10.0164333 C9.62761302,10.4319652 9.45033001,10.9038692 9.44012177,11.4263607 C9.41902475,12.5080933 10.124754,13.5065721 11.2347861,13.7037044 C12.2267997,13.8799099 13.1222887,13.3450551 13.5325464,12.4905692 C13.5484825,12.4573924 13.5644187,12.4241589 13.5788237,12.3902449 C13.6522663,12.2175556 13.6520394,12.2174989 13.8336893,12.2174989 C15.4270813,12.2174989 17.02053,12.2197107 18.613922,12.2135857 C18.7530943,12.2130186 18.810544,12.2587288 18.8620389,12.381341 C19.1463382,13.0583739 19.6380915,13.5157028 20.3591332,13.6776167 C21.2180427,13.8704956 21.9365323,13.6000341 22.4937885,12.9249295 C22.834857,12.5117796 22.9905893,12.0241663 22.9907594,11.2806665 L22.9907594,11.2806665 Z" id="path16"></path>
                        </g>
                    </g>
                </g>
                <g id="Dynamic-Border" stroke="#1D8E96" stroke-width="4">
                    <rect id="Azure-Border" x="2" y="2" width="96" height="96" rx="48"></rect>
                </g>
            </g>
        </g>
    </g>
</svg>