<?xml version="1.0" encoding="UTF-8"?>
<svg width="100px" height="100px" viewBox="0 0 100 100" version="1.1" xmlns="http://www.w3.org/2000/svg" xmlns:xlink="http://www.w3.org/1999/xlink">
    <!-- Generator: Sketch 55.2 (78181) - https://sketchapp.com -->
    <title>Process customer and vendor payments in Microsoft Dynamics 365 Business Central/set-up-cash-management-in-dynamics-365-business-central</title>
    <desc>Created with Sketch.</desc>
    <defs>
        <rect id="path-1" x="0" y="0" width="96" height="96" rx="48"></rect>
        <filter x="-5.9%" y="-7.0%" width="111.8%" height="114.0%" filterUnits="objectBoundingBox" id="filter-3">
            <feOffset dx="0" dy="2" in="SourceAlpha" result="shadowOffsetOuter1"></feOffset>
            <feColorMatrix values="0 0 0 0 0   0 0 0 0 0   0 0 0 0 0  0 0 0 0.102921196 0" type="matrix" in="shadowOffsetOuter1" result="shadowMatrixOuter1"></feColorMatrix>
            <feMerge>
                <feMergeNode in="shadowMatrixOuter1"></feMergeNode>
                <feMergeNode in="SourceGraphic"></feMergeNode>
            </feMerge>
        </filter>
        <filter x="-13.8%" y="-14.3%" width="127.6%" height="128.6%" filterUnits="objectBoundingBox" id="filter-4">
            <feOffset dx="0" dy="2" in="SourceAlpha" result="shadowOffsetOuter1"></feOffset>
            <feColorMatrix values="0 0 0 0 0   0 0 0 0 0   0 0 0 0 0  0 0 0 0.0964956975 0" type="matrix" in="shadowOffsetOuter1" result="shadowMatrixOuter1"></feColorMatrix>
            <feMerge>
                <feMergeNode in="shadowMatrixOuter1"></feMergeNode>
                <feMergeNode in="SourceGraphic"></feMergeNode>
            </feMerge>
        </filter>
    </defs>
    <g id="Badges" stroke="none" stroke-width="1" fill="none" fill-rule="evenodd">
        <g id="Process-customer-and-vendor-payments-in-Microsoft-Dynamics-365-Business-Central" transform="translate(-50.000000, -460.000000)">
            <g id="Process-customer-and-vendor-payments-in-Microsoft-Dynamics-365-Business-Central/set-up-cash-management-in-dynamics-365-business-central" transform="translate(50.000000, 460.000000)">
                <g id="Mask" transform="translate(2.000000, 2.000000)">
                    <mask id="mask-2" fill="white">
                        <use xlink:href="#path-1"></use>
                    </mask>
                    <use id="BG" fill="#01B6C3" xlink:href="#path-1"></use>
                    <g id="Giving" filter="url(#filter-3)" mask="url(#mask-2)">
                        <g transform="translate(14.000000, 27.000000)">
                            <path d="M23.0486,26.9092923 L13.4050667,17.2411105 C11.6382,15.4683833 8.7754,15.4661105 7.00513333,17.2320196 C6.87593333,16.1990651 6.8,15.1604287 6.8,14.1195196 L6.8,3.60247417 C6.8,1.75588326 5.42186667,0.101337802 3.58246667,0.00474689263 C1.6218,-0.0975258346 0,1.46611053 0,3.40929235 L0,22.7945196 C0,25.8229287 1.29426667,28.7070196 3.55413333,30.7161105 L10.4255333,36.8229287 C11.7243333,37.9763378 12.4666667,39.6320196 12.4666667,41.370656 L12.4666667,43.1820196 L27.2,43.1820196 L27.2,36.9592923 C27.2,33.1888378 25.7062667,29.5740651 23.0486,26.9092923" id="Fill-113" fill="#EAC5A7"></path>
                            <path d="M14.7333333,40.2342923 L14.7333333,40.2342923 C14.7333333,38.495656 13.991,36.8399742 12.6922,35.6865651 L5.8208,29.5797469 C3.56093333,27.570656 2.26666667,24.6865651 2.26666667,21.658156 L2.26666667,4.54565598 C2.26666667,3.91838326 1.75893333,3.40929235 1.13333333,3.40929235 C0.507733333,3.40929235 0,3.91838326 0,4.54565598 L0,22.7945196 C0,25.8229287 1.29426667,28.7070196 3.55413333,30.7161105 L10.4255333,36.8229287 C11.7243333,37.9763378 12.4666667,39.6320196 12.4666667,41.370656 L12.4666667,43.1820196 L27.2,43.1820196 C26.4746667,42.4547469 25.4898,42.045656 24.4641333,42.045656 L16.5398667,42.045656 C15.5425333,42.045656 14.7333333,41.2342923 14.7333333,40.2342923" id="Fill-114" fill="#D9B090"></path>
                            <path d="M8.5,23.095656 C7.39726667,21.9899742 6.8476,20.170656 8.20646667,18.5286105 C9.0474,17.5115651 7.30093333,16.8149742 6.55633333,17.9036105 C6.47133333,18.0274742 6.38746667,18.1661105 6.30473333,18.320656 C5.25866667,20.2729287 5.72333333,22.6990651 7.2862,24.2661105 L13.2883333,30.4274742 C13.6113333,30.7592923 14.1428667,30.7672469 14.4760667,30.445656 C14.8115333,30.1195196 14.8206,29.583156 14.4942,29.2479287 L8.5,23.095656" id="Fill-115" fill="#D9B090"></path>
                            <path d="M12.4666667,43.1820196 L27.2,43.1820196 C28.4512,43.1820196 29.4666667,44.1990651 29.4666667,45.4547469 L29.4666667,50.0002014 L10.2,50.0002014 L10.2,45.4547469 C10.2,44.1990651 11.2143333,43.1820196 12.4666667,43.1820196" id="Fill-116" fill="#E1E4E1"></path>
                            <path d="M17,47.7274742 C18.2523333,47.7274742 19.2666667,46.7104287 19.2666667,45.4547469 C19.2666667,44.1990651 20.2821333,43.1820196 21.5333333,43.1820196 L27.2,43.1820196 C28.4523333,43.1820196 29.4666667,44.1990651 29.4666667,45.4547469 L29.4666667,56.2016686 L10.2,50.0002014 C10.2,48.7445196 11.2154667,47.7274742 12.4666667,47.7274742 L17,47.7274742 Z" id="Fill-117" fill="#CDD3D1"></path>
                            <path d="M26.0666667,45.4547469 C25.4410667,45.4547469 24.9333333,45.9638378 24.9333333,46.5911105 C24.9333333,47.2183833 25.4410667,47.7274742 26.0666667,47.7274742 C26.6922667,47.7274742 27.2,47.2183833 27.2,46.5911105 C27.2,45.9638378 26.6922667,45.4547469 26.0666667,45.4547469" id="Fill-118" fill="#7694A3"></path>
                            <path d="M13.4050667,21.9240651 L11.8025333,23.5308833 C11.3605333,23.9752014 10.6431333,23.9752014 10.2,23.5308833 L8.59746667,21.9240651 C7.71233333,21.0365651 7.71233333,19.5967923 8.59746667,18.7092923 C9.4826,17.8217923 10.9174,17.8217923 11.8025333,18.7092923 L13.4050667,20.3172469 C13.8482,20.7604287 13.8482,21.4797469 13.4050667,21.9240651" id="Fill-119" fill="#F9D8BE"></path>
                            <path d="M11.8025333,21.9240651 C11.1656,22.5627014 10.8063333,23.2990651 10.8176667,23.8274742 C11.1667333,23.8865651 11.5339333,23.8002014 11.8025333,23.5308833 L13.4050667,21.9240651 C13.6748,21.6547469 13.7598,21.2854287 13.702,20.9365651 C13.1738667,20.9252014 12.4406,21.2842923 11.8025333,21.9240651" id="Fill-120" fill="#D9B090"></path>
                            <path d="M44.9514,26.9092923 L54.5949333,17.2411105 C56.3618,15.4683833 59.2246,15.4661105 60.9948667,17.2320196 C61.1240667,16.1990651 61.2,15.1604287 61.2,14.1195196 L61.2,3.60247417 C61.2,1.75588326 62.5781333,0.101337802 64.4175333,0.00474689263 C66.3782,-0.0975258346 68,1.46611053 68,3.40929235 L68,22.7945196 C68,25.8229287 66.7057333,28.7070196 64.4458667,30.7161105 L57.5744667,36.8229287 C56.2756667,37.9763378 55.5333333,39.6320196 55.5333333,41.370656 L55.5333333,43.1820196 L40.8,43.1820196 L40.8,36.9592923 C40.8,33.1888378 42.2937333,29.5740651 44.9514,26.9092923" id="Fill-121" fill="#EAC5A7"></path>
                            <path d="M53.2666667,40.2342923 L53.2666667,40.2342923 C53.2666667,38.495656 54.009,36.8399742 55.3078,35.6865651 L62.1792,29.5797469 C64.4390667,27.570656 65.7333333,24.6865651 65.7333333,21.658156 L65.7333333,4.54565598 C65.7333333,3.91838326 66.2410667,3.40929235 66.8666667,3.40929235 C67.4922667,3.40929235 68,3.91838326 68,4.54565598 L68,22.7945196 C68,25.8229287 66.7057333,28.7070196 64.4458667,30.7161105 L57.5744667,36.8229287 C56.2756667,37.9763378 55.5333333,39.6320196 55.5333333,41.370656 L55.5333333,43.1820196 L40.8,43.1820196 C41.5253333,42.4547469 42.5102,42.045656 43.5358667,42.045656 L51.4601333,42.045656 C52.4574667,42.045656 53.2666667,41.2342923 53.2666667,40.2342923" id="Fill-122" fill="#D9B090"></path>
                            <path d="M59.5,23.095656 C60.6027333,21.9899742 61.1524,20.170656 59.7935333,18.5286105 C58.9526,17.5115651 60.6990667,16.8149742 61.4436667,17.9036105 C61.5286667,18.0274742 61.6125333,18.1661105 61.6952667,18.320656 C62.7413333,20.2729287 62.2766667,22.6990651 60.7138,24.2661105 L54.7116667,30.4274742 C54.3886667,30.7592923 53.8571333,30.7672469 53.5239333,30.445656 C53.1884667,30.1195196 53.1794,29.583156 53.5058,29.2479287 L59.5,23.095656" id="Fill-123" fill="#D9B090"></path>
                            <path d="M57.8,45.4547469 L57.8,50.0002014 L38.5333333,50.0002014 L38.5333333,45.4547469 C38.5333333,44.1990651 39.5488,43.1820196 40.8,43.1820196 L55.5333333,43.1820196 C56.7856667,43.1820196 57.8,44.1990651 57.8,45.4547469" id="Fill-124" fill="#E1E4E1"></path>
                            <path d="M51,47.7274742 C49.7476667,47.7274742 48.7333333,46.7104287 48.7333333,45.4547469 C48.7333333,44.1990651 47.719,43.1820196 46.4666667,43.1820196 L40.8,43.1820196 C39.5476667,43.1820196 38.5333333,44.1990651 38.5333333,45.4547469 L38.5333333,56.2016686 L57.8,50.0002014 C57.8,48.7445196 56.7856667,47.7274742 55.5333333,47.7274742 L51,47.7274742 Z" id="Fill-125" fill="#CDD3D1"></path>
                            <path d="M41.9333333,45.4547469 C42.5589333,45.4547469 43.0666667,45.9638378 43.0666667,46.5911105 C43.0666667,47.2183833 42.5589333,47.7274742 41.9333333,47.7274742 C41.3077333,47.7274742 40.8,47.2183833 40.8,46.5911105 C40.8,45.9638378 41.3077333,45.4547469 41.9333333,45.4547469" id="Fill-126" fill="#7694A3"></path>
                            <path d="M54.5949333,21.9240651 L56.1974667,23.5308833 C56.6394667,23.9752014 57.3568667,23.9752014 57.8,23.5308833 L59.4025333,21.9240651 C60.2876667,21.0365651 60.2876667,19.5967923 59.4025333,18.7092923 C58.5174,17.8217923 57.0826,17.8217923 56.1974667,18.7092923 L54.5949333,20.3172469 C54.1518,20.7604287 54.1518,21.4797469 54.5949333,21.9240651" id="Fill-127" fill="#F9D8BE"></path>
                            <path d="M56.1974667,21.9240651 C56.8344,22.5627014 57.1936667,23.2990651 57.1823333,23.8274742 C56.8332667,23.8865651 56.4660667,23.8002014 56.1974667,23.5308833 L54.5949333,21.9240651 C54.3252,21.6547469 54.2402,21.2854287 54.298,20.9365651 C54.8261333,20.9252014 55.5594,21.2842923 56.1974667,21.9240651" id="Fill-128" fill="#D9B090"></path>
                        </g>
                    </g>
                    <g id="Coin-Money" filter="url(#filter-4)" mask="url(#mask-2)">
                        <g transform="translate(33.533333, 16.000000)">
                            <path d="M14.4666667,9.09494702e-13 C6.73472917,9.09494702e-13 0.466666667,6.2680625 0.466666667,14 C0.466666667,21.7319375 6.73472917,28 14.4666667,28 C22.1986042,28 28.4666667,21.7319375 28.4666667,14 C28.4666667,6.2680625 22.1986042,9.09494702e-13 14.4666667,9.09494702e-13" id="Fill-21" fill="#F7CB64"></path>
                            <path d="M7.63508262,25.7134029 C8.74871032,26.3192953 9.95375218,26.758165 11.2237997,27 L21.4666667,1.6854509 C20.414388,0.954291424 19.2576941,0.382760462 18.0250249,9.09494702e-13 L7.46666667,26.0062871" id="Fill-22" fill="#F2BE53"></path>
                            <path d="M12.8476742,28 C20.9214696,28 27.4666667,21.8521724 27.4666667,14.26855 C27.4666667,10.1825854 25.5643703,6.51543 22.5487462,4 L12.4666667,27.9909887 C12.5936692,27.9939925 12.719758,28 12.8476742,28" id="Fill-23" fill="#F2BE53"></path>
                            <path d="M14.4666667,3.71428571 C8.79495238,3.71428571 4.18095238,8.32828571 4.18095238,14 C4.18095238,19.6717143 8.79495238,24.2857143 14.4666667,24.2857143 C20.138381,24.2857143 24.752381,19.6717143 24.752381,14 C24.752381,8.32828571 20.138381,3.71428571 14.4666667,3.71428571 Z M14.4666667,26 C7.84952381,26 2.46666667,20.6167143 2.46666667,14 C2.46666667,7.38285714 7.84952381,2 14.4666667,2 C21.0838095,2 26.4666667,7.38285714 26.4666667,14 C26.4666667,20.6167143 21.0838095,26 14.4666667,26 L14.4666667,26 Z" id="Fill-24" fill="#EFB252"></path>
                        </g>
                    </g>
                </g>
                <g id="Dynamic-Border" stroke="#1D8E96" stroke-width="4">
                    <rect id="Azure-Border" x="2" y="2" width="96" height="96" rx="48"></rect>
                </g>
            </g>
        </g>
    </g>
</svg>