<?xml version="1.0" encoding="UTF-8"?>
<svg width="100px" height="100px" viewBox="0 0 100 100" version="1.1" xmlns="http://www.w3.org/2000/svg" xmlns:xlink="http://www.w3.org/1999/xlink">
    <!-- Generator: Sketch 55.2 (78181) - https://sketchapp.com -->
    <title>Process financial periodic activities in Microsoft Dynamics 365 Business Central/close-a-fiscal-year-in-dynamics-365-business-central</title>
    <desc>Created with Sketch.</desc>
    <defs>
        <rect id="path-1" x="0" y="0" width="96" height="96" rx="48"></rect>
        <filter x="-7.0%" y="-7.0%" width="114.0%" height="115.8%" filterUnits="objectBoundingBox" id="filter-3">
            <feOffset dx="0" dy="2" in="SourceAlpha" result="shadowOffsetOuter1"></feOffset>
            <feColorMatrix values="0 0 0 0 0   0 0 0 0 0   0 0 0 0 0  0 0 0 0.100142045 0" type="matrix" in="shadowOffsetOuter1" result="shadowMatrixOuter1"></feColorMatrix>
            <feMerge>
                <feMergeNode in="shadowMatrixOuter1"></feMergeNode>
                <feMergeNode in="SourceGraphic"></feMergeNode>
            </feMerge>
        </filter>
    </defs>
    <g id="Badges" stroke="none" stroke-width="1" fill="none" fill-rule="evenodd">
        <g id="Process-financial-periodic-activities-in-Microsoft-Dynamics-365-Business-Central" transform="translate(-50.000000, -260.000000)">
            <g id="Process-financial-periodic-activities-in-Microsoft-Dynamics-365-Business-Central/close-a-fiscal-year-in-dynamics-365-business-central" transform="translate(50.000000, 260.000000)">
                <g id="Mask" transform="translate(2.000000, 2.000000)">
                    <mask id="mask-2" fill="white">
                        <use xlink:href="#path-1"></use>
                    </mask>
                    <use id="BG" fill="#01B6C3" xlink:href="#path-1"></use>
                    <g id="Group-20" filter="url(#filter-3)" mask="url(#mask-2)">
                        <g transform="translate(19.500000, 19.500000)">
                            <path d="M0,12.46875 L0,53.4375 C0,55.396875 1.603125,57 3.5625,57 L46.3125,57 L57,46.3125 L57,12.46875 L0,12.46875" id="Fill-1315" fill="#E1E4E1"></path>
                            <path d="M57,1.78125 C57,0.8015625 56.1984375,0 55.21875,0 L1.78125,0 C0.8015625,0 0,0.8015625 0,1.78125 L0,10.6875 L57,10.6875 L57,1.78125" id="Fill-1316" fill="#DF5142"></path>
                            <polygon id="Fill-1317" fill="#CAD2D4" points="0 12.46875 57 12.46875 57 10.6875 0 10.6875"></polygon>
                            <path d="M30.28125,5.34375 C30.28125,6.327 29.48325,7.125 28.5,7.125 C27.5158594,7.125 26.71875,6.327 26.71875,5.34375 C26.71875,4.35960937 27.5158594,3.5625 28.5,3.5625 C29.48325,3.5625 30.28125,4.35960937 30.28125,5.34375" id="Fill-1318" fill="#A13834"></path>
                            <path d="M44.53125,5.34375 C44.53125,6.327 43.73325,7.125 42.75,7.125 C41.7658594,7.125 40.96875,6.327 40.96875,5.34375 C40.96875,4.35960937 41.7658594,3.5625 42.75,3.5625 C43.73325,3.5625 44.53125,4.35960937 44.53125,5.34375" id="Fill-1319" fill="#A13834"></path>
                            <path d="M16.03125,5.34375 C16.03125,6.327 15.23325,7.125 14.25,7.125 C13.2658594,7.125 12.46875,6.327 12.46875,5.34375 C12.46875,4.35960937 13.2658594,3.5625 14.25,3.5625 C15.23325,3.5625 16.03125,4.35960937 16.03125,5.34375" id="Fill-1320" fill="#A13834"></path>
                            <path d="M30.28125,14.25 C30.28125,15.23325 29.48325,16.03125 28.5,16.03125 C27.5158594,16.03125 26.71875,15.23325 26.71875,14.25 C26.71875,13.2658594 27.5158594,12.46875 28.5,12.46875 C29.48325,12.46875 30.28125,13.2658594 30.28125,14.25" id="Fill-1321" fill="#546670"></path>
                            <path d="M44.53125,14.25 C44.53125,15.23325 43.73325,16.03125 42.75,16.03125 C41.7658594,16.03125 40.96875,15.23325 40.96875,14.25 C40.96875,13.2658594 41.7658594,12.46875 42.75,12.46875 C43.73325,12.46875 44.53125,13.2658594 44.53125,14.25" id="Fill-1322" fill="#546670"></path>
                            <path d="M16.03125,14.25 C16.03125,15.23325 15.23325,16.03125 14.25,16.03125 C13.2658594,16.03125 12.46875,15.23325 12.46875,14.25 C12.46875,13.2658594 13.2658594,12.46875 14.25,12.46875 C15.23325,12.46875 16.03125,13.2658594 16.03125,14.25" id="Fill-1323" fill="#546670"></path>
                            <path d="M42.75,15.140625 C42.2574844,15.140625 41.859375,14.7425156 41.859375,14.25 L41.859375,5.34375 C41.859375,4.85123438 42.2574844,4.453125 42.75,4.453125 C43.2425156,4.453125 43.640625,4.85123438 43.640625,5.34375 L43.640625,14.25 C43.640625,14.7425156 43.2425156,15.140625 42.75,15.140625" id="Fill-1324" fill="#AAB0B1"></path>
                            <path d="M28.5,15.140625 C28.0074844,15.140625 27.609375,14.7425156 27.609375,14.25 L27.609375,5.34375 C27.609375,4.85123438 28.0074844,4.453125 28.5,4.453125 C28.9925156,4.453125 29.390625,4.85123438 29.390625,5.34375 L29.390625,14.25 C29.390625,14.7425156 28.9925156,15.140625 28.5,15.140625" id="Fill-1325" fill="#AAB0B1"></path>
                            <path d="M14.25,15.140625 C13.7574844,15.140625 13.359375,14.7425156 13.359375,14.25 L13.359375,5.34375 C13.359375,4.85123438 13.7574844,4.453125 14.25,4.453125 C14.7425156,4.453125 15.140625,4.85123438 15.140625,5.34375 L15.140625,14.25 C15.140625,14.7425156 14.7425156,15.140625 14.25,15.140625" id="Fill-1326" fill="#AAB0B1"></path>
                            <path d="M46.3125,49.875 L46.3125,57 L57,46.3125 L49.875,46.3125 C47.915625,46.3125 46.3125,47.915625 46.3125,49.875" id="Fill-1355" fill="#AAB0B1"></path>
                            <polyline id="Fill-1356" fill="#CAD2D4" points="39.1875 57 46.3125 49.875 46.3125 57 39.1875 57"></polyline>
                        </g>
                    </g>
                    <g id="Group" mask="url(#mask-2)" fill="#6F7171">
                        <g transform="translate(42.656250, 40.073438)">
                            <polygon id="Fill-147" points="1.78125 3.5625 5.34375 3.5625 5.34375 0 1.78125 0"></polygon>
                            <polygon id="Fill-148" points="5.34375 7.125 8.90625 7.125 8.90625 3.5625 5.34375 3.5625"></polygon>
                            <polygon id="Fill-149" points="1.78125 10.6875 5.34375 10.6875 5.34375 7.125 1.78125 7.125"></polygon>
                            <polygon id="Fill-150" points="5.34375 14.25 8.90625 14.25 8.90625 10.6875 5.34375 10.6875"></polygon>
                            <polygon id="Fill-151" points="1.78125 17.8125 5.34375 17.8125 5.34375 14.25 1.78125 14.25"></polygon>
                            <path d="M8.90625,29.390625 C8.90625,29.8795781 8.50546875,30.28125 8.015625,30.28125 L2.671875,30.28125 C2.18292188,30.28125 1.78125,29.8795781 1.78125,29.390625 L1.78125,26.71875 C1.78125,26.2289062 2.18292188,25.828125 2.671875,25.828125 L8.015625,25.828125 C8.50546875,25.828125 8.90625,26.2289062 8.90625,26.71875 L8.90625,29.390625 Z M0.890625,20.484375 C0.401671875,20.484375 0,20.8851562 0,21.375 L0,31.171875 C0,31.6617187 0.401671875,32.0625 0.890625,32.0625 L9.796875,32.0625 C10.2867188,32.0625 10.6875,31.6617187 10.6875,31.171875 L10.6875,21.375 C10.6875,20.8851562 10.2867188,20.484375 9.796875,20.484375 L0.890625,20.484375 L0.890625,20.484375 Z" id="Fill-152"></path>
                        </g>
                    </g>
                </g>
                <g id="Dynamic-Border" stroke="#1D8E96" stroke-width="4">
                    <rect id="Azure-Border" x="2" y="2" width="96" height="96" rx="48"></rect>
                </g>
            </g>
        </g>
    </g>
</svg>