<?xml version="1.0" encoding="UTF-8"?>
<svg width="100px" height="100px" viewBox="0 0 100 100" version="1.1" xmlns="http://www.w3.org/2000/svg" xmlns:xlink="http://www.w3.org/1999/xlink">
    <!-- Generator: Sketch 55.2 (78181) - https://sketchapp.com -->
    <title>Create financial reports in Microsoft Dynamics 365 Business Central/configure-financial-reports-using-account-scheduled-in-dynamics-365-business-central</title>
    <desc>Created with Sketch.</desc>
    <defs>
        <rect id="path-1" x="0" y="0" width="96" height="96" rx="48"></rect>
        <filter x="-7.8%" y="-7.8%" width="115.7%" height="117.6%" filterUnits="objectBoundingBox" id="filter-3">
            <feOffset dx="0" dy="2" in="SourceAlpha" result="shadowOffsetOuter1"></feOffset>
            <feColorMatrix values="0 0 0 0 0   0 0 0 0 0   0 0 0 0 0  0 0 0 0.0964956975 0" type="matrix" in="shadowOffsetOuter1" result="shadowMatrixOuter1"></feColorMatrix>
            <feMerge>
                <feMergeNode in="shadowMatrixOuter1"></feMergeNode>
                <feMergeNode in="SourceGraphic"></feMergeNode>
            </feMerge>
        </filter>
        <path d="M0.255031855,6.49888775 C1.66716215,6.49888775 2.81097235,5.11369625 2.81097235,3.4041793 L2.81097235,3.4041793 C2.81097235,1.69466235 1.66716215,0.309470845 0.255031855,0.309470845 L0.255031855,0.309470845 L0.255031855,6.49888775 Z" id="path-4"></path>
        <circle id="path-6" cx="5" cy="5" r="5"></circle>
        <filter x="-5.0%" y="-5.0%" width="110.0%" height="110.0%" filterUnits="objectBoundingBox" id="filter-7">
            <feOffset dx="0" dy="1" in="SourceAlpha" result="shadowOffsetInner1"></feOffset>
            <feComposite in="shadowOffsetInner1" in2="SourceAlpha" operator="arithmetic" k2="-1" k3="1" result="shadowInnerInner1"></feComposite>
            <feColorMatrix values="0 0 0 0 0   0 0 0 0 0   0 0 0 0 0  0 0 0 0.1 0" type="matrix" in="shadowInnerInner1"></feColorMatrix>
        </filter>
    </defs>
    <g id="Badges" stroke="none" stroke-width="1" fill="none" fill-rule="evenodd">
        <g id="Create-financial-reports-in-Microsoft-Dynamics-365-Business-Central" transform="translate(-50.000000, -260.000000)">
            <g id="Create-financial-reports-in-Microsoft-Dynamics-365-Business-Central/configure-financial-reports-using-account-scheduled-in-dynamics-365-business-central" transform="translate(50.000000, 260.000000)">
                <g id="Mask" transform="translate(2.000000, 2.000000)">
                    <mask id="mask-2" fill="white">
                        <use xlink:href="#path-1"></use>
                    </mask>
                    <use id="BG" fill="#01B6C3" xlink:href="#path-1"></use>
                    <g id="Calendar" filter="url(#filter-3)" mask="url(#mask-2)">
                        <g transform="translate(23.000000, 23.000000)">
                            <path d="M0,11.15625 L0,47.8125 C0,49.565625 1.434375,51 3.1875,51 L41.4375,51 L51,41.4375 L51,11.15625 L0,11.15625" id="Fill-1315" fill="#E1E4E1"></path>
                            <path d="M51,1.59375 C51,0.7171875 50.2828125,0 49.40625,0 L1.59375,0 C0.7171875,0 0,0.7171875 0,1.59375 L0,9.5625 L51,9.5625 L51,1.59375" id="Fill-1316" fill="#DF5142"></path>
                            <polygon id="Fill-1317" fill="#CAD2D4" points="0 11.15625 51 11.15625 51 9.5625 0 9.5625"></polygon>
                            <path d="M27.09375,4.78125 C27.09375,5.661 26.37975,6.375 25.5,6.375 C24.6194531,6.375 23.90625,5.661 23.90625,4.78125 C23.90625,3.90070312 24.6194531,3.1875 25.5,3.1875 C26.37975,3.1875 27.09375,3.90070312 27.09375,4.78125" id="Fill-1318" fill="#A13834"></path>
                            <path d="M39.84375,4.78125 C39.84375,5.661 39.12975,6.375 38.25,6.375 C37.3694531,6.375 36.65625,5.661 36.65625,4.78125 C36.65625,3.90070312 37.3694531,3.1875 38.25,3.1875 C39.12975,3.1875 39.84375,3.90070312 39.84375,4.78125" id="Fill-1319" fill="#A13834"></path>
                            <path d="M14.34375,4.78125 C14.34375,5.661 13.62975,6.375 12.75,6.375 C11.8694531,6.375 11.15625,5.661 11.15625,4.78125 C11.15625,3.90070312 11.8694531,3.1875 12.75,3.1875 C13.62975,3.1875 14.34375,3.90070312 14.34375,4.78125" id="Fill-1320" fill="#A13834"></path>
                            <path d="M27.09375,12.75 C27.09375,13.62975 26.37975,14.34375 25.5,14.34375 C24.6194531,14.34375 23.90625,13.62975 23.90625,12.75 C23.90625,11.8694531 24.6194531,11.15625 25.5,11.15625 C26.37975,11.15625 27.09375,11.8694531 27.09375,12.75" id="Fill-1321" fill="#546670"></path>
                            <path d="M39.84375,12.75 C39.84375,13.62975 39.12975,14.34375 38.25,14.34375 C37.3694531,14.34375 36.65625,13.62975 36.65625,12.75 C36.65625,11.8694531 37.3694531,11.15625 38.25,11.15625 C39.12975,11.15625 39.84375,11.8694531 39.84375,12.75" id="Fill-1322" fill="#546670"></path>
                            <path d="M14.34375,12.75 C14.34375,13.62975 13.62975,14.34375 12.75,14.34375 C11.8694531,14.34375 11.15625,13.62975 11.15625,12.75 C11.15625,11.8694531 11.8694531,11.15625 12.75,11.15625 C13.62975,11.15625 14.34375,11.8694531 14.34375,12.75" id="Fill-1323" fill="#546670"></path>
                            <path d="M38.25,13.546875 C37.8093281,13.546875 37.453125,13.1906719 37.453125,12.75 L37.453125,4.78125 C37.453125,4.34057813 37.8093281,3.984375 38.25,3.984375 C38.6906719,3.984375 39.046875,4.34057813 39.046875,4.78125 L39.046875,12.75 C39.046875,13.1906719 38.6906719,13.546875 38.25,13.546875" id="Fill-1324" fill="#AAB0B1"></path>
                            <path d="M25.5,13.546875 C25.0593281,13.546875 24.703125,13.1906719 24.703125,12.75 L24.703125,4.78125 C24.703125,4.34057813 25.0593281,3.984375 25.5,3.984375 C25.9406719,3.984375 26.296875,4.34057813 26.296875,4.78125 L26.296875,12.75 C26.296875,13.1906719 25.9406719,13.546875 25.5,13.546875" id="Fill-1325" fill="#AAB0B1"></path>
                            <path d="M12.75,13.546875 C12.3093281,13.546875 11.953125,13.1906719 11.953125,12.75 L11.953125,4.78125 C11.953125,4.34057813 12.3093281,3.984375 12.75,3.984375 C13.1906719,3.984375 13.546875,4.34057813 13.546875,4.78125 L13.546875,12.75 C13.546875,13.1906719 13.1906719,13.546875 12.75,13.546875" id="Fill-1326" fill="#AAB0B1"></path>
                            <path d="M8.765625,20.71875 C8.765625,21.1570313 8.40703125,21.515625 7.96875,21.515625 L4.78125,21.515625 C4.34296875,21.515625 3.984375,21.1570313 3.984375,20.71875 L3.984375,17.53125 C3.984375,17.0929687 4.34296875,16.734375 4.78125,16.734375 L7.96875,16.734375 C8.40703125,16.734375 8.765625,17.0929687 8.765625,17.53125 L8.765625,20.71875" id="Fill-1327" fill="#C5CCCD"></path>
                            <path d="M15.140625,20.71875 C15.140625,21.1570313 14.7820313,21.515625 14.34375,21.515625 L11.15625,21.515625 C10.7179687,21.515625 10.359375,21.1570313 10.359375,20.71875 L10.359375,17.53125 C10.359375,17.0929687 10.7179687,16.734375 11.15625,16.734375 L14.34375,16.734375 C14.7820313,16.734375 15.140625,17.0929687 15.140625,17.53125 L15.140625,20.71875" id="Fill-1328" fill="#C5CCCD"></path>
                            <path d="M21.515625,20.71875 C21.515625,21.1570313 21.1570313,21.515625 20.71875,21.515625 L17.53125,21.515625 C17.0929687,21.515625 16.734375,21.1570313 16.734375,20.71875 L16.734375,17.53125 C16.734375,17.0929687 17.0929687,16.734375 17.53125,16.734375 L20.71875,16.734375 C21.1570313,16.734375 21.515625,17.0929687 21.515625,17.53125 L21.515625,20.71875" id="Fill-1329" fill="#C5CCCD"></path>
                            <path d="M27.890625,20.71875 C27.890625,21.1570313 27.5320312,21.515625 27.09375,21.515625 L23.90625,21.515625 C23.4679687,21.515625 23.109375,21.1570313 23.109375,20.71875 L23.109375,17.53125 C23.109375,17.0929687 23.4679687,16.734375 23.90625,16.734375 L27.09375,16.734375 C27.5320312,16.734375 27.890625,17.0929687 27.890625,17.53125 L27.890625,20.71875" id="Fill-1330" fill="#C5CCCD"></path>
                            <path d="M34.265625,20.71875 C34.265625,21.1570313 33.9070312,21.515625 33.46875,21.515625 L30.28125,21.515625 C29.8429688,21.515625 29.484375,21.1570313 29.484375,20.71875 L29.484375,17.53125 C29.484375,17.0929687 29.8429688,16.734375 30.28125,16.734375 L33.46875,16.734375 C33.9070312,16.734375 34.265625,17.0929687 34.265625,17.53125 L34.265625,20.71875" id="Fill-1331" fill="#C5CCCD"></path>
                            <path d="M40.640625,20.71875 C40.640625,21.1570313 40.2820312,21.515625 39.84375,21.515625 L36.65625,21.515625 C36.2179688,21.515625 35.859375,21.1570313 35.859375,20.71875 L35.859375,17.53125 C35.859375,17.0929687 36.2179688,16.734375 36.65625,16.734375 L39.84375,16.734375 C40.2820312,16.734375 40.640625,17.0929687 40.640625,17.53125 L40.640625,20.71875" id="Fill-1332" fill="#DF5142"></path>
                            <path d="M47.015625,20.71875 C47.015625,21.1570313 46.6570312,21.515625 46.21875,21.515625 L43.03125,21.515625 C42.5929688,21.515625 42.234375,21.1570313 42.234375,20.71875 L42.234375,17.53125 C42.234375,17.0929687 42.5929688,16.734375 43.03125,16.734375 L46.21875,16.734375 C46.6570312,16.734375 47.015625,17.0929687 47.015625,17.53125 L47.015625,20.71875" id="Fill-1333" fill="#DF5142"></path>
                            <path d="M8.765625,27.09375 C8.765625,27.5320313 8.40703125,27.890625 7.96875,27.890625 L4.78125,27.890625 C4.34296875,27.890625 3.984375,27.5320313 3.984375,27.09375 L3.984375,23.90625 C3.984375,23.4679687 4.34296875,23.109375 4.78125,23.109375 L7.96875,23.109375 C8.40703125,23.109375 8.765625,23.4679687 8.765625,23.90625 L8.765625,27.09375" id="Fill-1334" fill="#C5CCCD"></path>
                            <path d="M15.140625,27.09375 C15.140625,27.5320313 14.7820313,27.890625 14.34375,27.890625 L11.15625,27.890625 C10.7179687,27.890625 10.359375,27.5320313 10.359375,27.09375 L10.359375,23.90625 C10.359375,23.4679687 10.7179687,23.109375 11.15625,23.109375 L14.34375,23.109375 C14.7820313,23.109375 15.140625,23.4679687 15.140625,23.90625 L15.140625,27.09375" id="Fill-1335" fill="#C5CCCD"></path>
                            <path d="M21.515625,27.09375 C21.515625,27.5320313 21.1570313,27.890625 20.71875,27.890625 L17.53125,27.890625 C17.0929687,27.890625 16.734375,27.5320313 16.734375,27.09375 L16.734375,23.90625 C16.734375,23.4679687 17.0929687,23.109375 17.53125,23.109375 L20.71875,23.109375 C21.1570313,23.109375 21.515625,23.4679687 21.515625,23.90625 L21.515625,27.09375" id="Fill-1336" fill="#C5CCCD"></path>
                            <path d="M27.890625,27.09375 C27.890625,27.5320313 27.5320312,27.890625 27.09375,27.890625 L23.90625,27.890625 C23.4679687,27.890625 23.109375,27.5320313 23.109375,27.09375 L23.109375,23.90625 C23.109375,23.4679687 23.4679687,23.109375 23.90625,23.109375 L27.09375,23.109375 C27.5320312,23.109375 27.890625,23.4679687 27.890625,23.90625 L27.890625,27.09375" id="Fill-1337" fill="#C5CCCD"></path>
                            <path d="M34.265625,27.09375 C34.265625,27.5320313 33.9070312,27.890625 33.46875,27.890625 L30.28125,27.890625 C29.8429688,27.890625 29.484375,27.5320313 29.484375,27.09375 L29.484375,23.90625 C29.484375,23.4679687 29.8429688,23.109375 30.28125,23.109375 L33.46875,23.109375 C33.9070312,23.109375 34.265625,23.4679687 34.265625,23.90625 L34.265625,27.09375" id="Fill-1338" fill="#C5CCCD"></path>
                            <path d="M40.640625,27.09375 C40.640625,27.5320313 40.2820312,27.890625 39.84375,27.890625 L36.65625,27.890625 C36.2179688,27.890625 35.859375,27.5320313 35.859375,27.09375 L35.859375,23.90625 C35.859375,23.4679687 36.2179688,23.109375 36.65625,23.109375 L39.84375,23.109375 C40.2820312,23.109375 40.640625,23.4679687 40.640625,23.90625 L40.640625,27.09375" id="Fill-1339" fill="#DF5142"></path>
                            <path d="M47.015625,27.09375 C47.015625,27.5320313 46.6570312,27.890625 46.21875,27.890625 L43.03125,27.890625 C42.5929688,27.890625 42.234375,27.5320313 42.234375,27.09375 L42.234375,23.90625 C42.234375,23.4679687 42.5929688,23.109375 43.03125,23.109375 L46.21875,23.109375 C46.6570312,23.109375 47.015625,23.4679687 47.015625,23.90625 L47.015625,27.09375" id="Fill-1340" fill="#DF5142"></path>
                            <path d="M8.765625,33.46875 C8.765625,33.9070313 8.40703125,34.265625 7.96875,34.265625 L4.78125,34.265625 C4.34296875,34.265625 3.984375,33.9070313 3.984375,33.46875 L3.984375,30.28125 C3.984375,29.8429687 4.34296875,29.484375 4.78125,29.484375 L7.96875,29.484375 C8.40703125,29.484375 8.765625,29.8429687 8.765625,30.28125 L8.765625,33.46875" id="Fill-1341" fill="#C5CCCD"></path>
                            <path d="M15.140625,33.46875 C15.140625,33.9070313 14.7820313,34.265625 14.34375,34.265625 L11.15625,34.265625 C10.7179687,34.265625 10.359375,33.9070313 10.359375,33.46875 L10.359375,30.28125 C10.359375,29.8429687 10.7179687,29.484375 11.15625,29.484375 L14.34375,29.484375 C14.7820313,29.484375 15.140625,29.8429687 15.140625,30.28125 L15.140625,33.46875" id="Fill-1342" fill="#C5CCCD"></path>
                            <path d="M21.515625,33.46875 C21.515625,33.9070313 21.1570313,34.265625 20.71875,34.265625 L17.53125,34.265625 C17.0929687,34.265625 16.734375,33.9070313 16.734375,33.46875 L16.734375,30.28125 C16.734375,29.8429687 17.0929687,29.484375 17.53125,29.484375 L20.71875,29.484375 C21.1570313,29.484375 21.515625,29.8429687 21.515625,30.28125 L21.515625,33.46875" id="Fill-1343" fill="#C5CCCD"></path>
                            <path d="M27.890625,33.46875 C27.890625,33.9070313 27.5320312,34.265625 27.09375,34.265625 L23.90625,34.265625 C23.4679687,34.265625 23.109375,33.9070313 23.109375,33.46875 L23.109375,30.28125 C23.109375,29.8429687 23.4679687,29.484375 23.90625,29.484375 L27.09375,29.484375 C27.5320312,29.484375 27.890625,29.8429687 27.890625,30.28125 L27.890625,33.46875" id="Fill-1344" fill="#C5CCCD"></path>
                            <path d="M34.265625,33.46875 C34.265625,33.9070313 33.9070312,34.265625 33.46875,34.265625 L30.28125,34.265625 C29.8429688,34.265625 29.484375,33.9070313 29.484375,33.46875 L29.484375,30.28125 C29.484375,29.8429687 29.8429688,29.484375 30.28125,29.484375 L33.46875,29.484375 C33.9070312,29.484375 34.265625,29.8429687 34.265625,30.28125 L34.265625,33.46875" id="Fill-1345" fill="#C5CCCD"></path>
                            <path d="M40.640625,33.46875 C40.640625,33.9070313 40.2820312,34.265625 39.84375,34.265625 L36.65625,34.265625 C36.2179688,34.265625 35.859375,33.9070313 35.859375,33.46875 L35.859375,30.28125 C35.859375,29.8429687 36.2179688,29.484375 36.65625,29.484375 L39.84375,29.484375 C40.2820312,29.484375 40.640625,29.8429687 40.640625,30.28125 L40.640625,33.46875" id="Fill-1346" fill="#DF5142"></path>
                            <path d="M47.015625,33.46875 C47.015625,33.9070313 46.6570312,34.265625 46.21875,34.265625 L43.03125,34.265625 C42.5929688,34.265625 42.234375,33.9070313 42.234375,33.46875 L42.234375,30.28125 C42.234375,29.8429687 42.5929688,29.484375 43.03125,29.484375 L46.21875,29.484375 C46.6570312,29.484375 47.015625,29.8429687 47.015625,30.28125 L47.015625,33.46875" id="Fill-1347" fill="#DF5142"></path>
                            <path d="M8.765625,39.84375 C8.765625,40.2820313 8.40703125,40.640625 7.96875,40.640625 L4.78125,40.640625 C4.34296875,40.640625 3.984375,40.2820313 3.984375,39.84375 L3.984375,36.65625 C3.984375,36.2179687 4.34296875,35.859375 4.78125,35.859375 L7.96875,35.859375 C8.40703125,35.859375 8.765625,36.2179687 8.765625,36.65625 L8.765625,39.84375" id="Fill-1348" fill="#C5CCCD"></path>
                            <path d="M15.140625,39.84375 C15.140625,40.2820313 14.7820313,40.640625 14.34375,40.640625 L11.15625,40.640625 C10.7179687,40.640625 10.359375,40.2820313 10.359375,39.84375 L10.359375,36.65625 C10.359375,36.2179687 10.7179687,35.859375 11.15625,35.859375 L14.34375,35.859375 C14.7820313,35.859375 15.140625,36.2179687 15.140625,36.65625 L15.140625,39.84375" id="Fill-1349" fill="#C5CCCD"></path>
                            <path d="M21.515625,39.84375 C21.515625,40.2820313 21.1570313,40.640625 20.71875,40.640625 L17.53125,40.640625 C17.0929687,40.640625 16.734375,40.2820313 16.734375,39.84375 L16.734375,36.65625 C16.734375,36.2179687 17.0929687,35.859375 17.53125,35.859375 L20.71875,35.859375 C21.1570313,35.859375 21.515625,36.2179687 21.515625,36.65625 L21.515625,39.84375" id="Fill-1350" fill="#C5CCCD"></path>
                            <path d="M27.890625,39.84375 C27.890625,40.2820313 27.5320312,40.640625 27.09375,40.640625 L23.90625,40.640625 C23.4679687,40.640625 23.109375,40.2820313 23.109375,39.84375 L23.109375,36.65625 C23.109375,36.2179687 23.4679687,35.859375 23.90625,35.859375 L27.09375,35.859375 C27.5320312,35.859375 27.890625,36.2179687 27.890625,36.65625 L27.890625,39.84375" id="Fill-1351" fill="#C5CCCD"></path>
                            <path d="M34.265625,39.84375 C34.265625,40.2820313 33.9070312,40.640625 33.46875,40.640625 L30.28125,40.640625 C29.8429688,40.640625 29.484375,40.2820313 29.484375,39.84375 L29.484375,36.65625 C29.484375,36.2179687 29.8429688,35.859375 30.28125,35.859375 L33.46875,35.859375 C33.9070312,35.859375 34.265625,36.2179687 34.265625,36.65625 L34.265625,39.84375" id="Fill-1352" fill="#C5CCCD"></path>
                            <path d="M40.640625,39.84375 C40.640625,40.2820313 40.2820312,40.640625 39.84375,40.640625 L36.65625,40.640625 C36.2179688,40.640625 35.859375,40.2820313 35.859375,39.84375 L35.859375,36.65625 C35.859375,36.2179687 36.2179688,35.859375 36.65625,35.859375 L39.84375,35.859375 C40.2820312,35.859375 40.640625,36.2179687 40.640625,36.65625 L40.640625,39.84375" id="Fill-1353" fill="#DF5142"></path>
                            <path d="M47.015625,39.84375 C47.015625,40.2820313 46.6570312,40.640625 46.21875,40.640625 L43.03125,40.640625 C42.5929688,40.640625 42.234375,40.2820313 42.234375,39.84375 L42.234375,36.65625 C42.234375,36.2179687 42.5929688,35.859375 43.03125,35.859375 L46.21875,35.859375 C46.6570312,35.859375 47.015625,36.2179687 47.015625,36.65625 L47.015625,39.84375" id="Fill-1354" fill="#DF5142"></path>
                            <path d="M41.4375,44.625 L41.4375,51 L51,41.4375 L44.625,41.4375 C42.871875,41.4375 41.4375,42.871875 41.4375,44.625" id="Fill-1355" fill="#AAB0B1"></path>
                            <polyline id="Fill-1356" fill="#CAD2D4" points="35.0625 51 41.4375 44.625 41.4375 51 35.0625 51"></polyline>
                        </g>
                    </g>
                    <g id="Gear" mask="url(#mask-2)">
                        <g transform="translate(52.000000, 51.000000)">
                            <circle id="Oval" fill="#01B6C3" fill-rule="nonzero" cx="16.0897466" cy="16.410135" r="3.282027"></circle>
                            <g id="Gear-1" stroke-width="1" fill="none" fill-rule="evenodd" transform="translate(16.538858, 16.371790) rotate(-45.000000) translate(-16.538858, -16.371790) translate(5.051763, 4.884695)">
                                <path d="M13.6055418,11.4128931 C13.6055418,10.097488 12.4982052,9.01584857 11.1280318,9.01584857 C9.7576458,9.01584857 8.65052189,10.097355 8.65052189,11.4128931 C8.65052189,12.7284312 9.7576458,13.8099376 11.1280318,13.8099376 C12.4982052,13.8099376 13.6055418,12.7282981 13.6055418,11.4128931 Z M18.0932625,9.22796922 C18.0936574,9.22894814 18.0940316,9.22981784 18.0944902,9.23088382 L18.0932625,9.22796922 Z M13.394936,4.63841256 L13.3887513,4.63592378 C13.3911523,4.6369605 13.392297,4.63745479 13.394936,4.63841256 Z M4.1629645,13.5990304 C4.16242449,13.5976819 4.16191765,13.5965068 4.16122569,13.5949023 L4.1629645,13.5990304 Z M19.8761635,8.3087821 L21.2442619,8.60596093 C22.3867625,8.85372385 23.2560637,9.91197965 23.2560637,11.0731886 L23.2560637,11.7525975 C23.2560637,12.9136747 22.3865394,13.9721608 21.2441414,14.2197759 L19.8764069,14.516716 L19.5548843,15.2802475 L20.2940119,16.4146569 C20.9319988,17.3945842 20.7788216,18.7566838 19.9412359,19.5748887 L19.4492595,20.0554812 C18.6335404,20.8517544 17.2477965,21.0008476 16.2791857,20.3972762 L15.0924483,19.6601391 L14.2769307,19.9883017 L13.9760458,21.3101016 C13.7189065,22.4390231 12.6416744,23.2834355 11.4757828,23.2834355 L10.7802808,23.2834355 C9.61395746,23.2834355 8.53653787,22.4388762 8.27998804,21.3099705 L7.97916759,19.9884529 L7.16308137,19.6600159 L5.97638968,20.397919 C5.00513985,21.0003976 3.62173366,20.8509828 2.80654767,20.0552308 L2.31448001,19.574549 C1.47672535,18.756179 1.32366251,17.3937247 1.96214481,16.4145139 L2.70092646,15.2801926 L2.37928013,14.5165937 L1.01135135,14.219803 C-0.130747838,13.9720015 -1,12.9134287 -1,11.7525975 L-1,11.0731886 C-1,9.91214164 -0.130930306,8.85400001 1.01181426,8.60561851 L2.37932529,8.30907823 L2.70104299,7.54532935 L1.96219805,6.41135396 C1.32404957,5.43175292 1.47687567,4.07003284 2.31473284,3.25099027 L2.8062913,2.7711456 C3.62130185,1.97442229 5.00645179,1.82552301 5.97662491,2.42856881 L7.16313668,3.16570532 L7.97921469,2.837354 L8.27993275,1.51571902 C8.53662154,0.386774601 9.61408113,-0.457649373 10.7802808,-0.457649373 L11.4757828,-0.457649373 C12.6416798,-0.457649373 13.7192545,0.386764041 13.9764595,1.51597445 L14.2770627,2.83754029 L15.0923399,3.16565166 L16.2792412,2.42835188 C17.2497177,1.82511756 18.6345022,1.97382918 19.449516,2.77055536 L19.9418339,3.25148173 C20.7789279,4.06977898 20.931948,5.43151462 20.2938834,6.41098702 L19.5547872,7.54562707 L19.8761635,8.3087821 Z" id="Fill-376" stroke="#01B6C3" stroke-width="2" fill="#546670"></path>
                                <path d="M6.87768478,18.7585953 C6.92517817,18.728917 7.03587966,18.697192 7.1671849,18.697192 C7.27509266,18.697192 7.35506314,18.7180009 7.39033397,18.7364218 C7.40884242,18.7452912 7.42735087,18.7541606 7.44655775,18.7616654 L8.53506423,19.1996755 C8.55252503,19.2064981 8.56998583,19.2126385 8.58779585,19.2180965 C8.71735501,19.2586909 8.90593169,19.4609806 8.93561505,19.5909509 L9.29670447,21.1772025 C9.4496611,21.8502508 10.1222512,22.3776368 10.8283661,22.3776368 L11.5267983,22.3776368 C12.2325639,22.3776368 12.9051541,21.8502508 13.0584599,21.1772025 L13.4195493,19.5909509 C13.4488835,19.4609806 13.6378094,19.2586909 13.7673685,19.2180965 C13.7851786,19.2126385 13.8026394,19.2064981 13.8197509,19.1996755 L14.9082574,18.7616654 C14.9274643,18.7541606 14.946322,18.7452912 14.9644812,18.7364218 C15.0001012,18.7180009 15.0800717,18.697192 15.1872811,18.697192 C15.3185863,18.697192 15.429637,18.728917 15.476432,18.7585953 L16.8802805,19.6305219 C17.4627729,19.9934836 18.3452419,19.8972851 18.8323983,19.4217508 L19.3261899,18.9393938 C19.8252196,18.4519199 19.919508,17.6141062 19.5406085,17.0321395 L18.6473138,15.6611405 C18.5743277,15.5492501 18.5621051,15.2783933 18.624964,15.1610448 C18.6343928,15.142965 18.6431232,15.1248851 18.650806,15.1064641 L19.0988502,14.0424816 C19.1061837,14.0257663 19.1128188,14.0087098 19.1180571,13.9913122 C19.1596138,13.8644121 19.3666989,13.6802022 19.5000995,13.6512062 L21.1232557,13.2988196 C21.8126082,13.1494049 22.3524963,12.4920486 22.3524963,11.8026261 L22.3524963,11.1203674 C22.3524963,10.4306038 21.8126082,9.77358858 21.123605,9.62417391 L19.4997502,9.27144614 C19.3666989,9.24279127 19.1596138,9.0585814 19.1180571,8.93168127 C19.1128188,8.91428368 19.1061837,8.89722721 19.0988502,8.88051187 L18.650806,7.81687047 C18.6431232,7.79844948 18.6343928,7.7800285 18.624964,7.76228977 C18.5621051,7.64460013 18.5743277,7.37340228 18.6473138,7.26185297 L19.5406085,5.89051287 C19.919508,5.30888728 19.7870979,4.50865431 19.2884173,4.02118043 L18.8270012,3.57044536 L13.4926382,8.78137756 C14.1250685,9.39916286 14.6697428,10.521003 14.6697428,11.4614967 C14.6697428,13.3424841 13.1028104,14.8727905 11.1775822,14.8727905 C10.2147935,14.8727905 9.16832018,14.2408768 8.53588989,13.6234327 L3.06149684,18.9711548 L3.52276604,19.4217508 C4.00922402,19.8966029 4.89029615,19.9934836 5.47488385,19.6308631 L6.87768478,18.7585953 Z" id="Fill-377" fill="#30404D"></path>
                            </g>
                            <g id="Gear-2" stroke-width="1" fill="none" fill-rule="evenodd" transform="translate(12.807720, 13.128108)">
                                <path d="M3.51117753,6.50727785 C5.450752,6.50727785 7.02235506,5.05094907 7.02235506,3.25363893 C7.02235506,1.45632878 5.450752,0 3.51117753,0 C1.5723053,0 0,1.45632878 0,3.25363893 C0,5.05094907 1.5723053,6.50727785 3.51117753,6.50727785 Z" id="Stroke-4" stroke="#30404D"></path>
                                <g id="Group-8" transform="translate(3.830375, 0.000000)">
                                    <mask id="mask-5" fill="white">
                                        <use xlink:href="#path-4"></use>
                                    </mask>
                                    <g id="Clip-7"></g>
                                    <polygon id="Stroke-6" stroke="#C4C4C4" mask="url(#mask-5)" points="-4.85531587 9.59359621 5.36640176 9.59359621 5.36640176 -2.78523761 -4.85531587 -2.78523761"></polygon>
                                </g>
                                <path d="M3.19197957,6.50727785 C4.95522909,6.50727785 6.38395914,5.05094907 6.38395914,3.25363893 C6.38395914,1.45632878 4.95522909,0 3.19197957,0" id="Stroke-9" stroke="#546670"></path>
                            </g>
                        </g>
                    </g>
                    <g id="dynamics" mask="url(#mask-2)">
                        <g transform="translate(63.000000, 62.500000)">
                            <g id="Oval" fill-rule="nonzero">
                                <use fill="#01B6C3" xlink:href="#path-6"></use>
                                <use fill="black" fill-opacity="1" filter="url(#filter-7)" xlink:href="#path-6"></use>
                            </g>
                            <g id="Dynamics-icon" stroke-width="1" fill-rule="evenodd" transform="translate(3.000000, 2.000000)">
                                <polygon id="Path" fill="#FFFFFF" points="0 6.33333333 1.33333333 2.8056239 0 2"></polygon>
                                <polygon id="Path" fill="#FFFFFF" points="4 4.07394485 4 2 0 6.33333333"></polygon>
                                <polygon id="Path" fill="#FFFFFF" points="0 0 0 1.53610922 2.50320915 2.66666667 3.66666667 1.79517351"></polygon>
                            </g>
                        </g>
                    </g>
                </g>
                <g id="Dynamic-Border" stroke="#1D8E96" stroke-width="4">
                    <rect id="Azure-Border" x="2" y="2" width="96" height="96" rx="48"></rect>
                </g>
            </g>
        </g>
    </g>
</svg>