<?xml version="1.0" encoding="UTF-8"?>
<svg width="100px" height="100px" viewBox="0 0 100 100" version="1.1" xmlns="http://www.w3.org/2000/svg" xmlns:xlink="http://www.w3.org/1999/xlink">
    <!-- Generator: Sketch 55.2 (78181) - https://sketchapp.com -->
    <title>Setup Microsoft Dynamics 365 Business Central for reporting/connect-to-the-intelligent-cloud-with-dynamics-365-business-central</title>
    <desc>Created with Sketch.</desc>
    <defs>
        <rect id="path-1" x="0" y="0" width="96" height="96" rx="48"></rect>
        <filter x="-7.4%" y="-12.9%" width="114.8%" height="125.8%" filterUnits="objectBoundingBox" id="filter-3">
            <feOffset dx="0" dy="2" in="SourceAlpha" result="shadowOffsetOuter1"></feOffset>
            <feColorMatrix values="0 0 0 0 0   0 0 0 0 0   0 0 0 0 0  0 0 0 0.100118886 0" type="matrix" in="shadowOffsetOuter1" result="shadowMatrixOuter1"></feColorMatrix>
            <feMerge>
                <feMergeNode in="shadowMatrixOuter1"></feMergeNode>
                <feMergeNode in="SourceGraphic"></feMergeNode>
            </feMerge>
        </filter>
        <filter x="-6.0%" y="-9.6%" width="111.9%" height="119.4%" filterUnits="objectBoundingBox" id="filter-4">
            <feOffset dx="0" dy="2" in="SourceAlpha" result="shadowOffsetOuter1"></feOffset>
            <feColorMatrix values="0 0 0 0 0   0 0 0 0 0   0 0 0 0 0  0 0 0 0.0964956975 0" type="matrix" in="shadowOffsetOuter1" result="shadowMatrixOuter1"></feColorMatrix>
            <feMerge>
                <feMergeNode in="shadowMatrixOuter1"></feMergeNode>
                <feMergeNode in="SourceGraphic"></feMergeNode>
            </feMerge>
        </filter>
        <filter x="-16.7%" y="-10.3%" width="133.3%" height="120.5%" filterUnits="objectBoundingBox" id="filter-5">
            <feOffset dx="0" dy="2" in="SourceAlpha" result="shadowOffsetOuter1"></feOffset>
            <feColorMatrix values="0 0 0 0 0   0 0 0 0 0   0 0 0 0 0  0 0 0 0.1 0" type="matrix" in="shadowOffsetOuter1" result="shadowMatrixOuter1"></feColorMatrix>
            <feMerge>
                <feMergeNode in="shadowMatrixOuter1"></feMergeNode>
                <feMergeNode in="SourceGraphic"></feMergeNode>
            </feMerge>
        </filter>
        <polygon id="path-6" points="0 0.814524393 22.9092414 0.814524393 22.9092414 27.0375724 0 27.0375724"></polygon>
        <polygon id="path-8" points="0 0 11.5862069 0 11.5862069 25.6551724 0 25.6551724"></polygon>
    </defs>
    <g id="Badges" stroke="none" stroke-width="1" fill="none" fill-rule="evenodd">
        <g id="Setup-Microsoft-Dynamics-365-Business-Central-for-reporting" transform="translate(-50.000000, -660.000000)">
            <g id="Setup-Microsoft-Dynamics-365-Business-Central-for-reporting/connect-to-the-intelligent-cloud-with-dynamics-365-business-central" transform="translate(50.000000, 660.000000)">
                <g id="Mask" transform="translate(2.000000, 2.000000)">
                    <mask id="mask-2" fill="white">
                        <use xlink:href="#path-1"></use>
                    </mask>
                    <use id="BG" fill="#01B6C3" xlink:href="#path-1"></use>
                    <g id="Connect" filter="url(#filter-3)" mask="url(#mask-2)">
                        <g transform="translate(21.000000, 52.000000)">
                            <path d="M51.1182951,26.720927 L2.32355887,26.720927 C1.03979259,26.720927 0,25.6799726 0,24.3973681 C0,23.1136018 1.03979259,22.0738093 2.32355887,22.0738093 L51.1182951,22.0738093 C52.4008996,22.0738093 53.441854,23.1136018 53.441854,24.3973681 C53.441854,25.6799726 52.4008996,26.720927 51.1182951,26.720927" id="Fill-453" fill="#182A37"></path>
                            <polygon id="Fill-455" fill="#182A37" points="23.2355887 24.3973681 30.2062653 24.3973681 30.2062653 -1.8189894e-12 23.2355887 -1.8189894e-12"></polygon>
                            <path d="M23.2355887,2.32239709 L23.2355887,3.48417652 L25.5591476,3.48417652 C26.2004498,3.48417652 26.720927,4.00465371 26.720927,4.64595596 L26.720927,18.5873092 L30.2062653,18.5873092 L30.2062653,2.32239709 L23.2355887,2.32239709" id="Fill-473" fill="#12202B"></path>
                            <path d="M0,24.3973681 C0,25.6799726 1.04095437,26.720927 2.32355887,26.720927 L51.1182951,26.720927 C52.4008996,26.720927 53.441854,25.6799726 53.441854,24.3973681 L53.441854,24.3962063 L0,24.3962063 L0,24.3973681" id="Fill-474" fill="#12202B"></path>
                            <path d="M36.0151625,29.0444859 C36.0151625,29.6834645 35.4923617,30.2062653 34.853383,30.2062653 L18.5884709,30.2062653 C17.9494923,30.2062653 17.4266915,29.6834645 17.4266915,29.0444859 L17.4266915,19.7502504 C17.4266915,19.1112717 17.9494923,18.5884709 18.5884709,18.5884709 L34.853383,18.5884709 C35.4923617,18.5884709 36.0151625,19.1112717 36.0151625,19.7502504 L36.0151625,29.0444859" id="Fill-475" fill="#30404D"></path>
                            <path d="M34.853383,18.5884709 L26.720927,18.5884709 L26.720927,25.5579858 C26.720927,26.841752 25.6811344,27.8815446 24.3973681,27.8815446 L17.4266915,27.8815446 L17.4266915,29.0444859 C17.4266915,29.6834645 17.9494923,30.2062653 18.5884709,30.2062653 L34.853383,30.2062653 C35.4923617,30.2062653 36.0151625,29.6834645 36.0151625,29.0444859 L36.0151625,19.7502504 C36.0151625,19.1112717 35.4923617,18.5884709 34.853383,18.5884709" id="Fill-476" fill="#182A37"></path>
                        </g>
                    </g>
                    <g id="One-Cloud" filter="url(#filter-4)" mask="url(#mask-2)">
                        <g transform="translate(15.000000, 12.600000)">
                            <path d="M14.65625,12.5625 C14.7619844,12.5625 14.8645781,12.5761094 14.9692656,12.5782031 C16.4181406,5.40292188 22.7569688,0 30.359375,0 C37.1556875,0 42.9260625,4.32464063 45.1119375,10.3661563 C46.3514375,9.76734375 47.7354063,9.421875 49.203125,9.421875 C54.4071406,9.421875 58.625,13.6397344 58.625,18.84375 C58.625,18.9924063 58.6092969,19.1358281 58.6030156,19.2823906 C63.4458594,20.644375 67,25.0820781 67,30.359375 C67,36.7191406 61.8441406,41.875 55.484375,41.875 L14.65625,41.875 C6.5618125,41.875 0,35.3131875 0,27.21875 C0,19.1243125 6.5618125,12.5625 14.65625,12.5625" id="Fill-11" fill="#FFFFFF"></path>
                            <path d="M56.2789531,18.8835313 C57.0798125,18.9390156 57.8555469,19.0730156 58.6030156,19.2823906 C58.6092969,19.1358281 58.625,18.9924063 58.625,18.84375 C58.625,15.7073125 57.0860937,12.9362344 54.7295781,11.2235469 C55.8581094,12.7771094 56.53125,14.6824219 56.53125,16.75 C56.53125,17.4849062 56.4380781,18.1967813 56.2789531,18.8835313" id="Fill-12" fill="#C4CBCD"></path>
                            <path d="M55.1200625,41.875 C62.1861646,41.875 66.7707344,37.03425 66.9926719,30.778125 C67.1402812,26.624125 65.0852656,22.939125 61.9038125,20.7993125 C63.4877344,23.1526875 64.2257812,26.1205781 63.6814062,29.2716719 C62.9203281,33.675875 59.5410156,37.2980625 55.2038125,38.3784375 C52.7802969,38.9824844 50.4604219,38.784625 48.4054062,38.0350625 C49.5601094,36.4720781 50.25,34.5458281 50.25,32.453125 C50.25,29.3166875 48.7110937,26.5456094 46.3545781,24.8329219 C47.7751875,26.7884844 48.4745,29.3020313 48.0170156,31.9925 C47.3595781,35.8638438 44.2409375,38.9835313 40.3706406,39.6420156 C39.5666406,39.7781094 38.7783437,39.8116094 38.0162187,39.7540312 C35.0294844,39.5258125 32.5661875,37.3326094 31.7349687,34.45475 C31.54025,33.7784688 31.40625,33.0854375 31.40625,32.453125 C31.40625,32.0731094 31.4334687,31.7004219 31.4795312,31.3329688 C31.6637812,29.7773125 32.2238594,28.3378594 33.0718281,27.109875 C31.8679219,27.5935312 30.5959687,27.9431875 29.2674844,28.1169687 C29.2852812,27.8186094 29.3125,27.5223437 29.3125,27.21875 C29.3125,22.369625 26.9476094,18.0837187 23.3191406,15.4152344 C25.5144375,18.4030156 26.6251719,22.2377187 25.9980937,26.3540312 C25.0485781,32.5892187 20.0267187,37.6110781 13.7915312,38.5605938 C9.67521875,39.1876719 5.84051562,38.0769375 2.85273437,35.8816406 C5.52121875,39.5101094 9.807125,41.875 14.65625,41.875 L40.828125,41.875 L55.1200625,41.875 Z" id="Fill-13" fill="#E6E6E6"></path>
                            <path d="M40.828125,23.03125 C41.9189687,23.03125 42.9627031,23.2259687 43.9373437,23.56725 C45.2804844,21.2526094 46.0625,18.5715625 46.0625,15.703125 C46.0625,10.5650625 43.5835,6.0174375 39.7686875,3.1531875 C41.7399531,5.77665625 42.921875,9.02825 42.921875,12.5625 C42.921875,16.7206875 41.2939844,20.4883906 38.6537656,23.2929688 C39.3530781,23.1275625 40.0785625,23.03125 40.828125,23.03125" id="Fill-14" fill="#E6E6E6"></path>
                        </g>
                    </g>
                    <g id="Group-76" mask="url(#mask-2)">
                        <g transform="translate(36.000000, 28.000000)">
                            <g id="Group-7" filter="url(#filter-5)" stroke-width="1" fill="none" fill-rule="evenodd" transform="translate(0.413793, 0.000000)">
                                <g id="Group-3" transform="translate(0.000000, 0.012993)">
                                    <mask id="mask-7" fill="white">
                                        <use xlink:href="#path-6"></use>
                                    </mask>
                                    <g id="Clip-2"></g>
                                    <path d="M16.6963862,27.0375724 C16.6963862,23.3159172 18.2704552,21.5167448 18.9234207,20.9308138 C19.358731,20.5393655 19.7890759,20.1487448 20.1689379,19.704331 C22.1336276,17.4036414 23.202869,14.3167448 22.8395586,10.9807448 C22.2652138,5.72722759 18.0114207,1.46681379 12.758731,0.886675862 C5.84921379,0.123641379 -0.000165517241,5.51371034 -0.000165517241,12.2692966 C-0.000165517241,15.4406069 1.28921379,18.3106759 3.3705931,20.3854345 C3.3705931,20.3854345 5.85748966,22.6886069 5.85748966,27.0375724" id="Fill-1" fill="#FCD116" mask="url(#mask-7)"></path>
                                </g>
                                <polygon id="Fill-4" fill="#E1E4E1" points="3.31034483 32.2758621 19.0344828 32.2758621 19.0344828 26.4827586 3.31034483 26.4827586"></polygon>
                                <polyline id="Path" fill="#B5B5B5" points="18.2068966 32.2758621 18.2068966 38.8965517 11.5857397 38.8965517 4.96551724 38.8965517 4.96551724 32.2758621"></polyline>
                                <polyline id="Path" fill="#696969" points="18.204573 32.2758621 18.204573 39 11.5862069 38.8965517 11.5862069 32.2758621"></polyline>
                                <path d="M3.31034483,31.4931304 L10.6277009,31.4931304 C11.1799857,31.4931304 11.6277009,31.0454151 11.6277009,30.4931304 C11.6277009,30.4896772 11.627683,30.4862239 11.6276473,30.4827709 L11.5862069,26.4827586 L19.1448006,26.4827586 L19.1448006,32.3186961 L3.31034483,32.3186961 L3.31034483,31.4931304 Z" id="Path-35" fill="#C5CCCD" fill-rule="nonzero"></path>
                            </g>
                            <g id="Group-65" stroke-width="1" fill="none" fill-rule="evenodd" transform="translate(12.000000, 0.827586)">
                                <g id="Group-3">
                                    <mask id="mask-9" fill="white">
                                        <use xlink:href="#path-8"></use>
                                    </mask>
                                    <g id="Clip-2"></g>
                                    <path d="M1.31924251,0.0696337329 C6.63220713,0.637229626 10.9356499,4.80553727 11.5149112,9.94547839 C11.8832276,13.2085475 10.8008795,16.2295179 8.81448203,18.4796591 C8.43026102,18.9144651 7.99497795,19.2982604 7.55467239,19.6796265 C6.89421405,20.2528903 5.30208254,22.0139759 5.30208254,25.6551724 L0,25.6551724 L0,0 C0.435283063,0 0.87475154,0.0218617534 1.31924251,0.0696337329 Z" id="Fill-1" fill="#FDBD0F" mask="url(#mask-9)"></path>
                                </g>
                            </g>
                            <path d="M6.20689655,24.9383082 L10.2860133,24.9383082 C11.2612899,24.9383082 12.0519077,24.1476903 12.0519077,23.1724138 L12.0519077,23.1724138 L12.8275862,23.1724138 L12.8275862,26.4827586 L6.20689655,26.4827586 L6.20689655,24.9383082 Z" id="Path-36" fill="#FDBD0F" fill-rule="nonzero"></path>
                        </g>
                    </g>
                    <g id="Business-Central-logo" mask="url(#mask-2)" fill="#FFFFFF">
                        <g transform="translate(40.000000, 33.000000)">
                            <path d="M11.0169889,4.98301107 L10.6398653,5.36013468 C10.5926449,5.31291428 10.5441654,5.26695294 10.4944816,5.22230535 C9.83331931,4.62816273 8.95887562,4.26666667 8,4.26666667 C5.93813693,4.26666667 4.26666667,5.93813693 4.26666667,8 C4.26666667,10.0618631 5.93813693,11.7333333 8,11.7333333 C9.03093153,11.7333333 9.96426487,11.3154658 10.6398653,10.6398653 L11.0169897,11.0169897 C10.2448741,11.7891037 9.17820747,12.2666667 8,12.2666667 C5.64358507,12.2666667 3.73333333,10.3564149 3.73333333,8 C3.73333333,5.64358507 5.64358507,3.73333333 8,3.73333333 C9.09585785,3.73333333 10.0952221,4.14647169 10.8508361,4.82549182 C10.9076176,4.87651764 10.9630228,4.92904489 11.0169889,4.98301107 Z" id="Combined-Shape"></path>
                            <path d="M8,3.2 C7.1163444,3.2 6.4,2.4836556 6.4,1.6 C6.4,0.7163444 7.1163444,0 8,0 C8.41094669,0 8.78570828,0.154926884 9.06906353,0.409559434 C9.39500495,0.702461349 9.6,1.12729109 9.6,1.6 C9.6,2.03091366 9.42965228,2.42204047 9.15262471,2.70971258 C8.86156408,3.01195696 8.45274194,3.2 8,3.2 Z M8,2.66666667 C8.30182796,2.66666667 8.57437605,2.54130464 8.76841647,2.33980839 C8.95310152,2.14802698 9.06666667,1.88727577 9.06666667,1.6 C9.06666667,1.28486073 8.9300033,1.0016409 8.71270902,0.806372956 C8.52380552,0.636617923 8.27396446,0.533333333 8,0.533333333 C7.41089627,0.533333333 6.93333333,1.01089627 6.93333333,1.6 C6.93333333,2.18910373 7.41089627,2.66666667 8,2.66666667 Z" id="Combined-Shape"></path>
                            <path d="M8,9.6 C7.1163444,9.6 6.4,8.8836556 6.4,8 C6.4,7.1163444 7.1163444,6.4 8,6.4 C8.41094669,6.4 8.78570828,6.55492688 9.06906353,6.80955943 C9.39500495,7.10246135 9.6,7.52729109 9.6,8 C9.6,8.43091366 9.42965228,8.82204047 9.15262471,9.10971258 C8.86156408,9.41195696 8.45274194,9.6 8,9.6 Z M8,9.06666667 C8.30182796,9.06666667 8.57437605,8.94130464 8.76841647,8.73980839 C8.95310152,8.54802698 9.06666667,8.28727577 9.06666667,8 C9.06666667,7.68486073 8.9300033,7.4016409 8.71270902,7.20637296 C8.52380552,7.03661792 8.27396446,6.93333333 8,6.93333333 C7.41089627,6.93333333 6.93333333,7.41089627 6.93333333,8 C6.93333333,8.58910373 7.41089627,9.06666667 8,9.06666667 Z" id="Combined-Shape"></path>
                            <path d="M14.4,9.6 C13.5163444,9.6 12.8,8.8836556 12.8,8 C12.8,7.1163444 13.5163444,6.4 14.4,6.4 C14.8109467,6.4 15.1857083,6.55492688 15.4690635,6.80955943 C15.795005,7.10246135 16,7.52729109 16,8 C16,8.43091366 15.8296523,8.82204047 15.5526247,9.10971258 C15.2615641,9.41195696 14.8527419,9.6 14.4,9.6 Z M14.4,9.06666667 C14.701828,9.06666667 14.9743761,8.94130464 15.1684165,8.73980839 C15.3531015,8.54802698 15.4666667,8.28727577 15.4666667,8 C15.4666667,7.68486073 15.3300033,7.4016409 15.112709,7.20637296 C14.9238055,7.03661792 14.6739645,6.93333333 14.4,6.93333333 C13.8108963,6.93333333 13.3333333,7.41089627 13.3333333,8 C13.3333333,8.58910373 13.8108963,9.06666667 14.4,9.06666667 Z" id="Combined-Shape"></path>
                            <path d="M8,16 C7.1163444,16 6.4,15.2836556 6.4,14.4 C6.4,13.5163444 7.1163444,12.8 8,12.8 C8.41094669,12.8 8.78570828,12.9549269 9.06906353,13.2095594 C9.39500495,13.5024613 9.6,13.9272911 9.6,14.4 C9.6,14.8309137 9.42965228,15.2220405 9.15262471,15.5097126 C8.86156408,15.811957 8.45274194,16 8,16 Z M8,15.4666667 C8.30182796,15.4666667 8.57437605,15.3413046 8.76841647,15.1398084 C8.95310152,14.948027 9.06666667,14.6872758 9.06666667,14.4 C9.06666667,14.0848607 8.9300033,13.8016409 8.71270902,13.606373 C8.52380552,13.4366179 8.27396446,13.3333333 8,13.3333333 C7.41089627,13.3333333 6.93333333,13.8108963 6.93333333,14.4 C6.93333333,14.9891037 7.41089627,15.4666667 8,15.4666667 Z" id="Combined-Shape"></path>
                            <rect id="Rectangle" x="9.06666667" y="7.46666667" width="4.26666667" height="1.06666667"></rect>
                            <polygon id="Rectangle" transform="translate(8.000000, 3.466667) rotate(90.000000) translate(-8.000000, -3.466667) " points="7.46666667 2.93333333 8.53333333 2.93333333 8.53333333 4 7.46666667 4"></polygon>
                            <rect id="Rectangle" x="2.93333333" y="7.46666667" width="1.06666667" height="1.06666667"></rect>
                            <polygon id="Rectangle" transform="translate(8.000000, 12.533333) rotate(90.000000) translate(-8.000000, -12.533333) " points="7.46666667 12 8.53333333 12 8.53333333 13.0666667 7.46666667 13.0666667"></polygon>
                            <path d="M1.6,9.6 C0.7163444,9.6 -2.90922841e-12,8.8836556 -2.90922841e-12,8 C-2.90922841e-12,7.1163444 0.7163444,6.4 1.6,6.4 C2.01094669,6.4 2.38570828,6.55492688 2.66906353,6.80955943 C2.99500495,7.10246135 3.2,7.52729109 3.2,8 C3.2,8.43091366 3.02965228,8.82204047 2.75262471,9.10971258 C2.46156408,9.41195696 2.05274194,9.6 1.6,9.6 Z M1.6,9.06666667 C1.90182796,9.06666667 2.17437605,8.94130464 2.36841647,8.73980839 C2.55310152,8.54802698 2.66666667,8.28727577 2.66666667,8 C2.66666667,7.68486073 2.5300033,7.4016409 2.31270902,7.20637296 C2.12380552,7.03661792 1.87396446,6.93333333 1.6,6.93333333 C1.01089627,6.93333333 0.533333333,7.41089627 0.533333333,8 C0.533333333,8.58910373 1.01089627,9.06666667 1.6,9.06666667 Z" id="Combined-Shape"></path>
                        </g>
                    </g>
                </g>
                <g id="Dynamic-Border" stroke="#1D8E96" stroke-width="4">
                    <rect id="Azure-Border" x="2" y="2" width="96" height="96" rx="48"></rect>
                </g>
            </g>
        </g>
    </g>
</svg>