<?xml version="1.0" encoding="UTF-8"?>
<svg width="100px" height="100px" viewBox="0 0 100 100" version="1.1" xmlns="http://www.w3.org/2000/svg" xmlns:xlink="http://www.w3.org/1999/xlink">
    <!-- Generator: Sketch 55.2 (78181) - https://sketchapp.com -->
    <title>Deploy and Configure Microsoft Dynamics 365 Business Central/create-new-companies-in-business-central</title>
    <desc>Created with Sketch.</desc>
    <defs>
        <rect id="path-1" x="0" y="0" width="96" height="96" rx="48"></rect>
        <filter x="-8.2%" y="-12.9%" width="116.3%" height="125.8%" filterUnits="objectBoundingBox" id="filter-3">
            <feOffset dx="0" dy="2" in="SourceAlpha" result="shadowOffsetOuter1"></feOffset>
            <feColorMatrix values="0 0 0 0 0   0 0 0 0 0   0 0 0 0 0  0 0 0 0.0964956975 0" type="matrix" in="shadowOffsetOuter1" result="shadowMatrixOuter1"></feColorMatrix>
            <feMerge>
                <feMergeNode in="shadowMatrixOuter1"></feMergeNode>
                <feMergeNode in="SourceGraphic"></feMergeNode>
            </feMerge>
        </filter>
        <filter x="-6.7%" y="-9.2%" width="113.3%" height="119.2%" filterUnits="objectBoundingBox" id="filter-4">
            <feOffset dx="0" dy="2" in="SourceAlpha" result="shadowOffsetOuter1"></feOffset>
            <feColorMatrix values="0 0 0 0 0   0 0 0 0 0   0 0 0 0 0  0 0 0 0.1 0" type="matrix" in="shadowOffsetOuter1" result="shadowMatrixOuter1"></feColorMatrix>
            <feMerge>
                <feMergeNode in="shadowMatrixOuter1"></feMergeNode>
                <feMergeNode in="SourceGraphic"></feMergeNode>
            </feMerge>
        </filter>
    </defs>
    <g id="Badges" stroke="none" stroke-width="1" fill="none" fill-rule="evenodd">
        <g id="Deploy-and-Configure-Microsoft-Dynamics-365-Business-Central" transform="translate(-50.000000, -860.000000)">
            <g id="Deploy-and-Configure-Microsoft-Dynamics-365-Business-Central/create-new-companies-in-business-central" transform="translate(50.000000, 860.000000)">
                <g id="Mask" transform="translate(2.000000, 2.000000)">
                    <mask id="mask-2" fill="white">
                        <use xlink:href="#path-1"></use>
                    </mask>
                    <use id="BG" fill="#01B6C3" xlink:href="#path-1"></use>
                    <g id="Stars" mask="url(#mask-2)" fill="#FFFFFF">
                        <g transform="translate(10.000000, 18.000000)">
                            <path d="M5.89820422,36.6567325 L4.42352872,36.6567325 L4.42352872,35.182057 C4.42352872,34.7759461 4.09230185,34.4447192 3.68619097,34.4447192 C3.28008008,34.4447192 2.94885322,34.7759461 2.94885322,35.182057 L2.94885322,36.6567325 L1.47417772,36.6567325 C1.06806683,36.6567325 0.736839969,36.9879593 0.736839969,37.3940702 C0.736839969,37.8001811 1.06806683,38.131408 1.47417772,38.131408 L2.94885322,38.131408 L2.94885322,39.6060813 C2.94885322,40.0121922 3.28008008,40.343419 3.68619097,40.343419 C4.09230185,40.343419 4.42352872,40.0121922 4.42352872,39.6060813 L4.42352872,38.131408 L5.89820422,38.131408 C6.3043151,38.131408 6.63554197,37.8001811 6.63554197,37.3940702 C6.63554197,36.9879593 6.3043151,36.6567325 5.89820422,36.6567325 Z M76.0511468,27.7107339 C76.2469984,27.7107339 76.4342159,27.6329668 76.5724667,27.494716 C76.7107175,27.3564652 76.7884845,27.1692478 76.7884845,26.9733961 L76.7884845,26.2360584 L77.5258223,26.2360584 C77.9319332,26.2360584 78.26316,25.9048315 78.26316,25.4987206 C78.26316,25.0926097 77.9319332,24.7613829 77.5258223,24.7613829 L76.7884845,24.7613829 L76.7884845,24.0240451 C76.7884845,23.6179342 76.4572577,23.2867074 76.0511468,23.2867074 C75.6450359,23.2867074 75.313809,23.6179342 75.313809,24.0240451 L75.313809,24.7613829 L74.5764713,24.7613829 C74.1703604,24.7613829 73.8391335,25.0926097 73.8391335,25.4987206 C73.8391335,25.9048315 74.1703604,26.2360584 74.5764713,26.2360584 L75.313809,26.2360584 L75.313809,26.9733961 C75.313809,27.1692478 75.391576,27.3564652 75.5298269,27.494716 C75.6680777,27.6329668 75.8552951,27.7107339 76.0511468,27.7107339 Z M20.0134778,60.6567179 C19.6073669,60.6567179 19.2761401,60.9879447 19.2761401,61.3940556 L19.2761401,62.1313934 L18.5388023,62.1313934 C18.1326914,62.1313934 17.8014646,62.4626202 17.8014646,62.8687311 C17.8014646,63.274842 18.1326914,63.6060689 18.5388023,63.6060689 L19.2761401,63.6060689 L19.2761401,64.3434066 C19.2761401,64.7495175 19.6073669,65.0807444 20.0134778,65.0807444 C20.4195887,65.0807444 20.7508156,64.7495175 20.7508156,64.3434066 L20.7508156,63.6060689 L21.4881533,63.6060689 C21.8942642,63.6060689 22.2254911,63.274842 22.2254911,62.8687311 C22.2254911,62.4626202 21.8942642,62.1313934 21.4881533,62.1313934 L20.7508156,62.1313934 L20.7508156,61.3940556 C20.7508156,61.198204 20.6730485,61.0109865 20.5347977,60.8727357 C20.3965469,60.7344849 20.2093295,60.6567179 20.0134778,60.6567179 Z M69.415107,9.04307538 C69.415107,9.44918627 69.7463339,9.78041313 70.1524448,9.78041313 C70.5585557,9.78041313 70.8897825,9.44918627 70.8897825,9.04307538 C71.2958934,9.04307538 71.6271203,8.71184852 71.6271203,8.30573763 C71.6271203,7.89962675 71.2958934,7.56839988 70.8897825,7.56839988 C70.8897825,7.162289 70.5585557,6.83106213 70.1524448,6.83106213 C69.7463339,6.83106213 69.415107,7.162289 69.415107,7.56839988 C69.0089961,7.56839988 68.6777693,7.89962675 68.6777693,8.30573763 C68.6777693,8.71184852 69.0089961,9.04307538 69.415107,9.04307538 Z M43.6082858,14.9417774 C43.6082858,15.3478883 43.9395127,15.6791151 44.3456235,15.6791151 C44.7517344,15.6791151 45.0829613,15.3478883 45.0829613,14.9417774 C45.4890722,14.9417774 45.820299,14.6105505 45.820299,14.2044396 C45.820299,13.7983287 45.4890722,13.4671019 45.0829613,13.4671019 C45.0829613,13.060991 44.7517344,12.7297641 44.3456235,12.7297641 C43.9395127,12.7297641 43.6082858,13.060991 43.6082858,13.4671019 C43.2021749,13.4671019 42.870948,13.7983287 42.870948,14.2044396 C42.870948,14.6105505 43.2021749,14.9417774 43.6082858,14.9417774 Z M13.947806,5.59281502 L16.897157,5.59281502 L16.897157,8.54216602 C16.897157,8.9482769 17.2283839,9.27950377 17.6344948,9.27950377 C18.0406057,9.27950377 18.3718325,8.9482769 18.3718325,8.54216602 L18.3718325,5.59281502 L21.3211835,5.59281502 C21.7272944,5.59281502 22.0585213,5.26158815 22.0585213,4.85547727 C22.0585213,4.44936638 21.7272944,4.11813952 21.3211835,4.11813952 L18.3718325,4.11813952 L18.3718325,1.16878852 C18.3718325,0.762677634 18.0406057,0.43145077 17.6344948,0.43145077 C17.2283839,0.43145077 16.897157,0.762677634 16.897157,1.16878852 L16.897157,4.11813952 L13.947806,4.11813952 C13.5416951,4.11813952 13.2104683,4.44936638 13.2104683,4.85547727 C13.2104683,5.26158815 13.5416951,5.59281502 13.947806,5.59281502 Z"></path>
                        </g>
                    </g>
                    <g id="One-Cloud" filter="url(#filter-3)" mask="url(#mask-2)">
                        <g transform="translate(26.500000, 30.500000) scale(-1, 1) translate(-26.500000, -30.500000) translate(2.000000, 15.000000)">
                            <g id="Group-5" stroke-width="1" fill="none">
                                <path d="M10.71875,9.1875 C10.7960781,9.1875 10.8711094,9.19745312 10.9476719,9.19898437 C12.0072969,3.95139063 16.6431563,0 22.203125,0 C27.1735625,0 31.3936875,3.16279688 32.9923125,7.58121875 C33.8988125,7.14328125 34.9109688,6.890625 35.984375,6.890625 C39.7902969,6.890625 42.875,9.97532812 42.875,13.78125 C42.875,13.8899688 42.8635156,13.9948594 42.8589219,14.1020469 C46.4007031,15.098125 49,18.3436094 49,22.203125 C49,26.8542969 45.2292969,30.625 40.578125,30.625 L10.71875,30.625 C4.7989375,30.625 0,25.8260625 0,19.90625 C0,13.9864375 4.7989375,9.1875 10.71875,9.1875" id="Fill-11" fill="#FFFFFF"></path>
                                <g id="Business-Central-logo" transform="translate(9.187500, 19.140625) scale(-1, 1) translate(-9.187500, -19.140625) translate(2.296875, 12.250000)" fill="#30404D">
                                    <path d="M9.48924634,4.29200366 L9.16441524,4.61683476 C9.12374298,4.57616249 9.08198624,4.5365747 9.03919213,4.49811847 C8.46971449,3.98636673 7.71653154,3.675 6.890625,3.675 C5.11468435,3.675 3.675,5.11468435 3.675,6.890625 C3.675,8.66656565 5.11468435,10.10625 6.890625,10.10625 C7.77859532,10.10625 8.58250157,9.74632891 9.16441524,9.16441524 L9.48924308,9.48924308 C8.82419823,10.1542866 7.90544823,10.565625 6.890625,10.565625 C4.86097854,10.565625 3.215625,8.92027146 3.215625,6.890625 C3.215625,4.86097854 4.86097854,3.215625 6.890625,3.215625 C7.83451819,3.215625 8.6952987,3.57147269 9.34613029,4.15633182 C9.39503785,4.2002818 9.44275983,4.24552499 9.48924242,4.29200758 Z" id="Combined-Shape"></path>
                                    <path d="M6.890625,2.75625 C6.12950758,2.75625 5.5125,2.13924242 5.5125,1.378125 C5.5125,0.617007579 6.12950758,0 6.890625,0 C7.24458495,0 7.56737764,0.133442882 7.81143948,0.352765059 C8.092182,0.605049716 8.26875,0.970967525 8.26875,1.378125 C8.26875,1.74928305 8.12202472,2.08617158 7.88341308,2.33395166 C7.63271437,2.59428324 7.28058437,2.75625 6.890625,2.75625 Z M6.890625,2.296875 C7.15059791,2.296875 7.38535125,2.18889716 7.55248372,2.01534277 C7.71155815,1.85015605 7.809375,1.6255637 7.809375,1.378125 C7.809375,1.10668668 7.691663,0.862741478 7.50450132,0.694551706 C7.34179342,0.548336922 7.1265983,0.459375 6.890625,0.459375 C6.38321339,0.459375 5.971875,0.870713386 5.971875,1.378125 C5.971875,1.88553661 6.38321339,2.296875 6.890625,2.296875 Z" id="Combined-Shape"></path>
                                    <path d="M6.890625,8.26875 C6.12950758,8.26875 5.5125,7.65174242 5.5125,6.890625 C5.5125,6.12950758 6.12950758,5.5125 6.890625,5.5125 C7.24458495,5.5125 7.56737764,5.64594288 7.81143948,5.86526506 C8.092182,6.11754972 8.26875,6.48346753 8.26875,6.890625 C8.26875,7.26178305 8.12202472,7.59867158 7.88341308,7.84645166 C7.63271437,8.10678324 7.28058437,8.26875 6.890625,8.26875 Z M6.890625,7.809375 C7.15059791,7.809375 7.38535125,7.70139716 7.55248372,7.52784277 C7.71155815,7.36265605 7.809375,7.1380637 7.809375,6.890625 C7.809375,6.61918668 7.691663,6.37524148 7.50450132,6.20705171 C7.34179342,6.06083692 7.1265983,5.971875 6.890625,5.971875 C6.38321339,5.971875 5.971875,6.38321339 5.971875,6.890625 C5.971875,7.39803661 6.38321339,7.809375 6.890625,7.809375 Z" id="Combined-Shape"></path>
                                    <path d="M12.403125,8.26875 C11.6420076,8.26875 11.025,7.65174242 11.025,6.890625 C11.025,6.12950758 11.6420076,5.5125 12.403125,5.5125 C12.7570849,5.5125 13.0798776,5.64594288 13.3239395,5.86526506 C13.604682,6.11754972 13.78125,6.48346753 13.78125,6.890625 C13.78125,7.26178305 13.6345247,7.59867158 13.3959131,7.84645166 C13.1452144,8.10678324 12.7930844,8.26875 12.403125,8.26875 Z M12.403125,7.809375 C12.6630979,7.809375 12.8978512,7.70139716 13.0649837,7.52784277 C13.2240581,7.36265605 13.321875,7.1380637 13.321875,6.890625 C13.321875,6.61918668 13.204163,6.37524148 13.0170013,6.20705171 C12.8542934,6.06083692 12.6390983,5.971875 12.403125,5.971875 C11.8957134,5.971875 11.484375,6.38321339 11.484375,6.890625 C11.484375,7.39803661 11.8957134,7.809375 12.403125,7.809375 Z" id="Combined-Shape"></path>
                                    <path d="M6.890625,13.78125 C6.12950758,13.78125 5.5125,13.1642424 5.5125,12.403125 C5.5125,11.6420076 6.12950758,11.025 6.890625,11.025 C7.24458495,11.025 7.56737764,11.1584429 7.81143948,11.3777651 C8.092182,11.6300497 8.26875,11.9959675 8.26875,12.403125 C8.26875,12.7742831 8.12202472,13.1111716 7.88341308,13.3589517 C7.63271437,13.6192832 7.28058437,13.78125 6.890625,13.78125 Z M6.890625,13.321875 C7.15059791,13.321875 7.38535125,13.2138972 7.55248372,13.0403428 C7.71155815,12.8751561 7.809375,12.6505637 7.809375,12.403125 C7.809375,12.1316867 7.691663,11.8877415 7.50450132,11.7195517 C7.34179342,11.5733369 7.1265983,11.484375 6.890625,11.484375 C6.38321339,11.484375 5.971875,11.8957134 5.971875,12.403125 C5.971875,12.9105366 6.38321339,13.321875 6.890625,13.321875 Z" id="Combined-Shape"></path>
                                    <rect id="Rectangle" x="7.809375" y="6.43125" width="3.675" height="1"></rect>
                                    <polygon id="Rectangle" transform="translate(6.890625, 2.985938) rotate(90.000000) translate(-6.890625, -2.985938) " points="6.43125 2.5265625 7.35 2.5265625 7.35 3.4453125 6.43125 3.4453125"></polygon>
                                    <rect id="Rectangle" x="2.5265625" y="6.43125" width="1" height="1"></rect>
                                    <polygon id="Rectangle" transform="translate(6.890625, 10.795313) rotate(90.000000) translate(-6.890625, -10.795313) " points="6.43125 10.3359375 7.35 10.3359375 7.35 11.2546875 6.43125 11.2546875"></polygon>
                                    <path d="M1.378125,8.26875 C0.617007579,8.26875 -2.90922841e-12,7.65174242 -2.90922841e-12,6.890625 C-2.90922841e-12,6.12950758 0.617007579,5.5125 1.378125,5.5125 C1.73208495,5.5125 2.05487764,5.64594288 2.29893948,5.86526506 C2.579682,6.11754972 2.75625,6.48346753 2.75625,6.890625 C2.75625,7.26178305 2.60952472,7.59867158 2.37091308,7.84645166 C2.12021437,8.10678324 1.76808437,8.26875 1.378125,8.26875 Z M1.378125,7.809375 C1.63809791,7.809375 1.87285125,7.70139716 2.03998372,7.52784277 C2.19905815,7.36265605 2.296875,7.1380637 2.296875,6.890625 C2.296875,6.61918668 2.179163,6.37524148 1.99200132,6.20705171 C1.82929342,6.06083692 1.6140983,5.971875 1.378125,5.971875 C0.870713386,5.971875 0.459375,6.38321339 0.459375,6.890625 C0.459375,7.39803661 0.870713386,7.809375 1.378125,7.809375 Z" id="Combined-Shape"></path>
                                </g>
                            </g>
                            <path d="M41.1592344,13.8103438 C41.7449375,13.8509219 42.3122656,13.9489219 42.8589219,14.1020469 C42.8635156,13.9948594 42.875,13.8899688 42.875,13.78125 C42.875,11.4874375 41.7495312,9.46082812 40.0261094,8.20826562 C40.8514531,9.34445312 41.34375,10.7378906 41.34375,12.25 C41.34375,12.7874687 41.2756094,13.3080938 41.1592344,13.8103438" id="Fill-12" fill="#C4CBCD"></path>
                            <path d="M40.3116875,30.625 C45.4794338,30.625 48.8323281,27.08475 48.9946406,22.509375 C49.1025937,19.471375 47.5996719,16.776375 45.2729375,15.2114375 C46.4313281,16.9325625 46.9710937,19.1031094 46.5729687,21.4076406 C46.0163594,24.628625 43.5449219,27.2776875 40.3729375,28.0678125 C38.6005156,28.5095781 36.9038906,28.364875 35.4009687,27.8166875 C36.2454531,26.6736094 36.75,25.2648594 36.75,23.734375 C36.75,21.4405625 35.6245312,19.4139531 33.9011094,18.1613906 C34.9400625,19.5915781 35.4515,21.4298438 35.1169219,23.3975 C34.6361094,26.2287813 32.3553125,28.5103438 29.5247969,28.9919219 C28.9367969,29.0914531 28.3602812,29.1159531 27.8029062,29.0738437 C25.6185781,28.9069375 23.8170625,27.3029531 23.2091562,25.19825 C23.06675,24.7036563 22.96875,24.1968125 22.96875,23.734375 C22.96875,23.4564531 22.9886562,23.1838906 23.0223437,22.9151563 C23.1570937,21.7774375 23.5667031,20.7247031 24.1868594,19.826625 C23.3063906,20.1803437 22.3761562,20.4360625 21.4045781,20.5631562 C21.4175937,20.3449531 21.4375,20.1282812 21.4375,19.90625 C21.4375,16.359875 19.7079531,13.2254062 17.0542969,11.2738281 C18.6598125,13.4589219 19.4721406,16.2634062 19.0135312,19.2738437 C18.3191094,23.8339062 14.6464062,27.5066094 10.0863437,28.2010313 C7.07590625,28.6596406 4.27142187,27.8473125 2.08632812,26.2417969 C4.03790625,28.8954531 7.172375,30.625 10.71875,30.625 L29.859375,30.625 L40.3116875,30.625 Z" id="Fill-13" fill="#E6E6E6"></path>
                            <path d="M29.859375,16.84375 C30.6571562,16.84375 31.4204844,16.9861562 32.1332812,17.23575 C33.1155781,15.5429531 33.6875,13.5821875 33.6875,11.484375 C33.6875,7.7266875 31.8745,4.4008125 29.0845625,2.3060625 C30.5262344,4.22471875 31.390625,6.60275 31.390625,9.1875 C31.390625,12.2285625 30.2000781,14.9840469 28.2691719,17.0351562 C28.7806094,16.9141875 29.3111875,16.84375 29.859375,16.84375" id="Fill-14" fill="#E6E6E6"></path>
                        </g>
                    </g>
                    <g id="Warehouse-Closed" filter="url(#filter-4)" mask="url(#mask-2)">
                        <g transform="translate(18.000000, 37.000000)">
                            <g id="Building" transform="translate(29.664185, 0.080064)">
                                <path d="M21.0401436,1.13730506 C21.0401436,0.508944013 20.5306309,0 19.9028385,0 L6.25517782,0 C5.62681677,0 5.11787276,0.508944013 5.11787276,1.13730506 L5.11787276,3.41191517 L21.0401436,3.41191517 L21.0401436,1.13730506 Z" id="Fill-474" fill="#C5CCCD"></path>
                                <path d="M1.70595759,3.41191517 C1.07759654,3.41191517 0.568652529,3.92142784 0.568652529,4.54922023 L0.568652529,42.0750562 L25.5893638,42.0750562 L25.5893638,4.54922023 C25.5893638,3.92142784 25.0798511,3.41191517 24.4520587,3.41191517 L1.70595759,3.41191517 Z" id="Fill-475" fill="#E1E4E1"></path>
                                <polygon id="Fill-477" fill="#30404D" points="9.66709299 42.0802871 16.4909233 42.0802871 16.4909233 36.9624144 9.66709299 36.9624144"></polygon>
                                <polygon id="Fill-478" fill="#30404D" points="11.9417031 42.0802871 14.2163132 42.0802871 14.2163132 36.9624144 11.9417031 36.9624144"></polygon>
                                <polygon id="Fill-479" fill="#30404D" points="14.2163132 42.0802871 16.4909233 42.0802871 16.4909233 36.9624144 14.2163132 36.9624144"></polygon>
                                <path d="M25.5893638,4.54922023 L0.568652529,4.54922023 C0.255893638,4.54922023 0,4.29332659 0,3.9805677 L0,3.41191517 C0,3.09915628 0.255893638,2.84326265 0.568652529,2.84326265 L25.5893638,2.84326265 C25.9021227,2.84326265 26.1580163,3.09915628 26.1580163,3.41191517 L26.1580163,3.9805677 C26.1580163,4.29332659 25.9021227,4.54922023 25.5893638,4.54922023 Z" id="Fill-480" fill="#30404D"></path>
                                <polygon id="Fill-481" fill="#C5CCCD" points="0.568652529 5.68652529 0.568652529 4.54922023 25.5893638 4.54922023 25.5893638 9.09844046"></polygon>
                                <polygon id="Fill-482" fill="#55B7D9" points="5.11787276 34.6878043 7.39248288 34.6878043 7.39248288 4.54922023 5.11787276 4.54922023"></polygon>
                                <polygon id="Fill-483" fill="#4DA0BD" points="7.39248288 4.54922023 5.11787276 4.54922023 5.11787276 6.3069252 7.39248288 6.61684083"></polygon>
                                <polygon id="Fill-484" fill="#55B7D9" points="9.66709299 34.6878043 11.9417031 34.6878043 11.9417031 4.54922023 9.66709299 4.54922023"></polygon>
                                <polygon id="Fill-485" fill="#4DA0BD" points="11.9417031 4.54922023 9.66709299 4.54922023 9.66709299 6.92732511 11.9417031 7.23724074"></polygon>
                                <polygon id="Fill-486" fill="#55B7D9" points="18.7655335 34.6878043 21.0401436 34.6878043 21.0401436 4.54922023 18.7655335 4.54922023"></polygon>
                                <polygon id="Fill-487" fill="#4DA0BD" points="21.0401436 4.54922023 18.7655335 4.54922023 18.7655335 8.16812493 21.0401436 8.47804056"></polygon>
                                <polygon id="Fill-488" fill="#55B7D9" points="14.2163132 34.6878043 16.4909233 34.6878043 16.4909233 4.54922023 14.2163132 4.54922023"></polygon>
                                <polygon id="Fill-489" fill="#4DA0BD" points="16.4909233 4.54922023 14.2163132 4.54922023 14.2163132 7.54772502 16.4909233 7.85764065"></polygon>
                                <polygon id="Fill-490" fill="#4DA0BD" points="5.11787276 34.6878043 5.68652529 34.6878043 5.68652529 6.25517782 5.11787276 6.25517782"></polygon>
                                <polygon id="Fill-491" fill="#4DA0BD" points="9.66709299 34.6878043 10.2357455 34.6878043 10.2357455 6.25517782 9.66709299 6.25517782"></polygon>
                                <polygon id="Fill-492" fill="#4DA0BD" points="14.2163132 34.6878043 14.7849658 34.6878043 14.7849658 6.25517782 14.2163132 6.25517782"></polygon>
                                <polygon id="Fill-493" fill="#4DA0BD" points="18.7655335 34.6878043 19.334186 34.6878043 19.334186 6.25517782 18.7655335 6.25517782"></polygon>
                                <polygon id="Fill-494" fill="#233039" points="14.2163132 37.5310669 16.4909233 37.5310669 16.4909233 36.9624144 14.2163132 36.9624144"></polygon>
                                <polygon id="Fill-496" fill="#233039" points="11.9417031 37.5310669 14.2163132 37.5310669 14.2163132 36.9624144 11.9417031 36.9624144"></polygon>
                                <polygon id="Fill-497" fill="#233039" points="9.66709299 37.5310669 16.4909233 37.5310669 16.4909233 36.9624144 9.66709299 36.9624144"></polygon>
                                <g id="Group-7" transform="translate(22.597403, 37.402597)">
                                    <path d="M4.51196942,4.67768974 C4.74852887,4.34900858 4.88728009,3.95038316 4.88728009,3.5199132 C4.88728009,2.40023637 3.95355264,1.49323558 2.80259992,1.49323558 C1.65107855,1.49323558 0.717351092,2.40023637 0.717351092,3.5199132 C0.717351092,3.95038316 0.856670962,4.34900858 1.09266176,4.67768974 L4.51196942,4.67768974" id="Fill-499" fill="#6AA143"></path>
                                    <path d="M6.52215611,4.67768974 C6.80534507,4.26655397 6.97252891,3.76841435 6.97252891,3.23046906 C6.97252891,1.83101518 5.85228343,0.697122042 4.47045778,0.697122042 C3.08863214,0.697122042 1.96838666,1.83101518 1.96838666,3.23046906 C1.96838666,3.76841435 2.1355705,4.26655397 2.41875946,4.67768974 L6.52215611,4.67768974" id="Fill-500" fill="#87BF5F"></path>
                                    <path d="M2.13045263,1.610378 C1.31045568,1.88333122 0.717351092,2.62997199 0.717351092,3.5199132 C0.717351092,3.95038316 0.856670962,4.34900858 1.09266176,4.67768974 L2.0013685,4.67768974 C1.7187482,4.26655397 1.55156435,3.76841435 1.55156435,3.23046906 C1.55156435,2.61404972 1.76935827,2.04937776 2.13045263,1.610378" id="Fill-501" fill="#6EA846"></path>
                                    <path d="M5.96544528,1.20094818 C6.27934148,1.61663318 6.47211469,2.12728315 6.47211469,2.68740589 C6.47211469,3.50512823 6.07007735,4.22390503 5.45763857,4.67768974 L6.52215611,4.67768974 C6.83889557,4.26086744 6.97252891,3.74794286 6.97252891,3.18497686 C6.97252891,2.37066643 6.57333484,1.6547329 5.96544528,1.20094818" id="Fill-503" fill="#6EA846"></path>
                                </g>
                            </g>
                            <g id="Garage" transform="translate(0.094253, 15.433682)">
                                <polygon id="Fill-675" fill="#E1E4E1" points="2.84326265 26.7266689 2.84326265 5.95984208 30.3107951 0.115955597 30.3107951 26.7266689"></polygon>
                                <path d="M7.39248288,7.96113541 C6.76469049,7.96113541 6.25517782,8.47007942 6.25517782,9.09844046 L6.25517782,26.7266689 L29.001279,26.7266689 L29.001279,9.09844046 C29.001279,8.47007942 28.492335,7.96113541 27.8639739,7.96113541 L7.39248288,7.96113541 Z" id="Fill-678" fill="#546670"></path>
                                <polygon id="Fill-679" fill="#30404D" points="7.39248288 10.8043981 27.8639739 10.8043981 27.8639739 9.66709299 7.39248288 9.66709299"></polygon>
                                <polygon id="Fill-680" fill="#30404D" points="7.39248288 13.8665571 27.8639739 13.8665571 27.8639739 12.729252 7.39248288 12.729252"></polygon>
                                <polygon id="Fill-679" fill="#30404D" points="7.39248288 16.9287161 27.8639739 16.9287161 27.8639739 15.791411 7.39248288 15.791411"></polygon>
                                <polygon id="Fill-680" fill="#30404D" points="7.39248288 19.9908751 27.8639739 19.9908751 27.8639739 18.8535701 7.39248288 18.8535701"></polygon>
                                <polygon id="Fill-679" fill="#30404D" points="7.39248288 23.0530341 27.8639739 23.0530341 27.8639739 21.9157291 7.39248288 21.9157291"></polygon>
                                <polygon id="Fill-680" fill="#30404D" points="7.39248288 26.1151932 27.8639739 26.1151932 27.8639739 24.9778881 7.39248288 24.9778881"></polygon>
                                <path d="M3.41191517,22.1774486 C3.21743601,22.1774486 3.02693741,22.1979201 2.84326265,22.2360198 L2.84326265,26.7266689 L5.74282189,26.7266689 C6.06524787,26.2569619 6.25517782,25.6877407 6.25517782,25.0730273 C6.25517782,23.4734077 4.98196481,22.1774486 3.41191517,22.1774486" id="Fill-685" fill="#C5CCCD"></path>
                                <path d="M5.17416936,26.7266689 C5.49602669,26.2569619 5.68652529,25.6877407 5.68652529,25.0730273 C5.68652529,23.4734077 4.41331228,22.1774486 2.84326265,22.1774486 C1.27321301,22.1774486 0,23.4734077 0,25.0730273 C0,25.6877407 0.190498597,26.2569619 0.511787276,26.7266689 L5.17416936,26.7266689" id="Fill-686" fill="#87BF5F"></path>
                                <path d="M4.5423964,22.752925 C4.89894154,23.2283185 5.11787276,23.8123247 5.11787276,24.4520587 C5.11787276,25.3863549 4.66124478,26.2086264 3.96521408,26.7266689 L5.10479375,26.7266689 C5.4647508,26.250138 5.68652529,25.6638573 5.68652529,25.0207113 C5.68652529,24.0903957 5.23330922,23.2721048 4.5423964,22.752925" id="Fill-690" fill="#6EA846"></path>
                            </g>
                        </g>
                    </g>
                    <path d="M86.1087152,30.5264563 L71.6480658,30.5264563 C69.0852256,30.5264563 67,28.4412307 67,25.8783905 C67,23.8841998 68.2749903,22.131848 70.1441015,21.4940972 C70.5342137,17.2628751 74.0752394,14 78.3619387,14 C82.539703,14 86.0519778,17.1491472 86.5545576,21.2515095 C88.9091025,21.476698 90.756781,23.4658429 90.756781,25.8783905 C90.756781,28.4412307 88.6715554,30.5264563 86.1087152,30.5264563 Z" id="Cloud" fill="#FFFFFF" fill-rule="nonzero" opacity="0.900000036" mask="url(#mask-2)"></path>
                </g>
                <g id="Dynamic-Border" stroke="#1D8E96" stroke-width="4">
                    <rect id="Azure-Border" x="2" y="2" width="96" height="96" rx="48"></rect>
                </g>
            </g>
        </g>
    </g>
</svg>