<?xml version="1.0" encoding="UTF-8"?>
<svg width="101px" height="101px" viewBox="0 0 101 101" version="1.1" xmlns="http://www.w3.org/2000/svg" xmlns:xlink="http://www.w3.org/1999/xlink">
    <!-- Generator: Sketch 64 (93537) - https://sketch.com -->
    <title>Learn the application foundation with the AL programming language for Microsoft Dynamics 365 Business Central/Create-your-own-custom-functions-in-Dynamics-365-Business-Central</title>
    <desc>Created with Sketch.</desc>
    <defs>
        <rect id="path-1" x="0" y="0" width="94.3396226" height="94.3396226" rx="47.1698113"></rect>
        <linearGradient x1="77.8299825%" y1="11.1997378%" x2="-99.6885927%" y2="253.807911%" id="linearGradient-3">
            <stop stop-color="#FFFFFF" offset="0%"></stop>
            <stop stop-color="#000000" stop-opacity="0.5" offset="100%"></stop>
        </linearGradient>
        <rect id="path-4" x="0" y="0" width="94.3396226" height="94.3396226"></rect>
        <rect id="path-5" x="0" y="0" width="100" height="100" rx="50"></rect>
        <filter x="-0.5%" y="-0.5%" width="102.0%" height="102.0%" filterUnits="objectBoundingBox" id="filter-6">
            <feOffset dx="1" dy="1" in="SourceAlpha" result="shadowOffsetOuter1"></feOffset>
            <feMorphology radius="4" operator="erode" in="SourceAlpha" result="shadowInner"></feMorphology>
            <feOffset dx="1" dy="1" in="shadowInner" result="shadowInner"></feOffset>
            <feComposite in="shadowOffsetOuter1" in2="shadowInner" operator="out" result="shadowOffsetOuter1"></feComposite>
            <feColorMatrix values="0 0 0 0 0   0 0 0 0 0   0 0 0 0 0  0 0 0 0.15 0" type="matrix" in="shadowOffsetOuter1"></feColorMatrix>
        </filter>
        <path d="M50,2.83018868 C76.0511674,2.83018868 97.1698113,23.9488326 97.1698113,50 C97.1698113,76.0511674 76.0511674,97.1698113 50,97.1698113 C23.9488326,97.1698113 2.83018868,76.0511674 2.83018868,50 C2.83018868,23.9488326 23.9488326,2.83018868 50,2.83018868 Z M50,6.60377358 C26.032926,6.60377358 6.60377358,26.032926 6.60377358,50 C6.60377358,73.967074 26.032926,93.3962264 50,93.3962264 C73.967074,93.3962264 93.3962264,73.967074 93.3962264,50 C93.3962264,26.032926 73.967074,6.60377358 50,6.60377358 Z" id="path-7"></path>
        <filter x="-18.2%" y="-18.8%" width="136.4%" height="138.1%" filterUnits="objectBoundingBox" id="filter-9">
            <feOffset dx="0" dy="2" in="SourceAlpha" result="shadowOffsetOuter1"></feOffset>
            <feGaussianBlur stdDeviation="2" in="shadowOffsetOuter1" result="shadowBlurOuter1"></feGaussianBlur>
            <feColorMatrix values="0 0 0 0 0   0 0 0 0 0   0 0 0 0 0  0 0 0 0.1 0" type="matrix" in="shadowBlurOuter1" result="shadowMatrixOuter1"></feColorMatrix>
            <feMerge>
                <feMergeNode in="shadowMatrixOuter1"></feMergeNode>
                <feMergeNode in="SourceGraphic"></feMergeNode>
            </feMerge>
        </filter>
        <linearGradient x1="50%" y1="100%" x2="50%" y2="0%" id="linearGradient-10">
            <stop stop-color="#0078D4" offset="0%"></stop>
            <stop stop-color="#5EA0EF" offset="82%"></stop>
        </linearGradient>
        <linearGradient x1="50%" y1="100%" x2="50%" y2="0%" id="linearGradient-11">
            <stop stop-color="#CCCCCC" offset="15%"></stop>
            <stop stop-color="#707070" offset="100%"></stop>
        </linearGradient>
        <filter x="-29.3%" y="-29.3%" width="158.7%" height="158.7%" filterUnits="objectBoundingBox" id="filter-12">
            <feOffset dx="0" dy="2" in="SourceAlpha" result="shadowOffsetOuter1"></feOffset>
            <feGaussianBlur stdDeviation="2" in="shadowOffsetOuter1" result="shadowBlurOuter1"></feGaussianBlur>
            <feColorMatrix values="0 0 0 0 0   0 0 0 0 0   0 0 0 0 0  0 0 0 0.1 0" type="matrix" in="shadowBlurOuter1" result="shadowMatrixOuter1"></feColorMatrix>
            <feMerge>
                <feMergeNode in="shadowMatrixOuter1"></feMergeNode>
                <feMergeNode in="SourceGraphic"></feMergeNode>
            </feMerge>
        </filter>
        <linearGradient x1="50%" y1="-9.93901477%" x2="50%" y2="100%" id="linearGradient-13">
            <stop stop-color="#FFFFFF" offset="0%"></stop>
            <stop stop-color="#CBCBCB" offset="100%"></stop>
        </linearGradient>
        <path d="M40.9655172,22.3371648 L40.9655172,17.6168582 L36.1410658,15.9310345 L34.9561129,12.7279693 L37.3260188,7.75478927 L37.3260188,7.24904215 L35.8025078,5.73180077 L34.0250784,3.70881226 L33.3479624,3.70881226 L28.6081505,6.23754789 L25.3918495,5.31034483 L23.2758621,0 L18.6206897,0 L17.0125392,4.8045977 L13.4576803,6.23754789 L7.95611285,3.62452107 L4.65517241,6.91187739 L4.65517241,7.50191571 L7.10971787,12.2222222 L5.67084639,15.7624521 L0,17.8697318 L0,22.5900383 L0.677115987,22.5900383 L5.67084639,24.2758621 L7.02507837,27.4789272 L4.48589342,32.9578544 L7.78683386,36.3295019 L8.46394984,36.3295019 L13.1191223,33.9693487 L16.4200627,35.3180077 L18.4514107,40.9655172 L23.1912226,40.9655172 L23.1912226,40.2911877 L24.799373,35.2337165 L28.015674,33.8850575 L33.6018809,36.4980843 L36.9028213,33.210728 L36.9028213,32.5363985 L34.5329154,27.816092 L35.4639498,24.5287356 L40.9655172,22.3371648 Z M20.8222331,26.33443 C17.295568,25.9557639 14.6305419,23.1222238 14.6305419,19.751228 C14.6305419,16.3802322 17.295568,13.5466921 20.8222331,13.168026 C22.66401,13.1455968 24.4384956,13.82485 25.7492048,15.0540157 C27.059914,16.2831814 27.7976067,17.9598156 27.7974554,19.7092968 L27.7974554,19.7092968 C27.8214221,21.4732714 27.0942334,23.1716585 25.7808941,24.4190808 C24.4675549,25.666503 22.6794206,26.3571938 20.8222331,26.33443 Z" id="path-14"></path>
        <filter x="0.0%" y="0.0%" width="100.0%" height="100.0%" filterUnits="objectBoundingBox" id="filter-15">
            <feOffset dx="0" dy="0" in="SourceAlpha" result="shadowOffsetOuter1"></feOffset>
            <feColorMatrix values="0 0 0 0 0   0 0 0 0 0   0 0 0 0 0  0 0 0 0.1 0" type="matrix" in="shadowOffsetOuter1"></feColorMatrix>
        </filter>
        <linearGradient x1="50%" y1="97.5691716%" x2="50%" y2="-5.30956676%" id="linearGradient-16">
            <stop stop-color="#1688DE" offset="0%"></stop>
            <stop stop-color="#3B99E6" offset="16%"></stop>
            <stop stop-color="#569BDE" offset="53%"></stop>
            <stop stop-color="#72ADEF" offset="80.8303421%"></stop>
            <stop stop-color="#8EBDF5" offset="100%"></stop>
        </linearGradient>
        <linearGradient x1="50%" y1="0.670396959%" x2="50%" y2="100%" id="linearGradient-17">
            <stop stop-color="#6A6A6A" offset="0%"></stop>
            <stop stop-color="#343333" offset="100%"></stop>
        </linearGradient>
    </defs>
    <g id="Badges" stroke="none" stroke-width="1" fill="none" fill-rule="evenodd">
        <g id="Learn-the-application-foundation-with-the-AL-programming-language-for-Microsoft-Dynamics-365-Business-Central" transform="translate(-160.000000, -890.000000)">
            <g id="Learn-the-application-foundation-with-the-AL-programming-language-for-Microsoft-Dynamics-365-Business-Central/Create-your-own-custom-functions-in-Dynamics-365-Business-Central" transform="translate(160.000000, 890.000000)">
                <g id="Badge-Plates/Circle">
                    <g id="BG" transform="translate(2.830189, 2.830189)">
                        <mask id="mask-2" fill="white">
                            <use xlink:href="#path-1"></use>
                        </mask>
                        <g></g>
                        <g id="Colors/Dynamics-365/BG-Solid-Badges" mask="url(#mask-2)">
                            <g id="Rectangle">
                                <use fill="#01B6C3" xlink:href="#path-4"></use>
                                <use fill-opacity="0.4" fill="url(#linearGradient-3)" xlink:href="#path-4"></use>
                            </g>
                        </g>
                    </g>
                    <g id="Border">
                        <g id="White-Border">
                            <use fill="black" fill-opacity="1" filter="url(#filter-6)" xlink:href="#path-5"></use>
                            <rect stroke="#F2F1F0" stroke-width="4" stroke-linejoin="square" x="2" y="2" width="96" height="96" rx="48"></rect>
                        </g>
                        <mask id="mask-8" fill="white">
                            <use xlink:href="#path-7"></use>
                        </mask>
                        <use id="Boarder" fill="#0078D4" fill-rule="nonzero" xlink:href="#path-7"></use>
                        <g id="Colors/Dynamics-365/Border" mask="url(#mask-8)" fill="#008372">
                            <g transform="translate(2.830189, 2.830189)" id="Rectangle">
                                <rect x="0" y="0" width="94.3396226" height="94.3396226"></rect>
                            </g>
                        </g>
                    </g>
                </g>
                <g id="Group-5" transform="translate(17.000000, 23.000000)">
                    <g id="Computer" fill-rule="nonzero">
                        <g id="Icon-compute-21-Virtual-Machine" filter="url(#filter-9)">
                            <rect id="Rectangle" fill="url(#linearGradient-10)" x="0" y="0" width="66" height="45.5172414" rx="0.6"></rect>
                            <path d="M46.6930465,59.7917629 C39.9413505,58.6906978 39.6758343,53.6572578 39.6758343,45.5172414 L26.2862348,45.5172414 C26.2862348,53.6572578 26.0586495,58.6906978 19.3069535,59.7917629 C17.3765186,60.013215 15.9193232,61.710637 15.9310345,63.7241379 L50.0689655,63.7241379 C50.0806768,61.710637 48.6234814,60.013215 46.6930465,59.7917629 Z" id="Path" fill="url(#linearGradient-11)"></path>
                        </g>
                    </g>
                    <g id="Dynamics-BC-01-2" transform="translate(50.068966, 4.551724)" fill="#FFFFFF" fill-rule="nonzero">
                        <path d="M5.62440419,0.823798548 C5.81770842,0.811410944 6.03204278,0.987574191 6.03434745,1.24872216 C6.03636403,1.47429178 5.8492536,1.66932452 5.63967263,1.67523024 C5.42519424,1.68113595 5.21474902,1.50554887 5.21705369,1.2454092 C5.21979048,0.969857037 5.44752073,0.811699028 5.62440419,0.823798548 L5.62440419,0.823798548 Z M1.14239633,5.27109198 C1.36854212,5.27109198 1.54758621,5.46093953 1.54758621,5.70033718 C1.54758621,5.93195656 1.36393278,6.12281208 1.14109996,6.12324452 C0.917835007,6.12353229 0.7311567,5.92893168 0.73086828,5.69543975 C0.730580533,5.46122762 0.915242252,5.27080422 1.14239633,5.27109198 Z M5.228433,10.0881416 C5.23347447,10.0565965 5.23621126,10.0244751 5.24427761,9.99379418 C5.30419904,9.76203076 5.53005674,9.62691946 5.74842427,9.6910181 C5.91176779,9.73898406 6.03391532,9.89699802 6.0441423,10.0903023 C6.05451331,10.2859112 5.94259275,10.4684123 5.75144915,10.5280456 C5.48021825,10.6125982 5.20841117,10.3808348 5.228433,10.0881416 Z M7.45460061,7.42394259 L6.96946748,6.95306961 C6.79301615,7.11396441 6.59596683,7.24057725 6.37385421,7.32613814 C6.16283282,7.40737777 5.94518551,7.45145459 5.71788739,7.45721627 C5.38486251,7.46542666 5.07027499,7.39815909 4.77714972,7.24187362 C4.25456569,6.96315254 3.92168485,6.53534809 3.81883893,5.95010584 C3.72549978,5.42003163 3.86522043,4.94181252 4.21005674,4.52841225 C4.51398516,4.16427432 4.90793976,3.95267677 5.37391532,3.8782071 C5.90730249,3.7929343 6.37428634,3.94806743 6.78653426,4.2865659 C6.84847228,4.33741269 6.90709734,4.3924367 6.97234832,4.4501975 L7.39395897,3.9734188 C7.0118158,3.58306524 6.55102575,3.34424377 6.00957224,3.25220099 C6.00827586,3.23534809 6.00611523,3.21979156 6.00611523,3.20437908 C6.00597119,2.90707659 6.0066914,2.6097741 6.00539502,2.31247162 C6.00539502,2.27718135 6.01504583,2.26191291 6.04903972,2.24592426 C6.42873418,2.06702421 6.65070275,1.77188235 6.69535574,1.35070383 C6.75412484,0.796430586 6.37817547,0.295308805 5.83902663,0.182956121 C5.25378437,0.0610966706 4.67372763,0.422641847 4.54841117,1.02905826 C4.43965954,1.55524333 4.71506766,2.05506874 5.21590135,2.26090461 C5.24960716,2.27473264 5.26228285,2.29100937 5.2621388,2.32687581 C5.2610176,2.61879965 5.2610176,2.91072673 5.2621388,3.20265058 C5.2621388,3.2377968 5.25263204,3.25104866 5.21575731,3.2573865 C4.95115234,3.30261566 4.69893496,3.38572784 4.46270624,3.51421321 C4.00061982,3.76571038 3.65059799,4.12538301 3.41566565,4.59726428 C3.28775644,4.854091 3.22524225,5.09809798 3.18663902,5.32467589 L2.15385858,5.32467589 C2.04366652,5.04148951 1.85338717,4.82816345 1.57279354,4.70255891 C1.33858141,4.59784045 1.09543867,4.57954713 0.847110432,4.64523024 C0.375373199,4.76968244 0.00100829332,5.21520405 0.0443649062,5.78503382 C0.0797772078,6.2761205 0.444585413,6.68022945 0.929502401,6.76552705 C1.50278918,6.86621234 1.9693409,6.53549213 2.14291139,6.09256328 C2.15558708,6.09169903 2.16955914,6.08982648 2.18353121,6.08982648 C2.50416849,6.08982648 2.82466172,6.09040265 3.145299,6.08910627 C3.18419031,6.08896223 3.19657791,6.09774879 3.2047883,6.14024115 C3.29639895,6.61327476 3.50439546,7.02710715 3.83756438,7.37784918 C4.11844609,7.67327912 4.45060672,7.88775752 4.83635094,8.01653098 C4.95878656,8.05743888 5.08698385,8.08134984 5.21316456,8.11015822 C5.24600611,8.11750435 5.2621388,8.12686708 5.26199476,8.16460606 C5.26055434,8.4493769 5.26084243,8.73414774 5.26199476,9.01877454 C5.26228285,9.0533446 5.24831078,9.06760475 5.21791794,9.08100064 C4.83879965,9.24837733 4.61337407,9.54035027 4.54956351,9.9464044 C4.49886076,10.2697785 4.58269315,10.5657846 4.79011349,10.8218911 C4.97232649,11.0471726 5.21071584,11.1775305 5.49663902,11.2146934 C5.91940201,11.2694293 6.34504583,11.0523581 6.55880402,10.6831787 C6.6632344,10.5028383 6.7209952,10.3086698 6.71336098,10.1026899 C6.69636403,9.63714643 6.48145351,9.29317437 6.05523352,9.09122762 C6.0200873,9.07451876 6.00481886,9.05752181 6.00510694,9.01661391 C6.00712353,8.73544412 6.00683544,8.45427432 6.00525098,8.17310453 C6.00510694,8.13205259 6.0138935,8.11649606 6.05897861,8.1087178 C6.49196857,8.03410409 6.88923614,7.87392949 7.23896988,7.60428305 C7.31084679,7.54882692 7.37854649,7.48789719 7.45460061,7.42394259 L7.45460061,7.42394259 Z" id="path14" transform="translate(3.747772, 5.691251) scale(-1, 1) rotate(-180.000000) translate(-3.747772, -5.691251) "></path>
                        <path d="M10.0987778,5.2608862 C10.1205282,5.26304683 10.1497687,5.26218258 10.1768485,5.26952871 C10.4459188,5.34154967 10.5666259,5.64591021 10.4303623,5.90590584 C10.3218987,6.11260597 10.0757311,6.17425591 9.88357922,6.04274565 C9.71101702,5.92463129 9.65311218,5.66982116 9.75883893,5.47478843 C9.82970755,5.34399838 9.93716281,5.26448725 10.0987778,5.2608862 L10.0987778,5.2608862 Z M5.24989524,5.68653002 C5.25508075,5.6496553 5.25767351,5.6122044 5.26573985,5.57604988 C5.33084679,5.29041479 5.65278045,5.16639471 5.87359668,5.34140562 C6.04947185,5.48112627 6.08605849,5.76532094 5.94993889,5.94854225 C5.85731995,6.07313849 5.73344391,6.13680501 5.57831078,6.10598005 C5.38154954,6.06694469 5.25378437,5.89539078 5.24989524,5.68653002 Z M11.1249323,5.5891577 C11.1239241,5.36790933 11.010419,5.09250122 10.776495,4.87226115 C10.6154561,4.72058502 10.42244,4.63271946 10.2000393,4.60578362 C9.72830205,4.54874303 9.29689655,4.83682684 9.1279354,5.26175045 C9.11309908,5.29891326 9.09466172,5.30784386 9.05778699,5.30769982 C8.2572021,5.30669153 7.4566172,5.30683557 6.65588826,5.30769982 C6.62059799,5.30769982 6.60504147,5.29833709 6.59034919,5.26347895 C6.45350938,4.94082509 6.22203405,4.7218814 5.8795024,4.62955054 C5.50556962,4.52872121 5.07790921,4.67549991 4.83865561,4.97957236 C4.68092973,5.17979061 4.59536883,5.40737682 4.59047141,5.65945015 C4.58038848,6.18088183 4.92061545,6.66255796 5.45587516,6.75762562 C5.93423832,6.84261034 6.36621999,6.58463129 6.56398952,6.1725274 C6.57162375,6.1566828 6.57925797,6.1405501 6.58631602,6.12412933 C6.62160629,6.04087311 6.62160629,6.04087311 6.70918376,6.04087311 C7.47750327,6.04087311 8.24596683,6.0418814 9.01428634,6.03900056 C9.08140986,6.03871248 9.10906591,6.06075089 9.13384112,6.11995211 C9.27111305,6.44635106 9.50820602,6.66687922 9.85592318,6.74509397 C10.2700436,6.838001 10.6164644,6.70764307 10.8852466,6.38210837 C11.0497425,6.18275438 11.1247883,5.94767799 11.1249323,5.5891577 L11.1249323,5.5891577 Z" id="path16" transform="translate(7.857593, 5.686148) scale(-1, 1) rotate(-180.000000) translate(-7.857593, -5.686148) "></path>
                    </g>
                    <g id="Gear" filter="url(#filter-12)" transform="translate(2.275862, 2.275862)">
                        <g id="a30ee4c9-49d5-4d00-a305-a6a3597e53b7" fill-rule="nonzero">
                            <g id="Shape">
                                <use fill="black" fill-opacity="1" filter="url(#filter-15)" xlink:href="#path-14"></use>
                                <use fill="url(#linearGradient-13)" xlink:href="#path-14"></use>
                            </g>
                        </g>
                        <circle id="Oval" fill="#FFFFFF" cx="20.4827586" cy="20.4827586" r="11.3793103"></circle>
                    </g>
                    <g id="Group-4" transform="translate(23.327586, 22.758621) rotate(90.000000) translate(-23.327586, -22.758621) translate(14.793103, 15.931034)">
                        <rect id="Rectangle" fill="url(#linearGradient-16)" x="0" y="1.36551724" width="16.8413793" height="1.82068966" rx="0.910344828"></rect>
                        <rect id="Rectangle" fill="url(#linearGradient-16)" x="0" y="5.91724138" width="16.8413793" height="1.82068966" rx="0.910344828"></rect>
                        <rect id="Rectangle" fill="url(#linearGradient-16)" x="0" y="10.4689655" width="16.8413793" height="1.82068966" rx="0.910344828"></rect>
                        <rect id="Rectangle" fill="url(#linearGradient-17)" x="2.73103448" y="0" width="1.82068966" height="4.55172414" rx="0.910344828"></rect>
                        <rect id="Rectangle" fill="url(#linearGradient-17)" x="11.3793103" y="4.55172414" width="1.82068966" height="4.55172414" rx="0.910344828"></rect>
                        <rect id="Rectangle" fill="url(#linearGradient-17)" x="5.46206897" y="9.10344828" width="1.82068966" height="4.55172414" rx="0.910344828"></rect>
                    </g>
                </g>
            </g>
        </g>
    </g>
</svg>