<?xml version="1.0" encoding="UTF-8"?>
<svg width="100px" height="100px" viewBox="0 0 100 100" version="1.1" xmlns="http://www.w3.org/2000/svg" xmlns:xlink="http://www.w3.org/1999/xlink">
    <!-- Generator: Sketch 55.2 (78181) - https://sketchapp.com -->
    <title>Use multiple currencies in Microsoft Dynamics 365 Business Central/set-up-currencies-and-exchange-rates-in-dynamics-365-business-central</title>
    <desc>Created with Sketch.</desc>
    <defs>
        <rect id="path-1" x="0" y="0" width="96" height="96" rx="48"></rect>
        <path d="M0.379894012,8.91065032 C2.48339532,8.91065032 4.18720855,7.01140885 4.18720855,4.6674835 L4.18720855,4.6674835 C4.18720855,2.32355815 2.48339532,0.424316682 0.379894012,0.424316682 L0.379894012,0.424316682 L0.379894012,8.91065032 Z" id="path-3"></path>
        <filter x="-23.5%" y="-23.5%" width="147.1%" height="147.1%" filterUnits="objectBoundingBox" id="filter-5">
            <feOffset dx="0" dy="2" in="SourceAlpha" result="shadowOffsetOuter1"></feOffset>
            <feColorMatrix values="0 0 0 0 0   0 0 0 0 0   0 0 0 0 0  0 0 0 0.0964956975 0" type="matrix" in="shadowOffsetOuter1" result="shadowMatrixOuter1"></feColorMatrix>
            <feMerge>
                <feMergeNode in="shadowMatrixOuter1"></feMergeNode>
                <feMergeNode in="SourceGraphic"></feMergeNode>
            </feMerge>
        </filter>
        <filter x="-5.4%" y="-11.1%" width="110.8%" height="122.2%" filterUnits="objectBoundingBox" id="filter-6">
            <feOffset dx="0" dy="2" in="SourceAlpha" result="shadowOffsetOuter1"></feOffset>
            <feColorMatrix values="0 0 0 0 0   0 0 0 0 0   0 0 0 0 0  0 0 0 0.099071558 0" type="matrix" in="shadowOffsetOuter1" result="shadowMatrixOuter1"></feColorMatrix>
            <feMerge>
                <feMergeNode in="shadowMatrixOuter1"></feMergeNode>
                <feMergeNode in="SourceGraphic"></feMergeNode>
            </feMerge>
        </filter>
    </defs>
    <g id="Badges" stroke="none" stroke-width="1" fill="none" fill-rule="evenodd">
        <g id="Use-multiple-currencies-in-Microsoft-Dynamics-365-Business-Central" transform="translate(-50.000000, -1060.000000)">
            <g id="Use-multiple-currencies-in-Microsoft-Dynamics-365-Business-Central/set-up-currencies-and-exchange-rates-in-dynamics-365-business-central" transform="translate(50.000000, 1060.000000)">
                <g id="Mask" transform="translate(2.000000, 2.000000)">
                    <mask id="mask-2" fill="white">
                        <use xlink:href="#path-1"></use>
                    </mask>
                    <use id="BG" fill="#01B6C3" xlink:href="#path-1"></use>
                    <g id="Gear" mask="url(#mask-2)">
                        <g transform="translate(26.000000, 3.000000)">
                            <ellipse id="Oval" fill="#01B6C3" fill-rule="nonzero" cx="24" cy="24.5" rx="5" ry="4.5"></ellipse>
                            <g id="Gear-1" stroke-width="1" fill="none" fill-rule="evenodd" transform="translate(25.058875, 24.547957) rotate(-45.000000) translate(-25.058875, -24.547957) translate(7.654186, 7.324140)">
                                <path d="M21.1296088,17.1125583 C21.1296088,14.8641703 19.2207751,13.01901 16.8606543,13.01901 C14.5002034,13.01901 12.5916998,14.8639785 12.5916998,17.1125583 C12.5916998,19.3611382 14.5002034,21.2061067 16.8606543,21.2061067 C19.2207751,21.2061067 21.1296088,19.3609464 21.1296088,17.1125583 Z M5.82888977,13.6495258 C5.82891305,13.6494556 5.82893345,13.6493925 5.82895036,13.6493381 C5.82892653,13.6494101 5.82890269,13.6494822 5.82887885,13.6495542 Z M29.741954,12.8894883 L32.0769925,13.3914351 C33.5723964,13.7123586 34.7213086,15.0964678 34.7213086,16.6032035 L34.7213086,17.6219132 C34.7213086,19.1284383 33.5720792,20.5128757 32.0766908,20.8336332 L29.7422285,21.3351864 C29.7389102,21.3430428 29.7356215,21.350618 29.7323838,21.3578793 L29.0577254,22.9433728 C29.0552451,22.9492581 29.0527419,22.9551126 29.0502079,22.9609535 L30.3141645,24.8807078 C31.1507136,26.1522674 30.9480273,27.9358869 29.8502707,28.9970986 L29.1049828,29.7175754 C28.0397171,30.7466397 26.2058995,30.941891 24.941211,30.1620145 L22.9173744,28.918006 C22.897662,28.9265939 22.8790303,28.9342461 22.8594438,28.9417973 L21.2141818,29.5969699 C21.2040947,29.6007908 21.1953235,29.6041133 21.1875353,29.6070538 L20.673033,31.8437948 C20.3360109,33.3080504 18.9130055,34.411913 17.3875497,34.411913 L16.3337588,34.411913 C14.8076906,34.411913 13.3844962,33.3079039 13.0482452,31.8436625 L12.5337895,29.6071231 C12.5250757,29.6038586 12.515185,29.600139 12.503671,29.5958089 L10.8706442,28.9454495 C10.8476172,28.9365453 10.8263269,28.9277955 10.8031589,28.9176255 L8.77961022,30.1628232 C7.51138318,30.9413451 5.68058307,30.7456644 4.61606809,29.7173264 L3.87051103,28.9965893 C2.77255656,27.9351863 2.57003316,26.1512041 3.40723823,24.8805647 L4.67070606,22.9608028 C4.66858798,22.9559088 4.66650231,22.9510253 4.66444998,22.946154 L3.98730741,21.3553067 C3.98437889,21.3482337 3.98160525,21.3415038 3.97896761,21.3350651 L1.64368745,20.8336597 C0.148891164,20.512704 -1,19.1281274 -1,17.6219132 L-1,16.6032035 C-1,15.0966547 0.148653866,13.7126374 1.64432847,13.3909231 L3.97905451,12.8899067 C3.98200462,12.882704 3.98512452,12.8751387 3.98844312,12.8671311 L4.66305628,11.2822533 C4.66572332,11.2759248 4.66832739,11.2698223 4.67090535,11.2638665 L3.40729209,9.34463385 C2.57055386,8.07353232 2.77276899,6.2904676 3.87076507,5.22828192 L4.61581049,4.5085488 C5.68002631,3.47902324 7.5130424,3.28402747 8.77966526,4.0631603 L10.8790112,5.3538533 C10.812528,5.31304747 10.804844,5.30905526 10.8085277,5.30867275 C10.8053668,5.30912013 10.792267,5.31234611 10.7566163,5.32832838 C10.7869347,5.31345029 10.8253561,5.29719775 10.8613379,5.28331941 L12.5129774,4.6256556 C12.5202319,4.62287312 12.527223,4.62020972 12.5339701,4.61765954 L13.0481888,2.38119003 C13.3845881,0.917045751 14.8078481,-0.186796311 16.3337588,-0.186796311 L17.3875497,-0.186796311 C18.9130466,-0.186796311 20.3365454,0.917099142 20.6736271,2.38161436 L21.1876509,4.61796819 C21.1969567,4.62151017 21.2067294,4.625275 21.2171107,4.62930781 L22.8501374,5.27966721 C22.8735692,5.28872791 22.8961882,5.29785406 22.9176042,5.30691209 L24.9414461,4.06277223 C26.208446,3.28340752 28.0409053,3.47814978 29.1052405,4.50779033 L29.851049,5.2287706 C30.9481662,6.29010693 31.1506389,8.07319893 30.3140344,9.34409723 L29.0500822,11.2643189 C29.0522003,11.26922 29.054284,11.2741023 29.0563317,11.2789627 L29.7264129,12.8534921 C29.7317509,12.8655326 29.7369487,12.8775772 29.741954,12.8894883 Z M10.8085277,5.30867275 C10.8088645,5.30863778 10.8092964,5.30863298 10.809787,5.30863298 C10.8096016,5.30863298 10.8093458,5.30864898 10.8090093,5.30868882 Z" id="Fill-376" stroke="#01B6C3" stroke-width="2" fill="#546670"></path>
                                <path d="M10.4207345,28.126747 C10.4926942,28.0822472 10.6604237,28.0346785 10.8593711,28.0346785 C11.0228677,28.0346785 11.1440351,28.0658795 11.1974757,28.0935 C11.2255188,28.1067988 11.2535619,28.1200976 11.2826633,28.1313504 L12.9319155,28.7881053 C12.9583713,28.7983351 12.984827,28.807542 13.0118119,28.8157258 C13.2081137,28.8765933 13.4938359,29.1799077 13.5388107,29.3747859 L14.0859159,31.7532208 C14.3176683,32.7623933 15.3367443,33.553159 16.4066153,33.553159 L17.4648458,33.553159 C18.5341878,33.553159 19.5532637,32.7623933 19.7855453,31.7532208 L20.3326505,29.3747859 C20.3770962,29.1799077 20.6633475,28.8765933 20.8596493,28.8157258 C20.8866342,28.807542 20.9130899,28.7983351 20.9390166,28.7881053 L22.5882688,28.1313504 C22.6173702,28.1200976 22.6459424,28.1067988 22.6734564,28.0935 C22.7274261,28.0658795 22.8485935,28.0346785 23.0110319,28.0346785 C23.2099792,28.0346785 23.3782379,28.0822472 23.4491393,28.126747 L25.5761826,29.4341189 C26.4587469,29.9783457 27.7958211,29.8341052 28.5339369,29.1210862 L29.2821059,28.3978374 C30.0382115,27.6669162 30.1810727,26.4106934 29.6069826,25.5380891 L28.2535058,23.4824053 C28.1429207,23.3146361 28.1244017,22.9085119 28.2196424,22.7325589 C28.2339285,22.7054499 28.2471564,22.6783408 28.258797,22.6507203 L28.9376518,21.0553787 C28.9487632,21.0303156 28.9588164,21.004741 28.9667532,20.978655 C29.0297179,20.7883802 29.3434832,20.5121749 29.5456052,20.4686981 L32.0049329,19.9403275 C33.0494064,19.7162943 33.8674186,18.7306504 33.8674186,17.6969263 L33.8674186,16.6739436 C33.8674186,15.639708 33.0494064,14.6545756 32.005462,14.4305424 L29.5450761,13.9016603 C29.3434832,13.858695 29.0297179,13.5824897 28.9667532,13.3922149 C28.9588164,13.3661289 28.9487632,13.3405543 28.9376518,13.3154912 L28.258797,11.7206611 C28.2471564,11.6930406 28.2339285,11.66542 28.2196424,11.6388225 C28.1244017,11.462358 28.1429207,11.0557223 28.2535058,10.8884646 L29.6069826,8.8322693 C30.1810727,7.96017651 29.9804513,6.76030253 29.2248748,6.02938136 L28.5257594,5.35354657 L20.4433913,13.1668486 C21.401619,14.0931595 22.2268831,15.7752532 22.2268831,17.185435 C22.2268831,20.0057984 19.852743,22.3003487 16.9357306,22.3003487 C15.4769599,22.3003487 13.8913942,21.3528537 12.9331665,20.4270543 L4.63863158,28.44546 L5.33752431,29.1210862 C6.07458185,29.8330822 7.40953963,29.9783457 8.29527856,29.4346304 L10.4207345,28.126747 Z" id="Fill-377" fill="#30404D"></path>
                            </g>
                            <g id="Gear-2" stroke-width="1" fill="none" fill-rule="evenodd" transform="translate(20.000000, 20.000000)">
                                <path d="M5.23023023,8.92215402 C8.11940941,8.92215402 10.4604605,6.92537595 10.4604605,4.46107701 C10.4604605,1.99677807 8.11940941,0 5.23023023,0 C2.3420971,0 0,1.99677807 0,4.46107701 C0,6.92537595 2.3420971,8.92215402 5.23023023,8.92215402 Z" id="Stroke-4" stroke="#30404D"></path>
                                <g id="Group-8" transform="translate(5.705706, 0.000000)">
                                    <mask id="mask-4" fill="white">
                                        <use xlink:href="#path-3"></use>
                                    </mask>
                                    <g id="Clip-7"></g>
                                    <polygon id="Stroke-6" stroke="#C4C4C4" mask="url(#mask-4)" points="-7.23245112 13.1538171 7.99376177 13.1538171 7.99376177 -3.81885014 -7.23245112 -3.81885014"></polygon>
                                </g>
                                <path d="M4.75475475,8.92215402 C7.38128128,8.92215402 9.50950951,6.92537595 9.50950951,4.46107701 C9.50950951,1.99677807 7.38128128,0 4.75475475,0" id="Stroke-9" stroke="#546670"></path>
                            </g>
                        </g>
                    </g>
                    <g id="Coin-Money" filter="url(#filter-5)" mask="url(#mask-2)">
                        <g transform="translate(42.000000, 19.000000)">
                            <path d="M8.5,0 C3.80560937,0 0,3.80560937 0,8.5 C0,13.1943906 3.80560937,17 8.5,17 C13.1943906,17 17,13.1943906 17,8.5 C17,3.80560937 13.1943906,0 8.5,0" id="Fill-21" fill="#F7CB64"></path>
                            <path d="M6.80182455,16.6389795 L13.1360997,1.56847625 C12.3937375,1.13197597 11.5777123,0.790773491 10.708088,0.562266503 L4.34010504,15.8958468 C5.27584449,16.2951453 6.09641767,16.5428562 6.80182455,16.6389795 Z" id="Fill-22" fill="#F2BE53"></path>
                            <path d="M8.2286045,17 C13.0728818,17 17,13.1576077 17,8.41784373 C17,5.86411586 15.8586222,3.57214375 14.0492477,2 L8,16.994368 C8.0762015,16.9962453 8.15185478,17 8.2286045,17" id="Fill-23" fill="#F2BE53"></path>
                            <path d="M8.5,2.07142857 C4.95517857,2.07142857 2.07142857,4.95517857 2.07142857,8.5 C2.07142857,12.0448214 4.95517857,14.9285714 8.5,14.9285714 C12.0448214,14.9285714 14.9285714,12.0448214 14.9285714,8.5 C14.9285714,4.95517857 12.0448214,2.07142857 8.5,2.07142857 Z M8.5,16 C4.36428571,16 1,12.6354464 1,8.5 C1,4.36428571 4.36428571,1 8.5,1 C12.6357143,1 16,4.36428571 16,8.5 C16,12.6354464 12.6357143,16 8.5,16 L8.5,16 Z" id="Fill-24" fill="#EFB252"></path>
                        </g>
                    </g>
                    <g id="Holding" mask="url(#mask-2)">
                        <g transform="translate(10.000000, 47.000000)" id="Group-7">
                            <g filter="url(#filter-6)" transform="translate(0.993269, 0.509901)">
                                <path d="M72.4416746,1.0821157 C69.4178786,0.218999315 66.1629939,0.955016901 63.8047335,3.03481542 L53.035999,12.6631271 C51.6263578,13.9063844 49.8111558,14.5927179 47.9312491,14.5927179 L37.551899,14.5927179 C36.5951917,14.5927179 35.8187336,13.8162598 35.8187336,12.8595525 C35.8187336,11.9028452 36.5951917,11.1263871 37.551899,11.1263871 C37.551899,11.1263871 44.7895979,11.1263871 45.0622826,11.1263871 C47.6146575,11.1263871 49.684057,9.05698756 49.684057,6.50461261 C49.684057,3.95223765 47.6146575,1.88283813 45.0622826,1.88283813 C44.7895979,1.88283813 35.3496235,1.88283813 32.3524027,1.88283813 C30.6631442,1.88283813 26.8617346,1.88283813 25.0569317,1.88283813 C21.382621,1.88283813 18.6627067,3.25666059 15.9994092,5.38614318 C13.6295943,7.28107072 8.37463673,12.1997942 5.9262517,14.5118369 L20.2641516,28.8497368 C21.2208589,28.6174926 22.325463,28.4580414 23.5848965,28.4580414 L46.2177262,28.4580414 C50.6292099,28.4580414 54.8269366,26.5550257 57.7340327,23.2377471 L73.3995373,4.48258627 C74.4452138,3.34562975 73.9264196,1.50616351 72.4416746,1.0821157" id="Fill-168" fill="#EAC5A7"></path>
                                <path d="M21.6148652,31.9151287 L18.4778357,35.0521581 C18.0041039,35.52589 17.2103141,35.4993148 16.7042298,34.9932305 L0.397453975,18.6864547 C-0.10863033,18.1803704 -0.135205533,17.3865806 0.338526351,16.9128487 L3.47555578,13.7758193 C3.94928766,13.3020874 4.74307743,13.3286626 5.24916174,13.8347469 L21.5559375,30.1415227 C22.0620219,30.647607 22.0885971,31.4413968 21.6148652,31.9151287" id="Fill-169" fill="#E1E4E1"></path>
                                <path d="M36.3097971,14.0646802 C36.0070709,13.7527104 35.8187336,13.3286626 35.8187336,12.8595525 C35.8187336,11.9028452 36.5951917,11.1263871 37.551899,11.1263871 C37.551899,11.1263871 39.6282312,11.1344752 41.5947962,11.1425633 C41.5947962,11.1367861 45.0622826,11.1263871 45.0622826,11.1263871 C45.2217338,11.1159881 45.6434707,11.0547496 45.8179427,10.954226 C47.3627708,10.0714671 46.5990226,7.66005623 44.8207948,7.66005623 L38.3179581,7.66005623 C36.4680929,7.66005623 34.8054095,9.02579059 34.6725335,10.871034 C34.5743208,12.2217476 35.2583434,13.4118546 36.3097971,14.0646802" id="Fill-174" fill="#D9B090"></path>
                                <path d="M18.4778357,35.0521581 L21.6148652,31.9151287 C22.0885971,31.4413968 22.0620219,30.647607 21.5559375,30.1415227 L13.881481,22.4670662 C12.9790796,21.5646648 11.5151325,21.5646648 10.612731,22.4670662 C9.85707089,23.2227263 8.62998977,23.2227263 7.87432964,22.4670662 L3.51252998,18.1052666 C2.50613858,17.0988752 0.673605001,18.1618833 1.2351506,19.4710009 C1.2617258,19.5322394 1.29292278,19.5819235 1.32874153,19.6177423 L16.7042298,34.9932305 C17.2103141,35.4993148 18.0041039,35.52589 18.4778357,35.0521581" id="Fill-175" fill="#CDD3D1"></path>
                                <path d="M18.4870793,30.7689286 C18.4870793,31.4067335 17.9694405,31.9243722 17.3316357,31.9243722 C16.6938308,31.9243722 16.1761921,31.4067335 16.1761921,30.7689286 C16.1761921,30.1311237 16.6938308,29.613485 17.3316357,29.613485 C17.9694405,29.613485 18.4870793,30.1311237 18.4870793,30.7689286" id="Fill-176" fill="#8BA6B1"></path>
                                <path d="M41.5959517,7.66005623 L41.5959517,5.34916899 C41.5959517,4.71136411 42.1135904,4.19372537 42.7513953,4.19372537 L45.0622826,4.19372537 C46.3390478,4.19372537 47.3731698,5.22784741 47.3731698,6.50461261 C47.3731698,7.78022236 46.3390478,8.81549985 45.0622826,8.81549985 L42.7513953,8.81549985 C42.1135904,8.81549985 41.5959517,8.29786111 41.5959517,7.66005623" id="Fill-180" fill="#F9D8BE"></path>
                                <path d="M42.7513953,8.81549985 L45.0622826,8.81549985 C45.5209937,8.81549985 45.9461969,8.67800206 46.3055399,8.44691333 C45.9901038,7.98935766 45.4759314,7.66005623 44.8207948,7.66005623 L41.5959517,7.66005623 C41.5959517,8.29786111 42.1135904,8.81549985 42.7513953,8.81549985" id="Fill-181" fill="#EAC5A7"></path>
                                <path d="M42.7513953,6.50461261 C42.7513953,5.58487949 42.4810215,4.79802238 42.0927924,4.42596954 C41.7993098,4.63510483 41.5959517,4.96093993 41.5959517,5.34916899 L41.5959517,7.66005623 C41.5959517,8.04712984 41.7993098,8.37412039 42.0927924,8.58325568 C42.4810215,8.21120283 42.7513953,7.42434573 42.7513953,6.50461261" id="Fill-182" fill="#FFFFFE"></path>
                                <path d="M42.0927924,8.58325568 C42.3007723,8.38336393 42.471778,8.05637339 42.5884778,7.66005623 L41.5959517,7.66005623 C41.5959517,8.04712984 41.7993098,8.37412039 42.0927924,8.58325568" id="Fill-183" fill="#F9D8BE"></path>
                                <path d="M71.0170126,2.84416722 L56.5785891,19.7714163 C56.335946,20.0475673 56.0852147,20.3133193 55.8252399,20.5709832 C52.2745616,24.0800655 47.0912415,25.3857168 42.1898497,24.4347867 L21.6310414,20.4450399 C18.5772039,19.8522973 15.4471071,20.1134276 12.5561872,21.1417724 L20.2641516,28.8497368 C21.2208589,28.6174926 22.325463,28.4580414 23.5848965,28.4580414 L46.2177262,28.4580414 C50.6292099,28.4580414 54.8269366,26.5550257 57.7340327,23.2377471 L73.3995373,4.48258627 C73.5948073,4.26998465 73.6837765,4.01694249 73.6987972,3.74656869 C73.7773674,2.34963735 71.8974606,1.75573933 71.0170126,2.84416722" id="Fill-184" fill="#D9B090"></path>
                            </g>
                        </g>
                    </g>
                </g>
                <g id="Dynamic-Border" stroke="#1D8E96" stroke-width="4">
                    <rect id="Azure-Border" x="2" y="2" width="96" height="96" rx="48"></rect>
                </g>
            </g>
        </g>
    </g>
</svg>