<?xml version="1.0" encoding="UTF-8"?>
<svg width="100px" height="100px" viewBox="0 0 100 100" version="1.1" xmlns="http://www.w3.org/2000/svg" xmlns:xlink="http://www.w3.org/1999/xlink">
    <!-- Generator: Sketch 55.2 (78181) - https://sketchapp.com -->
    <title>Get started with Microsoft Dynamics 365 Business Central/customize-microsoft-dynamics-365-business-central</title>
    <desc>Created with Sketch.</desc>
    <defs>
        <rect id="path-1" x="0" y="0" width="96" height="96" rx="48"></rect>
        <filter x="-7.1%" y="-6.8%" width="114.3%" height="113.6%" filterUnits="objectBoundingBox" id="filter-3">
            <feOffset dx="0" dy="2" in="SourceAlpha" result="shadowOffsetOuter1"></feOffset>
            <feColorMatrix values="0 0 0 0 0   0 0 0 0 0   0 0 0 0 0  0 0 0 0.097486413 0" type="matrix" in="shadowOffsetOuter1" result="shadowMatrixOuter1"></feColorMatrix>
            <feMerge>
                <feMergeNode in="shadowMatrixOuter1"></feMergeNode>
                <feMergeNode in="SourceGraphic"></feMergeNode>
            </feMerge>
        </filter>
    </defs>
    <g id="Badges" stroke="none" stroke-width="1" fill="none" fill-rule="evenodd">
        <g id="Get-started-with-Microsoft-Dynamics-365-Business-Central" transform="translate(-50.000000, -260.000000)">
            <g id="Get-started-with-Microsoft-Dynamics-365-Business-Central/customize-microsoft-dynamics-365-business-central" transform="translate(50.000000, 260.000000)">
                <g id="Mask" transform="translate(2.000000, 2.000000)">
                    <mask id="mask-2" fill="white">
                        <use xlink:href="#path-1"></use>
                    </mask>
                    <use id="BG" fill="#01B6C3" xlink:href="#path-1"></use>
                    <g id="Wrench" filter="url(#filter-3)" mask="url(#mask-2)" fill-rule="nonzero">
                        <g transform="translate(20.000000, 18.500000)">
                            <path d="M19.75456,40.810581 L38.04024,21.0601905 C44.52112,21.6799714 46.68944,20.3049905 48.60128,18.2405524 C51.7272,14.8646286 51.0664,10.5941524 50.57192,8.21167619 L44.21144,14.8522667 C43.78584,15.2961714 43.08416,15.3164 42.63392,14.897781 L40.03328,12.4737238 L37.43264,10.0502286 C36.9824,9.63104762 36.95104,8.92698095 37.36152,8.46902857 L43.49352,1.61435238 C41.08888,1.29519048 36.79928,0.949057143 33.67112,4.32498095 C31.73408,6.41751429 30.63648,8.6263619 31.58512,14.7078571 L12.96568,34.8195524 C8.84352,34.4807238 5.52496,34.7268381 2.8,37.671781 C-0.32592,41.046581 0.3332,45.3153714 0.8288,47.7000952 L7.18872,41.058381 C7.61432,40.6133524 8.316,40.5942476 8.76624,41.0134286 L11.36688,43.4386095 L13.96752,45.860981 C14.41776,46.2807238 14.44968,46.9847905 14.03976,47.4433048 L7.9072,54.2951714 C10.27096,54.6098381 14.4592,54.9497905 17.57,51.7531143 C19.62968,49.6381048 20.84768,47.2505714 19.75456,40.810581 Z" id="Shape" fill="#D9D9D9"></path>
                            <polygon id="Rectangle-path" fill="#7E8C8D" opacity="0.2" transform="translate(23.718421, 27.681437) rotate(42.913092) translate(-23.718421, -27.681437) " points="22.6278022 13.4523574 24.8090399 13.4523574 24.8090399 41.910516 22.6278022 41.910516"></polygon>
                            <polygon id="Shape" fill="#000000" opacity="0.17" points="26.1044 20.0982095 34.1712 25.2986381 30.9512 29.2168"></polygon>
                            <polygon id="Rectangle-path" fill="#8392A2" transform="translate(25.696061, 22.312393) rotate(-37.662916) translate(-25.696061, -22.312393) " points="24.0289817 5.41042584 27.3631409 5.41042584 27.3631409 39.2143595 24.0289817 39.2143595"></polygon>
                            <path d="M35.29848,35.1145524 L30.68128,38.6927619 C30.21424,39.0540667 30.12856,39.7283524 30.48864,40.1958571 L33.48072,44.0819905 L36.69792,44.7096381 L36.41064,47.8888952 L43.63688,57.2760762 C45.01896,59.0719238 47.58992,59.4040095 49.37912,58.0166667 L51.6012,56.2944286 L35.29848,35.1145524 Z" id="Shape" fill="#FDBD0F"></path>
                            <path d="M35.29848,35.1145524 L40.15032,31.3537238 C40.6392,30.9744381 41.33024,31.0458 41.69088,31.5133048 L44.68296,35.4005619 L44.38784,38.7506381 L47.61288,39.2080286 L54.84024,48.5952095 C56.22232,50.3904952 55.81744,53.0275143 53.93752,54.4850952 L51.60288,56.2944286 L35.29848,35.1145524 Z" id="Shape" fill="#FCD116"></path>
                            <path d="M13.12808,0.793409524 C12.65432,0.17812381 11.77344,0.0646190476 11.15968,0.539428571 L8.38208,2.69208571 C7.76888,3.16745714 7.65576,4.05133333 8.12896,4.66774286 L11.80312,9.44168571 L14.08232,9.95414286 L16.72104,7.90993333 L16.77536,5.53251429 L13.12808,0.793409524 Z" id="Shape" fill="#8596A7"></path>
                            <polygon id="Shape" fill="#5B6A7D" points="11.72304 9.33604762 11.80592 9.44280952 14.08344 9.95358095 16.72216 7.90937143 16.7776 5.53195238 16.72328 5.46171429"></polygon>
                            <path d="M47.8044,52.9904286 C48.04632,53.3050952 47.98864,53.7557429 47.67504,53.9984857 L47.23488,54.3401238 C47.08424,54.4564381 46.89384,54.5081333 46.70568,54.4839714 C46.51752,54.4598095 46.34672,54.3609143 46.23024,54.2108857 L39.70344,45.731181 C39.46152,45.4165143 39.5192,44.9658667 39.8328,44.7231238 L40.27296,44.3814857 C40.4236,44.2651714 40.614,44.2134762 40.80216,44.2376381 C40.99032,44.2618 41.16224,44.3606952 41.2776,44.5107238 L47.8044,52.9904286 Z" id="Shape" fill="#6D572C"></path>
                            <path d="M51.45896,50.1578667 C51.70088,50.4719714 51.6432,50.922619 51.33072,51.1653619 L50.89,51.507 C50.73936,51.6238762 50.54896,51.6750095 50.3608,51.6508476 C50.17264,51.6266857 50.00184,51.5289143 49.88536,51.3777619 L43.36192,42.9008667 C43.24544,42.7502762 43.19448,42.5592286 43.21856,42.3698667 C43.24264,42.1810667 43.3412,42.0096857 43.49072,41.8928095 L43.93032,41.5528571 C44.24392,41.3106762 44.69304,41.3685524 44.9344,41.6826571 L51.45896,50.1578667 Z" id="Shape" fill="#6D572C"></path>
                        </g>
                    </g>
                </g>
                <g id="Dynamic-Border" stroke="#1D8E96" stroke-width="4">
                    <rect id="Azure-Border" x="2" y="2" width="96" height="96" rx="48"></rect>
                </g>
            </g>
        </g>
    </g>
</svg>