<?xml version="1.0" encoding="UTF-8"?>
<svg width="202px" height="168px" viewBox="0 0 202 168" version="1.1" xmlns="http://www.w3.org/2000/svg" xmlns:xlink="http://www.w3.org/1999/xlink">
    <title>Learn the Data Management Foundation in Microsoft Dynamics 365 Business Central/Learn-the-data-management-foundation-in-microsoft-dynamics-365-business-central</title>
    <defs>
        <path d="M45.9102524,160 L153.401474,160 C163.025776,160 171.28527,153.145229 173.058918,143.685771 L194.818366,27.6353808 C196.853961,16.7788744 189.703199,6.32776127 178.846693,4.29216632 C176.651494,3.8805665 174.402856,3.83957154 172.194113,4.170883 L21.3829699,26.7925545 C10.4594805,28.4310779 2.93252847,38.6146013 4.57105187,49.5380906 C4.64810856,50.0518019 4.74514986,50.5623161 4.86195501,51.0684717 L26.4224285,144.49719 C28.516572,153.571812 36.5971328,160 45.9102524,160 Z" id="path-1"></path>
        <linearGradient x1="50%" y1="0%" x2="50%" y2="100%" id="linearGradient-3">
            <stop stop-color="#99D3FF" offset="0%"></stop>
            <stop stop-color="#0FA6FF" offset="100%"></stop>
        </linearGradient>
        <path d="M169.061361,0.991094726 C171.276638,0.658803101 173.531929,0.699919342 175.733622,1.11273685 C186.50763,3.13286328 193.642764,13.4166469 191.813962,24.181304 L191.752546,24.5250108 L169.928724,140.918729 C168.172065,150.287579 160.071981,157.108938 150.574452,157.278009 L150.213125,157.281223 L42.4038967,157.281223 C33.1861283,157.281223 25.1722476,151.002564 22.944435,142.09043 L22.8584192,141.732549 L1.23416039,48.0274271 C1.11700968,47.5197741 1.01968128,47.0077496 0.942396628,46.4925185 C-0.683675604,35.652037 6.69033349,25.5381684 17.459218,23.7344267 L17.8040517,23.6796911 L169.061361,0.991094726 Z M174.749852,5.30897766 C173.266584,5.02934135 171.750819,4.97631136 170.253638,5.15082405 L169.755337,5.21742374 L18.7906257,27.9861799 C10.5896664,29.2230626 4.93870391,36.9103646 6.16884781,45.1562495 C6.20741539,45.4147751 6.25265129,45.6722282 6.3045064,45.9283489 L6.38724733,46.3114981 L27.9696753,140.347684 C29.5165241,147.087415 35.4139467,151.893338 42.2628432,152.046615 L42.6004263,152.05039 L150.201104,152.05039 C157.315517,152.05039 163.436568,147.033875 164.894298,140.063326 L164.959199,139.735162 L186.740804,22.9302205 C188.269055,14.7348995 182.900523,6.84560035 174.749852,5.30897766 Z" id="path-4"></path>
        <linearGradient x1="50%" y1="100%" x2="50%" y2="0%" id="linearGradient-6">
            <stop stop-color="#CCCCCC" offset="15%"></stop>
            <stop stop-color="#707070" offset="100%"></stop>
        </linearGradient>
        <polygon id="path-7" points="0 0.0750308168 102.836491 0.0750308168 102.836491 68.1654225 0 68.1654225"></polygon>
        <linearGradient x1="50%" y1="100%" x2="50%" y2="0%" id="linearGradient-9">
            <stop stop-color="#D2EBFF" offset="0%"></stop>
            <stop stop-color="#F0FFFD" offset="100%"></stop>
        </linearGradient>
        <linearGradient x1="50%" y1="0%" x2="50%" y2="100%" id="linearGradient-10">
            <stop stop-color="#1E5CA5" offset="0%"></stop>
            <stop stop-color="#225496" offset="100%"></stop>
        </linearGradient>
        <path d="M35,19.0843621 L35,15.0514403 L30.8780992,13.6111111 L29.8657025,10.8744856 L31.8904959,6.6255144 L31.8904959,6.19341564 L30.588843,4.89711934 L29.0702479,3.16872428 L28.4917355,3.16872428 L24.4421488,5.32921811 L21.6942149,4.53703704 L19.8863636,0 L15.9090909,0 L14.535124,4.10493827 L11.4979339,5.32921811 L6.79752066,3.09670782 L3.97727273,5.90534979 L3.97727273,6.40946502 L6.07438017,10.4423868 L4.84504132,13.4670782 L0,15.2674897 L0,19.3004115 L0.578512397,19.3004115 L4.84504132,20.7407407 L6.00206612,23.4773663 L3.83264463,28.1584362 L6.65289256,31.0390947 L7.23140496,31.0390947 L11.2086777,29.0226337 L14.0289256,30.1748971 L15.7644628,35 L19.8140496,35 L19.8140496,34.4238683 L21.1880165,30.1028807 L23.9359504,28.9506173 L28.7086777,31.1831276 L31.5289256,28.3744856 L31.5289256,27.7983539 L29.5041322,23.7654321 L30.2995868,20.9567901 L35,19.0843621 Z M17.7900392,22.499534 C14.7769373,22.1760104 12.5,19.7550986 12.5,16.874997 C12.5,13.9948954 14.7769373,11.5739836 17.7900392,11.2504599 C19.3636112,11.2312969 20.8796911,11.8116353 21.9995311,12.8618063 C23.119371,13.9119773 23.7496388,15.3444552 23.7495094,16.8391719 C23.769986,18.3462714 23.1486927,19.7973345 22.0266057,20.8631035 C20.9045187,21.9288725 19.3767777,22.5189829 17.7900392,22.499534 Z" id="path-11"></path>
        <filter x="-1.4%" y="-1.4%" width="102.9%" height="105.7%" filterUnits="objectBoundingBox" id="filter-12">
            <feOffset dx="0" dy="1" in="SourceAlpha" result="shadowOffsetOuter1"></feOffset>
            <feColorMatrix values="0 0 0 0 0   0 0 0 0 0   0 0 0 0 0  0 0 0 0.1 0" type="matrix" in="shadowOffsetOuter1"></feColorMatrix>
        </filter>
        <filter x="-21.8%" y="-22.2%" width="143.6%" height="144.4%" filterUnits="objectBoundingBox" id="filter-13">
            <feOffset dx="0" dy="2" in="SourceAlpha" result="shadowOffsetOuter1"></feOffset>
            <feGaussianBlur stdDeviation="2" in="shadowOffsetOuter1" result="shadowBlurOuter1"></feGaussianBlur>
            <feColorMatrix values="0 0 0 0 0   0 0 0 0 0   0 0 0 0 0  0 0 0 0.1 0" type="matrix" in="shadowBlurOuter1" result="shadowMatrixOuter1"></feColorMatrix>
            <feMerge>
                <feMergeNode in="shadowMatrixOuter1"></feMergeNode>
                <feMergeNode in="SourceGraphic"></feMergeNode>
            </feMerge>
        </filter>
        <path d="M3.89631579,0 C2.05164474,0 0.556513158,1.37182979 0.556513158,3.06382979 L0.556513158,3.06382979 L0.556513158,32.9361702 C0.556513158,34.6281702 2.05164474,36 3.89631579,36 L3.89631579,36 L51.4930263,36 C53.3376974,36 54.8335526,34.6281702 54.8335526,32.9361702 L54.8335526,32.9361702 L54.8335526,3.06382979 C54.8335526,1.37182979 53.3376974,0 51.4930263,0 L51.4930263,0 L3.89631579,0 Z" id="path-14"></path>
        <linearGradient x1="50%" y1="-7.83969624%" x2="50%" y2="136.746848%" id="linearGradient-16">
            <stop stop-color="#FFD70F" offset="0%"></stop>
            <stop stop-color="#EEB309" offset="34%"></stop>
            <stop stop-color="#DC8C03" offset="77%"></stop>
            <stop stop-color="#D57D01" offset="100%"></stop>
        </linearGradient>
        <linearGradient x1="50%" y1="0%" x2="50%" y2="100%" id="linearGradient-17">
            <stop stop-color="#E55E14" offset="0%"></stop>
            <stop stop-color="#F59051" offset="100%"></stop>
        </linearGradient>
        <linearGradient x1="50%" y1="0%" x2="50%" y2="100%" id="linearGradient-18">
            <stop stop-color="#F59051" offset="0%"></stop>
            <stop stop-color="#E55E14" offset="100%"></stop>
        </linearGradient>
        <linearGradient x1="50%" y1="-9.93901477%" x2="50%" y2="100%" id="linearGradient-19">
            <stop stop-color="#FFFFFF" offset="0%"></stop>
            <stop stop-color="#EFEFEF" offset="100%"></stop>
        </linearGradient>
        <path d="M30.9215647,37.5157895 L24.7431753,37.5157895 C24.2105814,37.5157895 23.7746184,37.0746947 23.7746184,36.5358316 L23.7746184,27.1273263 C23.7746184,26.5884632 24.2105814,26.1473684 24.7431753,26.1473684 L30.9215647,26.1473684 C31.4541586,26.1473684 31.8893725,26.5884632 31.8893725,27.1273263 L31.8893725,36.5358316 C31.8893725,37.0746947 31.4541586,37.5157895 30.9215647,37.5157895" id="path-20"></path>
        <filter x="-6.2%" y="-4.4%" width="112.3%" height="117.6%" filterUnits="objectBoundingBox" id="filter-21">
            <feOffset dx="0" dy="1" in="SourceAlpha" result="shadowOffsetOuter1"></feOffset>
            <feColorMatrix values="0 0 0 0 0   0 0 0 0 0   0 0 0 0 0  0 0 0 0.1 0" type="matrix" in="shadowOffsetOuter1"></feColorMatrix>
        </filter>
        <linearGradient x1="50%" y1="2.04550253%" x2="50%" y2="100%" id="linearGradient-22">
            <stop stop-color="#FFE02A" offset="0%"></stop>
            <stop stop-color="#FFB518" offset="100%"></stop>
        </linearGradient>
    </defs>
    <g id="Badges" stroke="none" stroke-width="1" fill="none" fill-rule="evenodd">
        <g id="Learn-the-Data-Management-Foundation-in-Microsoft-Dynamics-365-Business-Central" transform="translate(-109.000000, -47.000000)">
            <g id="Learn-the-Data-Management-Foundation-in-Microsoft-Dynamics-365-Business-Central/Learn-the-data-management-foundation-in-microsoft-dynamics-365-business-central" transform="translate(148.000000, 80.000000)">
                <g id="Trophy-Plates/Trailhead" transform="translate(12.000000, 0.000000)">
                    <g id="BG" transform="translate(-50.000000, -30.474805)">
                        <mask id="mask-2" fill="white">
                            <use xlink:href="#path-1"></use>
                        </mask>
                        <path stroke="#FFFFFF" stroke-width="5" d="M21.0121187,24.3202136 C14.867656,25.241883 9.67846935,28.5668337 6.25581574,33.1974827 C2.83316214,37.8281317 1.17704157,43.764479 2.09871098,49.9089418 C2.18539976,50.4868669 2.29457123,51.0611954 2.42597702,51.6306205 L23.9864505,145.059339 C25.1644062,150.163814 28.0260418,154.523979 31.9028459,157.608026 C35.77965,160.692072 40.6716226,162.5 45.9102524,162.5 L153.401474,162.5 C158.815144,162.5 163.844961,160.572096 167.770781,157.313955 C171.6966,154.055814 174.518421,149.467437 175.516098,144.146492 L197.275547,28.0961021 C198.420569,21.9893173 196.981928,15.9965493 193.730336,11.244222 C190.478743,6.49189465 185.414199,2.98000801 179.307414,1.83498585 C176.837815,1.37193606 174.308098,1.32581673 171.823262,1.69854212 L21.0121187,24.3202136 Z"></path>
                        <g id="Colors/Microsoft-365/BG-Gradient-1" mask="url(#mask-2)" fill="url(#linearGradient-3)">
                            <g transform="translate(0.000000, -0.000000)" id="Rectangle">
                                <rect x="0" y="0" width="200" height="160"></rect>
                            </g>
                        </g>
                    </g>
                    <g id="Border" transform="translate(-46.652943, -27.525195)">
                        <mask id="mask-5" fill="white">
                            <use xlink:href="#path-4"></use>
                        </mask>
                        <use fill="#000000" fill-rule="nonzero" xlink:href="#path-4"></use>
                        <g id="Colors/Microsoft-365/Border" mask="url(#mask-5)" fill="#0076D7">
                            <g transform="translate(-3.347057, -2.949610)" id="Microsoft-365/Border">
                                <rect x="0" y="0" width="200" height="164"></rect>
                            </g>
                        </g>
                    </g>
                </g>
                <g id="Group-17" transform="translate(0.000000, 9.000000)">
                    <path d="M72.7588005,88.9524838 C62.2766219,87.2591793 61.8644014,79.5183585 61.8644014,67 L41.07671,67 C41.07671,79.5183585 40.7233781,87.2591793 30.2411995,88.9524838 C27.2441506,89.2930503 24.9818179,91.9034797 25,95 L78,95 C78.0181821,91.9034797 75.7558494,89.2930503 72.7588005,88.9524838 Z" id="Path" fill="url(#linearGradient-6)" fill-rule="nonzero"></path>
                    <g id="Group-7">
                        <g id="Group-3">
                            <mask id="mask-8" fill="white">
                                <use xlink:href="#path-7"></use>
                            </mask>
                            <g id="Clip-2"></g>
                            <path d="M99.4308848,0.0750308168 C101.311911,0.0750308168 102.836491,1.58966882 102.836491,3.45842841 L102.836491,64.7820249 C102.836491,66.6507845 101.311911,68.1654225 99.4308848,68.1654225 L3.40545627,68.1654225 C1.52473032,68.1654225 -0.000150145773,66.6507845 -0.000150145773,64.7820249 L-0.000150145773,3.45842841 C-0.000150145773,1.58966882 1.52473032,0.0750308168 3.40545627,0.0750308168 L99.4308848,0.0750308168 Z" id="Fill-1" fill="url(#linearGradient-9)" mask="url(#mask-8)"></path>
                        </g>
                    </g>
                </g>
                <g id="Computer" transform="translate(10.000000, 20.000000)" fill-rule="nonzero">
                    <rect id="Rectangle" fill="#92C4FC" x="0" y="0" width="36" height="5" rx="1.5"></rect>
                    <rect id="Rectangle" fill="#92C4FC" x="0" y="12" width="22" height="5" rx="1.5"></rect>
                    <rect id="Rectangle" fill="#0076D7" x="0" y="35" width="8" height="9"></rect>
                    <rect id="Rectangle" fill="#0076D7" x="16" y="26" width="8" height="18"></rect>
                    <rect id="Rectangle" fill="#0076D7" x="31" y="18" width="8" height="26"></rect>
                </g>
                <g id="Group-22" transform="translate(57.000000, 26.000000)">
                    <g id="a30ee4c9-49d5-4d00-a305-a6a3597e53b7" fill-rule="nonzero">
                        <g id="Shape">
                            <use fill="black" fill-opacity="1" filter="url(#filter-12)" xlink:href="#path-11"></use>
                            <use fill="url(#linearGradient-10)" xlink:href="#path-11"></use>
                        </g>
                    </g>
                    <circle id="Oval" fill="#FFFFFF" cx="18" cy="17" r="7"></circle>
                </g>
                <g id="Briefcase" transform="translate(61.000000, 53.000000)">
                    <g id="Group" filter="url(#filter-13)">
                        <g id="Group-5" transform="translate(0.000000, 13.831579)">
                            <mask id="mask-15" fill="white">
                                <use xlink:href="#path-14"></use>
                            </mask>
                            <g id="Clip-4"></g>
                            <polygon id="Fill-3" fill="url(#linearGradient-16)" mask="url(#mask-15)" points="-3.61842105 39.8297872 59.0077632 39.8297872 59.0077632 -3.82978723 -3.61842105 -3.82978723"></polygon>
                        </g>
                        <path d="M28.6393684,30.0078568 C17.3043026,30.0078568 7.19153947,27.2771621 0.556802632,23.0056674 L0.556802632,45.8273937 C0.556802632,49.1901726 3.15989474,51.9155621 6.37088158,51.9155621 L49.0190395,51.9155621 C52.2300263,51.9155621 54.8331184,49.1901726 54.8331184,45.8273937 L54.8331184,24.12432 C48.2425263,27.7470568 38.94825,30.0078568 28.6393684,30.0078568" id="Fill-6" fill="url(#linearGradient-17)"></path>
                        <path d="M28.6393684,33.7484453 C17.3043026,33.7484453 7.19153947,31.3323764 0.556802632,27.5530358 L0.556802632,50.3766051 C0.556802632,51.8981317 1.88838158,53.1319832 3.53042105,53.1319832 L51.8587763,53.1319832 C53.5015395,53.1319832 54.8331184,51.8981317 54.8331184,50.3766051 L54.8331184,28.5427992 C48.2425263,31.7481307 38.94825,33.7484453 28.6393684,33.7484453" id="Fill-8" fill="url(#linearGradient-18)"></path>
                        <g id="Fill-10">
                            <use fill="black" fill-opacity="1" filter="url(#filter-21)" xlink:href="#path-20"></use>
                            <use fill="url(#linearGradient-19)" fill-rule="evenodd" xlink:href="#path-20"></use>
                        </g>
                        <path d="M45.7869211,14.5894737 L42.1685,14.5894737 C42.1685,8.63469474 35.6756053,3.78947368 27.6948158,3.78947368 C19.7140263,3.78947368 13.2211316,8.63469474 13.2211316,14.5894737 L9.60271053,14.5894737 C9.60271053,6.54517895 17.7188289,-1.26298971e-13 27.6948158,-1.26298971e-13 C37.6708026,-1.26298971e-13 45.7869211,6.54517895 45.7869211,14.5894737" id="Fill-12" fill="url(#linearGradient-22)"></path>
                    </g>
                </g>
            </g>
        </g>
    </g>
</svg>