<?xml version="1.0" encoding="UTF-8"?>
<svg width="101px" height="101px" viewBox="0 0 101 101" version="1.1" xmlns="http://www.w3.org/2000/svg" xmlns:xlink="http://www.w3.org/1999/xlink">
    <!-- Generator: Sketch 63.1 (92452) - https://sketch.com -->
    <title>Discover the Foundation of Customizing Microsoft Dynamics 365 Business Central/Debug-and-deploy-your-extension-in-Dynamics-365-Business-Central</title>
    <desc>Created with Sketch.</desc>
    <defs>
        <rect id="path-1" x="0" y="0" width="94.3396226" height="94.3396226" rx="47.1698113"></rect>
        <linearGradient x1="77.8299825%" y1="11.1997378%" x2="-99.6885927%" y2="253.807911%" id="linearGradient-3">
            <stop stop-color="#FFFFFF" offset="0%"></stop>
            <stop stop-color="#000000" stop-opacity="0.5" offset="100%"></stop>
        </linearGradient>
        <rect id="path-4" x="0" y="0" width="94.3396226" height="94.3396226"></rect>
        <rect id="path-5" x="0" y="0" width="100" height="100" rx="50"></rect>
        <filter x="-0.5%" y="-0.5%" width="102.0%" height="102.0%" filterUnits="objectBoundingBox" id="filter-6">
            <feOffset dx="1" dy="1" in="SourceAlpha" result="shadowOffsetOuter1"></feOffset>
            <feMorphology radius="4" operator="erode" in="SourceAlpha" result="shadowInner"></feMorphology>
            <feOffset dx="1" dy="1" in="shadowInner" result="shadowInner"></feOffset>
            <feComposite in="shadowOffsetOuter1" in2="shadowInner" operator="out" result="shadowOffsetOuter1"></feComposite>
            <feColorMatrix values="0 0 0 0 0   0 0 0 0 0   0 0 0 0 0  0 0 0 0.15 0" type="matrix" in="shadowOffsetOuter1"></feColorMatrix>
        </filter>
        <path d="M50,2.83018868 C76.0511674,2.83018868 97.1698113,23.9488326 97.1698113,50 C97.1698113,76.0511674 76.0511674,97.1698113 50,97.1698113 C23.9488326,97.1698113 2.83018868,76.0511674 2.83018868,50 C2.83018868,23.9488326 23.9488326,2.83018868 50,2.83018868 Z M50,6.60377358 C26.032926,6.60377358 6.60377358,26.032926 6.60377358,50 C6.60377358,73.967074 26.032926,93.3962264 50,93.3962264 C73.967074,93.3962264 93.3962264,73.967074 93.3962264,50 C93.3962264,26.032926 73.967074,6.60377358 50,6.60377358 Z" id="path-7"></path>
        <filter x="-25.0%" y="-26.1%" width="150.0%" height="152.2%" filterUnits="objectBoundingBox" id="filter-9">
            <feOffset dx="0" dy="2" in="SourceAlpha" result="shadowOffsetOuter1"></feOffset>
            <feGaussianBlur stdDeviation="2" in="shadowOffsetOuter1" result="shadowBlurOuter1"></feGaussianBlur>
            <feColorMatrix values="0 0 0 0 0   0 0 0 0 0   0 0 0 0 0  0 0 0 0.1 0" type="matrix" in="shadowBlurOuter1" result="shadowMatrixOuter1"></feColorMatrix>
            <feMerge>
                <feMergeNode in="shadowMatrixOuter1"></feMergeNode>
                <feMergeNode in="SourceGraphic"></feMergeNode>
            </feMerge>
        </filter>
        <linearGradient x1="50%" y1="100%" x2="50%" y2="0%" id="linearGradient-10">
            <stop stop-color="#D2EBFF" offset="0%"></stop>
            <stop stop-color="#F0FFFD" offset="100%"></stop>
        </linearGradient>
        <linearGradient x1="50%" y1="100%" x2="50%" y2="0%" id="linearGradient-11">
            <stop stop-color="#CCCCCC" offset="15%"></stop>
            <stop stop-color="#707070" offset="100%"></stop>
        </linearGradient>
        <filter x="-40.0%" y="-40.0%" width="180.0%" height="180.0%" filterUnits="objectBoundingBox" id="filter-12">
            <feOffset dx="0" dy="2" in="SourceAlpha" result="shadowOffsetOuter1"></feOffset>
            <feGaussianBlur stdDeviation="2" in="shadowOffsetOuter1" result="shadowBlurOuter1"></feGaussianBlur>
            <feColorMatrix values="0 0 0 0 0   0 0 0 0 0   0 0 0 0 0  0 0 0 0.1 0" type="matrix" in="shadowBlurOuter1" result="shadowMatrixOuter1"></feColorMatrix>
            <feMerge>
                <feMergeNode in="shadowMatrixOuter1"></feMergeNode>
                <feMergeNode in="SourceGraphic"></feMergeNode>
            </feMerge>
        </filter>
        <path d="M2.12526316,0 C1.11907895,0 0.303552632,0.76212766 0.303552632,1.70212766 L0.303552632,1.70212766 L0.303552632,18.2978723 C0.303552632,19.2378723 1.11907895,20 2.12526316,20 L2.12526316,20 L28.0871053,20 C29.0932895,20 29.9092105,19.2378723 29.9092105,18.2978723 L29.9092105,18.2978723 L29.9092105,1.70212766 C29.9092105,0.76212766 29.0932895,0 28.0871053,0 L28.0871053,0 L2.12526316,0 Z" id="path-13"></path>
        <linearGradient x1="50%" y1="-7.83969624%" x2="50%" y2="136.746848%" id="linearGradient-15">
            <stop stop-color="#FFD70F" offset="0%"></stop>
            <stop stop-color="#EEB309" offset="34%"></stop>
            <stop stop-color="#DC8C03" offset="77%"></stop>
            <stop stop-color="#D57D01" offset="100%"></stop>
        </linearGradient>
        <linearGradient x1="50%" y1="0%" x2="50%" y2="100%" id="linearGradient-16">
            <stop stop-color="#E55E14" offset="0%"></stop>
            <stop stop-color="#F59051" offset="100%"></stop>
        </linearGradient>
        <linearGradient x1="50%" y1="0%" x2="50%" y2="100%" id="linearGradient-17">
            <stop stop-color="#F59051" offset="0%"></stop>
            <stop stop-color="#E55E14" offset="100%"></stop>
        </linearGradient>
        <linearGradient x1="50%" y1="2.04550253%" x2="50%" y2="100%" id="linearGradient-18">
            <stop stop-color="#FFE02A" offset="0%"></stop>
            <stop stop-color="#FFB518" offset="100%"></stop>
        </linearGradient>
    </defs>
    <g id="Badges" stroke="none" stroke-width="1" fill="none" fill-rule="evenodd">
        <g id="Discover-the-Foundation-of-Customizing-Microsoft-Dynamics-365-Business-Central" transform="translate(-160.000000, -1270.000000)">
            <g id="Discover-the-Foundation-of-Customizing-Microsoft-Dynamics-365-Business-Central/Debug-and-deploy-your-extension-in-Dynamics-365-Business-Central" transform="translate(160.000000, 1270.000000)">
                <g id="Badge-Plates/Circle">
                    <g id="BG" transform="translate(2.830189, 2.830189)">
                        <mask id="mask-2" fill="white">
                            <use xlink:href="#path-1"></use>
                        </mask>
                        <g></g>
                        <g id="Colors/Microsoft-365/BG-Solid-Badge" mask="url(#mask-2)">
                            <g id="Rectangle">
                                <use fill="#0078D4" xlink:href="#path-4"></use>
                                <use fill-opacity="0.4" fill="url(#linearGradient-3)" xlink:href="#path-4"></use>
                            </g>
                        </g>
                    </g>
                    <g id="Border">
                        <g id="White-Border">
                            <use fill="black" fill-opacity="1" filter="url(#filter-6)" xlink:href="#path-5"></use>
                            <rect stroke="#F2F1F0" stroke-width="4" stroke-linejoin="square" x="2" y="2" width="96" height="96" rx="48"></rect>
                        </g>
                        <mask id="mask-8" fill="white">
                            <use xlink:href="#path-7"></use>
                        </mask>
                        <use id="Boarder" fill="#0078D4" fill-rule="nonzero" xlink:href="#path-7"></use>
                        <g id="Colors/Microsoft-365/Border" mask="url(#mask-8)" fill="#0076D7">
                            <g transform="translate(2.830189, 2.830189)" id="Microsoft-365/Border">
                                <rect x="0" y="0" width="94.3396226" height="94.3396226"></rect>
                            </g>
                        </g>
                    </g>
                </g>
                <g id="Group-10" transform="translate(22.000000, 28.000000)">
                    <g id="Computer-w/-code">
                        <g id="Icon-compute-21-Virtual-Machine" filter="url(#filter-9)" fill-rule="nonzero">
                            <rect id="Rectangle" fill="url(#linearGradient-10)" x="0" y="0" width="48" height="32.8571429" rx="0.6"></rect>
                            <path d="M33.9585793,43.1613699 C29.0482549,42.3665535 28.8551522,38.7331071 28.8551522,32.8571429 L19.1172617,32.8571429 C19.1172617,38.7331071 18.9517451,42.3665535 14.0414207,43.1613699 C12.6374681,43.3212277 11.5776896,44.5465313 11.5862069,46 L36.4137931,46 C36.4223104,44.5465313 35.3625319,43.3212277 33.9585793,43.1613699 Z" id="Path" fill="url(#linearGradient-11)"></path>
                        </g>
                        <g id="Group-21" transform="translate(3.000000, 0.000000)" fill="#92C4FC">
                            <polygon id="Fill-1525" points="5.27272727 33 6.15151515 33 6.15151515 4.54747351e-13 5.27272727 4.54747351e-13"></polygon>
                            <g id="Group-24" transform="translate(0.000000, 14.548171)">
                                <path d="M2.43207529,0.931801126 C2.43207529,1.44615535 1.94752517,1.86360225 1.3504902,1.86360225 C0.752914447,1.86360225 0.268905123,1.44615535 0.268905123,0.931801126 C0.268905123,0.416981004 0.752914447,0 1.3504902,0 C1.94752517,0 2.43207529,0.416981004 2.43207529,0.931801126" id="Fill-1526"></path>
                                <path d="M2.43207529,6.12326454 C2.43207529,6.63761876 1.94752517,7.05506567 1.3504902,7.05506567 C0.752914447,7.05506567 0.268905123,6.63761876 0.268905123,6.12326454 C0.268905123,5.60844442 0.752914447,5.19146341 1.3504902,5.19146341 C1.94752517,5.19146341 2.43207529,5.60844442 2.43207529,6.12326454" id="Fill-1528"></path>
                                <path d="M2.43207529,11.1816135 C2.43207529,11.6959677 1.94752517,12.1134146 1.3504902,12.1134146 C0.752914447,12.1134146 0.268905123,11.6959677 0.268905123,11.1816135 C0.268905123,10.6667934 0.752914447,10.2498124 1.3504902,10.2498124 C1.94752517,10.2498124 2.43207529,10.6667934 2.43207529,11.1816135" id="Fill-1530"></path>
                            </g>
                            <path d="M20.3473193,26.6615854 L12.1678322,26.6615854 C11.756627,26.6615854 11.4242424,26.2748213 11.4242424,25.7963415 C11.4242424,25.3178616 11.756627,24.9310976 12.1678322,24.9310976 L20.3473193,24.9310976 C20.7585245,24.9310976 21.0909091,25.3178616 21.0909091,25.7963415 C21.0909091,26.2748213 20.7585245,26.6615854 20.3473193,26.6615854" id="Fill-1531"></path>
                            <path d="M30.5127706,26.6615854 L23.9218615,26.6615854 C23.3143994,26.6615854 22.8233766,26.2748213 22.8233766,25.7963415 C22.8233766,25.3178616 23.3143994,24.9310976 23.9218615,24.9310976 L30.5127706,24.9310976 C31.1202327,24.9310976 31.6112554,25.3178616 31.6112554,25.7963415 C31.6112554,26.2748213 31.1202327,26.6615854 30.5127706,26.6615854" id="Fill-1532"></path>
                            <path d="M19.0885281,11.0871951 L12.497619,11.0871951 C11.8901569,11.0871951 11.3991342,10.7004311 11.3991342,10.2219512 C11.3991342,9.74347134 11.8901569,9.35670732 12.497619,9.35670732 L19.0885281,9.35670732 C19.6959903,9.35670732 20.187013,9.74347134 20.187013,10.2219512 C20.187013,10.7004311 19.6959903,11.0871951 19.0885281,11.0871951" id="Fill-1532"></path>
                            <path d="M21.1585082,21.470122 L12.2354312,21.470122 C11.7868438,21.470122 11.4242424,21.0833579 11.4242424,20.604878 C11.4242424,20.1263982 11.7868438,19.7396341 12.2354312,19.7396341 L21.1585082,19.7396341 C21.6070956,19.7396341 21.969697,20.1263982 21.969697,20.604878 C21.969697,21.0833579 21.6070956,21.470122 21.1585082,21.470122" id="Fill-1534"></path>
                            <path d="M33.4615385,21.470122 L24.5384615,21.470122 C24.0898741,21.470122 23.7272727,21.0833579 23.7272727,20.604878 C23.7272727,20.1263982 24.0898741,19.7396341 24.5384615,19.7396341 L33.4615385,19.7396341 C33.9101259,19.7396341 34.2727273,20.1263982 34.2727273,20.604878 C34.2727273,21.0833579 33.9101259,21.470122 33.4615385,21.470122" id="Fill-1534"></path>
                            <path d="M38.7342657,21.470122 L29.8111888,21.470122 C29.3626014,21.470122 29,21.0833579 29,20.604878 C29,20.1263982 29.3626014,19.7396341 29.8111888,19.7396341 L38.7342657,19.7396341 C39.1828531,19.7396341 39.5454545,20.1263982 39.5454545,20.604878 C39.5454545,21.0833579 39.1828531,21.470122 38.7342657,21.470122" id="Fill-1534"></path>
                            <path d="M12.3455211,16.2786585 C11.8221692,16.2786585 11.3991342,15.8918945 11.3991342,15.4134146 C11.3991342,14.9349348 11.8221692,14.5481707 12.3455211,14.5481707 L22.7557776,14.5481707 C23.2791295,14.5481707 23.7021645,14.9349348 23.7021645,15.4134146 C23.7021645,15.8918945 23.2791295,16.2786585 22.7557776,16.2786585 L12.3455211,16.2786585 Z" id="Fill-1540"></path>
                        </g>
                    </g>
                    <g id="Group-9" transform="translate(27.000000, 18.000000)">
                        <g id="Briefcase">
                            <g id="Group" filter="url(#filter-12)">
                                <g id="Group-5" transform="translate(0.000000, 8.045656)">
                                    <mask id="mask-14" fill="white">
                                        <use xlink:href="#path-13"></use>
                                    </mask>
                                    <g id="Clip-4"></g>
                                    <polygon id="Fill-3" fill="url(#linearGradient-15)" mask="url(#mask-14)" points="-1.97368421 22.1276596 32.1860526 22.1276596 32.1860526 -2.12765957 -1.97368421 -2.12765957"></polygon>
                                </g>
                                <path d="M15.6214737,17.0324774 C9.43871053,17.0324774 3.92265789,15.5154247 0.303710526,13.1423721 L0.303710526,25.8211089 C0.303710526,27.6893195 1.72357895,29.2034247 3.47502632,29.2034247 L26.7376579,29.2034247 C28.4891053,29.2034247 29.9089737,27.6893195 29.9089737,25.8211089 L29.9089737,13.7638458 C26.3141053,15.7764774 21.2445,17.0324774 15.6214737,17.0324774" id="Fill-6" fill="url(#linearGradient-16)"></path>
                                <path d="M15.6214737,19.110582 C9.43871053,19.110582 3.92265789,17.7683216 0.303710526,15.6686879 L0.303710526,28.3484486 C0.303710526,29.1937412 1.03002632,29.8792142 1.92568421,29.8792142 L28.2866053,29.8792142 C29.1826579,29.8792142 29.9089737,29.1937412 29.9089737,28.3484486 L29.9089737,16.2185565 C26.3141053,17.9992962 21.2445,19.110582 15.6214737,19.110582" id="Fill-8" fill="url(#linearGradient-17)"></path>
                                <path d="M24.9746842,8.10526316 L23.001,8.10526316 C23.001,4.79705263 19.4594211,2.10526316 15.1062632,2.10526316 C10.7531053,2.10526316 7.21152632,4.79705263 7.21152632,8.10526316 L5.23784211,8.10526316 C5.23784211,3.63621053 9.66481579,4.79616347e-14 15.1062632,4.79616347e-14 C20.5477105,4.79616347e-14 24.9746842,3.63621053 24.9746842,8.10526316" id="Fill-12" fill="url(#linearGradient-18)"></path>
                            </g>
                        </g>
                        <circle id="Oval" fill="#FFFFFF" cx="15" cy="19" r="6"></circle>
                        <g id="noun_debug_83827" transform="translate(12.027507, 15.373561)" fill="#E8671F" fill-rule="nonzero">
                            <path d="M1.10204651,2.50954733 L0.680930233,2.06188535 C0.602651163,1.97784125 0.475953488,1.98023396 0.397534884,2.06397898 C0.319186047,2.147724 0.318976744,2.285006 0.397046512,2.36897534 L0.876976744,2.85260281 C0.914511628,2.89297987 0.965651163,2.88340901 1.01888372,2.88340901 L1.40930233,2.88340901 C1.13127907,3.2572707 0.948767442,3.70590472 0.881232558,4.15453873 L0.200372093,4.15453873 C0.0896511628,4.15453873 0,4.26019205 0,4.37885574 C0,4.49744467 0.0896511628,4.60317275 0.200372093,4.60317275 L0.851651163,4.60317275 C0.855139535,4.97703444 0.943395349,5.35089612 1.09737209,5.64998546 L0.952046512,5.64998546 C0.898813953,5.64998546 0.847744186,5.6825862 0.810139535,5.72303804 L0.33027907,6.24382736 C0.252139535,6.32779669 0.25227907,6.46627506 0.330627907,6.55002008 C0.369837209,6.59181782 0.420906977,6.61395043 0.472116279,6.61395043 C0.523465116,6.61395043 0.574883721,6.59316372 0.613953488,6.55106689 L1.03527907,6.09861948 L1.35886047,6.09861948 C1.75304651,6.62202584 2.37209302,6.96179134 3,7 L3,2.50954733 L1.10204651,2.50954733 Z" id="Path"></path>
                            <path d="M5.79962791,4.15804253 L5.10467442,4.15804253 C5.01816279,3.70970176 4.79532558,3.26136098 4.53425581,2.88774366 L4.98111628,2.88774366 C5.03434884,2.88774366 5.0854186,2.89798078 5.12302326,2.85755538 L5.60295349,2.35847737 C5.68102326,2.2744882 5.68081395,2.14686053 5.60246512,2.06317025 C5.52397674,1.97940525 5.39727907,1.97865801 5.31906977,2.06264719 L4.89795349,2.51412635 L3,2.51412635 L3,7 C3.62790698,6.95621205 4.2357907,6.54919335 4.62997674,6.10085257 L4.96472093,6.10085257 L5.38597674,6.55360203 C5.42511628,6.59567134 5.47646512,6.61689281 5.52781395,6.61689281 C5.57902326,6.61689281 5.63016279,6.59604496 5.66930233,6.55434927 C5.74765116,6.47065899 5.7477907,6.33481173 5.66965116,6.25089728 L5.1897907,5.72551662 C5.15225581,5.68509122 5.10111628,5.65251179 5.04795349,5.65251179 L4.89446512,5.65251179 C5.05032558,5.35361794 5.13983721,4.98000063 5.14332558,4.60638331 L5.79962791,4.60638331 C5.91034884,4.60638331 6,4.50072433 6,4.38221292 C6,4.26362679 5.91034884,4.15804253 5.79962791,4.15804253 Z" id="Path"></path>
                            <path d="M2,2 L4,2 C4,1.41868163 3.81306852,0.98153021 3.53242909,0.708227529 L3.73426987,0.403201474 C3.79466064,0.310107489 3.79466064,0.162203486 3.73426987,0.0690264553 C3.67387911,-0.0240675299 3.57608052,-0.0224896657 3.51563593,0.0706873649 L3.22369342,0.521956513 C3.15167662,0.496544596 3.07696862,0.482260773 2.99994618,0.482260773 C2.92292373,0.482260773 2.84821573,0.497125914 2.77619893,0.522537832 L2.48420259,0.0721821836 C2.42381183,-0.0209118016 2.32601324,-0.0209118016 2.26556865,0.0721821836 C2.20512406,0.165276169 2.20517789,0.316418946 2.26556865,0.409595977 L2.46740944,0.708310575 C2.18693148,0.981613256 2,1.41868163 2,2 Z" id="Path"></path>
                        </g>
                    </g>
                </g>
            </g>
        </g>
    </g>
</svg>