<?xml version="1.0" encoding="UTF-8"?>
<svg width="100px" height="118px" viewBox="0 0 100 118" version="1.1" xmlns="http://www.w3.org/2000/svg" xmlns:xlink="http://www.w3.org/1999/xlink">
    <!-- Generator: Sketch 55.2 (78181) - https://sketchapp.com -->
    <title>Deploy and Configure Microsoft Dynamics 365 Business Central/deploy-and-configure-microsoft-dynamics-365-business-central</title>
    <desc>Created with Sketch.</desc>
    <defs>
        <path d="M42.7425,1.49663266 C44.3745,0.498877554 46.1865,0 48,0 C49.8135,0 51.627,0.498877554 53.256,1.49663266 L90.591,24.3316189 C93.933,26.3773408 96,30.2031485 96,34.3529027 L96,79.6470973 C96,83.7952317 93.933,87.6242789 90.591,89.6683811 L53.256,112.504987 C51.627,113.501122 49.8135,114 48,114 C46.1865,114 44.3745,113.501122 42.7425,112.504987 L5.409,89.6683811 C2.0655,87.6242789 0,83.7952317 0,79.6470973 L0,34.3529027 C0,30.2031485 2.0655,26.3773408 5.409,24.3316189 L42.7425,1.49663266 Z" id="path-1"></path>
        <filter x="-6.7%" y="-4.3%" width="113.3%" height="108.7%" filterUnits="objectBoundingBox" id="filter-3">
            <feOffset dx="0" dy="2" in="SourceAlpha" result="shadowOffsetOuter1"></feOffset>
            <feColorMatrix values="0 0 0 0 0   0 0 0 0 0   0 0 0 0 0  0 0 0 0.103515625 0" type="matrix" in="shadowOffsetOuter1" result="shadowMatrixOuter1"></feColorMatrix>
            <feMerge>
                <feMergeNode in="shadowMatrixOuter1"></feMergeNode>
                <feMergeNode in="SourceGraphic"></feMergeNode>
            </feMerge>
        </filter>
    </defs>
    <g id="Badges" stroke="none" stroke-width="1" fill="none" fill-rule="evenodd">
        <g id="Deploy-and-Configure-Microsoft-Dynamics-365-Business-Central" transform="translate(-50.000000, -50.000000)">
            <g id="Deploy-and-Configure-Microsoft-Dynamics-365-Business-Central/deploy-and-configure-microsoft-dynamics-365-business-central" transform="translate(50.000000, 50.000000)">
                <g id="Mask" transform="translate(2.000000, 2.000000)">
                    <mask id="mask-2" fill="white">
                        <use xlink:href="#path-1"></use>
                    </mask>
                    <use id="Trophy-1" fill="#01B6C3" xlink:href="#path-1"></use>
                    <g id="Rocket" filter="url(#filter-3)" mask="url(#mask-2)">
                        <g transform="translate(18.000000, 12.000000)">
                            <path d="M29.929429,91.2091545 C28.9717328,91.2091545 28.0781682,90.7274561 27.5508652,89.929376 C26.7570606,88.7279805 22.8037138,82.5400094 22.8037138,78.6422432 C22.8037138,74.5691844 26.0003096,71.2571519 29.929429,71.2571519 C33.8585483,71.2571519 37.0551442,74.5691844 37.0551442,78.6422432 C37.0551442,82.5400094 33.1003722,88.7279805 32.3079927,89.929376 C31.7806898,90.7274561 30.8871251,91.2091545 29.929429,91.2091545" id="Fill-411" fill="#DF5142"></path>
                            <path d="M29.929429,85.5085823 C29.162702,85.5085823 28.4487053,85.026884 28.026863,84.2288039 C27.3912492,83.0274083 24.2288568,76.8394372 24.2288568,72.941671 C24.2288568,68.8686122 26.7855634,65.5565798 29.929429,65.5565798 C33.0718694,65.5565798 35.6300011,68.8686122 35.6300011,72.941671 C35.6300011,76.8394372 32.4661836,83.0274083 31.8319949,84.2288039 C31.4101526,85.026884 30.6947308,85.5085823 29.929429,85.5085823" id="Fill-412" fill="#C2423D"></path>
                            <path d="M45.9879407,50.274771 C46.6064528,45.4335601 47.0311454,40.3771526 47.0311454,35.6057737 C47.0311454,17.6005165 32.650027,1.5662322 32.0372155,0.892139542 C30.9583822,-0.297854895 28.9004757,-0.297854895 27.8202173,0.892139542 C27.2088309,1.5662322 12.8277125,17.6005165 12.8277125,35.6057737 C12.8277125,40.3771526 13.2524051,45.4335601 13.8694921,50.274771 C6.19794708,52.2029895 0.00142514304,61.1742649 0.00142514304,71.2571519 C0.00142514304,72.2932309 0.555805785,73.2466516 1.45222076,73.7497271 C1.87691338,73.9891511 2.35006087,74.107438 2.81893293,74.107438 C3.33625985,74.107438 3.85358678,73.9620734 4.30820741,73.6756197 C4.35951256,73.6442665 9.46437492,70.4718981 13.9108212,70.4718981 C15.5696877,70.4718981 16.8195381,70.9222433 17.73448,71.8471612 C17.7900606,71.9027417 17.8527668,71.9440709 17.9097726,71.9939509 C18.3059623,73.6371408 18.5753144,74.6603935 18.6237692,74.8413867 C18.9572527,76.0883868 20.0873911,76.9577241 21.3785707,76.9577241 L38.4802872,76.9577241 C39.7714668,76.9577241 40.9016052,76.0883868 41.2336635,74.8413867 C41.2821184,74.6603935 41.5514704,73.6371408 41.9476602,71.9939509 C42.0060911,71.9440709 42.0687974,71.9027417 42.1229528,71.8471612 C43.0393198,70.9222433 44.2891702,70.4718981 45.9480367,70.4718981 C50.3930579,70.4718981 55.4979202,73.6442665 55.5492254,73.6756197 C56.0052711,73.9620734 56.5225981,74.107438 57.0384998,74.107438 C57.5073719,74.107438 57.9805194,73.9891511 58.405212,73.7497271 C59.301627,73.2466516 59.8574328,72.2932309 59.8574328,71.2571519 C59.8574328,61.1742649 53.6594857,52.2029895 45.9879407,50.274771" id="Fill-413" fill="#546670"></path>
                            <path d="M59.8360556,70.7740284 C59.770499,70.8125073 59.7191939,70.8652376 59.6493619,70.899441 C59.171939,71.1388651 58.6389355,71.2571519 58.1116325,71.2571519 C57.5301742,71.2571519 56.9487158,71.1117873 56.4356643,70.8253336 C56.3943352,70.8025313 53.4172114,69.1621917 49.8885572,68.2415493 C47.833501,67.7042703 46.4625134,65.7746267 46.6905362,63.6625647 C47.0981271,59.8902111 47.236366,55.2014905 47.0553729,50.603979 C46.7019374,50.4814167 46.3470768,50.3659801 45.9850904,50.274771 C44.8178983,59.4170636 42.962362,67.7826532 41.9476602,71.9968012 C41.9775882,72.0082023 41.9433848,71.995376 41.9733128,72.0067772 C42.9010809,70.9735485 44.1965359,70.4718981 45.9480367,70.4718981 C50.3930579,70.4718981 55.4979202,73.6442665 55.5492254,73.6756197 C56.0052711,73.9620734 56.5225981,74.107438 57.0384998,74.107438 C57.5073719,74.107438 57.9805194,73.9891511 58.405212,73.7497271 C59.301627,73.2466516 59.8574328,72.2932309 59.8574328,71.2571519 C59.8574328,71.0946856 59.8389059,70.9364948 59.8360556,70.7740284" id="Fill-414" fill="#30404D"></path>
                            <path d="M0.0541554355,70.7740284 C0.119712015,70.8125073 0.172442308,70.8652376 0.240849174,70.899441 C0.718272092,71.1388651 1.25127559,71.2571519 1.77857851,71.2571519 C2.35861173,71.2571519 2.94149523,71.1117873 3.45454673,70.8253336 C3.49587587,70.8025313 6.47299968,69.1621917 10.0016538,68.2415493 C12.0567101,67.7042703 13.4276977,65.7746267 13.1996748,63.6625647 C12.7920839,59.8902111 12.653845,55.2014905 12.8348382,50.603979 C13.1882737,50.4814167 13.5445594,50.3659801 13.9051206,50.274771 C15.0723128,59.4170636 16.927849,67.7826532 17.9425509,71.9968012 C17.9126229,72.0082023 17.9468263,71.995376 17.9168983,72.0067772 C16.9891302,70.9735485 15.6936751,70.4718981 13.9421743,70.4718981 C9.49715321,70.4718981 4.39229085,73.6442665 4.3409857,73.6756197 C3.88493992,73.9620734 3.367613,74.107438 2.85171122,74.107438 C2.38283916,74.107438 1.90969167,73.9891511 1.48499905,73.7497271 C0.588584075,73.2466516 0.0327782899,72.2932309 0.0327782899,71.2571519 C0.0327782899,71.0946856 0.0513051494,70.9364948 0.0541554355,70.7740284" id="Fill-415" fill="#30404D"></path>
                            <path d="M32.0372155,0.892139542 C31.4970863,0.296429752 30.7132576,0 29.929429,0 L29.929429,71.2571519 C29.929429,72.831935 28.6525008,74.107438 27.0791429,74.107438 L18.4328001,74.107438 C18.5354104,74.5064781 18.6023921,74.7601535 18.6237692,74.8413867 C18.9572527,76.0883868 20.0873911,76.9577241 21.3785707,76.9577241 L38.4802872,76.9577241 C39.7714668,76.9577241 40.9016052,76.0883868 41.2336635,74.8413867 C41.4702373,73.9535226 47.0311454,52.8927587 47.0311454,35.6057737 C47.0311454,17.6005165 32.650027,1.5662322 32.0372155,0.892139542" id="Fill-416" fill="#30404D"></path>
                            <path d="M29.929429,19.9520025 C34.582521,19.9520025 39.0246918,19.3748196 43.0991758,18.3358903 C38.7938187,8.41831993 32.440531,1.33393388 32.0372155,0.892139542 C30.9583822,-0.297854895 28.9004757,-0.297854895 27.8202173,0.892139542 C27.4183269,1.33393388 21.0636141,8.41831993 16.7596821,18.3358903 C20.8341661,19.3748196 25.2749118,19.9520025 29.929429,19.9520025" id="Fill-417" fill="#ADBDC4"></path>
                            <path d="M43.0991758,18.3358903 C38.7938187,8.41831993 32.440531,1.33393388 32.0372155,0.892139542 C31.4970863,0.296429752 29.929429,1.42514304 29.929429,4.27542912 L29.929429,19.9520025 C34.582521,19.9520025 39.0246918,19.3748196 43.0991758,18.3358903" id="Fill-418" fill="#8BA6B1"></path>
                            <g id="Group" stroke-width="1" fill="none" transform="translate(21.000000, 27.000000)">
                                <path d="M17.4942149,8.74710744 C17.4942149,13.5769686 13.5769686,17.4942149 8.74710744,17.4942149 C3.91578843,17.4942149 -8.27782287e-13,13.5769686 -8.27782287e-13,8.74710744 C-8.27782287e-13,3.91578843 3.91578843,7.10542736e-14 8.74710744,7.10542736e-14 C13.5769686,7.10542736e-14 17.4942149,3.91578843 17.4942149,8.74710744" id="Fill-419" fill="#ADBDC4"></path>
                                <path d="M17.4942149,8.74710744 C17.4942149,3.91578843 13.5769686,7.10542736e-14 8.74710744,7.10542736e-14 L8.74710744,17.4942149 C13.5769686,17.4942149 17.4942149,13.5769686 17.4942149,8.74710744" id="Fill-420" fill="#8BA6B1"></path>
                                <path d="M14.5785124,8.74710744 C14.5785124,11.9675008 11.9675008,14.5785124 8.74710744,14.5785124 C5.52671405,14.5785124 2.91570248,11.9675008 2.91570248,8.74710744 C2.91570248,5.52671405 5.52671405,2.91570248 8.74710744,2.91570248 C11.9675008,2.91570248 14.5785124,5.52671405 14.5785124,8.74710744" id="Fill-421" fill="#F7CB64"></path>
                                <path d="M8.74710744,4.37355372 C11.7182083,4.37355372 14.1426149,6.60260826 14.504162,9.47603306 C14.5347769,9.23402975 14.5785124,8.9964 14.5785124,8.74710744 C14.5785124,5.52671405 11.9675008,2.91570248 8.74710744,2.91570248 C5.52671405,2.91570248 2.91570248,5.52671405 2.91570248,8.74710744 C2.91570248,8.9964 2.95798017,9.23402975 2.99005289,9.47603306 C3.3516,6.60260826 5.77600661,4.37355372 8.74710744,4.37355372" id="Fill-422" fill="#CC9547"></path>
                            </g>
                        </g>
                    </g>
                    <g id="Clouds" mask="url(#mask-2)">
                        <g transform="translate(-31.000000, 77.173554)" id="Cloud">
                            <g>
                                <path d="M18.0717211,14.5785124 C18.1944235,14.5785124 18.3134814,14.5943058 18.434969,14.5967355 C20.1163574,6.26997521 27.4724318,0 36.2948616,0 C44.1818368,0 50.8782335,5.01865289 53.4148946,12.0297025 C54.8533078,11.3347934 56.459374,10.9338843 58.1626302,10.9338843 C64.2017789,10.9338843 69.0965144,15.8286198 69.0965144,21.8677686 C69.0965144,22.040281 69.0782913,22.206719 69.0710021,22.3768017 C74.6910186,23.9573554 78.8155227,29.1072149 78.8155227,35.231405 C78.8155227,42.6117769 72.8322582,48.5950413 65.4518863,48.5950413 L18.0717211,48.5950413 C8.67829957,48.5950413 1.0634566,40.9801983 1.0634566,31.5867769 C1.0634566,22.1933554 8.67829957,14.5785124 18.0717211,14.5785124" id="Fill-11" fill="#FBFFFC"></path>
                                <path d="M66.3739773,21.9139339 C67.3033574,21.9783223 68.2035806,22.1338264 69.0710021,22.3768017 C69.0782913,22.206719 69.0965144,22.040281 69.0965144,21.8677686 C69.0965144,18.228 67.3106467,15.0122231 64.5759607,13.024686 C65.8855971,14.827562 66.6667624,17.0386364 66.6667624,19.4380165 C66.6667624,20.2908595 66.5586384,21.1169752 66.3739773,21.9139339" id="Fill-12" fill="#C5CCCD"></path>
                                <path d="M48.4436219,48.5950413 L65.0291095,48.5950413 C72.2940682,48.5950413 78.5494649,42.9774545 78.8070186,35.7173554 C78.9783161,30.8967273 76.5935144,26.6203636 72.9015062,24.137157 C74.7396136,26.8681983 75.5961012,30.3123719 74.9643657,33.9691488 C74.0811508,39.0801322 70.159531,43.2836033 65.1262996,44.5373554 C62.3138616,45.2383388 59.6216963,45.0087273 57.2368946,44.138876 C58.5769029,42.3250661 59.3775062,40.0896942 59.3775062,37.661157 C59.3775062,34.0213884 57.5916384,30.8056116 54.8569525,28.8180744 C56.5055392,31.0874628 57.3170764,34.0043802 56.7861756,37.1266116 C56.0232335,41.6192231 52.4041178,45.2395537 47.9127211,46.0037107 C46.9796963,46.1616446 46.0648946,46.2005207 45.1804649,46.1337025 C41.7144235,45.8688595 38.8558202,43.3236942 37.8912087,39.984 C37.6652417,39.1991901 37.5097376,38.3949421 37.5097376,37.661157 C37.5097376,37.220157 37.5413244,36.7876612 37.5947789,36.3612397 C37.8085971,34.5559339 38.4585558,32.8854793 39.4426054,31.4604298 C38.0454979,32.0217025 36.5694235,32.4274711 35.0277459,32.6291405 C35.0483987,32.2829008 35.0799855,31.9390909 35.0799855,31.5867769 C35.0799855,25.9594711 32.3355806,20.9857686 28.1248202,17.8890496 C30.6724153,21.3563058 31.9613987,25.8063967 31.233688,30.5832893 C30.1317954,37.8190909 24.3040351,43.6468512 17.0682335,44.7487438 C12.2913409,45.4764545 7.84124998,44.1874711 4.37399379,41.639876 C7.47071279,45.8506364 12.4444153,48.5950413 18.0717211,48.5950413 L48.4436219,48.5950413" id="Fill-13" fill="#C5CCCD"></path>
                                <path d="M48.4436219,26.7272727 C49.7095227,26.7272727 50.9207541,26.9532397 52.0518037,27.3492893 C53.6104897,24.6631983 54.5180021,21.5519008 54.5180021,18.2231405 C54.5180021,12.2605289 51.6411756,6.98310744 47.2141673,3.65920661 C49.5017789,6.70368595 50.873374,10.4770909 50.873374,14.5785124 C50.873374,19.404 48.9842417,23.7763388 45.9203244,27.0309917 C46.7318616,26.8390413 47.5737706,26.7272727 48.4436219,26.7272727" id="Fill-14" fill="#C5CCCD"></path>
                            </g>
                            <g transform="translate(68.033058, 10.933884)">
                                <path d="M18.1325572,14.5785124 C18.2552596,14.5785124 18.3743175,14.5943058 18.4958051,14.5967355 C20.1771935,6.26997521 27.5332679,0 36.3556976,0 C44.2426729,0 50.9390695,5.01865289 53.4757307,12.0297025 C54.9141439,11.3347934 56.52021,10.9338843 58.2234662,10.9338843 C64.262615,10.9338843 69.1573505,15.8286198 69.1573505,21.8677686 C69.1573505,22.040281 69.1391274,22.206719 69.1318381,22.3768017 C74.7518547,23.9573554 78.8763588,29.1072149 78.8763588,35.231405 C78.8763588,42.6117769 72.8930943,48.5950413 65.5127224,48.5950413 L18.1325572,48.5950413 C8.73913566,48.5950413 1.12429269,40.9801983 1.12429269,31.5867769 C1.12429269,22.1933554 8.73913566,14.5785124 18.1325572,14.5785124" id="Fill-11-Copy" fill="#FBFFFC"></path>
                                <path d="M48.504458,48.5950413 L65.0899456,48.5950413 C72.3549043,48.5950413 78.610301,42.9774545 78.8678547,35.7173554 C79.0391522,30.8967273 76.6543505,26.6203636 72.9623423,24.137157 C74.8004497,26.8681983 75.6569373,30.3123719 75.0252018,33.9691488 C74.1419869,39.0801322 70.2203671,43.2836033 65.1871357,44.5373554 C62.3746976,45.2383388 59.6825324,45.0087273 57.2977307,44.138876 C58.637739,42.3250661 59.4383423,40.0896942 59.4383423,37.661157 C59.4383423,34.0213884 57.6524745,30.8056116 54.9177886,28.8180744 C56.5663753,31.0874628 57.3779125,34.0043802 56.8470117,37.1266116 C56.0840695,41.6192231 52.4649538,45.2395537 47.9735572,46.0037107 C47.0405324,46.1616446 46.1257307,46.2005207 45.241301,46.1337025 C41.7752596,45.8688595 38.9166563,43.3236942 37.9520448,39.984 C37.7260778,39.1991901 37.5705737,38.3949421 37.5705737,37.661157 C37.5705737,37.220157 37.6021605,36.7876612 37.655615,36.3612397 C37.8694332,34.5559339 38.5193919,32.8854793 39.5034414,31.4604298 C38.106334,32.0217025 36.6302596,32.4274711 35.0885819,32.6291405 C35.1092348,32.2829008 35.1408216,31.9390909 35.1408216,31.5867769 C35.1408216,25.9594711 32.3964167,20.9857686 28.1856563,17.8890496 C30.7332514,21.3563058 32.0222348,25.8063967 31.2945241,30.5832893 C30.1926315,37.8190909 24.3648712,43.6468512 17.1290695,44.7487438 C12.352177,45.4764545 7.90208608,44.1874711 4.43482988,41.639876 C7.53154889,45.8506364 12.5052514,48.5950413 18.1325572,48.5950413 L48.504458,48.5950413" id="Fill-13-Copy" fill="#C5CCCD"></path>
                                <path d="M48.504458,26.7272727 C49.7703588,26.7272727 50.9815902,26.9532397 52.1126398,27.3492893 C53.6713257,24.6631983 54.5788381,21.5519008 54.5788381,18.2231405 C54.5788381,12.2605289 51.7020117,6.98310744 47.2750034,3.65920661 C49.562615,6.70368595 50.93421,10.4770909 50.93421,14.5785124 C50.93421,19.404 49.0450778,23.7763388 45.9811605,27.0309917 C46.7926976,26.8390413 47.6346067,26.7272727 48.504458,26.7272727" id="Fill-14-Copy" fill="#C5CCCD"></path>
                            </g>
                        </g>
                    </g>
                    <g id="Business-Central-logo" mask="url(#mask-2)" fill="#F7CB64">
                        <g transform="translate(40.000000, 63.000000)">
                            <path d="M11.0169889,4.98301107 L10.6398653,5.36013468 C10.5926449,5.31291428 10.5441654,5.26695294 10.4944816,5.22230535 C9.83331931,4.62816273 8.95887562,4.26666667 8,4.26666667 C5.93813693,4.26666667 4.26666667,5.93813693 4.26666667,8 C4.26666667,10.0618631 5.93813693,11.7333333 8,11.7333333 C9.03093153,11.7333333 9.96426487,11.3154658 10.6398653,10.6398653 L11.0169897,11.0169897 C10.2448741,11.7891037 9.17820747,12.2666667 8,12.2666667 C5.64358507,12.2666667 3.73333333,10.3564149 3.73333333,8 C3.73333333,5.64358507 5.64358507,3.73333333 8,3.73333333 C9.09585785,3.73333333 10.0952221,4.14647169 10.8508361,4.82549182 C10.9076176,4.87651764 10.9630228,4.92904489 11.0169889,4.98301107 Z" id="Combined-Shape"></path>
                            <path d="M8,3.2 C7.1163444,3.2 6.4,2.4836556 6.4,1.6 C6.4,0.7163444 7.1163444,0 8,0 C8.41094669,0 8.78570828,0.154926884 9.06906353,0.409559434 C9.39500495,0.702461349 9.6,1.12729109 9.6,1.6 C9.6,2.03091366 9.42965228,2.42204047 9.15262471,2.70971258 C8.86156408,3.01195696 8.45274194,3.2 8,3.2 Z M8,2.66666667 C8.30182796,2.66666667 8.57437605,2.54130464 8.76841647,2.33980839 C8.95310152,2.14802698 9.06666667,1.88727577 9.06666667,1.6 C9.06666667,1.28486073 8.9300033,1.0016409 8.71270902,0.806372956 C8.52380552,0.636617923 8.27396446,0.533333333 8,0.533333333 C7.41089627,0.533333333 6.93333333,1.01089627 6.93333333,1.6 C6.93333333,2.18910373 7.41089627,2.66666667 8,2.66666667 Z" id="Combined-Shape"></path>
                            <path d="M8,9.6 C7.1163444,9.6 6.4,8.8836556 6.4,8 C6.4,7.1163444 7.1163444,6.4 8,6.4 C8.41094669,6.4 8.78570828,6.55492688 9.06906353,6.80955943 C9.39500495,7.10246135 9.6,7.52729109 9.6,8 C9.6,8.43091366 9.42965228,8.82204047 9.15262471,9.10971258 C8.86156408,9.41195696 8.45274194,9.6 8,9.6 Z M8,9.06666667 C8.30182796,9.06666667 8.57437605,8.94130464 8.76841647,8.73980839 C8.95310152,8.54802698 9.06666667,8.28727577 9.06666667,8 C9.06666667,7.68486073 8.9300033,7.4016409 8.71270902,7.20637296 C8.52380552,7.03661792 8.27396446,6.93333333 8,6.93333333 C7.41089627,6.93333333 6.93333333,7.41089627 6.93333333,8 C6.93333333,8.58910373 7.41089627,9.06666667 8,9.06666667 Z" id="Combined-Shape"></path>
                            <path d="M14.4,9.6 C13.5163444,9.6 12.8,8.8836556 12.8,8 C12.8,7.1163444 13.5163444,6.4 14.4,6.4 C14.8109467,6.4 15.1857083,6.55492688 15.4690635,6.80955943 C15.795005,7.10246135 16,7.52729109 16,8 C16,8.43091366 15.8296523,8.82204047 15.5526247,9.10971258 C15.2615641,9.41195696 14.8527419,9.6 14.4,9.6 Z M14.4,9.06666667 C14.701828,9.06666667 14.9743761,8.94130464 15.1684165,8.73980839 C15.3531015,8.54802698 15.4666667,8.28727577 15.4666667,8 C15.4666667,7.68486073 15.3300033,7.4016409 15.112709,7.20637296 C14.9238055,7.03661792 14.6739645,6.93333333 14.4,6.93333333 C13.8108963,6.93333333 13.3333333,7.41089627 13.3333333,8 C13.3333333,8.58910373 13.8108963,9.06666667 14.4,9.06666667 Z" id="Combined-Shape"></path>
                            <path d="M8,16 C7.1163444,16 6.4,15.2836556 6.4,14.4 C6.4,13.5163444 7.1163444,12.8 8,12.8 C8.41094669,12.8 8.78570828,12.9549269 9.06906353,13.2095594 C9.39500495,13.5024613 9.6,13.9272911 9.6,14.4 C9.6,14.8309137 9.42965228,15.2220405 9.15262471,15.5097126 C8.86156408,15.811957 8.45274194,16 8,16 Z M8,15.4666667 C8.30182796,15.4666667 8.57437605,15.3413046 8.76841647,15.1398084 C8.95310152,14.948027 9.06666667,14.6872758 9.06666667,14.4 C9.06666667,14.0848607 8.9300033,13.8016409 8.71270902,13.606373 C8.52380552,13.4366179 8.27396446,13.3333333 8,13.3333333 C7.41089627,13.3333333 6.93333333,13.8108963 6.93333333,14.4 C6.93333333,14.9891037 7.41089627,15.4666667 8,15.4666667 Z" id="Combined-Shape"></path>
                            <rect id="Rectangle" x="9.06666667" y="7.46666667" width="4.26666667" height="1.06666667"></rect>
                            <polygon id="Rectangle" transform="translate(8.000000, 3.466667) rotate(90.000000) translate(-8.000000, -3.466667) " points="7.46666667 2.93333333 8.53333333 2.93333333 8.53333333 4 7.46666667 4"></polygon>
                            <rect id="Rectangle" x="2.93333333" y="7.46666667" width="1.06666667" height="1.06666667"></rect>
                            <polygon id="Rectangle" transform="translate(8.000000, 12.533333) rotate(90.000000) translate(-8.000000, -12.533333) " points="7.46666667 12 8.53333333 12 8.53333333 13.0666667 7.46666667 13.0666667"></polygon>
                            <path d="M1.6,9.6 C0.7163444,9.6 -2.90922841e-12,8.8836556 -2.90922841e-12,8 C-2.90922841e-12,7.1163444 0.7163444,6.4 1.6,6.4 C2.01094669,6.4 2.38570828,6.55492688 2.66906353,6.80955943 C2.99500495,7.10246135 3.2,7.52729109 3.2,8 C3.2,8.43091366 3.02965228,8.82204047 2.75262471,9.10971258 C2.46156408,9.41195696 2.05274194,9.6 1.6,9.6 Z M1.6,9.06666667 C1.90182796,9.06666667 2.17437605,8.94130464 2.36841647,8.73980839 C2.55310152,8.54802698 2.66666667,8.28727577 2.66666667,8 C2.66666667,7.68486073 2.5300033,7.4016409 2.31270902,7.20637296 C2.12380552,7.03661792 1.87396446,6.93333333 1.6,6.93333333 C1.01089627,6.93333333 0.533333333,7.41089627 0.533333333,8 C0.533333333,8.58910373 1.01089627,9.06666667 1.6,9.06666667 Z" id="Combined-Shape"></path>
                        </g>
                    </g>
                </g>
                <g id="Dynamic-Hex" stroke="#1D8E96" stroke-width="4">
                    <path d="M45.5618501,3.25844398 L45.5621963,3.25823359 L6.67338401,26.8942953 C3.79673288,28.6432593 2,31.9508238 2,35.5582677 L2,82.4417323 C2,86.0486597 3.79764663,89.3586805 6.67318764,91.1055853 L45.560618,114.742485 C46.9289662,115.572418 48.4546283,116 50,116 C51.5458817,116 53.0723633,115.572188 54.4362178,114.743457 L93.3268764,91.1055464 C96.2016145,89.3583456 98,86.0476286 98,82.4417323 L98,35.5582677 C98,31.9518547 96.202529,28.6435953 93.3268966,26.8944659 L54.4351916,3.25759524 C53.0721095,2.42798656 51.5462432,2 50,2 C48.4542664,2 46.9292165,2.42775755 45.5618501,3.25844398 Z" id="Azure-Hex-Border"></path>
                </g>
            </g>
        </g>
    </g>
</svg>