<?xml version="1.0" encoding="UTF-8"?>
<svg width="100px" height="100px" viewBox="0 0 100 100" version="1.1" xmlns="http://www.w3.org/2000/svg" xmlns:xlink="http://www.w3.org/1999/xlink">
    <!-- Generator: Sketch 55.2 (78181) - https://sketchapp.com -->
    <title>Deploy and Configure Microsoft Dynamics 365 Business Central/integrate-business-central-with-email-and-outlook</title>
    <desc>Created with Sketch.</desc>
    <defs>
        <rect id="path-1" x="0" y="0" width="96" height="96" rx="48"></rect>
        <filter x="-8.7%" y="-8.8%" width="117.4%" height="119.2%" filterUnits="objectBoundingBox" id="filter-3">
            <feOffset dx="0" dy="2" in="SourceAlpha" result="shadowOffsetOuter1"></feOffset>
            <feColorMatrix values="0 0 0 0 0   0 0 0 0 0   0 0 0 0 0  0 0 0 0.0964956975 0" type="matrix" in="shadowOffsetOuter1" result="shadowMatrixOuter1"></feColorMatrix>
            <feMerge>
                <feMergeNode in="shadowMatrixOuter1"></feMergeNode>
                <feMergeNode in="SourceGraphic"></feMergeNode>
            </feMerge>
        </filter>
        <filter x="-8.7%" y="-8.7%" width="117.4%" height="117.4%" filterUnits="objectBoundingBox" id="filter-4">
            <feOffset dx="0" dy="2" in="SourceAlpha" result="shadowOffsetOuter1"></feOffset>
            <feColorMatrix values="0 0 0 0 0   0 0 0 0 0   0 0 0 0 0  0 0 0 0.0964956975 0" type="matrix" in="shadowOffsetOuter1" result="shadowMatrixOuter1"></feColorMatrix>
            <feMerge>
                <feMergeNode in="shadowMatrixOuter1"></feMergeNode>
                <feMergeNode in="SourceGraphic"></feMergeNode>
            </feMerge>
        </filter>
    </defs>
    <g id="Badges" stroke="none" stroke-width="1" fill="none" fill-rule="evenodd">
        <g id="Deploy-and-Configure-Microsoft-Dynamics-365-Business-Central" transform="translate(-50.000000, -460.000000)">
            <g id="Deploy-and-Configure-Microsoft-Dynamics-365-Business-Central/integrate-business-central-with-email-and-outlook" transform="translate(50.000000, 460.000000)">
                <g id="Mask" transform="translate(2.000000, 2.000000)">
                    <mask id="mask-2" fill="white">
                        <use xlink:href="#path-1"></use>
                    </mask>
                    <use id="BG" fill="#01B6C3" xlink:href="#path-1"></use>
                    <g id="Gear" filter="url(#filter-3)" mask="url(#mask-2)">
                        <g transform="translate(6.000000, 14.000000)">
                            <path d="M29.7237846,22.6461538 C29.7237846,26.5483692 26.5483692,29.7230769 22.6468615,29.7230769 C18.7446462,29.7230769 15.5699385,26.5483692 15.5699385,22.6461538 C15.5699385,18.7439385 18.7446462,15.5692308 22.6468615,15.5692308 C26.5483692,15.5692308 29.7237846,18.7439385 29.7237846,22.6461538 Z M42.8026462,18.8345231 L39.5118769,18.1027692 C39.2422462,18.0433231 38.8225846,17.6611692 38.7383692,17.3979077 C38.7277538,17.3618154 38.7143077,17.3264308 38.6994462,17.2917538 L37.7914769,15.0851692 C37.7759077,15.0469538 37.7582154,15.0087385 37.7391077,14.9719385 C37.6117231,14.7277846 37.6364923,14.1651692 37.7844,13.9337538 L39.5946769,11.0888308 C40.3625231,9.88221538 40.1714462,8.14483077 39.1608615,7.13353846 L38.1594769,6.13215385 C37.1722462,5.14421538 35.3853231,4.94676923 34.2041846,5.69833846 L31.3585538,7.50790769 C31.2637231,7.56947692 31.0393846,7.63529231 30.7732923,7.63529231 C30.5553231,7.63529231 30.3932615,7.59141538 30.3210769,7.55390769 C30.2849846,7.53409231 30.2460615,7.51710769 30.2071385,7.50153846 L28.0012615,6.59286154 C27.9665846,6.57870769 27.9312,6.56526154 27.8951077,6.55464615 C27.6325538,6.47043077 27.2496923,6.05076923 27.1902462,5.78043077 L26.4592,2.49036923 C26.1485231,1.09409231 24.7848,0 23.3545538,0 L21.9391692,0 C20.5082154,0 19.1452,1.09409231 18.8352308,2.48966154 L18.1034769,5.78184615 C18.0433231,6.05076923 17.6611692,6.47043077 17.3986154,6.55464615 C17.3625231,6.56526154 17.3271385,6.57870769 17.2917538,6.59286154 L15.0858769,7.50153846 C15.0469538,7.51710769 15.0087385,7.53409231 14.9719385,7.55390769 C14.9004615,7.59141538 14.7384,7.63529231 14.5197231,7.63529231 C14.2536308,7.63529231 14.0292923,7.56876923 13.9337538,7.50790769 L11.0895385,5.69904615 C9.9084,4.94747692 8.12076923,5.14563077 7.13424615,6.13286154 L6.13286154,7.13353846 C5.12156923,8.14553846 4.9312,9.88292308 5.69904615,11.0895385 L7.50932308,13.9337538 C7.65652308,14.1658769 7.68129231,14.7270769 7.55461538,14.9712308 C7.53550769,15.0087385 7.51710769,15.0469538 7.50153846,15.0851692 L6.59356923,17.2917538 C6.57941538,17.3264308 6.56596923,17.3618154 6.55464615,17.3979077 C6.47043077,17.6611692 6.05147692,18.0433231 5.78113846,18.1034769 L2.49107692,18.8338154 C1.0948,19.1444923 0.000707692308,20.5075077 0.000707692308,21.9384615 L0.000707692308,23.3538462 C0.000707692308,24.7840923 1.0948,26.1478154 2.49036923,26.4577846 L5.78184615,27.1888308 C6.05147692,27.2489846 6.47043077,27.6311385 6.55464615,27.8944 C6.56596923,27.9304923 6.57941538,27.9658769 6.59356923,28.0005538 L7.50153846,30.2071385 C7.51710769,30.2453538 7.5348,30.2828615 7.55461538,30.3203692 C7.68129231,30.5638154 7.65652308,31.1264308 7.50861538,31.3585538 L5.69904615,34.2027692 C4.93049231,35.4093846 5.12156923,37.1474769 6.13286154,38.1587692 L7.13424615,39.1601538 C8.12006154,40.1452615 9.90556923,40.3462462 11.0902462,39.5939692 L13.9330462,37.7844 C14.0292923,37.7228308 14.2536308,37.6570154 14.5197231,37.6570154 C14.7384,37.6570154 14.9004615,37.7001846 14.9719385,37.7384 C15.0094462,37.7568 15.0469538,37.7752 15.0858769,37.7907692 L17.2917538,38.6994462 C17.3271385,38.7136 17.3625231,38.7263385 17.3986154,38.7376615 C17.6611692,38.8218769 18.0433231,39.2415385 18.1034769,39.5111692 L18.8352308,42.8019385 C19.1452,44.1982154 20.5082154,45.2923077 21.9391692,45.2923077 L23.3545538,45.2923077 C24.7848,45.2923077 26.1478154,44.1982154 26.4584923,42.8019385 L27.1902462,39.5111692 C27.2496923,39.2415385 27.6325538,38.8218769 27.8951077,38.7376615 C27.9312,38.7263385 27.9665846,38.7136 28.0012615,38.6994462 L30.2071385,37.7907692 C30.2460615,37.7752 30.2842769,37.7568 30.3210769,37.7384 C30.3932615,37.7001846 30.5553231,37.6570154 30.7725846,37.6570154 C31.0386769,37.6570154 31.2637231,37.7228308 31.3585538,37.7844 L34.2034769,39.5932615 C35.3839077,40.3462462 37.1722462,40.1466769 38.1594769,39.1601538 L39.1601538,38.1594769 C40.1714462,37.1481846 40.3625231,35.4100923 39.5946769,34.2027692 L37.7844,31.3585538 C37.6364923,31.1264308 37.6117231,30.5645231 37.7391077,30.3210769 C37.7582154,30.2835692 37.7759077,30.2460615 37.7914769,30.2078462 L38.6994462,28.0005538 C38.7143077,27.9658769 38.7277538,27.9304923 38.7383692,27.8944 C38.8225846,27.6311385 39.2422462,27.2489846 39.5125846,27.1888308 L42.8019385,26.4577846 C44.1989231,26.1478154 45.2930154,24.7840923 45.2930154,23.3538462 L45.2930154,21.9384615 C45.2930154,20.5075077 44.1989231,19.1444923 42.8026462,18.8345231 L42.8026462,18.8345231 Z" id="Fill-376" fill="#ADBDC4"></path>
                            <path d="M11.0902462,39.5939692 L13.9330462,37.7844 C14.0292923,37.7228308 14.2536308,37.6570154 14.5197231,37.6570154 C14.7384,37.6570154 14.9004615,37.7001846 14.9719385,37.7384 C15.0094462,37.7568 15.0469538,37.7752 15.0858769,37.7907692 L17.2917538,38.6994462 C17.3271385,38.7136 17.3625231,38.7263385 17.3986154,38.7376615 C17.6611692,38.8218769 18.0433231,39.2415385 18.1034769,39.5111692 L18.8352308,42.8019385 C19.1452,44.1982154 20.5082154,45.2923077 21.9391692,45.2923077 L23.3545538,45.2923077 C24.7848,45.2923077 26.1478154,44.1982154 26.4584923,42.8019385 L27.1902462,39.5111692 C27.2496923,39.2415385 27.6325538,38.8218769 27.8951077,38.7376615 C27.9312,38.7263385 27.9665846,38.7136 28.0012615,38.6994462 L30.2071385,37.7907692 C30.2460615,37.7752 30.2842769,37.7568 30.3210769,37.7384 C30.3932615,37.7001846 30.5553231,37.6570154 30.7725846,37.6570154 C31.0386769,37.6570154 31.2637231,37.7228308 31.3585538,37.7844 L34.2034769,39.5932615 C35.3839077,40.3462462 37.1722462,40.1466769 38.1594769,39.1601538 L39.1601538,38.1594769 C40.1714462,37.1481846 40.3625231,35.4100923 39.5946769,34.2027692 L37.7844,31.3585538 C37.6364923,31.1264308 37.6117231,30.5645231 37.7391077,30.3210769 C37.7582154,30.2835692 37.7759077,30.2460615 37.7914769,30.2078462 L38.6994462,28.0005538 C38.7143077,27.9658769 38.7277538,27.9304923 38.7383692,27.8944 C38.8225846,27.6311385 39.2422462,27.2489846 39.5125846,27.1888308 L42.8019385,26.4577846 C44.1989231,26.1478154 45.2930154,24.7840923 45.2930154,23.3538462 L45.2930154,21.9384615 C45.2930154,20.5075077 44.1989231,19.1444923 42.8026462,18.8345231 L39.5118769,18.1027692 C39.2422462,18.0433231 38.8225846,17.6611692 38.7383692,17.3979077 C38.7277538,17.3618154 38.7143077,17.3264308 38.6994462,17.2917538 L37.7914769,15.0851692 C37.7759077,15.0469538 37.7582154,15.0087385 37.7391077,14.9719385 C37.6117231,14.7277846 37.6364923,14.1651692 37.7844,13.9337538 L39.5946769,11.0888308 C40.3625231,9.88221538 40.1714462,8.14483077 39.1608615,7.13353846 L38.6598154,6.63249231 L27.6481231,17.6441846 C28.9297538,18.9258154 29.7237846,20.6950462 29.7237846,22.6461538 C29.7237846,26.5483692 26.5483692,29.7230769 22.6468615,29.7230769 C20.6957538,29.7230769 18.9265231,28.9290462 17.6448923,27.6481231 L6.63390769,38.6591077 L7.13424615,39.1601538 C8.12006154,40.1452615 9.90556923,40.3462462 11.0902462,39.5939692" id="Fill-377" fill="#8BA6B1"></path>
                            <path d="M22.6468615,29.7230769 C18.7382769,29.7230769 15.5699385,26.5547385 15.5699385,22.6461538 C15.5699385,18.7375692 18.7382769,15.5692308 22.6468615,15.5692308 C26.5554462,15.5692308 29.7237846,18.7375692 29.7237846,22.6461538 C29.7237846,26.5547385 26.5554462,29.7230769 22.6468615,29.7230769 Z M22.6468615,12.7384615 C17.1749846,12.7384615 12.7391692,17.1742769 12.7391692,22.6461538 C12.7391692,28.1180308 17.1749846,32.5538462 22.6468615,32.5538462 C28.1187385,32.5538462 32.5545538,28.1180308 32.5545538,22.6461538 C32.5545538,17.1742769 28.1187385,12.7384615 22.6468615,12.7384615 L22.6468615,12.7384615 Z" id="Fill-378" fill="#8BA6B1"></path>
                            <path d="M29.7237846,22.6461538 C29.7237846,26.5547385 26.5554462,29.7230769 22.6468615,29.7230769 C20.6922154,29.7230769 18.9229846,28.9311692 17.6427692,27.6502462 L15.6407077,29.6516 C17.434,31.4448923 19.9109231,32.5538462 22.6468615,32.5538462 C28.1187385,32.5538462 32.5545538,28.1180308 32.5545538,22.6461538 C32.5545538,19.9102154 31.4456,17.4332923 29.6530154,15.64 L27.6509538,17.6420615 C28.9318769,18.9222769 29.7237846,20.6915077 29.7237846,22.6461538" id="Fill-379" fill="#ADBDC4"></path>
                        </g>
                    </g>
                    <g id="Gear" filter="url(#filter-4)" mask="url(#mask-2)">
                        <g transform="translate(44.000000, 38.000000)">
                            <path d="M29.7237846,22.6461538 C29.7237846,26.5483692 26.5483692,29.7230769 22.6468615,29.7230769 C18.7446462,29.7230769 15.5699385,26.5483692 15.5699385,22.6461538 C15.5699385,18.7439385 18.7446462,15.5692308 22.6468615,15.5692308 C26.5483692,15.5692308 29.7237846,18.7439385 29.7237846,22.6461538 Z M42.8026462,18.8345231 L39.5118769,18.1027692 C39.2422462,18.0433231 38.8225846,17.6611692 38.7383692,17.3979077 C38.7277538,17.3618154 38.7143077,17.3264308 38.6994462,17.2917538 L37.7914769,15.0851692 C37.7759077,15.0469538 37.7582154,15.0087385 37.7391077,14.9719385 C37.6117231,14.7277846 37.6364923,14.1651692 37.7844,13.9337538 L39.5946769,11.0888308 C40.3625231,9.88221538 40.1714462,8.14483077 39.1608615,7.13353846 L38.1594769,6.13215385 C37.1722462,5.14421538 35.3853231,4.94676923 34.2041846,5.69833846 L31.3585538,7.50790769 C31.2637231,7.56947692 31.0393846,7.63529231 30.7732923,7.63529231 C30.5553231,7.63529231 30.3932615,7.59141538 30.3210769,7.55390769 C30.2849846,7.53409231 30.2460615,7.51710769 30.2071385,7.50153846 L28.0012615,6.59286154 C27.9665846,6.57870769 27.9312,6.56526154 27.8951077,6.55464615 C27.6325538,6.47043077 27.2496923,6.05076923 27.1902462,5.78043077 L26.4592,2.49036923 C26.1485231,1.09409231 24.7848,0 23.3545538,0 L21.9391692,0 C20.5082154,0 19.1452,1.09409231 18.8352308,2.48966154 L18.1034769,5.78184615 C18.0433231,6.05076923 17.6611692,6.47043077 17.3986154,6.55464615 C17.3625231,6.56526154 17.3271385,6.57870769 17.2917538,6.59286154 L15.0858769,7.50153846 C15.0469538,7.51710769 15.0087385,7.53409231 14.9719385,7.55390769 C14.9004615,7.59141538 14.7384,7.63529231 14.5197231,7.63529231 C14.2536308,7.63529231 14.0292923,7.56876923 13.9337538,7.50790769 L11.0895385,5.69904615 C9.9084,4.94747692 8.12076923,5.14563077 7.13424615,6.13286154 L6.13286154,7.13353846 C5.12156923,8.14553846 4.9312,9.88292308 5.69904615,11.0895385 L7.50932308,13.9337538 C7.65652308,14.1658769 7.68129231,14.7270769 7.55461538,14.9712308 C7.53550769,15.0087385 7.51710769,15.0469538 7.50153846,15.0851692 L6.59356923,17.2917538 C6.57941538,17.3264308 6.56596923,17.3618154 6.55464615,17.3979077 C6.47043077,17.6611692 6.05147692,18.0433231 5.78113846,18.1034769 L2.49107692,18.8338154 C1.0948,19.1444923 0.000707692308,20.5075077 0.000707692308,21.9384615 L0.000707692308,23.3538462 C0.000707692308,24.7840923 1.0948,26.1478154 2.49036923,26.4577846 L5.78184615,27.1888308 C6.05147692,27.2489846 6.47043077,27.6311385 6.55464615,27.8944 C6.56596923,27.9304923 6.57941538,27.9658769 6.59356923,28.0005538 L7.50153846,30.2071385 C7.51710769,30.2453538 7.5348,30.2828615 7.55461538,30.3203692 C7.68129231,30.5638154 7.65652308,31.1264308 7.50861538,31.3585538 L5.69904615,34.2027692 C4.93049231,35.4093846 5.12156923,37.1474769 6.13286154,38.1587692 L7.13424615,39.1601538 C8.12006154,40.1452615 9.90556923,40.3462462 11.0902462,39.5939692 L13.9330462,37.7844 C14.0292923,37.7228308 14.2536308,37.6570154 14.5197231,37.6570154 C14.7384,37.6570154 14.9004615,37.7001846 14.9719385,37.7384 C15.0094462,37.7568 15.0469538,37.7752 15.0858769,37.7907692 L17.2917538,38.6994462 C17.3271385,38.7136 17.3625231,38.7263385 17.3986154,38.7376615 C17.6611692,38.8218769 18.0433231,39.2415385 18.1034769,39.5111692 L18.8352308,42.8019385 C19.1452,44.1982154 20.5082154,45.2923077 21.9391692,45.2923077 L23.3545538,45.2923077 C24.7848,45.2923077 26.1478154,44.1982154 26.4584923,42.8019385 L27.1902462,39.5111692 C27.2496923,39.2415385 27.6325538,38.8218769 27.8951077,38.7376615 C27.9312,38.7263385 27.9665846,38.7136 28.0012615,38.6994462 L30.2071385,37.7907692 C30.2460615,37.7752 30.2842769,37.7568 30.3210769,37.7384 C30.3932615,37.7001846 30.5553231,37.6570154 30.7725846,37.6570154 C31.0386769,37.6570154 31.2637231,37.7228308 31.3585538,37.7844 L34.2034769,39.5932615 C35.3839077,40.3462462 37.1722462,40.1466769 38.1594769,39.1601538 L39.1601538,38.1594769 C40.1714462,37.1481846 40.3625231,35.4100923 39.5946769,34.2027692 L37.7844,31.3585538 C37.6364923,31.1264308 37.6117231,30.5645231 37.7391077,30.3210769 C37.7582154,30.2835692 37.7759077,30.2460615 37.7914769,30.2078462 L38.6994462,28.0005538 C38.7143077,27.9658769 38.7277538,27.9304923 38.7383692,27.8944 C38.8225846,27.6311385 39.2422462,27.2489846 39.5125846,27.1888308 L42.8019385,26.4577846 C44.1989231,26.1478154 45.2930154,24.7840923 45.2930154,23.3538462 L45.2930154,21.9384615 C45.2930154,20.5075077 44.1989231,19.1444923 42.8026462,18.8345231 L42.8026462,18.8345231 Z" id="Fill-376" fill="#ADBDC4"></path>
                            <path d="M11.0902462,39.5939692 L13.9330462,37.7844 C14.0292923,37.7228308 14.2536308,37.6570154 14.5197231,37.6570154 C14.7384,37.6570154 14.9004615,37.7001846 14.9719385,37.7384 C15.0094462,37.7568 15.0469538,37.7752 15.0858769,37.7907692 L17.2917538,38.6994462 C17.3271385,38.7136 17.3625231,38.7263385 17.3986154,38.7376615 C17.6611692,38.8218769 18.0433231,39.2415385 18.1034769,39.5111692 L18.8352308,42.8019385 C19.1452,44.1982154 20.5082154,45.2923077 21.9391692,45.2923077 L23.3545538,45.2923077 C24.7848,45.2923077 26.1478154,44.1982154 26.4584923,42.8019385 L27.1902462,39.5111692 C27.2496923,39.2415385 27.6325538,38.8218769 27.8951077,38.7376615 C27.9312,38.7263385 27.9665846,38.7136 28.0012615,38.6994462 L30.2071385,37.7907692 C30.2460615,37.7752 30.2842769,37.7568 30.3210769,37.7384 C30.3932615,37.7001846 30.5553231,37.6570154 30.7725846,37.6570154 C31.0386769,37.6570154 31.2637231,37.7228308 31.3585538,37.7844 L34.2034769,39.5932615 C35.3839077,40.3462462 37.1722462,40.1466769 38.1594769,39.1601538 L39.1601538,38.1594769 C40.1714462,37.1481846 40.3625231,35.4100923 39.5946769,34.2027692 L37.7844,31.3585538 C37.6364923,31.1264308 37.6117231,30.5645231 37.7391077,30.3210769 C37.7582154,30.2835692 37.7759077,30.2460615 37.7914769,30.2078462 L38.6994462,28.0005538 C38.7143077,27.9658769 38.7277538,27.9304923 38.7383692,27.8944 C38.8225846,27.6311385 39.2422462,27.2489846 39.5125846,27.1888308 L42.8019385,26.4577846 C44.1989231,26.1478154 45.2930154,24.7840923 45.2930154,23.3538462 L45.2930154,21.9384615 C45.2930154,20.5075077 44.1989231,19.1444923 42.8026462,18.8345231 L39.5118769,18.1027692 C39.2422462,18.0433231 38.8225846,17.6611692 38.7383692,17.3979077 C38.7277538,17.3618154 38.7143077,17.3264308 38.6994462,17.2917538 L37.7914769,15.0851692 C37.7759077,15.0469538 37.7582154,15.0087385 37.7391077,14.9719385 C37.6117231,14.7277846 37.6364923,14.1651692 37.7844,13.9337538 L39.5946769,11.0888308 C40.3625231,9.88221538 40.1714462,8.14483077 39.1608615,7.13353846 L38.6598154,6.63249231 L27.6481231,17.6441846 C28.9297538,18.9258154 29.7237846,20.6950462 29.7237846,22.6461538 C29.7237846,26.5483692 26.5483692,29.7230769 22.6468615,29.7230769 C20.6957538,29.7230769 18.9265231,28.9290462 17.6448923,27.6481231 L6.63390769,38.6591077 L7.13424615,39.1601538 C8.12006154,40.1452615 9.90556923,40.3462462 11.0902462,39.5939692" id="Fill-377" fill="#8BA6B1"></path>
                            <path d="M22.6468615,29.7230769 C18.7382769,29.7230769 15.5699385,26.5547385 15.5699385,22.6461538 C15.5699385,18.7375692 18.7382769,15.5692308 22.6468615,15.5692308 C26.5554462,15.5692308 29.7237846,18.7375692 29.7237846,22.6461538 C29.7237846,26.5547385 26.5554462,29.7230769 22.6468615,29.7230769 Z M22.6468615,12.7384615 C17.1749846,12.7384615 12.7391692,17.1742769 12.7391692,22.6461538 C12.7391692,28.1180308 17.1749846,32.5538462 22.6468615,32.5538462 C28.1187385,32.5538462 32.5545538,28.1180308 32.5545538,22.6461538 C32.5545538,17.1742769 28.1187385,12.7384615 22.6468615,12.7384615 L22.6468615,12.7384615 Z" id="Fill-378" fill="#8BA6B1"></path>
                            <path d="M29.7237846,22.6461538 C29.7237846,26.5547385 26.5554462,29.7230769 22.6468615,29.7230769 C20.6922154,29.7230769 18.9229846,28.9311692 17.6427692,27.6502462 L15.6407077,29.6516 C17.434,31.4448923 19.9109231,32.5538462 22.6468615,32.5538462 C28.1187385,32.5538462 32.5545538,28.1180308 32.5545538,22.6461538 C32.5545538,19.9102154 31.4456,17.4332923 29.6530154,15.64 L27.6509538,17.6420615 C28.9318769,18.9222769 29.7237846,20.6915077 29.7237846,22.6461538" id="Fill-379" fill="#ADBDC4"></path>
                        </g>
                    </g>
                    <circle id="Oval" fill="#FFFFFF" mask="url(#mask-2)" cx="29" cy="37" r="13"></circle>
                    <circle id="Oval" fill="#FFFFFF" mask="url(#mask-2)" cx="67" cy="61" r="13"></circle>
                    <g id="Business-Central-logo" mask="url(#mask-2)" fill="#30404D">
                        <g transform="translate(58.000000, 52.000000)">
                            <path d="M12.3941125,5.60588745 L11.9698485,6.03015152 C11.9167255,5.97702856 11.8621861,5.92532206 11.8062918,5.87509351 C11.0624842,5.20668307 10.0787351,4.8 9,4.8 C6.68040405,4.8 4.8,6.68040405 4.8,9 C4.8,11.3195959 6.68040405,13.2 9,13.2 C10.159798,13.2 11.209798,12.729899 11.9698485,11.9698485 L12.3941134,12.3941134 C11.5254834,13.2627417 10.3254834,13.8 9,13.8 C6.3490332,13.8 4.2,11.6509668 4.2,9 C4.2,6.3490332 6.3490332,4.2 9,4.2 C10.2328401,4.2 11.3571248,4.66478065 12.2071906,5.4286783 C12.2710698,5.48608235 12.3334006,5.5451755 12.3941125,5.60588745 Z" id="Combined-Shape"></path>
                            <path d="M9,3.6 C8.00588745,3.6 7.2,2.79411255 7.2,1.8 C7.2,0.80588745 8.00588745,0 9,0 C9.46231503,0 9.88392181,0.174292744 10.2026965,0.460754363 C10.5693806,0.790269017 10.8,1.26820248 10.8,1.8 C10.8,2.28477786 10.6083588,2.72479553 10.2967028,3.04842665 C9.96925959,3.38845158 9.50933469,3.6 9,3.6 Z M9,3 C9.33955646,3 9.64617306,2.85896772 9.86446853,2.63228444 C10.0722392,2.41653035 10.2,2.12318524 10.2,1.8 C10.2,1.44546832 10.0462537,1.12684601 9.80179765,0.907169575 C9.58928121,0.716195163 9.30821002,0.6 9,0.6 C8.3372583,0.6 7.8,1.1372583 7.8,1.8 C7.8,2.4627417 8.3372583,3 9,3 Z" id="Combined-Shape"></path>
                            <path d="M9,10.8 C8.00588745,10.8 7.2,9.99411255 7.2,9 C7.2,8.00588745 8.00588745,7.2 9,7.2 C9.46231503,7.2 9.88392181,7.37429274 10.2026965,7.66075436 C10.5693806,7.99026902 10.8,8.46820248 10.8,9 C10.8,9.48477786 10.6083588,9.92479553 10.2967028,10.2484267 C9.96925959,10.5884516 9.50933469,10.8 9,10.8 Z M9,10.2 C9.33955646,10.2 9.64617306,10.0589677 9.86446853,9.83228444 C10.0722392,9.61653035 10.2,9.32318524 10.2,9 C10.2,8.64546832 10.0462537,8.32684601 9.80179765,8.10716958 C9.58928121,7.91619516 9.30821002,7.8 9,7.8 C8.3372583,7.8 7.8,8.3372583 7.8,9 C7.8,9.6627417 8.3372583,10.2 9,10.2 Z" id="Combined-Shape"></path>
                            <path d="M16.2,10.8 C15.2058875,10.8 14.4,9.99411255 14.4,9 C14.4,8.00588745 15.2058875,7.2 16.2,7.2 C16.662315,7.2 17.0839218,7.37429274 17.4026965,7.66075436 C17.7693806,7.99026902 18,8.46820248 18,9 C18,9.48477786 17.8083588,9.92479553 17.4967028,10.2484267 C17.1692596,10.5884516 16.7093347,10.8 16.2,10.8 Z M16.2,10.2 C16.5395565,10.2 16.8461731,10.0589677 17.0644685,9.83228444 C17.2722392,9.61653035 17.4,9.32318524 17.4,9 C17.4,8.64546832 17.2462537,8.32684601 17.0017976,8.10716958 C16.7892812,7.91619516 16.50821,7.8 16.2,7.8 C15.5372583,7.8 15,8.3372583 15,9 C15,9.6627417 15.5372583,10.2 16.2,10.2 Z" id="Combined-Shape"></path>
                            <path d="M9,18 C8.00588745,18 7.2,17.1941125 7.2,16.2 C7.2,15.2058875 8.00588745,14.4 9,14.4 C9.46231503,14.4 9.88392181,14.5742927 10.2026965,14.8607544 C10.5693806,15.190269 10.8,15.6682025 10.8,16.2 C10.8,16.6847779 10.6083588,17.1247955 10.2967028,17.4484267 C9.96925959,17.7884516 9.50933469,18 9,18 Z M9,17.4 C9.33955646,17.4 9.64617306,17.2589677 9.86446853,17.0322844 C10.0722392,16.8165304 10.2,16.5231852 10.2,16.2 C10.2,15.8454683 10.0462537,15.526846 9.80179765,15.3071696 C9.58928121,15.1161952 9.30821002,15 9,15 C8.3372583,15 7.8,15.5372583 7.8,16.2 C7.8,16.8627417 8.3372583,17.4 9,17.4 Z" id="Combined-Shape"></path>
                            <rect id="Rectangle" x="10.2" y="8.4" width="4.8" height="1.2"></rect>
                            <polygon id="Rectangle" transform="translate(9.000000, 3.900000) rotate(90.000000) translate(-9.000000, -3.900000) " points="8.4 3.3 9.6 3.3 9.6 4.5 8.4 4.5"></polygon>
                            <rect id="Rectangle" x="3.3" y="8.4" width="1.2" height="1.2"></rect>
                            <polygon id="Rectangle" transform="translate(9.000000, 14.100000) rotate(90.000000) translate(-9.000000, -14.100000) " points="8.4 13.5 9.6 13.5 9.6 14.7 8.4 14.7"></polygon>
                            <path d="M1.8,10.8 C0.80588745,10.8 -2.90922841e-12,9.99411255 -2.90922841e-12,9 C-2.90922841e-12,8.00588745 0.80588745,7.2 1.8,7.2 C2.26231503,7.2 2.68392181,7.37429274 3.00269647,7.66075436 C3.36938057,7.99026902 3.6,8.46820248 3.6,9 C3.6,9.48477786 3.40835882,9.92479553 3.0967028,10.2484267 C2.76925959,10.5884516 2.30933469,10.8 1.8,10.8 Z M1.8,10.2 C2.13955646,10.2 2.44617306,10.0589677 2.66446853,9.83228444 C2.87223921,9.61653035 3,9.32318524 3,9 C3,8.64546832 2.84625371,8.32684601 2.60179765,8.10716958 C2.38928121,7.91619516 2.10821002,7.8 1.8,7.8 C1.1372583,7.8 0.6,8.3372583 0.6,9 C0.6,9.6627417 1.1372583,10.2 1.8,10.2 Z" id="Combined-Shape"></path>
                        </g>
                    </g>
                    <g id="outlook" mask="url(#mask-2)" fill="#0078D4">
                        <g transform="translate(20.000000, 28.000000)">
                            <path d="M-3.46744855e-12,2.06656108 L10.6666667,-3.41060513e-13 L10.6666667,18 L-3.46744855e-12,15.8306276 L-3.46744855e-12,2.06656108 Z M5.33333333,12.1318254 C6.89661475,12.1318254 7.83913443,10.8113525 7.83913443,8.99750544 C7.83913443,7.18365843 6.93673424,5.83592358 5.41771291,5.83592358 C3.89869157,5.83592358 2.99629138,7.18365843 2.99629138,8.99750544 C2.99629138,10.8113525 3.77005192,12.1318254 5.33333333,12.1318254 Z M5.37339845,10.9475351 C4.55239455,10.9475351 4.1460311,10.1223797 4.1460311,8.98891783 C4.1460311,7.85545595 4.6199535,7.0132647 5.41771291,7.0132647 C6.21547231,7.0132647 6.68939471,7.85545595 6.68939471,8.98891783 C6.68939471,10.1223797 6.19440236,10.9475351 5.37339845,10.9475351 Z" id="Combined-Shape"></path>
                            <path d="M17.9806481,6 C17.9806481,9.30487857 17.9806481,11.1628627 17.9806481,11.5739523 C17.9806481,12.1905867 18.2638206,13.3333333 16.6637348,13.3333333 C15.597011,13.3333333 13.8202105,13.3333333 11.3333333,13.3333333 L11.3333333,8.53952289 L11.649953,8.7385638 C12.3106934,9.15393395 13.1526964,9.14700984 13.8065163,8.72082955 L17.9806481,6 Z" id="Path-230"></path>
                            <path d="M11.3333333,3.40604143 L11.3333333,7.17720569 L12.650095,8 L17.9920857,4.21974723 C18.0572701,3.62880463 17.7197974,3.33333333 16.9796674,3.33333333 C16.2395374,3.33333333 14.357426,3.35756936 11.3333333,3.40604143 Z" id="Path-231"></path>
                        </g>
                    </g>
                </g>
                <g id="Dynamic-Border" stroke="#1D8E96" stroke-width="4">
                    <rect id="Azure-Border" x="2" y="2" width="96" height="96" rx="48"></rect>
                </g>
            </g>
        </g>
    </g>
</svg>