<?xml version="1.0" encoding="UTF-8"?>
<svg width="100px" height="100px" viewBox="0 0 100 100" version="1.1" xmlns="http://www.w3.org/2000/svg" xmlns:xlink="http://www.w3.org/1999/xlink">
    <!-- Generator: Sketch 55.2 (78181) - https://sketchapp.com -->
    <title>Process customer and vendor payments in Microsoft Dynamics 365 Business Central/enter-payments-in-the-cash-receipts-and-payment-journal-in-dynamics-365-business-central</title>
    <desc>Created with Sketch.</desc>
    <defs>
        <rect id="path-1" x="0" y="0" width="96" height="96" rx="48"></rect>
        <rect id="path-3" x="0" y="0" width="40" height="55"></rect>
        <filter x="-2.5%" y="-1.8%" width="105.0%" height="107.3%" filterUnits="objectBoundingBox" id="filter-4">
            <feOffset dx="0" dy="2" in="SourceAlpha" result="shadowOffsetOuter1"></feOffset>
            <feColorMatrix values="0 0 0 0 0   0 0 0 0 0   0 0 0 0 0  0 0 0 0.1 0" type="matrix" in="shadowOffsetOuter1"></feColorMatrix>
        </filter>
        <filter x="-21.1%" y="-21.1%" width="142.1%" height="142.1%" filterUnits="objectBoundingBox" id="filter-5">
            <feOffset dx="0" dy="2" in="SourceAlpha" result="shadowOffsetOuter1"></feOffset>
            <feColorMatrix values="0 0 0 0 0   0 0 0 0 0   0 0 0 0 0  0 0 0 0.0964956975 0" type="matrix" in="shadowOffsetOuter1" result="shadowMatrixOuter1"></feColorMatrix>
            <feMerge>
                <feMergeNode in="shadowMatrixOuter1"></feMergeNode>
                <feMergeNode in="SourceGraphic"></feMergeNode>
            </feMerge>
        </filter>
        <rect id="path-6" x="0" y="1" width="12" height="4"></rect>
        <filter x="-8.3%" y="-25.0%" width="116.7%" height="200.0%" filterUnits="objectBoundingBox" id="filter-7">
            <feOffset dx="0" dy="2" in="SourceAlpha" result="shadowOffsetOuter1"></feOffset>
            <feColorMatrix values="0 0 0 0 0   0 0 0 0 0   0 0 0 0 0  0 0 0 0.1 0" type="matrix" in="shadowOffsetOuter1"></feColorMatrix>
        </filter>
        <rect id="path-8" x="0" y="1" width="12" height="4"></rect>
        <filter x="-8.3%" y="-25.0%" width="116.7%" height="200.0%" filterUnits="objectBoundingBox" id="filter-9">
            <feOffset dx="0" dy="2" in="SourceAlpha" result="shadowOffsetOuter1"></feOffset>
            <feColorMatrix values="0 0 0 0 0   0 0 0 0 0   0 0 0 0 0  0 0 0 0.1 0" type="matrix" in="shadowOffsetOuter1"></feColorMatrix>
        </filter>
        <rect id="path-10" x="0" y="1" width="12" height="4"></rect>
        <filter x="-8.3%" y="-25.0%" width="116.7%" height="200.0%" filterUnits="objectBoundingBox" id="filter-11">
            <feOffset dx="0" dy="2" in="SourceAlpha" result="shadowOffsetOuter1"></feOffset>
            <feColorMatrix values="0 0 0 0 0   0 0 0 0 0   0 0 0 0 0  0 0 0 0.1 0" type="matrix" in="shadowOffsetOuter1"></feColorMatrix>
        </filter>
        <rect id="path-12" x="0" y="1" width="12" height="4"></rect>
        <filter x="-8.3%" y="-25.0%" width="116.7%" height="200.0%" filterUnits="objectBoundingBox" id="filter-13">
            <feOffset dx="0" dy="2" in="SourceAlpha" result="shadowOffsetOuter1"></feOffset>
            <feColorMatrix values="0 0 0 0 0   0 0 0 0 0   0 0 0 0 0  0 0 0 0.1 0" type="matrix" in="shadowOffsetOuter1"></feColorMatrix>
        </filter>
        <rect id="path-14" x="0" y="1" width="12" height="4"></rect>
        <filter x="-8.3%" y="-25.0%" width="116.7%" height="200.0%" filterUnits="objectBoundingBox" id="filter-15">
            <feOffset dx="0" dy="2" in="SourceAlpha" result="shadowOffsetOuter1"></feOffset>
            <feColorMatrix values="0 0 0 0 0   0 0 0 0 0   0 0 0 0 0  0 0 0 0.1 0" type="matrix" in="shadowOffsetOuter1"></feColorMatrix>
        </filter>
    </defs>
    <g id="Badges" stroke="none" stroke-width="1" fill="none" fill-rule="evenodd">
        <g id="Process-customer-and-vendor-payments-in-Microsoft-Dynamics-365-Business-Central" transform="translate(-50.000000, -260.000000)">
            <g id="Process-customer-and-vendor-payments-in-Microsoft-Dynamics-365-Business-Central/enter-payments-in-the-cash-receipts-and-payment-journal-in-dynamics-365-business-central" transform="translate(50.000000, 260.000000)">
                <g id="Mask" transform="translate(2.000000, 2.000000)">
                    <mask id="mask-2" fill="white">
                        <use xlink:href="#path-1"></use>
                    </mask>
                    <use id="BG" fill="#01B6C3" xlink:href="#path-1"></use>
                    <g id="Journal" mask="url(#mask-2)">
                        <g transform="translate(23.000000, 20.000000)">
                            <g id="Journal-Body-Copy" transform="translate(6.000000, 0.000000)">
                                <g id="Right-Side" fill-rule="nonzero">
                                    <use fill="black" fill-opacity="1" filter="url(#filter-4)" xlink:href="#path-3"></use>
                                    <use fill="#69994E" xlink:href="#path-3"></use>
                                </g>
                                <path d="M21,10.0612001 L21,46 C21,48.7614237 18.7614237,51 16,51 L0,51 L0,4 L0,2 C-1.3527075e-16,0.8954305 0.8954305,2.02906125e-16 2,0 L38,0 C39.1045695,-2.02906125e-16 40,0.8954305 40,2 L40,5 L26.0322057,5 L26,5 C23.2385763,5 21,7.23857625 21,10 L21,10.0612001 Z" id="Left-Side" fill="#7CB65A" fill-rule="nonzero"></path>
                            </g>
                            <g id="Coin-Money" filter="url(#filter-5)" transform="translate(17.000000, 16.000000)">
                                <path d="M9.5,-9.09494702e-13 C4.25332813,-9.09494702e-13 0,4.25332812 0,9.5 C0,14.7466719 4.25332813,19 9.5,19 C14.7466719,19 19,14.7466719 19,9.5 C19,4.25332812 14.7466719,-9.09494702e-13 9.5,-9.09494702e-13" id="Fill-21" fill="#F7CB64"></path>
                                <path d="M5.9375,18.1250191 C6.70358395,18.5370706 7.53255331,18.8355344 8.40624117,19 L14.84375,1.73998092 C14.1198691,1.24273855 13.3241592,0.854055344 12.4761845,0.59375 L5.9375,18.1250191" id="Fill-22" fill="#F2BE53"></path>
                                <path d="M9.16263629,19 C14.5956278,19 19,14.7413486 19,9.48811014 C19,6.65772841 17.719913,4.11745932 15.6906494,2.375 L8.90625,18.9937578 C8.9917121,18.9958385 9.07655936,19 9.16263629,19" id="Fill-23" fill="#F2BE53"></path>
                                <path d="M9.5,2.375 C5.57115625,2.375 2.375,5.57115625 2.375,9.5 C2.375,13.4288437 5.57115625,16.625 9.5,16.625 C13.4288438,16.625 16.625,13.4288437 16.625,9.5 C16.625,5.57115625 13.4288438,2.375 9.5,2.375 Z M9.5,17.8125 C4.91625,17.8125 1.1875,14.0834531 1.1875,9.5 C1.1875,4.91625 4.91625,1.1875 9.5,1.1875 C14.08375,1.1875 17.8125,4.91625 17.8125,9.5 C17.8125,14.0834531 14.08375,17.8125 9.5,17.8125 L9.5,17.8125 Z" id="Fill-24" fill="#EFB252"></path>
                            </g>
                            <g id="Ring-5" transform="translate(0.000000, 44.000000)">
                                <circle id="Oval" fill="#69994E" fill-rule="nonzero" cx="10" cy="3" r="3"></circle>
                                <g id="Rectangle" fill-rule="nonzero">
                                    <use fill="black" fill-opacity="1" filter="url(#filter-7)" xlink:href="#path-6"></use>
                                    <use fill="#E1E4E1" xlink:href="#path-6"></use>
                                </g>
                                <path d="M12,3 L6.66133815e-16,3 C-1.3527075e-16,1.8954305 0.8954305,1 2,1 L10,1 C11.1045695,1 12,1.8954305 12,3 Z" id="Combined-Shape" fill="#D3DAD8" fill-rule="nonzero"></path>
                            </g>
                            <g id="Ring-4" transform="translate(0.000000, 34.000000)">
                                <circle id="Oval" fill="#69994E" fill-rule="nonzero" cx="10" cy="3" r="3"></circle>
                                <g id="Rectangle" fill-rule="nonzero">
                                    <use fill="black" fill-opacity="1" filter="url(#filter-9)" xlink:href="#path-8"></use>
                                    <use fill="#E1E4E1" xlink:href="#path-8"></use>
                                </g>
                                <path d="M12,3 L6.66133815e-16,3 C-1.3527075e-16,1.8954305 0.8954305,1 2,1 L10,1 C11.1045695,1 12,1.8954305 12,3 Z" id="Combined-Shape" fill="#D3DAD8" fill-rule="nonzero"></path>
                            </g>
                            <g id="Ring-3" transform="translate(0.000000, 24.000000)">
                                <circle id="Oval" fill="#69994E" fill-rule="nonzero" cx="10" cy="3" r="3"></circle>
                                <g id="Rectangle" fill-rule="nonzero">
                                    <use fill="black" fill-opacity="1" filter="url(#filter-11)" xlink:href="#path-10"></use>
                                    <use fill="#E1E4E1" xlink:href="#path-10"></use>
                                </g>
                                <path d="M12,3 L6.66133815e-16,3 C-1.3527075e-16,1.8954305 0.8954305,1 2,1 L10,1 C11.1045695,1 12,1.8954305 12,3 Z" id="Combined-Shape" fill="#D3DAD8" fill-rule="nonzero"></path>
                            </g>
                            <g id="Ring-2" transform="translate(0.000000, 14.000000)">
                                <circle id="Oval" fill="#69994E" fill-rule="nonzero" cx="10" cy="3" r="3"></circle>
                                <g id="Rectangle" fill-rule="nonzero">
                                    <use fill="black" fill-opacity="1" filter="url(#filter-13)" xlink:href="#path-12"></use>
                                    <use fill="#E1E4E1" xlink:href="#path-12"></use>
                                </g>
                                <path d="M12,3 L6.66133815e-16,3 C-1.3527075e-16,1.8954305 0.8954305,1 2,1 L10,1 C11.1045695,1 12,1.8954305 12,3 Z" id="Combined-Shape" fill="#D3DAD8" fill-rule="nonzero"></path>
                            </g>
                            <g id="Ring-1" transform="translate(0.000000, 4.000000)">
                                <circle id="Oval" fill="#69994E" fill-rule="nonzero" cx="10" cy="3" r="3"></circle>
                                <g id="Rectangle" fill-rule="nonzero">
                                    <use fill="black" fill-opacity="1" filter="url(#filter-15)" xlink:href="#path-14"></use>
                                    <use fill="#E1E4E1" xlink:href="#path-14"></use>
                                </g>
                                <path d="M12,3 L6.66133815e-16,3 C-1.3527075e-16,1.8954305 0.8954305,1 2,1 L10,1 C11.1045695,1 12,1.8954305 12,3 Z" id="Combined-Shape" fill="#D3DAD8" fill-rule="nonzero"></path>
                            </g>
                        </g>
                    </g>
                </g>
                <g id="Dynamic-Border" stroke="#1D8E96" stroke-width="4">
                    <rect id="Azure-Border" x="2" y="2" width="96" height="96" rx="48"></rect>
                </g>
            </g>
        </g>
    </g>
</svg>