<?xml version="1.0" encoding="UTF-8"?>
<svg width="100px" height="100px" viewBox="0 0 100 100" version="1.1" xmlns="http://www.w3.org/2000/svg" xmlns:xlink="http://www.w3.org/1999/xlink">
    <!-- Generator: Sketch 55.2 (78181) - https://sketchapp.com -->
    <title>Use multiple currencies in Microsoft Dynamics 365 Business Central/process-foreign-currency-payments-in-dynamics-365-business-central</title>
    <desc>Created with Sketch.</desc>
    <defs>
        <rect id="path-1" x="0" y="0" width="96" height="96" rx="48"></rect>
        <filter x="-6.8%" y="-10.4%" width="113.6%" height="116.4%" filterUnits="objectBoundingBox" id="filter-3">
            <feOffset dx="0" dy="2" in="SourceAlpha" result="shadowOffsetOuter1"></feOffset>
            <feColorMatrix values="0 0 0 0 0   0 0 0 0 0   0 0 0 0 0  0 0 0 0.0964956975 0" type="matrix" in="shadowOffsetOuter1" result="shadowMatrixOuter1"></feColorMatrix>
            <feMerge>
                <feMergeNode in="shadowMatrixOuter1"></feMergeNode>
                <feMergeNode in="SourceGraphic"></feMergeNode>
            </feMerge>
        </filter>
        <filter x="-8.3%" y="-12.9%" width="116.7%" height="125.8%" filterUnits="objectBoundingBox" id="filter-4">
            <feOffset dx="0" dy="2" in="SourceAlpha" result="shadowOffsetOuter1"></feOffset>
            <feColorMatrix values="0 0 0 0 0   0 0 0 0 0   0 0 0 0 0  0 0 0 0.0964956975 0" type="matrix" in="shadowOffsetOuter1" result="shadowMatrixOuter1"></feColorMatrix>
            <feMerge>
                <feMergeNode in="shadowMatrixOuter1"></feMergeNode>
                <feMergeNode in="SourceGraphic"></feMergeNode>
            </feMerge>
        </filter>
        <rect id="path-5" x="14" y="34" width="31" height="14"></rect>
        <filter x="-3.2%" y="-21.4%" width="106.5%" height="128.6%" filterUnits="objectBoundingBox" id="filter-6">
            <feOffset dx="0" dy="-2" in="SourceAlpha" result="shadowOffsetOuter1"></feOffset>
            <feColorMatrix values="0 0 0 0 0   0 0 0 0 0   0 0 0 0 0  0 0 0 0.1 0" type="matrix" in="shadowOffsetOuter1"></feColorMatrix>
        </filter>
    </defs>
    <g id="Badges" stroke="none" stroke-width="1" fill="none" fill-rule="evenodd">
        <g id="Use-multiple-currencies-in-Microsoft-Dynamics-365-Business-Central" transform="translate(-50.000000, -460.000000)">
            <g id="Use-multiple-currencies-in-Microsoft-Dynamics-365-Business-Central/process-foreign-currency-payments-in-dynamics-365-business-central" transform="translate(50.000000, 460.000000)">
                <g id="Mask" transform="translate(2.000000, 2.000000)">
                    <mask id="mask-2" fill="white">
                        <use xlink:href="#path-1"></use>
                    </mask>
                    <use id="BG" fill="#01B6C3" xlink:href="#path-1"></use>
                    <g id="Monitor" filter="url(#filter-3)" mask="url(#mask-2)">
                        <g transform="translate(18.000000, 14.000000)">
                            <path d="M0.571428571,54.4 C0.571428571,56.38 2.20267857,58 4.19642857,58 L54.9464286,58 C56.9401786,58 58.5714286,56.38 58.5714286,54.4 L58.5714286,49 L0.571428571,49 L0.571428571,54.4 Z" id="Fill-1285" fill="#E1E4E1" fill-rule="evenodd"></path>
                            <path d="M5.13392857,17 C3.17455357,17 1.57142857,18.6 1.57142857,20.5555556 L1.57142857,49 L58.5714286,49 L58.5714286,20.5555556 C58.5714286,18.6 56.9683036,17 55.0089286,17 L5.13392857,17 Z M55.0089286,18.7777778 C55.9912879,18.7777778 56.7901786,19.5751111 56.7901786,20.5555556 L56.7901786,47.2222222 L3.35267857,47.2222222 L3.35267857,20.5555556 C3.35267857,19.5751111 4.1515692,18.7777778 5.13392857,18.7777778 L55.0089286,18.7777778 L55.0089286,18.7777778 Z" id="Fill-1287" fill="#182A37" fill-rule="evenodd"></path>
                            <path d="M3,20.4766801 C3,19.4770863 3.8073,18.6641801 4.8,18.6641801 L55.2,18.6641801 C56.1927,18.6641801 57,19.4770863 57,20.4766801 L57,48 L3,48 L3,20.8125" id="Fill-1288" fill="#30404D" fill-rule="evenodd"></path>
                            <path d="M3.76936949,18.9884946 L28,18.9884946 L19.3495526,47.9884946 L2,47.9884946 L2,20.8009946 C2,19.8014008 2.79356222,18.9884946 3.76936949,18.9884946" id="Fill-1289" fill="#384B58" fill-rule="evenodd"></path>
                            <path d="M28.6006215,17 L28.0469027,18.7777778 L4.19642857,18.7777778 C3.19683482,18.7777778 2.38392857,19.5751111 2.38392857,20.5555556 L2.38392857,47.2222222 L20.1563973,47.2222222 L19.6026786,49 L0.571428571,49 L0.571428571,20.5555556 C0.571428571,18.6 2.20267857,17 4.19642857,17 L28.6006215,17 Z" id="Fill-1290" fill="#30404D" fill-rule="evenodd"></path>
                            <polyline id="Fill-1291" fill="#E1E4E1" fill-rule="evenodd" points="36.5714286 66 22.5714286 66 24.3214286 58 34.8214286 58 36.5714286 66"></polyline>
                            <path d="M34.7714978,58 L24.3075181,58 L23.9070335,59.7777778 L27.5717747,59.7777778 C28.5662365,59.7777778 29.3717055,60.5733333 29.3717055,61.5555556 L29.3717055,66 L36.5714286,66 L34.7714978,58 Z" id="Fill-1292" fill="#CDD6D8" fill-rule="evenodd"></path>
                            <g id="Paper-Money" filter="url(#filter-4)" stroke-width="1" fill="none" fill-rule="evenodd" transform="translate(29.100000, 24.000000) rotate(-270.000000) translate(-29.100000, -24.000000) translate(5.100000, 8.500000)">
                                <path d="M2.46666667,28.6 C1.6578,28.6 1,27.9521667 1,27.1555556 L1,4.04444444 C1,3.24783333 1.6578,2.6 2.46666667,2.6 L43.5333333,2.6 C44.3422,2.6 45,3.24783333 45,4.04444444 L45,27.1555556 C45,27.9521667 44.3422,28.6 43.5333333,28.6 L2.46666667,28.6" id="Fill-1427" fill="#7CB65A"></path>
                                <path d="M26.4697798,14.9114357 C26.4697798,17.1165852 24.6797798,18.9111023 22.4697798,18.9117689 C20.2597798,18.9117689 18.4711131,17.1205849 18.4697798,14.9114357 C18.4711131,12.7016199 20.2597798,10.9117689 22.4697798,10.9117689 C24.6797798,10.9111025 26.4697798,12.7016199 26.4697798,14.9114357 Z M16.4697798,14.9117689 C16.4691802,18.2255689 19.15538,20.9117689 22.4697798,20.9117689 C25.7835795,20.9117689 28.4709794,18.2255689 28.4697798,14.9129689 C28.4709794,11.5985689 25.7835795,8.91176893 22.4697798,8.91176893 C19.15658,8.91176893 16.4685802,11.5985689 16.4697798,14.9117689 L16.4697798,14.9117689 Z" id="Fill-1428" fill="#69994E"></path>
                                <path d="M13,15.1 C13,16.4791667 11.8816667,17.6 10.5,17.6 C9.11833333,17.6 8,16.4791667 8,15.1 C8,13.7175 9.11833333,12.6 10.5,12.6 C11.8816667,12.6 13,13.7175 13,15.1" id="Fill-1429" fill="#69994E"></path>
                                <path d="M39,15.1 C39,16.4791667 37.8816667,17.6 36.5,17.6 C35.1183333,17.6 34,16.4791667 34,15.1 C34,13.7175 35.1183333,12.6 36.5,12.6 C37.8816667,12.6 39,13.7175 39,15.1" id="Fill-1430" fill="#69994E"></path>
                                <path d="M26.4697798,14.9114357 C26.4697798,17.1165852 24.6797798,18.9111023 22.4697798,18.9117689 C20.2597798,18.9117689 18.4711131,17.1205849 18.4697798,14.9114357 C18.4711131,12.7016199 20.2597798,10.9117689 22.4697798,10.9117689 C24.6797798,10.9111025 26.4697798,12.7016199 26.4697798,14.9114357" id="Fill-1431" fill="#99C869"></path>
                                <path d="M39.5907813,27.1 L8.40848437,27.1 C7.84742187,24.57775 5.90646875,22.5955 3.4375,22.0225 L3.4375,8.17825 C5.90720312,7.6045 7.84889062,5.62225 8.40921875,3.1 L39.5907813,3.1 C40.1525781,5.62225 42.0935312,7.6045 44.5625,8.1775 L44.5625,22.0225 C42.0927969,22.59625 40.1518437,24.5785 39.5907813,27.1 Z M44.5625,0.1 L3.4375,0.1 C1.821875,0.1 0.5,1.45 0.5,3.1 L0.5,27.1 C0.5,28.75 1.821875,30.1 3.4375,30.1 L44.5625,30.1 C46.178125,30.1 47.5,28.75 47.5,27.1 L47.5,3.1 C47.5,1.45 46.178125,0.1 44.5625,0.1 L44.5625,0.1 Z" id="Fill-1432" fill="#69994E"></path>
                            </g>
                            <g id="Rectangle" fill="none">
                                <use fill="black" fill-opacity="1" filter="url(#filter-6)" xlink:href="#path-5"></use>
                                <use fill="#30404D" fill-rule="evenodd" xlink:href="#path-5"></use>
                            </g>
                            <path d="M2.37391974,34.0208884 L23.6924097,33.9591528 L19.3495526,47.9884946 L2,47.9884946 C4.32142246,38.4257427 5.80740278,33.6443668 6.45794096,33.6443668 L2.37391974,34.0208884 Z" id="Fill-1289" fill="#384B58" fill-rule="evenodd"></path>
                            <path d="M40.5714286,66 C40.5714286,66.55 40.1776786,67 39.6964286,67 L20.4464286,67 C19.9651786,67 19.5714286,66.55 19.5714286,66 C19.5714286,65.45 19.9651786,65 20.4464286,65 L39.6964286,65 C40.1776786,65 40.5714286,65.45 40.5714286,66" id="Fill-1293" fill="#E1E4E1" fill-rule="evenodd"></path>
                            <path d="M20.4464286,67 L39.6964286,67 C40.1776786,67 40.5714286,66.55 40.5714286,66 L19.5714286,66 C19.5714286,66.55 19.9651786,67 20.4464286,67" id="Fill-1294" fill="#CDD6D8" fill-rule="evenodd"></path>
                        </g>
                    </g>
                </g>
                <g id="Dynamic-Border" stroke="#1D8E96" stroke-width="4">
                    <rect id="Azure-Border" x="2" y="2" width="96" height="96" rx="48"></rect>
                </g>
            </g>
        </g>
    </g>
</svg>