<?xml version="1.0" encoding="UTF-8"?>
<svg width="102px" height="102px" viewBox="0 0 102 102" version="1.1" xmlns="http://www.w3.org/2000/svg" xmlns:xlink="http://www.w3.org/1999/xlink">
    <title>Work with essential development standards for Microsoft Dynamics 365 Business Central/implement-the-data-and-process-model-in-dynamics-365-business-central</title>
    <defs>
        <rect id="path-1" x="0" y="0" width="94.3396226" height="94.3396226" rx="47.1698113"></rect>
        <filter x="-2.9%" y="-2.9%" width="106.4%" height="106.4%" filterUnits="objectBoundingBox" id="filter-3">
            <feMorphology radius="2.5" operator="dilate" in="SourceAlpha" result="shadowSpreadOuter1"></feMorphology>
            <feOffset dx="0.5" dy="0.5" in="shadowSpreadOuter1" result="shadowOffsetOuter1"></feOffset>
            <feMorphology radius="1" operator="erode" in="SourceAlpha" result="shadowInner"></feMorphology>
            <feOffset dx="0.5" dy="0.5" in="shadowInner" result="shadowInner"></feOffset>
            <feComposite in="shadowOffsetOuter1" in2="shadowInner" operator="out" result="shadowOffsetOuter1"></feComposite>
            <feColorMatrix values="0 0 0 0 0.821822822   0 0 0 0 0.831640661   0 0 0 0 0.835737288  0 0 0 1 0" type="matrix" in="shadowOffsetOuter1"></feColorMatrix>
        </filter>
        <linearGradient x1="77.8299825%" y1="11.1997378%" x2="-99.6885927%" y2="253.807911%" id="linearGradient-4">
            <stop stop-color="#FFFFFF" offset="0%"></stop>
            <stop stop-color="#000000" stop-opacity="0.5" offset="100%"></stop>
        </linearGradient>
        <rect id="path-5" x="0" y="0" width="94.3396226" height="94.3396226"></rect>
        <path d="M47.1698113,0 C73.2209788,0 94.3396226,21.1186439 94.3396226,47.1698113 C94.3396226,73.2209788 73.2209788,94.3396226 47.1698113,94.3396226 C21.1186439,94.3396226 0,73.2209788 0,47.1698113 C0,21.1186439 21.1186439,0 47.1698113,0 Z M47.1698113,3.77358491 C23.2027373,3.77358491 3.77358491,23.2027373 3.77358491,47.1698113 C3.77358491,71.1368854 23.2027373,90.5660377 47.1698113,90.5660377 C71.1368854,90.5660377 90.5660377,71.1368854 90.5660377,47.1698113 C90.5660377,23.2027373 71.1368854,3.77358491 47.1698113,3.77358491 Z" id="path-6"></path>
        <linearGradient x1="50%" y1="100%" x2="50%" y2="0%" id="linearGradient-8">
            <stop stop-color="#D2EBFF" offset="0%"></stop>
            <stop stop-color="#F0FFFD" offset="100%"></stop>
        </linearGradient>
        <path d="M74.7781746,43 L74.778,47.278 L93.2781746,47.2781746 L93.2781746,54.2781746 L74.778,54.278 L74.7781746,58.5563492 L67,50.7781746 L74.7781746,43 Z" id="path-9"></path>
        <filter x="-26.6%" y="-32.1%" width="153.3%" height="190.0%" filterUnits="objectBoundingBox" id="filter-10">
            <feOffset dx="0" dy="2" in="SourceAlpha" result="shadowOffsetOuter1"></feOffset>
            <feGaussianBlur stdDeviation="2" in="shadowOffsetOuter1" result="shadowBlurOuter1"></feGaussianBlur>
            <feColorMatrix values="0 0 0 0 0   0 0 0 0 0   0 0 0 0 0  0 0 0 0.1 0" type="matrix" in="shadowBlurOuter1"></feColorMatrix>
        </filter>
        <path d="M14.7781746,43 L14.778,47.278 L33.2781746,47.2781746 L33.2781746,54.2781746 L14.778,54.278 L14.7781746,58.5563492 L7,50.7781746 L14.7781746,43 Z" id="path-11"></path>
        <filter x="-26.6%" y="-32.1%" width="153.3%" height="190.0%" filterUnits="objectBoundingBox" id="filter-12">
            <feOffset dx="0" dy="2" in="SourceAlpha" result="shadowOffsetOuter1"></feOffset>
            <feGaussianBlur stdDeviation="2" in="shadowOffsetOuter1" result="shadowBlurOuter1"></feGaussianBlur>
            <feColorMatrix values="0 0 0 0 0   0 0 0 0 0   0 0 0 0 0  0 0 0 0.1 0" type="matrix" in="shadowBlurOuter1"></feColorMatrix>
        </filter>
        <filter x="-48.0%" y="-48.0%" width="196.0%" height="196.0%" filterUnits="objectBoundingBox" id="filter-13">
            <feOffset dx="0" dy="2" in="SourceAlpha" result="shadowOffsetOuter1"></feOffset>
            <feGaussianBlur stdDeviation="2" in="shadowOffsetOuter1" result="shadowBlurOuter1"></feGaussianBlur>
            <feColorMatrix values="0 0 0 0 0   0 0 0 0 0   0 0 0 0 0  0 0 0 0.1 0" type="matrix" in="shadowBlurOuter1" result="shadowMatrixOuter1"></feColorMatrix>
            <feMerge>
                <feMergeNode in="shadowMatrixOuter1"></feMergeNode>
                <feMergeNode in="SourceGraphic"></feMergeNode>
            </feMerge>
        </filter>
        <linearGradient x1="50%" y1="0%" x2="50%" y2="100%" id="linearGradient-14">
            <stop stop-color="#1E5CA5" offset="0%"></stop>
            <stop stop-color="#225496" offset="100%"></stop>
        </linearGradient>
        <path d="M24.4791667,13.6316872 L24.4791667,10.7510288 L21.6576274,9.72222222 L20.9646178,7.76748971 L22.3506371,4.73251029 L22.3506371,4.42386831 L21.4596247,3.49794239 L20.4201102,2.26337449 L20.0241047,2.26337449 L17.2520661,3.80658436 L15.3710399,3.24074074 L14.1335227,0 L11.4109848,0 L10.4704718,2.93209877 L8.39144284,3.80658436 L5.17389807,2.21193416 L3.24337121,4.218107 L3.24337121,4.5781893 L4.67889118,7.45884774 L3.83737948,9.61934156 L0.520833333,10.9053498 L0.520833333,13.7860082 L0.916838843,13.7860082 L3.83737948,14.8148148 L4.6293905,16.7695473 L3.14436983,20.1131687 L5.07489669,22.1707819 L5.4709022,22.1707819 L8.19344008,20.7304527 L10.1239669,21.5534979 L11.3119835,25 L14.084022,25 L14.084022,24.5884774 L15.0245351,21.5020576 L16.9055613,20.6790123 L20.1726067,22.2736626 L22.1031336,20.2674897 L22.1031336,19.8559671 L20.7171143,16.9753086 L21.2616219,14.9691358 L24.4791667,13.6316872 Z M12.6985387,16.0710957 C10.6359988,15.8400074 9.07738095,14.1107847 9.07738095,12.0535693 C9.07738095,9.99635384 10.6359988,8.26713112 12.6985387,8.03604281 C13.7756863,8.02235493 14.813479,8.43688237 15.5800361,9.18700452 C16.3465932,9.93712667 16.7780265,10.9603252 16.777938,12.0279799 L16.777938,12.0279799 C16.7919547,13.1044796 16.3666646,14.1409532 15.5985694,14.9022168 C14.8304741,15.6634804 13.784699,16.0849878 12.6985387,16.0710957 Z" id="path-15"></path>
        <filter x="0.0%" y="0.0%" width="100.0%" height="100.0%" filterUnits="objectBoundingBox" id="filter-16">
            <feOffset dx="0" dy="0" in="SourceAlpha" result="shadowOffsetOuter1"></feOffset>
            <feColorMatrix values="0 0 0 0 0   0 0 0 0 0   0 0 0 0 0  0 0 0 0.1 0" type="matrix" in="shadowOffsetOuter1"></feColorMatrix>
        </filter>
        <linearGradient x1="50%" y1="0%" x2="50%" y2="100%" id="linearGradient-17">
            <stop stop-color="#B3DC93" offset="0%"></stop>
            <stop stop-color="#7CB65A" offset="100%"></stop>
        </linearGradient>
    </defs>
    <g id="Badges" stroke="none" stroke-width="1" fill="none" fill-rule="evenodd">
        <g id="Work-with-essential-development-standards-for-Microsoft-Dynamics-365-Business-Central" transform="translate(-159.000000, -699.000000)">
            <g id="Work-with-essential-development-standards-for-Microsoft-Dynamics-365-Business-Central/implement-the-data-and-process-model-in-dynamics-365-business-central" transform="translate(160.000000, 700.000000)">
                <g id="Badge-Plates/Circle">
                    <g id="BG" transform="translate(2.830189, 2.830189)">
                        <mask id="mask-2" fill="white">
                            <use xlink:href="#path-1"></use>
                        </mask>
                        <g>
                            <use fill="black" fill-opacity="1" filter="url(#filter-3)" xlink:href="#path-1"></use>
                            <rect stroke="#F2F1F0" stroke-width="2.5" x="-1.25" y="-1.25" width="96.8396226" height="96.8396226" rx="48.4198113"></rect>
                        </g>
                        <g id="Colors/Microsoft-365/BG-Solid-Badge" mask="url(#mask-2)">
                            <g id="Rectangle">
                                <use fill="#0078D4" xlink:href="#path-5"></use>
                                <use fill-opacity="0.4" fill="url(#linearGradient-4)" xlink:href="#path-5"></use>
                            </g>
                        </g>
                    </g>
                    <g id="Border" transform="translate(2.830189, 2.830189)">
                        <mask id="mask-7" fill="white">
                            <use xlink:href="#path-6"></use>
                        </mask>
                        <use id="Boarder" fill="#0078D4" fill-rule="nonzero" xlink:href="#path-6"></use>
                        <g id="Colors/Microsoft-365/Border" mask="url(#mask-7)" fill="#0076D7">
                            <rect id="Microsoft-365/Border" x="0" y="0" width="94.3396226" height="94.3396226"></rect>
                        </g>
                    </g>
                </g>
                <g id="Group-18" transform="translate(28.000000, 23.000000)" fill-rule="nonzero">
                    <g id="Group">
                        <path d="M24.9297652,0.0484968181 L2.10107416,0.0484968181 C1.10155753,0.0484968181 0.291289199,0.849314682 0.291289199,1.83717358 L0.291289199,50.1628264 C0.291289199,51.1506853 1.10155753,51.9515032 2.10107416,51.9515032 L41.4083335,51.9515032 C42.4078501,51.9515032 43.2181185,51.1506853 43.2181185,50.1628264 L43.2181185,18.1863068 C43.2181185,17.1984479 42.4078501,16.39763 41.4083335,16.39763 L28.3588314,16.39763 C27.3768502,16.39763 26.5807971,15.6108616 26.5807971,14.6403336 L26.5807971,1.83717358 C26.6001092,0.901578317 25.874194,0.115144283 24.9297652,0.0484968181 Z" id="Path" fill="url(#linearGradient-8)"></path>
                        <path d="M43.4634146,17.5102041 L25.7560976,0 L25.7560976,14.1875847 C25.7560976,16.0226167 27.2519157,17.5102041 29.0971008,17.5102041 L43.4634146,17.5102041 Z" id="Path" fill="#92C4FC"></path>
                    </g>
                </g>
                <path d="M32.6765137,30.2211914 L32.6765137,27 L32.2568359,27 C32.1279297,27.0981445 31.9836426,27.1882324 31.8239746,27.2702637 C31.6643066,27.3522949 31.4943848,27.4196777 31.314209,27.4724121 L31.314209,27.4724121 L31.314209,28.0568848 C31.3757324,28.0495605 31.4379883,28.0374756 31.5009766,28.0206299 C31.5639648,28.0037842 31.6247559,27.9832764 31.6833496,27.9591064 C31.7419434,27.9349365 31.7972412,27.9078369 31.8492432,27.8778076 C31.9012451,27.8477783 31.9462891,27.815918 31.984375,27.7822266 L31.984375,27.7822266 L31.984375,30.2211914 L32.6765137,30.2211914 Z M35.2333789,30.276123 C35.6069141,30.276123 35.8936572,30.1340332 36.0936084,29.8498535 C36.2935596,29.5656738 36.3935352,29.1569824 36.3935352,28.6237793 C36.3935352,27.5529785 36.0273242,27.0175781 35.2949023,27.0175781 C34.9096484,27.0175781 34.6155811,27.1607666 34.4127002,27.4471436 C34.2098193,27.7335205 34.1083789,28.1499023 34.1083789,28.6962891 C34.1083789,29.7495117 34.4833789,30.276123 35.2333789,30.276123 Z M35.2553516,29.7443848 C34.960918,29.7443848 34.8137012,29.3891602 34.8137012,28.6787109 C34.8137012,27.9243164 34.9638477,27.5471191 35.2641406,27.5471191 C35.5453906,27.5471191 35.6860156,27.9133301 35.6860156,28.645752 C35.6860156,29.3781738 35.5424609,29.7443848 35.2553516,29.7443848 Z M38.8932715,30.2211914 L38.8932715,27 L38.4735937,27 C38.3446875,27.0981445 38.2004004,27.1882324 38.0407324,27.2702637 C37.8810645,27.3522949 37.7111426,27.4196777 37.5309668,27.4724121 L37.5309668,27.4724121 L37.5309668,28.0568848 C37.5924902,28.0495605 37.6547461,28.0374756 37.7177344,28.0206299 C37.7807227,28.0037842 37.8415137,27.9832764 37.9001074,27.9591064 C37.9587012,27.9349365 38.013999,27.9078369 38.066001,27.8778076 C38.1180029,27.8477783 38.1630469,27.815918 38.2011328,27.7822266 L38.2011328,27.7822266 L38.2011328,30.2211914 L38.8932715,30.2211914 Z M41.4501367,30.276123 C41.8236719,30.276123 42.110415,30.1340332 42.3103662,29.8498535 C42.5103174,29.5656738 42.610293,29.1569824 42.610293,28.6237793 C42.610293,27.5529785 42.244082,27.0175781 41.5116602,27.0175781 C41.1264063,27.0175781 40.8323389,27.1607666 40.629458,27.4471436 C40.4265771,27.7335205 40.3251367,28.1499023 40.3251367,28.6962891 C40.3251367,29.7495117 40.7001367,30.276123 41.4501367,30.276123 Z M41.4721094,29.7443848 C41.1776758,29.7443848 41.030459,29.3891602 41.030459,28.6787109 C41.030459,27.9243164 41.1806055,27.5471191 41.4808984,27.5471191 C41.7621484,27.5471191 41.9027734,27.9133301 41.9027734,28.645752 C41.9027734,29.3781738 41.7592188,29.7443848 41.4721094,29.7443848 Z M45.1100293,30.2211914 L45.1100293,27 L44.6903516,27 C44.5614453,27.0981445 44.4171582,27.1882324 44.2574902,27.2702637 C44.0978223,27.3522949 43.9279004,27.4196777 43.7477246,27.4724121 L43.7477246,27.4724121 L43.7477246,28.0568848 C43.809248,28.0495605 43.8715039,28.0374756 43.9344922,28.0206299 C43.9974805,28.0037842 44.0582715,27.9832764 44.1168652,27.9591064 C44.175459,27.9349365 44.2307568,27.9078369 44.2827588,27.8778076 C44.3347607,27.8477783 44.3798047,27.815918 44.4178906,27.7822266 L44.4178906,27.7822266 L44.4178906,30.2211914 L45.1100293,30.2211914 Z M47.6668945,30.276123 C48.0404297,30.276123 48.3271729,30.1340332 48.527124,29.8498535 C48.7270752,29.5656738 48.8270508,29.1569824 48.8270508,28.6237793 C48.8270508,27.5529785 48.4608398,27.0175781 47.728418,27.0175781 C47.3431641,27.0175781 47.0490967,27.1607666 46.8462158,27.4471436 C46.643335,27.7335205 46.5418945,28.1499023 46.5418945,28.6962891 C46.5418945,29.7495117 46.9168945,30.276123 47.6668945,30.276123 Z M47.6888672,29.7443848 C47.3944336,29.7443848 47.2472168,29.3891602 47.2472168,28.6787109 C47.2472168,27.9243164 47.3973633,27.5471191 47.6976562,27.5471191 C47.9789062,27.5471191 48.1195312,27.9133301 48.1195312,28.645752 C48.1195312,29.3781738 47.9759766,29.7443848 47.6888672,29.7443848 Z M51.3267871,30.2211914 L51.3267871,27 L50.9071094,27 C50.7782031,27.0981445 50.633916,27.1882324 50.474248,27.2702637 C50.3145801,27.3522949 50.1446582,27.4196777 49.9644824,27.4724121 L49.9644824,27.4724121 L49.9644824,28.0568848 C50.0260059,28.0495605 50.0882617,28.0374756 50.15125,28.0206299 C50.2142383,28.0037842 50.2750293,27.9832764 50.333623,27.9591064 C50.3922168,27.9349365 50.4475146,27.9078369 50.4995166,27.8778076 C50.5515186,27.8477783 50.5965625,27.815918 50.6346484,27.7822266 L50.6346484,27.7822266 L50.6346484,30.2211914 L51.3267871,30.2211914 Z M32.125,36.276123 C32.4985352,36.276123 32.7852783,36.1340332 32.9852295,35.8498535 C33.1851807,35.5656738 33.2851562,35.1569824 33.2851562,34.6237793 C33.2851562,33.5529785 32.9189453,33.0175781 32.1865234,33.0175781 C31.8012695,33.0175781 31.5072021,33.1607666 31.3043213,33.4471436 C31.1014404,33.7335205 31,34.1499023 31,34.6962891 C31,35.7495117 31.375,36.276123 32.125,36.276123 Z M32.1469727,35.7443848 C31.8525391,35.7443848 31.7053223,35.3891602 31.7053223,34.6787109 C31.7053223,33.9243164 31.8554688,33.5471191 32.1557617,33.5471191 C32.4370117,33.5471191 32.5776367,33.9133301 32.5776367,34.645752 C32.5776367,35.3781738 32.434082,35.7443848 32.1469727,35.7443848 Z M35.7848926,36.2211914 L35.7848926,33 L35.3652148,33 C35.2363086,33.0981445 35.0920215,33.1882324 34.9323535,33.2702637 C34.7726855,33.3522949 34.6027637,33.4196777 34.4225879,33.4724121 L34.4225879,33.4724121 L34.4225879,34.0568848 C34.4841113,34.0495605 34.5463672,34.0374756 34.6093555,34.0206299 C34.6723438,34.0037842 34.7331348,33.9832764 34.7917285,33.9591064 C34.8503223,33.9349365 34.9056201,33.9078369 34.9576221,33.8778076 C35.009624,33.8477783 35.054668,33.815918 35.0927539,33.7822266 L35.0927539,33.7822266 L35.0927539,36.2211914 L35.7848926,36.2211914 Z M38.3417578,36.276123 C38.715293,36.276123 39.0020361,36.1340332 39.2019873,35.8498535 C39.4019385,35.5656738 39.5019141,35.1569824 39.5019141,34.6237793 C39.5019141,33.5529785 39.1357031,33.0175781 38.4032812,33.0175781 C38.0180273,33.0175781 37.72396,33.1607666 37.5210791,33.4471436 C37.3181982,33.7335205 37.2167578,34.1499023 37.2167578,34.6962891 C37.2167578,35.7495117 37.5917578,36.276123 38.3417578,36.276123 Z M38.3637305,35.7443848 C38.0692969,35.7443848 37.9220801,35.3891602 37.9220801,34.6787109 C37.9220801,33.9243164 38.0722266,33.5471191 38.3725195,33.5471191 C38.6537695,33.5471191 38.7943945,33.9133301 38.7943945,34.645752 C38.7943945,35.3781738 38.6508398,35.7443848 38.3637305,35.7443848 Z M42.0016504,36.2211914 L42.0016504,33 L41.5819727,33 C41.4530664,33.0981445 41.3087793,33.1882324 41.1491113,33.2702637 C40.9894434,33.3522949 40.8195215,33.4196777 40.6393457,33.4724121 L40.6393457,33.4724121 L40.6393457,34.0568848 C40.7008691,34.0495605 40.763125,34.0374756 40.8261133,34.0206299 C40.8891016,34.0037842 40.9498926,33.9832764 41.0084863,33.9591064 C41.0670801,33.9349365 41.1223779,33.9078369 41.1743799,33.8778076 C41.2263818,33.8477783 41.2714258,33.815918 41.3095117,33.7822266 L41.3095117,33.7822266 L41.3095117,36.2211914 L42.0016504,36.2211914 Z M44.5585156,36.276123 C44.9320508,36.276123 45.2187939,36.1340332 45.4187451,35.8498535 C45.6186963,35.5656738 45.7186719,35.1569824 45.7186719,34.6237793 C45.7186719,33.5529785 45.3524609,33.0175781 44.6200391,33.0175781 C44.2347852,33.0175781 43.9407178,33.1607666 43.7378369,33.4471436 C43.5349561,33.7335205 43.4335156,34.1499023 43.4335156,34.6962891 C43.4335156,35.7495117 43.8085156,36.276123 44.5585156,36.276123 Z M44.5804883,35.7443848 C44.2860547,35.7443848 44.1388379,35.3891602 44.1388379,34.6787109 C44.1388379,33.9243164 44.2889844,33.5471191 44.5892773,33.5471191 C44.8705273,33.5471191 45.0111523,33.9133301 45.0111523,34.645752 C45.0111523,35.3781738 44.8675977,35.7443848 44.5804883,35.7443848 Z M48.2184082,36.2211914 L48.2184082,33 L47.7987305,33 C47.6698242,33.0981445 47.5255371,33.1882324 47.3658691,33.2702637 C47.2062012,33.3522949 47.0362793,33.4196777 46.8561035,33.4724121 L46.8561035,33.4724121 L46.8561035,34.0568848 C46.917627,34.0495605 46.9798828,34.0374756 47.0428711,34.0206299 C47.1058594,34.0037842 47.1666504,33.9832764 47.2252441,33.9591064 C47.2838379,33.9349365 47.3391357,33.9078369 47.3911377,33.8778076 C47.4431396,33.8477783 47.4881836,33.815918 47.5262695,33.7822266 L47.5262695,33.7822266 L47.5262695,36.2211914 L48.2184082,36.2211914 Z M50.7752734,36.276123 C51.1488086,36.276123 51.4355518,36.1340332 51.6355029,35.8498535 C51.8354541,35.5656738 51.9354297,35.1569824 51.9354297,34.6237793 C51.9354297,33.5529785 51.5692188,33.0175781 50.8367969,33.0175781 C50.451543,33.0175781 50.1574756,33.1607666 49.9545947,33.4471436 C49.7517139,33.7335205 49.6502734,34.1499023 49.6502734,34.6962891 C49.6502734,35.7495117 50.0252734,36.276123 50.7752734,36.276123 Z M50.7972461,35.7443848 C50.5028125,35.7443848 50.3555957,35.3891602 50.3555957,34.6787109 C50.3555957,33.9243164 50.5057422,33.5471191 50.8060352,33.5471191 C51.0872852,33.5471191 51.2279102,33.9133301 51.2279102,34.645752 C51.2279102,35.3781738 51.0843555,35.7443848 50.7972461,35.7443848 Z" id="10101010101010" fill="#4B95E8" fill-rule="nonzero" opacity="0.669805618"></path>
                <path d="M32.6765137,42.2211914 L32.6765137,39 L32.2568359,39 C32.1279297,39.0981445 31.9836426,39.1882324 31.8239746,39.2702637 C31.6643066,39.3522949 31.4943848,39.4196777 31.314209,39.4724121 L31.314209,39.4724121 L31.314209,40.0568848 C31.3757324,40.0495605 31.4379883,40.0374756 31.5009766,40.0206299 C31.5639648,40.0037842 31.6247559,39.9832764 31.6833496,39.9591064 C31.7419434,39.9349365 31.7972412,39.9078369 31.8492432,39.8778076 C31.9012451,39.8477783 31.9462891,39.815918 31.984375,39.7822266 L31.984375,39.7822266 L31.984375,42.2211914 L32.6765137,42.2211914 Z M35.2333789,42.276123 C35.6069141,42.276123 35.8936572,42.1340332 36.0936084,41.8498535 C36.2935596,41.5656738 36.3935352,41.1569824 36.3935352,40.6237793 C36.3935352,39.5529785 36.0273242,39.0175781 35.2949023,39.0175781 C34.9096484,39.0175781 34.6155811,39.1607666 34.4127002,39.4471436 C34.2098193,39.7335205 34.1083789,40.1499023 34.1083789,40.6962891 C34.1083789,41.7495117 34.4833789,42.276123 35.2333789,42.276123 Z M35.2553516,41.7443848 C34.960918,41.7443848 34.8137012,41.3891602 34.8137012,40.6787109 C34.8137012,39.9243164 34.9638477,39.5471191 35.2641406,39.5471191 C35.5453906,39.5471191 35.6860156,39.9133301 35.6860156,40.645752 C35.6860156,41.3781738 35.5424609,41.7443848 35.2553516,41.7443848 Z M38.8932715,42.2211914 L38.8932715,39 L38.4735937,39 C38.3446875,39.0981445 38.2004004,39.1882324 38.0407324,39.2702637 C37.8810645,39.3522949 37.7111426,39.4196777 37.5309668,39.4724121 L37.5309668,39.4724121 L37.5309668,40.0568848 C37.5924902,40.0495605 37.6547461,40.0374756 37.7177344,40.0206299 C37.7807227,40.0037842 37.8415137,39.9832764 37.9001074,39.9591064 C37.9587012,39.9349365 38.013999,39.9078369 38.066001,39.8778076 C38.1180029,39.8477783 38.1630469,39.815918 38.2011328,39.7822266 L38.2011328,39.7822266 L38.2011328,42.2211914 L38.8932715,42.2211914 Z M41.4501367,42.276123 C41.8236719,42.276123 42.110415,42.1340332 42.3103662,41.8498535 C42.5103174,41.5656738 42.610293,41.1569824 42.610293,40.6237793 C42.610293,39.5529785 42.244082,39.0175781 41.5116602,39.0175781 C41.1264063,39.0175781 40.8323389,39.1607666 40.629458,39.4471436 C40.4265771,39.7335205 40.3251367,40.1499023 40.3251367,40.6962891 C40.3251367,41.7495117 40.7001367,42.276123 41.4501367,42.276123 Z M41.4721094,41.7443848 C41.1776758,41.7443848 41.030459,41.3891602 41.030459,40.6787109 C41.030459,39.9243164 41.1806055,39.5471191 41.4808984,39.5471191 C41.7621484,39.5471191 41.9027734,39.9133301 41.9027734,40.645752 C41.9027734,41.3781738 41.7592188,41.7443848 41.4721094,41.7443848 Z M45.1100293,42.2211914 L45.1100293,39 L44.6903516,39 C44.5614453,39.0981445 44.4171582,39.1882324 44.2574902,39.2702637 C44.0978223,39.3522949 43.9279004,39.4196777 43.7477246,39.4724121 L43.7477246,39.4724121 L43.7477246,40.0568848 C43.809248,40.0495605 43.8715039,40.0374756 43.9344922,40.0206299 C43.9974805,40.0037842 44.0582715,39.9832764 44.1168652,39.9591064 C44.175459,39.9349365 44.2307568,39.9078369 44.2827588,39.8778076 C44.3347607,39.8477783 44.3798047,39.815918 44.4178906,39.7822266 L44.4178906,39.7822266 L44.4178906,42.2211914 L45.1100293,42.2211914 Z M47.6668945,42.276123 C48.0404297,42.276123 48.3271729,42.1340332 48.527124,41.8498535 C48.7270752,41.5656738 48.8270508,41.1569824 48.8270508,40.6237793 C48.8270508,39.5529785 48.4608398,39.0175781 47.728418,39.0175781 C47.3431641,39.0175781 47.0490967,39.1607666 46.8462158,39.4471436 C46.643335,39.7335205 46.5418945,40.1499023 46.5418945,40.6962891 C46.5418945,41.7495117 46.9168945,42.276123 47.6668945,42.276123 Z M47.6888672,41.7443848 C47.3944336,41.7443848 47.2472168,41.3891602 47.2472168,40.6787109 C47.2472168,39.9243164 47.3973633,39.5471191 47.6976562,39.5471191 C47.9789062,39.5471191 48.1195312,39.9133301 48.1195312,40.645752 C48.1195312,41.3781738 47.9759766,41.7443848 47.6888672,41.7443848 Z M51.3267871,42.2211914 L51.3267871,39 L50.9071094,39 C50.7782031,39.0981445 50.633916,39.1882324 50.474248,39.2702637 C50.3145801,39.3522949 50.1446582,39.4196777 49.9644824,39.4724121 L49.9644824,39.4724121 L49.9644824,40.0568848 C50.0260059,40.0495605 50.0882617,40.0374756 50.15125,40.0206299 C50.2142383,40.0037842 50.2750293,39.9832764 50.333623,39.9591064 C50.3922168,39.9349365 50.4475146,39.9078369 50.4995166,39.8778076 C50.5515186,39.8477783 50.5965625,39.815918 50.6346484,39.7822266 L50.6346484,39.7822266 L50.6346484,42.2211914 L51.3267871,42.2211914 Z M32.125,48.276123 C32.4985352,48.276123 32.7852783,48.1340332 32.9852295,47.8498535 C33.1851807,47.5656738 33.2851562,47.1569824 33.2851562,46.6237793 C33.2851562,45.5529785 32.9189453,45.0175781 32.1865234,45.0175781 C31.8012695,45.0175781 31.5072021,45.1607666 31.3043213,45.4471436 C31.1014404,45.7335205 31,46.1499023 31,46.6962891 C31,47.7495117 31.375,48.276123 32.125,48.276123 Z M32.1469727,47.7443848 C31.8525391,47.7443848 31.7053223,47.3891602 31.7053223,46.6787109 C31.7053223,45.9243164 31.8554688,45.5471191 32.1557617,45.5471191 C32.4370117,45.5471191 32.5776367,45.9133301 32.5776367,46.645752 C32.5776367,47.3781738 32.434082,47.7443848 32.1469727,47.7443848 Z M35.7848926,48.2211914 L35.7848926,45 L35.3652148,45 C35.2363086,45.0981445 35.0920215,45.1882324 34.9323535,45.2702637 C34.7726855,45.3522949 34.6027637,45.4196777 34.4225879,45.4724121 L34.4225879,45.4724121 L34.4225879,46.0568848 C34.4841113,46.0495605 34.5463672,46.0374756 34.6093555,46.0206299 C34.6723438,46.0037842 34.7331348,45.9832764 34.7917285,45.9591064 C34.8503223,45.9349365 34.9056201,45.9078369 34.9576221,45.8778076 C35.009624,45.8477783 35.054668,45.815918 35.0927539,45.7822266 L35.0927539,45.7822266 L35.0927539,48.2211914 L35.7848926,48.2211914 Z M38.3417578,48.276123 C38.715293,48.276123 39.0020361,48.1340332 39.2019873,47.8498535 C39.4019385,47.5656738 39.5019141,47.1569824 39.5019141,46.6237793 C39.5019141,45.5529785 39.1357031,45.0175781 38.4032812,45.0175781 C38.0180273,45.0175781 37.72396,45.1607666 37.5210791,45.4471436 C37.3181982,45.7335205 37.2167578,46.1499023 37.2167578,46.6962891 C37.2167578,47.7495117 37.5917578,48.276123 38.3417578,48.276123 Z M38.3637305,47.7443848 C38.0692969,47.7443848 37.9220801,47.3891602 37.9220801,46.6787109 C37.9220801,45.9243164 38.0722266,45.5471191 38.3725195,45.5471191 C38.6537695,45.5471191 38.7943945,45.9133301 38.7943945,46.645752 C38.7943945,47.3781738 38.6508398,47.7443848 38.3637305,47.7443848 Z M42.0016504,48.2211914 L42.0016504,45 L41.5819727,45 C41.4530664,45.0981445 41.3087793,45.1882324 41.1491113,45.2702637 C40.9894434,45.3522949 40.8195215,45.4196777 40.6393457,45.4724121 L40.6393457,45.4724121 L40.6393457,46.0568848 C40.7008691,46.0495605 40.763125,46.0374756 40.8261133,46.0206299 C40.8891016,46.0037842 40.9498926,45.9832764 41.0084863,45.9591064 C41.0670801,45.9349365 41.1223779,45.9078369 41.1743799,45.8778076 C41.2263818,45.8477783 41.2714258,45.815918 41.3095117,45.7822266 L41.3095117,45.7822266 L41.3095117,48.2211914 L42.0016504,48.2211914 Z M44.5585156,48.276123 C44.9320508,48.276123 45.2187939,48.1340332 45.4187451,47.8498535 C45.6186963,47.5656738 45.7186719,47.1569824 45.7186719,46.6237793 C45.7186719,45.5529785 45.3524609,45.0175781 44.6200391,45.0175781 C44.2347852,45.0175781 43.9407178,45.1607666 43.7378369,45.4471436 C43.5349561,45.7335205 43.4335156,46.1499023 43.4335156,46.6962891 C43.4335156,47.7495117 43.8085156,48.276123 44.5585156,48.276123 Z M44.5804883,47.7443848 C44.2860547,47.7443848 44.1388379,47.3891602 44.1388379,46.6787109 C44.1388379,45.9243164 44.2889844,45.5471191 44.5892773,45.5471191 C44.8705273,45.5471191 45.0111523,45.9133301 45.0111523,46.645752 C45.0111523,47.3781738 44.8675977,47.7443848 44.5804883,47.7443848 Z M48.2184082,48.2211914 L48.2184082,45 L47.7987305,45 C47.6698242,45.0981445 47.5255371,45.1882324 47.3658691,45.2702637 C47.2062012,45.3522949 47.0362793,45.4196777 46.8561035,45.4724121 L46.8561035,45.4724121 L46.8561035,46.0568848 C46.917627,46.0495605 46.9798828,46.0374756 47.0428711,46.0206299 C47.1058594,46.0037842 47.1666504,45.9832764 47.2252441,45.9591064 C47.2838379,45.9349365 47.3391357,45.9078369 47.3911377,45.8778076 C47.4431396,45.8477783 47.4881836,45.815918 47.5262695,45.7822266 L47.5262695,45.7822266 L47.5262695,48.2211914 L48.2184082,48.2211914 Z M50.7752734,48.276123 C51.1488086,48.276123 51.4355518,48.1340332 51.6355029,47.8498535 C51.8354541,47.5656738 51.9354297,47.1569824 51.9354297,46.6237793 C51.9354297,45.5529785 51.5692188,45.0175781 50.8367969,45.0175781 C50.451543,45.0175781 50.1574756,45.1607666 49.9545947,45.4471436 C49.7517139,45.7335205 49.6502734,46.1499023 49.6502734,46.6962891 C49.6502734,47.7495117 50.0252734,48.276123 50.7752734,48.276123 Z M50.7972461,47.7443848 C50.5028125,47.7443848 50.3555957,47.3891602 50.3555957,46.6787109 C50.3555957,45.9243164 50.5057422,45.5471191 50.8060352,45.5471191 C51.0872852,45.5471191 51.2279102,45.9133301 51.2279102,46.645752 C51.2279102,47.3781738 51.0843555,47.7443848 50.7972461,47.7443848 Z M54.435166,48.2211914 L54.435166,45 L54.0154883,45 C53.886582,45.0981445 53.7422949,45.1882324 53.582627,45.2702637 C53.422959,45.3522949 53.2530371,45.4196777 53.0728613,45.4724121 L53.0728613,45.4724121 L53.0728613,46.0568848 C53.1343848,46.0495605 53.1966406,46.0374756 53.2596289,46.0206299 C53.3226172,46.0037842 53.3834082,45.9832764 53.442002,45.9591064 C53.5005957,45.9349365 53.5558936,45.9078369 53.6078955,45.8778076 C53.6598975,45.8477783 53.7049414,45.815918 53.7430273,45.7822266 L53.7430273,45.7822266 L53.7430273,48.2211914 L54.435166,48.2211914 Z M56.9920312,48.276123 C57.3655664,48.276123 57.6523096,48.1340332 57.8522607,47.8498535 C58.0522119,47.5656738 58.1521875,47.1569824 58.1521875,46.6237793 C58.1521875,45.5529785 57.7859766,45.0175781 57.0535547,45.0175781 C56.6683008,45.0175781 56.3742334,45.1607666 56.1713525,45.4471436 C55.9684717,45.7335205 55.8670312,46.1499023 55.8670312,46.6962891 C55.8670312,47.7495117 56.2420312,48.276123 56.9920312,48.276123 Z M57.0140039,47.7443848 C56.7195703,47.7443848 56.5723535,47.3891602 56.5723535,46.6787109 C56.5723535,45.9243164 56.7225,45.5471191 57.022793,45.5471191 C57.304043,45.5471191 57.444668,45.9133301 57.444668,46.645752 C57.444668,47.3781738 57.3011133,47.7443848 57.0140039,47.7443848 Z M60.6519238,48.2211914 L60.6519238,45 L60.2322461,45 C60.1033398,45.0981445 59.9590527,45.1882324 59.7993848,45.2702637 C59.6397168,45.3522949 59.4697949,45.4196777 59.2896191,45.4724121 L59.2896191,45.4724121 L59.2896191,46.0568848 C59.3511426,46.0495605 59.4133984,46.0374756 59.4763867,46.0206299 C59.539375,46.0037842 59.600166,45.9832764 59.6587598,45.9591064 C59.7173535,45.9349365 59.7726514,45.9078369 59.8246533,45.8778076 C59.8766553,45.8477783 59.9216992,45.815918 59.9597852,45.7822266 L59.9597852,45.7822266 L59.9597852,48.2211914 L60.6519238,48.2211914 Z M63.2087891,48.276123 C63.5823242,48.276123 63.8690674,48.1340332 64.0690186,47.8498535 C64.2689697,47.5656738 64.3689453,47.1569824 64.3689453,46.6237793 C64.3689453,45.5529785 64.0027344,45.0175781 63.2703125,45.0175781 C62.8850586,45.0175781 62.5909912,45.1607666 62.3881104,45.4471436 C62.1852295,45.7335205 62.0837891,46.1499023 62.0837891,46.6962891 C62.0837891,47.7495117 62.4587891,48.276123 63.2087891,48.276123 Z M63.2307617,47.7443848 C62.9363281,47.7443848 62.7891113,47.3891602 62.7891113,46.6787109 C62.7891113,45.9243164 62.9392578,45.5471191 63.2395508,45.5471191 C63.5208008,45.5471191 63.6614258,45.9133301 63.6614258,46.645752 C63.6614258,47.3781738 63.5178711,47.7443848 63.2307617,47.7443848 Z M66.8686816,48.2211914 L66.8686816,45 L66.4490039,45 C66.3200977,45.0981445 66.1758105,45.1882324 66.0161426,45.2702637 C65.8564746,45.3522949 65.6865527,45.4196777 65.506377,45.4724121 L65.506377,45.4724121 L65.506377,46.0568848 C65.5679004,46.0495605 65.6301562,46.0374756 65.6931445,46.0206299 C65.7561328,46.0037842 65.8169238,45.9832764 65.8755176,45.9591064 C65.9341113,45.9349365 65.9894092,45.9078369 66.0414111,45.8778076 C66.0934131,45.8477783 66.138457,45.815918 66.176543,45.7822266 L66.176543,45.7822266 L66.176543,48.2211914 L66.8686816,48.2211914 Z M32.6765137,54.2211914 L32.6765137,51 L32.2568359,51 C32.1279297,51.0981445 31.9836426,51.1882324 31.8239746,51.2702637 C31.6643066,51.3522949 31.4943848,51.4196777 31.314209,51.4724121 L31.314209,51.4724121 L31.314209,52.0568848 C31.3757324,52.0495605 31.4379883,52.0374756 31.5009766,52.0206299 C31.5639648,52.0037842 31.6247559,51.9832764 31.6833496,51.9591064 C31.7419434,51.9349365 31.7972412,51.9078369 31.8492432,51.8778076 C31.9012451,51.8477783 31.9462891,51.815918 31.984375,51.7822266 L31.984375,51.7822266 L31.984375,54.2211914 L32.6765137,54.2211914 Z M35.2333789,54.276123 C35.6069141,54.276123 35.8936572,54.1340332 36.0936084,53.8498535 C36.2935596,53.5656738 36.3935352,53.1569824 36.3935352,52.6237793 C36.3935352,51.5529785 36.0273242,51.0175781 35.2949023,51.0175781 C34.9096484,51.0175781 34.6155811,51.1607666 34.4127002,51.4471436 C34.2098193,51.7335205 34.1083789,52.1499023 34.1083789,52.6962891 C34.1083789,53.7495117 34.4833789,54.276123 35.2333789,54.276123 Z M35.2553516,53.7443848 C34.960918,53.7443848 34.8137012,53.3891602 34.8137012,52.6787109 C34.8137012,51.9243164 34.9638477,51.5471191 35.2641406,51.5471191 C35.5453906,51.5471191 35.6860156,51.9133301 35.6860156,52.645752 C35.6860156,53.3781738 35.5424609,53.7443848 35.2553516,53.7443848 Z M38.8932715,54.2211914 L38.8932715,51 L38.4735937,51 C38.3446875,51.0981445 38.2004004,51.1882324 38.0407324,51.2702637 C37.8810645,51.3522949 37.7111426,51.4196777 37.5309668,51.4724121 L37.5309668,51.4724121 L37.5309668,52.0568848 C37.5924902,52.0495605 37.6547461,52.0374756 37.7177344,52.0206299 C37.7807227,52.0037842 37.8415137,51.9832764 37.9001074,51.9591064 C37.9587012,51.9349365 38.013999,51.9078369 38.066001,51.8778076 C38.1180029,51.8477783 38.1630469,51.815918 38.2011328,51.7822266 L38.2011328,51.7822266 L38.2011328,54.2211914 L38.8932715,54.2211914 Z M41.4501367,54.276123 C41.8236719,54.276123 42.110415,54.1340332 42.3103662,53.8498535 C42.5103174,53.5656738 42.610293,53.1569824 42.610293,52.6237793 C42.610293,51.5529785 42.244082,51.0175781 41.5116602,51.0175781 C41.1264063,51.0175781 40.8323389,51.1607666 40.629458,51.4471436 C40.4265771,51.7335205 40.3251367,52.1499023 40.3251367,52.6962891 C40.3251367,53.7495117 40.7001367,54.276123 41.4501367,54.276123 Z M41.4721094,53.7443848 C41.1776758,53.7443848 41.030459,53.3891602 41.030459,52.6787109 C41.030459,51.9243164 41.1806055,51.5471191 41.4808984,51.5471191 C41.7621484,51.5471191 41.9027734,51.9133301 41.9027734,52.645752 C41.9027734,53.3781738 41.7592188,53.7443848 41.4721094,53.7443848 Z M45.1100293,54.2211914 L45.1100293,51 L44.6903516,51 C44.5614453,51.0981445 44.4171582,51.1882324 44.2574902,51.2702637 C44.0978223,51.3522949 43.9279004,51.4196777 43.7477246,51.4724121 L43.7477246,51.4724121 L43.7477246,52.0568848 C43.809248,52.0495605 43.8715039,52.0374756 43.9344922,52.0206299 C43.9974805,52.0037842 44.0582715,51.9832764 44.1168652,51.9591064 C44.175459,51.9349365 44.2307568,51.9078369 44.2827588,51.8778076 C44.3347607,51.8477783 44.3798047,51.815918 44.4178906,51.7822266 L44.4178906,51.7822266 L44.4178906,54.2211914 L45.1100293,54.2211914 Z M47.6668945,54.276123 C48.0404297,54.276123 48.3271729,54.1340332 48.527124,53.8498535 C48.7270752,53.5656738 48.8270508,53.1569824 48.8270508,52.6237793 C48.8270508,51.5529785 48.4608398,51.0175781 47.728418,51.0175781 C47.3431641,51.0175781 47.0490967,51.1607666 46.8462158,51.4471436 C46.643335,51.7335205 46.5418945,52.1499023 46.5418945,52.6962891 C46.5418945,53.7495117 46.9168945,54.276123 47.6668945,54.276123 Z M47.6888672,53.7443848 C47.3944336,53.7443848 47.2472168,53.3891602 47.2472168,52.6787109 C47.2472168,51.9243164 47.3973633,51.5471191 47.6976562,51.5471191 C47.9789062,51.5471191 48.1195312,51.9133301 48.1195312,52.645752 C48.1195312,53.3781738 47.9759766,53.7443848 47.6888672,53.7443848 Z M51.3267871,54.2211914 L51.3267871,51 L50.9071094,51 C50.7782031,51.0981445 50.633916,51.1882324 50.474248,51.2702637 C50.3145801,51.3522949 50.1446582,51.4196777 49.9644824,51.4724121 L49.9644824,51.4724121 L49.9644824,52.0568848 C50.0260059,52.0495605 50.0882617,52.0374756 50.15125,52.0206299 C50.2142383,52.0037842 50.2750293,51.9832764 50.333623,51.9591064 C50.3922168,51.9349365 50.4475146,51.9078369 50.4995166,51.8778076 C50.5515186,51.8477783 50.5965625,51.815918 50.6346484,51.7822266 L50.6346484,51.7822266 L50.6346484,54.2211914 L51.3267871,54.2211914 Z M53.8836523,54.276123 C54.2571875,54.276123 54.5439307,54.1340332 54.7438818,53.8498535 C54.943833,53.5656738 55.0438086,53.1569824 55.0438086,52.6237793 C55.0438086,51.5529785 54.6775977,51.0175781 53.9451758,51.0175781 C53.5599219,51.0175781 53.2658545,51.1607666 53.0629736,51.4471436 C52.8600928,51.7335205 52.7586523,52.1499023 52.7586523,52.6962891 C52.7586523,53.7495117 53.1336523,54.276123 53.8836523,54.276123 Z M53.905625,53.7443848 C53.6111914,53.7443848 53.4639746,53.3891602 53.4639746,52.6787109 C53.4639746,51.9243164 53.6141211,51.5471191 53.9144141,51.5471191 C54.1956641,51.5471191 54.3362891,51.9133301 54.3362891,52.645752 C54.3362891,53.3781738 54.1927344,53.7443848 53.905625,53.7443848 Z M57.5435449,54.2211914 L57.5435449,51 L57.1238672,51 C56.9949609,51.0981445 56.8506738,51.1882324 56.6910059,51.2702637 C56.5313379,51.3522949 56.361416,51.4196777 56.1812402,51.4724121 L56.1812402,51.4724121 L56.1812402,52.0568848 C56.2427637,52.0495605 56.3050195,52.0374756 56.3680078,52.0206299 C56.4309961,52.0037842 56.4917871,51.9832764 56.5503809,51.9591064 C56.6089746,51.9349365 56.6642725,51.9078369 56.7162744,51.8778076 C56.7682764,51.8477783 56.8133203,51.815918 56.8514062,51.7822266 L56.8514062,51.7822266 L56.8514062,54.2211914 L57.5435449,54.2211914 Z M60.1004102,54.276123 C60.4739453,54.276123 60.7606885,54.1340332 60.9606396,53.8498535 C61.1605908,53.5656738 61.2605664,53.1569824 61.2605664,52.6237793 C61.2605664,51.5529785 60.8943555,51.0175781 60.1619336,51.0175781 C59.7766797,51.0175781 59.4826123,51.1607666 59.2797314,51.4471436 C59.0768506,51.7335205 58.9754102,52.1499023 58.9754102,52.6962891 C58.9754102,53.7495117 59.3504102,54.276123 60.1004102,54.276123 Z M60.1223828,53.7443848 C59.8279492,53.7443848 59.6807324,53.3891602 59.6807324,52.6787109 C59.6807324,51.9243164 59.8308789,51.5471191 60.1311719,51.5471191 C60.4124219,51.5471191 60.5530469,51.9133301 60.5530469,52.645752 C60.5530469,53.3781738 60.4094922,53.7443848 60.1223828,53.7443848 Z M63.7603027,54.2211914 L63.7603027,51 L63.340625,51 C63.2117187,51.0981445 63.0674316,51.1882324 62.9077637,51.2702637 C62.7480957,51.3522949 62.5781738,51.4196777 62.397998,51.4724121 L62.397998,51.4724121 L62.397998,52.0568848 C62.4595215,52.0495605 62.5217773,52.0374756 62.5847656,52.0206299 C62.6477539,52.0037842 62.7085449,51.9832764 62.7671387,51.9591064 C62.8257324,51.9349365 62.8810303,51.9078369 62.9330322,51.8778076 C62.9850342,51.8477783 63.0300781,51.815918 63.0681641,51.7822266 L63.0681641,51.7822266 L63.0681641,54.2211914 L63.7603027,54.2211914 Z M66.317168,54.276123 C66.6907031,54.276123 66.9774463,54.1340332 67.1773975,53.8498535 C67.3773486,53.5656738 67.4773242,53.1569824 67.4773242,52.6237793 C67.4773242,51.5529785 67.1111133,51.0175781 66.3786914,51.0175781 C65.9934375,51.0175781 65.6993701,51.1607666 65.4964893,51.4471436 C65.2936084,51.7335205 65.192168,52.1499023 65.192168,52.6962891 C65.192168,53.7495117 65.567168,54.276123 66.317168,54.276123 Z M66.3391406,53.7443848 C66.044707,53.7443848 65.8974902,53.3891602 65.8974902,52.6787109 C65.8974902,51.9243164 66.0476367,51.5471191 66.3479297,51.5471191 C66.6291797,51.5471191 66.7698047,51.9133301 66.7698047,52.645752 C66.7698047,53.3781738 66.62625,53.7443848 66.3391406,53.7443848 Z M32.125,60.276123 C32.4985352,60.276123 32.7852783,60.1340332 32.9852295,59.8498535 C33.1851807,59.5656738 33.2851562,59.1569824 33.2851562,58.6237793 C33.2851562,57.5529785 32.9189453,57.0175781 32.1865234,57.0175781 C31.8012695,57.0175781 31.5072021,57.1607666 31.3043213,57.4471436 C31.1014404,57.7335205 31,58.1499023 31,58.6962891 C31,59.7495117 31.375,60.276123 32.125,60.276123 Z M32.1469727,59.7443848 C31.8525391,59.7443848 31.7053223,59.3891602 31.7053223,58.6787109 C31.7053223,57.9243164 31.8554688,57.5471191 32.1557617,57.5471191 C32.4370117,57.5471191 32.5776367,57.9133301 32.5776367,58.645752 C32.5776367,59.3781738 32.434082,59.7443848 32.1469727,59.7443848 Z M35.7848926,60.2211914 L35.7848926,57 L35.3652148,57 C35.2363086,57.0981445 35.0920215,57.1882324 34.9323535,57.2702637 C34.7726855,57.3522949 34.6027637,57.4196777 34.4225879,57.4724121 L34.4225879,57.4724121 L34.4225879,58.0568848 C34.4841113,58.0495605 34.5463672,58.0374756 34.6093555,58.0206299 C34.6723438,58.0037842 34.7331348,57.9832764 34.7917285,57.9591064 C34.8503223,57.9349365 34.9056201,57.9078369 34.9576221,57.8778076 C35.009624,57.8477783 35.054668,57.815918 35.0927539,57.7822266 L35.0927539,57.7822266 L35.0927539,60.2211914 L35.7848926,60.2211914 Z M38.3417578,60.276123 C38.715293,60.276123 39.0020361,60.1340332 39.2019873,59.8498535 C39.4019385,59.5656738 39.5019141,59.1569824 39.5019141,58.6237793 C39.5019141,57.5529785 39.1357031,57.0175781 38.4032812,57.0175781 C38.0180273,57.0175781 37.72396,57.1607666 37.5210791,57.4471436 C37.3181982,57.7335205 37.2167578,58.1499023 37.2167578,58.6962891 C37.2167578,59.7495117 37.5917578,60.276123 38.3417578,60.276123 Z M38.3637305,59.7443848 C38.0692969,59.7443848 37.9220801,59.3891602 37.9220801,58.6787109 C37.9220801,57.9243164 38.0722266,57.5471191 38.3725195,57.5471191 C38.6537695,57.5471191 38.7943945,57.9133301 38.7943945,58.645752 C38.7943945,59.3781738 38.6508398,59.7443848 38.3637305,59.7443848 Z M42.0016504,60.2211914 L42.0016504,57 L41.5819727,57 C41.4530664,57.0981445 41.3087793,57.1882324 41.1491113,57.2702637 C40.9894434,57.3522949 40.8195215,57.4196777 40.6393457,57.4724121 L40.6393457,57.4724121 L40.6393457,58.0568848 C40.7008691,58.0495605 40.763125,58.0374756 40.8261133,58.0206299 C40.8891016,58.0037842 40.9498926,57.9832764 41.0084863,57.9591064 C41.0670801,57.9349365 41.1223779,57.9078369 41.1743799,57.8778076 C41.2263818,57.8477783 41.2714258,57.815918 41.3095117,57.7822266 L41.3095117,57.7822266 L41.3095117,60.2211914 L42.0016504,60.2211914 Z M44.5585156,60.276123 C44.9320508,60.276123 45.2187939,60.1340332 45.4187451,59.8498535 C45.6186963,59.5656738 45.7186719,59.1569824 45.7186719,58.6237793 C45.7186719,57.5529785 45.3524609,57.0175781 44.6200391,57.0175781 C44.2347852,57.0175781 43.9407178,57.1607666 43.7378369,57.4471436 C43.5349561,57.7335205 43.4335156,58.1499023 43.4335156,58.6962891 C43.4335156,59.7495117 43.8085156,60.276123 44.5585156,60.276123 Z M44.5804883,59.7443848 C44.2860547,59.7443848 44.1388379,59.3891602 44.1388379,58.6787109 C44.1388379,57.9243164 44.2889844,57.5471191 44.5892773,57.5471191 C44.8705273,57.5471191 45.0111523,57.9133301 45.0111523,58.645752 C45.0111523,59.3781738 44.8675977,59.7443848 44.5804883,59.7443848 Z M48.2184082,60.2211914 L48.2184082,57 L47.7987305,57 C47.6698242,57.0981445 47.5255371,57.1882324 47.3658691,57.2702637 C47.2062012,57.3522949 47.0362793,57.4196777 46.8561035,57.4724121 L46.8561035,57.4724121 L46.8561035,58.0568848 C46.917627,58.0495605 46.9798828,58.0374756 47.0428711,58.0206299 C47.1058594,58.0037842 47.1666504,57.9832764 47.2252441,57.9591064 C47.2838379,57.9349365 47.3391357,57.9078369 47.3911377,57.8778076 C47.4431396,57.8477783 47.4881836,57.815918 47.5262695,57.7822266 L47.5262695,57.7822266 L47.5262695,60.2211914 L48.2184082,60.2211914 Z M50.7752734,60.276123 C51.1488086,60.276123 51.4355518,60.1340332 51.6355029,59.8498535 C51.8354541,59.5656738 51.9354297,59.1569824 51.9354297,58.6237793 C51.9354297,57.5529785 51.5692188,57.0175781 50.8367969,57.0175781 C50.451543,57.0175781 50.1574756,57.1607666 49.9545947,57.4471436 C49.7517139,57.7335205 49.6502734,58.1499023 49.6502734,58.6962891 C49.6502734,59.7495117 50.0252734,60.276123 50.7752734,60.276123 Z M50.7972461,59.7443848 C50.5028125,59.7443848 50.3555957,59.3891602 50.3555957,58.6787109 C50.3555957,57.9243164 50.5057422,57.5471191 50.8060352,57.5471191 C51.0872852,57.5471191 51.2279102,57.9133301 51.2279102,58.645752 C51.2279102,59.3781738 51.0843555,59.7443848 50.7972461,59.7443848 Z M54.435166,60.2211914 L54.435166,57 L54.0154883,57 C53.886582,57.0981445 53.7422949,57.1882324 53.582627,57.2702637 C53.422959,57.3522949 53.2530371,57.4196777 53.0728613,57.4724121 L53.0728613,57.4724121 L53.0728613,58.0568848 C53.1343848,58.0495605 53.1966406,58.0374756 53.2596289,58.0206299 C53.3226172,58.0037842 53.3834082,57.9832764 53.442002,57.9591064 C53.5005957,57.9349365 53.5558936,57.9078369 53.6078955,57.8778076 C53.6598975,57.8477783 53.7049414,57.815918 53.7430273,57.7822266 L53.7430273,57.7822266 L53.7430273,60.2211914 L54.435166,60.2211914 Z M56.9920312,60.276123 C57.3655664,60.276123 57.6523096,60.1340332 57.8522607,59.8498535 C58.0522119,59.5656738 58.1521875,59.1569824 58.1521875,58.6237793 C58.1521875,57.5529785 57.7859766,57.0175781 57.0535547,57.0175781 C56.6683008,57.0175781 56.3742334,57.1607666 56.1713525,57.4471436 C55.9684717,57.7335205 55.8670312,58.1499023 55.8670312,58.6962891 C55.8670312,59.7495117 56.2420312,60.276123 56.9920312,60.276123 Z M57.0140039,59.7443848 C56.7195703,59.7443848 56.5723535,59.3891602 56.5723535,58.6787109 C56.5723535,57.9243164 56.7225,57.5471191 57.022793,57.5471191 C57.304043,57.5471191 57.444668,57.9133301 57.444668,58.645752 C57.444668,59.3781738 57.3011133,59.7443848 57.0140039,59.7443848 Z M60.6519238,60.2211914 L60.6519238,57 L60.2322461,57 C60.1033398,57.0981445 59.9590527,57.1882324 59.7993848,57.2702637 C59.6397168,57.3522949 59.4697949,57.4196777 59.2896191,57.4724121 L59.2896191,57.4724121 L59.2896191,58.0568848 C59.3511426,58.0495605 59.4133984,58.0374756 59.4763867,58.0206299 C59.539375,58.0037842 59.600166,57.9832764 59.6587598,57.9591064 C59.7173535,57.9349365 59.7726514,57.9078369 59.8246533,57.8778076 C59.8766553,57.8477783 59.9216992,57.815918 59.9597852,57.7822266 L59.9597852,57.7822266 L59.9597852,60.2211914 L60.6519238,60.2211914 Z M63.2087891,60.276123 C63.5823242,60.276123 63.8690674,60.1340332 64.0690186,59.8498535 C64.2689697,59.5656738 64.3689453,59.1569824 64.3689453,58.6237793 C64.3689453,57.5529785 64.0027344,57.0175781 63.2703125,57.0175781 C62.8850586,57.0175781 62.5909912,57.1607666 62.3881104,57.4471436 C62.1852295,57.7335205 62.0837891,58.1499023 62.0837891,58.6962891 C62.0837891,59.7495117 62.4587891,60.276123 63.2087891,60.276123 Z M63.2307617,59.7443848 C62.9363281,59.7443848 62.7891113,59.3891602 62.7891113,58.6787109 C62.7891113,57.9243164 62.9392578,57.5471191 63.2395508,57.5471191 C63.5208008,57.5471191 63.6614258,57.9133301 63.6614258,58.645752 C63.6614258,59.3781738 63.5178711,59.7443848 63.2307617,59.7443848 Z M66.8686816,60.2211914 L66.8686816,57 L66.4490039,57 C66.3200977,57.0981445 66.1758105,57.1882324 66.0161426,57.2702637 C65.8564746,57.3522949 65.6865527,57.4196777 65.506377,57.4724121 L65.506377,57.4724121 L65.506377,58.0568848 C65.5679004,58.0495605 65.6301562,58.0374756 65.6931445,58.0206299 C65.7561328,58.0037842 65.8169238,57.9832764 65.8755176,57.9591064 C65.9341113,57.9349365 65.9894092,57.9078369 66.0414111,57.8778076 C66.0934131,57.8477783 66.138457,57.815918 66.176543,57.7822266 L66.176543,57.7822266 L66.176543,60.2211914 L66.8686816,60.2211914 Z M32.6765137,66.2211914 L32.6765137,63 L32.2568359,63 C32.1279297,63.0981445 31.9836426,63.1882324 31.8239746,63.2702637 C31.6643066,63.3522949 31.4943848,63.4196777 31.314209,63.4724121 L31.314209,63.4724121 L31.314209,64.0568848 C31.3757324,64.0495605 31.4379883,64.0374756 31.5009766,64.0206299 C31.5639648,64.0037842 31.6247559,63.9832764 31.6833496,63.9591064 C31.7419434,63.9349365 31.7972412,63.9078369 31.8492432,63.8778076 C31.9012451,63.8477783 31.9462891,63.815918 31.984375,63.7822266 L31.984375,63.7822266 L31.984375,66.2211914 L32.6765137,66.2211914 Z M35.2333789,66.276123 C35.6069141,66.276123 35.8936572,66.1340332 36.0936084,65.8498535 C36.2935596,65.5656738 36.3935352,65.1569824 36.3935352,64.6237793 C36.3935352,63.5529785 36.0273242,63.0175781 35.2949023,63.0175781 C34.9096484,63.0175781 34.6155811,63.1607666 34.4127002,63.4471436 C34.2098193,63.7335205 34.1083789,64.1499023 34.1083789,64.6962891 C34.1083789,65.7495117 34.4833789,66.276123 35.2333789,66.276123 Z M35.2553516,65.7443848 C34.960918,65.7443848 34.8137012,65.3891602 34.8137012,64.6787109 C34.8137012,63.9243164 34.9638477,63.5471191 35.2641406,63.5471191 C35.5453906,63.5471191 35.6860156,63.9133301 35.6860156,64.645752 C35.6860156,65.3781738 35.5424609,65.7443848 35.2553516,65.7443848 Z M38.8932715,66.2211914 L38.8932715,63 L38.4735937,63 C38.3446875,63.0981445 38.2004004,63.1882324 38.0407324,63.2702637 C37.8810645,63.3522949 37.7111426,63.4196777 37.5309668,63.4724121 L37.5309668,63.4724121 L37.5309668,64.0568848 C37.5924902,64.0495605 37.6547461,64.0374756 37.7177344,64.0206299 C37.7807227,64.0037842 37.8415137,63.9832764 37.9001074,63.9591064 C37.9587012,63.9349365 38.013999,63.9078369 38.066001,63.8778076 C38.1180029,63.8477783 38.1630469,63.815918 38.2011328,63.7822266 L38.2011328,63.7822266 L38.2011328,66.2211914 L38.8932715,66.2211914 Z M41.4501367,66.276123 C41.8236719,66.276123 42.110415,66.1340332 42.3103662,65.8498535 C42.5103174,65.5656738 42.610293,65.1569824 42.610293,64.6237793 C42.610293,63.5529785 42.244082,63.0175781 41.5116602,63.0175781 C41.1264063,63.0175781 40.8323389,63.1607666 40.629458,63.4471436 C40.4265771,63.7335205 40.3251367,64.1499023 40.3251367,64.6962891 C40.3251367,65.7495117 40.7001367,66.276123 41.4501367,66.276123 Z M41.4721094,65.7443848 C41.1776758,65.7443848 41.030459,65.3891602 41.030459,64.6787109 C41.030459,63.9243164 41.1806055,63.5471191 41.4808984,63.5471191 C41.7621484,63.5471191 41.9027734,63.9133301 41.9027734,64.645752 C41.9027734,65.3781738 41.7592188,65.7443848 41.4721094,65.7443848 Z M45.1100293,66.2211914 L45.1100293,63 L44.6903516,63 C44.5614453,63.0981445 44.4171582,63.1882324 44.2574902,63.2702637 C44.0978223,63.3522949 43.9279004,63.4196777 43.7477246,63.4724121 L43.7477246,63.4724121 L43.7477246,64.0568848 C43.809248,64.0495605 43.8715039,64.0374756 43.9344922,64.0206299 C43.9974805,64.0037842 44.0582715,63.9832764 44.1168652,63.9591064 C44.175459,63.9349365 44.2307568,63.9078369 44.2827588,63.8778076 C44.3347607,63.8477783 44.3798047,63.815918 44.4178906,63.7822266 L44.4178906,63.7822266 L44.4178906,66.2211914 L45.1100293,66.2211914 Z M47.6668945,66.276123 C48.0404297,66.276123 48.3271729,66.1340332 48.527124,65.8498535 C48.7270752,65.5656738 48.8270508,65.1569824 48.8270508,64.6237793 C48.8270508,63.5529785 48.4608398,63.0175781 47.728418,63.0175781 C47.3431641,63.0175781 47.0490967,63.1607666 46.8462158,63.4471436 C46.643335,63.7335205 46.5418945,64.1499023 46.5418945,64.6962891 C46.5418945,65.7495117 46.9168945,66.276123 47.6668945,66.276123 Z M47.6888672,65.7443848 C47.3944336,65.7443848 47.2472168,65.3891602 47.2472168,64.6787109 C47.2472168,63.9243164 47.3973633,63.5471191 47.6976562,63.5471191 C47.9789062,63.5471191 48.1195312,63.9133301 48.1195312,64.645752 C48.1195312,65.3781738 47.9759766,65.7443848 47.6888672,65.7443848 Z M51.3267871,66.2211914 L51.3267871,63 L50.9071094,63 C50.7782031,63.0981445 50.633916,63.1882324 50.474248,63.2702637 C50.3145801,63.3522949 50.1446582,63.4196777 49.9644824,63.4724121 L49.9644824,63.4724121 L49.9644824,64.0568848 C50.0260059,64.0495605 50.0882617,64.0374756 50.15125,64.0206299 C50.2142383,64.0037842 50.2750293,63.9832764 50.333623,63.9591064 C50.3922168,63.9349365 50.4475146,63.9078369 50.4995166,63.8778076 C50.5515186,63.8477783 50.5965625,63.815918 50.6346484,63.7822266 L50.6346484,63.7822266 L50.6346484,66.2211914 L51.3267871,66.2211914 Z M53.8836523,66.276123 C54.2571875,66.276123 54.5439307,66.1340332 54.7438818,65.8498535 C54.943833,65.5656738 55.0438086,65.1569824 55.0438086,64.6237793 C55.0438086,63.5529785 54.6775977,63.0175781 53.9451758,63.0175781 C53.5599219,63.0175781 53.2658545,63.1607666 53.0629736,63.4471436 C52.8600928,63.7335205 52.7586523,64.1499023 52.7586523,64.6962891 C52.7586523,65.7495117 53.1336523,66.276123 53.8836523,66.276123 Z M53.905625,65.7443848 C53.6111914,65.7443848 53.4639746,65.3891602 53.4639746,64.6787109 C53.4639746,63.9243164 53.6141211,63.5471191 53.9144141,63.5471191 C54.1956641,63.5471191 54.3362891,63.9133301 54.3362891,64.645752 C54.3362891,65.3781738 54.1927344,65.7443848 53.905625,65.7443848 Z M57.5435449,66.2211914 L57.5435449,63 L57.1238672,63 C56.9949609,63.0981445 56.8506738,63.1882324 56.6910059,63.2702637 C56.5313379,63.3522949 56.361416,63.4196777 56.1812402,63.4724121 L56.1812402,63.4724121 L56.1812402,64.0568848 C56.2427637,64.0495605 56.3050195,64.0374756 56.3680078,64.0206299 C56.4309961,64.0037842 56.4917871,63.9832764 56.5503809,63.9591064 C56.6089746,63.9349365 56.6642725,63.9078369 56.7162744,63.8778076 C56.7682764,63.8477783 56.8133203,63.815918 56.8514062,63.7822266 L56.8514062,63.7822266 L56.8514062,66.2211914 L57.5435449,66.2211914 Z M60.1004102,66.276123 C60.4739453,66.276123 60.7606885,66.1340332 60.9606396,65.8498535 C61.1605908,65.5656738 61.2605664,65.1569824 61.2605664,64.6237793 C61.2605664,63.5529785 60.8943555,63.0175781 60.1619336,63.0175781 C59.7766797,63.0175781 59.4826123,63.1607666 59.2797314,63.4471436 C59.0768506,63.7335205 58.9754102,64.1499023 58.9754102,64.6962891 C58.9754102,65.7495117 59.3504102,66.276123 60.1004102,66.276123 Z M60.1223828,65.7443848 C59.8279492,65.7443848 59.6807324,65.3891602 59.6807324,64.6787109 C59.6807324,63.9243164 59.8308789,63.5471191 60.1311719,63.5471191 C60.4124219,63.5471191 60.5530469,63.9133301 60.5530469,64.645752 C60.5530469,65.3781738 60.4094922,65.7443848 60.1223828,65.7443848 Z M63.7603027,66.2211914 L63.7603027,63 L63.340625,63 C63.2117187,63.0981445 63.0674316,63.1882324 62.9077637,63.2702637 C62.7480957,63.3522949 62.5781738,63.4196777 62.397998,63.4724121 L62.397998,63.4724121 L62.397998,64.0568848 C62.4595215,64.0495605 62.5217773,64.0374756 62.5847656,64.0206299 C62.6477539,64.0037842 62.7085449,63.9832764 62.7671387,63.9591064 C62.8257324,63.9349365 62.8810303,63.9078369 62.9330322,63.8778076 C62.9850342,63.8477783 63.0300781,63.815918 63.0681641,63.7822266 L63.0681641,63.7822266 L63.0681641,66.2211914 L63.7603027,66.2211914 Z M66.317168,66.276123 C66.6907031,66.276123 66.9774463,66.1340332 67.1773975,65.8498535 C67.3773486,65.5656738 67.4773242,65.1569824 67.4773242,64.6237793 C67.4773242,63.5529785 67.1111133,63.0175781 66.3786914,63.0175781 C65.9934375,63.0175781 65.6993701,63.1607666 65.4964893,63.4471436 C65.2936084,63.7335205 65.192168,64.1499023 65.192168,64.6962891 C65.192168,65.7495117 65.567168,66.276123 66.317168,66.276123 Z M66.3391406,65.7443848 C66.044707,65.7443848 65.8974902,65.3891602 65.8974902,64.6787109 C65.8974902,63.9243164 66.0476367,63.5471191 66.3479297,63.5471191 C66.6291797,63.5471191 66.7698047,63.9133301 66.7698047,64.645752 C66.7698047,65.3781738 66.62625,65.7443848 66.3391406,65.7443848 Z M32.125,72.276123 C32.4985352,72.276123 32.7852783,72.1340332 32.9852295,71.8498535 C33.1851807,71.5656738 33.2851562,71.1569824 33.2851562,70.6237793 C33.2851562,69.5529785 32.9189453,69.0175781 32.1865234,69.0175781 C31.8012695,69.0175781 31.5072021,69.1607666 31.3043213,69.4471436 C31.1014404,69.7335205 31,70.1499023 31,70.6962891 C31,71.7495117 31.375,72.276123 32.125,72.276123 Z M32.1469727,71.7443848 C31.8525391,71.7443848 31.7053223,71.3891602 31.7053223,70.6787109 C31.7053223,69.9243164 31.8554688,69.5471191 32.1557617,69.5471191 C32.4370117,69.5471191 32.5776367,69.9133301 32.5776367,70.645752 C32.5776367,71.3781738 32.434082,71.7443848 32.1469727,71.7443848 Z M35.7848926,72.2211914 L35.7848926,69 L35.3652148,69 C35.2363086,69.0981445 35.0920215,69.1882324 34.9323535,69.2702637 C34.7726855,69.3522949 34.6027637,69.4196777 34.4225879,69.4724121 L34.4225879,69.4724121 L34.4225879,70.0568848 C34.4841113,70.0495605 34.5463672,70.0374756 34.6093555,70.0206299 C34.6723438,70.0037842 34.7331348,69.9832764 34.7917285,69.9591064 C34.8503223,69.9349365 34.9056201,69.9078369 34.9576221,69.8778076 C35.009624,69.8477783 35.054668,69.815918 35.0927539,69.7822266 L35.0927539,69.7822266 L35.0927539,72.2211914 L35.7848926,72.2211914 Z M38.3417578,72.276123 C38.715293,72.276123 39.0020361,72.1340332 39.2019873,71.8498535 C39.4019385,71.5656738 39.5019141,71.1569824 39.5019141,70.6237793 C39.5019141,69.5529785 39.1357031,69.0175781 38.4032812,69.0175781 C38.0180273,69.0175781 37.72396,69.1607666 37.5210791,69.4471436 C37.3181982,69.7335205 37.2167578,70.1499023 37.2167578,70.6962891 C37.2167578,71.7495117 37.5917578,72.276123 38.3417578,72.276123 Z M38.3637305,71.7443848 C38.0692969,71.7443848 37.9220801,71.3891602 37.9220801,70.6787109 C37.9220801,69.9243164 38.0722266,69.5471191 38.3725195,69.5471191 C38.6537695,69.5471191 38.7943945,69.9133301 38.7943945,70.645752 C38.7943945,71.3781738 38.6508398,71.7443848 38.3637305,71.7443848 Z M42.0016504,72.2211914 L42.0016504,69 L41.5819727,69 C41.4530664,69.0981445 41.3087793,69.1882324 41.1491113,69.2702637 C40.9894434,69.3522949 40.8195215,69.4196777 40.6393457,69.4724121 L40.6393457,69.4724121 L40.6393457,70.0568848 C40.7008691,70.0495605 40.763125,70.0374756 40.8261133,70.0206299 C40.8891016,70.0037842 40.9498926,69.9832764 41.0084863,69.9591064 C41.0670801,69.9349365 41.1223779,69.9078369 41.1743799,69.8778076 C41.2263818,69.8477783 41.2714258,69.815918 41.3095117,69.7822266 L41.3095117,69.7822266 L41.3095117,72.2211914 L42.0016504,72.2211914 Z M44.5585156,72.276123 C44.9320508,72.276123 45.2187939,72.1340332 45.4187451,71.8498535 C45.6186963,71.5656738 45.7186719,71.1569824 45.7186719,70.6237793 C45.7186719,69.5529785 45.3524609,69.0175781 44.6200391,69.0175781 C44.2347852,69.0175781 43.9407178,69.1607666 43.7378369,69.4471436 C43.5349561,69.7335205 43.4335156,70.1499023 43.4335156,70.6962891 C43.4335156,71.7495117 43.8085156,72.276123 44.5585156,72.276123 Z M44.5804883,71.7443848 C44.2860547,71.7443848 44.1388379,71.3891602 44.1388379,70.6787109 C44.1388379,69.9243164 44.2889844,69.5471191 44.5892773,69.5471191 C44.8705273,69.5471191 45.0111523,69.9133301 45.0111523,70.645752 C45.0111523,71.3781738 44.8675977,71.7443848 44.5804883,71.7443848 Z M48.2184082,72.2211914 L48.2184082,69 L47.7987305,69 C47.6698242,69.0981445 47.5255371,69.1882324 47.3658691,69.2702637 C47.2062012,69.3522949 47.0362793,69.4196777 46.8561035,69.4724121 L46.8561035,69.4724121 L46.8561035,70.0568848 C46.917627,70.0495605 46.9798828,70.0374756 47.0428711,70.0206299 C47.1058594,70.0037842 47.1666504,69.9832764 47.2252441,69.9591064 C47.2838379,69.9349365 47.3391357,69.9078369 47.3911377,69.8778076 C47.4431396,69.8477783 47.4881836,69.815918 47.5262695,69.7822266 L47.5262695,69.7822266 L47.5262695,72.2211914 L48.2184082,72.2211914 Z M50.7752734,72.276123 C51.1488086,72.276123 51.4355518,72.1340332 51.6355029,71.8498535 C51.8354541,71.5656738 51.9354297,71.1569824 51.9354297,70.6237793 C51.9354297,69.5529785 51.5692188,69.0175781 50.8367969,69.0175781 C50.451543,69.0175781 50.1574756,69.1607666 49.9545947,69.4471436 C49.7517139,69.7335205 49.6502734,70.1499023 49.6502734,70.6962891 C49.6502734,71.7495117 50.0252734,72.276123 50.7752734,72.276123 Z M50.7972461,71.7443848 C50.5028125,71.7443848 50.3555957,71.3891602 50.3555957,70.6787109 C50.3555957,69.9243164 50.5057422,69.5471191 50.8060352,69.5471191 C51.0872852,69.5471191 51.2279102,69.9133301 51.2279102,70.645752 C51.2279102,71.3781738 51.0843555,71.7443848 50.7972461,71.7443848 Z M54.435166,72.2211914 L54.435166,69 L54.0154883,69 C53.886582,69.0981445 53.7422949,69.1882324 53.582627,69.2702637 C53.422959,69.3522949 53.2530371,69.4196777 53.0728613,69.4724121 L53.0728613,69.4724121 L53.0728613,70.0568848 C53.1343848,70.0495605 53.1966406,70.0374756 53.2596289,70.0206299 C53.3226172,70.0037842 53.3834082,69.9832764 53.442002,69.9591064 C53.5005957,69.9349365 53.5558936,69.9078369 53.6078955,69.8778076 C53.6598975,69.8477783 53.7049414,69.815918 53.7430273,69.7822266 L53.7430273,69.7822266 L53.7430273,72.2211914 L54.435166,72.2211914 Z M56.9920312,72.276123 C57.3655664,72.276123 57.6523096,72.1340332 57.8522607,71.8498535 C58.0522119,71.5656738 58.1521875,71.1569824 58.1521875,70.6237793 C58.1521875,69.5529785 57.7859766,69.0175781 57.0535547,69.0175781 C56.6683008,69.0175781 56.3742334,69.1607666 56.1713525,69.4471436 C55.9684717,69.7335205 55.8670312,70.1499023 55.8670312,70.6962891 C55.8670312,71.7495117 56.2420312,72.276123 56.9920312,72.276123 Z M57.0140039,71.7443848 C56.7195703,71.7443848 56.5723535,71.3891602 56.5723535,70.6787109 C56.5723535,69.9243164 56.7225,69.5471191 57.022793,69.5471191 C57.304043,69.5471191 57.444668,69.9133301 57.444668,70.645752 C57.444668,71.3781738 57.3011133,71.7443848 57.0140039,71.7443848 Z M60.6519238,72.2211914 L60.6519238,69 L60.2322461,69 C60.1033398,69.0981445 59.9590527,69.1882324 59.7993848,69.2702637 C59.6397168,69.3522949 59.4697949,69.4196777 59.2896191,69.4724121 L59.2896191,69.4724121 L59.2896191,70.0568848 C59.3511426,70.0495605 59.4133984,70.0374756 59.4763867,70.0206299 C59.539375,70.0037842 59.600166,69.9832764 59.6587598,69.9591064 C59.7173535,69.9349365 59.7726514,69.9078369 59.8246533,69.8778076 C59.8766553,69.8477783 59.9216992,69.815918 59.9597852,69.7822266 L59.9597852,69.7822266 L59.9597852,72.2211914 L60.6519238,72.2211914 Z M63.2087891,72.276123 C63.5823242,72.276123 63.8690674,72.1340332 64.0690186,71.8498535 C64.2689697,71.5656738 64.3689453,71.1569824 64.3689453,70.6237793 C64.3689453,69.5529785 64.0027344,69.0175781 63.2703125,69.0175781 C62.8850586,69.0175781 62.5909912,69.1607666 62.3881104,69.4471436 C62.1852295,69.7335205 62.0837891,70.1499023 62.0837891,70.6962891 C62.0837891,71.7495117 62.4587891,72.276123 63.2087891,72.276123 Z M63.2307617,71.7443848 C62.9363281,71.7443848 62.7891113,71.3891602 62.7891113,70.6787109 C62.7891113,69.9243164 62.9392578,69.5471191 63.2395508,69.5471191 C63.5208008,69.5471191 63.6614258,69.9133301 63.6614258,70.645752 C63.6614258,71.3781738 63.5178711,71.7443848 63.2307617,71.7443848 Z M66.8686816,72.2211914 L66.8686816,69 L66.4490039,69 C66.3200977,69.0981445 66.1758105,69.1882324 66.0161426,69.2702637 C65.8564746,69.3522949 65.6865527,69.4196777 65.506377,69.4724121 L65.506377,69.4724121 L65.506377,70.0568848 C65.5679004,70.0495605 65.6301562,70.0374756 65.6931445,70.0206299 C65.7561328,70.0037842 65.8169238,69.9832764 65.8755176,69.9591064 C65.9341113,69.9349365 65.9894092,69.9078369 66.0414111,69.8778076 C66.0934131,69.8477783 66.138457,69.815918 66.176543,69.7822266 L66.176543,69.7822266 L66.176543,72.2211914 L66.8686816,72.2211914 Z" id="1010101010101010101101010101010010101010101101010101010010101010101" fill="#4B95E8" fill-rule="nonzero" opacity="0.669805618"></path>
                <g id="Combined-Shape">
                    <use fill="black" fill-opacity="1" filter="url(#filter-10)" xlink:href="#path-9"></use>
                    <use fill="#FFFFFF" fill-rule="evenodd" xlink:href="#path-9"></use>
                </g>
                <g id="Combined-Shape" transform="translate(20.139087, 50.778175) scale(-1, 1) translate(-20.139087, -50.778175) ">
                    <use fill="black" fill-opacity="1" filter="url(#filter-12)" xlink:href="#path-11"></use>
                    <use fill="#FFFFFF" fill-rule="evenodd" xlink:href="#path-11"></use>
                </g>
                <g id="Gear" filter="url(#filter-13)" transform="translate(37.000000, 39.000000)">
                    <g fill-rule="nonzero" id="Shape">
                        <g>
                            <use fill="black" fill-opacity="1" filter="url(#filter-16)" xlink:href="#path-15"></use>
                            <use fill="url(#linearGradient-14)" xlink:href="#path-15"></use>
                        </g>
                    </g>
                    <circle id="Oval" fill="#FFFFFF" cx="12.5" cy="12.5" r="5.5"></circle>
                </g>
                <circle id="Oval-2" fill="url(#linearGradient-17)" cx="49.5" cy="51.5" r="5.5"></circle>
                <polyline id="Path-67" stroke="#FFFFFF" stroke-linecap="round" points="52 50 48.8231413 53 47 51.5206856"></polyline>
            </g>
        </g>
    </g>
</svg>