<?xml version="1.0" encoding="UTF-8"?>
<svg width="101px" height="101px" viewBox="0 0 101 101" version="1.1" xmlns="http://www.w3.org/2000/svg" xmlns:xlink="http://www.w3.org/1999/xlink">
    <!-- Generator: Sketch 64 (93537) - https://sketch.com -->
    <title>Learn the application foundation with the AL programming language for Microsoft Dynamics 365 Business Central/Introduction-to-the-basics-of-AL-programming-in-Dynamics-365-Business-Central</title>
    <desc>Created with Sketch.</desc>
    <defs>
        <rect id="path-1" x="0" y="0" width="94.3396226" height="94.3396226" rx="47.1698113"></rect>
        <linearGradient x1="77.8299825%" y1="11.1997378%" x2="-99.6885927%" y2="253.807911%" id="linearGradient-3">
            <stop stop-color="#FFFFFF" offset="0%"></stop>
            <stop stop-color="#000000" stop-opacity="0.5" offset="100%"></stop>
        </linearGradient>
        <rect id="path-4" x="0" y="0" width="94.3396226" height="94.3396226"></rect>
        <rect id="path-5" x="0" y="0" width="100" height="100" rx="50"></rect>
        <filter x="-0.5%" y="-0.5%" width="102.0%" height="102.0%" filterUnits="objectBoundingBox" id="filter-6">
            <feOffset dx="1" dy="1" in="SourceAlpha" result="shadowOffsetOuter1"></feOffset>
            <feMorphology radius="4" operator="erode" in="SourceAlpha" result="shadowInner"></feMorphology>
            <feOffset dx="1" dy="1" in="shadowInner" result="shadowInner"></feOffset>
            <feComposite in="shadowOffsetOuter1" in2="shadowInner" operator="out" result="shadowOffsetOuter1"></feComposite>
            <feColorMatrix values="0 0 0 0 0   0 0 0 0 0   0 0 0 0 0  0 0 0 0.15 0" type="matrix" in="shadowOffsetOuter1"></feColorMatrix>
        </filter>
        <path d="M50,2.83018868 C76.0511674,2.83018868 97.1698113,23.9488326 97.1698113,50 C97.1698113,76.0511674 76.0511674,97.1698113 50,97.1698113 C23.9488326,97.1698113 2.83018868,76.0511674 2.83018868,50 C2.83018868,23.9488326 23.9488326,2.83018868 50,2.83018868 Z M50,6.60377358 C26.032926,6.60377358 6.60377358,26.032926 6.60377358,50 C6.60377358,73.967074 26.032926,93.3962264 50,93.3962264 C73.967074,93.3962264 93.3962264,73.967074 93.3962264,50 C93.3962264,26.032926 73.967074,6.60377358 50,6.60377358 Z" id="path-7"></path>
        <filter x="-20.0%" y="-22.2%" width="140.0%" height="146.0%" filterUnits="objectBoundingBox" id="filter-9">
            <feOffset dx="0" dy="2" in="SourceAlpha" result="shadowOffsetOuter1"></feOffset>
            <feGaussianBlur stdDeviation="2" in="shadowOffsetOuter1" result="shadowBlurOuter1"></feGaussianBlur>
            <feColorMatrix values="0 0 0 0 0   0 0 0 0 0   0 0 0 0 0  0 0 0 0.1 0" type="matrix" in="shadowBlurOuter1" result="shadowMatrixOuter1"></feColorMatrix>
            <feMerge>
                <feMergeNode in="shadowMatrixOuter1"></feMergeNode>
                <feMergeNode in="SourceGraphic"></feMergeNode>
            </feMerge>
        </filter>
        <linearGradient x1="50%" y1="97.5691716%" x2="50%" y2="-5.30956676%" id="linearGradient-10">
            <stop stop-color="#0078D4" offset="0%"></stop>
            <stop stop-color="#1380DA" offset="16%"></stop>
            <stop stop-color="#3C91E5" offset="53%"></stop>
            <stop stop-color="#559CEC" offset="82%"></stop>
            <stop stop-color="#5EA0EF" offset="100%"></stop>
        </linearGradient>
        <linearGradient x1="50%" y1="100%" x2="50%" y2="0%" id="linearGradient-11">
            <stop stop-color="#D2EBFF" offset="0%"></stop>
            <stop stop-color="#F0FFFD" offset="100%"></stop>
        </linearGradient>
        <linearGradient x1="50%" y1="100%" x2="50%" y2="0%" id="linearGradient-12">
            <stop stop-color="#D2EBFF" offset="0%"></stop>
            <stop stop-color="#F0FFFD" offset="100%"></stop>
        </linearGradient>
        <linearGradient x1="50%" y1="97.5691716%" x2="50%" y2="-5.30956676%" id="linearGradient-13">
            <stop stop-color="#0078D4" offset="0%"></stop>
            <stop stop-color="#1380DA" offset="16%"></stop>
            <stop stop-color="#3C91E5" offset="53%"></stop>
            <stop stop-color="#559CEC" offset="82%"></stop>
            <stop stop-color="#5EA0EF" offset="100%"></stop>
        </linearGradient>
        <linearGradient x1="50%" y1="97.5691716%" x2="50%" y2="-5.30956676%" id="linearGradient-14">
            <stop stop-color="#0078D4" offset="0%"></stop>
            <stop stop-color="#1380DA" offset="16%"></stop>
            <stop stop-color="#3C91E5" offset="53%"></stop>
            <stop stop-color="#559CEC" offset="82%"></stop>
            <stop stop-color="#5EA0EF" offset="100%"></stop>
        </linearGradient>
        <filter x="-37.5%" y="-38.8%" width="175.0%" height="178.0%" filterUnits="objectBoundingBox" id="filter-15">
            <feOffset dx="0" dy="2" in="SourceAlpha" result="shadowOffsetOuter1"></feOffset>
            <feGaussianBlur stdDeviation="2" in="shadowOffsetOuter1" result="shadowBlurOuter1"></feGaussianBlur>
            <feColorMatrix values="0 0 0 0 0   0 0 0 0 0   0 0 0 0 0  0 0 0 0.1 0" type="matrix" in="shadowBlurOuter1" result="shadowMatrixOuter1"></feColorMatrix>
            <feMerge>
                <feMergeNode in="shadowMatrixOuter1"></feMergeNode>
                <feMergeNode in="SourceGraphic"></feMergeNode>
            </feMerge>
        </filter>
        <linearGradient x1="50%" y1="100%" x2="50%" y2="0%" id="linearGradient-16">
            <stop stop-color="#0078D4" offset="0%"></stop>
            <stop stop-color="#5EA0EF" offset="82%"></stop>
        </linearGradient>
        <linearGradient x1="50%" y1="100%" x2="50%" y2="0%" id="linearGradient-17">
            <stop stop-color="#CCCCCC" offset="15%"></stop>
            <stop stop-color="#707070" offset="100%"></stop>
        </linearGradient>
        <linearGradient x1="50%" y1="97.5691716%" x2="50%" y2="-5.30956676%" id="linearGradient-18">
            <stop stop-color="#5EA0EF" offset="0%"></stop>
            <stop stop-color="#559CEC" offset="18%"></stop>
            <stop stop-color="#3C91E5" offset="47%"></stop>
            <stop stop-color="#1380DA" offset="84%"></stop>
            <stop stop-color="#0078D4" offset="100%"></stop>
        </linearGradient>
    </defs>
    <g id="Badges" stroke="none" stroke-width="1" fill="none" fill-rule="evenodd">
        <g id="Learn-the-application-foundation-with-the-AL-programming-language-for-Microsoft-Dynamics-365-Business-Central" transform="translate(-160.000000, -320.000000)">
            <g id="Learn-the-application-foundation-with-the-AL-programming-language-for-Microsoft-Dynamics-365-Business-Central/Introduction-to-the-basics-of-AL-programming-in-Dynamics-365-Business-Central" transform="translate(160.000000, 320.000000)">
                <g id="Badge-Plates/Circle">
                    <g id="BG" transform="translate(2.830189, 2.830189)">
                        <mask id="mask-2" fill="white">
                            <use xlink:href="#path-1"></use>
                        </mask>
                        <g></g>
                        <g id="Colors/Dynamics-365/BG-Solid-Badges" mask="url(#mask-2)">
                            <g id="Rectangle">
                                <use fill="#01B6C3" xlink:href="#path-4"></use>
                                <use fill-opacity="0.4" fill="url(#linearGradient-3)" xlink:href="#path-4"></use>
                            </g>
                        </g>
                    </g>
                    <g id="Border">
                        <g id="White-Border">
                            <use fill="black" fill-opacity="1" filter="url(#filter-6)" xlink:href="#path-5"></use>
                            <rect stroke="#F2F1F0" stroke-width="4" stroke-linejoin="square" x="2" y="2" width="96" height="96" rx="48"></rect>
                        </g>
                        <mask id="mask-8" fill="white">
                            <use xlink:href="#path-7"></use>
                        </mask>
                        <use id="Boarder" fill="#0078D4" fill-rule="nonzero" xlink:href="#path-7"></use>
                        <g id="Colors/Dynamics-365/Border" mask="url(#mask-8)" fill="#008372">
                            <g transform="translate(2.830189, 2.830189)" id="Rectangle">
                                <rect x="0" y="0" width="94.3396226" height="94.3396226"></rect>
                            </g>
                        </g>
                    </g>
                </g>
                <g id="Presentation-" filter="url(#filter-9)" transform="translate(20.000000, 19.000000)">
                    <g id="Group-15">
                        <ellipse id="Oval" stroke="url(#linearGradient-10)" stroke-width="4" cx="29.673913" cy="4.04828151" rx="4.04347826" ry="4.04828151"></ellipse>
                        <path d="M13.0434783,62.6162029 L21.8043478,46.4230769 M46.7391304,62.6162029 L37.9782609,46.4230769 M17.7608696,55.8690671 L42.6956522,55.8690671" id="Combined-Shape" stroke="url(#linearGradient-11)" stroke-width="5" stroke-linecap="round"></path>
                        <rect id="Rectangle" fill="url(#linearGradient-12)" x="2.7173913" y="9.44599018" width="54.5869565" height="36.4345336"></rect>
                        <rect id="Rectangle" fill="url(#linearGradient-13)" x="0" y="4.04828151" width="60" height="6.07242226" rx="2"></rect>
                        <rect id="Rectangle" fill="url(#linearGradient-14)" x="0" y="45.1153846" width="60" height="3.37356792" rx="1.68678396"></rect>
                    </g>
                </g>
                <g id="Group" transform="translate(34.000000, 31.000000)">
                    <g id="Computer-w/-code" transform="translate(0.000000, 0.000000)">
                        <g id="Icon-compute-21-Virtual-Machine" filter="url(#filter-15)" fill-rule="nonzero">
                            <rect id="Rectangle" fill="url(#linearGradient-16)" x="0" y="0" width="32" height="22.0689655" rx="0.6"></rect>
                            <path d="M22.6390529,28.9899456 C19.3655033,28.4560959 19.2367682,26.0156401 19.2367682,22.0689655 L12.7448411,22.0689655 C12.7448411,26.0156401 12.6344967,28.4560959 9.36094713,28.9899456 C8.42497873,29.0973164 7.71845973,29.9203089 7.72413793,30.8965517 L24.2758621,30.8965517 C24.2815403,29.9203089 23.5750213,29.0973164 22.6390529,28.9899456 Z" id="Path" fill="url(#linearGradient-17)"></path>
                        </g>
                        <g id="Group-21" transform="translate(2.206897, 0.000000)">
                            <polygon id="Fill-1525" fill="url(#linearGradient-18)" points="3.49090909 22.0689655 4.07272727 22.0689655 4.07272727 2.5089509e-13 3.49090909 2.5089509e-13"></polygon>
                            <g id="Group-24" transform="translate(0.000000, 9.729184)" fill="#FFFFFF">
                                <path d="M1.61020157,0.623148088 C1.61020157,0.967125833 1.28939597,1.24629618 0.894117653,1.24629618 C0.498481289,1.24629618 0.178033736,0.967125833 0.178033736,0.623148088 C0.178033736,0.278858769 0.498481289,0 0.894117653,0 C1.28939597,0 1.61020157,0.278858769 1.61020157,0.623148088" id="Fill-1526"></path>
                                <path d="M1.61020157,4.09497315 C1.61020157,4.4389509 1.28939597,4.71812124 0.894117653,4.71812124 C0.498481289,4.71812124 0.178033736,4.4389509 0.178033736,4.09497315 C0.178033736,3.75068383 0.498481289,3.47182506 0.894117653,3.47182506 C1.28939597,3.47182506 1.61020157,3.75068383 1.61020157,4.09497315" id="Fill-1528"></path>
                                <path d="M1.61020157,7.47777706 C1.61020157,7.8217548 1.28939597,8.10092515 0.894117653,8.10092515 C0.498481289,8.10092515 0.178033736,7.8217548 0.178033736,7.47777706 C0.178033736,7.13348774 0.498481289,6.85462897 0.894117653,6.85462897 C1.28939597,6.85462897 1.61020157,7.13348774 1.61020157,7.47777706" id="Fill-1530"></path>
                            </g>
                            <path d="M13.4713287,17.8301093 L8.05594406,17.8301093 C7.7836979,17.8301093 7.56363636,17.5714584 7.56363636,17.2514718 C7.56363636,16.9314853 7.7836979,16.6728343 8.05594406,16.6728343 L13.4713287,16.6728343 C13.7435748,16.6728343 13.9636364,16.9314853 13.9636364,17.2514718 C13.9636364,17.5714584 13.7435748,17.8301093 13.4713287,17.8301093" id="Fill-1531" fill="#FFFFFE"></path>
                            <path d="M20.2015584,17.8301093 L15.8379221,17.8301093 C15.4357403,17.8301093 15.1106494,17.5714584 15.1106494,17.2514718 C15.1106494,16.9314853 15.4357403,16.6728343 15.8379221,16.6728343 L20.2015584,16.6728343 C20.6037403,16.6728343 20.9288312,16.9314853 20.9288312,17.2514718 C20.9288312,17.5714584 20.6037403,17.8301093 20.2015584,17.8301093" id="Fill-1532" fill="#FFFFFF"></path>
                            <path d="M12.6379221,7.41463415 L8.27428571,7.41463415 C7.8721039,7.41463415 7.54701299,7.15598318 7.54701299,6.83599664 C7.54701299,6.51601009 7.8721039,6.25735913 8.27428571,6.25735913 L12.6379221,6.25735913 C13.0401039,6.25735913 13.3651948,6.51601009 13.3651948,6.83599664 C13.3651948,7.15598318 13.0401039,7.41463415 12.6379221,7.41463415" id="Fill-1532" fill="#FFFFFF"></path>
                            <path d="M14.0083916,14.3582843 L8.1006993,14.3582843 C7.8037035,14.3582843 7.56363636,14.0996333 7.56363636,13.7796468 C7.56363636,13.4596602 7.8037035,13.2010093 8.1006993,13.2010093 L14.0083916,13.2010093 C14.3053874,13.2010093 14.5454545,13.4596602 14.5454545,13.7796468 C14.5454545,14.0996333 14.3053874,14.3582843 14.0083916,14.3582843" id="Fill-1534" fill="#FFFFFE"></path>
                            <path d="M22.1538462,14.3582843 L16.2461538,14.3582843 C15.949158,14.3582843 15.7090909,14.0996333 15.7090909,13.7796468 C15.7090909,13.4596602 15.949158,13.2010093 16.2461538,13.2010093 L22.1538462,13.2010093 C22.450842,13.2010093 22.6909091,13.4596602 22.6909091,13.7796468 C22.6909091,14.0996333 22.450842,14.3582843 22.1538462,14.3582843" id="Fill-1534" fill="#FFFFFE"></path>
                            <path d="M25.6447552,14.3582843 L19.7370629,14.3582843 C19.4400671,14.3582843 19.2,14.0996333 19.2,13.7796468 C19.2,13.4596602 19.4400671,13.2010093 19.7370629,13.2010093 L25.6447552,13.2010093 C25.941751,13.2010093 26.1818182,13.4596602 26.1818182,13.7796468 C26.1818182,14.0996333 25.941751,14.3582843 25.6447552,14.3582843" id="Fill-1534" fill="#FFFFFE"></path>
                            <path d="M8.17358641,10.8864592 C7.82709131,10.8864592 7.54701299,10.6278082 7.54701299,10.3078217 C7.54701299,9.98783516 7.82709131,9.72918419 8.17358641,9.72918419 L15.0658941,9.72918419 C15.4123892,9.72918419 15.6924675,9.98783516 15.6924675,10.3078217 C15.6924675,10.6278082 15.4123892,10.8864592 15.0658941,10.8864592 L8.17358641,10.8864592 Z" id="Fill-1540" fill="#FFFFFE"></path>
                        </g>
                    </g>
                    <g id="Dynamics-BC-01-2" transform="translate(22.315789, 1.263158)" fill="#FFFFFF" fill-rule="nonzero">
                        <path d="M4.16223851,0.609637203 C4.30528981,0.600469981 4.46390406,0.730836403 4.46560959,0.924094231 C4.46710193,1.09102295 4.32863424,1.23535339 4.17353764,1.23972381 C4.01481679,1.24409423 3.85908061,1.11415419 3.86078614,0.921642532 C3.86281146,0.717725144 4.03133911,0.600683172 4.16223851,0.609637203 L4.16223851,0.609637203 Z M0.845409727,3.9007762 C1.01276482,3.9007762 1.14526316,4.04126945 1.14526316,4.21843134 C1.14526316,4.38983707 1.00935376,4.53107624 0.844450366,4.53139627 C0.679227182,4.53160922 0.54107928,4.38759856 0.54086584,4.21480709 C0.540652898,4.04148264 0.677308461,3.90056325 0.845409727,3.9007762 Z M3.8692072,7.4655466 C3.87293804,7.44220216 3.87496336,7.41843134 3.88093271,7.39572648 C3.92527648,7.22421415 4.09241839,7.12422748 4.25401732,7.17166252 C4.37489674,7.20715885 4.46528981,7.32409423 4.47285809,7.46714553 C4.48053298,7.61190236 4.39770819,7.74695899 4.25625583,7.79108957 C4.05553631,7.85366119 3.85439041,7.68214886 3.8692072,7.4655466 Z M5.51664224,5.49395432 L5.15762825,5.1454933 C5.02704863,5.26456059 4.88122585,5.35825812 4.71685543,5.42157591 C4.56069287,5.48169583 4.39962692,5.51431408 4.23141905,5.51857791 C3.98497002,5.52465386 3.75216522,5.47487371 3.53524317,5.35921748 C3.14851432,5.15295499 2.90217189,4.83636605 2.82606262,4.40326812 C2.75698867,4.0109963 2.86038641,3.65709889 3.11557628,3.35116951 C3.340493,3.08169583 3.63203198,2.92510689 3.97686875,2.86999696 C4.37159227,2.80689237 4.71717522,2.92169583 5.02225183,3.1721955 C5.06808794,3.20982374 5.11147235,3.25054327 5.15976016,3.2932881 L5.47176549,2.94045666 C5.18896736,2.65158257 4.84796802,2.47484706 4.44727515,2.40673247 C4.44631579,2.39426079 4.44471686,2.38274846 4.44471686,2.37134273 C4.44461026,2.15132941 4.44514324,1.93131608 4.44418388,1.71130276 C4.44418388,1.68518684 4.45132578,1.6738877 4.47648235,1.66205559 C4.75746835,1.52966385 4.92173218,1.31124946 4.95477682,0.999563918 C4.99826782,0.589384038 4.7200533,0.218537935 4.32106596,0.135393365 C3.88796802,0.0452134851 3.45870753,0.312768448 3.36596935,0.761535937 C3.28548967,1.15092967 3.48930047,1.52081642 3.85993338,1.67314153 C3.88487675,1.68337471 3.89425716,1.69542001 3.89415057,1.72196232 C3.89332084,1.93799528 3.89332084,2.15403063 3.89415057,2.37006359 C3.89415057,2.39607291 3.88711526,2.40587971 3.85982678,2.41056991 C3.66401066,2.44404093 3.47736176,2.5055466 3.30254497,2.60062987 C2.96058628,2.7867458 2.70155896,3.05291502 2.52770153,3.40212221 C2.43304464,3.59218217 2.38678215,3.77275512 2.35821452,3.94043001 L1.59392405,3.94043001 C1.51237841,3.73086305 1.37156562,3.57299496 1.16391739,3.4800436 C0.990592938,3.4025486 0.81065956,3.38901095 0.626888741,3.43761855 C0.277788141,3.52971715 0.000746169221,3.85941735 0.0328314457,4.28110955 C0.0590376785,4.64452937 0.329007387,4.94358288 0.687861426,5.00670582 C1.11211193,5.08121615 1.45737508,4.83647265 1.58582278,4.50869117 C1.5952032,4.50805159 1.60554297,4.50666585 1.61588274,4.50666585 C1.85316456,4.50666585 2.09033977,4.50709223 2.32762159,4.50613287 C2.3564024,4.50602628 2.36556962,4.51252861 2.37164557,4.54397431 C2.43944037,4.89403427 2.59336442,5.20028344 2.83992005,5.45984373 C3.04778148,5.67847131 3.29359094,5.83719217 3.57905396,5.93248863 C3.66966023,5.96276179 3.76453031,5.98045666 3.85790806,6.00177578 C3.88221186,6.00721215 3.89415057,6.01414087 3.89404397,6.04206891 C3.89297801,6.25280842 3.89319121,6.46354793 3.89404397,6.67418084 C3.89425716,6.69976378 3.88391739,6.71031675 3.86142572,6.72023014 C3.58086609,6.84409423 3.41404397,7.06016352 3.36682212,7.36065652 C3.32930047,7.59996365 3.39133911,7.81901762 3.54483678,8.0085446 C3.67968021,8.17526012 3.85609594,8.27172914 4.06768821,8.29923081 C4.3805463,8.33973714 4.69553631,8.17909756 4.85372418,7.90589303 C4.931006,7.77243534 4.97375083,7.62874446 4.96810127,7.47631275 C4.95552298,7.13179576 4.79648235,6.87724546 4.48106596,6.72779843 C4.45505663,6.71543334 4.4437575,6.70285506 4.44397069,6.67258191 C4.44546302,6.46450729 4.44524983,6.25643267 4.44407728,6.04835806 C4.44397069,6.01797831 4.45047302,6.00646598 4.48383744,6.00070982 C4.80426382,5.9454933 5.0982545,5.82695899 5.35706862,5.62741202 C5.41025983,5.58637271 5.46035976,5.54128277 5.51664224,5.49395432 L5.51664224,5.49395432 Z" id="path14" transform="translate(2.773471, 4.211707) scale(-1, 1) rotate(-180.000000) translate(-2.773471, -4.211707) "></path>
                        <path d="M7.47341772,3.8932236 C7.48951366,3.89482253 7.51115256,3.89418296 7.53119254,3.89961934 C7.73031312,3.95291714 7.81964024,4.17815365 7.7188008,4.37055871 C7.63853431,4.5235234 7.45636243,4.56914632 7.31416389,4.47182453 C7.18646236,4.38441614 7.14361093,4.19584852 7.2218521,4.05151807 C7.27429714,3.95472926 7.35381746,3.89588849 7.47341772,3.8932236 L7.47341772,3.8932236 Z M3.88508994,4.20821361 C3.88892738,4.18092513 3.8908461,4.15321027 3.89681546,4.12645478 C3.94499667,3.9150757 4.18323784,3.82329688 4.3466489,3.95281054 C4.47680213,4.05620828 4.50387742,4.2665214 4.40314457,4.40211101 C4.3346036,4.4943162 4.24293138,4.54143146 4.12812791,4.51862 C3.98251832,4.48973259 3.88796802,4.36277723 3.88508994,4.20821361 Z M8.2328048,4.13615498 C8.23205863,3.97242413 8.14806129,3.76861334 7.97495003,3.60562866 C7.85577615,3.49338349 7.71293804,3.42836017 7.54835443,3.4084268 C7.19925383,3.36621494 6.88,3.57940614 6.75496336,3.89386317 C6.74398401,3.92136484 6.73033977,3.92797377 6.7030513,3.92786717 C6.11059294,3.927121 5.51813458,3.9272276 4.92556962,3.92786717 C4.8994537,3.92786717 4.88794137,3.92093846 4.87706862,3.89514232 C4.7758028,3.65636817 4.60450366,3.49434285 4.35101932,3.42601507 C4.07429714,3.35139815 3.75781479,3.46001907 3.58075949,3.68504239 C3.46403731,3.83321027 3.40071952,4.00163133 3.39709527,4.18817363 C3.38963358,4.57404972 3.64141239,4.93050541 4.03752165,5.00085851 C4.39152565,5.06374992 4.71120586,4.87283719 4.85756163,4.56786717 C4.86321119,4.55614165 4.86886076,4.54420295 4.87408394,4.53205105 C4.90019987,4.47043879 4.90019987,4.47043879 4.96500999,4.47043879 C5.53359094,4.47043879 6.10227848,4.47118496 6.67085943,4.46905305 C6.72053298,4.46883986 6.74099933,4.48514898 6.75933378,4.52895978 C6.86091939,4.77050541 7.03637575,4.93370328 7.29369753,4.99158469 C7.60015989,5.06033886 7.85652232,4.96386984 8.05542971,4.72296377 C8.17716189,4.57543546 8.2326982,4.40147143 8.2328048,4.13615498 L8.2328048,4.13615498 Z" id="path16" transform="translate(5.814869, 4.207931) scale(-1, 1) rotate(-180.000000) translate(-5.814869, -4.207931) "></path>
                    </g>
                </g>
            </g>
        </g>
    </g>
</svg>