<?xml version="1.0" encoding="UTF-8"?>
<svg width="101px" height="101px" viewBox="0 0 101 101" version="1.1" xmlns="http://www.w3.org/2000/svg" xmlns:xlink="http://www.w3.org/1999/xlink">
    <!-- Generator: Sketch 64 (93537) - https://sketch.com -->
    <title>Learn the application foundation with the AL programming language for Microsoft Dynamics 365 Business Central/Manage-multilanguage-development-in-Dynamics-365-Business-Central</title>
    <desc>Created with Sketch.</desc>
    <defs>
        <rect id="path-1" x="0" y="0" width="94.3396226" height="94.3396226" rx="47.1698113"></rect>
        <linearGradient x1="77.8299825%" y1="11.1997378%" x2="-99.6885927%" y2="253.807911%" id="linearGradient-3">
            <stop stop-color="#FFFFFF" offset="0%"></stop>
            <stop stop-color="#000000" stop-opacity="0.5" offset="100%"></stop>
        </linearGradient>
        <rect id="path-4" x="0" y="0" width="94.3396226" height="94.3396226"></rect>
        <rect id="path-5" x="0" y="0" width="100" height="100" rx="50"></rect>
        <filter x="-0.5%" y="-0.5%" width="102.0%" height="102.0%" filterUnits="objectBoundingBox" id="filter-6">
            <feOffset dx="1" dy="1" in="SourceAlpha" result="shadowOffsetOuter1"></feOffset>
            <feMorphology radius="4" operator="erode" in="SourceAlpha" result="shadowInner"></feMorphology>
            <feOffset dx="1" dy="1" in="shadowInner" result="shadowInner"></feOffset>
            <feComposite in="shadowOffsetOuter1" in2="shadowInner" operator="out" result="shadowOffsetOuter1"></feComposite>
            <feColorMatrix values="0 0 0 0 0   0 0 0 0 0   0 0 0 0 0  0 0 0 0.15 0" type="matrix" in="shadowOffsetOuter1"></feColorMatrix>
        </filter>
        <path d="M50,2.83018868 C76.0511674,2.83018868 97.1698113,23.9488326 97.1698113,50 C97.1698113,76.0511674 76.0511674,97.1698113 50,97.1698113 C23.9488326,97.1698113 2.83018868,76.0511674 2.83018868,50 C2.83018868,23.9488326 23.9488326,2.83018868 50,2.83018868 Z M50,6.60377358 C26.032926,6.60377358 6.60377358,26.032926 6.60377358,50 C6.60377358,73.967074 26.032926,93.3962264 50,93.3962264 C73.967074,93.3962264 93.3962264,73.967074 93.3962264,50 C93.3962264,26.032926 73.967074,6.60377358 50,6.60377358 Z" id="path-7"></path>
        <radialGradient cx="50.5408087%" cy="42.6617935%" fx="50.5408087%" fy="42.6617935%" r="48.6102576%" id="radialGradient-9">
            <stop stop-color="#5EA0EF" offset="0%"></stop>
            <stop stop-color="#5B9FEE" offset="28%"></stop>
            <stop stop-color="#529BEC" offset="47%"></stop>
            <stop stop-color="#4394E7" offset="64%"></stop>
            <stop stop-color="#2D8BE1" offset="79%"></stop>
            <stop stop-color="#117FD9" offset="93%"></stop>
            <stop stop-color="#0078D4" offset="100%"></stop>
        </radialGradient>
        <filter x="-4.8%" y="-4.8%" width="109.6%" height="109.6%" filterUnits="objectBoundingBox" id="filter-10">
            <feOffset dx="0" dy="1" in="SourceAlpha" result="shadowOffsetOuter1"></feOffset>
            <feColorMatrix values="0 0 0 0 0   0 0 0 0 0   0 0 0 0 0  0 0 0 0.19 0" type="matrix" in="shadowOffsetOuter1" result="shadowMatrixOuter1"></feColorMatrix>
            <feMerge>
                <feMergeNode in="shadowMatrixOuter1"></feMergeNode>
                <feMergeNode in="SourceGraphic"></feMergeNode>
            </feMerge>
        </filter>
        <linearGradient x1="50%" y1="100%" x2="50%" y2="0%" id="linearGradient-11">
            <stop stop-color="#F36524" offset="0%"></stop>
            <stop stop-color="#FFA20A" offset="100%"></stop>
        </linearGradient>
    </defs>
    <g id="Badges" stroke="none" stroke-width="1" fill="none" fill-rule="evenodd">
        <g id="Learn-the-application-foundation-with-the-AL-programming-language-for-Microsoft-Dynamics-365-Business-Central--2" transform="translate(-160.000000, -510.000000)">
            <g id="Learn-the-application-foundation-with-the-AL-programming-language-for-Microsoft-Dynamics-365-Business-Central/Manage-multilanguage-development-in-Dynamics-365-Business-Central" transform="translate(160.000000, 510.000000)">
                <g id="Badge-Plates/Circle">
                    <g id="BG" transform="translate(2.830189, 2.830189)">
                        <mask id="mask-2" fill="white">
                            <use xlink:href="#path-1"></use>
                        </mask>
                        <g></g>
                        <g id="Colors/Dynamics-365/BG-Solid-Badges" mask="url(#mask-2)">
                            <g id="Rectangle">
                                <use fill="#01B6C3" xlink:href="#path-4"></use>
                                <use fill-opacity="0.4" fill="url(#linearGradient-3)" xlink:href="#path-4"></use>
                            </g>
                        </g>
                    </g>
                    <g id="Border">
                        <g id="White-Border">
                            <use fill="black" fill-opacity="1" filter="url(#filter-6)" xlink:href="#path-5"></use>
                            <rect stroke="#F2F1F0" stroke-width="4" stroke-linejoin="square" x="2" y="2" width="96" height="96" rx="48"></rect>
                        </g>
                        <mask id="mask-8" fill="white">
                            <use xlink:href="#path-7"></use>
                        </mask>
                        <use id="Boarder" fill="#0078D4" fill-rule="nonzero" xlink:href="#path-7"></use>
                        <g id="Colors/Dynamics-365/Border" mask="url(#mask-8)" fill="#008372">
                            <g transform="translate(2.830189, 2.830189)" id="Rectangle">
                                <rect x="0" y="0" width="94.3396226" height="94.3396226"></rect>
                            </g>
                        </g>
                    </g>
                </g>
                <g id="Internet" transform="translate(13.000000, 13.000000)" fill="url(#radialGradient-9)" fill-rule="nonzero">
                    <path d="M71.499066,23.0876575 C70.3334365,20.2131079 68.8277832,17.4899406 67.0145758,14.9768811 C61.0697276,7.0230344 52.2226841,1.76912998 42.4212071,0.371865492 C32.6197302,-1.02539899 22.6673996,1.54853201 14.7553168,7.52698282 L14.3965576,7.82738195 C7.90803714,12.8415529 3.26011118,19.8785602 1.18225981,27.8339637 C1.18225981,29.1557198 0.584327784,30.477476 0.404948177,31.7992321 C-1.38620863,43.9320474 2.83293466,56.1791106 11.7058635,64.6028166 L11.7058635,64.6028166 C12.1154012,65.0342193 12.5549968,65.4357672 13.0213139,65.8044131 L13.0213139,65.8044131 L14.3367644,66.88585 L14.3367644,66.88585 C16.0898395,68.2672785 17.9721794,69.4745315 19.9573254,70.4906395 L20.5552574,70.8511184 L21.5717419,71.2716772 L22.4088467,71.692236 L23.3057447,72.0527149 L24.262436,72.4131939 L25.0995408,72.713593 L26.2954049,73.074072 L26.9531301,73.074072 L28.687133,73.5547106 L28.687133,73.5547106 L30.6005155,73.9752693 L31.0788611,73.9752693 C31.5765974,74.0082436 32.0759548,74.0082436 32.5736911,73.9752693 L33.1716232,73.9752693 L39.5694958,73.9752693 L40.9447395,73.9752693 L40.9447395,73.9752693 L41.6622579,73.9752693 C43.1975669,73.7910651 44.7167092,73.4897971 46.2065413,73.074072 L46.2065413,73.074072 C51.0076605,71.7834395 55.5014892,69.5359702 59.4208391,66.4652912 C61.9481708,64.4967262 64.2182974,62.2157177 66.177471,59.676271 C74.1853423,49.2492835 76.2023754,35.3811771 71.499066,23.0876575 Z M62.8290516,17.5002338 L55.5342809,17.5002338 C54.3198951,13.9155724 52.5435959,10.5487641 50.2724791,7.52698282 C55.2980745,9.70009627 59.6836223,13.1343247 63.0084312,17.5002338 L62.8290516,17.5002338 Z M39.4499094,5.48426877 C44.5873026,7.75220945 48.5073195,12.1286625 50.2126859,17.5002338 L39.4499094,17.5002338 L39.4499094,5.48426877 Z M39.4499094,22.5469391 L51.8271024,22.5469391 C52.9707828,26.6816038 53.6329394,30.9356875 53.800278,35.2237822 L39.4499094,35.2237822 L39.4499094,22.5469391 Z M39.4499094,40.0301682 L53.800278,40.0301682 C53.6375583,44.3384458 52.9753604,48.6129581 51.8271024,52.7670911 L39.629289,52.7670911 L39.629289,39.7898489 L39.4499094,40.0301682 Z M20.7944302,31.4387532 C21.0826992,28.3509602 21.6429642,25.2949423 22.4686399,22.3066198 L34.8458328,22.3066198 L34.8458328,34.9834629 L20.5552574,34.9834629 C20.6150506,33.7818664 20.6748438,32.5802699 20.7944302,31.4387532 Z M34.8458328,5.24394947 L34.8458328,17.2599145 L24.1428496,17.2599145 C25.8069915,11.884274 29.7124403,7.4997267 34.8458328,5.24394947 Z M17.3264245,11.6124109 L17.3264245,11.6124109 C19.3726316,10.0933884 21.5781863,8.80400536 23.9036768,7.76730212 C21.6438843,10.8181929 19.8688406,14.2028892 18.641875,17.8006329 L11.7058635,17.8006329 C13.3193203,15.5137653 15.207063,13.4353659 17.3264245,11.6124109 L17.3264245,11.6124109 Z M8.41723732,22.3066198 L17.6851837,22.3066198 C17.0076799,24.950468 16.5279954,27.641545 16.2501468,30.3573163 C16.2501468,31.859312 15.9511808,33.4213874 15.9511808,34.9834629 L4.82964516,34.9834629 C5.03977846,33.4649865 5.33926926,31.9603544 5.7265432,30.477476 C6.29547747,27.6556628 7.19881216,24.9124978 8.41723732,22.3066198 L8.41723732,22.3066198 Z M4.82964516,39.7898489 L15.7718012,39.7898489 C15.9214288,44.0951635 16.5634427,48.3688946 17.6851837,52.5267718 L8.41723732,52.5267718 C6.35646687,48.5765673 5.1347969,44.2393084 4.82964516,39.7898489 L4.82964516,39.7898489 Z M11.7058635,57.4533174 L11.7058635,57.4533174 L18.940841,57.4533174 C20.1552267,61.0379788 21.931526,64.4047871 24.2026428,67.4265684 C19.259919,65.2254468 14.9584458,61.7925887 11.7058635,57.4533174 L11.7058635,57.4533174 Z M34.9654192,69.4692825 C29.8320267,67.2135052 25.9265779,62.8289579 24.262436,57.4533174 L34.9654192,57.4533174 L34.9654192,69.4692825 Z M34.9654192,52.4066121 L22.4686399,52.4066121 C21.3411243,48.2499572 20.6990086,43.9755487 20.5552574,39.6696892 L34.8458328,39.6696892 L34.8458328,52.5267718 L34.9654192,52.4066121 Z M44.1137792,66.9459298 C42.8535543,68.0888139 41.3656008,68.9490004 39.7488754,69.4692825 L39.7488754,57.4533174 L50.5116519,57.4533174 C49.0693311,61.1002716 46.8439487,64.3825466 43.9941928,67.0660895 L44.1137792,66.9459298 Z M57.1486974,63.0407412 L57.1486974,63.0407412 C55.0413664,64.6945263 52.7301495,66.06771 50.2724791,67.1261693 C52.5435959,64.104388 54.3198951,60.7375797 55.5342809,57.1529183 L63.0084312,57.1529183 C61.3175148,59.3625087 59.3477464,61.3417192 57.1486974,63.0407412 L57.1486974,63.0407412 Z M65.9980914,52.3465323 L57.029111,52.3465323 C58.0315932,48.1702235 58.6125311,43.9030102 58.7631139,39.6096094 L69.5856835,39.6096094 C69.3214593,44.12333 68.098159,48.5278354 65.9980914,52.5267718 L65.9980914,52.3465323 Z M58.7631139,34.9834629 C58.6085354,30.7102106 58.0276248,26.463325 57.029111,22.3066198 L66.0578846,22.3066198 C68.0827254,26.2497205 69.3024977,30.559815 69.6454767,34.9834629 L58.7631139,34.9834629 Z" id="Shape"></path>
                </g>
                <g id="Chat-bubble" transform="translate(24.000000, 24.000000)">
                    <g id="Icon-iot-204-Notification-Hub-Namespaces" filter="url(#filter-10)">
                        <g id="Group" transform="translate(0.787051, 7.083456)" fill="url(#linearGradient-11)" fill-rule="nonzero">
                            <path d="M50.0444434,1.71931711 L50.0444434,33.5099097 C50.0444434,33.9665846 49.860736,34.4041418 49.5344007,34.7242879 C49.2080654,35.0444341 48.7665317,35.2203267 48.3089863,35.212453 L35.0136206,35.212453 C34.7861879,35.212453 34.6018173,35.3964455 34.6018173,35.6234118 L34.6018173,40.7603958 C34.5990567,41.0717266 34.4202597,41.3547758 34.1399792,41.4915208 C33.8596987,41.6282658 33.5260536,41.5952299 33.2781636,41.4061881 L25.2774126,35.3005156 L25.0126818,35.3005156 L1.77520639,35.3005156 C1.31766099,35.3083893 0.876127311,35.1324967 0.549792024,34.8123505 C0.223456737,34.4922043 0.0397493404,34.0546471 0.0397493404,33.5979723 L0.0397493404,1.71931711 C0.0397493404,1.26264229 0.223456737,0.825085096 0.549792024,0.504938909 C0.876127311,0.184792721 1.31766099,0.00890011658 1.77520639,0.016520416 L48.3089863,0.016520416 C48.7665317,0.00890011658 49.2080654,0.184792721 49.5344007,0.504938909 C49.860736,0.825085096 50.0444434,1.26264229 50.0444434,1.71931711 Z" id="Path"></path>
                        </g>
                        <rect id="Rectangle" x="0" y="0" width="51.9453437" height="51.9453437"></rect>
                    </g>
                    <rect id="Rectangle" fill="#FFFFFF" x="8.66666667" y="13.3939394" width="34.6666667" height="4.72727273" rx="2.36363636"></rect>
                    <rect id="Rectangle-Copy" fill="#FFFFFF" x="8.66666667" y="22.0606061" width="34.6666667" height="4.72727273" rx="2.36363636"></rect>
                    <rect id="Rectangle-Copy" fill="#FFFFFF" x="8.66666667" y="30.7272727" width="18.9090909" height="4.72727273" rx="2.36363636"></rect>
                </g>
                <g id="Dynamics-BC-01-2" transform="translate(62.000000, 54.000000)" fill="#FFFFFF" fill-rule="nonzero">
                    <path d="M4.94265823,0.723944178 C5.11253165,0.713058102 5.30088608,0.867868229 5.30291139,1.0973619 C5.30468354,1.29558975 5.14025316,1.46698215 4.95607595,1.47217203 C4.76759494,1.4773619 4.58265823,1.3230581 4.58468354,1.09445051 C4.58708861,0.852298608 4.78721519,0.713311267 4.94265823,0.723944178 L4.94265823,0.723944178 Z M1.00392405,4.63217174 C1.20265823,4.63217174 1.36,4.79900747 1.36,5.00938722 C1.36,5.21293152 1.19860759,5.38065304 1.00278481,5.38103307 C0.806582278,5.38128595 0.642531646,5.21027329 0.642278185,5.00508342 C0.642025316,4.79926063 0.804303797,4.63191886 1.00392405,4.63217174 Z M4.59468354,8.86533658 C4.59911392,8.83761506 4.60151899,8.80938722 4.60860759,8.78242519 C4.66126582,8.5787543 4.85974684,8.46002013 5.05164557,8.51634924 C5.19518987,8.55850114 5.30253165,8.6973619 5.31151899,8.86723532 C5.32063291,9.03913405 5.22227848,9.1995138 5.0543038,9.25191886 C4.81594937,9.32622266 4.57708861,9.12255177 4.59468354,8.86533658 Z M6.55101266,6.52407076 L6.12468354,6.11027329 C5.96962025,6.2516657 5.7964557,6.36293152 5.60126582,6.43812139 C5.41582278,6.5095138 5.22455696,6.54824798 5.02481013,6.55331127 C4.7321519,6.56052646 4.4556962,6.50141253 4.19810127,6.36407076 C3.73886076,6.11913405 3.44632911,5.74318468 3.35594937,5.22888089 C3.27392405,4.7630581 3.39670886,4.34280494 3.69974684,3.9795138 C3.96683544,3.6595138 4.31303797,3.47356443 4.72253165,3.40812139 C5.19126582,3.33318468 5.60164557,3.4695138 5.96392405,3.76698215 C6.01835443,3.8116657 6.06987342,3.86002013 6.12721519,3.91077962 L6.49772152,3.49179228 C6.16189873,3.1487543 5.75696203,2.93888089 5.28113924,2.85799481 C5.28,2.84318468 5.27810127,2.8295138 5.27810127,2.81596949 C5.27797468,2.55470367 5.27860759,2.29343785 5.27746835,2.03217203 C5.27746835,2.00115937 5.28594937,1.98774165 5.31582278,1.97369101 C5.64949367,1.81647582 5.84455696,1.55710874 5.88379747,1.18698215 C5.93544304,0.699893545 5.60506329,0.259513798 5.13126582,0.160779621 C4.61696203,0.0536910136 4.10721519,0.371412533 3.99708861,0.904323925 C3.90151899,1.36672899 4.1435443,1.80596949 4.58367089,1.98685557 C4.61329114,1.99900747 4.62443038,2.01331127 4.6243038,2.04483025 C4.6233185,2.30136939 4.6233185,2.55791137 4.6243038,2.81445051 C4.6243038,2.84533658 4.61594937,2.85698215 4.5835443,2.86255177 C4.35101266,2.90229861 4.12936709,2.97533658 3.92177215,3.08824798 C3.5156962,3.30926063 3.20810127,3.62533658 3.00164557,4.04002013 C2.88924051,4.26571633 2.8343038,4.48014671 2.80037975,4.67926063 L1.89278481,4.67926063 C1.79594937,4.43039987 1.62873418,4.24293152 1.3821519,4.13255177 C1.17632911,4.04052646 0.962658228,4.02445051 0.74443038,4.08217203 C0.329873418,4.19153911 0.000886075949,4.5830581 0.0389873418,5.0838176 C0.0701072432,5.51537862 0.390696272,5.87050467 0.816835443,5.94546317 C1.32063291,6.03394418 1.73063291,5.74331127 1.88316456,5.35407076 C1.8943038,5.35331127 1.90658228,5.3516657 1.91886076,5.3516657 C2.20063291,5.3516657 2.48227848,5.35217203 2.76405063,5.35103279 C2.79822785,5.3509062 2.80911392,5.35862772 2.81632911,5.39596949 C2.89683544,5.8116657 3.07962025,6.17533658 3.37240506,6.48356443 C3.61924051,6.74318468 3.91113924,6.9316657 4.25012658,7.04483025 C4.35772152,7.08077962 4.47037975,7.10179228 4.58126582,7.12710874 C4.61012658,7.13356443 4.6243038,7.14179228 4.62417722,7.17495684 C4.62291139,7.42521 4.62316456,7.67546317 4.62417722,7.92558975 C4.62443038,7.95596949 4.6121519,7.96850114 4.58544304,7.98027329 C4.25227848,8.1273619 4.05417722,8.38394418 3.99810127,8.74077962 C3.9535443,9.02495684 4.02721519,9.28508342 4.20949367,9.51014671 C4.36962025,9.70812139 4.57911392,9.82267836 4.83037975,9.85533658 C5.20189873,9.90343785 5.57594937,9.71267836 5.76379747,9.38824798 C5.85556962,9.22976696 5.90632911,9.05913405 5.89962025,8.87812139 C5.88468354,8.46900747 5.69582278,8.16672899 5.32126582,7.98926063 C5.29037975,7.97457709 5.27696203,7.95964038 5.27721519,7.92369101 C5.27898734,7.67660241 5.27873418,7.4295138 5.27734177,7.18242519 C5.27721519,7.14634924 5.28493671,7.13267836 5.32455696,7.12584291 C5.70506329,7.06027329 6.05417722,6.9195138 6.36151899,6.68255177 C6.42468354,6.6338176 6.48417722,6.58027329 6.55101266,6.52407076 L6.55101266,6.52407076 Z" id="path14" transform="translate(3.293497, 5.001402) scale(-1, 1) rotate(-180.000000) translate(-3.293497, -5.001402) "></path>
                    <path d="M8.87468354,4.62320302 C8.89379747,4.62510176 8.91949367,4.62434226 8.94329114,4.63079796 C9.17974684,4.6940891 9.28582278,4.96155745 9.16607595,5.19003847 C9.07075949,5.37168404 8.85443038,5.42586125 8.68556962,5.31029163 C8.53392405,5.20649416 8.48303797,4.98257011 8.57594937,4.81117771 C8.63822785,4.696241 8.73265823,4.62636758 8.87468354,4.62320302 L8.87468354,4.62320302 Z M4.6135443,4.99725366 C4.61810127,4.96484859 4.62037975,4.9319372 4.62746835,4.90016505 C4.68468354,4.64915239 4.96759494,4.54016505 5.16164557,4.69396252 C5.31620253,4.81674733 5.34835443,5.06649416 5.22873418,5.22750682 C5.14734177,5.33700049 5.03848101,5.39294986 4.9021519,5.36586125 C4.72924051,5.33155745 4.61696203,5.18079796 4.6135443,4.99725366 Z M9.7764557,4.91168404 C9.77556962,4.71725366 9.67582278,4.47522834 9.47025316,4.28168404 C9.32873418,4.1483929 9.15911392,4.07117771 8.96367089,4.04750682 C8.54911392,3.99738024 8.17,4.2505448 8.02151899,4.62396252 C8.00848101,4.65662075 7.99227848,4.66446885 7.95987342,4.66434226 C7.25632911,4.66345619 6.55278481,4.66358277 5.84911392,4.66434226 C5.81810127,4.66434226 5.80443038,4.65611442 5.79151899,4.62548151 C5.67126582,4.3419372 5.4678481,4.14953214 5.16683544,4.0683929 C4.83822785,3.9797853 4.46240506,4.10877264 4.2521519,4.37598783 C4.1135443,4.5519372 4.03835443,4.7519372 4.03405063,4.97345619 C4.02518987,5.43168404 4.32417722,5.85497518 4.79455696,5.93851948 C5.21493671,6.01320302 5.59455696,5.78649416 5.76835443,5.42434226 C5.77506329,5.41041821 5.78177215,5.396241 5.78797468,5.38181062 C5.81898734,5.30864606 5.81898734,5.30864606 5.89594937,5.30864606 C6.57113924,5.30864606 7.2464557,5.30953214 7.92164557,5.30700049 C7.98063291,5.30674733 8.00493671,5.32611442 8.02670886,5.37813973 C8.14734177,5.66497518 8.3556962,5.85877264 8.66126582,5.92750682 C9.02518987,6.00915239 9.32962025,5.89459543 9.56582278,5.60851948 C9.71037975,5.43332961 9.77632911,5.22674733 9.7764557,4.91168404 L9.7764557,4.91168404 Z" id="path16" transform="translate(6.905157, 4.996918) scale(-1, 1) rotate(-180.000000) translate(-6.905157, -4.996918) "></path>
                </g>
            </g>
        </g>
    </g>
</svg>