<?xml version="1.0" encoding="UTF-8"?>
<svg width="100px" height="100px" viewBox="0 0 100 100" version="1.1" xmlns="http://www.w3.org/2000/svg" xmlns:xlink="http://www.w3.org/1999/xlink">
    <!-- Generator: Sketch 55.2 (78181) - https://sketchapp.com -->
    <title>Return items in Microsoft Dynamics 365 Business Central/manage-returns-to-vendors-in-dynamics-365-business-central</title>
    <desc>Created with Sketch.</desc>
    <defs>
        <rect id="path-1" x="0" y="0" width="96" height="96" rx="48"></rect>
        <filter x="-8.0%" y="-9.3%" width="116.0%" height="118.6%" filterUnits="objectBoundingBox" id="filter-3">
            <feOffset dx="0" dy="2" in="SourceAlpha" result="shadowOffsetOuter1"></feOffset>
            <feColorMatrix values="0 0 0 0 0   0 0 0 0 0   0 0 0 0 0  0 0 0 0.0992980072 0" type="matrix" in="shadowOffsetOuter1" result="shadowMatrixOuter1"></feColorMatrix>
            <feMerge>
                <feMergeNode in="shadowMatrixOuter1"></feMergeNode>
                <feMergeNode in="SourceGraphic"></feMergeNode>
            </feMerge>
        </filter>
        <path d="M16.5801022,13.2704857 C16.5801022,15.4484917 14.8087946,17.2204422 12.6324588,17.2204422 C10.4557283,17.2204422 8.68481546,15.4484917 8.68481546,13.2704857 C8.68481546,11.0924798 10.4557283,9.32052928 12.6324588,9.32052928 C14.8087946,9.32052928 16.5801022,11.0924798 16.5801022,13.2704857 Z M22.0400878,10.7346137 C21.8896826,10.7014341 21.6555873,10.4881364 21.6086104,10.341198 C21.6026889,10.3210533 21.5951884,10.3013035 21.5868983,10.2819487 L21.0804157,9.05035226 C21.0717309,9.02902249 21.0618618,9.00769273 21.0512031,8.98715296 C20.9801456,8.85087946 20.9939623,8.53685792 21.0764681,8.40769434 L22.0862752,6.81981184 C22.5145945,6.14634426 22.4080082,5.17662995 21.8442847,4.61218117 L21.2856932,4.05326233 C20.7349969,3.50184841 19.7382169,3.39164462 19.0793553,3.81113 L17.4920079,4.82113387 C17.4391094,4.85549849 17.3139691,4.89223308 17.1655378,4.89223308 C17.0439503,4.89223308 16.9535493,4.86774335 16.9132833,4.84680858 C16.8931504,4.83574871 16.8714383,4.82626881 16.8497263,4.81757891 L15.6192458,4.3104045 C15.5999024,4.30250458 15.5801642,4.29499967 15.5600312,4.28907473 C15.4135736,4.24207025 15.2000061,4.00783783 15.1668459,3.85694949 L14.7590543,2.02061473 C14.5857528,1.24128832 13.8250419,0.63062505 13.0272232,0.63062505 L12.2376945,0.63062505 C11.439481,0.63062505 10.6791649,1.24128832 10.5062581,2.02021974 L10.0980718,3.85773948 C10.0645168,4.00783783 9.85134408,4.24207025 9.70488651,4.28907473 C9.68475353,4.29499967 9.66501531,4.30250458 9.64527709,4.3104045 L8.41479665,4.81757891 C8.39308461,4.82626881 8.37176734,4.83574871 8.35123959,4.84680858 C8.31136839,4.86774335 8.22096736,4.89223308 8.09898518,4.89223308 C7.95055379,4.89223308 7.82541349,4.85510349 7.77212031,4.82113387 L6.18556243,3.81152499 C5.52670075,3.39203962 4.52952603,3.5026384 3.97922454,4.05365733 L3.420633,4.61218117 C2.85651476,5.17702495 2.75032315,6.14673926 3.17864246,6.82020684 L4.18844964,8.40769434 C4.27056062,8.53725291 4.28437737,8.85048446 4.21371455,8.98675796 C4.20305592,9.00769273 4.19279204,9.02902249 4.18410723,9.05035226 L3.67762458,10.2819487 C3.6697293,10.3013035 3.66222877,10.3210533 3.65591254,10.341198 C3.60893559,10.4881364 3.3752351,10.7014341 3.22443512,10.7350087 L1.38917571,11.1426442 C0.610305668,11.3160473 -1.13686838e-13,12.0768089 -1.13686838e-13,12.8754901 L-1.13686838e-13,13.6654814 C-1.13686838e-13,14.4637676 0.610305668,15.2249242 1.38878094,15.3979323 L3.22482989,15.8059628 C3.3752351,15.8395374 3.60893559,16.0528351 3.65591254,16.1997735 C3.66222877,16.2199182 3.6697293,16.239668 3.67762458,16.2590228 L4.18410723,17.4906192 C4.19279204,17.511949 4.20266115,17.5328838 4.21371455,17.5538185 C4.28437737,17.689697 4.27056062,18.0037186 4.18805487,18.1332772 L3.17864246,19.7207647 C2.74992839,20.3942322 2.85651476,21.3643416 3.420633,21.9287903 L3.97922454,22.4877092 C4.52913126,23.0375431 5.52512169,23.1497219 6.18595719,22.7298415 L7.77172554,21.7198376 C7.82541349,21.685473 7.95055379,21.6487384 8.09898518,21.6487384 C8.22096736,21.6487384 8.31136839,21.6728332 8.35123959,21.6941629 C8.3721621,21.7044328 8.39308461,21.7147027 8.41479665,21.7233926 L9.64527709,22.230567 C9.66501531,22.2384669 9.68475353,22.2455768 9.70488651,22.2518968 C9.85134408,22.2989013 10.0645168,22.5331337 10.0980718,22.683627 L10.5062581,24.5203568 C10.6791649,25.2996832 11.439481,25.9103465 12.2376945,25.9103465 L13.0272232,25.9103465 C13.8250419,25.9103465 14.585358,25.2996832 14.7586596,24.5203568 L15.1668459,22.683627 C15.2000061,22.5331337 15.4135736,22.2989013 15.5600312,22.2518968 C15.5801642,22.2455768 15.5999024,22.2384669 15.6192458,22.230567 L16.8497263,21.7233926 C16.8714383,21.7147027 16.8927556,21.7044328 16.9132833,21.6941629 C16.9535493,21.6728332 17.0439503,21.6487384 17.165143,21.6487384 C17.3135744,21.6487384 17.4391094,21.685473 17.4920079,21.7198376 L19.0789605,22.7294465 C19.7374274,23.1497219 20.7349969,23.0383331 21.2856932,22.4877092 L21.8438899,21.9291853 C22.4080082,21.3647365 22.5145945,20.3946272 22.0862752,19.7207647 L21.0764681,18.1332772 C20.9939623,18.0037186 20.9801456,17.690092 21.0512031,17.5542135 C21.0618618,17.5332788 21.0717309,17.512344 21.0804157,17.4910142 L21.5868983,16.2590228 C21.5951884,16.239668 21.6026889,16.2199182 21.6086104,16.1997735 C21.6555873,16.0528351 21.8896826,15.8395374 22.0404826,15.8059628 L23.8753472,15.3979323 C24.654612,15.2249242 25.2649177,14.4637676 25.2649177,13.6654814 L25.2649177,12.8754901 C25.2649177,12.0768089 24.654612,11.3160473 23.875742,11.1430392 L22.0400878,10.7346137 Z" id="path-4"></path>
        <filter x="-5.9%" y="-2.0%" width="107.9%" height="107.9%" filterUnits="objectBoundingBox" id="filter-5">
            <feOffset dx="-1" dy="1" in="SourceAlpha" result="shadowOffsetOuter1"></feOffset>
            <feColorMatrix values="0 0 0 0 0   0 0 0 0 0   0 0 0 0 0  0 0 0 0.1 0" type="matrix" in="shadowOffsetOuter1"></feColorMatrix>
        </filter>
        <path d="M0.340680122,8.59090909 C2.22705122,8.59090909 3.75499132,6.75981818 3.75499132,4.5 L3.75499132,4.5 C3.75499132,2.24018182 2.22705122,0.409090909 0.340680122,0.409090909 L0.340680122,0.409090909 L0.340680122,8.59090909 Z" id="path-6"></path>
        <path d="M17.0409154,3.20707259 C21.3448304,5.69193905 22.8194605,11.1953338 20.3345941,15.4992487 C17.8497276,19.8031637 12.3463329,21.2777939 8.04241793,18.7929274 C3.73850297,16.3080609 2.2638728,10.8046662 4.74873926,6.50075126 C5.22420061,5.67722805 5.81017654,4.95729081 6.47711798,4.34885721 C9.29576039,1.7774819 13.5605237,1.19766748 17.0409154,3.20707259 Z" id="path-8"></path>
        <filter x="-13.9%" y="-13.9%" width="127.8%" height="138.9%" filterUnits="objectBoundingBox" id="filter-9">
            <feMorphology radius="1.5" operator="dilate" in="SourceAlpha" result="shadowSpreadOuter1"></feMorphology>
            <feOffset dx="0" dy="2" in="shadowSpreadOuter1" result="shadowOffsetOuter1"></feOffset>
            <feMorphology radius="1.5" operator="erode" in="SourceAlpha" result="shadowInner"></feMorphology>
            <feOffset dx="0" dy="2" in="shadowInner" result="shadowInner"></feOffset>
            <feComposite in="shadowOffsetOuter1" in2="shadowInner" operator="out" result="shadowOffsetOuter1"></feComposite>
            <feColorMatrix values="0 0 0 0 0   0 0 0 0 0   0 0 0 0 0  0 0 0 0.1 0" type="matrix" in="shadowOffsetOuter1"></feColorMatrix>
        </filter>
        <path d="M9.3185552,5.81952757 C9.41039531,5.907335 9.47746864,6.01821396 9.51290482,6.14080707 C9.62330972,6.52275794 9.40615479,6.92275991 9.02787571,7.03423647 L2.45526046,8.97114639 C2.32995866,9.00807207 2.19702573,9.00958434 2.07093177,8.97551857 C1.69026121,8.87267595 1.4642357,8.47771567 1.56608967,8.09335011 L3.30420814,1.53422548 C3.3348997,1.41840496 3.39373352,1.31214966 3.47537646,1.22509137 C3.74631921,0.936177051 4.19792151,0.923740195 4.48405842,1.19731287 L9.3185552,5.81952757 Z" id="path-10"></path>
        <filter x="-12.5%" y="-12.5%" width="125.0%" height="150.0%" filterUnits="objectBoundingBox" id="filter-11">
            <feOffset dx="0" dy="2" in="SourceAlpha" result="shadowOffsetOuter1"></feOffset>
            <feColorMatrix values="0 0 0 0 0   0 0 0 0 0   0 0 0 0 0  0 0 0 0.1 0" type="matrix" in="shadowOffsetOuter1"></feColorMatrix>
        </filter>
    </defs>
    <g id="Badges" stroke="none" stroke-width="1" fill="none" fill-rule="evenodd">
        <g id="Return-items-in-Microsoft-Dynamics-365-Business-Central" transform="translate(-50.000000, -460.000000)">
            <g id="Return-items-in-Microsoft-Dynamics-365-Business-Central/manage-returns-to-vendors-in-dynamics-365-business-central" transform="translate(50.000000, 460.000000)">
                <g id="Mask" transform="translate(2.000000, 2.000000)">
                    <mask id="mask-2" fill="white">
                        <use xlink:href="#path-1"></use>
                    </mask>
                    <use id="BG" fill="#01B6C3" xlink:href="#path-1"></use>
                    <g id="Paper-Box" filter="url(#filter-3)" mask="url(#mask-2)">
                        <g transform="translate(22.000000, 25.000000)">
                            <path d="M49.0833333,5 L0.0833333333,5 L4.98409896,1 C5.65784896,0.45 6.89816146,0 7.74034896,0 L41.427849,0 C42.2700365,0 43.510349,0.45 44.184099,1 L49.0833333,5" id="Fill-680" fill="#CC9547"></path>
                            <path d="M49.0825677,41.48 C49.0825677,42.316 48.393516,43 47.5513416,43 L1.61455941,43 C0.771619454,43 0.0833333333,42.316 0.0833333333,41.48 L0.0840989464,5 L49.0833333,5 L49.0825677,41.48" id="Fill-681" fill="#F2BE53"></path>
                            <polyline id="Fill-682" fill="#EFB252" points="36.0833333 5 15.0833333 5 17.7083333 0 33.4583333 0 36.0833333 5"></polyline>
                            <path d="M47.5513416,43 C48.393516,43 49.0825677,42.2875 49.0825677,41.4166667 L49.0833333,5 L26.8797896,5 C25.6111688,5 24.5829505,6.06083333 24.5829505,7.375 L24.5829505,39.0416667 C24.5829505,40.3558333 23.5547322,41.4166667 22.2861114,41.4166667 L0.0833333333,41.4166667 C0.0833333333,42.2875 0.771619454,43 1.61455941,43 L47.5513416,43" id="Fill-683" fill="#EFB252"></path>
                            <path d="M15.0833333,5 L15.0833333,18.4963189 C15.0833333,18.9241561 15.3983333,19.0641756 15.7833333,18.8074733 L17.8833333,17.4072788 C18.2683333,17.1505765 18.8983333,17.1505765 19.2833333,17.4072788 L21.3833333,18.8074733 C21.7683333,19.0641756 22.3983333,19.0641756 22.7833333,18.8074733 L24.8833333,17.4072788 C25.2683333,17.1505765 25.8983333,17.1505765 26.2833333,17.4072788 L28.3833333,18.8074733 C28.7683333,19.0641756 29.3983333,19.0641756 29.7833333,18.8074733 L31.8833333,17.4072788 C32.2683333,17.1505765 32.8983333,17.1505765 33.2833333,17.4072788 L35.3833333,18.8074733 C35.7683333,19.0641756 36.0833333,18.9241561 36.0833333,18.4963189 L36.0833333,5 L15.0833333,5" id="Fill-684" fill="#F7CB64"></path>
                            <path d="M25.0833333,5 C25.0978526,5.01938047 25.0982583,6.39000983 25.0982583,7.81812401 L25.0982583,17.0234383 C25.3637088,17.0234383 25.6300747,17.1008662 25.831451,17.2385158 L28.0282829,18.7870733 C28.4310354,19.0709756 29.090085,19.0709756 29.4928375,18.7870733 L31.6896695,17.2385158 C32.092422,16.9546136 32.7514716,16.9546136 33.1542241,17.2385158 L35.351056,18.7870733 C35.7538085,19.0709756 36.0833333,18.9161198 36.0833333,18.4429494 L36.0833333,5 L27.8442982,5 L25.0833333,5 Z" id="Fill-685" fill="#F2BE53"></path>
                        </g>
                    </g>
                    <g id="Gear" mask="url(#mask-2)">
                        <g transform="translate(51.000000, 43.000000)">
                            <g id="Group-10" stroke-width="1" fill="none" fill-rule="evenodd" transform="translate(19.524309, 19.706716) rotate(-45.000000) translate(-19.524309, -19.706716) translate(6.524309, 6.206716)">
                                <path d="M15.3301022,13.2704857 C15.3301022,11.7828275 14.1184303,10.5705293 12.6324588,10.5705293 C11.1462482,10.5705293 9.93481546,11.7826718 9.93481546,13.2704857 C9.93481546,14.7582997 11.1462482,15.9704422 12.6324588,15.9704422 C14.1184303,15.9704422 15.3301022,14.758144 15.3301022,13.2704857 Z M20.4290622,10.7530509 C20.4296168,10.7544483 20.4301668,10.7557639 20.4308376,10.757368 L20.4290622,10.7530509 Z M16.3694361,5.97163241 C16.3715755,5.97257683 16.3729343,5.97313201 16.3733827,5.97325914 L16.3694351,5.97163201 Z M15.1557487,5.47137272 L15.1466374,5.4676172 C15.1505309,5.46927764 15.1527817,5.4702375 15.1557487,5.47137272 Z M4.83580534,15.7887587 C4.83517694,15.787184 4.83452313,15.7856146 4.83368534,15.7836035 L4.83580534,15.7887587 Z M22.6543448,16.9499884 L22.3210034,17.7608108 L23.1412081,19.0502301 C23.8835379,20.2181164 23.7061124,21.8341566 22.7280322,22.8128099 L22.1695186,23.3716507 C21.2036945,24.3373479 19.5587969,24.5186218 18.4079939,23.7841047 L17.1194004,22.9642558 L16.3109203,23.2974872 L15.9788543,24.7916957 C15.6784232,26.1427162 14.4109955,27.1603465 13.0272232,27.1603465 L12.2376945,27.1603465 C10.8534269,27.1603465 9.58576901,26.1425312 9.28602769,24.7915351 L8.95403583,23.2976591 L8.14495652,22.9641289 L6.85631127,23.7848891 C5.70238488,24.5180686 4.06028203,24.3364059 3.09508222,23.3713337 L2.53649068,22.8124149 C1.55820961,21.8335606 1.38091519,20.2170864 2.12382282,19.050052 L2.94362761,17.7607579 L2.61015575,16.9498572 L1.11759758,16.6181616 C-0.232995863,16.3180062 -1.25,15.0494222 -1.25,13.6654814 L-1.25,12.8754901 C-1.25,11.4913049 -0.233210124,10.2232386 1.11813931,9.92238223 L2.61021063,9.59097349 L2.94375701,8.77991346 L2.1238876,7.49102141 C1.38136463,6.32351591 1.5583839,4.70792126 2.53680308,3.72824413 L3.09476546,3.17034983 C4.05976888,2.20408831 5.70396478,2.02304983 6.85664787,2.75694245 L8.1449894,3.57678118 L8.95408495,3.24333774 L9.28596159,1.74933896 C9.58586961,0.398276988 10.8535745,-0.61937495 12.2376945,-0.61937495 L13.0272232,-0.61937495 C14.410992,-0.61937495 15.6788172,0.39825216 15.979328,1.74963076 L16.3110788,3.24355637 L17.1192672,3.57671928 L18.408022,2.75670522 C19.5610674,2.02258196 21.2048499,2.20339453 22.1698355,3.16963777 L22.7287362,3.72886613 C23.7062357,4.70762322 23.8834797,6.3232363 23.1410517,7.49059247 L22.320891,8.78025943 L22.6540633,9.59065418 L24.1472232,9.92287612 L24.1467944,9.92278078 C25.4978449,10.2228856 26.5149177,11.4911038 26.5149177,12.8754901 L26.5149177,13.6654814 C26.5149177,15.0497173 25.4975871,16.3182075 24.1466895,16.6181263 L22.6543448,16.9499884 Z" id="Fill-376" stroke="#01B6C3" stroke-width="2.5"></path>
                                <g id="Fill-376">
                                    <use fill="black" fill-opacity="1" filter="url(#filter-5)" xlink:href="#path-4"></use>
                                    <use fill="#546670" fill-rule="evenodd" xlink:href="#path-4"></use>
                                </g>
                                <path d="M7.80749653,21.8117938 C7.86141067,21.7772851 7.98707818,21.7403964 8.13613491,21.7403964 C8.258631,21.7403964 8.34941289,21.7645922 8.38945207,21.7860114 C8.41046273,21.7963244 8.43147338,21.8066374 8.45327689,21.8153637 L9.68894134,22.3246655 C9.70876271,22.3325986 9.72858408,22.3397383 9.74880189,22.3460848 C9.89587648,22.3932864 10.1099473,22.6285013 10.1436437,22.7796259 L10.5535497,24.62406 C10.7271849,25.4066554 11.4907042,26.0198802 12.2922806,26.0198802 L13.0851355,26.0198802 C13.8863155,26.0198802 14.6498348,25.4066554 14.8238664,24.62406 L15.2337724,22.7796259 C15.2670724,22.6285013 15.4815396,22.3932864 15.6286142,22.3460848 C15.648832,22.3397383 15.6686534,22.3325986 15.6880783,22.3246655 L16.9237428,21.8153637 C16.9455463,21.8066374 16.9669534,21.7963244 16.9875676,21.7860114 C17.0280032,21.7645922 17.1187851,21.7403964 17.2404883,21.7403964 C17.3895451,21.7403964 17.515609,21.7772851 17.5687303,21.8117938 L19.1623687,22.8256376 C19.8236098,23.2476759 20.825382,23.1358199 21.3783983,22.5828863 L21.9389468,22.0220197 C22.5054416,21.4552032 22.6124771,20.4810247 22.1823532,19.8043355 L21.1682918,18.2101892 C21.0854384,18.0800871 21.0715635,17.7651451 21.1429204,17.6286966 C21.1536239,17.607674 21.1635346,17.5866514 21.172256,17.5652322 L21.6808725,16.3280731 C21.6891975,16.3086371 21.6967296,16.2888045 21.702676,16.2685752 C21.7498509,16.1210205 21.9849324,15.9068281 22.1363677,15.8731126 L23.9789626,15.4633706 C24.7615104,15.2896368 25.3743873,14.5252875 25.3743873,13.7236528 L25.3743873,12.9303478 C25.3743873,12.1283164 24.7615104,11.3643637 23.979359,11.1906299 L22.1359712,10.7804912 C21.9849324,10.7471724 21.7498509,10.5329801 21.702676,10.3854253 C21.6967296,10.3651961 21.6891975,10.3453634 21.6808725,10.3259275 L21.172256,9.08916498 C21.1635346,9.06774575 21.1536239,9.04632651 21.1429204,9.02570058 C21.0715635,8.88885547 21.0854384,8.57351674 21.1682918,8.44381137 L22.1823532,6.84926833 C22.6124771,6.17297582 22.4621661,5.24249482 21.8960677,4.6756784 L21.3722716,4.15158049 L15.3167424,10.2106578 C16.0346726,10.9289955 16.6529828,12.2334293 16.6529828,13.3270003 C16.6529828,15.5141421 14.8742127,17.2935252 12.688708,17.2935252 C11.5957575,17.2935252 10.4078088,16.5587596 9.68987862,15.8408186 L3.47538841,22.0589501 L3.99901777,22.5828863 C4.55124125,23.1350266 5.55142777,23.2476759 6.21504736,22.8260343 L7.80749653,21.8117938 Z" id="Fill-377" fill="#30404D"></path>
                            </g>
                            <circle id="Oval" fill="#01B6C3" fill-rule="nonzero" cx="18.1253913" cy="19.3223897" r="4"></circle>
                            <g id="Group-11" stroke-width="1" fill="none" fill-rule="evenodd" transform="translate(15.074674, 15.454513)">
                                <path d="M4.09635417,8.18181818 C6.35918021,8.18181818 8.19270833,6.35072727 8.19270833,4.09090909 C8.19270833,1.83109091 6.35918021,0 4.09635417,0 C1.8343474,0 0,1.83109091 0,4.09090909 C0,6.35072727 1.8343474,8.18181818 4.09635417,8.18181818 Z" id="Stroke-4" stroke="#30404D" stroke-width="2"></path>
                                <g id="Group-8" transform="translate(4.096354, 0.000000)">
                                    <mask id="mask-7" fill="white">
                                        <use xlink:href="#path-6"></use>
                                    </mask>
                                    <g id="Clip-7"></g>
                                    <polygon id="Stroke-6" stroke="#C4C4C4" mask="url(#mask-7)" points="-6.4858941 12.6818182 7.16861979 12.6818182 7.16861979 -3.68181818 -6.4858941 -3.68181818"></polygon>
                                </g>
                                <path d="M4.09635417,8.18181818 C6.35918021,8.18181818 8.19270833,6.35072727 8.19270833,4.09090909 C8.19270833,1.83109091 6.35918021,0 4.09635417,0" id="Stroke-9" stroke="#546670" stroke-width="2"></path>
                            </g>
                        </g>
                    </g>
                    <g id="Group" mask="url(#mask-2)">
                        <g transform="translate(34.541667, 38.000000)">
                            <path d="M17.2907902,1.47531095 C22.3120243,4.51236996 24.0324262,11.2387413 21.1334153,16.4990818 C18.2344044,21.7594223 11.8137773,23.5617481 6.79254314,20.5246891 C1.77130902,17.48763 0.0509071505,10.7612587 2.94991802,5.50091821 C5.8489289,0.240577699 12.2695561,-1.56174806 17.2907902,1.47531095 Z" id="Circle" fill="none" fill-rule="nonzero"></path>
                            <g id="Circle" fill="none" fill-rule="nonzero">
                                <use fill="black" fill-opacity="1" filter="url(#filter-9)" xlink:href="#path-8"></use>
                                <use stroke="#FFFFFF" stroke-width="3" xlink:href="#path-8"></use>
                            </g>
                            <rect id="Rectangle" fill="#F2BE53" fill-rule="evenodd" x="0.541666667" y="7" width="6" height="5"></rect>
                            <g id="Path-44" fill="none" fill-rule="nonzero">
                                <use fill="black" fill-opacity="1" filter="url(#filter-11)" xlink:href="#path-10"></use>
                                <use fill="#FFFFFF" xlink:href="#path-10"></use>
                            </g>
                        </g>
                    </g>
                </g>
                <g id="Dynamic-Border" stroke="#1D8E96" stroke-width="4">
                    <rect id="Azure-Border" x="2" y="2" width="96" height="96" rx="48"></rect>
                </g>
            </g>
        </g>
    </g>
</svg>