<?xml version="1.0" encoding="UTF-8"?>
<svg width="100px" height="100px" viewBox="0 0 100 100" version="1.1" xmlns="http://www.w3.org/2000/svg" xmlns:xlink="http://www.w3.org/1999/xlink">
    <!-- Generator: Sketch 55.2 (78181) - https://sketchapp.com -->
    <title>Use cost accounting in Microsoft Dynamics 365 Business Central/create-cost-accounting-master-data-in-dynamics-365-business-central</title>
    <desc>Created with Sketch.</desc>
    <defs>
        <rect id="path-1" x="0" y="0" width="96" height="96" rx="48"></rect>
        <filter x="-7.6%" y="-13.0%" width="113.0%" height="125.9%" filterUnits="objectBoundingBox" id="filter-3">
            <feOffset dx="0" dy="1" in="SourceAlpha" result="shadowOffsetOuter1"></feOffset>
            <feColorMatrix values="0 0 0 0 0   0 0 0 0 0   0 0 0 0 0  0 0 0 0.101873868 0" type="matrix" in="shadowOffsetOuter1" result="shadowMatrixOuter1"></feColorMatrix>
            <feMerge>
                <feMergeNode in="shadowMatrixOuter1"></feMergeNode>
                <feMergeNode in="SourceGraphic"></feMergeNode>
            </feMerge>
        </filter>
        <filter x="-7.6%" y="-13.0%" width="113.0%" height="125.9%" filterUnits="objectBoundingBox" id="filter-4">
            <feOffset dx="0" dy="1" in="SourceAlpha" result="shadowOffsetOuter1"></feOffset>
            <feColorMatrix values="0 0 0 0 0   0 0 0 0 0   0 0 0 0 0  0 0 0 0.101873868 0" type="matrix" in="shadowOffsetOuter1" result="shadowMatrixOuter1"></feColorMatrix>
            <feMerge>
                <feMergeNode in="shadowMatrixOuter1"></feMergeNode>
                <feMergeNode in="SourceGraphic"></feMergeNode>
            </feMerge>
        </filter>
        <filter x="-7.7%" y="-7.7%" width="115.4%" height="115.4%" filterUnits="objectBoundingBox" id="filter-5">
            <feOffset dx="0" dy="2" in="SourceAlpha" result="shadowOffsetOuter1"></feOffset>
            <feColorMatrix values="0 0 0 0 0   0 0 0 0 0   0 0 0 0 0  0 0 0 0.0964956975 0" type="matrix" in="shadowOffsetOuter1" result="shadowMatrixOuter1"></feColorMatrix>
            <feMerge>
                <feMergeNode in="shadowMatrixOuter1"></feMergeNode>
                <feMergeNode in="SourceGraphic"></feMergeNode>
            </feMerge>
        </filter>
        <rect id="path-6" x="0" y="0" width="46" height="38.6818182" rx="8"></rect>
        <path d="M4.08407741,10.311387 C5.97166539,10.311387 7.48095123,12.0123824 7.48095123,14.0740522 C7.48095123,16.134773 5.97274316,17.8334923 4.08407741,17.8334923 C2.19519561,17.8334923 0.68551064,16.1344914 0.68551064,14.0740522 C0.68551064,12.0120463 2.19511174,10.311387 4.08407741,10.311387 Z M4.08407741,15.9627444 C4.87742186,15.9627444 5.56731872,15.1338518 5.56731872,14.0757061 C5.56731872,13.0147526 4.87771138,12.1854426 4.08407741,12.1854426 C3.28945897,12.1854426 2.59914315,13.0155041 2.59914315,14.0757061 C2.59914315,15.1341148 3.28922287,15.9627444 4.08407741,15.9627444 Z" id="path-8"></path>
        <filter x="-14.7%" y="-13.3%" width="129.4%" height="153.2%" filterUnits="objectBoundingBox" id="filter-9">
            <feOffset dx="0" dy="2" in="SourceAlpha" result="shadowOffsetOuter1"></feOffset>
            <feColorMatrix values="0 0 0 0 0   0 0 0 0 0   0 0 0 0 0  0 0 0 0.100430254 0" type="matrix" in="shadowOffsetOuter1"></feColorMatrix>
        </filter>
        <path d="M11.1193575,10.311387 C11.6430144,10.311387 12.0761738,10.7250913 12.0761738,11.2475879 L12.0761738,16.8972914 C12.0761738,17.4195606 11.6416038,17.8334923 11.1193575,17.8334923 C10.5971112,17.8334923 10.1625413,17.4195606 10.1625413,16.8972914 L10.1625413,11.2475879 C10.1625413,10.7253187 10.5971112,10.311387 11.1193575,10.311387 Z" id="path-10"></path>
        <filter x="-52.3%" y="-13.3%" width="204.5%" height="153.2%" filterUnits="objectBoundingBox" id="filter-11">
            <feOffset dx="0" dy="2" in="SourceAlpha" result="shadowOffsetOuter1"></feOffset>
            <feColorMatrix values="0 0 0 0 0   0 0 0 0 0   0 0 0 0 0  0 0 0 0.100430254 0" type="matrix" in="shadowOffsetOuter1"></feColorMatrix>
        </filter>
        <path d="M18.1546376,10.311387 C20.0436033,10.311387 21.5532044,12.0120463 21.5532044,14.0740522 C21.5532044,16.1344914 20.0435194,17.8334923 18.1546376,17.8334923 C16.2645942,17.8334923 14.7560709,16.1351086 14.7560709,14.0740522 C14.7560709,12.0120463 16.265672,10.311387 18.1546376,10.311387 Z M18.1546376,15.9627444 C18.9494922,15.9627444 19.6395719,15.1341148 19.6395719,14.0757061 C19.6395719,13.0144893 18.949782,12.1854426 18.1546376,12.1854426 C17.3600192,12.1854426 16.6697034,13.0155041 16.6697034,14.0757061 C16.6697034,15.1333616 17.3608125,15.9627444 18.1546376,15.9627444 Z" id="path-12"></path>
        <filter x="-14.7%" y="-13.3%" width="129.4%" height="153.2%" filterUnits="objectBoundingBox" id="filter-13">
            <feOffset dx="0" dy="2" in="SourceAlpha" result="shadowOffsetOuter1"></feOffset>
            <feColorMatrix values="0 0 0 0 0   0 0 0 0 0   0 0 0 0 0  0 0 0 0.100430254 0" type="matrix" in="shadowOffsetOuter1"></feColorMatrix>
        </filter>
        <path d="M25.1916541,17.8351462 C24.6679972,17.8351462 24.2348378,17.4214418 24.2348378,16.8989453 L24.2348378,11.2492418 C24.2348378,10.7269726 24.6694078,10.3130409 25.1916541,10.3130409 C25.7139004,10.3130409 26.1484703,10.7269726 26.1484703,11.2492418 L26.1484703,16.8989453 C26.1484703,17.4212144 25.7139004,17.8351462 25.1916541,17.8351462 Z" id="path-14"></path>
        <filter x="-52.3%" y="-13.3%" width="204.5%" height="153.2%" filterUnits="objectBoundingBox" id="filter-15">
            <feOffset dx="0" dy="2" in="SourceAlpha" result="shadowOffsetOuter1"></feOffset>
            <feColorMatrix values="0 0 0 0 0   0 0 0 0 0   0 0 0 0 0  0 0 0 0.100430254 0" type="matrix" in="shadowOffsetOuter1"></feColorMatrix>
        </filter>
        <path d="M29.7851837,10.311387 C30.3088405,10.311387 30.7419999,10.7250913 30.7419999,11.2475879 L30.7419999,16.8972914 C30.7419999,17.4195606 30.30743,17.8334923 29.7851837,17.8334923 C29.2629374,17.8334923 28.8283674,17.4195606 28.8283674,16.8972914 L28.8283674,11.2475879 C28.8283674,10.7253187 29.2629374,10.311387 29.7851837,10.311387 Z" id="path-16"></path>
        <filter x="-52.3%" y="-13.3%" width="204.5%" height="153.2%" filterUnits="objectBoundingBox" id="filter-17">
            <feOffset dx="0" dy="2" in="SourceAlpha" result="shadowOffsetOuter1"></feOffset>
            <feColorMatrix values="0 0 0 0 0   0 0 0 0 0   0 0 0 0 0  0 0 0 0.100430254 0" type="matrix" in="shadowOffsetOuter1"></feColorMatrix>
        </filter>
        <path d="M34.3804496,10.311387 C34.9041065,10.311387 35.3372659,10.7250913 35.3372659,11.2475879 L35.3372659,16.8972914 C35.3372659,17.4195606 34.9026959,17.8334923 34.3804496,17.8334923 C33.8582033,17.8334923 33.4236334,17.4195606 33.4236334,16.8972914 L33.4236334,11.2475879 C33.4236334,10.7253187 33.8582033,10.311387 34.3804496,10.311387 Z" id="path-18"></path>
        <filter x="-52.3%" y="-13.3%" width="204.5%" height="153.2%" filterUnits="objectBoundingBox" id="filter-19">
            <feOffset dx="0" dy="2" in="SourceAlpha" result="shadowOffsetOuter1"></feOffset>
            <feColorMatrix values="0 0 0 0 0   0 0 0 0 0   0 0 0 0 0  0 0 0 0.100430254 0" type="matrix" in="shadowOffsetOuter1"></feColorMatrix>
        </filter>
        <path d="M41.4174661,17.8351462 C39.5284276,17.8351462 38.0169396,16.1342242 38.0188974,14.0757061 C38.0188974,12.0137002 39.5285004,10.3130409 41.4174661,10.3130409 C43.3075935,10.3130409 44.8160329,12.0130823 44.8160329,14.0757061 C44.8160329,16.1361453 43.3063479,17.8351462 41.4174661,17.8351462 Z M41.4174661,12.1837888 C40.6217353,12.1837888 39.9311794,13.013262 39.9325298,14.0740522 C39.9325298,15.1324609 40.6226115,15.9610905 41.4174661,15.9610905 C42.2128472,15.9610905 42.9024004,15.1334756 42.9024004,14.0740522 C42.9024004,13.0135892 42.2115813,12.1837888 41.4174661,12.1837888 Z" id="path-20"></path>
        <filter x="-14.7%" y="-13.3%" width="129.4%" height="153.2%" filterUnits="objectBoundingBox" id="filter-21">
            <feOffset dx="0" dy="2" in="SourceAlpha" result="shadowOffsetOuter1"></feOffset>
            <feColorMatrix values="0 0 0 0 0   0 0 0 0 0   0 0 0 0 0  0 0 0 0.100430254 0" type="matrix" in="shadowOffsetOuter1"></feColorMatrix>
        </filter>
        <path d="M41.4174661,20.3364684 C43.304664,20.3364684 44.8140737,22.0369138 44.8160329,24.0991336 C44.8160329,26.1598109 43.3061652,27.8601862 41.4174661,27.8601862 C39.528767,27.8601862 38.0188993,26.1598109 38.0188993,24.0991336 C38.0188993,22.0371277 39.5285004,20.3364684 41.4174661,20.3364684 Z M41.4174661,25.9878258 C42.2108635,25.9878258 42.901047,25.1586876 42.9024004,24.0991749 C42.9024004,23.0387119 42.2115813,22.2089115 41.4174661,22.2089115 C40.6228477,22.2089115 39.9325318,23.038973 39.9325318,24.0991749 C39.9325318,25.1589877 40.6224666,25.9878258 41.4174661,25.9878258 Z" id="path-22"></path>
        <filter x="-14.7%" y="-13.3%" width="129.4%" height="153.2%" filterUnits="objectBoundingBox" id="filter-23">
            <feOffset dx="0" dy="2" in="SourceAlpha" result="shadowOffsetOuter1"></feOffset>
            <feColorMatrix values="0 0 0 0 0   0 0 0 0 0   0 0 0 0 0  0 0 0 0.100430254 0" type="matrix" in="shadowOffsetOuter1"></feColorMatrix>
        </filter>
        <path d="M34.3804496,20.3364684 C34.9041065,20.3364684 35.3372659,20.7501727 35.3372659,21.2726693 L35.3372659,26.9223728 C35.3372659,27.444642 34.9026959,27.8585737 34.3804496,27.8585737 C33.8582033,27.8585737 33.4236334,27.444642 33.4236334,26.9223728 L33.4236334,21.2726693 C33.4236334,20.7504001 33.8582033,20.3364684 34.3804496,20.3364684 Z" id="path-24"></path>
        <filter x="-52.3%" y="-13.3%" width="204.5%" height="153.2%" filterUnits="objectBoundingBox" id="filter-25">
            <feOffset dx="0" dy="2" in="SourceAlpha" result="shadowOffsetOuter1"></feOffset>
            <feColorMatrix values="0 0 0 0 0   0 0 0 0 0   0 0 0 0 0  0 0 0 0.100430254 0" type="matrix" in="shadowOffsetOuter1"></feColorMatrix>
        </filter>
        <path d="M27.3451695,20.3364684 C29.2335292,20.3364684 30.7417765,22.0362951 30.7437363,24.0991336 C30.7437363,26.1598109 29.2338686,27.8601862 27.3451695,27.8601862 C25.4564705,27.8601862 23.9466028,26.1598109 23.9466028,24.0991336 C23.9466028,22.0371277 25.4562038,20.3364684 27.3451695,20.3364684 Z M27.3451695,25.9878258 C28.1385669,25.9878258 28.8287505,25.1586876 28.8301038,24.0991749 C28.8301038,23.0387119 28.1392847,22.2089115 27.3451695,22.2089115 C26.5505511,22.2089115 25.8602353,23.038973 25.8602353,24.0991749 C25.8602353,25.1589877 26.55017,25.9878258 27.3451695,25.9878258 Z" id="path-26"></path>
        <filter x="-14.7%" y="-13.3%" width="129.4%" height="153.2%" filterUnits="objectBoundingBox" id="filter-27">
            <feOffset dx="0" dy="2" in="SourceAlpha" result="shadowOffsetOuter1"></feOffset>
            <feColorMatrix values="0 0 0 0 0   0 0 0 0 0   0 0 0 0 0  0 0 0 0.100430254 0" type="matrix" in="shadowOffsetOuter1"></feColorMatrix>
        </filter>
        <path d="M21.2649693,26.9240267 C21.2649693,27.4465232 20.8318099,27.8602276 20.3081531,27.8602276 C19.7859068,27.8602276 19.3513368,27.4462958 19.3513368,26.9240267 L19.3513368,21.2743232 C19.3513368,20.752054 19.7859068,20.3381223 20.3081531,20.3381223 C20.8303994,20.3381223 21.2649693,20.752054 21.2649693,21.2743232 L21.2649693,26.9240267 Z" id="path-28"></path>
        <filter x="-52.3%" y="-13.3%" width="204.5%" height="153.2%" filterUnits="objectBoundingBox" id="filter-29">
            <feOffset dx="0" dy="2" in="SourceAlpha" result="shadowOffsetOuter1"></feOffset>
            <feColorMatrix values="0 0 0 0 0   0 0 0 0 0   0 0 0 0 0  0 0 0 0.100430254 0" type="matrix" in="shadowOffsetOuter1"></feColorMatrix>
        </filter>
        <path d="M15.7146235,27.8602276 C15.1909666,27.8602276 14.7578072,27.4465232 14.7578072,26.9240267 L14.7578072,21.2743232 C14.7578072,20.752054 15.1923772,20.3381223 15.7146235,20.3381223 C16.2368698,20.3381223 16.6714397,20.752054 16.6714397,21.2743232 L16.6714397,26.9240267 C16.6714397,27.4462958 16.2368698,27.8602276 15.7146235,27.8602276 Z" id="path-30"></path>
        <filter x="-52.3%" y="-13.3%" width="204.5%" height="153.2%" filterUnits="objectBoundingBox" id="filter-31">
            <feOffset dx="0" dy="2" in="SourceAlpha" result="shadowOffsetOuter1"></feOffset>
            <feColorMatrix values="0 0 0 0 0   0 0 0 0 0   0 0 0 0 0  0 0 0 0.100430254 0" type="matrix" in="shadowOffsetOuter1"></feColorMatrix>
        </filter>
        <path d="M11.1193575,20.3364684 C11.6430144,20.3364684 12.0761738,20.7501727 12.0761738,21.2726693 L12.0761738,26.9223728 C12.0761738,27.444642 11.6416038,27.8585737 11.1193575,27.8585737 C10.5971112,27.8585737 10.1625413,27.444642 10.1625413,26.9223728 L10.1625413,21.2726693 C10.1625413,20.7504001 10.5971112,20.3364684 11.1193575,20.3364684 Z" id="path-32"></path>
        <filter x="-52.3%" y="-13.3%" width="204.5%" height="153.2%" filterUnits="objectBoundingBox" id="filter-33">
            <feOffset dx="0" dy="2" in="SourceAlpha" result="shadowOffsetOuter1"></feOffset>
            <feColorMatrix values="0 0 0 0 0   0 0 0 0 0   0 0 0 0 0  0 0 0 0.100430254 0" type="matrix" in="shadowOffsetOuter1"></feColorMatrix>
        </filter>
        <path d="M4.08407741,20.3364684 C5.97166539,20.3364684 7.48095123,22.0374638 7.48095123,24.0991336 C7.48095123,26.1600928 5.9725607,27.8601862 4.08407741,27.8601862 C2.19537835,27.8601862 0.68551064,26.1598109 0.68551064,24.0991336 C0.68551064,22.0371277 2.19511174,20.3364684 4.08407741,20.3364684 Z M4.08407741,25.9878258 C4.87756671,25.9878258 5.56731872,25.1587246 5.56731872,24.0991749 C5.56731872,23.0382215 4.87771138,22.2089115 4.08407741,22.2089115 C3.28945897,22.2089115 2.59914315,23.038973 2.59914315,24.0991749 C2.59914315,25.1589877 3.28907788,25.9878258 4.08407741,25.9878258 Z" id="path-34"></path>
        <filter x="-14.7%" y="-13.3%" width="129.4%" height="153.2%" filterUnits="objectBoundingBox" id="filter-35">
            <feOffset dx="0" dy="2" in="SourceAlpha" result="shadowOffsetOuter1"></feOffset>
            <feColorMatrix values="0 0 0 0 0   0 0 0 0 0   0 0 0 0 0  0 0 0 0.100430254 0" type="matrix" in="shadowOffsetOuter1"></feColorMatrix>
        </filter>
        <path d="M41.4174661,0.313636364 C43.304664,0.313636364 44.8140737,2.01408181 44.8160329,4.07630158 C44.8160329,6.13697894 43.3061652,7.83735425 41.4174661,7.83735425 C39.528767,7.83735425 38.0188993,6.13697894 38.0188993,4.07630158 C38.0188993,2.01429571 39.5285004,0.313636364 41.4174661,0.313636364 Z M41.4174661,5.96499381 C42.2108635,5.96499381 42.901047,5.13585558 42.9024004,4.07634293 C42.9024004,3.01587992 42.2115813,2.1860795 41.4174661,2.1860795 C40.6228477,2.1860795 39.9325318,3.01614098 39.9325318,4.07634293 C39.9325318,5.13615572 40.6224666,5.96499381 41.4174661,5.96499381 Z" id="path-36"></path>
        <filter x="-14.7%" y="-13.3%" width="129.4%" height="153.2%" filterUnits="objectBoundingBox" id="filter-37">
            <feOffset dx="0" dy="2" in="SourceAlpha" result="shadowOffsetOuter1"></feOffset>
            <feColorMatrix values="0 0 0 0 0   0 0 0 0 0   0 0 0 0 0  0 0 0 0.100430254 0" type="matrix" in="shadowOffsetOuter1"></feColorMatrix>
        </filter>
        <path d="M34.3804496,0.313636364 C34.9041065,0.313636364 35.3372659,0.727340737 35.3372659,1.24983726 L35.3372659,6.89954081 C35.3372659,7.42180995 34.9026959,7.8357417 34.3804496,7.8357417 C33.8582033,7.8357417 33.4236334,7.42180995 33.4236334,6.89954081 L33.4236334,1.24983726 C33.4236334,0.727568114 33.8582033,0.313636364 34.3804496,0.313636364 Z" id="path-38"></path>
        <filter x="-52.3%" y="-13.3%" width="204.5%" height="153.2%" filterUnits="objectBoundingBox" id="filter-39">
            <feOffset dx="0" dy="2" in="SourceAlpha" result="shadowOffsetOuter1"></feOffset>
            <feColorMatrix values="0 0 0 0 0   0 0 0 0 0   0 0 0 0 0  0 0 0 0.100430254 0" type="matrix" in="shadowOffsetOuter1"></feColorMatrix>
        </filter>
        <path d="M27.3451695,0.313636364 C29.2335292,0.313636364 30.7417765,2.01346307 30.7437363,4.07630158 C30.7437363,6.13697894 29.2338686,7.83735425 27.3451695,7.83735425 C25.4564705,7.83735425 23.9466028,6.13697894 23.9466028,4.07630158 C23.9466028,2.01429571 25.4562038,0.313636364 27.3451695,0.313636364 Z M27.3451695,5.96499381 C28.1385669,5.96499381 28.8287505,5.13585558 28.8301038,4.07634293 C28.8301038,3.01587992 28.1392847,2.1860795 27.3451695,2.1860795 C26.5505511,2.1860795 25.8602353,3.01614098 25.8602353,4.07634293 C25.8602353,5.13615572 26.55017,5.96499381 27.3451695,5.96499381 Z" id="path-40"></path>
        <filter x="-14.7%" y="-13.3%" width="129.4%" height="153.2%" filterUnits="objectBoundingBox" id="filter-41">
            <feOffset dx="0" dy="2" in="SourceAlpha" result="shadowOffsetOuter1"></feOffset>
            <feColorMatrix values="0 0 0 0 0   0 0 0 0 0   0 0 0 0 0  0 0 0 0.100430254 0" type="matrix" in="shadowOffsetOuter1"></feColorMatrix>
        </filter>
        <path d="M21.2649693,6.89954081 C21.2649693,7.42203733 20.8318099,7.8357417 20.3081531,7.8357417 C19.7859068,7.8357417 19.3513368,7.42180995 19.3513368,6.89954081 L19.3513368,1.24983726 C19.3513368,0.727568114 19.7859068,0.313636364 20.3081531,0.313636364 C20.8303994,0.313636364 21.2649693,0.727568114 21.2649693,1.24983726 L21.2649693,6.89954081 Z" id="path-42"></path>
        <filter x="-52.3%" y="-13.3%" width="204.5%" height="153.2%" filterUnits="objectBoundingBox" id="filter-43">
            <feOffset dx="0" dy="2" in="SourceAlpha" result="shadowOffsetOuter1"></feOffset>
            <feColorMatrix values="0 0 0 0 0   0 0 0 0 0   0 0 0 0 0  0 0 0 0.100430254 0" type="matrix" in="shadowOffsetOuter1"></feColorMatrix>
        </filter>
        <path d="M15.7146235,7.8357417 C15.1909666,7.8357417 14.7578072,7.42203733 14.7578072,6.89954081 L14.7578072,1.24983726 C14.7578072,0.727568114 15.1923772,0.313636364 15.7146235,0.313636364 C16.2368698,0.313636364 16.6714397,0.727568114 16.6714397,1.24983726 L16.6714397,6.89954081 C16.6714397,7.42180995 16.2368698,7.8357417 15.7146235,7.8357417 Z" id="path-44"></path>
        <filter x="-52.3%" y="-13.3%" width="204.5%" height="153.2%" filterUnits="objectBoundingBox" id="filter-45">
            <feOffset dx="0" dy="2" in="SourceAlpha" result="shadowOffsetOuter1"></feOffset>
            <feColorMatrix values="0 0 0 0 0   0 0 0 0 0   0 0 0 0 0  0 0 0 0.100430254 0" type="matrix" in="shadowOffsetOuter1"></feColorMatrix>
        </filter>
        <path d="M11.1193575,0.313636364 C11.6430144,0.313636364 12.0761738,0.727340737 12.0761738,1.24983726 L12.0761738,6.89954081 C12.0761738,7.42180995 11.6416038,7.8357417 11.1193575,7.8357417 C10.5971112,7.8357417 10.1625413,7.42180995 10.1625413,6.89954081 L10.1625413,1.24983726 C10.1625413,0.727568114 10.5971112,0.313636364 11.1193575,0.313636364 Z" id="path-46"></path>
        <filter x="-52.3%" y="-13.3%" width="204.5%" height="153.2%" filterUnits="objectBoundingBox" id="filter-47">
            <feOffset dx="0" dy="2" in="SourceAlpha" result="shadowOffsetOuter1"></feOffset>
            <feColorMatrix values="0 0 0 0 0   0 0 0 0 0   0 0 0 0 0  0 0 0 0.100430254 0" type="matrix" in="shadowOffsetOuter1"></feColorMatrix>
        </filter>
        <path d="M4.08407741,0.313636364 C5.97166539,0.313636364 7.48095123,2.01463175 7.48095123,4.07630158 C7.48095123,6.13726084 5.9725607,7.83735425 4.08407741,7.83735425 C2.19537835,7.83735425 0.68551064,6.13697894 0.68551064,4.07630158 C0.68551064,2.01429571 2.19511174,0.313636364 4.08407741,0.313636364 Z M4.08407741,5.96499381 C4.87756671,5.96499381 5.56731872,5.13589255 5.56731872,4.07634293 C5.56731872,3.01538948 4.87771138,2.1860795 4.08407741,2.1860795 C3.28945897,2.1860795 2.59914315,3.01614098 2.59914315,4.07634293 C2.59914315,5.13615572 3.28907788,5.96499381 4.08407741,5.96499381 Z" id="path-48"></path>
        <filter x="-14.7%" y="-13.3%" width="129.4%" height="153.2%" filterUnits="objectBoundingBox" id="filter-49">
            <feOffset dx="0" dy="2" in="SourceAlpha" result="shadowOffsetOuter1"></feOffset>
            <feColorMatrix values="0 0 0 0 0   0 0 0 0 0   0 0 0 0 0  0 0 0 0.100430254 0" type="matrix" in="shadowOffsetOuter1"></feColorMatrix>
        </filter>
        <path d="M4.08407741,30.3648576 C5.97139886,30.3648576 7.48095123,32.0655688 7.48095123,34.1259102 C7.48095123,36.1868695 5.9725607,37.8869629 4.08407741,37.8869629 C2.19537835,37.8869629 0.68551064,36.1865876 0.68551064,34.1259102 C0.68551064,32.0652329 2.19537835,30.3648576 4.08407741,30.3648576 Z M4.08407741,36.0145611 C4.87756671,36.0145611 5.56731872,35.1854599 5.56731872,34.1259102 C5.56731872,33.0663606 4.87756671,32.2372593 4.08407741,32.2372593 C3.28907788,32.2372593 2.59914315,33.0660974 2.59914315,34.1259102 C2.59914315,35.185723 3.28907788,36.0145611 4.08407741,36.0145611 Z" id="path-50"></path>
        <filter x="-14.7%" y="-13.3%" width="129.4%" height="153.2%" filterUnits="objectBoundingBox" id="filter-51">
            <feOffset dx="0" dy="2" in="SourceAlpha" result="shadowOffsetOuter1"></feOffset>
            <feColorMatrix values="0 0 0 0 0   0 0 0 0 0   0 0 0 0 0  0 0 0 0.100430254 0" type="matrix" in="shadowOffsetOuter1"></feColorMatrix>
        </filter>
        <path d="M11.1193575,30.3648576 C11.6430144,30.3648576 12.0761738,30.7785619 12.0761738,31.3010584 L12.0761738,36.950762 C12.0761738,37.4730311 11.6416038,37.8869629 11.1193575,37.8869629 C10.5971112,37.8869629 10.1625413,37.4730311 10.1625413,36.950762 L10.1625413,31.3010584 C10.1625413,30.7787893 10.5971112,30.3648576 11.1193575,30.3648576 Z" id="path-52"></path>
        <filter x="-52.3%" y="-13.3%" width="204.5%" height="153.2%" filterUnits="objectBoundingBox" id="filter-53">
            <feOffset dx="0" dy="2" in="SourceAlpha" result="shadowOffsetOuter1"></feOffset>
            <feColorMatrix values="0 0 0 0 0   0 0 0 0 0   0 0 0 0 0  0 0 0 0.100430254 0" type="matrix" in="shadowOffsetOuter1"></feColorMatrix>
        </filter>
        <path d="M18.1546376,30.3648576 C20.0433367,30.3648576 21.5532044,32.0652329 21.5532044,34.1259102 C21.5532044,36.1865876 20.0433367,37.8869629 18.1546376,37.8869629 C16.2647768,37.8869629 14.7560709,36.1872053 14.7560709,34.1259102 C14.7560709,32.0652329 16.2659386,30.3648576 18.1546376,30.3648576 Z M18.1546376,36.0145611 C18.9496372,36.0145611 19.6395719,35.185723 19.6395719,34.1259102 C19.6395719,33.0660974 18.9496372,32.2372593 18.1546376,32.2372593 C17.3596381,32.2372593 16.6697034,33.0660974 16.6697034,34.1259102 C16.6697034,35.1849695 17.3606674,36.0145611 18.1546376,36.0145611 Z" id="path-54"></path>
        <filter x="-14.7%" y="-13.3%" width="129.4%" height="153.2%" filterUnits="objectBoundingBox" id="filter-55">
            <feOffset dx="0" dy="2" in="SourceAlpha" result="shadowOffsetOuter1"></feOffset>
            <feColorMatrix values="0 0 0 0 0   0 0 0 0 0   0 0 0 0 0  0 0 0 0.100430254 0" type="matrix" in="shadowOffsetOuter1"></feColorMatrix>
        </filter>
        <path d="M25.1916541,30.3648576 C25.7139004,30.3648576 26.1484703,30.7787893 26.1484703,31.3010584 L26.1484703,36.950762 C26.1484703,37.4730311 25.7139004,37.8869629 25.1916541,37.8869629 C24.6694078,37.8869629 24.2348378,37.4730311 24.2348378,36.950762 L24.2348378,31.3010584 C24.2348378,30.7787893 24.6694078,30.3648576 25.1916541,30.3648576 Z" id="path-56"></path>
        <filter x="-52.3%" y="-13.3%" width="204.5%" height="153.2%" filterUnits="objectBoundingBox" id="filter-57">
            <feOffset dx="0" dy="2" in="SourceAlpha" result="shadowOffsetOuter1"></feOffset>
            <feColorMatrix values="0 0 0 0 0   0 0 0 0 0   0 0 0 0 0  0 0 0 0.100430254 0" type="matrix" in="shadowOffsetOuter1"></feColorMatrix>
        </filter>
        <path d="M29.7851837,30.3648576 C30.3088405,30.3648576 30.7419999,30.7785619 30.7419999,31.3010584 L30.7419999,36.950762 C30.7419999,37.4730311 30.30743,37.8869629 29.7851837,37.8869629 C29.2629374,37.8869629 28.8283674,37.4730311 28.8283674,36.950762 L28.8283674,31.3010584 C28.8283674,30.7787893 29.2629374,30.3648576 29.7851837,30.3648576 Z" id="path-58"></path>
        <filter x="-52.3%" y="-13.3%" width="204.5%" height="153.2%" filterUnits="objectBoundingBox" id="filter-59">
            <feOffset dx="0" dy="2" in="SourceAlpha" result="shadowOffsetOuter1"></feOffset>
            <feColorMatrix values="0 0 0 0 0   0 0 0 0 0   0 0 0 0 0  0 0 0 0.100430254 0" type="matrix" in="shadowOffsetOuter1"></feColorMatrix>
        </filter>
        <path d="M34.3804496,30.3648576 C34.9041065,30.3648576 35.3372659,30.7785619 35.3372659,31.3010584 L35.3372659,36.950762 C35.3372659,37.4730311 34.9026959,37.8869629 34.3804496,37.8869629 C33.8582033,37.8869629 33.4236334,37.4730311 33.4236334,36.950762 L33.4236334,31.3010584 C33.4236334,30.7787893 33.8582033,30.3648576 34.3804496,30.3648576 Z" id="path-60"></path>
        <filter x="-52.3%" y="-13.3%" width="204.5%" height="153.2%" filterUnits="objectBoundingBox" id="filter-61">
            <feOffset dx="0" dy="2" in="SourceAlpha" result="shadowOffsetOuter1"></feOffset>
            <feColorMatrix values="0 0 0 0 0   0 0 0 0 0   0 0 0 0 0  0 0 0 0.100430254 0" type="matrix" in="shadowOffsetOuter1"></feColorMatrix>
        </filter>
        <path d="M41.4174661,30.3648576 C43.3043973,30.3648576 44.8140732,32.0650186 44.8160329,34.1259102 C44.8160329,36.1865876 43.3061652,37.8869629 41.4174661,37.8869629 C39.528767,37.8869629 38.0188993,36.1865876 38.0188993,34.1259102 C38.0188993,32.0652329 39.528767,30.3648576 41.4174661,30.3648576 Z M41.4174661,36.0145611 C42.2108635,36.0145611 42.901047,35.1854229 42.9024004,34.1259102 C42.9024004,33.066851 42.2114364,32.2372593 41.4174661,32.2372593 C40.6224666,32.2372593 39.9325318,33.0660974 39.9325318,34.1259102 C39.9325318,35.185723 40.6224666,36.0145611 41.4174661,36.0145611 Z" id="path-62"></path>
        <filter x="-14.7%" y="-13.3%" width="129.4%" height="153.2%" filterUnits="objectBoundingBox" id="filter-63">
            <feOffset dx="0" dy="2" in="SourceAlpha" result="shadowOffsetOuter1"></feOffset>
            <feColorMatrix values="0 0 0 0 0   0 0 0 0 0   0 0 0 0 0  0 0 0 0.100430254 0" type="matrix" in="shadowOffsetOuter1"></feColorMatrix>
        </filter>
        <rect id="path-64" x="0" y="37.6363636" width="46" height="1.04545455" rx="0.522727273"></rect>
        <filter x="-1.1%" y="-47.8%" width="102.2%" height="195.7%" filterUnits="objectBoundingBox" id="filter-65">
            <feOffset dx="0" dy="1" in="SourceAlpha" result="shadowOffsetInner1"></feOffset>
            <feComposite in="shadowOffsetInner1" in2="SourceAlpha" operator="arithmetic" k2="-1" k3="1" result="shadowInnerInner1"></feComposite>
            <feColorMatrix values="0 0 0 0 0   0 0 0 0 0   0 0 0 0 0  0 0 0 0.5 0" type="matrix" in="shadowInnerInner1"></feColorMatrix>
        </filter>
    </defs>
    <g id="Badges" stroke="none" stroke-width="1" fill="none" fill-rule="evenodd">
        <g id="Use-cost-accounting-in-Microsoft-Dynamics-365-Business-Central" transform="translate(-50.000000, -460.000000)">
            <g id="Use-cost-accounting-in-Microsoft-Dynamics-365-Business-Central/create-cost-accounting-master-data-in-dynamics-365-business-central" transform="translate(50.000000, 460.000000)">
                <g id="Mask" transform="translate(2.000000, 2.000000)">
                    <mask id="mask-2" fill="white">
                        <use xlink:href="#path-1"></use>
                    </mask>
                    <use id="BG" fill="#01B6C3" xlink:href="#path-1"></use>
                    <g id="Data" filter="url(#filter-3)" mask="url(#mask-2)" fill="#FFFFFF" stroke="#FFFFFF">
                        <g transform="translate(26.000000, 58.000000)">
                            <path d="M3.18331919,0.38035464 C1.52239966,0.38035464 0.170534957,1.83697204 0.170534957,3.62700053 C0.170534957,5.41541313 1.52239966,6.87041465 3.18331919,6.87041465 C4.84423872,6.87041465 6.19432986,5.41541313 6.19432986,3.62700053 C6.19432986,1.83697204 4.84246515,0.38035464 3.18331919,0.38035464 Z M3.18331919,6.04341262 C2.02331768,6.04341262 1.08005473,4.959029 1.08005473,3.62865785 C1.08005473,2.29667081 2.02331768,1.21067131 3.18331919,1.21067131 C4.34154714,1.21067131 5.28481009,2.29505493 5.28481009,3.62865785 C5.28481009,4.959029 4.34154714,6.04341262 3.18331919,6.04341262 Z" id="Fill-1"></path>
                            <path d="M10.5536126,0.38035464 C10.30314,0.38035464 10.0988528,0.566479816 10.0988528,0.794684314 L10.0988528,6.45608497 C10.0988528,6.68428947 10.30314,6.87041465 10.5536126,6.87041465 C10.8040853,6.87041465 11.0083725,6.68428947 11.0083725,6.45608497 L11.0083725,0.794684314 C11.0083725,0.566479816 10.8058634,0.38035464 10.5536126,0.38035464 Z" id="Fill-2"></path>
                            <path d="M17.9239061,0.38035464 C16.2629866,0.38035464 14.9111218,1.83697204 14.9111218,3.62700053 C14.9111218,5.41541313 16.261213,6.87041465 17.9239061,6.87041465 C19.5848256,6.87041465 20.9366903,5.41541313 20.9366903,3.62700053 C20.9366903,1.83697204 19.5848256,0.38035464 17.9239061,0.38035464 Z M17.9239061,6.04341262 C16.7656781,6.04341262 15.8206416,4.959029 15.8206416,3.62865785 C15.8206416,2.29667081 16.7639046,1.21067131 17.9239061,1.21067131 C19.0839076,1.21067131 20.0271705,2.29505493 20.0271705,3.62865785 C20.0271705,4.959029 19.0839076,6.04341262 17.9239061,6.04341262 Z" id="Fill-3"></path>
                            <path d="M25.2960186,6.87207196 C25.5464912,6.87207196 25.7507785,6.68594679 25.7507785,6.45774229 L25.7507785,0.796341632 C25.7507785,0.568137135 25.5464912,0.382011959 25.2960186,0.382011959 C25.0455459,0.382011959 24.8412587,0.568137135 24.8412587,0.796341632 L24.8412587,6.45774229 C24.8412587,6.68594679 25.0437678,6.87207196 25.2960186,6.87207196 Z" id="Fill-4"></path>
                            <path d="M30.1082877,0.38035464 C29.857815,0.38035464 29.6535278,0.566479816 29.6535278,0.794684314 L29.6535278,6.45608497 C29.6535278,6.68428947 29.857815,6.87041465 30.1082877,6.87041465 C30.3587603,6.87041465 30.5630475,6.68428947 30.5630475,6.45608497 L30.5630475,0.794684314 C30.5630475,0.566479816 30.3605384,0.38035464 30.1082877,0.38035464 Z" id="Fill-5"></path>
                            <path d="M34.9223758,0.38035464 C34.6719032,0.38035464 34.4676159,0.566479816 34.4676159,0.794684314 L34.4676159,6.45608497 C34.4676159,6.68428947 34.6719032,6.87041465 34.9223758,6.87041465 C35.1728484,6.87041465 35.3771357,6.68428947 35.3771357,6.45608497 L35.3771357,0.794684314 C35.3771357,0.566479816 35.1746266,0.38035464 34.9223758,0.38035464 Z" id="Fill-6"></path>
                            <path d="M42.2944883,6.87207196 C43.9554078,6.87207196 45.3072725,5.41707045 45.3072725,3.62865785 C45.3072725,1.83862936 43.9571814,0.382011959 42.2944883,0.382011959 C40.6335688,0.382011959 39.2817023,1.83862936 39.2817023,3.62865785 C39.2799259,5.41545456 40.6335688,6.87207196 42.2944883,6.87207196 Z M42.2944883,1.20901399 C43.4527162,1.20901399 44.3977528,2.29339761 44.3977528,3.62700053 C44.3977528,4.95898756 43.4544898,6.0417553 42.2944883,6.0417553 C41.1344868,6.0417553 40.1912213,4.95737168 40.1912213,3.62700053 C40.1894457,2.29335618 41.1344868,1.20901399 42.2944883,1.20901399 Z" id="Fill-7"></path>
                            <path d="M42.2944883,10.4261919 C40.6335688,10.4261919 39.2817041,11.8828093 39.2817041,13.6728378 C39.2817041,15.4612504 40.6335688,16.9178678 42.2944883,16.9178678 C43.9554078,16.9178678 45.3072725,15.4612504 45.3072725,13.6728378 C45.3054944,11.8828093 43.9536342,10.4261919 42.2944883,10.4261919 Z M42.2944883,16.0892499 C41.1344868,16.0892499 40.1912238,15.0048663 40.1912238,13.6728792 C40.1912238,12.3408922 41.1344868,11.2548927 42.2944883,11.2548927 C43.4527162,11.2548927 44.3977528,12.3392763 44.3977528,13.6728792 C44.3959746,15.0048663 43.4527162,16.0892499 42.2944883,16.0892499 Z" id="Fill-8"></path>
                            <path d="M34.9223758,10.4261919 C34.6719032,10.4261919 34.4676159,10.6123171 34.4676159,10.8405216 L34.4676159,16.5019222 C34.4676159,16.7301267 34.6719032,16.9162519 34.9223758,16.9162519 C35.1728484,16.9162519 35.3771357,16.7301267 35.3771357,16.5019222 L35.3771357,10.8405216 C35.3771357,10.6123171 35.1746266,10.4261919 34.9223758,10.4261919 Z" id="Fill-9"></path>
                            <path d="M27.5520824,10.4261919 C25.8911628,10.4261919 24.5392981,11.8828093 24.5392981,13.6728378 C24.5392981,15.4612504 25.8911628,16.9178678 27.5520824,16.9178678 C29.2130019,16.9178678 30.5648666,15.4612504 30.5648666,13.6728378 C30.5630885,11.8828093 29.2130019,10.4261919 27.5520824,10.4261919 Z M27.5520824,16.0892499 C26.3920808,16.0892499 25.4488179,15.0048663 25.4488179,13.6728792 C25.4488179,12.3408922 26.3920808,11.2548927 27.5520824,11.2548927 C28.7103103,11.2548927 29.6553468,12.3392763 29.6553468,13.6728792 C29.6535687,15.0048663 28.7103103,16.0892499 27.5520824,16.0892499 Z" id="Fill-10"></path>
                            <path d="M20.6347298,16.5035796 L20.6347298,10.8421789 C20.6347298,10.6139744 20.4304425,10.4278492 20.1799699,10.4278492 C19.9294972,10.4278492 19.72521,10.6139744 19.72521,10.8421789 L19.72521,16.5035796 C19.72521,16.7317841 19.9294972,16.9179092 20.1799699,16.9179092 C20.4322206,16.9179092 20.6347298,16.7317841 20.6347298,16.5035796 Z" id="Fill-11"></path>
                            <path d="M15.3677008,16.9179092 C15.6181734,16.9179092 15.8224607,16.7317841 15.8224607,16.5035796 L15.8224607,10.8421789 C15.8224607,10.6139744 15.6181734,10.4278492 15.3677008,10.4278492 C15.1172281,10.4278492 14.9129409,10.6139744 14.9129409,10.8421789 L14.9129409,16.5035796 C14.9129409,16.7317841 15.11545,16.9179092 15.3677008,16.9179092 Z" id="Fill-12"></path>
                            <path d="M10.5536126,10.4261919 C10.30314,10.4261919 10.0988528,10.6123171 10.0988528,10.8405216 L10.0988528,16.5019222 C10.0988528,16.7301267 10.30314,16.9162519 10.5536126,16.9162519 C10.8040853,16.9162519 11.0083725,16.7301267 11.0083725,16.5019222 L11.0083725,10.8405216 C11.0083725,10.6123171 10.8058634,10.4261919 10.5536126,10.4261919 Z" id="Fill-13"></path>
                            <path d="M3.18331919,10.4261919 C1.52239966,10.4261919 0.170534957,11.8828093 0.170534957,13.6728378 C0.170534957,15.4612504 1.52239966,16.9178678 3.18331919,16.9178678 C4.84423872,16.9178678 6.19432986,15.4612504 6.19432986,13.6728378 C6.19432986,11.8828093 4.84246515,10.4261919 3.18331919,10.4261919 Z M3.18331919,16.0892499 C2.02331768,16.0892499 1.08005473,15.0048663 1.08005473,13.6728792 C1.08005473,12.3408922 2.02331768,11.2548927 3.18331919,11.2548927 C4.34154714,11.2548927 5.28481009,12.3392763 5.28481009,13.6728792 C5.28481009,15.0048663 4.34154714,16.0892499 3.18331919,16.0892499 Z" id="Fill-14"></path>
                            <path d="M3.18331919,20.4753438 C1.52239966,20.4753438 0.170534957,21.9319612 0.170534957,23.7203738 C0.170534957,25.5087864 1.52239966,26.9654038 3.18331919,26.9654038 C4.84423872,26.9654038 6.19432986,25.5087864 6.19432986,23.7203738 C6.19432986,21.9319612 4.84246515,20.4753438 3.18331919,20.4753438 Z M3.18331919,26.1367445 C2.02331768,26.1367445 1.08005473,25.0523608 1.08005473,23.7203738 C1.08005473,22.3883868 2.02331768,21.3040032 3.18331919,21.3040032 C4.34154714,21.3040032 5.28481009,22.3883868 5.28481009,23.7203738 C5.28481009,25.0523608 4.34154714,26.1367445 3.18331919,26.1367445 Z" id="Fill-15"></path>
                            <path d="M10.5536126,20.4753438 C10.30314,20.4753438 10.0988528,20.661469 10.0988528,20.8896735 L10.0988528,26.5510741 C10.0988528,26.7792786 10.30314,26.9654038 10.5536126,26.9654038 C10.8040853,26.9654038 11.0083725,26.7792786 11.0083725,26.5510741 L11.0083725,20.8896735 C11.0083725,20.661469 10.8058634,20.4753438 10.5536126,20.4753438 Z" id="Fill-16"></path>
                            <path d="M17.9239061,20.4753438 C16.2629866,20.4753438 14.9111218,21.9319612 14.9111218,23.7203738 C14.9111218,25.5087864 16.261213,26.9654038 17.9239061,26.9654038 C19.5848256,26.9654038 20.9366903,25.5087864 20.9366903,23.7203738 C20.9366903,21.9319612 19.5848256,20.4753438 17.9239061,20.4753438 Z M17.9239061,26.1367445 C16.7656781,26.1367445 15.8206416,25.0523608 15.8206416,23.7203738 C15.8206416,22.3883868 16.7639046,21.3040032 17.9239061,21.3040032 C19.0839076,21.3040032 20.0271705,22.3883868 20.0271705,23.7203738 C20.0271705,25.0523608 19.0839076,26.1367445 17.9239061,26.1367445 Z" id="Fill-17"></path>
                            <path d="M25.2960186,20.4753438 C25.0455459,20.4753438 24.8412587,20.661469 24.8412587,20.8896735 L24.8412587,26.5510741 C24.8412587,26.7792786 25.0455459,26.9654038 25.2960186,26.9654038 C25.5464912,26.9654038 25.7507785,26.7792786 25.7507785,26.5510741 L25.7507785,20.8896735 C25.7507785,20.661469 25.5464912,20.4753438 25.2960186,20.4753438 Z" id="Fill-18"></path>
                            <path d="M30.1082877,20.4753438 C29.857815,20.4753438 29.6535278,20.661469 29.6535278,20.8896735 L29.6535278,26.5510741 C29.6535278,26.7792786 29.857815,26.9654038 30.1082877,26.9654038 C30.3587603,26.9654038 30.5630475,26.7792786 30.5630475,26.5510741 L30.5630475,20.8896735 C30.5630475,20.661469 30.3605384,20.4753438 30.1082877,20.4753438 Z" id="Fill-19"></path>
                            <path d="M34.9223758,20.4753438 C34.6719032,20.4753438 34.4676159,20.661469 34.4676159,20.8896735 L34.4676159,26.5510741 C34.4676159,26.7792786 34.6719032,26.9654038 34.9223758,26.9654038 C35.1728484,26.9654038 35.3771357,26.7792786 35.3771357,26.5510741 L35.3771357,20.8896735 C35.3771357,20.661469 35.1746266,20.4753438 34.9223758,20.4753438 Z" id="Fill-20"></path>
                            <path d="M42.2944883,20.4753438 C40.6335688,20.4753438 39.2817041,21.9319612 39.2817041,23.7203738 C39.2817041,25.5087864 40.6335688,26.9654038 42.2944883,26.9654038 C43.9554078,26.9654038 45.3072725,25.5087864 45.3072725,23.7203738 C45.3054944,21.9319612 43.9536342,20.4753438 42.2944883,20.4753438 Z M42.2944883,26.1367445 C41.1344868,26.1367445 40.1912238,25.0523608 40.1912238,23.7203738 C40.1912238,22.3883868 41.1344868,21.3040032 42.2944883,21.3040032 C43.4527162,21.3040032 44.3977528,22.3883868 44.3977528,23.7203738 C44.3959746,25.0523608 43.4527162,26.1367445 42.2944883,26.1367445 Z" id="Fill-21"></path>
                        </g>
                    </g>
                    <g id="Data" filter="url(#filter-4)" mask="url(#mask-2)" fill="#FFFFFF" stroke="#FFFFFF">
                        <g transform="translate(49.000000, 101.500000) scale(-1, 1) translate(-49.000000, -101.500000) translate(26.000000, 88.000000)">
                            <path d="M3.18331919,0.38035464 C1.52239966,0.38035464 0.170534957,1.83697204 0.170534957,3.62700053 C0.170534957,5.41541313 1.52239966,6.87041465 3.18331919,6.87041465 C4.84423872,6.87041465 6.19432986,5.41541313 6.19432986,3.62700053 C6.19432986,1.83697204 4.84246515,0.38035464 3.18331919,0.38035464 Z M3.18331919,6.04341262 C2.02331768,6.04341262 1.08005473,4.959029 1.08005473,3.62865785 C1.08005473,2.29667081 2.02331768,1.21067131 3.18331919,1.21067131 C4.34154714,1.21067131 5.28481009,2.29505493 5.28481009,3.62865785 C5.28481009,4.959029 4.34154714,6.04341262 3.18331919,6.04341262 Z" id="Fill-1"></path>
                            <path d="M10.5536126,0.38035464 C10.30314,0.38035464 10.0988528,0.566479816 10.0988528,0.794684314 L10.0988528,6.45608497 C10.0988528,6.68428947 10.30314,6.87041465 10.5536126,6.87041465 C10.8040853,6.87041465 11.0083725,6.68428947 11.0083725,6.45608497 L11.0083725,0.794684314 C11.0083725,0.566479816 10.8058634,0.38035464 10.5536126,0.38035464 Z" id="Fill-2"></path>
                            <path d="M17.9239061,0.38035464 C16.2629866,0.38035464 14.9111218,1.83697204 14.9111218,3.62700053 C14.9111218,5.41541313 16.261213,6.87041465 17.9239061,6.87041465 C19.5848256,6.87041465 20.9366903,5.41541313 20.9366903,3.62700053 C20.9366903,1.83697204 19.5848256,0.38035464 17.9239061,0.38035464 Z M17.9239061,6.04341262 C16.7656781,6.04341262 15.8206416,4.959029 15.8206416,3.62865785 C15.8206416,2.29667081 16.7639046,1.21067131 17.9239061,1.21067131 C19.0839076,1.21067131 20.0271705,2.29505493 20.0271705,3.62865785 C20.0271705,4.959029 19.0839076,6.04341262 17.9239061,6.04341262 Z" id="Fill-3"></path>
                            <path d="M25.2960186,6.87207196 C25.5464912,6.87207196 25.7507785,6.68594679 25.7507785,6.45774229 L25.7507785,0.796341632 C25.7507785,0.568137135 25.5464912,0.382011959 25.2960186,0.382011959 C25.0455459,0.382011959 24.8412587,0.568137135 24.8412587,0.796341632 L24.8412587,6.45774229 C24.8412587,6.68594679 25.0437678,6.87207196 25.2960186,6.87207196 Z" id="Fill-4"></path>
                            <path d="M30.1082877,0.38035464 C29.857815,0.38035464 29.6535278,0.566479816 29.6535278,0.794684314 L29.6535278,6.45608497 C29.6535278,6.68428947 29.857815,6.87041465 30.1082877,6.87041465 C30.3587603,6.87041465 30.5630475,6.68428947 30.5630475,6.45608497 L30.5630475,0.794684314 C30.5630475,0.566479816 30.3605384,0.38035464 30.1082877,0.38035464 Z" id="Fill-5"></path>
                            <path d="M34.9223758,0.38035464 C34.6719032,0.38035464 34.4676159,0.566479816 34.4676159,0.794684314 L34.4676159,6.45608497 C34.4676159,6.68428947 34.6719032,6.87041465 34.9223758,6.87041465 C35.1728484,6.87041465 35.3771357,6.68428947 35.3771357,6.45608497 L35.3771357,0.794684314 C35.3771357,0.566479816 35.1746266,0.38035464 34.9223758,0.38035464 Z" id="Fill-6"></path>
                            <path d="M42.2944883,6.87207196 C43.9554078,6.87207196 45.3072725,5.41707045 45.3072725,3.62865785 C45.3072725,1.83862936 43.9571814,0.382011959 42.2944883,0.382011959 C40.6335688,0.382011959 39.2817023,1.83862936 39.2817023,3.62865785 C39.2799259,5.41545456 40.6335688,6.87207196 42.2944883,6.87207196 Z M42.2944883,1.20901399 C43.4527162,1.20901399 44.3977528,2.29339761 44.3977528,3.62700053 C44.3977528,4.95898756 43.4544898,6.0417553 42.2944883,6.0417553 C41.1344868,6.0417553 40.1912213,4.95737168 40.1912213,3.62700053 C40.1894457,2.29335618 41.1344868,1.20901399 42.2944883,1.20901399 Z" id="Fill-7"></path>
                        </g>
                    </g>
                    <g id="Coin-Money" filter="url(#filter-5)" mask="url(#mask-2)">
                        <g transform="translate(22.000000, 23.000000)">
                            <path d="M26,0 C11.6406875,0 0,11.6406875 0,26 C0,40.3593125 11.6406875,52 26,52 C40.3593125,52 52,40.3593125 52,26 C52,11.6406875 40.3593125,0 26,0" id="Fill-21" fill="#F7CB64"></path>
                            <path d="M21.2546579,51.509145 L39.8666667,4.86364002 C37.7534425,3.50569278 35.4305278,2.44421588 32.9550367,1.73333333 L14.2470746,49.1972681 C16.9107705,50.4394808 19.2466316,51.2101065 21.2546579,51.509145 Z" id="Fill-22" fill="#F2BE53"></path>
                            <path d="M26.660413,52 C40.6549918,52 52,40.4557459 52,26.2153883 C52,18.5428548 48.7026862,11.6567519 43.4756046,6.93333333 L26,51.9830788 C26.2201377,51.9887192 26.4386916,52 26.660413,52" id="Fill-23" fill="#F2BE53"></path>
                            <path d="M26,6.68571429 C15.349781,6.68571429 6.68571429,15.349781 6.68571429,26 C6.68571429,36.650219 15.349781,45.3142857 26,45.3142857 C36.650219,45.3142857 45.3142857,36.650219 45.3142857,26 C45.3142857,15.349781 36.650219,6.68571429 26,6.68571429 Z M26,48.5333333 C13.5744762,48.5333333 3.46666667,38.424719 3.46666667,26 C3.46666667,13.5744762 13.5744762,3.46666667 26,3.46666667 C38.4255238,3.46666667 48.5333333,13.5744762 48.5333333,26 C48.5333333,38.424719 38.4255238,48.5333333 26,48.5333333 L26,48.5333333 Z" id="Fill-24" fill="#EFB252"></path>
                        </g>
                    </g>
                    <rect id="Rectangle" fill="#01B6C3" mask="url(#mask-2)" x="23" y="23" width="52" height="13"></rect>
                    <g id="Data" mask="url(#mask-2)">
                        <g transform="translate(25.000000, -3.000000)">
                            <mask id="mask-7" fill="white">
                                <use xlink:href="#path-6"></use>
                            </mask>
                            <g id="Rectangle-10" stroke="none" fill="none" fill-rule="nonzero"></g>
                            <g id="Group-8" stroke="none" stroke-width="1" fill="none" fill-rule="evenodd" mask="url(#mask-7)">
                                <g transform="translate(0.000000, 4.181818)" fill-rule="nonzero">
                                    <g id="Fill-1">
                                        <use fill="black" fill-opacity="1" filter="url(#filter-9)" xlink:href="#path-8"></use>
                                        <use fill="#FFFFFF" xlink:href="#path-8"></use>
                                    </g>
                                    <g id="Fill-2">
                                        <use fill="black" fill-opacity="1" filter="url(#filter-11)" xlink:href="#path-10"></use>
                                        <use fill="#FFFFFF" xlink:href="#path-10"></use>
                                    </g>
                                    <g id="Fill-3">
                                        <use fill="black" fill-opacity="1" filter="url(#filter-13)" xlink:href="#path-12"></use>
                                        <use fill="#FFFFFF" xlink:href="#path-12"></use>
                                    </g>
                                    <g id="Fill-4">
                                        <use fill="black" fill-opacity="1" filter="url(#filter-15)" xlink:href="#path-14"></use>
                                        <use fill="#FFFFFF" xlink:href="#path-14"></use>
                                    </g>
                                    <g id="Fill-5">
                                        <use fill="black" fill-opacity="1" filter="url(#filter-17)" xlink:href="#path-16"></use>
                                        <use fill="#FFFFFF" xlink:href="#path-16"></use>
                                    </g>
                                    <g id="Fill-6">
                                        <use fill="black" fill-opacity="1" filter="url(#filter-19)" xlink:href="#path-18"></use>
                                        <use fill="#FFFFFF" xlink:href="#path-18"></use>
                                    </g>
                                    <g id="Fill-7">
                                        <use fill="black" fill-opacity="1" filter="url(#filter-21)" xlink:href="#path-20"></use>
                                        <use fill="#FFFFFF" xlink:href="#path-20"></use>
                                    </g>
                                    <g id="Fill-8">
                                        <use fill="black" fill-opacity="1" filter="url(#filter-23)" xlink:href="#path-22"></use>
                                        <use fill="#FFFFFF" xlink:href="#path-22"></use>
                                    </g>
                                    <g id="Fill-9">
                                        <use fill="black" fill-opacity="1" filter="url(#filter-25)" xlink:href="#path-24"></use>
                                        <use fill="#FFFFFF" xlink:href="#path-24"></use>
                                    </g>
                                    <g id="Fill-10">
                                        <use fill="black" fill-opacity="1" filter="url(#filter-27)" xlink:href="#path-26"></use>
                                        <use fill="#FFFFFF" xlink:href="#path-26"></use>
                                    </g>
                                    <g id="Fill-11">
                                        <use fill="black" fill-opacity="1" filter="url(#filter-29)" xlink:href="#path-28"></use>
                                        <use fill="#FFFFFF" xlink:href="#path-28"></use>
                                    </g>
                                    <g id="Fill-12">
                                        <use fill="black" fill-opacity="1" filter="url(#filter-31)" xlink:href="#path-30"></use>
                                        <use fill="#FFFFFF" xlink:href="#path-30"></use>
                                    </g>
                                    <g id="Fill-13">
                                        <use fill="black" fill-opacity="1" filter="url(#filter-33)" xlink:href="#path-32"></use>
                                        <use fill="#FFFFFF" xlink:href="#path-32"></use>
                                    </g>
                                    <g id="Fill-14">
                                        <use fill="black" fill-opacity="1" filter="url(#filter-35)" xlink:href="#path-34"></use>
                                        <use fill="#FFFFFF" xlink:href="#path-34"></use>
                                    </g>
                                    <g id="Fill-8">
                                        <use fill="black" fill-opacity="1" filter="url(#filter-37)" xlink:href="#path-36"></use>
                                        <use fill="#FFFFFF" xlink:href="#path-36"></use>
                                    </g>
                                    <g id="Fill-9">
                                        <use fill="black" fill-opacity="1" filter="url(#filter-39)" xlink:href="#path-38"></use>
                                        <use fill="#FFFFFF" xlink:href="#path-38"></use>
                                    </g>
                                    <g id="Fill-10">
                                        <use fill="black" fill-opacity="1" filter="url(#filter-41)" xlink:href="#path-40"></use>
                                        <use fill="#FFFFFF" xlink:href="#path-40"></use>
                                    </g>
                                    <g id="Fill-11">
                                        <use fill="black" fill-opacity="1" filter="url(#filter-43)" xlink:href="#path-42"></use>
                                        <use fill="#FFFFFF" xlink:href="#path-42"></use>
                                    </g>
                                    <g id="Fill-12">
                                        <use fill="black" fill-opacity="1" filter="url(#filter-45)" xlink:href="#path-44"></use>
                                        <use fill="#FFFFFF" xlink:href="#path-44"></use>
                                    </g>
                                    <g id="Fill-13">
                                        <use fill="black" fill-opacity="1" filter="url(#filter-47)" xlink:href="#path-46"></use>
                                        <use fill="#FFFFFF" xlink:href="#path-46"></use>
                                    </g>
                                    <g id="Fill-14">
                                        <use fill="black" fill-opacity="1" filter="url(#filter-49)" xlink:href="#path-48"></use>
                                        <use fill="#FFFFFF" xlink:href="#path-48"></use>
                                    </g>
                                    <g id="Fill-15">
                                        <use fill="black" fill-opacity="1" filter="url(#filter-51)" xlink:href="#path-50"></use>
                                        <use fill="#FFFFFF" xlink:href="#path-50"></use>
                                    </g>
                                    <g id="Fill-16">
                                        <use fill="black" fill-opacity="1" filter="url(#filter-53)" xlink:href="#path-52"></use>
                                        <use fill="#FFFFFF" xlink:href="#path-52"></use>
                                    </g>
                                    <g id="Fill-17">
                                        <use fill="black" fill-opacity="1" filter="url(#filter-55)" xlink:href="#path-54"></use>
                                        <use fill="#FFFFFF" xlink:href="#path-54"></use>
                                    </g>
                                    <g id="Fill-18">
                                        <use fill="black" fill-opacity="1" filter="url(#filter-57)" xlink:href="#path-56"></use>
                                        <use fill="#FFFFFF" xlink:href="#path-56"></use>
                                    </g>
                                    <g id="Fill-19">
                                        <use fill="black" fill-opacity="1" filter="url(#filter-59)" xlink:href="#path-58"></use>
                                        <use fill="#FFFFFF" xlink:href="#path-58"></use>
                                    </g>
                                    <g id="Fill-20">
                                        <use fill="black" fill-opacity="1" filter="url(#filter-61)" xlink:href="#path-60"></use>
                                        <use fill="#FFFFFF" xlink:href="#path-60"></use>
                                    </g>
                                    <g id="Fill-21">
                                        <use fill="black" fill-opacity="1" filter="url(#filter-63)" xlink:href="#path-62"></use>
                                        <use fill="#FFFFFF" xlink:href="#path-62"></use>
                                    </g>
                                </g>
                            </g>
                            <g id="Rectangle-10" stroke="none" fill="none" opacity="0.394140625" fill-rule="nonzero" mask="url(#mask-7)">
                                <use fill="#383838" xlink:href="#path-64"></use>
                                <use fill="black" fill-opacity="1" filter="url(#filter-65)" xlink:href="#path-64"></use>
                            </g>
                        </g>
                    </g>
                </g>
                <g id="Dynamic-Border" stroke="#1D8E96" stroke-width="4">
                    <rect id="Azure-Border" x="2" y="2" width="96" height="96" rx="48"></rect>
                </g>
            </g>
        </g>
    </g>
</svg>