<?xml version="1.0" encoding="UTF-8"?>
<svg width="100px" height="100px" viewBox="0 0 100 100" version="1.1" xmlns="http://www.w3.org/2000/svg" xmlns:xlink="http://www.w3.org/1999/xlink">
    <!-- Generator: Sketch 55.2 (78181) - https://sketchapp.com -->
    <title>Deploy and Configure Microsoft Dynamics 365 Business Central/migrate-data-to-business-central</title>
    <desc>Created with Sketch.</desc>
    <defs>
        <rect id="path-1" x="0" y="0" width="96" height="96" rx="48"></rect>
        <filter x="-7.1%" y="-4.9%" width="114.3%" height="109.8%" filterUnits="objectBoundingBox" id="filter-3">
            <feOffset dx="0" dy="2" in="SourceAlpha" result="shadowOffsetOuter1"></feOffset>
            <feColorMatrix values="0 0 0 0 0   0 0 0 0 0   0 0 0 0 0  0 0 0 0.10193048 0" type="matrix" in="shadowOffsetOuter1" result="shadowMatrixOuter1"></feColorMatrix>
            <feMerge>
                <feMergeNode in="shadowMatrixOuter1"></feMergeNode>
                <feMergeNode in="SourceGraphic"></feMergeNode>
            </feMerge>
        </filter>
    </defs>
    <g id="Badges" stroke="none" stroke-width="1" fill="none" fill-rule="evenodd">
        <g id="Deploy-and-Configure-Microsoft-Dynamics-365-Business-Central" transform="translate(-50.000000, -1060.000000)">
            <g id="Deploy-and-Configure-Microsoft-Dynamics-365-Business-Central/migrate-data-to-business-central" transform="translate(50.000000, 1060.000000)">
                <g id="Mask" transform="translate(2.000000, 2.000000)">
                    <mask id="mask-2" fill="white">
                        <use xlink:href="#path-1"></use>
                    </mask>
                    <use id="BG" fill="#01B6C3" xlink:href="#path-1"></use>
                    <g id="Tanker" mask="url(#mask-2)">
                        <g transform="translate(9.000000, 7.000000)">
                            <path d="M14.9679221,46.2655883 L6.06415586,46.2655883 C3.0638686,46.2655883 0.622965394,43.8246851 0.622965394,40.8243978 C0.622965394,37.8241105 3.0638686,35.3832073 6.06415586,35.3832073 C6.33949988,35.3832073 6.61629324,35.4080835 6.91337729,35.460497 C7.96548093,31.8962353 11.2111609,29.4473632 14.9679221,29.4473632 C19.6048155,29.4473632 23.3770346,33.2195823 23.3770346,37.8564757 C23.3770346,42.4933692 19.6048155,46.2655883 14.9679221,46.2655883 Z" id="Cloud" fill="#FFFFFF" fill-rule="nonzero"></path>
                            <g id="DataTanker" filter="url(#filter-3)" stroke-width="1" fill="none" fill-rule="evenodd" transform="translate(11.000000, 0.000000)">
                                <path d="M23.2931138,11.3951464 L23.2931138,11.3951464 C22.6402075,11.3951464 22.1103126,10.8652515 22.1103126,10.2123452 L22.1103126,5.48114021 C22.1103126,4.82823392 22.6402075,4.29833897 23.2931138,4.29833897 C23.9460201,4.29833897 24.4759151,4.82823392 24.4759151,5.48114021 L24.4759151,10.2123452 C24.4759151,10.8652515 23.9460201,11.3951464 23.2931138,11.3951464" id="Fill-523-Copy" fill="#30404D"></path>
                                <path d="M18.5619089,11.3951464 L18.5619089,11.3951464 C17.9090026,11.3951464 17.3791076,10.8652515 17.3791076,10.2123452 L17.3791076,1.93273648 C17.3791076,1.2798302 17.9090026,0.749935242 18.5619089,0.749935242 C19.2148151,0.749935242 19.7447101,1.2798302 19.7447101,1.93273648 L19.7447101,10.2123452 C19.7447101,10.8652515 19.2148151,11.3951464 18.5619089,11.3951464" id="Fill-524-Copy" fill="#30404D"></path>
                                <g id="Database" transform="translate(27.681609, 28.368328) scale(1, -1) translate(-27.681609, -28.368328) translate(3.681609, 3.368328)">
                                    <g id="Lower" transform="translate(6.841292, 23.560623)">
                                        <path d="M17.1032302,12.3960488 C7.98676616,12.3960488 0.595373167,9.60724546 0.595373167,6.16485954 L0.595373167,14.4731119 C0.595373167,17.9154979 7.98676616,20.7043012 17.1032302,20.7043012 C26.2203821,20.7043012 33.6110873,17.9154979 33.6110873,14.4731119 L33.6110873,6.16485954 C33.6110873,9.60724546 26.2203821,12.3960488 17.1032302,12.3960488" id="Fill-101" fill="#E1E4E1"></path>
                                        <path d="M17.1032302,15.1426186 L17.1032302,17.909959 C17.1032302,18.6957812 16.4532333,19.3216696 15.6732371,19.2967448 C7.22602908,19.0232648 0.595373167,16.3486999 0.595373167,13.0884032 L0.595373167,14.4731119 C0.595373167,17.9154979 7.98676616,20.7043012 17.1032302,20.7043012 C26.2203821,20.7043012 33.6110873,17.9154979 33.6110873,14.4731119 L33.6110873,7.54956828 C33.6110873,10.8237121 26.926093,13.5065853 18.4279857,13.7606793 C17.6892591,13.7828346 17.1032302,14.3983377 17.1032302,15.1426186" id="Fill-106" fill="#D3DAD8"></path>
                                        <path d="M33.5223312,6.23663553 C33.5223312,9.68203019 26.1713629,12.4732711 17.1032302,12.4732711 C8.03578168,12.4732711 0.684129209,9.68203019 0.684129209,6.23663553 C0.684129209,2.79124088 8.03578168,0 17.1032302,0 C26.1713629,0 33.5223312,2.79124088 33.5223312,6.23663553" id="Fill-100" stroke="#E1E4E1" stroke-width="0.25" fill="#BAC0C2"></path>
                                    </g>
                                    <g id="Mid" transform="translate(6.841292, 11.780312)">
                                        <path d="M17.1032302,12.4063362 C7.98676616,12.4063362 0.595373167,9.61753278 0.595373167,6.17514687 L0.595373167,14.4833993 C0.595373167,17.9257852 7.98676616,20.7145886 17.1032302,20.7145886 C26.2203821,20.7145886 33.6110873,17.9257852 33.6110873,14.4833993 L33.6110873,6.17514687 C33.6110873,9.61753278 26.2203821,12.4063362 17.1032302,12.4063362" id="Fill-102" fill="#E1E4E1"></path>
                                        <path d="M17.1032302,15.1529059 L17.1032302,17.9202464 C17.1032302,18.7060686 16.4532333,19.3319569 15.6732371,19.3070321 C7.22602908,19.0335522 0.595373167,16.3589873 0.595373167,13.0986905 L0.595373167,14.4833993 C0.595373167,17.9257852 7.98676616,20.7145886 17.1032302,20.7145886 C26.2203821,20.7145886 33.6110873,17.9257852 33.6110873,14.4833993 L33.6110873,7.5598556 C33.6110873,10.8339994 26.926093,13.5168726 18.4279857,13.7709666 C17.6892591,13.793122 17.1032302,14.408625 17.1032302,15.1529059" id="Fill-107" fill="#D3DAD8"></path>
                                        <path d="M33.5223312,6.23663553 C33.5223312,9.68203019 26.1713629,12.4732711 17.1032302,12.4732711 C8.03578168,12.4732711 0.684129209,9.68203019 0.684129209,6.23663553 C0.684129209,2.79124088 8.03578168,0 17.1032302,0 C26.1713629,0 33.5223312,2.79124088 33.5223312,6.23663553" id="Fill-103" stroke="#E1E4E1" stroke-width="0.25" fill="#BAC0C2"></path>
                                    </g>
                                    <g id="Top" transform="translate(6.841292, 0.000000)">
                                        <path d="M17.1032302,12.4166235 C7.98676616,12.4166235 0.595373167,9.62782011 0.595373167,6.1854342 L0.595373167,14.4936866 C0.595373167,17.9360725 7.98676616,20.7248759 17.1032302,20.7248759 C26.2203821,20.7248759 33.6110873,17.9360725 33.6110873,14.4936866 L33.6110873,6.1854342 C33.6110873,9.62782011 26.2203821,12.4166235 17.1032302,12.4166235" id="Fill-104" fill="#E1E4E1"></path>
                                        <path d="M17.1032302,15.1631933 L17.1032302,17.9305337 C17.1032302,18.7163559 16.4532333,19.3422442 15.6732371,19.3173195 C7.22602908,19.0438395 0.595373167,16.3692746 0.595373167,13.1089779 L0.595373167,14.4936866 C0.595373167,17.9360725 7.98676616,20.7248759 17.1032302,20.7248759 C26.2203821,20.7248759 33.6110873,17.9360725 33.6110873,14.4936866 L33.6110873,7.57014293 C33.6110873,10.8442867 26.926093,13.5271599 18.4279857,13.781254 C17.6892591,13.8034093 17.1032302,14.4189123 17.1032302,15.1631933" id="Fill-108" fill="#D3DAD8"></path>
                                        <path d="M33.5223312,6.23663553 C33.5223312,9.68203019 26.1713629,12.4732711 17.1032302,12.4732711 C8.03578168,12.4732711 0.684129209,9.68203019 0.684129209,6.23663553 C0.684129209,2.79124088 8.03578168,0 17.1032302,0 C26.1713629,0 33.5223312,2.79124088 33.5223312,6.23663553" id="Fill-105" stroke="#E1E4E1" stroke-width="0.25" fill="#C4CBCD"></path>
                                    </g>
                                </g>
                                <g id="Tanker" transform="translate(0.819890, 6.177223)">
                                    <path d="M26.6135435,28.6166933 L1.37034934,36.8963019 C0.7585024,37.1825398 0.298114621,37.711252 0.102179352,38.3487819 C-0.0937559165,38.9874945 -0.00600576544,39.6770677 0.342590725,40.2495435 L7.2123457,51.5169081 L7.2123457,65.0540683 C7.2123457,66.0215997 7.81097002,66.8909586 8.72333118,67.2505302 L26.7541841,74.3473377 C27.0414757,74.4597038 27.344394,74.5164782 27.6473124,74.5164782 L27.6473124,28.3872298 C27.2939077,28.3872298 26.9405029,28.4629291 26.6135435,28.6166933" id="Fill-529" fill="#546670"></path>
                                    <path d="M54.308319,38.3487819 C54.1155224,37.711252 53.6625096,37.1825398 53.0604637,36.8963019 L28.2216376,28.6166933 C27.8999157,28.4629291 27.5521721,28.3872298 27.2044286,28.3872298 L27.2044286,68.6852681 C27.2044286,70.3506523 25.5283992,71.4944211 23.976564,70.887644 L7.09680745,64.2828819 L7.09680745,65.0540683 C7.09680745,66.0215997 7.68584247,66.8909586 8.58358861,67.2505302 L26.3256072,74.3473377 C26.6082967,74.4597038 26.9063627,74.5164782 27.2044286,74.5164782 C27.5024945,74.5164782 27.8005604,74.4597038 28.0832499,74.3473377 L45.8252685,67.2505302 C46.7230147,66.8909586 47.3120497,66.0215997 47.3120497,65.0540683 L47.3120497,51.5169081 L54.0717588,40.2495435 C54.4147711,39.6770677 54.4999328,38.9874945 54.308319,38.3487819" id="Fill-530" fill="#30404D"></path>
                                    <path d="M18.9248199,39.032441 C18.9248199,40.989977 19.983427,42.5808447 21.2904224,42.5808447 C22.5962349,42.5808447 23.6560248,40.989977 23.6560248,39.032441 C23.6560248,37.0713565 22.5962349,35.4840373 21.2904224,35.4840373 C19.983427,35.4840373 18.9248199,37.0713565 18.9248199,39.032441" id="Fill-531" fill="#30404D"></path>
                                    <path d="M20.1076211,40.2152422 C20.1076211,38.2541578 21.1662282,36.6668385 22.4732236,36.6668385 C22.7015042,36.6668385 22.9179569,36.7307098 23.1273127,36.8217855 C22.6944074,36.0115666 22.0367699,35.4840373 21.2904224,35.4840373 C19.983427,35.4840373 18.9248199,37.0713565 18.9248199,39.032441 C18.9248199,40.6481475 19.6510598,41.9989065 20.6375161,42.4258978 C20.3110629,41.8179379 20.1076211,41.0562139 20.1076211,40.2152422" id="Fill-532" fill="#182A37"></path>
                                    <path d="M30.7528323,39.032441 C30.7528323,40.989977 31.8114394,42.5808447 33.1184348,42.5808447 C34.4242473,42.5808447 35.4840373,40.989977 35.4840373,39.032441 C35.4840373,37.0713565 34.4242473,35.4840373 33.1184348,35.4840373 C31.8114394,35.4840373 30.7528323,37.0713565 30.7528323,39.032441" id="Fill-533" fill="#30404D"></path>
                                    <path d="M31.9356335,40.2152422 C31.9356335,38.2541578 32.9954234,36.6668385 34.301236,36.6668385 C34.5295167,36.6668385 34.7459693,36.7307098 34.9553251,36.8217855 C34.5224199,36.0115666 33.8647824,35.4840373 33.1184348,35.4840373 C31.8114394,35.4840373 30.7528323,37.0713565 30.7528323,39.032441 C30.7528323,40.6481475 31.4790723,41.9989065 32.4655285,42.4258978 C32.1390753,41.8179379 31.9356335,41.0562139 31.9356335,40.2152422" id="Fill-534" fill="#182A37"></path>
                                </g>
                            </g>
                            <path d="M72.1293248,34.4894707 L55.2338931,34.4894707 C52.2395399,34.4894707 49.8032186,32.0531495 49.8032186,29.0587963 C49.8032186,26.7288378 51.2928828,24.6814373 53.4767018,23.9363066 C53.9324984,18.992661 58.069737,15.180406 63.0782007,15.180406 C67.9593874,15.180406 72.0630344,18.8597845 72.6502351,23.6528736 C75.4012217,23.9159777 77.5599993,26.2400409 77.5599993,29.0587963 C77.5599993,32.0531495 75.123678,34.4894707 72.1293248,34.4894707 Z" id="Cloud" fill="#FFFFFF" fill-rule="nonzero" opacity="0.900000036"></path>
                        </g>
                    </g>
                    <circle id="Oval" stroke="#BAC0C2" fill="#FFFFFF" mask="url(#mask-2)" cx="48" cy="32" r="7"></circle>
                    <g id="Business-Central-logo" mask="url(#mask-2)" fill="#30404D">
                        <g transform="translate(42.000000, 26.000000)">
                            <path d="M8.26274511,3.73725489 L7.9799007,4.0200993 C7.94448368,3.98468571 7.90812407,3.9502147 7.87086117,3.91672901 C7.37498948,3.47112205 6.71915672,3.2 6,3.2 C4.4536027,3.2 3.2,4.4536027 3.2,6 C3.2,7.5463973 4.4536027,8.8 6,8.8 C6.77319865,8.8 7.47319865,8.48659932 7.97989899,7.97989899 L8.26274227,8.26274227 C7.6836556,8.8418278 6.8836556,9.2 6,9.2 C4.2326888,9.2 2.8,7.7673112 2.8,6 C2.8,4.2326888 4.2326888,2.8 6,2.8 C6.82189339,2.8 7.57141655,3.10985377 8.13812706,3.61911887 C8.18071323,3.65738823 8.22226707,3.69678367 8.2627417,3.7372583 Z" id="Combined-Shape"></path>
                            <path d="M6,2.4 C5.3372583,2.4 4.8,1.8627417 4.8,1.2 C4.8,0.5372583 5.3372583,0 6,0 C6.30821002,0 6.58928121,0.116195163 6.80179765,0.307169575 C7.04625371,0.526846011 7.2,0.845468321 7.2,1.2 C7.2,1.52318524 7.07223921,1.81653035 6.86446853,2.03228444 C6.64617306,2.25896772 6.33955646,2.4 6,2.4 Z M6,2 C6.22637097,2 6.43078204,1.90597848 6.57631236,1.75485629 C6.71482614,1.61102024 6.8,1.41545683 6.8,1.2 C6.8,0.963645547 6.69750248,0.751230674 6.53453176,0.604779717 C6.39285414,0.477463442 6.20547335,0.4 6,0.4 C5.5581722,0.4 5.2,0.7581722 5.2,1.2 C5.2,1.6418278 5.5581722,2 6,2 Z" id="Combined-Shape"></path>
                            <path d="M6,7.2 C5.3372583,7.2 4.8,6.6627417 4.8,6 C4.8,5.3372583 5.3372583,4.8 6,4.8 C6.30821002,4.8 6.58928121,4.91619516 6.80179765,5.10716958 C7.04625371,5.32684601 7.2,5.64546832 7.2,6 C7.2,6.32318524 7.07223921,6.61653035 6.86446853,6.83228444 C6.64617306,7.05896772 6.33955646,7.2 6,7.2 Z M6,6.8 C6.22637097,6.8 6.43078204,6.70597848 6.57631236,6.55485629 C6.71482614,6.41102024 6.8,6.21545683 6.8,6 C6.8,5.76364555 6.69750248,5.55123067 6.53453176,5.40477972 C6.39285414,5.27746344 6.20547335,5.2 6,5.2 C5.5581722,5.2 5.2,5.5581722 5.2,6 C5.2,6.4418278 5.5581722,6.8 6,6.8 Z" id="Combined-Shape"></path>
                            <path d="M10.8,7.2 C10.1372583,7.2 9.6,6.6627417 9.6,6 C9.6,5.3372583 10.1372583,4.8 10.8,4.8 C11.10821,4.8 11.3892812,4.91619516 11.6017976,5.10716958 C11.8462537,5.32684601 12,5.64546832 12,6 C12,6.32318524 11.8722392,6.61653035 11.6644685,6.83228444 C11.4461731,7.05896772 11.1395565,7.2 10.8,7.2 Z M10.8,6.8 C11.026371,6.8 11.230782,6.70597848 11.3763124,6.55485629 C11.5148261,6.41102024 11.6,6.21545683 11.6,6 C11.6,5.76364555 11.4975025,5.55123067 11.3345318,5.40477972 C11.1928541,5.27746344 11.0054733,5.2 10.8,5.2 C10.3581722,5.2 10,5.5581722 10,6 C10,6.4418278 10.3581722,6.8 10.8,6.8 Z" id="Combined-Shape"></path>
                            <path d="M6,12 C5.3372583,12 4.8,11.4627417 4.8,10.8 C4.8,10.1372583 5.3372583,9.6 6,9.6 C6.30821002,9.6 6.58928121,9.71619516 6.80179765,9.90716958 C7.04625371,10.126846 7.2,10.4454683 7.2,10.8 C7.2,11.1231852 7.07223921,11.4165304 6.86446853,11.6322844 C6.64617306,11.8589677 6.33955646,12 6,12 Z M6,11.6 C6.22637097,11.6 6.43078204,11.5059785 6.57631236,11.3548563 C6.71482614,11.2110202 6.8,11.0154568 6.8,10.8 C6.8,10.5636455 6.69750248,10.3512307 6.53453176,10.2047797 C6.39285414,10.0774634 6.20547335,10 6,10 C5.5581722,10 5.2,10.3581722 5.2,10.8 C5.2,11.2418278 5.5581722,11.6 6,11.6 Z" id="Combined-Shape"></path>
                            <rect id="Rectangle" x="6.8" y="5.6" width="3.2" height="1"></rect>
                            <polygon id="Rectangle" transform="translate(6.000000, 2.600000) rotate(90.000000) translate(-6.000000, -2.600000) " points="5.6 2.2 6.4 2.2 6.4 3 5.6 3"></polygon>
                            <rect id="Rectangle" x="2.2" y="5.6" width="1" height="1"></rect>
                            <polygon id="Rectangle" transform="translate(6.000000, 9.400000) rotate(90.000000) translate(-6.000000, -9.400000) " points="5.6 9 6.4 9 6.4 9.8 5.6 9.8"></polygon>
                            <path d="M1.2,7.2 C0.5372583,7.2 -2.90922841e-12,6.6627417 -2.90922841e-12,6 C-2.90922841e-12,5.3372583 0.5372583,4.8 1.2,4.8 C1.50821002,4.8 1.78928121,4.91619516 2.00179765,5.10716958 C2.24625371,5.32684601 2.4,5.64546832 2.4,6 C2.4,6.32318524 2.27223921,6.61653035 2.06446853,6.83228444 C1.84617306,7.05896772 1.53955646,7.2 1.2,7.2 Z M1.2,6.8 C1.42637097,6.8 1.63078204,6.70597848 1.77631236,6.55485629 C1.91482614,6.41102024 2,6.21545683 2,6 C2,5.76364555 1.89750248,5.55123067 1.73453176,5.40477972 C1.59285414,5.27746344 1.40547335,5.2 1.2,5.2 C0.7581722,5.2 0.4,5.5581722 0.4,6 C0.4,6.4418278 0.7581722,6.8 1.2,6.8 Z" id="Combined-Shape"></path>
                        </g>
                    </g>
                </g>
                <g id="Dynamic-Border" stroke="#1D8E96" stroke-width="4">
                    <rect id="Azure-Border" x="2" y="2" width="96" height="96" rx="48"></rect>
                </g>
            </g>
        </g>
    </g>
</svg>