<?xml version="1.0" encoding="UTF-8"?>
<svg width="100px" height="100px" viewBox="0 0 100 100" version="1.1" xmlns="http://www.w3.org/2000/svg" xmlns:xlink="http://www.w3.org/1999/xlink">
    <!-- Generator: Sketch 55.2 (78181) - https://sketchapp.com -->
    <title>Use Journals in Microsoft Dynamics 365 Business Central/post-periodic-journal-entries-in-dynamics-365-business-central</title>
    <desc>Created with Sketch.</desc>
    <defs>
        <rect id="path-1" x="0" y="0" width="96" height="96" rx="48"></rect>
        <filter x="-6.5%" y="-9.3%" width="112.9%" height="118.5%" filterUnits="objectBoundingBox" id="filter-3">
            <feOffset dx="0" dy="2" in="SourceAlpha" result="shadowOffsetOuter1"></feOffset>
            <feColorMatrix values="0 0 0 0 0   0 0 0 0 0   0 0 0 0 0  0 0 0 0.1 0" type="matrix" in="shadowOffsetOuter1" result="shadowMatrixOuter1"></feColorMatrix>
            <feMerge>
                <feMergeNode in="shadowMatrixOuter1"></feMergeNode>
                <feMergeNode in="SourceGraphic"></feMergeNode>
            </feMerge>
        </filter>
        <path d="M59.3923944,42.5310368 C58.423955,40.7484408 56.3564085,39.8571429 53.1897549,39.8571429 C50.0231013,39.8571429 43.5045807,39.8571429 33.6341931,39.8571429 L31,42.5310368 L59.3923944,42.5310368 Z" id="path-4"></path>
        <filter x="-3.5%" y="-37.4%" width="107.0%" height="249.6%" filterUnits="objectBoundingBox" id="filter-5">
            <feOffset dx="0" dy="2" in="SourceAlpha" result="shadowOffsetOuter1"></feOffset>
            <feColorMatrix values="0 0 0 0 0   0 0 0 0 0   0 0 0 0 0  0 0 0 0.1 0" type="matrix" in="shadowOffsetOuter1"></feColorMatrix>
        </filter>
        <path d="M30.3808652,42.5310368 C29.4124258,40.7484408 27.3448793,39.8571429 24.1782257,39.8571429 C21.0115721,39.8571429 14.7159422,39.8571429 5.29133597,39.8571429 L2.65714286,42.5310368 L30.3808652,42.5310368 Z" id="path-6"></path>
        <filter x="-3.6%" y="-37.4%" width="107.2%" height="249.6%" filterUnits="objectBoundingBox" id="filter-7">
            <feOffset dx="0" dy="2" in="SourceAlpha" result="shadowOffsetOuter1"></feOffset>
            <feColorMatrix values="0 0 0 0 0   0 0 0 0 0   0 0 0 0 0  0 0 0 0.1 0" type="matrix" in="shadowOffsetOuter1"></feColorMatrix>
        </filter>
        <path d="M5.31428571,7.10542736e-15 L26.2715998,7.10542736e-15 C27.8054079,9.0140899e-15 29.2041485,0.877064615 29.8722248,2.25773149 L30.0731046,2.67287571 C31.2852305,2.664903 31.8922595,2.66289722 31.8941917,2.66685837 C31.8948627,2.66823393 31.9437172,2.56193246 32.0407553,2.34795398 C32.6891182,0.918267984 34.1138285,7.39380104e-15 35.6836617,7.10542736e-15 L56.6857143,7.10542736e-15 L56.6857143,39.8571429 L36.9478536,39.8571429 C34.9880088,39.8571429 33.1150354,40.6659257 31.7712135,42.0925069 L31.7712135,42.0925069 L30.1891402,42.1172847 C28.8416046,40.7025042 26.9742829,39.9000831 25.0204556,39.8962097 L5.31428571,39.8571429 L5.31428571,7.10542736e-15 Z" id="path-8"></path>
        <filter x="-1.9%" y="-2.4%" width="103.9%" height="109.5%" filterUnits="objectBoundingBox" id="filter-9">
            <feOffset dx="0" dy="2" in="SourceAlpha" result="shadowOffsetOuter1"></feOffset>
            <feColorMatrix values="0 0 0 0 0   0 0 0 0 0   0 0 0 0 0  0 0 0 0 0" type="matrix" in="shadowOffsetOuter1"></feColorMatrix>
        </filter>
        <path d="M5.31428571,7.10542736e-15 L26.2715998,7.10542736e-15 C27.8054079,6.8236714e-15 29.2041485,0.877064615 29.8722248,2.25773149 L30.0731046,2.67287571 C30.5392945,2.66995497 30.8590197,2.66805285 31.0322801,2.66716937 C31.4162417,2.66521149 31.408515,15.8108809 31.0091002,42.1041776 L30.2103403,42.1172847 C28.862805,40.7025045 26.9954825,39.9000851 25.0416557,39.8962153 L5.31428571,39.8571429 L5.31428571,7.10542736e-15 Z" id="path-10"></path>
        <filter x="-3.8%" y="-2.4%" width="107.7%" height="109.5%" filterUnits="objectBoundingBox" id="filter-11">
            <feOffset dx="0" dy="2" in="SourceAlpha" result="shadowOffsetOuter1"></feOffset>
            <feColorMatrix values="0 0 0 0 0   0 0 0 0 0   0 0 0 0 0  0 0 0 0 0" type="matrix" in="shadowOffsetOuter1"></feColorMatrix>
        </filter>
        <rect id="path-12" x="0.939393939" y="0.816864295" width="9.80237154" height="3.26745718"></rect>
        <filter x="-10.2%" y="-30.6%" width="120.4%" height="222.4%" filterUnits="objectBoundingBox" id="filter-13">
            <feOffset dx="0" dy="2" in="SourceAlpha" result="shadowOffsetOuter1"></feOffset>
            <feColorMatrix values="0 0 0 0 0   0 0 0 0 0   0 0 0 0 0  0 0 0 0.1 0" type="matrix" in="shadowOffsetOuter1"></feColorMatrix>
        </filter>
        <rect id="path-14" x="0.939393939" y="0.816864295" width="9.80237154" height="3.26745718"></rect>
        <filter x="-10.2%" y="-30.6%" width="120.4%" height="222.4%" filterUnits="objectBoundingBox" id="filter-15">
            <feOffset dx="0" dy="2" in="SourceAlpha" result="shadowOffsetOuter1"></feOffset>
            <feColorMatrix values="0 0 0 0 0   0 0 0 0 0   0 0 0 0 0  0 0 0 0.1 0" type="matrix" in="shadowOffsetOuter1"></feColorMatrix>
        </filter>
        <rect id="path-16" x="0.939393939" y="0.816864295" width="9.80237154" height="3.26745718"></rect>
        <filter x="-10.2%" y="-30.6%" width="120.4%" height="222.4%" filterUnits="objectBoundingBox" id="filter-17">
            <feOffset dx="0" dy="2" in="SourceAlpha" result="shadowOffsetOuter1"></feOffset>
            <feColorMatrix values="0 0 0 0 0   0 0 0 0 0   0 0 0 0 0  0 0 0 0.1 0" type="matrix" in="shadowOffsetOuter1"></feColorMatrix>
        </filter>
        <rect id="path-18" x="0.939393939" y="0.816864295" width="9.80237154" height="3.26745718"></rect>
        <filter x="-10.2%" y="-30.6%" width="120.4%" height="222.4%" filterUnits="objectBoundingBox" id="filter-19">
            <feOffset dx="0" dy="2" in="SourceAlpha" result="shadowOffsetOuter1"></feOffset>
            <feColorMatrix values="0 0 0 0 0   0 0 0 0 0   0 0 0 0 0  0 0 0 0.1 0" type="matrix" in="shadowOffsetOuter1"></feColorMatrix>
        </filter>
        <rect id="path-20" x="0.939393939" y="0.816864295" width="9.80237154" height="3.26745718"></rect>
        <filter x="-10.2%" y="-30.6%" width="120.4%" height="222.4%" filterUnits="objectBoundingBox" id="filter-21">
            <feOffset dx="0" dy="2" in="SourceAlpha" result="shadowOffsetOuter1"></feOffset>
            <feColorMatrix values="0 0 0 0 0   0 0 0 0 0   0 0 0 0 0  0 0 0 0.1 0" type="matrix" in="shadowOffsetOuter1"></feColorMatrix>
        </filter>
    </defs>
    <g id="Badges" stroke="none" stroke-width="1" fill="none" fill-rule="evenodd">
        <g id="Use-Journals-in-Microsoft-Dynamics-365-Business-Central" transform="translate(-50.000000, -660.000000)">
            <g id="Use-Journals-in-Microsoft-Dynamics-365-Business-Central/post-periodic-journal-entries-in-dynamics-365-business-central" transform="translate(50.000000, 660.000000)">
                <g id="Mask" transform="translate(2.000000, 2.000000)">
                    <mask id="mask-2" fill="white">
                        <use xlink:href="#path-1"></use>
                    </mask>
                    <use id="BG" fill="#01B6C3" xlink:href="#path-1"></use>
                    <g id="Group-3" mask="url(#mask-2)">
                        <g transform="translate(17.000000, 25.000000)">
                            <g transform="translate(0.000000, -0.000000)">
                                <g id="open-journal" transform="translate(0.000000, -0.000000)" fill-rule="nonzero">
                                    <g id="Book">
                                        <g id="Book-Cooer" filter="url(#filter-3)" transform="translate(0.000000, 3.542857)" fill="#547B3E">
                                            <rect id="Rectangle" x="0" y="0" width="62" height="42.5142857"></rect>
                                        </g>
                                        <g id="Bottom-Right-Pages" transform="translate(45.196197, 41.194090) scale(-1, 1) translate(-45.196197, -41.194090) ">
                                            <use fill="black" fill-opacity="1" filter="url(#filter-5)" xlink:href="#path-4"></use>
                                            <use fill="#C5CCCD" xlink:href="#path-4"></use>
                                        </g>
                                        <polygon id="Right-hand-Pages" fill="#C5CCCD" points="56.6857143 3.55271368e-15 56.6857143 39.8625533 59.3480003 42.5192339 59.3565284 5.31445328"></polygon>
                                        <g id="Bottom-Left-Pages">
                                            <use fill="black" fill-opacity="1" filter="url(#filter-7)" xlink:href="#path-6"></use>
                                            <use fill="#C5CCCD" xlink:href="#path-6"></use>
                                        </g>
                                        <polygon id="Left-hand-pages" fill="#C5CCCD" transform="translate(3.992550, 21.259617) scale(-1, 1) translate(-3.992550, -21.259617) " points="2.65714286 3.55271368e-15 2.65714286 39.8625533 5.31942888 42.5192339 5.32795697 5.31445328"></polygon>
                                        <g id="Right-Page">
                                            <use fill="black" fill-opacity="1" filter="url(#filter-9)" xlink:href="#path-8"></use>
                                            <use fill="#F5F8F5" xlink:href="#path-8"></use>
                                        </g>
                                        <g id="Left-Page">
                                            <use fill="black" fill-opacity="1" filter="url(#filter-11)" xlink:href="#path-10"></use>
                                            <use fill="#FFFFFE" xlink:href="#path-10"></use>
                                        </g>
                                        <rect id="Spine-Crease" fill="#C5CCCD" x="30.1142857" y="2.65714286" width="1.77142857" height="39.8571429"></rect>
                                    </g>
                                    <g id="Group" transform="translate(25.363636, 1.878788)">
                                        <g id="Ring-5" transform="translate(0.000000, 32.674572)">
                                            <circle id="Oval" fill="#69994E" cx="9.10803689" cy="2.45059289" r="2.45059289"></circle>
                                            <circle id="Oval" fill="#69994E" cx="2.53227931" cy="2.45059289" r="2.45059289"></circle>
                                            <g id="Rectangle">
                                                <use fill="black" fill-opacity="1" filter="url(#filter-13)" xlink:href="#path-12"></use>
                                                <use fill="#E1E4E1" xlink:href="#path-12"></use>
                                            </g>
                                            <path d="M10.7417655,2.45059289 L0.939393939,2.45059289 C0.939393939,1.5483095 1.67083914,0.816864295 2.57312253,0.816864295 L9.10803689,0.816864295 C10.0103203,0.816864295 10.7417655,1.5483095 10.7417655,2.45059289 Z" id="Combined-Shape" fill="#D3DAD8"></path>
                                        </g>
                                        <g id="Ring-4" transform="translate(0.000000, 24.505929)">
                                            <circle id="Oval" fill="#69994E" cx="9.10803689" cy="2.45059289" r="2.45059289"></circle>
                                            <circle id="Oval" fill="#69994E" cx="2.53227931" cy="2.45059289" r="2.45059289"></circle>
                                            <g id="Rectangle">
                                                <use fill="black" fill-opacity="1" filter="url(#filter-15)" xlink:href="#path-14"></use>
                                                <use fill="#E1E4E1" xlink:href="#path-14"></use>
                                            </g>
                                            <path d="M10.7417655,2.45059289 L0.939393939,2.45059289 C0.939393939,1.5483095 1.67083914,0.816864295 2.57312253,0.816864295 L9.10803689,0.816864295 C10.0103203,0.816864295 10.7417655,1.5483095 10.7417655,2.45059289 Z" id="Combined-Shape" fill="#D3DAD8"></path>
                                        </g>
                                        <g id="Ring-3" transform="translate(0.000000, 16.337286)">
                                            <circle id="Oval" fill="#69994E" cx="9.10803689" cy="2.45059289" r="2.45059289"></circle>
                                            <circle id="Oval" fill="#69994E" cx="2.53227931" cy="2.45059289" r="2.45059289"></circle>
                                            <g id="Rectangle">
                                                <use fill="black" fill-opacity="1" filter="url(#filter-17)" xlink:href="#path-16"></use>
                                                <use fill="#E1E4E1" xlink:href="#path-16"></use>
                                            </g>
                                            <path d="M10.7417655,2.45059289 L0.939393939,2.45059289 C0.939393939,1.5483095 1.67083914,0.816864295 2.57312253,0.816864295 L9.10803689,0.816864295 C10.0103203,0.816864295 10.7417655,1.5483095 10.7417655,2.45059289 Z" id="Combined-Shape" fill="#D3DAD8"></path>
                                        </g>
                                        <g id="Ring-2" transform="translate(0.000000, 8.168643)">
                                            <circle id="Oval" fill="#69994E" cx="9.10803689" cy="2.45059289" r="2.45059289"></circle>
                                            <circle id="Oval" fill="#69994E" cx="2.53227931" cy="2.45059289" r="2.45059289"></circle>
                                            <g id="Rectangle">
                                                <use fill="black" fill-opacity="1" filter="url(#filter-19)" xlink:href="#path-18"></use>
                                                <use fill="#E1E4E1" xlink:href="#path-18"></use>
                                            </g>
                                            <path d="M10.7417655,2.45059289 L0.939393939,2.45059289 C0.939393939,1.5483095 1.67083914,0.816864295 2.57312253,0.816864295 L9.10803689,0.816864295 C10.0103203,0.816864295 10.7417655,1.5483095 10.7417655,2.45059289 Z" id="Combined-Shape" fill="#D3DAD8"></path>
                                        </g>
                                        <g id="Ring-1">
                                            <circle id="Oval" fill="#69994E" cx="9.10803689" cy="2.45059289" r="2.45059289"></circle>
                                            <circle id="Oval" fill="#69994E" cx="2.53227931" cy="2.45059289" r="2.45059289"></circle>
                                            <g id="Rectangle">
                                                <use fill="black" fill-opacity="1" filter="url(#filter-21)" xlink:href="#path-20"></use>
                                                <use fill="#E1E4E1" xlink:href="#path-20"></use>
                                            </g>
                                            <path d="M10.7417655,2.45059289 L0.939393939,2.45059289 C0.939393939,1.5483095 1.67083914,0.816864295 2.57312253,0.816864295 L9.10803689,0.816864295 C10.0103203,0.816864295 10.7417655,1.5483095 10.7417655,2.45059289 Z" id="Combined-Shape" fill="#D3DAD8"></path>
                                        </g>
                                    </g>
                                </g>
                                <g id="Group-2" transform="translate(7.000000, 6.000000)" fill="#ACADAC">
                                    <rect id="Rectangle" x="0" y="0" width="17" height="2" rx="1"></rect>
                                    <rect id="Rectangle" x="0" y="4" width="17" height="2" rx="1"></rect>
                                    <rect id="Rectangle" x="0" y="8" width="17" height="2" rx="1"></rect>
                                </g>
                                <g id="Group-2" transform="translate(7.000000, 10.000000)" fill="#D7DBDA">
                                    <rect id="Rectangle" x="0" y="9" width="17" height="2" rx="1"></rect>
                                    <rect id="Rectangle" x="0" y="13" width="17" height="2" rx="1"></rect>
                                    <rect id="Rectangle" x="0" y="17" width="17" height="2" rx="1"></rect>
                                    <rect id="Rectangle" x="31" y="0" width="17" height="2" rx="1"></rect>
                                    <rect id="Rectangle" x="31" y="4" width="17" height="2" rx="1"></rect>
                                    <rect id="Rectangle" x="31" y="8" width="17" height="2" rx="1"></rect>
                                </g>
                            </g>
                        </g>
                    </g>
                    <g id="Group-5" mask="url(#mask-2)">
                        <g transform="translate(55.213273, 49.220607)">
                            <path d="M1.25450541,29.8073097 L4.41478192,26.0595058 C2.18976685,25.0040708 0.792264096,22.6420631 0.222273656,18.9734827 C-0.632712004,13.4706121 1.25450541,9.6622445 1.25450541,9.6622445 C-0.637515643,7.03462729 0.222273656,2.79783821 2.67295725,1.16410962 C5.12364084,-0.469618968 9.7710435,-0.0716893618 11.2881916,3.11400346 C12.8029383,3.11400346 14.1976881,3.11400346 15.4724411,3.11400346 C18.4606358,-0.531292476 21.5247076,-0.976162666 24.6646565,1.77939289 C27.8046053,4.53494844 29.2857251,7.80386847 29.1080158,11.586153 L19.1323943,32.1612288 L1.25450541,29.8073097 Z" id="Path-224" fill="#01B6C3"></path>
                            <g id="Clock" stroke-width="1" fill="none" transform="translate(1.786727, 1.779393)">
                                <path d="M5.76236452,4.81510852 L4.62548215,3.39400555" id="Fill-1" fill="#CC9547"></path>
                                <path d="M19.0927045,3.39400555 L20.4603793,4.48884605 L19.3620353,5.86133811 C18.9214715,5.47814393 18.4520039,5.12779497 17.9558222,4.81510852 L19.0927045,3.39400555 Z" id="Fill-2" fill="#FDBD0F"></path>
                                <path d="M4.3066937,3.16981132 L5.67436845,4.26465182 L4.57602446,5.63714387 C4.13546064,5.2539497 3.66599304,4.90360074 3.16981132,4.59091429 L4.3066937,3.16981132 Z" id="Fill-2" fill="#FDBD0F" transform="translate(4.422090, 4.403478) scale(-1, 1) translate(-4.422090, -4.403478) "></path>
                                <path d="M7.68140095,2.44631162 C7.95861457,2.35040359 8.07685734,2.0166962 7.90299667,1.78021065 C7.00960682,0.564061826 5.50485804,-0.165539884 3.8385108,0.0324072788 C2.16471864,0.231230314 0.718215369,1.41672361 0.211523185,3.0243874 C-0.241740783,4.46213195 0.0621869404,5.90294204 0.861420506,6.98157891 C1.03265356,7.21280922 1.38825776,7.2101816 1.558177,6.97763748 C3.07299832,4.90006815 5.20355793,3.30116308 7.68140095,2.44631162 Z" id="Fill-4" fill="#FCD116"></path>
                                <path d="M23.4379075,3.0243874 C22.9307774,1.41672361 21.4842741,0.230792378 19.810482,0.0324072788 C18.1441347,-0.165539884 16.6398239,0.564061826 15.746434,1.78021065 C15.5725733,2.0166962 15.6903782,2.35040359 15.9680297,2.44631162 C18.4458728,3.30116308 20.5759944,4.90006815 22.0912537,6.97763748 C22.260735,7.2101816 22.6163392,7.21280922 22.7880102,6.98157891 C23.5872438,5.90294204 23.8911715,4.46213195 23.4379075,3.0243874 Z" id="Fill-5" fill="#FCD116"></path>
                                <path d="M11.913789,24.2801129 C6.58459895,24.2801129 2.26445364,19.9580602 2.26445364,14.6306225 C2.26445364,9.30318477 6.58459895,4.98113208 11.913789,4.98113208 C17.2429792,4.98113208 21.5631245,9.30318477 21.5631245,14.6306225 C21.5631245,19.9580602 17.2429792,24.2801129 11.913789,24.2801129 Z" id="Fill-7" fill="#E1E4E1"></path>
                                <path d="M2.62805514,14.4518946 C2.62805514,14.599917 2.64338291,14.7435601 2.65038988,14.8898308 C2.84527149,10.7627201 5.7536058,7.34375214 9.63503434,6.39386853 C10.7469544,6.12191014 11.8247153,6.94829575 11.8247153,8.09306098 L11.8247153,23.6485548 C17.0694393,23.6485548 21.2889546,19.2560547 21.0077995,13.9517715 C20.7621173,9.31008568 16.9577655,5.50967534 12.3160798,5.26793455 C7.01398618,4.99203475 2.62805514,9.21198797 2.62805514,14.4518946 Z" id="Fill-8" fill="#C5CCCD"></path>
                                <path d="M2.62805514,14.4518946 C2.62805514,9.38103135 6.75385208,5.2552344 11.8247153,5.2552344 C16.8955786,5.2552344 21.0213756,9.38103135 21.0213756,14.4518946 C21.0213756,19.5227579 16.8955786,23.6485548 11.8247153,23.6485548 C6.75385208,23.6485548 2.62805514,19.5227579 2.62805514,14.4518946 Z M23.6489928,14.4518946 C23.6489928,7.93190046 18.3442716,2.6276172 11.8247153,2.6276172 C5.30472119,2.6276172 0.0004379362,7.93190046 0.0004379362,14.4518946 C0.0004379362,18.2190218 1.77364161,21.5775545 4.52650857,23.7449008 L2.36529342,26.626521 C2.07494172,27.0136566 2.1533323,27.5623906 2.5404679,27.8527423 C2.69812493,27.9705472 2.88249607,28.0279168 3.06511547,28.0279168 C3.33138068,28.0279168 3.59458033,27.9070464 3.76625132,27.6775679 L5.98089469,24.725002 C7.70592538,25.7099205 9.6998489,26.276172 11.8247153,26.276172 C13.9491439,26.276172 15.9430674,25.7099205 17.668536,24.725002 L19.8827414,27.6775679 C20.0548504,27.9074844 20.3176121,28.0279168 20.5843152,28.0279168 C20.7669346,28.0279168 20.9513058,27.9705472 21.1089628,27.8527423 C21.4960984,27.5623906 21.574051,27.0136566 21.2836993,26.626521 L19.1229221,23.7449008 C21.8757891,21.5775545 23.6489928,18.2190218 23.6489928,14.4518946 Z" id="Fill-9" fill="#30404D"></path>
                                <path d="M11.8247153,23.6485548 L11.8247153,26.276172 C13.9491439,26.276172 15.9430674,25.7099205 17.668536,24.725002 L19.8827414,27.6775679 C20.0548504,27.9074844 20.3176121,28.0279168 20.5843152,28.0279168 C20.7669346,28.0279168 20.9513058,27.9705472 21.1089628,27.8527423 C21.4960984,27.5623906 21.574051,27.0136566 21.2836993,26.626521 L19.1229221,23.7449008 C21.8757891,21.5775545 23.6489928,18.2190218 23.6489928,14.4518946 C23.6489928,7.93190046 18.3442716,2.6276172 11.8247153,2.6276172 L11.8247153,5.2552344 C16.8955786,5.2552344 21.0213756,9.38103135 21.0213756,14.4518946 C21.0213756,19.5227579 16.8955786,23.6485548 11.8247153,23.6485548 Z" id="Fill-20" fill="#243038"></path>
                                <path d="M21.7483496,6.53050462 C21.8639648,6.6754615 21.9769523,6.823046 22.0868743,6.97282018 C22.2589833,7.20799192 22.6189668,7.20974367 22.7923895,6.9754478 C23.3358684,6.23971498 23.6489928,5.33537673 23.6489928,4.379362 C23.6489928,1.96458179 21.683973,0 19.2696308,0 C19.0432177,0 18.8229358,0.02189681 18.6057195,0.054742025 C20.709127,0.373559579 22.3281772,2.18880513 22.3281772,4.379362 C22.3281772,5.15275733 22.1144643,5.88717634 21.7483496,6.53050462 Z" id="Fill-26" fill="#FDBD0F"></path>
                                <path d="M7.68008715,2.44674955 C7.95686282,2.35127946 8.07729528,2.01844795 7.90299667,1.78327621 C7.10507691,0.702449665 5.82323766,0 4.37979994,0 C4.15338692,0 3.93310502,0.02189681 3.71588866,0.054742025 C5.23596521,0.285096466 6.49941115,1.29891877 7.08536979,2.66922114 C7.28112727,2.59039263 7.47951237,2.51594347 7.68008715,2.44674955 Z" id="Fill-27" fill="#FDBD0F"></path>
                                <g id="Standard-Face" transform="translate(4.075472, 6.792453)">
                                    <g id="Group-4" fill="#AAB0B1">
                                        <path d="M1.18020064,8.53531418 C0.696281141,8.53531418 0.304328242,8.14292335 0.304328242,7.65944178 C0.304328242,7.17596022 0.696281141,6.78356938 1.18020064,6.78356938 C1.66368221,6.78356938 2.05607304,7.17596022 2.05607304,7.65944178 C2.05607304,8.14292335 1.66368221,8.53531418 1.18020064,8.53531418 Z" id="Fill-12"></path>
                                        <path d="M14.3182867,8.53531418 C13.8343672,8.53531418 13.4424143,8.14292335 13.4424143,7.65944178 C13.4424143,7.17596022 13.8343672,6.78356938 14.3182867,6.78356938 C14.8017682,6.78356938 15.1941591,7.17596022 15.1941591,7.65944178 C15.1941591,8.14292335 14.8017682,8.53531418 14.3182867,8.53531418 Z" id="Fill-13"></path>
                                        <path d="M6.87337125,1.09039878 C6.87337125,0.606917211 7.26532415,0.214526375 7.74924365,0.214526375 C8.23272521,0.214526375 8.62511605,0.606917211 8.62511605,1.09039878 C8.62511605,1.57388034 8.23272521,1.96627118 7.74924365,1.96627118 C7.26532415,1.96627118 6.87337125,1.57388034 6.87337125,1.09039878 Z" id="Fill-14"></path>
                                        <path d="M6.87337125,14.2284848 C6.87337125,13.7450032 7.26532415,13.3526124 7.74924365,13.3526124 C8.23272521,13.3526124 8.62511605,13.7450032 8.62511605,14.2284848 C8.62511605,14.7119664 8.23272521,15.1043572 7.74924365,15.1043572 C7.26532415,15.1043572 6.87337125,14.7119664 6.87337125,14.2284848 Z" id="Fill-15"></path>
                                        <path d="M2.48437465,3.63393223 C2.14278441,3.29146612 2.14278441,2.73703889 2.48437465,2.39501072 C2.82684076,2.05298254 3.38170592,2.05298254 3.72329616,2.39501072 C4.06576227,2.73703889 4.06576227,3.29146612 3.72329616,3.63393223 C3.38170592,3.97552246 2.82684076,3.97552246 2.48437465,3.63393223 Z" id="Fill-16"></path>
                                        <path d="M11.7747532,12.9238728 C11.433163,12.5818447 11.433163,12.0269795 11.7747532,11.6849513 C12.1167814,11.3429232 12.6716465,11.3429232 13.0136747,11.6849513 C13.3557029,12.0269795 13.3557029,12.5818447 13.0136747,12.9238728 C12.6716465,13.265901 12.1167814,13.265901 11.7747532,12.9238728 Z" id="Fill-17"></path>
                                        <path d="M11.7747532,2.39501072 C12.1167814,2.05298254 12.6716465,2.05298254 13.0136747,2.39501072 C13.3557029,2.73703889 13.3557029,3.29146612 13.0136747,3.63393223 C12.6716465,3.97552246 12.1167814,3.97552246 11.7747532,3.63393223 C11.433163,3.29146612 11.433163,2.73703889 11.7747532,2.39501072 Z" id="Fill-18"></path>
                                        <path d="M2.48437465,11.6849513 C2.82684076,11.3429232 3.38170592,11.3429232 3.72329616,11.6849513 C4.06576227,12.0269795 4.06576227,12.5818447 3.72329616,12.9238728 C3.38170592,13.265901 2.82684076,13.265901 2.48437465,12.9238728 C2.14278441,12.5818447 2.14278441,12.0269795 2.48437465,11.6849513 Z" id="Fill-19"></path>
                                    </g>
                                    <g id="Group-2" transform="translate(6.339623, 2.264151)">
                                        <path d="M0.533748605,5.39529084 C0.533748605,5.39529084 0.925701505,0.140056434 1.40962101,0.140056434 C1.89310257,0.140056434 2.28549341,5.39529084 2.28549341,5.39529084 C2.28549341,5.8787724 1.89310257,6.27116324 1.40962101,6.27116324 C0.925701505,6.27116324 0.533748605,5.8787724 0.533748605,5.39529084 Z" id="Fill-10" fill="#DF5142"></path>
                                        <path d="M0.790379219,4.77604905 C1.13196945,4.43402088 1.68727256,4.43402088 2.02886279,4.77604905 C2.02886279,4.77604905 5.61774996,8.91936344 5.27572178,9.26139161 C5.10448873,9.43262467 0.790379219,6.01453263 0.790379219,6.01453263 C0.44791311,5.67250445 0.44791311,5.11807722 0.790379219,4.77604905 Z" id="Fill-11" fill="#DF5142"></path>
                                        <path d="M1.40962101,0.140056434 L1.40962101,6.27116324 C1.89310257,6.27116324 2.28549341,5.8787724 2.28549341,5.39529084 C2.28549341,5.39529084 1.89310257,0.140056434 1.40962101,0.140056434 Z" id="Fill-21" fill="#C2423D"></path>
                                        <path d="M5.27572178,9.26139161 L0.790379219,4.77604905 C0.44791311,5.11807722 0.44791311,5.67250445 0.790379219,6.01453263 C0.790379219,6.01453263 5.10448873,9.43262467 5.27572178,9.26139161 Z" id="Fill-22" fill="#C2423D"></path>
                                        <path d="M1.40962101,6.70909944 C0.684398658,6.70909944 0.0958124049,6.12051319 0.0958124049,5.39529084 C0.0958124049,4.67006849 0.684398658,4.08148224 1.40962101,4.08148224 C2.13484335,4.08148224 2.72342961,4.67006849 2.72342961,5.39529084 C2.72342961,6.12051319 2.13484335,6.70909944 1.40962101,6.70909944 Z" id="Fill-23" fill="#30404D"></path>
                                        <path d="M2.28549341,4.95735464 C2.28549341,5.68257699 1.69690715,6.27116324 0.971684806,6.27116324 C0.721623235,6.27116324 0.489954985,6.19758996 0.29113195,6.07584369 C0.521486392,6.45422057 0.934460229,6.70909944 1.40962101,6.70909944 C2.13484335,6.70909944 2.72342961,6.12051319 2.72342961,5.39529084 C2.72342961,4.92013006 2.4681128,4.50759416 2.09017386,4.27680178 C2.21148219,4.47562482 2.28549341,4.70729307 2.28549341,4.95735464 Z" id="Fill-24" fill="#243038"></path>
                                    </g>
                                </g>
                            </g>
                        </g>
                    </g>
                </g>
                <g id="Dynamic-Border" stroke="#1D8E96" stroke-width="4">
                    <rect id="Azure-Border" x="2" y="2" width="96" height="96" rx="48"></rect>
                </g>
            </g>
        </g>
    </g>
</svg>