<?xml version="1.0" encoding="UTF-8"?>
<svg width="100px" height="100px" viewBox="0 0 100 100" version="1.1" xmlns="http://www.w3.org/2000/svg" xmlns:xlink="http://www.w3.org/1999/xlink">
    <!-- Generator: Sketch 55.2 (78181) - https://sketchapp.com -->
    <title>Replenish items in Microsoft Dynamics 365 Business Central/plan-item-in-dynamics-365-business-central</title>
    <desc>Created with Sketch.</desc>
    <defs>
        <rect id="path-1" x="0" y="0" width="96" height="96" rx="48"></rect>
        <filter x="-7.5%" y="-8.9%" width="115.1%" height="120.0%" filterUnits="objectBoundingBox" id="filter-3">
            <feOffset dx="0" dy="2" in="SourceAlpha" result="shadowOffsetOuter1"></feOffset>
            <feColorMatrix values="0 0 0 0 0   0 0 0 0 0   0 0 0 0 0  0 0 0 0.0992980072 0" type="matrix" in="shadowOffsetOuter1" result="shadowMatrixOuter1"></feColorMatrix>
            <feMerge>
                <feMergeNode in="shadowMatrixOuter1"></feMergeNode>
                <feMergeNode in="SourceGraphic"></feMergeNode>
            </feMerge>
        </filter>
    </defs>
    <g id="Badges" stroke="none" stroke-width="1" fill="none" fill-rule="evenodd">
        <g id="Replenish-items-in-Microsoft-Dynamics-365-Business-Central" transform="translate(-50.000000, -260.000000)">
            <g id="Replenish-items-in-Microsoft-Dynamics-365-Business-Central/plan-item-in-dynamics-365-business-central" transform="translate(50.000000, 260.000000)">
                <g id="Mask" transform="translate(2.000000, 2.000000)">
                    <mask id="mask-2" fill="white">
                        <use xlink:href="#path-1"></use>
                    </mask>
                    <use id="BG" fill="#01B6C3" xlink:href="#path-1"></use>
                    <g id="Paper-Box" filter="url(#filter-3)" mask="url(#mask-2)">
                        <g transform="translate(19.000000, 24.000000)">
                            <path d="M53,5.76923077 L0,5.76923077 L5.30082813,1.15384615 C6.02957813,0.519230769 7.37114063,0 8.28207813,0 L44.7195781,0 C45.6305156,0 46.9720781,0.519230769 47.7008281,1.15384615 L53,5.76923077" id="Fill-680" fill="#CC9547"></path>
                            <path d="M52.9991719,43.4307692 C52.9991719,44.2938462 52.253871,45 51.3429478,45 L1.65622412,45 C0.744472743,45 0,44.2938462 0,43.4307692 L0.000828112061,5.76923077 L53,5.76923077 L52.9991719,43.4307692" id="Fill-681" fill="#F2BE53"></path>
                            <polyline id="Fill-682" fill="#EFB252" points="38.0217391 5.76923077 16.1304348 5.76923077 18.8668478 0 35.2853261 0 38.0217391 5.76923077"></polyline>
                            <path d="M51.3429478,45 C52.253871,45 52.9991719,44.2644231 52.9991719,43.3653846 L53,5.76923077 L28.9839221,5.76923077 C27.6117404,5.76923077 26.4995859,6.86442308 26.4995859,8.22115385 L26.4995859,40.9134615 C26.4995859,42.2701923 25.3874314,43.3653846 24.0152498,43.3653846 L0,43.3653846 C0,44.2644231 0.744472743,45 1.65622412,45 L51.3429478,45" id="Fill-683" fill="#EFB252"></path>
                            <path d="M16.1304348,5.76923077 L16.1304348,20.2295725 C16.1304348,20.6879695 16.4588043,20.8379903 16.8601449,20.5629521 L19.0492754,19.0627438 C19.4506159,18.7877056 20.1073551,18.7877056 20.5086957,19.0627438 L22.6978261,20.5629521 C23.0991667,20.8379903 23.7559058,20.8379903 24.1572464,20.5629521 L26.3463768,19.0627438 C26.7477174,18.7877056 27.4044565,18.7877056 27.8057971,19.0627438 L29.9949275,20.5629521 C30.3962681,20.8379903 31.0530072,20.8379903 31.4543478,20.5629521 L33.6434783,19.0627438 C34.0448188,18.7877056 34.701558,18.7877056 35.1028986,19.0627438 L37.292029,20.5629521 C37.6933696,20.8379903 38.0217391,20.6879695 38.0217391,20.2295725 L38.0217391,5.76923077 L16.1304348,5.76923077" id="Fill-684" fill="#F7CB64"></path>
                            <path d="M27.3695652,5.74148283 C27.3840845,5.7626055 27.3844902,7.25644632 27.3844902,8.81293952 L27.3844902,18.8457571 C27.6499407,18.8457571 27.9163066,18.9301453 28.1176828,19.0801688 L30.3145148,20.7679325 C30.7172673,21.0773558 31.3763169,21.0773558 31.7790694,20.7679325 L33.9759013,19.0801688 C34.3786539,18.7707454 35.0377034,18.7707454 35.440456,19.0801688 L37.6372879,20.7679325 C38.0400404,21.0773558 38.3695652,20.9085795 38.3695652,20.3928739 L38.3695652,5.74148283 L30.1305301,5.74148283 L27.3695652,5.74148283 Z" id="Fill-685" fill="#F2BE53"></path>
                        </g>
                    </g>
                    <g id="Clipboard-Check" mask="url(#mask-2)">
                        <g transform="translate(55.000000, 41.000000)">
                            <path d="M2,32 C0.9,32 0,31.1 0,30 L0,5 C0,3.9 0.9,3 2,3 L22,3 C23.1,3 24,3.9 24,5 L24,30 C24,31.1 23.1,32 22,32 L2,32" id="Fill-18" fill="#30404D" fill-rule="evenodd"></path>
                            <path d="M23,3 L13,3 L13,32 L23,32 C24.1,32 25,31.1 25,30 L25,5 C25,3.9 24.1,3 23,3" id="Fill-19" fill="#182A37" fill-rule="evenodd"></path>
                            <path d="M2,29.0384615 L2,5.96153846 C2,5.43221154 2.45,5 3,5 L22,5 C22.55,5 23,5.43221154 23,5.96153846 L23,29.0384615 C23,29.5677885 22.55,30 22,30 L3,30 C2.45,30 2,29.5677885 2,29.0384615 Z" id="Fill-20" fill="#FFFFFF" fill-rule="evenodd"></path>
                            <polygon id="Fill-26" fill="#182A37" fill-rule="evenodd" points="7 5 8 5 8 3 7 3"></polygon>
                            <path d="M6.5,28 C5.11923077,28 4,26.8805769 4,25.5 C4,24.1194231 5.11923077,23 6.5,23 C7.88076923,23 9,24.1194231 9,25.5 C9,26.8805769 7.88076923,28 6.5,28 Z" id="Fill-25" fill="#E1E4E1" fill-rule="evenodd"></path>
                            <g id="Group-70" stroke-width="1" fill="none" fill-rule="evenodd" transform="translate(4.000000, 15.500000)">
                                <path d="M2.5,5.5 C1.11923077,5.5 0,4.38057692 0,3 C0,1.61942308 1.11923077,0.5 2.5,0.5 C3.88076923,0.5 5,1.61942308 5,3 C5,4.38057692 3.88076923,5.5 2.5,5.5 Z" id="Fill-25" fill="#72C472"></path>
                                <path d="M3.89975416,2.11750709 C3.75320484,1.987335 3.51546093,1.987335 3.36909925,2.11750709 L2.13215541,3.21621954 L1.68537701,2.82286981 C1.67468134,2.80953593 1.66379804,2.79620204 1.65010009,2.78420154 C1.50355076,2.65402945 1.26580686,2.65402945 1.11944518,2.78420154 C0.974209356,2.91270689 0.97327114,3.12104891 1.11550467,3.25155434 L1.11100123,3.25555451 L1.86795382,3.92224896 C2.01450314,4.05242105 2.25224705,4.05242105 2.39879637,3.92224896 L3.8986283,2.58969343 C3.89900359,2.58952676 3.89937888,2.58919341 3.89975416,2.58886006 C4.04630349,2.45868797 4.04630349,2.24734583 3.89975416,2.11750709" id="Fill-26" fill="#FFFFFF"></path>
                            </g>
                            <g id="Group-70" stroke-width="1" fill="none" fill-rule="evenodd" transform="translate(4.000000, 9.000000)">
                                <path d="M2.5,5.5 C1.11923077,5.5 0,4.38057692 0,3 C0,1.61942308 1.11923077,0.5 2.5,0.5 C3.88076923,0.5 5,1.61942308 5,3 C5,4.38057692 3.88076923,5.5 2.5,5.5 Z" id="Fill-25" fill="#72C472"></path>
                                <path d="M3.89975416,2.11750709 C3.75320484,1.987335 3.51546093,1.987335 3.36909925,2.11750709 L2.13215541,3.21621954 L1.68537701,2.82286981 C1.67468134,2.80953593 1.66379804,2.79620204 1.65010009,2.78420154 C1.50355076,2.65402945 1.26580686,2.65402945 1.11944518,2.78420154 C0.974209356,2.91270689 0.97327114,3.12104891 1.11550467,3.25155434 L1.11100123,3.25555451 L1.86795382,3.92224896 C2.01450314,4.05242105 2.25224705,4.05242105 2.39879637,3.92224896 L3.8986283,2.58969343 C3.89900359,2.58952676 3.89937888,2.58919341 3.89975416,2.58886006 C4.04630349,2.45868797 4.04630349,2.24734583 3.89975416,2.11750709" id="Fill-26" fill="#FFFFFF"></path>
                            </g>
                            <rect id="Rectangle" fill="#E1E4E1" fill-rule="nonzero" x="11" y="9" width="10" height="2" rx="1"></rect>
                            <rect id="Rectangle" fill="#E1E4E1" fill-rule="nonzero" x="11" y="17" width="9" height="2" rx="1"></rect>
                            <rect id="Rectangle" fill="#E1E4E1" fill-rule="nonzero" x="11" y="13" width="10" height="2" rx="1"></rect>
                            <rect id="Rectangle" fill="#E1E4E1" fill-rule="nonzero" x="11" y="21" width="10" height="2" rx="1"></rect>
                            <rect id="Rectangle" fill="#E1E4E1" fill-rule="nonzero" x="11" y="25" width="7" height="2" rx="1"></rect>
                            <g id="Top" stroke-width="1" fill="none" fill-rule="evenodd" transform="translate(7.000000, 0.000000)">
                                <path d="M9.95290476,5.5 L0.524333333,5.5 C0.236238095,5.5 0.000523809524,5.275 0.000523809524,5 L0.000523809524,5.5 C0.000523809524,5.775 0.236238095,6 0.524333333,6 L9.95290476,6 C10.241,6 10.4767143,5.775 10.4767143,5.5 L10.4767143,5 C10.4767143,5.275 10.241,5.5 9.95290476,5.5" id="Fill-22" fill="#546670"></path>
                                <path d="M5.23861905,1 C5.81638095,1 6.2862381,1.4485 6.2862381,2 L4.191,2 C4.191,1.4485 4.66033333,1 5.23861905,1 Z M9.95290476,2 L7.33385714,2 C7.33385714,0.8955 6.39571429,0 5.23861905,0 C4.08152381,0 3.14338095,0.8955 3.14338095,2 L0.524333333,2 C0.236238095,2 0.000523809524,2.225 0.000523809524,2.5 L0.000523809524,5 C0.000523809524,5.275 0.236238095,5.5 0.524333333,5.5 L9.95290476,5.5 C10.241,5.5 10.4767143,5.275 10.4767143,5 L10.4767143,2.5 C10.4767143,2.225 10.241,2 9.95290476,2 L9.95290476,2 Z" id="Fill-24" fill="#ADBDC4"></path>
                                <path d="M10.4767143,5 L10.4767143,2.5 C10.4767143,2.225 10.241,2 9.95290476,2 L7.85766667,2 L6.2862381,5.5 L9.95290476,5.5 C10.241,5.5 10.4767143,5.275 10.4767143,5" id="Fill-33" fill="#8BA6B1"></path>
                                <path d="M5.59742857,0.0345 L5.16057143,1.0075 C5.1867619,1.0055 5.21190476,1 5.23861905,1 C5.81638095,1 6.2862381,1.4485 6.2862381,2 L4.71480952,2 L3.14338095,5.5 L5.23861905,5.5 L7.16361905,1.212 C6.88861905,0.601 6.303,0.1515 5.59742857,0.0345" id="Fill-34" fill="#8BA6B1"></path>
                            </g>
                        </g>
                    </g>
                </g>
                <g id="Dynamic-Border" stroke="#1D8E96" stroke-width="4">
                    <rect id="Azure-Border" x="2" y="2" width="96" height="96" rx="48"></rect>
                </g>
            </g>
        </g>
    </g>
</svg>