<?xml version="1.0" encoding="UTF-8"?>
<svg width="100px" height="100px" viewBox="0 0 100 100" version="1.1" xmlns="http://www.w3.org/2000/svg" xmlns:xlink="http://www.w3.org/1999/xlink">
    <!-- Generator: Sketch 55.2 (78181) - https://sketchapp.com -->
    <title>Post sales and purchase invoices in Microsoft Dynamics 365 Business Central/posting-prepayment-invoices-for-sales-and-purchase-orders-in-dynamics-365-business-central</title>
    <desc>Created with Sketch.</desc>
    <defs>
        <rect id="path-1" x="0" y="0" width="96" height="96" rx="48"></rect>
        <filter x="-8.2%" y="-6.2%" width="116.3%" height="112.5%" filterUnits="objectBoundingBox" id="filter-3">
            <feOffset dx="0" dy="2" in="SourceAlpha" result="shadowOffsetOuter1"></feOffset>
            <feColorMatrix values="0 0 0 0 0   0 0 0 0 0   0 0 0 0 0  0 0 0 0.100288723 0" type="matrix" in="shadowOffsetOuter1" result="shadowMatrixOuter1"></feColorMatrix>
            <feMerge>
                <feMergeNode in="shadowMatrixOuter1"></feMergeNode>
                <feMergeNode in="SourceGraphic"></feMergeNode>
            </feMerge>
        </filter>
        <polygon id="path-4" points="0.001 0.04 20.001 0.04 20.001 12 0.001 12"></polygon>
        <filter x="-8.3%" y="-8.2%" width="116.7%" height="118.0%" filterUnits="objectBoundingBox" id="filter-6">
            <feOffset dx="0" dy="1" in="SourceAlpha" result="shadowOffsetOuter1"></feOffset>
            <feColorMatrix values="0 0 0 0 0   0 0 0 0 0   0 0 0 0 0  0 0 0 0.102779665 0" type="matrix" in="shadowOffsetOuter1" result="shadowMatrixOuter1"></feColorMatrix>
            <feMerge>
                <feMergeNode in="shadowMatrixOuter1"></feMergeNode>
                <feMergeNode in="SourceGraphic"></feMergeNode>
            </feMerge>
        </filter>
    </defs>
    <g id="Badges" stroke="none" stroke-width="1" fill="none" fill-rule="evenodd">
        <g id="Post-sales-and-purchase-invoices-in-Microsoft-Dynamics-365-Business-Central" transform="translate(-50.000000, -460.000000)">
            <g id="Post-sales-and-purchase-invoices-in-Microsoft-Dynamics-365-Business-Central/posting-prepayment-invoices-for-sales-and-purchase-orders-in-dynamics-365-business-central" transform="translate(50.000000, 460.000000)">
                <g id="Mask" transform="translate(2.000000, 2.000000)">
                    <mask id="mask-2" fill="white">
                        <use xlink:href="#path-1"></use>
                    </mask>
                    <use id="BG" fill="#01B6C3" xlink:href="#path-1"></use>
                    <g id="Group" mask="url(#mask-2)">
                        <g transform="translate(23.000000, 14.000000)">
                            <g id="Clipboard-Stats" stroke-width="1" fill="none">
                                <g id="Group-4" filter="url(#filter-3)">
                                    <path d="M4.001,64 C1.801,64 0.001,62.2 0.001,60 L0.001,10 C0.001,7.8 1.801,6 4.001,6 L44.001,6 C46.201,6 48.001,7.8 48.001,10 L48.001,60 C48.001,62.2 46.201,64 44.001,64 L4.001,64" id="Fill-18" fill="#30404D"></path>
                                    <path d="M44.001,6 L24.001,6 L24.001,64 L44.001,64 C46.201,64 48.001,62.2 48.001,60 L48.001,10 C48.001,7.8 46.201,6 44.001,6" id="Fill-19" fill="#182A37"></path>
                                    <path d="M3.001,59 L3.001,11 C3.001,9.899 3.901,9 5.001,9 L43.001,9 C44.101,9 45.001,9.899 45.001,11 L45.001,59 C45.001,60.101 44.101,61 43.001,61 L5.001,61 C3.901,61 3.001,60.101 3.001,59 Z" id="Fill-20" fill="#E1E4E1"></path>
                                    <g id="Group-25" transform="translate(14.000000, 0.000000)">
                                        <mask id="mask-5" fill="white">
                                            <use xlink:href="#path-4"></use>
                                        </mask>
                                        <g id="Clip-23"></g>
                                        <path d="M19.001,11 L1.001,11 C0.451,11 0.001,10.55 0.001,10 L0.001,11 C0.001,11.55 0.451,12 1.001,12 L19.001,12 C19.551,12 20.001,11.55 20.001,11 L20.001,10 C20.001,10.55 19.551,11 19.001,11" id="Fill-22" fill="#546670" mask="url(#mask-5)"></path>
                                        <path d="M10.001,2 C11.104,2 12.001,2.897 12.001,4 L8.001,4 C8.001,2.897 8.897,2 10.001,2 Z M19.001,4 L14.001,4 C14.001,1.791 12.21,0 10.001,0 C7.792,0 6.001,1.791 6.001,4 L1.001,4 C0.451,4 0.001,4.45 0.001,5 L0.001,10 C0.001,10.55 0.451,11 1.001,11 L19.001,11 C19.551,11 20.001,10.55 20.001,10 L20.001,5 C20.001,4.45 19.551,4 19.001,4 L19.001,4 Z" id="Fill-24" fill="#ADBDC4" mask="url(#mask-5)"></path>
                                    </g>
                                    <polygon id="Fill-26" fill="#182A37" points="13.001 9 14.001 9 14.001 6 13.001 6"></polygon>
                                    <path d="M34.001,10 L34.001,5 C34.001,4.45 33.551,4 33.001,4 L29.001,4 L26.001,11 L33.001,11 C33.551,11 34.001,10.55 34.001,10" id="Fill-33" fill="#8BA6B1"></path>
                                    <path d="M24.686,0.069 L23.852,2.015 C23.902,2.011 23.95,2 24.001,2 C25.104,2 26.001,2.897 26.001,4 L23.001,4 L20.001,11 L24.001,11 L27.676,2.424 C27.151,1.202 26.033,0.303 24.686,0.069" id="Fill-34" fill="#8BA6B1"></path>
                                </g>
                            </g>
                            <g id="Pen" filter="url(#filter-6)" stroke-width="1" fill="none" transform="translate(47.423185, 37.683294) rotate(79.000000) translate(-47.423185, -37.683294) translate(32.423185, 22.433294)">
                                <path d="M9.92473632,3.51773366 L7.14391919,0.736916538 C6.7819495,0.370775617 6.19519709,0.370775617 5.83322739,0.736916538 L0.271593139,6.29855079 C-0.0903765566,6.66005702 -0.0903765566,7.24402861 0.271593139,7.60553484 L3.05241026,10.386352 C3.23362685,10.5671051 3.47045977,10.659799 3.70775617,10.659799 C3.94505256,10.659799 4.18188549,10.5671051 4.36310207,10.386352 L9.92473632,4.82471771 C10.286706,4.46321149 10.286706,3.87923989 9.92473632,3.51773366" id="Fill-267" fill="#546670"></path>
                                <path d="M9.92473632,3.51773366 L8.8059209,2.39613742 L6.02510377,5.17695455 C5.66313408,5.53846077 5.07638166,5.53846077 4.71441197,5.17695455 L3.05241026,3.51773366 L0.271593139,6.29855079 C-0.0903765566,6.66005702 -0.0903765566,7.24402861 0.271593139,7.60553484 L3.05241026,10.386352 C3.09783028,10.4326989 3.14649458,10.4744112 3.19793969,10.506854 C3.23779807,10.5346622 3.28043727,10.553201 3.32307646,10.5717398 C3.33559014,10.5763745 3.34671341,10.5856439 3.35922709,10.5902786 C3.47045977,10.6366255 3.58910797,10.659799 3.70775617,10.659799 C3.94505256,10.659799 4.18188549,10.5671051 4.36310207,10.386352 L9.92473632,4.82471771 C10.286706,4.46321149 10.286706,3.87923989 9.92473632,3.51773366" id="Fill-268" fill="#30404D"></path>
                                <path d="M29.3904562,28.5450878 L28.0000476,27.1546792 C27.6380779,26.7885383 27.0513255,26.7885383 26.6893558,27.1546792 C26.3273861,27.5161855 26.3273861,28.1001571 26.6893558,28.4616633 L28.0797644,29.8520718 C28.260981,30.032825 28.4978139,30.1255189 28.7351103,30.1255189 C28.9724067,30.1255189 29.2092396,30.032825 29.3904562,29.8520718 C29.7524259,29.4905656 29.7524259,28.906594 29.3904562,28.5450878" id="Fill-269" fill="#30404D"></path>
                                <path d="M26.6893558,27.1546792 C26.3273861,27.5161855 26.3273861,28.1001571 26.6893558,28.4616633 L28.0797644,29.8520718 C28.260981,30.032825 28.4978139,30.1255189 28.7351103,30.1255189 C28.9724067,30.1255189 29.2092396,30.032825 29.3904562,29.8520718 L26.6893558,27.1546792" id="Fill-270" fill="#182A37"></path>
                                <path d="M28.2716408,27.3447017 L28.2716408,24.1004151 C28.2716408,23.8547762 28.1738487,23.6184068 28.0000476,23.4469231 L26.6096391,22.0565145 C26.2476694,21.6903736 25.660917,21.6903736 25.2989473,22.0565145 L21.5911911,25.7642707 C21.2292214,26.1257769 21.2292214,26.7097485 21.5911911,27.0712547 L22.9815997,28.4616633 C23.1554007,28.6377817 23.3913067,28.7351103 23.6369456,28.7351103 L26.8812322,28.7351103 L28.2716408,27.3447017" id="Fill-271" fill="#7CB65A"></path>
                                <path d="M27.5764365,28.039906 L23.4450692,23.9103926 L21.5911911,25.7642707 C21.2292214,26.1257769 21.2292214,26.7097485 21.5911911,27.0712547 L22.9815997,28.4616633 C23.1554007,28.6377817 23.3913067,28.7351103 23.6369456,28.7351103 L26.8812322,28.7351103 L27.5764365,28.039906" id="Fill-272" fill="#69994E"></path>
                                <path d="M26.6096391,22.0565145 L17.3402487,12.7871241 C16.978279,12.4209832 16.3915265,12.4209832 16.0295568,12.7871241 L12.3218007,16.4948802 C11.959831,16.8563865 11.959831,17.4403581 12.3218007,17.8018643 L21.5911911,27.0712547 L26.6096391,22.0565145" id="Fill-273" fill="#546670"></path>
                                <path d="M24.1004151,24.5638846 L16.9889388,17.4542622 C16.6269691,17.0927559 16.6269691,16.5041496 16.9889388,16.1426434 L18.8428168,14.2887653 L17.3402487,12.7871241 C16.978279,12.4209832 16.3915265,12.4209832 16.0295568,12.7871241 L12.3218007,16.4948802 C12.2314241,16.5829395 12.1632941,16.6895374 12.1178741,16.8007701 C11.982541,17.1344682 12.0502418,17.533052 12.3218007,17.8018643 L13.8243689,19.3081402 L21.5911911,27.0712547 L24.1004151,24.5638846" id="Fill-274" fill="#30404D"></path>
                                <path d="M10.8516754,19.2756974 L4.36310207,12.7871241 C4.35336921,12.77322 4.341319,12.7685853 4.33112267,12.7593159 C4.31953593,12.7500465 4.31119348,12.7361424 4.29914328,12.726873 C3.91770786,12.4117138 3.70775617,12.0038606 3.70821964,11.586738 C3.70821964,11.1649808 3.91770786,10.7617623 4.29867981,10.446603 C4.69309237,10.1221743 4.74824524,9.53820274 4.42149923,9.13961895 C4.09475322,8.74566986 3.51078162,8.69005352 3.11683253,9.01911688 C2.30298005,9.69114768 1.85434118,10.6041826 1.85434118,11.586738 C1.85387808,12.5414852 2.28027004,13.426712 3.0519468,14.0941081 C3.05241026,14.0941081 3.05241026,14.0941081 3.05241026,14.0941081 L9.54098356,20.5826814 C9.72220014,20.7634345 9.95903306,20.8561284 10.1963295,20.8561284 C10.4336259,20.8561284 10.6704588,20.7634345 10.8516754,20.5826814 C11.2136451,20.2211752 11.2136451,19.6372036 10.8516754,19.2756974" id="Fill-275" fill="#30404D"></path>
                                <path d="M18.2671877,11.860185 L9.26939042,2.85960694 L2.39706436,9.73285994 L11.3948616,18.7288033 C11.5760782,18.9095565 11.8129111,19.0022504 12.0502075,19.0022504 C12.2875039,19.0022504 12.5243369,18.9095565 12.7055534,18.7288033 L18.2671877,13.1671691 C18.6291574,12.8056629 18.6291574,12.2216913 18.2671877,11.860185" id="Fill-276" fill="#7CB65A"></path>
                                <path d="M12.0502075,19.0022504 C12.2875039,19.0022504 12.5243369,18.9095565 12.7055534,18.7288033 L15.4863706,15.9479862 L5.83322739,6.29855079 L2.39706436,9.73285994 L11.3948616,18.7288033 C11.5760782,18.9095565 11.8129111,19.0022504 12.0502075,19.0022504" id="Fill-277" fill="#69994E"></path>
                            </g>
                            <path d="M27.2857143,23.2207143 C27.2857143,21.8535714 26.1755,20.7457143 24.8115,20.7457143 L23.4757857,20.7457143 C23.0051429,20.7457143 22.6225,20.3607143 22.6225,19.8892857 C22.6225,19.4178571 23.0051429,19.0407143 23.4757857,19.0407143 L26.4748571,19.0407143 L26.4748571,17.4142857 L24.9285714,17.4142857 L24.9285714,16 L23.3571429,16 L23.3571429,17.43 C22.0481429,17.4928571 21,18.5692857 21,19.8892857 C21,21.2564286 22.111,22.3642857 23.4757857,22.3642857 L24.8115,22.3642857 C25.2805714,22.3642857 25.6632143,22.7492857 25.6632143,23.2207143 C25.6632143,23.6921429 25.2805714,24.0692857 24.8115,24.0692857 L21.6348571,24.0692857 L21.6348571,25.6957143 L23.3571429,25.6957143 L23.3571429,27 L24.9285714,27 L24.9285714,25.68 C26.2367857,25.6171429 27.2857143,24.5407143 27.2857143,23.2207143" id="Fill-752" fill="#C5CCCD"></path>
                            <path d="M38,32 L10,32 C9.448,32 9,31.55 9,31 C9,30.45 9.448,30 10,30 L38,30 C38.552,30 39,30.45 39,31 C39,31.55 38.552,32 38,32" id="Fill-751" fill="#C5CCCD"></path>
                            <path d="M25,38 L10,38 C9.141,38 9,37.55 9,37 C9,36.45 9.141,36 10,36 L25,36 C25.859,36 26,36.45 26,37 C26,37.55 25.859,38 25,38" id="Fill-753" fill="#6E828F"></path>
                            <path d="M38,38 L31,38 C30.141,38 30,37.55 30,37 C30,36.45 30.141,36 31,36 L38,36 C38.859,36 39,36.45 39,37 C39,37.55 38.859,38 38,38" id="Fill-754" fill="#6E828F"></path>
                            <path d="M25,42 L10,42 C9.141,42 9,41.55 9,41 C9,40.45 9.141,40 10,40 L25,40 C25.859,40 26,40.45 26,41 C26,41.55 25.859,42 25,42" id="Fill-755" fill="#6E828F"></path>
                            <path d="M25,46 L10,46 C9.141,46 9,45.55 9,45 C9,44.45 9.141,44 10,44 L25,44 C25.859,44 26,44.45 26,45 C26,45.55 25.859,46 25,46" id="Fill-757" fill="#6E828F"></path>
                            <path d="M38,42.0025 L31,42.0025 C30.141,42.0025 30,41.5525 30,41.0025 C30,40.4525 30.141,40.0025 31,40.0025 L38,40.0025 C38.859,40.0025 39,40.4525 39,41.0025 C39,41.5525 38.859,42.0025 38,42.0025" id="Fill-758" fill="#6E828F"></path>
                            <path d="M25,50 L10,50 C9.141,50 9,49.55 9,49 C9,48.45 9.141,48 10,48 L25,48 C25.859,48 26,48.45 26,49 C26,49.55 25.859,50 25,50" id="Fill-759" fill="#6E828F"></path>
                            <path d="M38,46.0025 L31,46.0025 C30.141,46.0025 30,45.5525 30,45.0025 C30,44.4525 30.141,44.0025 31,44.0025 L38,44.0025 C38.859,44.0025 39,44.4525 39,45.0025 C39,45.5525 38.859,46.0025 38,46.0025" id="Fill-760" fill="#6E828F"></path>
                            <path d="M25,54 L10,54 C9.141,54 9,53.55 9,53 C9,52.45 9.141,52 10,52 L25,52 C25.859,52 26,52.45 26,53 C26,53.55 25.859,54 25,54" id="Fill-761" fill="#6E828F"></path>
                        </g>
                    </g>
                </g>
                <g id="Dynamic-Border" stroke="#1D8E96" stroke-width="4">
                    <rect id="Azure-Border" x="2" y="2" width="96" height="96" rx="48"></rect>
                </g>
            </g>
        </g>
    </g>
</svg>