<?xml version="1.0" encoding="UTF-8"?>
<svg width="100px" height="100px" viewBox="0 0 100 100" version="1.1" xmlns="http://www.w3.org/2000/svg" xmlns:xlink="http://www.w3.org/1999/xlink">
    <!-- Generator: Sketch 55.2 (78181) - https://sketchapp.com -->
    <title>Post sales and purchase invoices in Microsoft Dynamics 365 Business Central/processing-vendor-invoices-in-dynamics-365-business-central</title>
    <desc>Created with Sketch.</desc>
    <defs>
        <rect id="path-1" x="0" y="0" width="96" height="96" rx="48"></rect>
        <filter x="-9.1%" y="-6.2%" width="118.2%" height="112.5%" filterUnits="objectBoundingBox" id="filter-3">
            <feOffset dx="0" dy="2" in="SourceAlpha" result="shadowOffsetOuter1"></feOffset>
            <feColorMatrix values="0 0 0 0 0   0 0 0 0 0   0 0 0 0 0  0 0 0 0.0957440997 0" type="matrix" in="shadowOffsetOuter1" result="shadowMatrixOuter1"></feColorMatrix>
            <feMerge>
                <feMergeNode in="shadowMatrixOuter1"></feMergeNode>
                <feMergeNode in="SourceGraphic"></feMergeNode>
            </feMerge>
        </filter>
    </defs>
    <g id="Badges" stroke="none" stroke-width="1" fill="none" fill-rule="evenodd">
        <g id="Post-sales-and-purchase-invoices-in-Microsoft-Dynamics-365-Business-Central" transform="translate(-50.000000, -860.000000)">
            <g id="Post-sales-and-purchase-invoices-in-Microsoft-Dynamics-365-Business-Central/processing-vendor-invoices-in-dynamics-365-business-central" transform="translate(50.000000, 860.000000)">
                <g id="Mask" transform="translate(2.000000, 2.000000)">
                    <mask id="mask-2" fill="white">
                        <use xlink:href="#path-1"></use>
                    </mask>
                    <use id="BG" fill="#01B6C3" xlink:href="#path-1"></use>
                    <g id="Group-53" filter="url(#filter-3)" mask="url(#mask-2)">
                        <g transform="translate(24.000000, 16.000000)">
                            <path d="M43.2,3.3975 L39.2,0.3975 C38.488,-0.1325 37.512,-0.1325 36.8,0.3975 L34,2.4975 L31.2,0.3975 C30.488,-0.1325 29.512,-0.1325 28.8,0.3975 L26,2.4975 L23.2,0.3975 C22.488,-0.1325 21.512,-0.1325 20.8,0.3975 L18,2.4975 L15.2,0.3975 C14.488,-0.1325 13.512,-0.1325 12.8,0.3975 L10,2.4975 L7.2,0.3975 C6.488,-0.1325 5.512,-0.1325 4.8,0.3975 L0.8,3.3975 C0.296,3.7775 0,4.3675 0,4.9975 L0,58.9975 C0,59.6275 0.296,60.2175 0.8,60.5975 L4.8,63.5975 C5.512,64.1275 6.488,64.1275 7.2,63.5975 L10,61.4975 L12.8,63.5975 C13.512,64.1275 14.488,64.1275 15.2,63.5975 L18,61.4975 L20.8,63.5975 C21.512,64.1275 22.488,64.1275 23.2,63.5975 L26,61.4975 L28.8,63.5975 C29.512,64.1275 30.488,64.1275 31.2,63.5975 L34,61.4975 L36.8,63.5975 C37.156,63.8675 37.578,63.9975 38,63.9975 C38.422,63.9975 38.844,63.8675 39.2,63.5975 L43.2,60.5975 C43.704,60.2175 44,59.6275 44,58.9975 L44,4.9975 C44,4.3675 43.704,3.7775 43.2,3.3975" id="Fill-749" fill="#E1E4E1"></path>
                            <path d="M36,28.9975 L8,28.9975 C7.448,28.9975 7,28.5475 7,27.9975 C7,27.4475 7.448,26.9975 8,26.9975 L36,26.9975 C36.552,26.9975 37,27.4475 37,27.9975 C37,28.5475 36.552,28.9975 36,28.9975" id="Fill-751" fill="#C5CCCD"></path>
                            <path d="M26,18.1875 C26,16.4475 24.587,15.0375 22.851,15.0375 L21.151,15.0375 C20.552,15.0375 20.065,14.5475 20.065,13.9475 C20.065,13.3475 20.552,12.8675 21.151,12.8675 L24.968,12.8675 L24.968,10.7975 L23,10.7975 L23,8.9975 L21,8.9975 L21,10.8175 C19.334,10.8975 18,12.2675 18,13.9475 C18,15.6875 19.414,17.0975 21.151,17.0975 L22.851,17.0975 C23.448,17.0975 23.935,17.5875 23.935,18.1875 C23.935,18.7875 23.448,19.2675 22.851,19.2675 L18.808,19.2675 L18.808,21.3375 L21,21.3375 L21,22.9975 L23,22.9975 L23,21.3175 C24.665,21.2375 26,19.8675 26,18.1875" id="Fill-752" fill="#C5CCCD"></path>
                            <path d="M23,34.9975 L8,34.9975 C7.141,34.9975 7,34.5475 7,33.9975 C7,33.4475 7.141,32.9975 8,32.9975 L23,32.9975 C23.859,32.9975 24,33.4475 24,33.9975 C24,34.5475 23.859,34.9975 23,34.9975" id="Fill-753" fill="#6E828F"></path>
                            <path d="M36,34.9975 L29,34.9975 C28.141,34.9975 28,34.5475 28,33.9975 C28,33.4475 28.141,32.9975 29,32.9975 L36,32.9975 C36.859,32.9975 37,33.4475 37,33.9975 C37,34.5475 36.859,34.9975 36,34.9975" id="Fill-754" fill="#6E828F"></path>
                            <path d="M23,38.9975 L8,38.9975 C7.141,38.9975 7,38.5475 7,37.9975 C7,37.4475 7.141,36.9975 8,36.9975 L23,36.9975 C23.859,36.9975 24,37.4475 24,37.9975 C24,38.5475 23.859,38.9975 23,38.9975" id="Fill-755" fill="#6E828F"></path>
                            <path d="M23,42.9975 L8,42.9975 C7.141,42.9975 7,42.5475 7,41.9975 C7,41.4475 7.141,40.9975 8,40.9975 L23,40.9975 C23.859,40.9975 24,41.4475 24,41.9975 C24,42.5475 23.859,42.9975 23,42.9975" id="Fill-757" fill="#6E828F"></path>
                            <path d="M36,39 L29,39 C28.141,39 28,38.55 28,38 C28,37.45 28.141,37 29,37 L36,37 C36.859,37 37,37.45 37,38 C37,38.55 36.859,39 36,39" id="Fill-758" fill="#6E828F"></path>
                            <path d="M23,46.9975 L8,46.9975 C7.141,46.9975 7,46.5475 7,45.9975 C7,45.4475 7.141,44.9975 8,44.9975 L23,44.9975 C23.859,44.9975 24,45.4475 24,45.9975 C24,46.5475 23.859,46.9975 23,46.9975" id="Fill-759" fill="#6E828F"></path>
                            <path d="M36,43 L29,43 C28.141,43 28,42.55 28,42 C28,41.45 28.141,41 29,41 L36,41 C36.859,41 37,41.45 37,42 C37,42.55 36.859,43 36,43" id="Fill-760" fill="#6E828F"></path>
                            <path d="M23,50.9975 L8,50.9975 C7.141,50.9975 7,50.5475 7,49.9975 C7,49.4475 7.141,48.9975 8,48.9975 L23,48.9975 C23.859,48.9975 24,49.4475 24,49.9975 C24,50.5475 23.859,50.9975 23,50.9975" id="Fill-761" fill="#6E828F"></path>
                        </g>
                    </g>
                    <circle id="Oval" fill="#01B6C3" mask="url(#mask-2)" cx="66.5" cy="71.5" r="14.5"></circle>
                    <path d="M66.5,83 C60.1484615,83 55,77.8506538 55,71.5 C55,65.1493462 60.1484615,60 66.5,60 C72.8515385,60 78,65.1493462 78,71.5 C78,77.8506538 72.8515385,83 66.5,83 Z" id="Fill-25" fill="#7CB65A" mask="url(#mask-2)"></path>
                    <path d="M72.0603037,67.4721061 C71.4741064,66.8863316 70.5231307,66.8863316 69.937684,67.4721061 L64.9899087,72.4163121 L63.202795,70.6462383 C63.1600124,70.5862358 63.1164792,70.5262333 63.0616874,70.4722311 C62.4754901,69.8864567 61.5245144,69.8864567 60.9390677,70.4722311 C60.3581244,71.0505052 60.3543716,71.9880442 60.9233057,72.5753187 L60.9052919,72.5933194 L63.9331023,75.5934444 C64.5192996,76.1792189 65.4702752,76.1792189 66.0564725,75.5934444 L72.0558002,69.5969446 C72.0573014,69.5961946 72.0588025,69.5946945 72.0603037,69.5931944 C72.646501,69.00742 72.646501,68.0563804 72.0603037,67.4721061" id="Fill-26" fill="#FFFFFF" mask="url(#mask-2)"></path>
                </g>
                <g id="Dynamic-Border" stroke="#1D8E96" stroke-width="4">
                    <rect id="Azure-Border" x="2" y="2" width="96" height="96" rx="48"></rect>
                </g>
            </g>
        </g>
    </g>
</svg>