<?xml version="1.0" encoding="UTF-8"?>
<svg width="100px" height="100px" viewBox="0 0 100 100" version="1.1" xmlns="http://www.w3.org/2000/svg" xmlns:xlink="http://www.w3.org/1999/xlink">
    <!-- Generator: Sketch 55.2 (78181) - https://sketchapp.com -->
    <title>Process VAT in Microsoft Dynamics 365 Business Central/process-vat-in-documents-and-journals-in-dynamics-365-business-central</title>
    <desc>Created with Sketch.</desc>
    <defs>
        <rect id="path-1" x="0" y="0" width="96" height="96" rx="48"></rect>
        <rect id="path-3" x="0" y="0" width="40" height="55"></rect>
        <filter x="-2.5%" y="-1.8%" width="105.0%" height="107.3%" filterUnits="objectBoundingBox" id="filter-4">
            <feOffset dx="0" dy="2" in="SourceAlpha" result="shadowOffsetOuter1"></feOffset>
            <feColorMatrix values="0 0 0 0 0   0 0 0 0 0   0 0 0 0 0  0 0 0 0.1 0" type="matrix" in="shadowOffsetOuter1"></feColorMatrix>
        </filter>
        <filter x="-21.1%" y="-21.1%" width="142.1%" height="142.1%" filterUnits="objectBoundingBox" id="filter-5">
            <feOffset dx="0" dy="2" in="SourceAlpha" result="shadowOffsetOuter1"></feOffset>
            <feColorMatrix values="0 0 0 0 0   0 0 0 0 0   0 0 0 0 0  0 0 0 0.0964956975 0" type="matrix" in="shadowOffsetOuter1" result="shadowMatrixOuter1"></feColorMatrix>
            <feMerge>
                <feMergeNode in="shadowMatrixOuter1"></feMergeNode>
                <feMergeNode in="SourceGraphic"></feMergeNode>
            </feMerge>
        </filter>
        <rect id="path-6" x="0" y="1" width="12" height="4"></rect>
        <filter x="-8.3%" y="-25.0%" width="116.7%" height="200.0%" filterUnits="objectBoundingBox" id="filter-7">
            <feOffset dx="0" dy="2" in="SourceAlpha" result="shadowOffsetOuter1"></feOffset>
            <feColorMatrix values="0 0 0 0 0   0 0 0 0 0   0 0 0 0 0  0 0 0 0.1 0" type="matrix" in="shadowOffsetOuter1"></feColorMatrix>
        </filter>
        <rect id="path-8" x="0" y="1" width="12" height="4"></rect>
        <filter x="-8.3%" y="-25.0%" width="116.7%" height="200.0%" filterUnits="objectBoundingBox" id="filter-9">
            <feOffset dx="0" dy="2" in="SourceAlpha" result="shadowOffsetOuter1"></feOffset>
            <feColorMatrix values="0 0 0 0 0   0 0 0 0 0   0 0 0 0 0  0 0 0 0.1 0" type="matrix" in="shadowOffsetOuter1"></feColorMatrix>
        </filter>
        <rect id="path-10" x="0" y="1" width="12" height="4"></rect>
        <filter x="-8.3%" y="-25.0%" width="116.7%" height="200.0%" filterUnits="objectBoundingBox" id="filter-11">
            <feOffset dx="0" dy="2" in="SourceAlpha" result="shadowOffsetOuter1"></feOffset>
            <feColorMatrix values="0 0 0 0 0   0 0 0 0 0   0 0 0 0 0  0 0 0 0.1 0" type="matrix" in="shadowOffsetOuter1"></feColorMatrix>
        </filter>
        <rect id="path-12" x="0" y="1" width="12" height="4"></rect>
        <filter x="-8.3%" y="-25.0%" width="116.7%" height="200.0%" filterUnits="objectBoundingBox" id="filter-13">
            <feOffset dx="0" dy="2" in="SourceAlpha" result="shadowOffsetOuter1"></feOffset>
            <feColorMatrix values="0 0 0 0 0   0 0 0 0 0   0 0 0 0 0  0 0 0 0.1 0" type="matrix" in="shadowOffsetOuter1"></feColorMatrix>
        </filter>
        <rect id="path-14" x="0" y="1" width="12" height="4"></rect>
        <filter x="-8.3%" y="-25.0%" width="116.7%" height="200.0%" filterUnits="objectBoundingBox" id="filter-15">
            <feOffset dx="0" dy="2" in="SourceAlpha" result="shadowOffsetOuter1"></feOffset>
            <feColorMatrix values="0 0 0 0 0   0 0 0 0 0   0 0 0 0 0  0 0 0 0.1 0" type="matrix" in="shadowOffsetOuter1"></feColorMatrix>
        </filter>
        <path d="M0.348727541,8.88650222 C2.27965779,8.88650222 3.84369033,6.99240774 3.84369033,4.65483449 L3.84369033,4.65483449 C3.84369033,2.31726124 2.27965779,0.423166772 0.348727541,0.423166772 L0.348727541,0.423166772 L0.348727541,8.88650222 Z" id="path-16"></path>
        <circle id="path-18" cx="6.57142857" cy="6.57142857" r="6.57142857"></circle>
        <filter x="-3.8%" y="-3.8%" width="107.6%" height="107.6%" filterUnits="objectBoundingBox" id="filter-19">
            <feOffset dx="0" dy="1" in="SourceAlpha" result="shadowOffsetInner1"></feOffset>
            <feComposite in="shadowOffsetInner1" in2="SourceAlpha" operator="arithmetic" k2="-1" k3="1" result="shadowInnerInner1"></feComposite>
            <feColorMatrix values="0 0 0 0 0   0 0 0 0 0   0 0 0 0 0  0 0 0 0.1 0" type="matrix" in="shadowInnerInner1"></feColorMatrix>
        </filter>
    </defs>
    <g id="Badges" stroke="none" stroke-width="1" fill="none" fill-rule="evenodd">
        <g id="Process-VAT-in-Microsoft-Dynamics-365-Business-Central" transform="translate(-50.000000, -660.000000)">
            <g id="Process-VAT-in-Microsoft-Dynamics-365-Business-Central/process-vat-in-documents-and-journals-in-dynamics-365-business-central" transform="translate(50.000000, 660.000000)">
                <g id="Mask" transform="translate(2.000000, 2.000000)">
                    <mask id="mask-2" fill="white">
                        <use xlink:href="#path-1"></use>
                    </mask>
                    <use id="BG" fill="#01B6C3" xlink:href="#path-1"></use>
                    <g id="Journal-Body-Copy" mask="url(#mask-2)" fill-rule="nonzero">
                        <g transform="translate(31.000000, 21.000000)">
                            <g id="Right-Side" fill="none">
                                <use fill="black" fill-opacity="1" filter="url(#filter-4)" xlink:href="#path-3"></use>
                                <use fill="#69994E" xlink:href="#path-3"></use>
                            </g>
                            <path d="M21,10.0612001 L21,46 C21,48.7614237 18.7614237,51 16,51 L0,51 L0,4 L0,2 C-1.3527075e-16,0.8954305 0.8954305,2.02906125e-16 2,0 L38,0 C39.1045695,-2.02906125e-16 40,0.8954305 40,2 L40,5 L26.0322057,5 L26,5 C23.2385763,5 21,7.23857625 21,10 L21,10.0612001 Z" id="Left-Side" fill="#7CB65A"></path>
                        </g>
                    </g>
                    <g id="Coin-Money" filter="url(#filter-5)" mask="url(#mask-2)">
                        <g transform="translate(42.000000, 37.000000)">
                            <path d="M9.5,-9.09494702e-13 C4.25332813,-9.09494702e-13 0,4.25332812 0,9.5 C0,14.7466719 4.25332813,19 9.5,19 C14.7466719,19 19,14.7466719 19,9.5 C19,4.25332812 14.7466719,-9.09494702e-13 9.5,-9.09494702e-13" id="Fill-21" fill="#F7CB64"></path>
                            <path d="M5.9375,18.1250191 C6.70358395,18.5370706 7.53255331,18.8355344 8.40624117,19 L14.84375,1.73998092 C14.1198691,1.24273855 13.3241592,0.854055344 12.4761845,0.59375 L5.9375,18.1250191" id="Fill-22" fill="#F2BE53"></path>
                            <path d="M9.16263629,19 C14.5956278,19 19,14.7413486 19,9.48811014 C19,6.65772841 17.719913,4.11745932 15.6906494,2.375 L8.90625,18.9937578 C8.9917121,18.9958385 9.07655936,19 9.16263629,19" id="Fill-23" fill="#F2BE53"></path>
                            <path d="M9.5,2.375 C5.57115625,2.375 2.375,5.57115625 2.375,9.5 C2.375,13.4288437 5.57115625,16.625 9.5,16.625 C13.4288438,16.625 16.625,13.4288437 16.625,9.5 C16.625,5.57115625 13.4288438,2.375 9.5,2.375 Z M9.5,17.8125 C4.91625,17.8125 1.1875,14.0834531 1.1875,9.5 C1.1875,4.91625 4.91625,1.1875 9.5,1.1875 C14.08375,1.1875 17.8125,4.91625 17.8125,9.5 C17.8125,14.0834531 14.08375,17.8125 9.5,17.8125 L9.5,17.8125 Z" id="Fill-24" fill="#EFB252"></path>
                        </g>
                    </g>
                    <g id="Ring-5" mask="url(#mask-2)" fill-rule="nonzero">
                        <g transform="translate(25.000000, 65.000000)">
                            <circle id="Oval" fill="#69994E" cx="10" cy="3" r="3"></circle>
                            <g id="Rectangle" fill="none">
                                <use fill="black" fill-opacity="1" filter="url(#filter-7)" xlink:href="#path-6"></use>
                                <use fill="#E1E4E1" xlink:href="#path-6"></use>
                            </g>
                            <path d="M12,3 L-2.22044605e-16,3 C5.02383897e-16,1.8954305 0.8954305,1 2,1 L10,1 C11.1045695,1 12,1.8954305 12,3 Z" id="Combined-Shape" fill="#D3DAD8"></path>
                        </g>
                    </g>
                    <g id="Ring-4" mask="url(#mask-2)" fill-rule="nonzero">
                        <g transform="translate(25.000000, 55.000000)">
                            <circle id="Oval" fill="#69994E" cx="10" cy="3" r="3"></circle>
                            <g id="Rectangle" fill="none">
                                <use fill="black" fill-opacity="1" filter="url(#filter-9)" xlink:href="#path-8"></use>
                                <use fill="#E1E4E1" xlink:href="#path-8"></use>
                            </g>
                            <path d="M12,3 L-2.22044605e-16,3 C-1.3527075e-16,1.8954305 0.8954305,1 2,1 L10,1 C11.1045695,1 12,1.8954305 12,3 Z" id="Combined-Shape" fill="#D3DAD8"></path>
                        </g>
                    </g>
                    <g id="Ring-3" mask="url(#mask-2)" fill-rule="nonzero">
                        <g transform="translate(25.000000, 45.000000)">
                            <circle id="Oval" fill="#69994E" cx="10" cy="3" r="3"></circle>
                            <g id="Rectangle" fill="none">
                                <use fill="black" fill-opacity="1" filter="url(#filter-11)" xlink:href="#path-10"></use>
                                <use fill="#E1E4E1" xlink:href="#path-10"></use>
                            </g>
                            <path d="M12,3 L4.4408921e-16,3 C-1.3527075e-16,1.8954305 0.8954305,1 2,1 L10,1 C11.1045695,1 12,1.8954305 12,3 Z" id="Combined-Shape" fill="#D3DAD8"></path>
                        </g>
                    </g>
                    <g id="Ring-2" mask="url(#mask-2)" fill-rule="nonzero">
                        <g transform="translate(25.000000, 35.000000)">
                            <circle id="Oval" fill="#69994E" cx="10" cy="3" r="3"></circle>
                            <g id="Rectangle" fill="none">
                                <use fill="black" fill-opacity="1" filter="url(#filter-13)" xlink:href="#path-12"></use>
                                <use fill="#E1E4E1" xlink:href="#path-12"></use>
                            </g>
                            <path d="M12,3 L-2.22044605e-16,3 C-1.3527075e-16,1.8954305 0.8954305,1 2,1 L10,1 C11.1045695,1 12,1.8954305 12,3 Z" id="Combined-Shape" fill="#D3DAD8"></path>
                        </g>
                    </g>
                    <g id="Ring-1" mask="url(#mask-2)" fill-rule="nonzero">
                        <g transform="translate(25.000000, 25.000000)">
                            <circle id="Oval" fill="#69994E" cx="10" cy="3" r="3"></circle>
                            <g id="Rectangle" fill="none">
                                <use fill="black" fill-opacity="1" filter="url(#filter-15)" xlink:href="#path-14"></use>
                                <use fill="#E1E4E1" xlink:href="#path-14"></use>
                            </g>
                            <path d="M12,3 L-4.4408921e-16,3 C-1.3527075e-16,1.8954305 0.8954305,1 2,1 L10,1 C11.1045695,1 12,1.8954305 12,3 Z" id="Combined-Shape" fill="#D3DAD8"></path>
                        </g>
                    </g>
                    <g id="Group-2" mask="url(#mask-2)">
                        <g transform="translate(42.000000, 47.000000)">
                            <g id="Gear">
                                <circle id="Oval" fill="#01B6C3" fill-rule="nonzero" cx="22.4390244" cy="22.4390244" r="4.48780488"></circle>
                                <g id="Gear-1" transform="translate(23.053133, 22.386591) rotate(-45.000000) translate(-23.053133, -22.386591) translate(7.345816, 6.679274)">
                                    <path d="M18.971445,15.605855 C18.971445,13.6023271 17.2908952,11.9607765 15.2163391,11.9607765 C13.1414866,11.9607765 11.4612331,13.6021509 11.4612331,15.605855 C11.4612331,17.609559 13.1414866,19.2509334 15.2163391,19.2509334 C17.2908952,19.2509334 18.971445,17.6093829 18.971445,15.605855 Z M26.9139683,11.6798395 L28.9712903,12.1267317 C30.3658995,12.429167 31.4326781,13.7278246 31.4326781,15.1413471 L31.4326781,16.0703628 C31.4326781,17.4836958 30.3656094,18.782656 28.971042,19.0849289 L26.9142601,19.5314637 L26.3248388,20.931189 L27.4419061,22.6456582 C28.2185014,23.8384837 28.0308539,25.507103 27.0106856,26.5036658 L26.3380572,27.1607304 C25.3438492,28.1312374 23.6352069,28.3150715 22.4538072,27.578905 L20.672892,26.4727145 C20.6717742,26.4731533 20.6706537,26.4735913 20.6695303,26.4740289 L19.2065623,27.0627261 L18.7524662,29.057589 C18.4392318,30.4327857 17.1159035,31.4701061 15.6918497,31.4701061 L14.7408285,31.4701061 C13.316215,31.4701061 11.9926992,30.4326387 11.6801821,29.0574579 L11.2261652,27.062942 L9.77203678,26.4777425 C9.76757849,26.4760005 9.7631873,26.4742642 9.75886988,26.4725381 L7.97838263,27.5796726 C6.7936958,28.3145488 5.08788246,28.1303125 4.09436445,27.1604799 L3.42151695,26.5032013 C2.40116019,25.5064544 2.21366144,23.8374766 2.99086511,22.6455153 L4.10749208,20.9310522 L3.51786504,19.5312621 L1.46080962,19.0849559 C0.0667491742,18.7824864 -1,17.4834023 -1,16.0703628 L-1,15.1413471 C-1,13.7280057 0.0665280452,12.4294473 1.4614003,12.1262645 L3.51791638,11.6803157 L4.10766747,10.2802571 L2.99091835,8.56627638 C2.21414255,7.37387302 2.40135489,5.70576262 3.42176978,4.7082617 L4.09410807,4.05194503 C5.08736118,3.08097858 6.79526004,2.89738481 7.97849009,3.63286376 L9.75908669,4.73908339 C9.76028511,4.73861296 9.76148032,4.73814549 9.76267228,4.73768099 L11.2262502,4.14878671 L11.6801268,2.15403057 C11.9927882,0.778912647 13.316363,-0.25839617 14.7408285,-0.25839617 L15.6918497,-0.25839617 C17.1159338,-0.25839617 18.439713,0.77894899 18.7530077,2.15441081 L19.206706,4.14903699 L20.6601658,4.73396739 C20.6644207,4.73562995 20.6686489,4.73729545 20.6728478,4.7389629 L22.4539905,3.63252203 C23.6375763,2.89682195 25.3449735,3.08017886 26.3383137,4.05122999 L27.0114114,4.70875316 C28.0309828,5.70543036 28.2184335,7.37356523 27.4417775,8.56578463 L26.324714,10.280671 L26.9139683,11.6798395 Z" id="Fill-376" stroke="#01B6C3" stroke-width="2" fill="#546670"></path>
                                    <path d="M9.40446479,25.6502812 C9.46940668,25.6096995 9.62077859,25.5663191 9.80032383,25.5663191 C9.94787563,25.5663191 10.0572263,25.5947729 10.1054552,25.6199615 C10.1307635,25.6320894 10.1560717,25.6442173 10.182335,25.6544793 L11.6707458,26.2534092 C11.6946215,26.2627383 11.7184972,26.2711345 11.7428504,26.2785978 C11.9200081,26.3341061 12.1778656,26.6107147 12.2184543,26.7884345 L12.7122037,28.9574562 C12.9213548,29.8777744 13.8410466,30.5989158 14.8065797,30.5989158 L15.7616075,30.5989158 C16.7266632,30.5989158 17.646355,29.8777744 17.8559836,28.9574562 L18.349733,26.7884345 C18.3898441,26.6107147 18.6481792,26.3341061 18.8253368,26.2785978 C18.84969,26.2711345 18.8735657,26.2627383 18.8969639,26.2534092 L20.3853748,25.6544793 C20.4116381,25.6442173 20.4374238,25.6320894 20.4622545,25.6199615 C20.510961,25.5947729 20.6203116,25.5663191 20.7669084,25.5663191 C20.9464536,25.5663191 21.0983031,25.6096995 21.1622899,25.6502812 L23.0818959,26.8425434 C23.8783891,27.3388529 25.0850667,27.2073122 25.7511987,26.5570722 L26.4264033,25.897503 C27.1087707,25.230937 27.2376995,24.0853204 26.7195969,23.289546 L25.4981163,21.4148582 C25.3983159,21.2618606 25.3816029,20.8914943 25.4675554,20.7310333 C25.4804483,20.7063111 25.4923861,20.681589 25.5028914,20.6564003 L26.1155418,19.2015232 C26.1255696,19.1786668 26.1346423,19.155344 26.141805,19.1315548 C26.1986292,18.958033 26.481795,18.7061466 26.6642053,18.6664978 L28.8836899,18.1846485 C29.8263024,17.9803407 30.5645389,17.0814794 30.5645389,16.1387713 L30.5645389,15.2058587 C30.5645389,14.2626842 29.8263024,13.3642894 28.8841675,13.1599815 L26.6637278,12.6776657 C26.481795,12.6384834 26.1986292,12.386597 26.141805,12.2130753 C26.1346423,12.189286 26.1255696,12.1659632 26.1155418,12.1431068 L25.5028914,10.6886962 C25.4923861,10.6635075 25.4804483,10.6383189 25.4675554,10.6140632 C25.3816029,10.4531358 25.3983159,10.082303 25.4981163,9.92977183 L26.7195969,8.0546176 C27.2376995,7.25930965 27.0566435,6.16508056 26.3747536,5.49851454 L25.7438187,4.88218474 L18.4496739,12.0075518 C19.3144516,12.8523041 20.0592328,14.3862951 20.0592328,15.672315 C20.0592328,18.2443549 17.9166278,20.3368778 15.2840936,20.3368778 C13.9675878,20.3368778 12.5366525,19.4728065 11.6718748,18.6285206 L4.18625456,25.9409326 L4.8169886,26.5570722 C5.48216549,27.2063793 6.6869331,27.3388529 7.48629139,26.8430099 L9.40446479,25.6502812 Z" id="Fill-377" fill="#30404D"></path>
                                </g>
                                <g id="Gear-2" transform="translate(17.951220, 17.951220)">
                                    <path d="M4.80114261,8.89797474 C7.45329378,8.89797474 9.60228521,6.90660799 9.60228521,4.44898737 C9.60228521,1.99136675 7.45329378,0 4.80114261,0 C2.14995166,0 0,1.99136675 0,4.44898737 C0,6.90660799 2.14995166,8.89797474 4.80114261,8.89797474 Z" id="Stroke-4" stroke="#30404D"></path>
                                    <g id="Group-8" transform="translate(5.237610, 0.000000)">
                                        <mask id="mask-17" fill="white">
                                            <use xlink:href="#path-16"></use>
                                        </mask>
                                        <g id="Clip-7"></g>
                                        <polygon id="Stroke-6" stroke="#C4C4C4" mask="url(#mask-17)" points="-6.63910147 13.1181699 7.33795426 13.1181699 7.33795426 -3.80850095 -6.63910147 -3.80850095"></polygon>
                                    </g>
                                    <path d="M4.3646751,8.89797474 C6.77572162,8.89797474 8.72935019,6.90660799 8.72935019,4.44898737 C8.72935019,1.99136675 6.77572162,0 4.3646751,0" id="Stroke-9" stroke="#546670"></path>
                                </g>
                            </g>
                            <g id="dynamics" transform="translate(16.428571, 15.333333)">
                                <g id="Oval" fill-rule="nonzero">
                                    <use fill="#01B6C3" xlink:href="#path-18"></use>
                                    <use fill="black" fill-opacity="1" filter="url(#filter-19)" xlink:href="#path-18"></use>
                                </g>
                            </g>
                        </g>
                    </g>
                    <path d="M66.8164706,70.0823529 C66.8164706,70.1827456 66.8196078,70.2988229 66.8258824,70.4305882 C66.8321569,70.5623536 66.8541175,70.6862739 66.8917647,70.8023529 C66.929412,70.918432 66.9890192,71.0172545 67.0705882,71.0988235 C67.1521573,71.1803926 67.2682345,71.2211765 67.4188235,71.2211765 C67.563138,71.2211765 67.6776466,71.1803926 67.7623529,71.0988235 C67.8470592,71.0172545 67.9098037,70.918432 67.9505882,70.8023529 C67.9913728,70.6862739 68.0164705,70.5639222 68.0258824,70.4352941 C68.0352942,70.306666 68.04,70.1921574 68.04,70.0917647 C68.04,69.9976466 68.0352942,69.8862752 68.0258824,69.7576471 C68.0164705,69.629019 67.9929414,69.5066672 67.9552941,69.3905882 C67.9176469,69.2745092 67.8596082,69.1741181 67.7811765,69.0894118 C67.7027447,69.0047055 67.5945105,68.9623529 67.4564706,68.9623529 C67.3058816,68.9623529 67.1882357,68.9999996 67.1035294,69.0752941 C67.0188231,69.1505886 66.95451,69.2447053 66.9105882,69.3576471 C66.8666664,69.4705888 66.84,69.5929405 66.8305882,69.7247059 C66.8211764,69.8564712 66.8164706,69.9756857 66.8164706,70.0823529 Z M65.8564706,70.0729412 C65.8564706,69.815685 65.8878428,69.577256 65.9505882,69.3576471 C66.0133333,69.1380381 66.1105876,68.9466675 66.2423529,68.7835294 C66.3741183,68.6203913 66.5403912,68.4917652 66.7411765,68.3976471 C66.9419618,68.3035289 67.1803908,68.2564706 67.4564706,68.2564706 C67.751374,68.2564706 67.9960775,68.3050976 68.1905882,68.4023529 C68.385099,68.4996083 68.5435288,68.6313717 68.6658824,68.7976471 C68.7882359,68.9639224 68.8745096,69.1599989 68.9247059,69.3858824 C68.9749022,69.6117658 69,69.853332 69,70.1105882 C69,70.3678444 68.9686278,70.6062734 68.9058824,70.8258824 C68.8431369,71.0454913 68.7474516,71.2368627 68.6188235,71.4 C68.4901954,71.5631381 68.3254912,71.6901956 68.1247059,71.7811765 C67.9239206,71.8721573 67.6854916,71.9176471 67.4094118,71.9176471 C67.1207829,71.9176471 66.877648,71.8705887 66.68,71.7764706 C66.482352,71.6823525 66.3223536,71.5521577 66.2,71.3858824 C66.0776464,71.219607 65.9898042,71.0235305 65.9364706,70.7976471 C65.883137,70.5717636 65.8564706,70.3301974 65.8564706,70.0729412 Z M66.5811765,65 L67.3811765,65 L63.5035294,71.9929412 L62.6847059,71.9929412 L66.5811765,65 Z M61.96,66.9576471 C61.96,67.0580397 61.9631372,67.1709798 61.9694118,67.2964706 C61.9756863,67.4219614 61.9976469,67.5396073 62.0352941,67.6494118 C62.0729414,67.7592162 62.1325486,67.8517643 62.2141176,67.9270588 C62.2956867,68.0023533 62.411764,68.04 62.5623529,68.04 C62.7066674,68.04 62.821176,68.0023533 62.9058824,67.9270588 C62.9905887,67.8517643 63.0533331,67.7592162 63.0941176,67.6494118 C63.1349022,67.5396073 63.16,67.42353 63.1694118,67.3011765 C63.1788236,67.1788229 63.1835294,67.0674515 63.1835294,66.9670588 C63.1835294,66.8729407 63.1788236,66.758432 63.1694118,66.6235294 C63.16,66.4886268 63.1364708,66.358432 63.0988235,66.2329412 C63.0611763,66.1074504 63.0031376,66.0007848 62.9247059,65.9129412 C62.8462741,65.8250976 62.7380399,65.7811765 62.6,65.7811765 C62.449411,65.7811765 62.3317651,65.8219604 62.2470588,65.9035294 C62.1623525,65.9850984 62.0980394,66.0854896 62.0541176,66.2047059 C62.0101959,66.3239222 61.9835295,66.4525483 61.9741176,66.5905882 C61.9647058,66.7286281 61.96,66.8509799 61.96,66.9576471 Z M61,66.9388235 C61,66.6815673 61.0313722,66.4400011 61.0941176,66.2141176 C61.1568627,65.9882342 61.254117,65.7905891 61.3858824,65.6211765 C61.5176477,65.4517639 61.6839206,65.3184319 61.8847059,65.2211765 C62.0854912,65.1239211 62.3239202,65.0752941 62.6,65.0752941 C62.8949034,65.0752941 63.1396069,65.1254897 63.3341176,65.2258824 C63.5286284,65.326275 63.6870582,65.4627442 63.8094118,65.6352941 C63.9317653,65.807844 64.018039,66.0101949 64.0682353,66.2423529 C64.1184316,66.474511 64.1435294,66.7192144 64.1435294,66.9764706 C64.1435294,67.2337268 64.1121572,67.4705872 64.0494118,67.6870588 C63.9866664,67.9035305 63.890981,68.0901953 63.7623529,68.2470588 C63.6337248,68.4039224 63.4690206,68.5262745 63.2682353,68.6141176 C63.06745,68.7019612 62.829021,68.7458824 62.5529412,68.7458824 C62.2643123,68.7458824 62.0211775,68.7003926 61.8235294,68.6094118 C61.6258814,68.5184309 61.465883,68.392942 61.3435294,68.2329412 C61.2211759,68.0729404 61.1333336,67.8815697 61.08,67.6588235 C61.0266664,67.4360773 61,67.1960797 61,66.9388235 Z" id="%" fill="#FFFFFF" fill-rule="nonzero" mask="url(#mask-2)"></path>
                </g>
                <g id="Dynamic-Border" stroke="#1D8E96" stroke-width="4">
                    <rect id="Azure-Border" x="2" y="2" width="96" height="96" rx="48"></rect>
                </g>
            </g>
        </g>
    </g>
</svg>