<?xml version="1.0" encoding="UTF-8"?>
<svg width="100px" height="100px" viewBox="0 0 100 100" version="1.1" xmlns="http://www.w3.org/2000/svg" xmlns:xlink="http://www.w3.org/1999/xlink">
    <!-- Generator: Sketch 55.2 (78181) - https://sketchapp.com -->
    <title>Use multiple currencies in Microsoft Dynamics 365 Business Central/process-sales-and-purchases-in-foreign-currencies-in-dynamics-365-business-central</title>
    <desc>Created with Sketch.</desc>
    <defs>
        <rect id="path-1" x="0" y="0" width="96" height="96" rx="48"></rect>
        <filter x="-6.8%" y="-6.8%" width="113.6%" height="113.6%" filterUnits="objectBoundingBox" id="filter-3">
            <feOffset dx="0" dy="2" in="SourceAlpha" result="shadowOffsetOuter1"></feOffset>
            <feColorMatrix values="0 0 0 0 0   0 0 0 0 0   0 0 0 0 0  0 0 0 0.0964956975 0" type="matrix" in="shadowOffsetOuter1" result="shadowMatrixOuter1"></feColorMatrix>
            <feMerge>
                <feMergeNode in="shadowMatrixOuter1"></feMergeNode>
                <feMergeNode in="SourceGraphic"></feMergeNode>
            </feMerge>
        </filter>
        <filter x="-14.3%" y="-13.8%" width="128.6%" height="127.6%" filterUnits="objectBoundingBox" id="filter-4">
            <feOffset dx="0" dy="2" in="SourceAlpha" result="shadowOffsetOuter1"></feOffset>
            <feColorMatrix values="0 0 0 0 0   0 0 0 0 0   0 0 0 0 0  0 0 0 0.0964956975 0" type="matrix" in="shadowOffsetOuter1" result="shadowMatrixOuter1"></feColorMatrix>
            <feMerge>
                <feMergeNode in="shadowMatrixOuter1"></feMergeNode>
                <feMergeNode in="SourceGraphic"></feMergeNode>
            </feMerge>
        </filter>
    </defs>
    <g id="Badges" stroke="none" stroke-width="1" fill="none" fill-rule="evenodd">
        <g id="Use-multiple-currencies-in-Microsoft-Dynamics-365-Business-Central" transform="translate(-50.000000, -660.000000)">
            <g id="Use-multiple-currencies-in-Microsoft-Dynamics-365-Business-Central/process-sales-and-purchases-in-foreign-currencies-in-dynamics-365-business-central" transform="translate(50.000000, 660.000000)">
                <g id="Mask" transform="translate(2.000000, 2.000000)">
                    <mask id="mask-2" fill="white">
                        <use xlink:href="#path-1"></use>
                    </mask>
                    <use id="BG" fill="#01B6C3" xlink:href="#path-1"></use>
                    <g id="Earth" filter="url(#filter-3)" mask="url(#mask-2)">
                        <g transform="translate(17.000000, 16.000000)">
                            <path d="M59,29.5 C59,45.7922969 45.7922969,59 29.5,59 C13.2077031,59 0,45.7922969 0,29.5 C0,13.2077031 13.2077031,0 29.5,0 C45.7922969,0 59,13.2077031 59,29.5" id="Fill-200" fill="#55B7D9"></path>
                            <path d="M46.954712,6 C50.4937254,10.8444998 52.5870843,16.8121759 52.5870843,23.2708982 C52.5870843,39.4616781 39.4616781,52.5870843 23.2708982,52.5870843 C16.8121759,52.5870843 10.8444998,50.4937254 6,46.954712 C11.3327975,54.2544424 19.9517562,59 29.6838139,59 C45.8745938,59 59,45.8745938 59,29.6838139 C59,19.9517562 54.2544424,11.3318814 46.954712,6" id="Fill-201" fill="#0095B2"></path>
                            <path d="M42.0760965,7.01365015 C42.0760965,7.01365015 42.5028462,5.27014488 42.6510946,4.03008628 C43.1661078,3.7588532 45.2424424,5.35674913 47,7.40194171 C45.8131559,12.2869922 43.0427103,11.9967252 43.0427103,11.9967252 C43.0427103,11.9967252 40.7572856,11.944382 41.0212191,10.0419437 L42.0760965,7.01365015" id="Fill-202" fill="#B0D173"></path>
                            <path d="M34.5357482,10.1871491 C34.8188026,9.61130451 35.5232322,9.32244741 36.2285779,9.03452512 C36.9330076,8.74660283 36.2285779,10.3292406 36.0884248,11.1920727 C35.9464396,12.0567744 35.8053705,12.487723 36.7928544,13.4963858 C37.7794224,14.503179 34.9598717,13.7843081 34.25361,13.2084635 C33.5491803,12.6335537 34.5357482,10.1871491 34.5357482,10.1871491" id="Fill-203" fill="#B0D173"></path>
                            <path d="M21.666011,37.669106 C21.524898,38.3707133 20.195321,40.0611571 19.6317856,41.1862901 C19.0673339,42.3123378 18.7841917,42.7349488 18.0795434,43.29843 C17.3739788,43.8609965 16.95064,44.8480034 16.95064,44.8480034 L17.1320709,47.241884 C17.1320709,47.241884 17.8367192,48.7896279 18.2609743,49.4948942 C18.6843131,50.1983311 17.4142967,54 17.4142967,54 C16.1919289,53.765826 15.0236238,53.4383482 14.5993687,52.310471 C14.1769462,51.1835085 13.5657623,51.1835085 13.7068752,49.9165904 C13.8479882,48.6505871 11.7322105,47.0991842 11.3097881,46.3957474 C10.8864493,45.6923106 10.3219976,44.7053036 10.3219976,44.0036963 C10.3219976,43.29843 8.76975534,42.3123378 8.76975534,42.3123378 C8.76975534,42.3123378 5.94932939,41.0454198 5.52690692,40.4819385 C5.10265181,39.9184573 4.68022934,37.5264062 4.53820009,36.5412287 C4.39800348,35.5542218 4.96153888,33.0194709 4.96153888,33.0194709 C4.96153888,33.0194709 6.089526,32.1742491 5.38487767,31.4708123 C4.68022934,30.7664607 4.53820009,28.9369761 4.53820009,28.9369761 L3.26910005,27.5301025 C3.26910005,27.5301025 2.28222586,26.1195699 2.14019661,25.4170478 C2,24.7145257 2.14019661,24.2891706 2.28222586,23.5857338 C2.42242247,22.8822969 2,21.6153789 2,20.9101126 C7.26607795,8.01224635 16.1048787,5 16.1048787,5 L16.809527,7.95644707 C16.809527,7.95644707 15.2582011,8.379058 14.4115236,8.09731738 C13.5657623,7.81557675 13.1424235,7.81557675 13.1424235,7.81557675 L12.0144364,9.36423544 C12.0144364,9.36423544 11.5910976,10.3494129 11.4499847,10.9138089 C11.3097881,11.4772901 11.7322105,12.3206825 11.7322105,12.3206825 C11.7322105,12.3206825 13.7068752,12.4615528 13.7068752,11.8980716 C13.7068752,11.3355051 13.4246494,11.0537644 13.4246494,11.0537644 L13.1424235,10.0676723 C13.1424235,10.0676723 14.4115236,9.36423544 17.7982339,9.64689081 C21.1831115,9.92680195 19.9130952,12.3206825 21.3233081,12.8841638 C22.7335211,13.4485597 20.195321,15.4179999 19.6317856,16.5449624 C19.0673339,17.6719249 18.2206563,15.1380887 18.2206563,15.1380887 C18.2206563,15.1380887 19.0673339,14.1510818 17.6552883,13.8711707 C16.2450753,13.5885153 15.9637658,15.4179999 16.6693304,15.2780443 C17.3739788,15.1380887 17.516008,16.1223514 17.3739788,16.8285325 C17.2328658,17.5310546 17.2328658,18.3753617 16.5273012,19.9249351 C15.8226528,21.4735938 13.1424235,21.4735938 13.1424235,21.4735938 C13.1424235,21.4735938 13.5657623,22.1788601 13.9891011,23.0222525 C14.4115236,23.8674744 13.8479882,25.838744 13.8479882,26.4022253 C13.8479882,26.9657065 12.1555493,25.4170478 11.8733235,24.0083447 C11.5910976,22.5996416 10.74442,23.1173857 10.1808846,23.2573413 C9.61643291,23.3991263 7.78288115,23.8199078 7.50065529,23.1173857 C7.21842943,22.4130341 4.68022934,24.4300409 3.97374838,24.8526518 C3.26910005,25.2752628 3.5513259,26.4022253 4.68022934,25.838744 C5.80821646,25.2752628 6.79509064,25.6987884 6.5137811,26.8239214 C6.23155524,27.9499692 5.10265181,27.2465324 5.24468106,27.9499692 C5.38487767,28.653406 6.5137811,29.3595871 6.79509064,30.3447645 C7.0773165,31.3299419 9.75754584,29.9230683 10.6042234,29.5004574 C11.4499847,29.0769317 13.8479882,28.653406 14.1292977,29.7812833 C14.4115236,30.9064163 17.5746523,31.8934232 18.5633592,32.1742491 C19.5511497,32.4578192 21.524898,32.59686 22.6528852,33.7238225 C23.7817886,34.8498703 21.8080402,36.9610955 21.666011,37.669106" id="Fill-204" fill="#B0D173"></path>
                            <path d="M17.4052901,54 C17.4052901,54 17.7457338,52.9856176 18,51.9458545 C16.6288396,51.7309645 15.2952218,51.4094755 14,51 C14.144198,51.4788494 14.5059727,51.6996616 14.7841297,52.4373942 C15.1791809,53.4805415 16.2670648,53.7834179 17.4052901,54" id="Fill-205" fill="#7CB65A"></path>
                            <path d="M27.7427528,4.78460384 C27.6054332,6.1464667 25.2108663,8.1839619 25.4873006,8.72711732 C25.7628373,9.27115592 25.6703934,13.4865719 23.7362511,11.4464271 C21.8021089,9.40628239 19.8679666,6.55184611 20.0070812,5.19263279 C20.0349042,4.92061349 20.0663171,4.49050505 20.0995252,4.01712081 C23.0308053,1.33932044 29.6499696,1.88689175 30,2.51924831 C29.1697997,3.8793448 27.8818674,3.4262737 27.7427528,4.78460384" id="Fill-206" fill="#B0D173"></path>
                            <path d="M31.0656372,13.327581 C30.7144673,12.4978429 31.886811,12 31.886811,12 C33.528397,12.4978429 32.9029946,14.1583967 32.7856841,14.820032 C32.6683735,15.4838225 31.4183306,14.1583967 31.0656372,13.327581" id="Fill-207" fill="#B0D173"></path>
                            <path d="M53.0677756,30.1022767 C53.0677756,30.1022767 54.1382289,31.7057717 55.6661563,31.6085346 C54.6617023,43.4164225 44.9498703,51 44.9498703,51 C43.4644356,49.4964941 44.207605,48.1782891 44.207605,48.1782891 L45.1026631,45.9179849 L45.3341124,42.1064735 C45.3341124,42.1064735 44.8567481,38.1518585 41.1445175,40.0342222 C37.1556325,41.0698892 38.8264075,41.5533227 34.7914135,41.8386128 C30.7546113,42.1174815 32.2843468,33.8688388 32.2843468,33.8688388 C32.0528975,30.4792998 32.6550275,31.3278313 32.6550275,28.6905039 C32.6550275,26.0550112 41.1924347,27.5612691 41.1924347,27.5612691 C46.7589725,31.3278313 47.5012378,26.7127377 47.5012378,26.7127377 L51.5823409,25.2073971 L51.9539256,23.3241161 L49.7271297,20.690458 L46.3873878,19.1823655 C46.3873878,19.1823655 44.8567481,20.1712485 46.3873878,22.5728218 C46.3873878,22.5728218 45.877476,25.3018822 44.6243947,24.5955372 L41.1924347,20.3125176 C41.1924347,20.3125176 40.0324756,22.3370676 38.1763603,23.4653851 C36.3220532,24.5955372 33.1658434,23.4176839 33.1658434,23.4176839 C33.1658434,23.4176839 32.1469238,20.2189498 34.0952572,19.2291493 L36.9702922,19.1823655 C36.9702922,19.1823655 36.3672581,17.5348385 36.7388428,16.0294979 C37.1095234,14.5223227 37.944911,15.8423624 39.4285375,14.7122103 C40.9139722,13.5820581 41.9337959,16.9229786 44.1605919,16.5477901 C46.3873878,16.1707669 45.2735378,15.7946611 46.7589725,15.0406148 C48.2425991,14.2874859 49.355545,16.5477901 49.355545,16.5477901 L52.3255103,16.9229786 C52.3255103,16.9229786 50.4223818,11.7712463 49.7488281,11.0786612 L49.5417894,11.0878345 C49.5770492,10.9676641 49.6493772,10.9768374 49.7488281,11.0786612 C51.4756572,11.4043138 57.4381904,21.7701569 55.6788137,27.9786548 C55.0640263,27.7007035 54.5532104,27.466784 54.5532104,27.466784 L50.8409797,27.466784 L53.0677756,30.1022767" id="Fill-208" fill="#B0D173"></path>
                            <path d="M53.3222823,29.8271375 L51.7504974,28 C50.8262469,33.1849442 48.5612741,37.9061338 45.3170803,41.7890335 C45.3422363,41.91171 45.3524851,41.989777 45.3524851,41.989777 L45.1139688,45.8513011 L44.1915817,48.1412639 C44.1915817,48.1412639 43.4257209,49.4767658 44.9565108,51 C44.9565108,51 54.9648767,43.3169145 56,31.3540892 C54.42542,31.4526022 53.3222823,29.8271375 53.3222823,29.8271375" id="Fill-209" fill="#7CB65A"></path>
                            <path d="M50,11.09575 L50.229,11.08575 C50.119,10.97475 50.039,10.96475 50,11.09575" id="Fill-210" fill="#7CB65A"></path>
                            <path d="M52.1598854,23.1195245 C52.1598854,24.6033219 52.0540172,26.0603593 51.8552973,27.4851001 L54.6113423,27.4851001 C54.6113423,27.4851001 55.1016337,27.7204038 55.6917189,28 C57.380404,21.7547631 51.6574452,11.3275797 50,11 C50.6464904,11.6966835 52.4731512,16.8789014 52.4731512,16.8789014 L51.4917007,16.7487923 C51.9177769,18.8028551 52.1598854,20.929816 52.1598854,23.1195245" id="Fill-211" fill="#7CB65A"></path>
                        </g>
                    </g>
                    <circle id="Oval" fill="#01B6C3" mask="url(#mask-2)" cx="65.5" cy="65.5" r="16.5"></circle>
                    <g id="Coin-Money" filter="url(#filter-4)" mask="url(#mask-2)">
                        <g transform="translate(52.000000, 52.000000)">
                            <path d="M14,0 C6.2680625,0 0,6.2680625 0,14 C0,21.7319375 6.2680625,28 14,28 C21.7319375,28 28,21.7319375 28,14 C28,6.2680625 21.7319375,0 14,0" id="Fill-21" fill="#F7CB64"></path>
                            <path d="M8.40116092,26.7637282 C9.54168317,27.3481833 10.7759371,27.7713143 12.0768842,28.0041559 L21.7106007,2.37971004 C20.6329895,1.67426565 19.4483317,1.12301247 18.1857472,0.754074706 L8.76620379,26.1561311 L8.40116092,26.7637282 Z" id="Fill-22" fill="#F2BE53" transform="translate(15.055881, 14.379115) rotate(2.000000) translate(-15.055881, -14.379115) "></path>
                            <path d="M14.1060492,28.0023575 C21.6415916,28.0023575 28,21.1083318 28,13.8406937 C28,9.92497765 26.305548,6.20400671 23.4909655,3.79338629 L13.7504422,27.9937217 C13.8689779,27.9966003 13.5963285,28.2411521 13.9588641,27.9810243" id="Fill-23" fill="#F2BE53"></path>
                            <path d="M14,6 C9.58866667,6 6,9.58866667 6,14 C6,18.4113333 9.58866667,22 14,22 C18.4113333,22 22,18.4113333 22,14 C22,9.58866667 18.4113333,6 14,6 Z M14,25 C7.93428571,25 3,20.0653214 3,14 C3,7.93428571 7.93428571,3 14,3 C20.0657143,3 25,7.93428571 25,14 C25,20.0653214 20.0657143,25 14,25 L14,25 Z" id="Fill-24" fill="#EFB252"></path>
                        </g>
                    </g>
                </g>
                <g id="Dynamic-Border" stroke="#1D8E96" stroke-width="4">
                    <rect id="Azure-Border" x="2" y="2" width="96" height="96" rx="48"></rect>
                </g>
            </g>
        </g>
    </g>
</svg>