<?xml version="1.0" encoding="UTF-8"?>
<svg width="100px" height="100px" viewBox="0 0 100 100" version="1.1" xmlns="http://www.w3.org/2000/svg" xmlns:xlink="http://www.w3.org/1999/xlink">
    <!-- Generator: Sketch 55.2 (78181) - https://sketchapp.com -->
    <title>Reconcile bank accounts in Microsoft Dynamics 365 Business Central/set-up-payment-reconciliation-journals-in-dynamics-365-business-central</title>
    <desc>Created with Sketch.</desc>
    <defs>
        <rect id="path-1" x="0" y="0" width="96" height="96" rx="48"></rect>
        <filter x="-9.1%" y="-6.2%" width="118.2%" height="112.5%" filterUnits="objectBoundingBox" id="filter-3">
            <feOffset dx="0" dy="2" in="SourceAlpha" result="shadowOffsetOuter1"></feOffset>
            <feColorMatrix values="0 0 0 0 0   0 0 0 0 0   0 0 0 0 0  0 0 0 0.0957440997 0" type="matrix" in="shadowOffsetOuter1" result="shadowMatrixOuter1"></feColorMatrix>
            <feMerge>
                <feMergeNode in="shadowMatrixOuter1"></feMergeNode>
                <feMergeNode in="SourceGraphic"></feMergeNode>
            </feMerge>
        </filter>
        <filter x="-12.5%" y="-12.5%" width="125.0%" height="125.0%" filterUnits="objectBoundingBox" id="filter-4">
            <feOffset dx="0" dy="2" in="SourceAlpha" result="shadowOffsetOuter1"></feOffset>
            <feColorMatrix values="0 0 0 0 0   0 0 0 0 0   0 0 0 0 0  0 0 0 0.0964956975 0" type="matrix" in="shadowOffsetOuter1" result="shadowMatrixOuter1"></feColorMatrix>
            <feMerge>
                <feMergeNode in="shadowMatrixOuter1"></feMergeNode>
                <feMergeNode in="SourceGraphic"></feMergeNode>
            </feMerge>
        </filter>
    </defs>
    <g id="Badges" stroke="none" stroke-width="1" fill="none" fill-rule="evenodd">
        <g id="Reconcile-bank-accounts-in-Microsoft-Dynamics-365-Business-Central" transform="translate(-50.000000, -460.000000)">
            <g id="Reconcile-bank-accounts-in-Microsoft-Dynamics-365-Business-Central/set-up-payment-reconciliation-journals-in-dynamics-365-business-central" transform="translate(50.000000, 460.000000)">
                <g id="Mask" transform="translate(2.000000, 2.000000)">
                    <mask id="mask-2" fill="white">
                        <use xlink:href="#path-1"></use>
                    </mask>
                    <use id="BG" fill="#01B6C3" xlink:href="#path-1"></use>
                    <g id="Group-53" filter="url(#filter-3)" mask="url(#mask-2)">
                        <g transform="translate(26.000000, 16.000000)">
                            <path d="M43.2,3.3975 L39.2,0.3975 C38.488,-0.1325 37.512,-0.1325 36.8,0.3975 L34,2.4975 L31.2,0.3975 C30.488,-0.1325 29.512,-0.1325 28.8,0.3975 L26,2.4975 L23.2,0.3975 C22.488,-0.1325 21.512,-0.1325 20.8,0.3975 L18,2.4975 L15.2,0.3975 C14.488,-0.1325 13.512,-0.1325 12.8,0.3975 L10,2.4975 L7.2,0.3975 C6.488,-0.1325 5.512,-0.1325 4.8,0.3975 L0.8,3.3975 C0.296,3.7775 0,4.3675 0,4.9975 L0,58.9975 C0,59.6275 0.296,60.2175 0.8,60.5975 L4.8,63.5975 C5.512,64.1275 6.488,64.1275 7.2,63.5975 L10,61.4975 L12.8,63.5975 C13.512,64.1275 14.488,64.1275 15.2,63.5975 L18,61.4975 L20.8,63.5975 C21.512,64.1275 22.488,64.1275 23.2,63.5975 L26,61.4975 L28.8,63.5975 C29.512,64.1275 30.488,64.1275 31.2,63.5975 L34,61.4975 L36.8,63.5975 C37.156,63.8675 37.578,63.9975 38,63.9975 C38.422,63.9975 38.844,63.8675 39.2,63.5975 L43.2,60.5975 C43.704,60.2175 44,59.6275 44,58.9975 L44,4.9975 C44,4.3675 43.704,3.7775 43.2,3.3975" id="Fill-749" fill="#E1E4E1"></path>
                            <path d="M36,30.9975 L8,30.9975 C7.448,30.9975 7,30.5475 7,29.9975 C7,29.4475 7.448,28.9975 8,28.9975 L36,28.9975 C36.552,28.9975 37,29.4475 37,29.9975 C37,30.5475 36.552,30.9975 36,30.9975" id="Fill-751" fill="#C5CCCD"></path>
                            <path d="M23,36.9975 L8,36.9975 C7.141,36.9975 7,36.5475 7,35.9975 C7,35.4475 7.141,34.9975 8,34.9975 L23,34.9975 C23.859,34.9975 24,35.4475 24,35.9975 C24,36.5475 23.859,36.9975 23,36.9975" id="Fill-753" fill="#6E828F"></path>
                            <path d="M36,36.9975 L29,36.9975 C28.141,36.9975 28,36.5475 28,35.9975 C28,35.4475 28.141,34.9975 29,34.9975 L36,34.9975 C36.859,34.9975 37,35.4475 37,35.9975 C37,36.5475 36.859,36.9975 36,36.9975" id="Fill-754" fill="#6E828F"></path>
                            <path d="M23,40.9975 L8,40.9975 C7.141,40.9975 7,40.5475 7,39.9975 C7,39.4475 7.141,38.9975 8,38.9975 L23,38.9975 C23.859,38.9975 24,39.4475 24,39.9975 C24,40.5475 23.859,40.9975 23,40.9975" id="Fill-755" fill="#6E828F"></path>
                            <path d="M36,40.9975 L29,40.9975 C28.141,40.9975 28,40.5475 28,39.9975 C28,39.4475 28.141,38.9975 29,38.9975 L36,38.9975 C36.859,38.9975 37,39.4475 37,39.9975 C37,40.5475 36.859,40.9975 36,40.9975" id="Fill-756" fill="#6E828F"></path>
                            <path d="M23,44.9975 L8,44.9975 C7.141,44.9975 7,44.5475 7,43.9975 C7,43.4475 7.141,42.9975 8,42.9975 L23,42.9975 C23.859,42.9975 24,43.4475 24,43.9975 C24,44.5475 23.859,44.9975 23,44.9975" id="Fill-757" fill="#6E828F"></path>
                            <path d="M36,44.9975 L29,44.9975 C28.141,44.9975 28,44.5475 28,43.9975 C28,43.4475 28.141,42.9975 29,42.9975 L36,42.9975 C36.859,42.9975 37,43.4475 37,43.9975 C37,44.5475 36.859,44.9975 36,44.9975" id="Fill-758" fill="#6E828F"></path>
                            <path d="M23,48.9975 L8,48.9975 C7.141,48.9975 7,48.5475 7,47.9975 C7,47.4475 7.141,46.9975 8,46.9975 L23,46.9975 C23.859,46.9975 24,47.4475 24,47.9975 C24,48.5475 23.859,48.9975 23,48.9975" id="Fill-759" fill="#6E828F"></path>
                            <path d="M36,48.9975 L29,48.9975 C28.141,48.9975 28,48.5475 28,47.9975 C28,47.4475 28.141,46.9975 29,46.9975 L36,46.9975 C36.859,46.9975 37,47.4475 37,47.9975 C37,48.5475 36.859,48.9975 36,48.9975" id="Fill-760" fill="#6E828F"></path>
                            <path d="M23,52.9975 L8,52.9975 C7.141,52.9975 7,52.5475 7,51.9975 C7,51.4475 7.141,50.9975 8,50.9975 L23,50.9975 C23.859,50.9975 24,51.4475 24,51.9975 C24,52.5475 23.859,52.9975 23,52.9975" id="Fill-761" fill="#6E828F"></path>
                            <path d="M36,52.9975 L29,52.9975 C28.141,52.9975 28,52.5475 28,51.9975 C28,51.4475 28.141,50.9975 29,50.9975 L36,50.9975 C36.859,50.9975 37,51.4475 37,51.9975 C37,52.5475 36.859,52.9975 36,52.9975" id="Fill-762" fill="#6E828F"></path>
                        </g>
                    </g>
                    <path d="M79.1454867,63.9160616 C78.9568327,63.8744686 78.6632059,63.607085 78.6042825,63.4228873 C78.5968551,63.3976344 78.5874472,63.3728767 78.577049,63.3486141 L77.9417653,61.8047212 C77.9308718,61.7779829 77.918493,61.7512445 77.9051238,61.7254964 C77.8159959,61.554668 77.8333263,61.1610199 77.9368137,60.9991043 L79.2034199,59.0085817 C79.7406629,58.1643426 79.6069711,56.9487374 78.8998899,56.2411611 L78.1992458,55.540517 C77.5085047,54.8492808 76.2582387,54.7111325 75.4318252,55.236987 L73.4408075,56.503098 C73.3744567,56.5461765 73.2174926,56.5922259 73.0313144,56.5922259 C72.8788067,56.5922259 72.7654162,56.5615263 72.7149104,56.5352831 C72.6896575,56.5214188 72.662424,56.509535 72.6351905,56.4986416 L71.0917928,55.8628628 C71.0675302,55.8529597 71.0427724,55.8435517 71.0175195,55.8361244 C70.8338171,55.777201 70.5659383,55.4835741 70.5243453,55.294425 L70.0128503,52.99245 C69.7954773,52.0155094 68.8413139,51.25 67.8406059,51.25 L66.8502961,51.25 C65.849093,51.25 64.8954247,52.0155094 64.6785469,52.9919548 L64.1665567,55.2954153 C64.1244686,55.4835741 63.857085,55.777201 63.6733825,55.8361244 C63.6481296,55.8435517 63.6233719,55.8529597 63.5986141,55.8628628 L62.0552164,56.4986416 C62.0279829,56.509535 62.0012445,56.5214188 61.9754964,56.5352831 C61.9254858,56.5615263 61.8120953,56.5922259 61.6590925,56.5922259 C61.4729143,56.5922259 61.3159502,56.5456813 61.2491043,56.503098 L59.2590768,55.2374822 C58.4326633,54.7116277 57.1819021,54.8502711 56.4916563,55.5410121 L55.7910121,56.2411611 C55.0834358,56.9492326 54.9502391,58.1648378 55.4874822,59.0090768 L56.7540883,60.9991043 C56.8570805,61.161515 56.874411,61.5541729 56.7857782,61.7250013 C56.7724091,61.7512445 56.759535,61.7779829 56.7486416,61.8047212 L56.1133579,63.3486141 C56.1034548,63.3728767 56.0940469,63.3976344 56.0861244,63.4228873 C56.027201,63.607085 55.7340693,63.8744686 55.5449201,63.9165567 L53.2429451,64.4275566 C52.2660046,64.6449296 51.5004952,65.5985978 51.5004952,66.599801 L51.5004952,67.5901107 C51.5004952,68.5908187 52.2660046,69.5449822 53.24245,69.76186 L55.5454153,70.273355 C55.7340693,70.3154431 56.027201,70.5828268 56.0861244,70.7670244 C56.0940469,70.7922773 56.1034548,70.817035 56.1133579,70.8412976 L56.7486416,72.3851905 C56.759535,72.4119289 56.7719139,72.4381721 56.7857782,72.4644153 C56.874411,72.6347486 56.8570805,73.0283967 56.7535932,73.1908075 L55.4874822,75.1808349 C54.949744,76.025074 55.0834358,77.2411743 55.7910121,77.9487506 L56.4916563,78.6493948 C57.181407,79.3386504 58.4306827,79.4792743 59.259572,78.9529247 L61.2486091,77.6868137 C61.3159502,77.6437352 61.4729143,77.5976858 61.6590925,77.5976858 C61.8120953,77.5976858 61.9254858,77.6278903 61.9754964,77.6546286 C62.0017397,77.6675027 62.0279829,77.6803767 62.0552164,77.6912701 L63.5986141,78.327049 C63.6233719,78.3369521 63.6481296,78.3458648 63.6733825,78.3537873 C63.857085,78.4127107 64.1244686,78.7063376 64.1665567,78.8949916 L64.6785469,81.1974617 C64.8954247,82.1744023 65.849093,82.9399117 66.8502961,82.9399117 L67.8406059,82.9399117 C68.8413139,82.9399117 69.7949822,82.1744023 70.0123552,81.1974617 L70.5243453,78.8949916 C70.5659383,78.7063376 70.8338171,78.4127107 71.0175195,78.3537873 C71.0427724,78.3458648 71.0675302,78.3369521 71.0917928,78.327049 L72.6351905,77.6912701 C72.662424,77.6803767 72.6891624,77.6675027 72.7149104,77.6546286 C72.7654162,77.6278903 72.8788067,77.5976858 73.0308192,77.5976858 C73.2169975,77.5976858 73.3744567,77.6437352 73.4408075,77.6868137 L75.4313301,78.9524296 C76.2572484,79.4792743 77.5085047,79.3396407 78.1992458,78.6493948 L78.8993948,77.9492458 C79.6069711,77.2416695 79.7406629,76.0255691 79.2034199,75.1808349 L77.9368137,73.1908075 C77.8333263,73.0283967 77.8159959,72.6352437 77.9051238,72.4649104 C77.918493,72.4386672 77.9308718,72.412424 77.9417653,72.3856857 L78.577049,70.8412976 C78.5874472,70.817035 78.5968551,70.7922773 78.6042825,70.7670244 C78.6632059,70.5828268 78.9568327,70.3154431 79.1459819,70.273355 L81.4474617,69.76186 C82.4248975,69.5449822 83.1904069,68.5908187 83.1904069,67.5901107 L83.1904069,66.599801 C83.1904069,65.5985978 82.4248975,64.6449296 81.4479569,64.4280517 L79.1454867,63.9160616 Z" id="Fill-376" fill="#01B6C3" mask="url(#mask-2)"></path>
                    <g id="Gear" filter="url(#filter-4)" mask="url(#mask-2)">
                        <g transform="translate(51.500000, 51.250000)">
                            <path d="M20.7969997,15.8449559 C20.7969997,18.5752398 18.5752398,20.7965046 15.845451,20.7965046 C13.1151671,20.7965046 10.8939023,18.5752398 10.8939023,15.8449559 C10.8939023,13.1146719 13.1151671,10.8934072 15.845451,10.8934072 C18.5752398,10.8934072 20.7969997,13.1146719 20.7969997,15.8449559 Z M29.9479569,13.1780517 L27.6454867,12.6660616 C27.4568327,12.6244686 27.1632059,12.357085 27.1042825,12.1728873 C27.0968551,12.1476344 27.0874472,12.1228767 27.077049,12.0986141 L26.4417653,10.5547212 C26.4308718,10.5279829 26.418493,10.5012445 26.4051238,10.4754964 C26.3159959,10.304668 26.3333263,9.91101989 26.4368137,9.74910425 L27.7034199,7.75858167 C28.2406629,6.91434262 28.1069711,5.69873741 27.3998899,4.9911611 L26.6992458,4.29051696 C26.0085047,3.59928076 24.7582387,3.46113255 23.9318252,3.98698702 L21.9408075,5.25309802 C21.8744567,5.2961765 21.7174926,5.3422259 21.5313144,5.3422259 C21.3788067,5.3422259 21.2654162,5.3115263 21.2149104,5.28528309 C21.1896575,5.27141875 21.162424,5.25953504 21.1351905,5.24864163 L19.5917928,4.61286278 C19.5675302,4.60295968 19.5427724,4.59355174 19.5175195,4.58612441 C19.3338171,4.52720098 19.0659383,4.23357415 19.0243453,4.04442498 L18.5128503,1.74244999 C18.2954773,0.76550943 17.3413139,0 16.3406059,0 L15.3502961,0 C14.349093,0 13.3954247,0.76550943 13.1785469,1.74195484 L12.6665567,4.04541529 C12.6244686,4.23357415 12.357085,4.52720098 12.1733825,4.58612441 C12.1481296,4.59355174 12.1233719,4.60295968 12.0986141,4.61286278 L10.5552164,5.24864163 C10.5279829,5.25953504 10.5012445,5.27141875 10.4754964,5.28528309 C10.4254858,5.3115263 10.3120953,5.3422259 10.1590925,5.3422259 C9.97291425,5.3422259 9.81595016,5.29568134 9.74910425,5.25309802 L7.75907682,3.98748217 C6.93266335,3.4616277 5.68190214,3.60027107 4.99165625,4.29101211 L4.29101211,4.9911611 C3.5834358,5.69923256 3.45023914,6.91483777 3.98748217,7.75907682 L5.25408833,9.74910425 C5.35708055,9.91151505 5.37441097,10.3041729 5.28577825,10.4750013 C5.27240906,10.5012445 5.25953504,10.5279829 5.24864163,10.5547212 L4.61335793,12.0986141 C4.60345483,12.1228767 4.59404689,12.1476344 4.58612441,12.1728873 C4.52720098,12.357085 4.2340693,12.6244686 4.04492014,12.6665567 L1.74294515,13.1775566 C0.766004585,13.3949296 0.000495154871,14.3485978 0.000495154871,15.349801 L0.000495154871,16.3401107 C0.000495154871,17.3408187 0.766004585,18.2949822 1.74244999,18.51186 L4.04541529,19.023355 C4.2340693,19.0654431 4.52720098,19.3328268 4.58612441,19.5170244 C4.59404689,19.5422773 4.60345483,19.567035 4.61335793,19.5912976 L5.24864163,21.1351905 C5.25953504,21.1619289 5.27191391,21.1881721 5.28577825,21.2144153 C5.37441097,21.3847486 5.35708055,21.7783967 5.25359318,21.9408075 L3.98748217,23.9308349 C3.44974398,24.775074 3.5834358,25.9911743 4.29101211,26.6987506 L4.99165625,27.3993948 C5.68140699,28.0886504 6.93068273,28.2292743 7.75957198,27.7029247 L9.7486091,26.4368137 C9.81595016,26.3937352 9.97291425,26.3476858 10.1590925,26.3476858 C10.3120953,26.3476858 10.4254858,26.3778903 10.4754964,26.4046286 C10.5017397,26.4175027 10.5279829,26.4303767 10.5552164,26.4412701 L12.0986141,27.077049 C12.1233719,27.0869521 12.1481296,27.0958648 12.1733825,27.1037873 C12.357085,27.1627107 12.6244686,27.4563376 12.6665567,27.6449916 L13.1785469,29.9474617 C13.3954247,30.9244023 14.349093,31.6899117 15.3502961,31.6899117 L16.3406059,31.6899117 C17.3413139,31.6899117 18.2949822,30.9244023 18.5123552,29.9474617 L19.0243453,27.6449916 C19.0659383,27.4563376 19.3338171,27.1627107 19.5175195,27.1037873 C19.5427724,27.0958648 19.5675302,27.0869521 19.5917928,27.077049 L21.1351905,26.4412701 C21.162424,26.4303767 21.1891624,26.4175027 21.2149104,26.4046286 C21.2654162,26.3778903 21.3788067,26.3476858 21.5308192,26.3476858 C21.7169975,26.3476858 21.8744567,26.3937352 21.9408075,26.4368137 L23.9313301,27.7024296 C24.7572484,28.2292743 26.0085047,28.0896407 26.6992458,27.3993948 L27.3993948,26.6992458 C28.1069711,25.9916695 28.2406629,24.7755691 27.7034199,23.9308349 L26.4368137,21.9408075 C26.3333263,21.7783967 26.3159959,21.3852437 26.4051238,21.2149104 C26.418493,21.1886672 26.4308718,21.162424 26.4417653,21.1356857 L27.077049,19.5912976 C27.0874472,19.567035 27.0968551,19.5422773 27.1042825,19.5170244 C27.1632059,19.3328268 27.4568327,19.0654431 27.6459819,19.023355 L29.9474617,18.51186 C30.9248975,18.2949822 31.6904069,17.3408187 31.6904069,16.3401107 L31.6904069,15.349801 C31.6904069,14.3485978 30.9248975,13.3949296 29.9479569,13.1780517 L29.9479569,13.1780517 Z" id="Fill-376" fill="#ADBDC4"></path>
                            <path d="M7.75957198,27.7029247 L9.7486091,26.4368137 C9.81595016,26.3937352 9.97291425,26.3476858 10.1590925,26.3476858 C10.3120953,26.3476858 10.4254858,26.3778903 10.4754964,26.4046286 C10.5017397,26.4175027 10.5279829,26.4303767 10.5552164,26.4412701 L12.0986141,27.077049 C12.1233719,27.0869521 12.1481296,27.0958648 12.1733825,27.1037873 C12.357085,27.1627107 12.6244686,27.4563376 12.6665567,27.6449916 L13.1785469,29.9474617 C13.3954247,30.9244023 14.349093,31.6899117 15.3502961,31.6899117 L16.3406059,31.6899117 C17.3413139,31.6899117 18.2949822,30.9244023 18.5123552,29.9474617 L19.0243453,27.6449916 C19.0659383,27.4563376 19.3338171,27.1627107 19.5175195,27.1037873 C19.5427724,27.0958648 19.5675302,27.0869521 19.5917928,27.077049 L21.1351905,26.4412701 C21.162424,26.4303767 21.1891624,26.4175027 21.2149104,26.4046286 C21.2654162,26.3778903 21.3788067,26.3476858 21.5308192,26.3476858 C21.7169975,26.3476858 21.8744567,26.3937352 21.9408075,26.4368137 L23.9313301,27.7024296 C24.7572484,28.2292743 26.0085047,28.0896407 26.6992458,27.3993948 L27.3993948,26.6992458 C28.1069711,25.9916695 28.2406629,24.7755691 27.7034199,23.9308349 L26.4368137,21.9408075 C26.3333263,21.7783967 26.3159959,21.3852437 26.4051238,21.2149104 C26.418493,21.1886672 26.4308718,21.162424 26.4417653,21.1356857 L27.077049,19.5912976 C27.0874472,19.567035 27.0968551,19.5422773 27.1042825,19.5170244 C27.1632059,19.3328268 27.4568327,19.0654431 27.6459819,19.023355 L29.9474617,18.51186 C30.9248975,18.2949822 31.6904069,17.3408187 31.6904069,16.3401107 L31.6904069,15.349801 C31.6904069,14.3485978 30.9248975,13.3949296 29.9479569,13.1780517 L27.6454867,12.6660616 C27.4568327,12.6244686 27.1632059,12.357085 27.1042825,12.1728873 C27.0968551,12.1476344 27.0874472,12.1228767 27.077049,12.0986141 L26.4417653,10.5547212 C26.4308718,10.5279829 26.418493,10.5012445 26.4051238,10.4754964 C26.3159959,10.304668 26.3333263,9.91101989 26.4368137,9.74910425 L27.7034199,7.75858167 C28.2406629,6.91434262 28.1069711,5.69873741 27.3998899,4.9911611 L27.0493203,4.64059145 L19.3447105,12.3452012 C20.241436,13.2419267 20.7969997,14.4798139 20.7969997,15.8449559 C20.7969997,18.5752398 18.5752398,20.7965046 15.845451,20.7965046 C14.480309,20.7965046 13.2424219,20.2409408 12.3456964,19.3447105 L4.64158176,27.0488251 L4.99165625,27.3993948 C5.68140699,28.0886504 6.93068273,28.2292743 7.75957198,27.7029247" id="Fill-377" fill="#8BA6B1"></path>
                            <path d="M15.845451,20.7965046 C13.1107107,20.7965046 10.8939023,18.5796962 10.8939023,15.8449559 C10.8939023,13.1102155 13.1107107,10.8934072 15.845451,10.8934072 C18.5801914,10.8934072 20.7969997,13.1102155 20.7969997,15.8449559 C20.7969997,18.5796962 18.5801914,20.7965046 15.845451,20.7965046 Z M15.845451,8.91278767 C12.0169136,8.91278767 8.91328283,12.0164184 8.91328283,15.8449559 C8.91328283,19.6734933 12.0169136,22.7771241 15.845451,22.7771241 C19.6739885,22.7771241 22.7776192,19.6734933 22.7776192,15.8449559 C22.7776192,12.0164184 19.6739885,8.91278767 15.845451,8.91278767 L15.845451,8.91278767 Z" id="Fill-378" fill="#8BA6B1"></path>
                            <path d="M20.7969997,15.8449559 C20.7969997,18.5796962 18.5801914,20.7965046 15.845451,20.7965046 C14.4778333,20.7965046 13.2399461,20.2424263 12.3442109,19.346196 L10.9434178,20.7464939 C12.1981402,22.0012164 13.9311823,22.7771241 15.845451,22.7771241 C19.6739885,22.7771241 22.7776192,19.6734933 22.7776192,15.8449559 C22.7776192,13.9306871 22.0017115,12.1976451 20.7474842,10.9429226 L19.3466911,12.3437158 C20.2429214,13.2394509 20.7969997,14.4773381 20.7969997,15.8449559" id="Fill-379" fill="#ADBDC4"></path>
                        </g>
                    </g>
                    <g id="g12" mask="url(#mask-2)" fill="#1C294F" fill-rule="nonzero">
                        <g transform="translate(37.000000, 20.000000)">
                            <path d="M11.0806393,1.31781406 C11.463892,1.29301791 11.8891858,1.64259423 11.8937967,2.16075288 C11.8977025,2.60786468 11.5267096,2.9950719 11.1108005,3.00662102 C10.6855609,3.01840339 10.2677532,2.66997168 10.2726896,2.15408054 C10.2779515,1.60754546 10.7297177,1.2937177 11.0806393,1.31781406 Z M2.19020881,10.1390256 C2.63895344,10.1393513 2.99411716,10.5157146 2.99397074,10.9907526 C2.99380253,11.4500048 2.62977491,11.8286465 2.18772974,11.8292983 C1.7448546,11.8299484 1.37456149,11.4440377 1.37394225,10.9810967 C1.37330839,10.5164198 1.73945163,10.1386461 2.19020881,10.1390256 Z M10.2950392,19.6939779 C10.3052376,19.6314858 10.3105538,19.567746 10.3263938,19.5067185 C10.4455195,19.0472493 10.8935426,18.7792165 11.3267564,18.9063165 C11.6505547,19.0013566 11.8928203,19.3147938 11.913217,19.6981549 C11.9338308,20.0861813 11.7116907,20.4483862 11.3326151,20.5665354 C10.7945967,20.7342661 10.2554934,20.2745799 10.2950392,19.6939779 L10.2950392,19.6939779 Z M14.7108799,14.4095397 C14.3815485,14.0898099 14.0661584,13.7836418 13.748707,13.4754665 C13.3984363,13.7946539 13.0078061,14.0455989 12.5671605,14.2152825 C12.148539,14.3764493 11.7167356,14.4640034 11.2658917,14.4752325 C10.6054386,14.4917234 9.98133081,14.3582767 9.39991513,14.0482028 C8.36353273,13.4954293 7.70318817,12.6469031 7.49905799,11.4860789 C7.31407689,10.4343447 7.59116882,9.48611307 8.27527342,8.66622909 C8.87811653,7.9436636 9.65953964,7.52390296 10.5839569,7.37624356 C11.6417668,7.20726522 12.5681369,7.51478952 13.3856341,8.18620041 C13.5086113,8.28720769 13.6248618,8.39635196 13.7545114,8.51081241 C14.0311151,8.19808043 14.3070678,7.88605365 14.5906693,7.56540166 C13.8326265,6.79075938 12.9186788,6.31707756 11.8444323,6.13459181 C11.8419912,6.10101313 11.8377599,6.07030952 11.8377057,6.03960591 C11.8374345,5.44989049 11.8387906,4.8601805 11.8362953,4.27045965 C11.836024,4.20070388 11.8554986,4.17027693 11.9228187,4.13853178 C12.6760335,3.78366099 13.1163537,3.19822021 13.2048842,2.36288678 C13.3213518,1.2635674 12.57584,0.269453457 11.5062044,0.0467030092 C10.3455429,-0.195012396 9.19475427,0.521954833 8.94614184,1.72493523 C8.73051138,2.76848904 9.27688371,3.75994978 10.2702485,4.16819928 C10.3370262,4.19565894 10.3624136,4.2278706 10.3621424,4.29915614 C10.359864,4.87823921 10.3598097,5.45726804 10.3619796,6.03635111 C10.3621966,6.10589532 10.3431018,6.13236769 10.2700315,6.14489867 C9.74524936,6.2345684 9.24482394,6.39947824 8.7763498,6.65438328 C7.85979827,7.15301856 7.16554954,7.86668759 6.6995165,8.80244244 C6.44575064,9.31192706 6.32179702,9.79596998 6.24536348,10.2452408 C5.56586984,10.2452408 4.88514481,10.2452408 4.19654858,10.2452408 C3.97808102,9.68362516 3.60066532,9.26066396 3.0438939,9.01150906 C2.57953708,8.80374436 2.09716495,8.7675076 1.60462157,8.89759108 C0.668866717,9.14468461 -0.0737841343,10.0282542 0.012205498,11.1585375 C0.087642528,12.1500037 0.818978069,12.9367972 1.76810472,13.103443 C2.90490853,13.3030707 3.83057893,12.6472828 4.17479025,11.7686497 C4.20000409,11.7669138 4.22770244,11.7632793 4.25541705,11.7632793 C4.89131265,11.763008 5.52719198,11.7641472 6.16312555,11.7617061 C6.2401558,11.7613806 6.26483803,11.7786853 6.28116628,11.8630389 C6.46283833,12.8012891 6.87543841,13.6223665 7.5362712,14.3179171 C8.09316739,14.9041065 8.75237278,15.3294003 9.51752189,15.5849021 C9.76022144,15.6660008 10.0144213,15.7133582 10.2647154,15.7703172 C10.3300826,15.7851807 10.3620339,15.8037874 10.3617084,15.8784308 C10.3590503,16.4433012 10.3594843,17.0081717 10.3619796,17.5729879 C10.3622508,17.6415014 10.3346393,17.6696012 10.2741543,17.6962905 C9.52234984,18.0282258 9.07514039,18.6073089 8.94874568,19.412926 C8.84811813,20.0543385 9.01432989,20.6413416 9.4255738,21.1495243 C9.78712778,21.5962997 10.2597789,21.8547851 10.827199,21.9285063 C11.6657438,22.0373793 12.5098218,21.6065524 12.9341391,20.8740597 C13.1412529,20.5164658 13.2557133,20.1315315 13.240687,19.7231084 C13.2067286,18.7993421 12.7805126,18.1174073 11.9351327,17.7165245 C11.8653715,17.683434 11.8351561,17.6498554 11.8356986,17.5687024 C11.8396043,17.0109925 11.8391704,16.4532283 11.8360783,15.8954642 C11.8356443,15.81404 11.853166,15.7830651 11.9425645,15.7676591 C12.8013433,15.6198369 13.5894388,15.3018973 14.2830908,14.7670795 C14.4257053,14.6571215 14.5598572,14.5362599 14.7108799,14.4095397 L14.7108799,14.4095397 Z" id="path14"></path>
                            <path d="M19.9558266,10.1390258 C19.9989526,10.1434198 20.0569423,10.1416297 20.1105923,10.1560593 C20.6441624,10.2992162 20.8836614,10.902873 20.6132418,11.418596 C20.3982623,11.8286465 19.9100424,11.9509185 19.5289596,11.6900463 C19.1866089,11.455755 19.0717145,10.9503389 19.2813779,10.5633975 C19.4218767,10.3040442 19.6351203,10.1462949 19.9558266,10.1390258 Z M10.3376229,10.9834836 C10.3479297,10.9104133 10.3530832,10.8360954 10.3693572,10.7643813 C10.4983015,10.1976122 11.1369474,9.95160365 11.5746094,10.2988908 C11.9238494,10.5760369 11.9963229,11.1397139 11.7262831,11.5032208 C11.5426039,11.7503686 11.2968123,11.876709 10.9891252,11.8155188 C10.5988748,11.7378918 10.3455429,11.3977653 10.3376229,10.9834836 L10.3376229,10.9834836 Z M21.9911612,10.7902027 C21.9890455,10.351293 21.7641389,9.80508342 21.300113,9.36818084 C20.9806002,9.06732888 20.5976188,8.8931971 20.1565392,8.83987264 C19.2208386,8.72671411 18.365206,9.29798566 18.0299617,10.1407617 C18.0005058,10.2146999 17.9638893,10.2320589 17.8908733,10.2319504 C16.3028024,10.230106 14.7147314,10.2301602 13.1266605,10.2319504 C13.0566823,10.2320589 13.025816,10.2135608 12.9964686,10.1442878 C12.7252895,9.5042857 12.2658746,9.06993271 11.5866522,8.88685024 C10.8449376,8.68689706 9.99662837,8.97798463 9.52191587,9.58093623 C9.20902115,9.9784015 9.03944609,10.4297879 9.02968169,10.9295624 C9.00950194,11.9642631 9.68454735,12.9193298 10.7463172,13.1078912 C11.6951997,13.2764356 12.5517545,12.7648353 12.9441748,11.9475009 C12.9594181,11.9157666 12.9746614,11.8839781 12.9884401,11.8515386 C13.0586895,11.6863575 13.0584725,11.6863033 13.2322245,11.6863033 C14.7563386,11.6863033 16.280507,11.6884189 17.8046211,11.6825603 C17.9377424,11.6820178 17.9926942,11.7257406 18.0419502,11.8430219 C18.3138887,12.4906185 18.7842615,12.9280635 19.4739535,13.0829377 C20.2955191,13.2674306 20.98277,13.0087283 21.5157977,12.3629761 C21.8420371,11.9677892 21.9909984,11.5013764 21.9911612,10.7902027 L21.9911612,10.7902027 Z" id="path16"></path>
                        </g>
                    </g>
                </g>
                <g id="Dynamic-Border" stroke="#1D8E96" stroke-width="4">
                    <rect id="Azure-Border" x="2" y="2" width="96" height="96" rx="48"></rect>
                </g>
            </g>
        </g>
    </g>
</svg>