<?xml version="1.0" encoding="UTF-8"?>
<svg width="100px" height="118px" viewBox="0 0 100 118" version="1.1" xmlns="http://www.w3.org/2000/svg" xmlns:xlink="http://www.w3.org/1999/xlink">
    <!-- Generator: Sketch 55.2 (78181) - https://sketchapp.com -->
    <title>Sell items and services in Microsoft Dynamics 365 Business Central/sell-items-and-services-in-microsoft-dynamics-365-business-central</title>
    <desc>Created with Sketch.</desc>
    <defs>
        <path d="M42.7425,1.49663266 C44.3745,0.498877554 46.1865,0 48,0 C49.8135,0 51.627,0.498877554 53.256,1.49663266 L90.591,24.3316189 C93.933,26.3773408 96,30.2031485 96,34.3529027 L96,79.6470973 C96,83.7952317 93.933,87.6242789 90.591,89.6683811 L53.256,112.504987 C51.627,113.501122 49.8135,114 48,114 C46.1865,114 44.3745,113.501122 42.7425,112.504987 L5.409,89.6683811 C2.0655,87.6242789 0,83.7952317 0,79.6470973 L0,34.3529027 C0,30.2031485 2.0655,26.3773408 5.409,24.3316189 L42.7425,1.49663266 Z" id="path-1"></path>
        <filter x="-10.8%" y="-12.9%" width="121.6%" height="125.8%" filterUnits="objectBoundingBox" id="filter-3">
            <feOffset dx="0" dy="2" in="SourceAlpha" result="shadowOffsetOuter1"></feOffset>
            <feColorMatrix values="0 0 0 0 0   0 0 0 0 0   0 0 0 0 0  0 0 0 0.0992980072 0" type="matrix" in="shadowOffsetOuter1" result="shadowMatrixOuter1"></feColorMatrix>
            <feMerge>
                <feMergeNode in="shadowMatrixOuter1"></feMergeNode>
                <feMergeNode in="SourceGraphic"></feMergeNode>
            </feMerge>
        </filter>
        <filter x="-6.2%" y="-9.8%" width="112.5%" height="119.5%" filterUnits="objectBoundingBox" id="filter-4">
            <feOffset dx="0" dy="2" in="SourceAlpha" result="shadowOffsetOuter1"></feOffset>
            <feColorMatrix values="0 0 0 0 0   0 0 0 0 0   0 0 0 0 0  0 0 0 0.0957314312 0" type="matrix" in="shadowOffsetOuter1" result="shadowMatrixOuter1"></feColorMatrix>
            <feMerge>
                <feMergeNode in="shadowMatrixOuter1"></feMergeNode>
                <feMergeNode in="SourceGraphic"></feMergeNode>
            </feMerge>
        </filter>
        <path d="M67.5,89 C61.7007692,89 57,84.2984231 57,78.5 C57,72.7015769 61.7007692,68 67.5,68 C73.2992308,68 78,72.7015769 78,78.5 C78,84.2984231 73.2992308,89 67.5,89 Z" id="path-5"></path>
        <filter x="-4.8%" y="-4.8%" width="109.5%" height="119.0%" filterUnits="objectBoundingBox" id="filter-6">
            <feOffset dx="0" dy="2" in="SourceAlpha" result="shadowOffsetOuter1"></feOffset>
            <feColorMatrix values="0 0 0 0 0   0 0 0 0 0   0 0 0 0 0  0 0 0 0.1 0" type="matrix" in="shadowOffsetOuter1"></feColorMatrix>
        </filter>
    </defs>
    <g id="Badges" stroke="none" stroke-width="1" fill="none" fill-rule="evenodd">
        <g id="Sell-items-and-services-in-Microsoft-Dynamics-365-Business-Central" transform="translate(-50.000000, -50.000000)">
            <g id="Sell-items-and-services-in-Microsoft-Dynamics-365-Business-Central/sell-items-and-services-in-microsoft-dynamics-365-business-central" transform="translate(50.000000, 50.000000)">
                <g id="Mask" transform="translate(2.000000, 2.000000)">
                    <mask id="mask-2" fill="white">
                        <use xlink:href="#path-1"></use>
                    </mask>
                    <use id="Trophy-1" fill="#01B6C3" xlink:href="#path-1"></use>
                    <g id="Paper-Box" filter="url(#filter-3)" mask="url(#mask-2)">
                        <g transform="translate(28.000000, 27.000000)">
                            <path d="M36.5833333,4 L0.583333333,4 L4.18389583,0.8 C4.67889583,0.36 5.59014583,0 6.20889583,0 L30.9588958,0 C31.5776458,0 32.4888958,0.36 32.9838958,0.8 L36.5833333,4" id="Fill-680" fill="#CC9547"></path>
                            <path d="M36.5827708,29.92 C36.5827708,30.514 36.0765288,31 35.4577884,31 L1.70831576,31 C1.08901293,31 0.583333333,30.514 0.583333333,29.92 L0.583895825,4 L36.5833333,4 L36.5827708,29.92" id="Fill-681" fill="#F2BE53"></path>
                            <polyline id="Fill-682" fill="#EFB252" points="25.5833333 4 11.5833333 4 13.3333333 0 23.8333333 0 25.5833333 4"></polyline>
                            <path d="M35.4577884,31 C36.0765288,31 36.5827708,30.49375 36.5827708,29.875 L36.5833333,4 L20.2705257,4 C19.3384778,4 18.5830521,4.75375 18.5830521,5.6875 L18.5830521,28.1875 C18.5830521,29.12125 17.8276264,29.875 16.8955785,29.875 L0.583333333,29.875 C0.583333333,30.49375 1.08901293,31 1.70831576,31 L35.4577884,31" id="Fill-683" fill="#EFB252"></path>
                            <path d="M11.5833333,4 L11.5833333,13.6402278 C11.5833333,13.9458258 11.7933333,14.0458397 12.05,13.8624809 L13.45,12.862342 C13.7066667,12.6789832 14.1266667,12.6789832 14.3833333,12.862342 L15.7833333,13.8624809 C16.04,14.0458397 16.46,14.0458397 16.7166667,13.8624809 L18.1166667,12.862342 C18.3733333,12.6789832 18.7933333,12.6789832 19.05,12.862342 L20.45,13.8624809 C20.7066667,14.0458397 21.1266667,14.0458397 21.3833333,13.8624809 L22.7833333,12.862342 C23.04,12.6789832 23.46,12.6789832 23.7166667,12.862342 L25.1166667,13.8624809 C25.3733333,14.0458397 25.5833333,13.9458258 25.5833333,13.6402278 L25.5833333,4 L11.5833333,4" id="Fill-684" fill="#F7CB64"></path>
                            <path d="M18.5833333,4 C18.5925729,4.01408178 18.592831,4.83763088 18.592831,5.87529301 L18.592831,12.5638381 C18.7617541,12.5638381 18.9312597,12.6200969 19.0594082,12.7201125 L20.4573921,13.8452883 C20.7136892,14.0515706 21.1330844,14.0515706 21.3893815,13.8452883 L22.7873654,12.7201125 C23.0436625,12.5138303 23.4630577,12.5138303 23.7193547,12.7201125 L25.1173387,13.8452883 C25.3736357,14.0515706 25.5833333,13.939053 25.5833333,13.5952493 L25.5833333,4 L20.340311,4 L18.5833333,4 Z" id="Fill-685" fill="#F2BE53"></path>
                        </g>
                    </g>
                    <g id="Group-44" filter="url(#filter-4)" mask="url(#mask-2)">
                        <g transform="translate(15.000000, 45.000000)">
                            <path d="M58,35 L61,9 L3,9 L6,35 C6,38.3 8.699,41 12,41 L52,41 C55.299,41 58,38.3 58,35" id="Fill-80" fill="#DF5142"></path>
                            <path d="M30,32 L30,21.01 C30,21 30,21 30,21 C30,19.896 29.105,19 28,19 C26.896,19 26.002,19.894 26,21 L26,32 C26,33.11 26.896,34 28,34 C29.105,34 30,33.11 30,32" id="Fill-81" fill="#C2423D"></path>
                            <path d="M46,32 L46,21.01 C46,21 46,21 46,21 C46,19.896 45.105,19 44,19 C42.896,19 42.002,19.894 42,21 L42,32 C42,33.11 42.896,34 44,34 C45.105,34 46,33.11 46,32" id="Fill-82" fill="#CC9547"></path>
                            <path d="M38,32 L38,21.01 C38,21 38,21 38,21 C38,19.896 37.105,19 36,19 C34.896,19 34.002,19.894 34,21 L34,32 C34,33.11 34.896,34 36,34 C37.105,34 38,33.11 38,32" id="Fill-83" fill="#CC9547"></path>
                            <path d="M22,32 L22,21.01 C22,21 22,21 22,21 C22,19.896 21.105,19 20,19 C18.896,19 18.002,19.894 18,21 L18,32 C18,33.11 18.896,34 20,34 C21.105,34 22,33.11 22,32" id="Fill-84" fill="#C2423D"></path>
                            <path d="M64,10 C64,11.1 63.1,12 62,12 L2,12 C0.9,12 0,11.1 0,10 L0,2 C0,0.899 0.9,0 2,0 L62,0 C63.1,0 64,0.899 64,2 L64,10" id="Fill-85" fill="#DF5142"></path>
                            <path d="M12.5,6 C12.5,7.103 11.604,8 10.5,8 C9.395,8 8.5,7.103 8.5,6 C8.5,4.894 9.395,4 10.5,4 C11.604,4 12.5,4.894 12.5,6" id="Fill-86" fill="#30404D"></path>
                            <path d="M27,33 L27,22 C27.002,20.89 27.896,20 29,20 C29.293,20 29.569,20.07 29.82,20.18 C29.506,19.486 28.812,19 28,19 C26.896,19 26.002,19.895 26,21 L26,32 C26,32.81 26.486,33.51 27.18,33.82 C27.066,33.57 27,33.29 27,33" id="Fill-89" fill="#9C2A26"></path>
                            <path d="M3.346,12 L3.373,12.229 C3.489,13.238 4.344,14 5.359,14 L30,14 C31.105,14 32,14.895 32,16 L32,37 C32,38.1 31.105,39 30,39 L7.546,39 C8.646,40.22 10.235,41 12,41 L52,41 C55.299,41 58,38.3 58,35 L60.654,12 L3.346,12 Z" id="Fill-90" fill="#C2423D"></path>
                            <path d="M30,9 L0,9 L0,10 C0,11.1 0.9,12 2,12 L62,12 C63.1,12 64,11.1 64,10 L64,2 L34,2 C32.895,2 32,2.895 32,4 L32,7 C32,8.105 31.105,9 30,9" id="Fill-91" fill="#C2423D"></path>
                            <path d="M19,33 L19,22 C19.002,20.89 19.896,20 21,20 C21.293,20 21.569,20.07 21.82,20.18 C21.506,19.486 20.812,19 20,19 C18.896,19 18.002,19.895 18,21 L18,32 C18,32.81 18.486,33.51 19.18,33.82 C19.066,33.57 19,33.29 19,33" id="Fill-92" fill="#9C2A26"></path>
                            <path d="M35,33 L35,22 C35.002,20.89 35.896,20 37,20 C37.293,20 37.569,20.07 37.82,20.18 C37.506,19.486 36.812,19 36,19 C34.896,19 34.002,19.895 34,21 L34,32 C34,32.81 34.486,33.51 35.18,33.82 C35.066,33.57 35,33.29 35,33" id="Fill-93" fill="#9C2A26"></path>
                            <path d="M43,33 L43,22 C43.002,20.89 43.896,20 45,20 C45.293,20 45.569,20.07 45.82,20.18 C45.506,19.486 44.812,19 44,19 C42.896,19 42.002,19.895 42,21 L42,32 C42,32.81 42.486,33.51 43.18,33.82 C43.066,33.57 43,33.29 43,33" id="Fill-94" fill="#9C2A26"></path>
                            <path d="M54.5,6 C54.5,7.103 53.604,8 52.5,8 C51.395,8 50.5,7.103 50.5,6 C50.5,4.894 51.395,4 52.5,4 C53.604,4 54.5,4.894 54.5,6" id="Fill-95" fill="#30404D"></path>
                        </g>
                    </g>
                    <circle id="Oval" fill="#01B6C3" mask="url(#mask-2)" cx="67.5" cy="78.5" r="12.5"></circle>
                    <g id="Fill-25" mask="url(#mask-2)">
                        <use fill="black" fill-opacity="1" filter="url(#filter-6)" xlink:href="#path-5"></use>
                        <use fill="#7CB65A" fill-rule="evenodd" xlink:href="#path-5"></use>
                    </g>
                    <path d="M72.5969894,74.6398577 C72.0596418,74.0830104 71.1879142,74.0830104 70.6512547,74.6398577 L66.115794,79.3399054 L64.4776065,77.6572427 C64.438389,77.6002032 64.3984836,77.5431638 64.3482578,77.4918284 C63.8109102,76.9349811 62.9391826,76.9349811 62.4025231,77.4918284 C61.8699917,78.0415457 61.8665516,78.9327866 62.3880746,79.4910598 L62.371562,79.5081716 L65.1470548,82.3601423 C65.6844023,82.9169896 66.5561299,82.9169896 67.0934775,82.3601423 L72.5928612,76.6597659 C72.5942373,76.6590529 72.5956133,76.6576269 72.5969894,76.656201 C73.1343369,76.0993537 73.1343369,75.195279 72.5969894,74.6398577" id="Fill-26" fill="#FFFFFF" mask="url(#mask-2)"></path>
                </g>
                <g id="Dynamic-Hex" stroke="#1D8E96" stroke-width="4">
                    <path d="M45.5618501,3.25844398 L45.5621963,3.25823359 L6.67338401,26.8942953 C3.79673288,28.6432593 2,31.9508238 2,35.5582677 L2,82.4417323 C2,86.0486597 3.79764663,89.3586805 6.67318764,91.1055853 L45.560618,114.742485 C46.9289662,115.572418 48.4546283,116 50,116 C51.5458817,116 53.0723633,115.572188 54.4362178,114.743457 L93.3268764,91.1055464 C96.2016145,89.3583456 98,86.0476286 98,82.4417323 L98,35.5582677 C98,31.9518547 96.202529,28.6435953 93.3268966,26.8944659 L54.4351916,3.25759524 C53.0721095,2.42798656 51.5462432,2 50,2 C48.4542664,2 46.9292165,2.42775755 45.5618501,3.25844398 Z" id="Azure-Hex-Border"></path>
                </g>
            </g>
        </g>
    </g>
</svg>