<?xml version="1.0" encoding="UTF-8"?>
<svg width="100px" height="100px" viewBox="0 0 100 100" version="1.1" xmlns="http://www.w3.org/2000/svg" xmlns:xlink="http://www.w3.org/1999/xlink">
    <!-- Generator: Sketch 55.2 (78181) - https://sketchapp.com -->
    <title>Process VAT in Microsoft Dynamics 365 Business Central/set-up-vat-in-dynamics-365-business-central</title>
    <desc>Created with Sketch.</desc>
    <defs>
        <rect id="path-1" x="0" y="0" width="96" height="96" rx="48"></rect>
        <filter x="-3.7%" y="-3.7%" width="107.4%" height="107.5%" filterUnits="objectBoundingBox" id="filter-3">
            <feOffset dx="0" dy="2" in="SourceAlpha" result="shadowOffsetOuter1"></feOffset>
            <feColorMatrix values="0 0 0 0 0   0 0 0 0 0   0 0 0 0 0  0 0 0 0.1 0" type="matrix" in="shadowOffsetOuter1" result="shadowMatrixOuter1"></feColorMatrix>
            <feMerge>
                <feMergeNode in="shadowMatrixOuter1"></feMergeNode>
                <feMergeNode in="SourceGraphic"></feMergeNode>
            </feMerge>
        </filter>
        <path d="M0.834649707,21.2690872 C5.45616702,21.2690872 9.19954587,16.7357332 9.19954587,11.1409504 L9.19954587,11.1409504 C9.19954587,5.54616769 5.45616702,1.01281368 0.834649707,1.01281368 L0.834649707,1.01281368 L0.834649707,21.2690872 Z" id="path-4"></path>
        <filter x="-21.1%" y="-21.1%" width="142.1%" height="142.1%" filterUnits="objectBoundingBox" id="filter-6">
            <feOffset dx="0" dy="2" in="SourceAlpha" result="shadowOffsetOuter1"></feOffset>
            <feColorMatrix values="0 0 0 0 0   0 0 0 0 0   0 0 0 0 0  0 0 0 0.1 0" type="matrix" in="shadowOffsetOuter1" result="shadowMatrixOuter1"></feColorMatrix>
            <feMerge>
                <feMergeNode in="shadowMatrixOuter1"></feMergeNode>
                <feMergeNode in="SourceGraphic"></feMergeNode>
            </feMerge>
        </filter>
    </defs>
    <g id="Badges" stroke="none" stroke-width="1" fill="none" fill-rule="evenodd">
        <g id="Process-VAT-in-Microsoft-Dynamics-365-Business-Central" transform="translate(-54.000000, -860.000000)">
            <g id="Process-VAT-in-Microsoft-Dynamics-365-Business-Central/set-up-vat-in-dynamics-365-business-central" transform="translate(50.000000, 857.000000)">
                <g id="Mask" transform="translate(6.000000, 5.000000)">
                    <mask id="mask-2" fill="white">
                        <use xlink:href="#path-1"></use>
                    </mask>
                    <use id="BG" fill="#01B6C3" xlink:href="#path-1"></use>
                </g>
                <g id="Dynamic-Border" transform="translate(4.000000, 3.000000)" stroke="#1D8E96" stroke-width="4">
                    <rect id="Azure-Border" x="2" y="2" width="96" height="96" rx="48"></rect>
                </g>
                <g id="Gear" filter="url(#filter-3)" transform="translate(0.000000, -0.000000)">
                    <circle id="Oval" fill="#01B6C3" fill-rule="nonzero" cx="52.6573526" cy="53.7058963" r="10.7411793"></circle>
                    <g id="Gear-1" transform="translate(54.127170, 53.580402) rotate(-45.000000) translate(-54.127170, -53.580402) translate(16.533043, 15.986275)">
                        <path d="M47.7999549,37.3512865 C47.7999549,43.4815312 42.6933264,48.4688867 36.4190133,48.4688867 C30.143562,48.4688867 25.0380716,43.4815312 25.0380716,37.3512865 C25.0380716,31.2210417 30.143562,26.2336862 36.4190133,26.2336862 C42.6933264,26.2336862 47.7999549,31.2210417 47.7999549,37.3512865 Z M63.5409353,30.2137871 C63.1073214,30.1203993 62.4324316,29.5200488 62.2969984,29.1064741 C62.279927,29.0497744 62.2583032,28.9941864 62.2344032,28.9397101 L60.7742284,25.4732424 C60.7491903,25.4132073 60.720738,25.3531723 60.6900094,25.2953608 C60.4851525,24.9118035 60.5249858,24.0279543 60.7628475,23.6644088 L63.6740923,19.1951335 C64.9089245,17.2995827 64.6016391,14.5702118 62.9764406,12.9815067 L61.3660374,11.4083663 C59.778396,9.8563493 56.9047082,9.54616826 55.0052291,10.7268574 L50.4289524,13.5696278 C50.2764478,13.6663509 49.915672,13.7697446 49.4877486,13.7697446 C49.1372156,13.7697446 48.876592,13.7008155 48.7605064,13.6418922 C48.7024636,13.6107629 48.6398684,13.5840807 48.5772732,13.5596219 L45.0298337,12.1321221 C44.9740671,12.1098869 44.9171624,12.0887634 44.8591196,12.072087 C44.4368867,11.9397876 43.8211777,11.2805139 43.7255778,10.8558216 L42.5499265,5.68724921 C42.0503032,3.49374669 39.8571957,1.77496569 37.5571074,1.77496569 L35.2809191,1.77496569 C32.9796927,1.77496569 30.7877233,3.49374669 30.2892381,5.68613745 L29.1124487,10.8580451 C29.0157107,11.2805139 28.4011399,11.9397876 27.9789069,12.072087 C27.9208641,12.0887634 27.8639594,12.1098869 27.8070547,12.1321221 L24.2596152,13.5596219 C24.19702,13.5840807 24.135563,13.6107629 24.0763821,13.6418922 C23.9614345,13.7008155 23.700811,13.7697446 23.3491399,13.7697446 C22.9212165,13.7697446 22.5604406,13.6652391 22.4067979,13.5696278 L17.8327975,10.7279692 C15.9333183,9.54728002 13.0584924,9.85857282 11.4719892,11.4094781 L9.86158594,12.9815067 C8.23524938,14.5713236 7.92910205,17.3006944 9.16393421,19.1962453 L12.0751791,23.6644088 C12.3119027,24.0290661 12.351736,24.9106918 12.1480171,25.294249 C12.1172886,25.3531723 12.0876981,25.4132073 12.0626601,25.4732424 L10.6024852,28.9397101 C10.5797234,28.9941864 10.5580996,29.0497744 10.5398901,29.1064741 C10.4044569,29.5200488 9.73070511,30.1203993 9.29595314,30.2148989 L4.00495337,31.3622352 C1.75949358,31.8502979 -9.09494702e-12,33.9915477 -9.09494702e-12,36.2395264 L-9.09494702e-12,38.4630465 C-9.09494702e-12,40.7099135 1.75949358,42.8522751 4.00381527,43.3392259 L9.29709123,44.4876741 C9.73070511,44.5821737 10.4044569,45.1825241 10.5398901,45.5960988 C10.5580996,45.6527986 10.5797234,45.7083866 10.6024852,45.7628628 L12.0626601,49.2293306 C12.0876981,49.2893656 12.1161505,49.3482889 12.1480171,49.4072122 C12.351736,49.7896576 12.3119027,50.6735068 12.074041,51.0381641 L9.16393421,55.5063277 C7.92796395,57.4018785 8.23524938,60.1323611 9.86158594,61.7210662 L11.4719892,63.2942066 C13.0573544,64.8417766 15.9287659,65.1575164 17.8339356,63.9757155 L22.4056598,61.1329451 C22.5604406,61.036222 22.9212165,60.9328283 23.3491399,60.9328283 C23.700811,60.9328283 23.9614345,61.0006457 24.0763821,61.0606807 C24.136701,61.0895865 24.19702,61.1184923 24.2596152,61.142951 L27.8070547,62.5704508 C27.8639594,62.592686 27.9208641,62.6126977 27.9789069,62.6304859 C28.4011399,62.7627853 29.0157107,63.422059 29.1124487,63.8456396 L30.2892381,69.0153237 C30.7877233,71.2088262 32.9796927,72.9276072 35.2809191,72.9276072 L37.5571074,72.9276072 C39.8571957,72.9276072 42.0491651,71.2088262 42.5487884,69.0153237 L43.7255778,63.8456396 C43.8211777,63.422059 44.4368867,62.7627853 44.8591196,62.6304859 C44.9171624,62.6126977 44.9740671,62.592686 45.0298337,62.5704508 L48.5772732,61.142951 C48.6398684,61.1184923 48.7013255,61.0895865 48.7605064,61.0606807 C48.876592,61.0006457 49.1372156,60.9328283 49.4866105,60.9328283 C49.9145339,60.9328283 50.2764478,61.036222 50.4289524,61.1329451 L55.004091,63.9746038 C56.9024321,65.1575164 59.778396,64.8440001 61.3660374,63.2942066 L62.9753025,61.7221779 C64.6016391,60.1334729 64.9089245,57.4029903 63.6740923,55.5063277 L60.7628475,51.0381641 C60.5249858,50.6735068 60.4851525,49.7907694 60.6900094,49.4083239 C60.720738,49.3494006 60.7491903,49.2904774 60.7742284,49.2304423 L62.2344032,45.7628628 C62.2583032,45.7083866 62.279927,45.6527986 62.2969984,45.5960988 C62.4324316,45.1825241 63.1073214,44.5821737 63.5420734,44.4876741 L68.8319351,43.3392259 C71.078533,42.8522751 72.8380265,40.7099135 72.8380265,38.4630465 L72.8380265,36.2395264 C72.8380265,33.9915477 71.078533,31.8502979 68.8330732,31.363347 L63.5409353,30.2137871 Z" id="Fill-376" fill="#546670"></path>
                        <path d="M22.5087866,61.3917663 C22.6642195,61.2946375 23.0265152,61.1908101 23.4562415,61.1908101 C23.8093942,61.1908101 24.0711157,61.2589119 24.1865475,61.3191988 C24.2471206,61.3482258 24.3076938,61.3772528 24.3705526,61.4018141 L27.9329375,62.8353018 C27.9900819,62.8576302 28.0472264,62.8777259 28.1055137,62.8955886 C28.5295255,63.028443 29.1466855,63.6904821 29.2438311,64.1158394 L30.4255783,69.3072083 C30.9261636,71.5099117 33.1273677,73.2359023 35.4382891,73.2359023 L37.724067,73.2359023 C40.0338456,73.2359023 42.2350497,71.5099117 42.7367779,69.3072083 L43.9185251,64.1158394 C44.0145278,63.6904821 44.6328307,63.028443 45.0568425,62.8955886 C45.1151298,62.8777259 45.1722743,62.8576302 45.2282758,62.8353018 L48.7906606,61.4018141 C48.8535195,61.3772528 48.9152355,61.3482258 48.9746658,61.3191988 C49.0912404,61.2589119 49.352962,61.1908101 49.7038289,61.1908101 C50.1335552,61.1908101 50.4969938,61.2946375 50.650141,61.3917663 L55.2445545,64.2453445 C57.1508933,65.4332191 60.0389736,65.1183877 61.6333037,63.5620934 L63.2493486,61.9834707 C64.8825369,60.3881016 65.191117,57.6461657 63.9510825,55.7415474 L61.0275725,51.2546417 C60.7887088,50.8884548 60.7487076,50.0020146 60.9544276,49.6179649 C60.9852856,49.5587945 61.0138579,49.499624 61.0390014,49.4393372 L62.5053279,45.9572125 C62.5293286,45.9025078 62.5510435,45.8466866 62.5681868,45.789749 C62.7041906,45.3744395 63.3819238,44.7715709 63.8185073,44.6766749 L69.1306551,43.5234095 C71.3867179,43.034416 73.1536242,40.8830681 73.1536242,38.6267764 L73.1536242,36.3939295 C73.1536242,34.1365214 71.3867179,31.9862899 69.131798,31.4972964 L63.8173644,30.3429146 C63.3819238,30.2491351 62.7041906,29.6462664 62.5681868,29.2309569 C62.5510435,29.1740193 62.5293286,29.1181981 62.5053279,29.0634934 L61.0390014,25.5824852 C61.0138579,25.5221983 60.9852856,25.4619114 60.9544276,25.4038574 C60.7487076,25.0186913 60.7887088,24.1311347 61.0275725,23.7660643 L63.9510825,19.2780421 C65.191117,17.3745402 64.7577749,14.7555959 63.1257295,13.1602269 L61.6156404,11.6850939 L44.1577251,28.7390538 C46.227497,30.7608966 48.0100675,34.4323736 48.0100675,37.510353 C48.0100675,43.6663117 42.8819248,48.6745871 36.5811781,48.6745871 C33.4302333,48.6745871 30.0054115,46.606506 27.9356396,44.5857796 L10.0194442,62.0874157 L11.5290525,63.5620934 C13.1210968,65.1161548 16.0046056,65.4332191 17.9178017,64.246461 L22.5087866,61.3917663 Z" id="Fill-377" fill="#30404D"></path>
                    </g>
                    <g id="Gear-2" transform="translate(41.916173, 42.964717)">
                        <path d="M11.4911265,21.2965457 C17.8388247,21.2965457 22.9822529,16.5303788 22.9822529,10.6482729 C22.9822529,4.76616693 17.8388247,0 11.4911265,0 C5.14572643,0 0,4.76616693 0,10.6482729 C0,16.5303788 5.14572643,21.2965457 11.4911265,21.2965457 Z" id="Stroke-4" stroke="#30404D"></path>
                        <g id="Group-8" transform="translate(12.535774, 0.000000)">
                            <mask id="mask-5" fill="white">
                                <use xlink:href="#path-4"></use>
                            </mask>
                            <g id="Clip-7"></g>
                            <polygon id="Stroke-6" stroke="#C4C4C4" mask="url(#mask-5)" points="-15.8901247 31.397224 17.5627694 31.397224 17.5627694 -9.11532308 -15.8901247 -9.11532308"></polygon>
                        </g>
                        <path d="M10.4464786,21.2965457 C16.2171134,21.2965457 20.8929572,16.5303788 20.8929572,10.6482729 C20.8929572,4.76616693 16.2171134,0 10.4464786,0" id="Stroke-9" stroke="#546670"></path>
                    </g>
                </g>
                <circle id="Oval" fill="#01B6C3" cx="54" cy="53" r="17"></circle>
                <circle id="Oval" fill="#01B6C3" cx="76" cy="77" r="12"></circle>
                <g id="Business-Central-logo" filter="url(#filter-6)" transform="translate(66.000000, 67.000000)" fill="#FFFFFF">
                    <path d="M13.0826744,5.91732564 L12.6348401,6.36515994 C12.5787658,6.3090857 12.5211965,6.25450661 12.4621969,6.2014876 C11.6770667,5.49594324 10.6386648,5.06666667 9.5,5.06666667 C7.05153761,5.06666667 5.06666667,7.05153761 5.06666667,9.5 C5.06666667,11.9484624 7.05153761,13.9333333 9.5,13.9333333 C10.7242312,13.9333333 11.8325645,13.4371156 12.6348401,12.6348401 L13.0826753,13.0826753 C12.165788,13.9995607 10.8991214,14.5666667 9.5,14.5666667 C6.70175727,14.5666667 4.43333333,12.2982427 4.43333333,9.5 C4.43333333,6.70175727 6.70175727,4.43333333 9.5,4.43333333 C10.8013312,4.43333333 11.9880762,4.92393513 12.8853678,5.73027154 C12.9527959,5.7908647 13.0185895,5.8532408 13.0826744,5.91732564 Z" id="Combined-Shape"></path>
                    <path d="M9.5,3.8 C8.45065898,3.8 7.6,2.94934102 7.6,1.9 C7.6,0.850658975 8.45065898,0 9.5,0 C9.9879992,0 10.4330286,0.183975675 10.7695129,0.486351827 C11.1565684,0.834172852 11.4,1.33865818 11.4,1.9 C11.4,2.41170997 11.1977121,2.87617306 10.8687418,3.21778369 C10.5231073,3.57669889 10.0376311,3.8 9.5,3.8 Z M9.5,3.16666667 C9.8584207,3.16666667 10.1820716,3.01779926 10.4124946,2.77852246 C10.6318081,2.55078204 10.7666667,2.24113998 10.7666667,1.9 C10.7666667,1.52577212 10.6043789,1.18944857 10.346342,0.957567885 C10.1220191,0.755983783 9.8253328,0.633333333 9.5,0.633333333 C8.80043932,0.633333333 8.23333333,1.20043932 8.23333333,1.9 C8.23333333,2.59956068 8.80043932,3.16666667 9.5,3.16666667 Z" id="Combined-Shape"></path>
                    <path d="M9.5,11.4 C8.45065898,11.4 7.6,10.549341 7.6,9.5 C7.6,8.45065898 8.45065898,7.6 9.5,7.6 C9.9879992,7.6 10.4330286,7.78397567 10.7695129,8.08635183 C11.1565684,8.43417285 11.4,8.93865818 11.4,9.5 C11.4,10.01171 11.1977121,10.4761731 10.8687418,10.8177837 C10.5231073,11.1766989 10.0376311,11.4 9.5,11.4 Z M9.5,10.7666667 C9.8584207,10.7666667 10.1820716,10.6177993 10.4124946,10.3785225 C10.6318081,10.150782 10.7666667,9.84113998 10.7666667,9.5 C10.7666667,9.12577212 10.6043789,8.78944857 10.346342,8.55756788 C10.1220191,8.35598378 9.8253328,8.23333333 9.5,8.23333333 C8.80043932,8.23333333 8.23333333,8.80043932 8.23333333,9.5 C8.23333333,10.1995607 8.80043932,10.7666667 9.5,10.7666667 Z" id="Combined-Shape"></path>
                    <path d="M17.1,11.4 C16.050659,11.4 15.2,10.549341 15.2,9.5 C15.2,8.45065898 16.050659,7.6 17.1,7.6 C17.5879992,7.6 18.0330286,7.78397567 18.3695129,8.08635183 C18.7565684,8.43417285 19,8.93865818 19,9.5 C19,10.01171 18.7977121,10.4761731 18.4687418,10.8177837 C18.1231073,11.1766989 17.6376311,11.4 17.1,11.4 Z M17.1,10.7666667 C17.4584207,10.7666667 17.7820716,10.6177993 18.0124946,10.3785225 C18.2318081,10.150782 18.3666667,9.84113998 18.3666667,9.5 C18.3666667,9.12577212 18.2043789,8.78944857 17.946342,8.55756788 C17.7220191,8.35598378 17.4253328,8.23333333 17.1,8.23333333 C16.4004393,8.23333333 15.8333333,8.80043932 15.8333333,9.5 C15.8333333,10.1995607 16.4004393,10.7666667 17.1,10.7666667 Z" id="Combined-Shape"></path>
                    <path d="M9.5,19 C8.45065898,19 7.6,18.149341 7.6,17.1 C7.6,16.050659 8.45065898,15.2 9.5,15.2 C9.9879992,15.2 10.4330286,15.3839757 10.7695129,15.6863518 C11.1565684,16.0341729 11.4,16.5386582 11.4,17.1 C11.4,17.61171 11.1977121,18.0761731 10.8687418,18.4177837 C10.5231073,18.7766989 10.0376311,19 9.5,19 Z M9.5,18.3666667 C9.8584207,18.3666667 10.1820716,18.2177993 10.4124946,17.9785225 C10.6318081,17.750782 10.7666667,17.44114 10.7666667,17.1 C10.7666667,16.7257721 10.6043789,16.3894486 10.346342,16.1575679 C10.1220191,15.9559838 9.8253328,15.8333333 9.5,15.8333333 C8.80043932,15.8333333 8.23333333,16.4004393 8.23333333,17.1 C8.23333333,17.7995607 8.80043932,18.3666667 9.5,18.3666667 Z" id="Combined-Shape"></path>
                    <rect id="Rectangle" x="10.7666667" y="8.86666667" width="5.06666667" height="1.26666667"></rect>
                    <polygon id="Rectangle" transform="translate(9.500000, 4.116667) rotate(90.000000) translate(-9.500000, -4.116667) " points="8.86666667 3.48333333 10.1333333 3.48333333 10.1333333 4.75 8.86666667 4.75"></polygon>
                    <rect id="Rectangle" x="3.48333333" y="8.86666667" width="1.26666667" height="1.26666667"></rect>
                    <polygon id="Rectangle" transform="translate(9.500000, 14.883333) rotate(90.000000) translate(-9.500000, -14.883333) " points="8.86666667 14.25 10.1333333 14.25 10.1333333 15.5166667 8.86666667 15.5166667"></polygon>
                    <path d="M1.9,11.4 C0.850658975,11.4 0,10.549341 0,9.5 C0,8.45065898 0.850658975,7.6 1.9,7.6 C2.3879992,7.6 2.83302858,7.78397567 3.16951294,8.08635183 C3.55656838,8.43417285 3.8,8.93865818 3.8,9.5 C3.8,10.01171 3.59771209,10.4761731 3.26874185,10.8177837 C2.92310735,11.1766989 2.43763106,11.4 1.9,11.4 Z M1.9,10.7666667 C2.2584207,10.7666667 2.58207156,10.6177993 2.81249456,10.3785225 C3.03180806,10.150782 3.16666667,9.84113998 3.16666667,9.5 C3.16666667,9.12577212 3.00437892,8.78944857 2.74634196,8.55756788 C2.52201905,8.35598378 2.2253328,8.23333333 1.9,8.23333333 C1.20043932,8.23333333 0.633333333,8.80043932 0.633333333,9.5 C0.633333333,10.1995607 1.20043932,10.7666667 1.9,10.7666667 Z" id="Combined-Shape"></path>
                </g>
                <path d="M58.5411765,56.7058824 C58.5411765,56.956864 58.5490195,57.2470572 58.5647059,57.5764706 C58.5803922,57.9058824 58.6352936,58.2156848 58.7294118,58.5058824 C58.8235299,58.7960799 58.972548,59.0431362 59.1764706,59.2470588 C59.3803932,59.4509814 59.6705864,59.5529412 60.0470588,59.5529412 C60.4078449,59.5529412 60.6941166,59.4509814 60.9058824,59.2470588 C61.1176481,59.0431362 61.2745093,58.7960799 61.3764706,58.5058824 C61.4784319,58.2156848 61.5411765,57.9098055 61.5647059,57.5882353 C61.5882354,57.2666651 61.6,56.9803934 61.6,56.7294118 C61.6,56.4941165 61.5882354,56.2156879 61.5647059,55.8941176 C61.5411765,55.5725474 61.4823534,55.2666681 61.3882353,54.9764706 C61.2941172,54.6862731 61.1490206,54.4352952 60.9529412,54.2235294 C60.7568618,54.0117636 60.4862762,53.9058824 60.1411765,53.9058824 C59.764704,53.9058824 59.4705893,53.9999991 59.2588235,54.1882353 C59.0470578,54.3764715 58.8862751,54.6117633 58.7764706,54.8941176 C58.6666661,55.176472 58.6000001,55.4823513 58.5764706,55.8117647 C58.5529411,56.1411781 58.5411765,56.4392144 58.5411765,56.7058824 Z M56.1411765,56.6823529 C56.1411765,56.0392125 56.2196071,55.44314 56.3764706,54.8941176 C56.5333333,54.3450953 56.7764689,53.8666687 57.1058824,53.4588235 C57.4352958,53.0509784 57.8509779,52.7294129 58.3529412,52.4941176 C58.8549045,52.2588224 59.4509769,52.1411765 60.1411765,52.1411765 C60.8784351,52.1411765 61.4901936,52.2627439 61.9764706,52.5058824 C62.4627475,52.7490208 62.858822,53.0784293 63.1647059,53.4941176 C63.4705898,53.909806 63.6862739,54.3999972 63.8117647,54.9647059 C63.9372555,55.5294146 64,56.1333301 64,56.7764706 C64,57.4196111 63.9215694,58.0156835 63.7647059,58.5647059 C63.6078424,59.1137282 63.3686291,59.5921569 63.0470588,60 C62.7254886,60.4078452 62.313728,60.7254891 61.8117647,60.9529412 C61.3098014,61.1803933 60.7137289,61.2941176 60.0235294,61.2941176 C59.3019572,61.2941176 58.6941201,61.1764718 58.2,60.9411765 C57.7058799,60.7058812 57.3058839,60.3803942 57,59.9647059 C56.6941161,59.5490175 56.4745105,59.0588264 56.3411765,58.4941176 C56.2078425,57.9294089 56.1411765,57.3254934 56.1411765,56.6823529 Z M57.9529412,44 L59.9529412,44 L50.2588235,61.4823529 L48.2117647,61.4823529 L57.9529412,44 Z M46.4,48.8941176 C46.4,49.1450993 46.4078431,49.4274494 46.4235294,49.7411765 C46.4392158,50.0549035 46.4941172,50.3490182 46.5882353,50.6235294 C46.6823534,50.8980406 46.8313715,51.1294108 47.0352941,51.3176471 C47.2392167,51.5058833 47.5294099,51.6 47.9058824,51.6 C48.2666685,51.6 48.5529401,51.5058833 48.7647059,51.3176471 C48.9764716,51.1294108 49.1333328,50.8980406 49.2352941,50.6235294 C49.3372554,50.3490182 49.4,50.0588251 49.4235294,49.7529412 C49.4470589,49.4470573 49.4588235,49.1686287 49.4588235,48.9176471 C49.4588235,48.6823518 49.4470589,48.3960801 49.4235294,48.0588235 C49.4,47.7215669 49.3411769,47.39608 49.2470588,47.0823529 C49.1529407,46.7686259 49.0078441,46.5019619 48.8117647,46.2823529 C48.6156853,46.062744 48.3450998,45.9529412 48,45.9529412 C47.6235275,45.9529412 47.3294128,46.0549009 47.1176471,46.2588235 C46.9058813,46.4627461 46.7450986,46.713724 46.6352941,47.0117647 C46.5254896,47.3098054 46.4588236,47.6313708 46.4352941,47.9764706 C46.4117646,48.3215704 46.4,48.6274496 46.4,48.8941176 Z M44,48.8470588 C44,48.2039184 44.0784306,47.6000028 44.2352941,47.0352941 C44.3921569,46.4705854 44.6352925,45.9764727 44.9647059,45.5529412 C45.2941193,45.1294096 45.7098014,44.7960796 46.2117647,44.5529412 C46.713728,44.3098027 47.3098005,44.1882353 48,44.1882353 C48.7372586,44.1882353 49.3490172,44.3137242 49.8352941,44.5647059 C50.3215711,44.8156875 50.7176455,45.1568606 51.0235294,45.5882353 C51.3294133,46.01961 51.5450974,46.5254873 51.6705882,47.1058824 C51.7960791,47.6862774 51.8588235,48.298036 51.8588235,48.9411765 C51.8588235,49.5843169 51.7803929,50.1764679 51.6235294,50.7176471 C51.4666659,51.2588262 51.2274526,51.7254882 50.9058824,52.1176471 C50.5843121,52.5098059 50.1725515,52.8156863 49.6705882,53.0352941 C49.1686249,53.2549031 48.5725525,53.3647059 47.8823529,53.3647059 C47.1607807,53.3647059 46.5529436,53.2509815 46.0588235,53.0235294 C45.5647034,52.7960773 45.1647074,52.4823549 44.8588235,52.0823529 C44.5529396,51.6823509 44.333334,51.2039244 44.2,50.6470588 C44.066666,50.0901933 44,49.4901993 44,48.8470588 Z" id="%" fill="#FFFFFF" fill-rule="nonzero"></path>
            </g>
        </g>
    </g>
</svg>