<?xml version="1.0" encoding="UTF-8"?>
<svg width="100px" height="100px" viewBox="0 0 100 100" version="1.1" xmlns="http://www.w3.org/2000/svg" xmlns:xlink="http://www.w3.org/1999/xlink">
    <!-- Generator: Sketch 55.2 (78181) - https://sketchapp.com -->
    <title>Process VAT in Microsoft Dynamics 365 Business Central/calculate-and-post-vat-settlements-in-dynamics-365-business-central</title>
    <desc>Created with Sketch.</desc>
    <defs>
        <rect id="path-1" x="0" y="0" width="96" height="96" rx="48"></rect>
        <filter x="-7.1%" y="-7.1%" width="114.3%" height="114.3%" filterUnits="objectBoundingBox" id="filter-3">
            <feOffset dx="0" dy="2" in="SourceAlpha" result="shadowOffsetOuter1"></feOffset>
            <feColorMatrix values="0 0 0 0 0   0 0 0 0 0   0 0 0 0 0  0 0 0 0.100288723 0" type="matrix" in="shadowOffsetOuter1" result="shadowMatrixOuter1"></feColorMatrix>
            <feMerge>
                <feMergeNode in="shadowMatrixOuter1"></feMergeNode>
                <feMergeNode in="SourceGraphic"></feMergeNode>
            </feMerge>
        </filter>
        <path d="M31.5,8.01397206 L34.9974634,8.01397206 L34.9974634,16.1206753 L33.1213407,16.1206753 L33.1213407,9.51950267 L31.5,9.51950267 L31.5,8.01397206 Z M39.8846474,16.2596474 C37.8927146,16.2596474 36.410346,14.7425358 36.410346,12.0673237 C36.410346,9.39211161 37.8927146,7.875 39.8846474,7.875 C41.8881612,7.875 43.3589488,9.39211161 43.3589488,12.0673237 C43.3589488,14.7425358 41.8881612,16.2596474 39.8846474,16.2596474 Z M39.8846474,14.6730498 C40.8227088,14.6730498 41.471245,13.9087034 41.471245,12.0673237 C41.471245,10.225944 40.8227088,9.46159764 39.8846474,9.46159764 C38.958167,9.46159764 38.3096308,10.225944 38.3096308,12.0673237 C38.3096308,13.9087034 38.958167,14.6730498 39.8846474,14.6730498 Z M43.83377,8.01397206 L47.3312334,8.01397206 L47.3312334,16.1206753 L45.4551106,16.1206753 L45.4551106,9.51950267 L43.83377,9.51950267 L43.83377,8.01397206 Z" id="path-4"></path>
        <filter x="-0.8%" y="-1.5%" width="101.6%" height="106.0%" filterUnits="objectBoundingBox" id="filter-5">
            <feOffset dx="0" dy="0.25" in="SourceAlpha" result="shadowOffsetOuter1"></feOffset>
            <feColorMatrix values="0 0 0 0 1   0 0 0 0 1   0 0 0 0 1  0 0 0 0.249094203 0" type="matrix" in="shadowOffsetOuter1"></feColorMatrix>
        </filter>
        <circle id="path-6" cx="13" cy="13" r="13"></circle>
        <filter x="-5.8%" y="-5.8%" width="111.5%" height="119.2%" filterUnits="objectBoundingBox" id="filter-7">
            <feMorphology radius="0.5" operator="dilate" in="SourceAlpha" result="shadowSpreadOuter1"></feMorphology>
            <feOffset dx="0" dy="2" in="shadowSpreadOuter1" result="shadowOffsetOuter1"></feOffset>
            <feComposite in="shadowOffsetOuter1" in2="SourceAlpha" operator="out" result="shadowOffsetOuter1"></feComposite>
            <feColorMatrix values="0 0 0 0 0   0 0 0 0 0   0 0 0 0 0  0 0 0 0.1 0" type="matrix" in="shadowOffsetOuter1"></feColorMatrix>
        </filter>
    </defs>
    <g id="Badges" stroke="none" stroke-width="1" fill="none" fill-rule="evenodd">
        <g id="Process-VAT-in-Microsoft-Dynamics-365-Business-Central" transform="translate(-50.000000, -260.000000)">
            <g id="Process-VAT-in-Microsoft-Dynamics-365-Business-Central/calculate-and-post-vat-settlements-in-dynamics-365-business-central" transform="translate(50.000000, 260.000000)">
                <g id="Mask" transform="translate(2.000000, 2.000000)">
                    <mask id="mask-2" fill="white">
                        <use xlink:href="#path-1"></use>
                    </mask>
                    <use id="BG" fill="#01B6C3" xlink:href="#path-1"></use>
                    <g id="Calculator" filter="url(#filter-3)" mask="url(#mask-2)">
                        <g transform="translate(20.000000, 20.000000)">
                            <path d="M56,50.75 L56,5.25 C56,2.363375 53.6375,0 50.75,0 L5.25,0 C2.3625,0 0,2.363375 0,5.25 L0,50.75 C0,53.638375 2.3625,56 5.25,56 L50.75,56 C53.6375,56 56,53.638375 56,50.75" id="Fill-588" fill="#30404D" fill-rule="evenodd"></path>
                            <path d="M50.75,56 C53.6375,56 56,53.6375 56,50.75 L56,5.25 C56,3.906875 55.48375,2.681 54.64375,1.75 L29.75,1.75 C28.7875,1.75 28,2.533125 28,3.5 L28,52.5 C28,53.466875 27.2125,54.25 26.25,54.25 L1.35625,54.25 C2.31875,55.320125 3.71,56 5.25,56 L50.75,56" id="Fill-589" fill="#182A37" fill-rule="evenodd"></path>
                            <path d="M19.25,34.125 C19.25,34.60625 18.85625,35 18.375,35 L6.125,35 C5.64375,35 5.25,34.60625 5.25,34.125 L5.25,21.875 C5.25,21.39375 5.64375,21 6.125,21 L18.375,21 C18.85625,21 19.25,21.39375 19.25,21.875 L19.25,34.125" id="Fill-590" fill="#546670" fill-rule="evenodd"></path>
                            <path d="M35,34.125 C35,34.60625 34.60625,35 34.125,35 L21.875,35 C21.39375,35 21,34.60625 21,34.125 L21,21.875 C21,21.39375 21.39375,21 21.875,21 L34.125,21 C34.60625,21 35,21.39375 35,21.875 L35,34.125" id="Fill-591" fill="#546670" fill-rule="evenodd"></path>
                            <path d="M50.75,34.125 C50.75,34.60625 50.35625,35 49.875,35 L37.625,35 C37.14375,35 36.75,34.60625 36.75,34.125 L36.75,21.875 C36.75,21.39375 37.14375,21 37.625,21 L49.875,21 C50.35625,21 50.75,21.39375 50.75,21.875 L50.75,34.125" id="Fill-592" fill="#DF5142" fill-rule="evenodd"></path>
                            <path d="M50.75,49.875 C50.75,50.35625 50.35625,50.75 49.875,50.75 L37.625,50.75 C37.14375,50.75 36.75,50.35625 36.75,49.875 L36.75,37.625 C36.75,37.14375 37.14375,36.75 37.625,36.75 L49.875,36.75 C50.35625,36.75 50.75,37.14375 50.75,37.625 L50.75,49.875" id="Fill-593" fill="#A9B3B6" fill-rule="evenodd"></path>
                            <path d="M50.75,18.375 C50.75,18.85625 50.35625,19.25 49.875,19.25 L6.125,19.25 C5.64375,19.25 5.25,18.85625 5.25,18.375 L5.25,6.125 C5.25,5.64375 5.64375,5.25 6.125,5.25 L49.875,5.25 C50.35625,5.25 50.75,5.64375 50.75,6.125 L50.75,18.375" id="Fill-594" fill="#7CB65A" fill-rule="evenodd"></path>
                            <path d="M19.25,49.875 C19.25,50.35625 18.85625,50.75 18.375,50.75 L6.125,50.75 C5.64375,50.75 5.25,50.35625 5.25,49.875 L5.25,37.625 C5.25,37.14375 5.64375,36.75 6.125,36.75 L18.375,36.75 C18.85625,36.75 19.25,37.14375 19.25,37.625 L19.25,49.875" id="Fill-595" fill="#546670" fill-rule="evenodd"></path>
                            <path d="M35,49.875 C35,50.35625 34.60625,50.75 34.125,50.75 L21.875,50.75 C21.39375,50.75 21,50.35625 21,49.875 L21,37.625 C21,37.14375 21.39375,36.75 21.875,36.75 L34.125,36.75 C34.60625,36.75 35,37.14375 35,37.625 L35,49.875" id="Fill-596" fill="#546670" fill-rule="evenodd"></path>
                            <path d="M34.125,50.75 L21.875,50.75 C21.39375,50.75 21,50.35625 21,49.875 L21,50.75 C21,51.23125 21.39375,51.625 21.875,51.625 L34.125,51.625 C34.60625,51.625 35,51.23125 35,50.75 L35,49.875 C35,50.35625 34.60625,50.75 34.125,50.75" id="Fill-597" fill="#182A37" fill-rule="evenodd"></path>
                            <path d="M34.125,35 L21.875,35 C21.39375,35 21,34.60625 21,34.125 L21,35 C21,35.48125 21.39375,35.875 21.875,35.875 L34.125,35.875 C34.60625,35.875 35,35.48125 35,35 L35,34.125 C35,34.60625 34.60625,35 34.125,35" id="Fill-598" fill="#182A37" fill-rule="evenodd"></path>
                            <path d="M18.375,50.75 L6.125,50.75 C5.64375,50.75 5.25,50.35625 5.25,49.875 L5.25,50.75 C5.25,51.23125 5.64375,51.625 6.125,51.625 L18.375,51.625 C18.85625,51.625 19.25,51.23125 19.25,50.75 L19.25,49.875 C19.25,50.35625 18.85625,50.75 18.375,50.75" id="Fill-599" fill="#182A37" fill-rule="evenodd"></path>
                            <path d="M18.375,35 L6.125,35 C5.64375,35 5.25,34.60625 5.25,34.125 L5.25,35 C5.25,35.48125 5.64375,35.875 6.125,35.875 L18.375,35.875 C18.85625,35.875 19.25,35.48125 19.25,35 L19.25,34.125 C19.25,34.60625 18.85625,35 18.375,35" id="Fill-600" fill="#182A37" fill-rule="evenodd"></path>
                            <path d="M40.25,42.875 L47.25,42.875 C47.73125,42.875 48.125,42.483875 48.125,42 C48.125,41.516125 47.73125,41.125 47.25,41.125 L40.25,41.125 C39.76875,41.125 39.375,41.516125 39.375,42 C39.375,42.483875 39.76875,42.875 40.25,42.875" id="Fill-601" fill="#30404D" fill-rule="evenodd"></path>
                            <path d="M47.25,44.625 L40.25,44.625 C39.76875,44.625 39.375,45.016125 39.375,45.5 C39.375,45.983875 39.76875,46.375 40.25,46.375 L47.25,46.375 C47.73125,46.375 48.125,45.983875 48.125,45.5 C48.125,45.016125 47.73125,44.625 47.25,44.625" id="Fill-602" fill="#30404D" fill-rule="evenodd"></path>
                            <path d="M43.8375,32.375875 C42.69125,32.375875 41.545,31.94975 40.67875,31.09575 C38.9375,29.3895 38.9375,26.611375 40.67875,24.905125 C42.42,23.19975 45.24625,23.198875 46.9875,24.905125 C47.3375,25.246375 47.3375,25.801125 46.9875,26.14325 C46.6375,26.485375 46.0775,26.485375 45.7275,26.14325 C44.68625,25.118625 42.98875,25.11775 41.93875,26.14325 C40.8975,27.167875 40.8975,28.833875 41.93875,29.857625 C42.98875,30.88225 44.68625,30.88225 45.7275,29.857625 C46.0775,29.5155 46.6375,29.5155 46.9875,29.857625 C47.3375,30.19975 47.3375,30.753625 46.9875,31.09575 C46.12125,31.94975 44.975,32.375875 43.8375,32.375875" id="Fill-603" fill="#E1E4E1" fill-rule="evenodd"></path>
                            <path d="M49.875,5.25 L6.125,5.25 C5.64375,5.25 5.25,5.64375 5.25,6.125 L5.25,7.875 C5.25,7.39375 5.64375,7 6.125,7 L26.25,7 C27.2125,7 28,7.783125 28,8.75 L28,19.25 L49.875,19.25 C50.35625,19.25 50.75,18.85625 50.75,18.375 L50.75,6.125 C50.75,5.64375 50.35625,5.25 49.875,5.25" id="Fill-604" fill="#69994E" fill-rule="evenodd"></path>
                            <g id="101" fill="none" opacity="0.487444196">
                                <use fill="black" fill-opacity="1" filter="url(#filter-5)" xlink:href="#path-4"></use>
                                <use fill="#000000" fill-rule="evenodd" xlink:href="#path-4"></use>
                            </g>
                            <path d="M31.5,42.875 L24.5,42.875 C24.01875,42.875 23.625,43.266125 23.625,43.75 C23.625,44.233875 24.01875,44.625 24.5,44.625 L31.5,44.625 C31.98125,44.625 32.375,44.233875 32.375,43.75 C32.375,43.266125 31.98125,42.875 31.5,42.875" id="Fill-606" fill="#E1E4E1" fill-rule="evenodd"></path>
                            <path d="M28,42 C28.48125,42 28.875,41.608875 28.875,41.125 C28.875,40.641125 28.48125,40.25 28,40.25 C27.51875,40.25 27.125,40.641125 27.125,41.125 C27.125,41.608875 27.51875,42 28,42" id="Fill-607" fill="#E1E4E1" fill-rule="evenodd"></path>
                            <path d="M28,45.5 C27.51875,45.5 27.125,45.891125 27.125,46.375 C27.125,46.858875 27.51875,47.25 28,47.25 C28.48125,47.25 28.875,46.858875 28.875,46.375 C28.875,45.891125 28.48125,45.5 28,45.5" id="Fill-608" fill="#E1E4E1" fill-rule="evenodd"></path>
                            <path d="M15.75,27.125 L13.125,27.125 L13.125,24.5 C13.125,24.016125 12.73125,23.625 12.25,23.625 C11.76875,23.625 11.375,24.016125 11.375,24.5 L11.375,27.125 L8.75,27.125 C8.26875,27.125 7.875,27.516125 7.875,28 C7.875,28.483875 8.26875,28.875 8.75,28.875 L11.375,28.875 L11.375,31.5 C11.375,31.983875 11.76875,32.375 12.25,32.375 C12.73125,32.375 13.125,31.983875 13.125,31.5 L13.125,28.875 L15.75,28.875 C16.23125,28.875 16.625,28.483875 16.625,28 C16.625,27.516125 16.23125,27.125 15.75,27.125" id="Fill-609" fill="#E1E4E1" fill-rule="evenodd"></path>
                            <path d="M31.5,28.875 L24.5,28.875 C24.01875,28.875 23.625,28.483875 23.625,28 C23.625,27.516125 24.01875,27.125 24.5,27.125 L31.5,27.125 C31.98125,27.125 32.375,27.516125 32.375,28 C32.375,28.483875 31.98125,28.875 31.5,28.875" id="Fill-610" fill="#E1E4E1" fill-rule="evenodd"></path>
                            <path d="M13.48375,43.75 L15.49625,41.743625 C15.8375,41.4015 15.8375,40.8485 15.49625,40.506375 C15.155,40.16425 14.595,40.16425 14.25375,40.506375 L12.25,42.51275 L10.24625,40.506375 C9.905,40.16425 9.345,40.16425 9.00375,40.506375 C8.6625,40.8485 8.6625,41.4015 9.00375,41.743625 L11.01625,43.75 L9.00375,45.756375 C8.6625,46.0985 8.6625,46.6515 9.00375,46.993625 C9.17875,47.16425 9.3975,47.25 9.625,47.25 C9.8525,47.25 10.07125,47.16425 10.24625,46.993625 L12.25,44.98725 L14.25375,46.993625 C14.42875,47.16425 14.6475,47.25 14.875,47.25 C15.1025,47.25 15.32125,47.16425 15.49625,46.993625 C15.8375,46.6515 15.8375,46.0985 15.49625,45.756375 L13.48375,43.75" id="Fill-611" fill="#E1E4E1" fill-rule="evenodd"></path>
                        </g>
                    </g>
                    <g id="Group" mask="url(#mask-2)">
                        <g transform="translate(15.000000, 13.000000)">
                            <g id="Oval" fill="none">
                                <use fill="black" fill-opacity="1" filter="url(#filter-7)" xlink:href="#path-6"></use>
                                <use stroke="#01B6C3" stroke-width="1" fill="#FFFFFF" fill-rule="evenodd" xlink:href="#path-6"></use>
                            </g>
                            <path d="M16.6897059,16.8235294 C16.6897059,17.027452 16.6960784,17.263234 16.7088235,17.5308824 C16.7215687,17.7985308 16.7661761,18.0502439 16.8426471,18.2860294 C16.919118,18.5218149 17.0401953,18.7225482 17.2058824,18.8882353 C17.3715695,19.0539224 17.6073514,19.1367647 17.9132353,19.1367647 C18.206374,19.1367647 18.4389697,19.0539224 18.6110294,18.8882353 C18.7830891,18.7225482 18.9105388,18.5218149 18.9933824,18.2860294 C19.0762259,18.0502439 19.1272058,17.801717 19.1463235,17.5404412 C19.1654413,17.2791654 19.175,17.0465696 19.175,16.8426471 C19.175,16.6514696 19.1654413,16.4252464 19.1463235,16.1639706 C19.1272058,15.9026948 19.0794121,15.6541678 19.0029412,15.4183824 C18.9264702,15.1825969 18.8085792,14.9786773 18.6492647,14.8066176 C18.4899502,14.634558 18.2700994,14.5485294 17.9897059,14.5485294 C17.683822,14.5485294 17.4448538,14.6249992 17.2727941,14.7779412 C17.1007344,14.9308831 16.9700985,15.1220577 16.8808824,15.3514706 C16.7916662,15.5808835 16.7375001,15.8294104 16.7183824,16.0970588 C16.6992646,16.3647072 16.6897059,16.6068617 16.6897059,16.8235294 Z M14.7397059,16.8044118 C14.7397059,16.2818601 14.8034307,15.7975513 14.9308824,15.3514706 C15.0583333,14.9053899 15.255881,14.5166683 15.5235294,14.1852941 C15.7911778,13.8539199 16.1289195,13.592648 16.5367647,13.4014706 C16.9446099,13.2102932 17.4289188,13.1147059 17.9897059,13.1147059 C18.5887285,13.1147059 19.0857823,13.2134794 19.4808824,13.4110294 C19.8759824,13.6085794 20.1977929,13.8762238 20.4463235,14.2139706 C20.6948542,14.5517174 20.8700975,14.9499977 20.9720588,15.4088235 C21.0740201,15.8676494 21.125,16.3583307 21.125,16.8808824 C21.125,17.403434 21.0612751,17.8877429 20.9338235,18.3338235 C20.8063719,18.7799042 20.6120111,19.1686275 20.3507353,19.5 C20.0894595,19.8313742 19.754904,20.0894599 19.3470588,20.2742647 C18.9392136,20.4590696 18.4549048,20.5514706 17.8941176,20.5514706 C17.3078402,20.5514706 16.8139726,20.4558833 16.4125,20.2647059 C16.0110274,20.0735285 15.6860307,19.8090703 15.4375,19.4713235 C15.1889693,19.1335767 15.0105398,18.7352964 14.9022059,18.2764706 C14.793872,17.8176448 14.7397059,17.3269634 14.7397059,16.8044118 Z M16.2117647,6.5 L17.8367647,6.5 L9.96029412,20.7044118 L8.29705882,20.7044118 L16.2117647,6.5 Z M6.825,10.4764706 C6.825,10.6803932 6.83137249,10.9098026 6.84411765,11.1647059 C6.85686281,11.4196091 6.90147021,11.6585773 6.97794118,11.8816176 C7.05441215,12.104658 7.17548937,12.2926463 7.34117647,12.4455882 C7.50686357,12.5985302 7.74264553,12.675 8.04852941,12.675 C8.34166813,12.675 8.57426385,12.5985302 8.74632353,12.4455882 C8.91838321,12.2926463 9.04583292,12.104658 9.12867647,11.8816176 C9.21152002,11.6585773 9.2624999,11.4227954 9.28161765,11.1742647 C9.30073539,10.9257341 9.31029412,10.6995108 9.31029412,10.4955882 C9.31029412,10.3044108 9.30073539,10.0718151 9.28161765,9.79779412 C9.2624999,9.52377314 9.21470626,9.259315 9.13823529,9.00441176 C9.06176432,8.74950853 8.94387335,8.53284403 8.78455882,8.35441176 C8.6252443,8.1759795 8.40539356,8.08676471 8.125,8.08676471 C7.81911612,8.08676471 7.58014792,8.16960701 7.40808824,8.33529412 C7.23602855,8.50098122 7.1053926,8.70490075 7.01617647,8.94705882 C6.92696034,9.1892169 6.87279421,9.45048879 6.85367647,9.73088235 C6.83455873,10.0112759 6.825,10.2598028 6.825,10.4764706 Z M4.875,10.4382353 C4.875,9.91568366 4.93872485,9.42500229 5.06617647,8.96617647 C5.19362745,8.50735065 5.39117513,8.10588407 5.65882353,7.76176471 C5.92647193,7.41764534 6.26421365,7.14681471 6.67205882,6.94926471 C7.079904,6.7517147 7.56421288,6.65294118 8.125,6.65294118 C8.7240226,6.65294118 9.22107646,6.75490094 9.61617647,6.95882353 C10.0112765,7.16274612 10.333087,7.43994923 10.5816176,7.79044118 C10.8301483,8.14093313 11.0053916,8.55195843 11.1073529,9.02352941 C11.2093142,9.4951004 11.2602941,9.99215425 11.2602941,10.5147059 C11.2602941,11.0372575 11.1965693,11.5183802 11.0691176,11.9580882 C10.941666,12.3977963 10.7473052,12.7769592 10.4860294,13.0955882 C10.2247536,13.4142173 9.89019812,13.6627451 9.48235294,13.8411765 C9.07450776,14.0196087 8.59019888,14.1088235 8.02941176,14.1088235 C7.44313432,14.1088235 6.94926671,14.0164225 6.54779412,13.8316176 C6.14632152,13.6468128 5.82132477,13.3919134 5.57279412,13.0669118 C5.32426346,12.7419101 5.14583388,12.3531885 5.0375,11.9007353 C4.92916612,11.4482821 4.875,10.9607869 4.875,10.4382353 Z" id="%" fill="#01B6C3" fill-rule="nonzero"></path>
                        </g>
                    </g>
                </g>
                <g id="Dynamic-Border" stroke="#1D8E96" stroke-width="4">
                    <rect id="Azure-Border" x="2" y="2" width="96" height="96" rx="48"></rect>
                </g>
            </g>
        </g>
    </g>
</svg>