<?xml version="1.0" encoding="UTF-8"?>
<svg width="100px" height="118px" viewBox="0 0 100 118" version="1.1" xmlns="http://www.w3.org/2000/svg" xmlns:xlink="http://www.w3.org/1999/xlink">
    <!-- Generator: Sketch 55.2 (78181) - https://sketchapp.com -->
    <title>Setup Microsoft Dynamics 365 Business Central for reporting/setup-microsoft-dynamics-365-business-central-for-reporting</title>
    <desc>Created with Sketch.</desc>
    <defs>
        <path d="M42.7425,1.49663266 C44.3745,0.498877554 46.1865,0 48,0 C49.8135,0 51.627,0.498877554 53.256,1.49663266 L90.591,24.3316189 C93.933,26.3773408 96,30.2031485 96,34.3529027 L96,79.6470973 C96,83.7952317 93.933,87.6242789 90.591,89.6683811 L53.256,112.504987 C51.627,113.501122 49.8135,114 48,114 C46.1865,114 44.3745,113.501122 42.7425,112.504987 L5.409,89.6683811 C2.0655,87.6242789 0,83.7952317 0,79.6470973 L0,34.3529027 C0,30.2031485 2.0655,26.3773408 5.409,24.3316189 L42.7425,1.49663266 Z" id="path-1"></path>
        <filter x="-6.2%" y="-7.1%" width="112.5%" height="114.3%" filterUnits="objectBoundingBox" id="filter-3">
            <feOffset dx="0" dy="2" in="SourceAlpha" result="shadowOffsetOuter1"></feOffset>
            <feColorMatrix values="0 0 0 0 0   0 0 0 0 0   0 0 0 0 0  0 0 0 0.0964956975 0" type="matrix" in="shadowOffsetOuter1" result="shadowMatrixOuter1"></feColorMatrix>
            <feMerge>
                <feMergeNode in="shadowMatrixOuter1"></feMergeNode>
                <feMergeNode in="SourceGraphic"></feMergeNode>
            </feMerge>
        </filter>
        <circle id="path-4" cx="70.5" cy="67.5" r="17.5"></circle>
        <filter x="-2.9%" y="-2.9%" width="105.7%" height="111.4%" filterUnits="objectBoundingBox" id="filter-5">
            <feOffset dx="0" dy="2" in="SourceAlpha" result="shadowOffsetOuter1"></feOffset>
            <feColorMatrix values="0 0 0 0 0   0 0 0 0 0   0 0 0 0 0  0 0 0 0.1 0" type="matrix" in="shadowOffsetOuter1"></feColorMatrix>
        </filter>
    </defs>
    <g id="Badges" stroke="none" stroke-width="1" fill="none" fill-rule="evenodd">
        <g id="Setup-Microsoft-Dynamics-365-Business-Central-for-reporting" transform="translate(-50.000000, -50.000000)">
            <g id="Setup-Microsoft-Dynamics-365-Business-Central-for-reporting/setup-microsoft-dynamics-365-business-central-for-reporting" transform="translate(50.000000, 50.000000)">
                <g id="Mask" transform="translate(2.000000, 2.000000)">
                    <mask id="mask-2" fill="white">
                        <use xlink:href="#path-1"></use>
                    </mask>
                    <use id="Trophy-1" fill="#01B6C3" xlink:href="#path-1"></use>
                    <g id="Monitor" filter="url(#filter-3)" mask="url(#mask-2)">
                        <g transform="translate(16.000000, 32.000000)">
                            <path d="M0,36 L0,42 C0,44.2 1.8,46 4,46 L60,46 C62.2,46 64,44.2 64,42 L64,36 L0,36" id="Fill-1285" fill="#E1E4E1"></path>
                            <path d="M4,0 C1.8,0 0,1.8 0,4 L0,36 L64,36 L64,4 C64,1.8 62.2,0 60,0 L4,0 Z M60,2 C61.103,2 62,2.897 62,4 L62,34 L2,34 L2,4 C2,2.897 2.897,2 4,2 L60,2 L60,2 Z" id="Fill-1287" fill="#182A37"></path>
                            <path d="M2,4 C2,2.897 2.897,2 4,2 L60,2 C61.103,2 62,2.897 62,4 L62,34 L2,34 L2,4" id="Fill-1288" fill="#30404D"></path>
                            <path d="M4,2 L31.389,2 L21.611,34 L2,34 L2,4 C2,2.897 2.897,2 4,2" id="Fill-1289" fill="#384B58"></path>
                            <path d="M4,0 L32,0 L31.389,2 L4,2 C2.897,2 2,2.897 2,4 L2,34 L21.611,34 L21,36 L0,36 L0,4 C0,1.8 1.8,0 4,0" id="Fill-1290" fill="#30404D"></path>
                            <polyline id="Fill-1291" fill="#E1E4E1" points="40 55 24 55 26 46 38 46 40 55"></polyline>
                            <path d="M40,55 L38,46 L26,46 L25.555,48 L30,48 C31.105,48 32,48.895 32,50 L32,55 L40,55" id="Fill-1292" fill="#CDD6D8"></path>
                            <path d="M44,55 C44,55.55 43.55,56 43,56 L21,56 C20.45,56 20,55.55 20,55 C20,54.45 20.45,54 21,54 L43,54 C43.55,54 44,54.45 44,55" id="Fill-1293" fill="#E1E4E1"></path>
                            <path d="M21,56 L43,56 C43.55,56 44,55.55 44,55 L20,55 C20,55.55 20.45,56 21,56" id="Fill-1294" fill="#CDD6D8"></path>
                        </g>
                    </g>
                    <g id="Graph" mask="url(#mask-2)" fill-rule="nonzero">
                        <g transform="translate(32.000000, 40.000000)">
                            <rect id="Blue" fill="#55B7D9" x="0" y="3" width="5" height="18"></rect>
                            <rect id="Red" fill="#DF5142" x="8" y="0" width="5" height="21"></rect>
                            <rect id="Green" fill="#7CB65A" x="16" y="7" width="5" height="14"></rect>
                            <rect id="Green" fill="#F7CB64" x="24" y="12" width="5" height="9"></rect>
                        </g>
                    </g>
                    <g id="Oval" mask="url(#mask-2)">
                        <use fill="black" fill-opacity="1" filter="url(#filter-5)" xlink:href="#path-4"></use>
                        <use fill="#F3F4F3" fill-rule="evenodd" xlink:href="#path-4"></use>
                    </g>
                    <g id="Business-Central-logo" mask="url(#mask-2)" fill="#30404D">
                        <g transform="translate(57.000000, 54.000000)">
                            <path d="M19.2797306,8.72026937 L18.6197643,9.3802357 C18.5371286,9.29759998 18.4522895,9.21716764 18.3653427,9.13903435 C17.2083088,8.09928478 15.6780323,7.46666667 14,7.46666667 C10.3917396,7.46666667 7.46666667,10.3917396 7.46666667,14 C7.46666667,17.6082604 10.3917396,20.5333333 14,20.5333333 C15.8041302,20.5333333 17.4374635,19.8020651 18.6197643,18.6197643 L19.279732,19.279732 C17.9285297,20.6309315 16.0618631,21.4666667 14,21.4666667 C9.87627387,21.4666667 6.53333333,18.1237261 6.53333333,14 C6.53333333,9.87627387 9.87627387,6.53333333 14,6.53333333 C15.9177512,6.53333333 17.6666386,7.25632546 18.9889631,8.44461069 C19.0883309,8.53390588 19.1852898,8.62582855 19.2797306,8.72026937 Z" id="Combined-Shape"></path>
                            <path d="M14,5.6 C12.4536027,5.6 11.2,4.3463973 11.2,2.8 C11.2,1.2536027 12.4536027,0 14,0 C14.7191567,0 15.3749895,0.271122047 15.8708612,0.716729009 C16.4412587,1.22930736 16.8,1.97275942 16.8,2.8 C16.8,3.5540989 16.5018915,4.23857083 16.0170932,4.74199702 C15.5077371,5.27092468 14.7922984,5.6 14,5.6 Z M14,4.66666667 C14.5281989,4.66666667 15.0051581,4.44728312 15.3447288,4.09466468 C15.6679277,3.75904722 15.8666667,3.3027326 15.8666667,2.8 C15.8666667,2.24850628 15.6275058,1.75287157 15.2472408,1.41115267 C14.9166597,1.11408136 14.4794378,0.933333333 14,0.933333333 C12.9690685,0.933333333 12.1333333,1.76906847 12.1333333,2.8 C12.1333333,3.83093153 12.9690685,4.66666667 14,4.66666667 Z" id="Combined-Shape"></path>
                            <path d="M14,16.8 C12.4536027,16.8 11.2,15.5463973 11.2,14 C11.2,12.4536027 12.4536027,11.2 14,11.2 C14.7191567,11.2 15.3749895,11.471122 15.8708612,11.916729 C16.4412587,12.4293074 16.8,13.1727594 16.8,14 C16.8,14.7540989 16.5018915,15.4385708 16.0170932,15.941997 C15.5077371,16.4709247 14.7922984,16.8 14,16.8 Z M14,15.8666667 C14.5281989,15.8666667 15.0051581,15.6472831 15.3447288,15.2946647 C15.6679277,14.9590472 15.8666667,14.5027326 15.8666667,14 C15.8666667,13.4485063 15.6275058,12.9528716 15.2472408,12.6111527 C14.9166597,12.3140814 14.4794378,12.1333333 14,12.1333333 C12.9690685,12.1333333 12.1333333,12.9690685 12.1333333,14 C12.1333333,15.0309315 12.9690685,15.8666667 14,15.8666667 Z" id="Combined-Shape"></path>
                            <path d="M25.2,16.8 C23.6536027,16.8 22.4,15.5463973 22.4,14 C22.4,12.4536027 23.6536027,11.2 25.2,11.2 C25.9191567,11.2 26.5749895,11.471122 27.0708612,11.916729 C27.6412587,12.4293074 28,13.1727594 28,14 C28,14.7540989 27.7018915,15.4385708 27.2170932,15.941997 C26.7077371,16.4709247 25.9922984,16.8 25.2,16.8 Z M25.2,15.8666667 C25.7281989,15.8666667 26.2051581,15.6472831 26.5447288,15.2946647 C26.8679277,14.9590472 27.0666667,14.5027326 27.0666667,14 C27.0666667,13.4485063 26.8275058,12.9528716 26.4472408,12.6111527 C26.1166597,12.3140814 25.6794378,12.1333333 25.2,12.1333333 C24.1690685,12.1333333 23.3333333,12.9690685 23.3333333,14 C23.3333333,15.0309315 24.1690685,15.8666667 25.2,15.8666667 Z" id="Combined-Shape"></path>
                            <path d="M14,28 C12.4536027,28 11.2,26.7463973 11.2,25.2 C11.2,23.6536027 12.4536027,22.4 14,22.4 C14.7191567,22.4 15.3749895,22.671122 15.8708612,23.116729 C16.4412587,23.6293074 16.8,24.3727594 16.8,25.2 C16.8,25.9540989 16.5018915,26.6385708 16.0170932,27.141997 C15.5077371,27.6709247 14.7922984,28 14,28 Z M14,27.0666667 C14.5281989,27.0666667 15.0051581,26.8472831 15.3447288,26.4946647 C15.6679277,26.1590472 15.8666667,25.7027326 15.8666667,25.2 C15.8666667,24.6485063 15.6275058,24.1528716 15.2472408,23.8111527 C14.9166597,23.5140814 14.4794378,23.3333333 14,23.3333333 C12.9690685,23.3333333 12.1333333,24.1690685 12.1333333,25.2 C12.1333333,26.2309315 12.9690685,27.0666667 14,27.0666667 Z" id="Combined-Shape"></path>
                            <rect id="Rectangle" x="15.8666667" y="13.0666667" width="7.46666667" height="1.86666667"></rect>
                            <polygon id="Rectangle" transform="translate(14.000000, 6.066667) rotate(90.000000) translate(-14.000000, -6.066667) " points="13.0666667 5.13333333 14.9333333 5.13333333 14.9333333 7 13.0666667 7"></polygon>
                            <rect id="Rectangle" x="5.13333333" y="13.0666667" width="1.86666667" height="1.86666667"></rect>
                            <polygon id="Rectangle" transform="translate(14.000000, 21.933333) rotate(90.000000) translate(-14.000000, -21.933333) " points="13.0666667 21 14.9333333 21 14.9333333 22.8666667 13.0666667 22.8666667"></polygon>
                            <path d="M2.8,16.8 C1.2536027,16.8 -2.90922841e-12,15.5463973 -2.90922841e-12,14 C-2.90922841e-12,12.4536027 1.2536027,11.2 2.8,11.2 C3.51915672,11.2 4.17498948,11.471122 4.67086117,11.916729 C5.24125867,12.4293074 5.6,13.1727594 5.6,14 C5.6,14.7540989 5.30189149,15.4385708 4.81709325,15.941997 C4.30773714,16.4709247 3.5922984,16.8 2.8,16.8 Z M2.8,15.8666667 C3.32819893,15.8666667 3.80515809,15.6472831 4.14472883,15.2946647 C4.46792766,14.9590472 4.66666667,14.5027326 4.66666667,14 C4.66666667,13.4485063 4.42750578,12.9528716 4.04724078,12.6111527 C3.71665966,12.3140814 3.27943781,12.1333333 2.8,12.1333333 C1.76906847,12.1333333 0.933333333,12.9690685 0.933333333,14 C0.933333333,15.0309315 1.76906847,15.8666667 2.8,15.8666667 Z" id="Combined-Shape"></path>
                        </g>
                    </g>
                </g>
                <g id="Dynamic-Hex" stroke="#1D8E96" stroke-width="4">
                    <path d="M45.5618501,3.25844398 L45.5621963,3.25823359 L6.67338401,26.8942953 C3.79673288,28.6432593 2,31.9508238 2,35.5582677 L2,82.4417323 C2,86.0486597 3.79764663,89.3586805 6.67318764,91.1055853 L45.560618,114.742485 C46.9289662,115.572418 48.4546283,116 50,116 C51.5458817,116 53.0723633,115.572188 54.4362178,114.743457 L93.3268764,91.1055464 C96.2016145,89.3583456 98,86.0476286 98,82.4417323 L98,35.5582677 C98,31.9518547 96.202529,28.6435953 93.3268966,26.8944659 L54.4351916,3.25759524 C53.0721095,2.42798656 51.5462432,2 50,2 C48.4542664,2 46.9292165,2.42775755 45.5618501,3.25844398 Z" id="Azure-Hex-Border"></path>
                </g>
            </g>
        </g>
    </g>
</svg>