<?xml version="1.0" encoding="UTF-8"?>
<svg width="100px" height="100px" viewBox="0 0 100 100" version="1.1" xmlns="http://www.w3.org/2000/svg" xmlns:xlink="http://www.w3.org/1999/xlink">
    <!-- Generator: Sketch 55.2 (78181) - https://sketchapp.com -->
    <title>Sell items and services in Microsoft Dynamics 365 Business Central/ship-and-invoice-items-in-dynamics-365-business-central</title>
    <desc>Created with Sketch.</desc>
    <defs>
        <rect id="path-1" x="0" y="0" width="96" height="96" rx="48"></rect>
        <filter x="-7.5%" y="-8.9%" width="115.1%" height="120.0%" filterUnits="objectBoundingBox" id="filter-3">
            <feOffset dx="0" dy="2" in="SourceAlpha" result="shadowOffsetOuter1"></feOffset>
            <feColorMatrix values="0 0 0 0 0   0 0 0 0 0   0 0 0 0 0  0 0 0 0.0992980072 0" type="matrix" in="shadowOffsetOuter1" result="shadowMatrixOuter1"></feColorMatrix>
            <feMerge>
                <feMergeNode in="shadowMatrixOuter1"></feMergeNode>
                <feMergeNode in="SourceGraphic"></feMergeNode>
            </feMerge>
        </filter>
        <filter x="-19.0%" y="-14.3%" width="138.1%" height="128.6%" filterUnits="objectBoundingBox" id="filter-4">
            <feOffset dx="0" dy="2" in="SourceAlpha" result="shadowOffsetOuter1"></feOffset>
            <feColorMatrix values="0 0 0 0 0   0 0 0 0 0   0 0 0 0 0  0 0 0 0.102163462 0" type="matrix" in="shadowOffsetOuter1" result="shadowMatrixOuter1"></feColorMatrix>
            <feMerge>
                <feMergeNode in="shadowMatrixOuter1"></feMergeNode>
                <feMergeNode in="SourceGraphic"></feMergeNode>
            </feMerge>
        </filter>
    </defs>
    <g id="Badges" stroke="none" stroke-width="1" fill="none" fill-rule="evenodd">
        <g id="Sell-items-and-services-in-Microsoft-Dynamics-365-Business-Central" transform="translate(-50.000000, -1060.000000)">
            <g id="Sell-items-and-services-in-Microsoft-Dynamics-365-Business-Central/ship-and-invoice-items-in-dynamics-365-business-central" transform="translate(50.000000, 1060.000000)">
                <g id="Mask" transform="translate(2.000000, 2.000000)">
                    <mask id="mask-2" fill="white">
                        <use xlink:href="#path-1"></use>
                    </mask>
                    <use id="BG" fill="#01B6C3" xlink:href="#path-1"></use>
                    <g id="Paper-Box" filter="url(#filter-3)" mask="url(#mask-2)">
                        <g transform="translate(20.000000, 24.000000)">
                            <path d="M53,5.76923077 L0,5.76923077 L5.30082813,1.15384615 C6.02957813,0.519230769 7.37114063,0 8.28207813,0 L44.7195781,0 C45.6305156,0 46.9720781,0.519230769 47.7008281,1.15384615 L53,5.76923077" id="Fill-680" fill="#CC9547"></path>
                            <path d="M52.9991719,43.4307692 C52.9991719,44.2938462 52.253871,45 51.3429478,45 L1.65622412,45 C0.744472743,45 0,44.2938462 0,43.4307692 L0.000828112061,5.76923077 L53,5.76923077 L52.9991719,43.4307692" id="Fill-681" fill="#F2BE53"></path>
                            <polyline id="Fill-682" fill="#EFB252" points="38.0217391 5.76923077 16.1304348 5.76923077 18.8668478 0 35.2853261 0 38.0217391 5.76923077"></polyline>
                            <path d="M51.3429478,45 C52.253871,45 52.9991719,44.2644231 52.9991719,43.3653846 L53,5.76923077 L28.9839221,5.76923077 C27.6117404,5.76923077 26.4995859,6.86442308 26.4995859,8.22115385 L26.4995859,40.9134615 C26.4995859,42.2701923 25.3874314,43.3653846 24.0152498,43.3653846 L0,43.3653846 C0,44.2644231 0.744472743,45 1.65622412,45 L51.3429478,45" id="Fill-683" fill="#EFB252"></path>
                            <path d="M16.1304348,5.76923077 L16.1304348,20.2295725 C16.1304348,20.6879695 16.4588043,20.8379903 16.8601449,20.5629521 L19.0492754,19.0627438 C19.4506159,18.7877056 20.1073551,18.7877056 20.5086957,19.0627438 L22.6978261,20.5629521 C23.0991667,20.8379903 23.7559058,20.8379903 24.1572464,20.5629521 L26.3463768,19.0627438 C26.7477174,18.7877056 27.4044565,18.7877056 27.8057971,19.0627438 L29.9949275,20.5629521 C30.3962681,20.8379903 31.0530072,20.8379903 31.4543478,20.5629521 L33.6434783,19.0627438 C34.0448188,18.7877056 34.701558,18.7877056 35.1028986,19.0627438 L37.292029,20.5629521 C37.6933696,20.8379903 38.0217391,20.6879695 38.0217391,20.2295725 L38.0217391,5.76923077 L16.1304348,5.76923077" id="Fill-684" fill="#F7CB64"></path>
                            <path d="M27.6521739,5.76923077 C27.665861,5.79035343 27.6662435,7.02567709 27.6662435,8.58217029 L27.6662435,18.6149879 C27.9164805,18.6149879 28.1675803,18.6993761 28.3574152,18.8493995 L30.4283418,20.5371633 C30.8080117,20.8465866 31.4292896,20.8465866 31.8089595,20.5371633 L33.879886,18.8493995 C34.2595559,18.5399762 34.8808339,18.5399762 35.2605037,18.8493995 L37.3314303,20.5371633 C37.7111001,20.8465866 38.0217391,20.6778102 38.0217391,20.1621047 L38.0217391,5.76923077 L30.2549017,5.76923077 L27.6521739,5.76923077 Z" id="Fill-685" fill="#F2BE53"></path>
                        </g>
                    </g>
                    <g id="Group-3" filter="url(#filter-4)" mask="url(#mask-2)">
                        <g transform="translate(59.000000, 45.000000)">
                            <path d="M2.52038043,0 C1.5638587,0 0.78125,0.7875 0.78125,1.75 L0.78125,26.25 C0.78125,27.2125 1.5638587,28 2.52038043,28 L19.0421196,28 C19.9990761,28 20.78125,27.2125 20.78125,26.25 L20.78125,7 L13.8247283,0 L2.52038043,0" id="Fill-1" fill="#E1E4E1"></path>
                            <path d="M15.53125,7 L20.78125,7 L13.78125,0 L13.78125,5.25 C13.78125,6.2125 14.56875,7 15.53125,7" id="Fill-2" fill="#697D85"></path>
                            <path d="M16.8479167,13 L4.71458333,13 C4.19938333,13 3.78125,12.552 3.78125,12 C3.78125,11.448 4.19938333,11 4.71458333,11 L16.8479167,11 C17.3635833,11 17.78125,11.448 17.78125,12 C17.78125,12.552 17.3635833,13 16.8479167,13" id="Fill-3" fill="#C5CCCD"></path>
                            <path d="M9,6.93857143 C9,6.19285714 8.2935,5.58857143 7.4255,5.58857143 L6.5755,5.58857143 C6.276,5.58857143 6.0325,5.37857143 6.0325,5.12142857 C6.0325,4.86428571 6.276,4.65857143 6.5755,4.65857143 L8.484,4.65857143 L8.484,3.77142857 L7.5,3.77142857 L7.5,3 L6.5,3 L6.5,3.78 C5.667,3.81428571 5,4.40142857 5,5.12142857 C5,5.86714286 5.707,6.47142857 6.5755,6.47142857 L7.4255,6.47142857 C7.724,6.47142857 7.9675,6.68142857 7.9675,6.93857143 C7.9675,7.19571429 7.724,7.40142857 7.4255,7.40142857 L5.404,7.40142857 L5.404,8.28857143 L6.5,8.28857143 L6.5,9 L7.5,9 L7.5,8.28 C8.3325,8.24571429 9,7.65857143 9,6.93857143" id="Fill-752" fill="#C5CCCD"></path>
                            <path d="M16.8479167,17 L4.71458333,17 C4.19938333,17 3.78125,16.552 3.78125,16 C3.78125,15.448 4.19938333,15 4.71458333,15 L16.8479167,15 C17.3635833,15 17.78125,15.448 17.78125,16 C17.78125,16.552 17.3635833,17 16.8479167,17" id="Fill-6" fill="#C5CCCD"></path>
                            <path d="M16.8479167,21 L4.71458333,21 C4.19938333,21 3.78125,20.552 3.78125,20 C3.78125,19.448 4.19938333,19 4.71458333,19 L16.8479167,19 C17.3635833,19 17.78125,19.448 17.78125,20 C17.78125,20.552 17.3635833,21 16.8479167,21" id="Fill-7" fill="#C5CCCD"></path>
                            <path d="M16.8479167,25 L4.71458333,25 C4.19938333,25 3.78125,24.552 3.78125,24 C3.78125,23.448 4.19938333,23 4.71458333,23 L16.8479167,23 C17.3635833,23 17.78125,23.448 17.78125,24 C17.78125,24.552 17.3635833,25 16.8479167,25" id="Fill-8" fill="#C5CCCD"></path>
                            <polyline id="Fill-9" fill="#C5CCCD" points="20.78125 12 15.78125 7 20.78125 7 20.78125 12"></polyline>
                        </g>
                    </g>
                </g>
                <g id="Dynamic-Border" stroke="#1D8E96" stroke-width="4">
                    <rect id="Azure-Border" x="2" y="2" width="96" height="96" rx="48"></rect>
                </g>
            </g>
        </g>
    </g>
</svg>