<?xml version="1.0" encoding="UTF-8"?>
<svg width="100px" height="100px" viewBox="0 0 100 100" version="1.1" xmlns="http://www.w3.org/2000/svg" xmlns:xlink="http://www.w3.org/1999/xlink">
    <!-- Generator: Sketch 55.2 (78181) - https://sketchapp.com -->
    <title>Get started with Trade in Microsoft Dynamics 365 Business Central/set-up-trade-in-microsoft-dynamics-365-business-central</title>
    <desc>Created with Sketch.</desc>
    <defs>
        <rect id="path-1" x="0" y="0" width="96" height="96" rx="48"></rect>
        <polygon id="path-3" points="0 3.36540161 0 21.7357136 10.0201702 21.7357136 10.0201702 3.36540161"></polygon>
        <filter x="-10.0%" y="-5.4%" width="120.0%" height="121.8%" filterUnits="objectBoundingBox" id="filter-4">
            <feOffset dx="0" dy="2" in="SourceAlpha" result="shadowOffsetOuter1"></feOffset>
            <feColorMatrix values="0 0 0 0 0   0 0 0 0 0   0 0 0 0 0  0 0 0 0.0975743007 0" type="matrix" in="shadowOffsetOuter1"></feColorMatrix>
        </filter>
        <polygon id="path-5" points="10.0201702 10.0201702 0 10.0201702 0 22.1278759 10.0201702 22.1278759"></polygon>
        <filter x="-10.0%" y="-8.3%" width="120.0%" height="133.0%" filterUnits="objectBoundingBox" id="filter-6">
            <feOffset dx="0" dy="2" in="SourceAlpha" result="shadowOffsetOuter1"></feOffset>
            <feColorMatrix values="0 0 0 0 0   0 0 0 0 0   0 0 0 0 0  0 0 0 0.0975743007 0" type="matrix" in="shadowOffsetOuter1"></feColorMatrix>
        </filter>
        <polygon id="path-7" points="0 4.20041579 0 19.2306711 10.0201702 19.2306711 10.0201702 4.20041579"></polygon>
        <filter x="-10.0%" y="-6.7%" width="120.0%" height="126.6%" filterUnits="objectBoundingBox" id="filter-8">
            <feOffset dx="0" dy="2" in="SourceAlpha" result="shadowOffsetOuter1"></feOffset>
            <feColorMatrix values="0 0 0 0 0   0 0 0 0 0   0 0 0 0 0  0 0 0 0.0975743007 0" type="matrix" in="shadowOffsetOuter1"></feColorMatrix>
        </filter>
        <polygon id="path-9" points="0 6.70545834 0 25.9107846 10.0201702 25.9107846 10.0201702 6.70545834"></polygon>
        <filter x="-10.0%" y="-5.2%" width="120.0%" height="120.8%" filterUnits="objectBoundingBox" id="filter-10">
            <feOffset dx="0" dy="2" in="SourceAlpha" result="shadowOffsetOuter1"></feOffset>
            <feColorMatrix values="0 0 0 0 0   0 0 0 0 0   0 0 0 0 0  0 0 0 0.0975743007 0" type="matrix" in="shadowOffsetOuter1"></feColorMatrix>
        </filter>
        <path d="M18.375,14.6984848 C18.375,17.1108598 16.4119375,19.0734848 14,19.0734848 C11.587625,19.0734848 9.625,17.1108598 9.625,14.6984848 C9.625,12.2861098 11.587625,10.3234848 14,10.3234848 C16.4119375,10.3234848 18.375,12.2861098 18.375,14.6984848 Z M24.4260625,11.8897348 C24.259375,11.8529848 23.9999375,11.6167348 23.947875,11.4539848 C23.9413125,11.4316723 23.933,11.4097973 23.9238125,11.3883598 L23.3625,10.0242348 C23.352875,10.0006098 23.3419375,9.97698481 23.330125,9.95423481 C23.251375,9.80329731 23.2666875,9.45548481 23.358125,9.31242231 L24.47725,7.55367231 C24.9519375,6.80773481 24.8338125,5.73367231 24.2090625,5.10848481 L23.59,4.48942231 C22.9796875,3.87867231 21.875,3.75660981 21.1448125,4.22123481 L19.385625,5.33992231 C19.327,5.37798481 19.1883125,5.41867231 19.0238125,5.41867231 C18.8890625,5.41867231 18.788875,5.39154731 18.74425,5.36835981 C18.7219375,5.35610981 18.697875,5.34560981 18.6738125,5.33598481 L17.310125,4.77423481 C17.2886875,4.76548481 17.2668125,4.75717231 17.2445,4.75060981 C17.0821875,4.69854731 16.8455,4.43910981 16.80875,4.27198481 L16.3568125,2.23804731 C16.16475,1.37485981 15.3216875,0.69848481 14.4375,0.69848481 L13.5625,0.69848481 C12.677875,0.69848481 11.83525,1.37485981 11.643625,2.23760981 L11.19125,4.27285981 C11.1540625,4.43910981 10.9178125,4.69854731 10.7555,4.75060981 C10.7331875,4.75717231 10.7113125,4.76548481 10.6894375,4.77423481 L9.32575,5.33598481 C9.3016875,5.34560981 9.2780625,5.35610981 9.2553125,5.36835981 C9.211125,5.39154731 9.1109375,5.41867231 8.97575,5.41867231 C8.81125,5.41867231 8.6725625,5.37754731 8.6135,5.33992231 L6.8551875,4.22167231 C6.125,3.75704731 5.019875,3.87954731 4.41,4.48985981 L3.7909375,5.10848481 C3.16575,5.73410981 3.0480625,6.80817231 3.52275,7.55410981 L4.641875,9.31242231 C4.732875,9.45592231 4.7481875,9.80285981 4.669875,9.95379731 C4.6580625,9.97698481 4.6466875,10.0006098 4.6370625,10.0242348 L4.07575,11.3883598 C4.067,11.4097973 4.0586875,11.4316723 4.0516875,11.4539848 C3.999625,11.6167348 3.740625,11.8529848 3.5735,11.8901723 L1.5395625,12.3416723 C0.676375,12.5337348 -1.13686838e-13,13.3763598 -1.13686838e-13,14.2609848 L-1.13686838e-13,15.1359848 C-1.13686838e-13,16.0201723 0.676375,16.8632348 1.539125,17.0548598 L3.5739375,17.5067973 C3.740625,17.5439848 3.999625,17.7802348 4.0516875,17.9429848 C4.0586875,17.9652973 4.067,17.9871723 4.07575,18.0086098 L4.6370625,19.3727348 C4.6466875,19.3963598 4.657625,19.4195473 4.669875,19.4427348 C4.7481875,19.5932348 4.732875,19.9410473 4.6414375,20.0845473 L3.52275,21.8428598 C3.047625,22.5887973 3.16575,23.6632973 3.7909375,24.2884848 L4.41,24.9075473 C5.0194375,25.5165473 6.12325,25.6407973 6.855625,25.1757348 L8.6130625,24.0570473 C8.6725625,24.0189848 8.81125,23.9782973 8.97575,23.9782973 C9.1109375,23.9782973 9.211125,24.0049848 9.2553125,24.0286098 C9.2785,24.0399848 9.3016875,24.0513598 9.32575,24.0609848 L10.6894375,24.6227348 C10.7113125,24.6314848 10.7331875,24.6393598 10.7555,24.6463598 C10.9178125,24.6984223 11.1540625,24.9578598 11.19125,25.1245473 L11.643625,27.1589223 C11.83525,28.0221098 12.677875,28.6984848 13.5625,28.6984848 L14.4375,28.6984848 C15.3216875,28.6984848 16.1643125,28.0221098 16.356375,27.1589223 L16.80875,25.1245473 C16.8455,24.9578598 17.0821875,24.6984223 17.2445,24.6463598 C17.2668125,24.6393598 17.2886875,24.6314848 17.310125,24.6227348 L18.6738125,24.0609848 C18.697875,24.0513598 18.7215,24.0399848 18.74425,24.0286098 C18.788875,24.0049848 18.8890625,23.9782973 19.023375,23.9782973 C19.187875,23.9782973 19.327,24.0189848 19.385625,24.0570473 L21.144375,25.1752973 C21.874125,25.6407973 22.9796875,25.5174223 23.59,24.9075473 L24.208625,24.2889223 C24.8338125,23.6637348 24.9519375,22.5892348 24.47725,21.8428598 L23.358125,20.0845473 C23.2666875,19.9410473 23.251375,19.5936723 23.330125,19.4431723 C23.3419375,19.4199848 23.352875,19.3967973 23.3625,19.3731723 L23.9238125,18.0086098 C23.933,17.9871723 23.9413125,17.9652973 23.947875,17.9429848 C23.9999375,17.7802348 24.259375,17.5439848 24.4265,17.5067973 L26.46,17.0548598 C27.323625,16.8632348 28,16.0201723 28,15.1359848 L28,14.2609848 C28,13.3763598 27.323625,12.5337348 26.4604375,12.3421098 L24.4260625,11.8897348 Z" id="path-11"></path>
        <filter x="-3.6%" y="-3.6%" width="107.1%" height="114.3%" filterUnits="objectBoundingBox" id="filter-12">
            <feOffset dx="0" dy="2" in="SourceAlpha" result="shadowOffsetOuter1"></feOffset>
            <feColorMatrix values="0 0 0 0 0   0 0 0 0 0   0 0 0 0 0  0 0 0 0.1 0" type="matrix" in="shadowOffsetOuter1"></feColorMatrix>
        </filter>
        <path d="M0.415833333,10.5 C2.71833333,10.5 4.58333333,8.262 4.58333333,5.5 L4.58333333,5.5 C4.58333333,2.738 2.71833333,0.5 0.415833333,0.5 L0.415833333,0.5 L0.415833333,10.5 Z" id="path-13"></path>
    </defs>
    <g id="Badges" stroke="none" stroke-width="1" fill="none" fill-rule="evenodd">
        <g id="Get-started-with-Trade-in-Microsoft-Dynamics-365-Business-Central" transform="translate(-50.000000, -260.000000)">
            <g id="Get-started-with-Trade-in-Microsoft-Dynamics-365-Business-Central/set-up-trade-in-microsoft-dynamics-365-business-central" transform="translate(50.000000, 260.000000)">
                <g id="Mask" transform="translate(2.000000, 2.000000)">
                    <mask id="mask-2" fill="white">
                        <use xlink:href="#path-1"></use>
                    </mask>
                    <use id="BG" fill="#01B6C3" xlink:href="#path-1"></use>
                    <g id="Lines" mask="url(#mask-2)" fill="#1D8E96">
                        <g transform="translate(14.686968, 28.629688)">
                            <polygon id="Fill-854" points="0 25.0504255 62.6260638 25.0504255 62.6260638 23.3803971 0 23.3803971"></polygon>
                            <polygon id="Fill-855" points="0 36.7406241 62.6260638 36.7406241 62.6260638 35.0705957 0 35.0705957"></polygon>
                            <polygon id="Fill-856" points="0 13.3602269 62.6260638 13.3602269 62.6260638 11.6901986 0 11.6901986"></polygon>
                            <polygon id="Fill-857" points="0 1.67002837 62.6260638 1.67002837 62.6260638 0 0 0"></polygon>
                        </g>
                    </g>
                    <g id="4" mask="url(#mask-2)">
                        <g transform="translate(62.282777, 24.500000)">
                            <polygon id="Path" fill="#3E5162" fill-rule="evenodd" points="7.51512765 35.2992235 7.51512765 36.9453517 2.50504255 36.9453517 2.50504255 35.2992235 4.18702099 35.2992235 4.18702099 1.80704518 2.50504255 1.80704518 2.50504255 0.160916969 7.51512765 0.160916969 7.51512765 1.80704518 5.83314921 1.80704518 5.83314921 35.2992235"></polygon>
                            <g id="Fill-860" fill="none">
                                <use fill="black" fill-opacity="1" filter="url(#filter-4)" xlink:href="#path-3"></use>
                                <use fill="#7CB65A" fill-rule="evenodd" xlink:href="#path-3"></use>
                            </g>
                            <polyline id="Fill-862" fill="#69994E" fill-rule="evenodd" points="5.0100851 3.36540161 5.0100851 21.7357136 10.0201702 21.7357136 10.0201702 3.36540161"></polyline>
                        </g>
                    </g>
                    <g id="3" mask="url(#mask-2)">
                        <g transform="translate(48.087535, 40.803948)">
                            <polygon id="Path" fill="#3E5162" fill-rule="evenodd" points="7.51512765 23.8274089 7.51512765 25.4735372 2.50504255 25.4735372 2.50504255 23.8274089 4.18702099 23.8274089 4.18702099 2.02542916 2.50504255 2.02542916 2.50504255 0.379300947 7.51512765 0.379300947 7.51512765 2.02542916 5.83314921 2.02542916 5.83314921 23.8274089"></polygon>
                            <g id="Fill-859" fill="none">
                                <use fill="black" fill-opacity="1" filter="url(#filter-6)" xlink:href="#path-5"></use>
                                <use fill="#DF5142" fill-rule="evenodd" xlink:href="#path-5"></use>
                            </g>
                            <polyline id="Fill-863" fill="#C2423D" fill-rule="evenodd" points="5.0100851 10.0201702 5.0100851 22.1278759 10.0201702 22.1278759 10.0201702 10.0201702"></polyline>
                        </g>
                    </g>
                    <g id="2" mask="url(#mask-2)">
                        <g transform="translate(33.892294, 31.180113)">
                            <polygon id="Path" fill="#3E5162" fill-rule="evenodd" points="7.51512765 26.9490817 7.51512765 28.5952099 2.50504255 28.5952099 2.50504255 26.9490817 4.18702099 26.9490817 4.18702099 1.80704518 2.50504255 1.80704518 2.50504255 0.160916969 7.51512765 0.160916969 7.51512765 1.80704518 5.83314921 1.80704518 5.83314921 26.9490817"></polygon>
                            <g id="Fill-860" fill="none">
                                <use fill="black" fill-opacity="1" filter="url(#filter-8)" xlink:href="#path-7"></use>
                                <use fill="#7CB65A" fill-rule="evenodd" xlink:href="#path-7"></use>
                            </g>
                            <polyline id="Fill-862" fill="#69994E" fill-rule="evenodd" points="5.0100851 4.20041579 5.0100851 19.2306711 10.0201702 19.2306711 10.0201702 4.20041579"></polyline>
                        </g>
                    </g>
                    <g id="1" mask="url(#mask-2)">
                        <g transform="translate(19.697053, 35.264418)">
                            <polygon id="Path" fill="#3E5162" fill-rule="evenodd" points="7.51512765 32.1059497 7.51512765 33.7520779 2.50504255 33.7520779 2.50504255 32.1059497 4.18702099 32.1059497 4.18702099 1.95382804 2.50504255 1.95382804 2.50504255 0.307699832 7.51512765 0.307699832 7.51512765 1.95382804 5.83314921 1.95382804 5.83314921 32.1059497"></polygon>
                            <g id="Fill-860" fill="none">
                                <use fill="black" fill-opacity="1" filter="url(#filter-10)" xlink:href="#path-9"></use>
                                <use fill="#7CB65A" fill-rule="evenodd" xlink:href="#path-9"></use>
                            </g>
                            <polyline id="Fill-862" fill="#69994E" fill-rule="evenodd" points="5.0100851 6.70545834 5.0100851 25.9107846 10.0201702 25.9107846 10.0201702 6.70545834"></polyline>
                        </g>
                    </g>
                    <g id="Gear" mask="url(#mask-2)">
                        <g transform="translate(48.087535, 40.803948)">
                            <g id="Group-10" stroke-width="1" fill="none" fill-rule="evenodd" transform="translate(20.506097, 20.506097) rotate(-45.000000) translate(-20.506097, -20.506097) translate(6.006097, 6.006097)">
                                <path d="M17.125,14.6984848 C17.125,12.9766361 15.7217519,11.5734848 14,11.5734848 C12.2779809,11.5734848 10.875,12.9764657 10.875,14.6984848 C10.875,16.4205039 12.2779809,17.8234848 14,17.8234848 C15.7217519,17.8234848 17.125,16.4203336 17.125,14.6984848 Z M16.8517666,5.93731682 L16.841815,5.93321733 C16.8486395,5.93592223 16.8595321,5.93991472 16.8622416,5.94079483 C16.857961,5.93934846 16.8548634,5.9383385 16.8517666,5.93731682 Z M16.841815,5.93321733 L16.8377538,5.93154436 C16.8387549,5.9319855 16.8401662,5.93256384 16.841815,5.93321733 Z M5.23366765,17.5377032 C5.23301993,17.5360186 5.23248133,17.5347552 5.23171276,17.5329523 L5.23366765,17.5377032 Z M25.0083134,18.6579903 L24.5857248,19.6852979 L25.532005,21.1720455 C26.3209845,22.4125975 26.1319504,24.1333639 25.0925085,25.1728058 L24.4735665,25.7917476 C23.448083,26.816496 21.6955106,27.0095229 20.4736882,26.2301334 L18.9861068,25.2842418 L17.9597582,25.707025 L17.576536,27.4304128 C17.2572574,28.8653482 15.9074532,29.9484848 14.4375,29.9484848 L13.5625,29.9484848 C12.0920087,29.9484848 10.7419741,28.8651633 10.4234282,27.4302521 L10.0402855,25.7072202 L9.01322469,25.2840845 L7.52569935,26.2309601 C6.30053742,27.0089452 4.55092344,26.8155021 3.52611652,25.7914308 L2.90705402,25.1723683 C1.86740459,24.1327189 1.67851306,22.411517 2.46810831,21.1718673 L3.41395685,19.6852173 L2.99121066,18.657832 L1.26809297,18.2751227 C-0.166740484,17.9564326 -1.25,16.6059947 -1.25,15.1359848 L-1.25,14.2609848 C-1.25,12.7907011 -0.166967719,11.4408131 1.26867736,11.1213768 L2.99126738,10.7389908 L3.41410599,9.71140594 L2.46817314,8.22520418 C1.67899408,6.98506566 1.86759372,5.26478893 2.90736652,4.22428895 L3.52579966,3.60629331 C4.55038039,2.58097759 6.30220125,2.38820173 7.52599315,3.16691178 L9.01329176,4.11280296 L10.0403467,3.68977653 L10.4233621,1.96657778 C10.7420765,0.531635184 12.0921644,-0.55151519 13.5625,-0.55151519 L14.4375,-0.55151519 C15.907458,-0.55151519 17.257696,0.531626341 17.5770525,1.96691203 L17.9599204,3.69001445 L18.9859704,4.11273375 L20.473759,3.16663193 C21.6979308,2.38768021 23.4492927,2.58021347 24.4738835,3.60553883 L25.0932553,4.22491076 C26.1320812,5.26446417 26.3209205,6.98476233 25.5318485,8.22473273 L24.5856043,9.71178951 L25.0080133,10.7386095 L26.7317673,11.121913 L26.7313386,11.1218178 C28.1666785,11.4404589 29.25,12.7904935 29.25,14.2609848 L29.25,15.1359848 C29.25,16.606306 28.1663982,17.9566373 26.7311909,18.2750875 L25.0083134,18.6579903 Z" id="Fill-376" stroke="#01B6C3" stroke-width="2.5"></path>
                                <g id="Fill-376">
                                    <use fill="black" fill-opacity="1" filter="url(#filter-12)" xlink:href="#path-11"></use>
                                    <use fill="#546670" fill-rule="evenodd" xlink:href="#path-11"></use>
                                </g>
                                <path d="M8.65270592,24.1588987 C8.71245659,24.1206765 8.85172838,24.0798183 9.01692142,24.0798183 C9.15267846,24.0798183 9.25328805,24.1066178 9.29766171,24.1303419 C9.3209469,24.1417646 9.34423209,24.1531873 9.36839597,24.1628527 L10.7378287,24.726959 C10.7597958,24.7357457 10.781763,24.7436537 10.8041695,24.7506831 C10.9671658,24.802964 11.2044111,25.0634897 11.2417553,25.2308764 L11.6960361,27.2737848 C11.8884685,28.140593 12.7346434,28.8198052 13.6229953,28.8198052 L14.5016817,28.8198052 C15.3895943,28.8198052 16.2357692,28.140593 16.4286409,27.2737848 L16.8829217,25.2308764 C16.9198266,25.0634897 17.1575112,24.802964 17.3205076,24.7506831 C17.3429141,24.7436537 17.3648812,24.7357457 17.386409,24.726959 L18.7558417,24.1628527 C18.7800056,24.1531873 18.8037301,24.1417646 18.826576,24.1303419 C18.871389,24.1066178 18.9719986,24.0798183 19.1068769,24.0798183 C19.27207,24.0798183 19.4117811,24.1206765 19.4706531,24.1588987 L21.2368127,25.2818393 C21.9696371,25.7492919 23.0798573,25.6253994 23.6927411,25.0129662 L24.3139723,24.3917463 C24.9417937,23.7639364 25.0604164,22.6849293 24.583729,21.9354235 L23.4598892,20.1697356 C23.3680665,20.0256337 23.3526894,19.6768016 23.4317712,19.5256703 C23.4436335,19.5023855 23.4546171,19.4791008 23.4642826,19.4553767 L24.0279599,18.0850904 C24.0371861,18.0635629 24.0455336,18.0415962 24.0521238,18.0191901 C24.1044056,17.8557574 24.3649361,17.6185164 24.5327652,17.581173 L26.5748323,17.1273398 C27.4420958,16.934911 28.1213203,16.0883121 28.1213203,15.2004158 L28.1213203,14.3217456 C28.1213203,13.4334099 27.4420958,12.5872504 26.5752717,12.3948216 L24.5323259,11.9405491 C24.3649361,11.9036449 24.1044056,11.666404 24.0521238,11.5029713 C24.0455336,11.4805652 24.0371861,11.4585984 24.0279599,11.437071 L23.4642826,10.0672241 C23.4546171,10.0435 23.4436335,10.0197759 23.4317712,9.99693044 C23.3526894,9.84535981 23.3680665,9.49608838 23.4598892,9.35242579 L24.583729,7.58629853 C25.0604164,6.83723211 24.8938334,5.80662471 24.2664513,5.17881479 L23.685951,4.59832021 L16.9748737,11.3093975 C17.7705242,12.1050335 18.4557703,13.5498337 18.4557703,14.7610807 C18.4557703,17.1835746 16.4844375,19.1544321 14.0623385,19.1544321 C12.8510694,19.1544321 11.5345179,18.3406004 10.7388674,17.5454038 L3.85162053,24.4326507 L4.43193597,25.0129662 C5.04394103,25.6245207 6.15240387,25.7492919 6.88786436,25.2822786 L8.65270592,24.1588987 Z" id="Fill-377" fill="#30404D"></path>
                            </g>
                            <circle id="Oval" fill="#01B6C3" fill-rule="nonzero" cx="20" cy="21" r="5"></circle>
                            <g id="Group-11" stroke-width="1" fill="none" fill-rule="evenodd" transform="translate(15.000000, 16.000000)">
                                <path d="M5,10 C7.762,10 10,7.762 10,5 C10,2.238 7.762,0 5,0 C2.239,0 0,2.238 0,5 C0,7.762 2.239,10 5,10 Z" id="Stroke-4" stroke="#30404D"></path>
                                <g id="Group-8" transform="translate(5.000000, 0.000000)">
                                    <mask id="mask-14" fill="white">
                                        <use xlink:href="#path-13"></use>
                                    </mask>
                                    <g id="Clip-7"></g>
                                </g>
                                <path d="M5,10 C7.762,10 10,7.762 10,5 C10,2.238 7.762,0 5,0" id="Stroke-9" stroke="#546670"></path>
                            </g>
                        </g>
                    </g>
                </g>
                <g id="Dynamic-Border" stroke="#1D8E96" stroke-width="4">
                    <rect id="Azure-Border" x="2" y="2" width="96" height="96" rx="48"></rect>
                </g>
            </g>
        </g>
    </g>
</svg>