<?xml version="1.0" encoding="UTF-8"?>
<svg width="100px" height="100px" viewBox="0 0 100 100" version="1.1" xmlns="http://www.w3.org/2000/svg" xmlns:xlink="http://www.w3.org/1999/xlink">
    <!-- Generator: Sketch 55.2 (78181) - https://sketchapp.com -->
    <title>Get started with Trade in Microsoft Dynamics 365 Business Central/work-with-trade-master-data-in-microsoft-dynamics-365-business-central</title>
    <desc>Created with Sketch.</desc>
    <defs>
        <rect id="path-1" x="0" y="0" width="96" height="96" rx="48"></rect>
        <polygon id="path-3" points="0 1.94054016 0 12.5331327 5.77777778 12.5331327 5.77777778 1.94054016"></polygon>
        <filter x="-17.3%" y="-9.4%" width="134.6%" height="137.8%" filterUnits="objectBoundingBox" id="filter-4">
            <feOffset dx="0" dy="2" in="SourceAlpha" result="shadowOffsetOuter1"></feOffset>
            <feColorMatrix values="0 0 0 0 0   0 0 0 0 0   0 0 0 0 0  0 0 0 0.0975743007 0" type="matrix" in="shadowOffsetOuter1"></feColorMatrix>
        </filter>
        <polygon id="path-5" points="5.77777778 5.77777778 0 5.77777778 0 12.7592593 5.77777778 12.7592593"></polygon>
        <filter x="-17.3%" y="-14.3%" width="134.6%" height="157.3%" filterUnits="objectBoundingBox" id="filter-6">
            <feOffset dx="0" dy="2" in="SourceAlpha" result="shadowOffsetOuter1"></feOffset>
            <feColorMatrix values="0 0 0 0 0   0 0 0 0 0   0 0 0 0 0  0 0 0 0.0975743007 0" type="matrix" in="shadowOffsetOuter1"></feColorMatrix>
        </filter>
        <polygon id="path-7" points="0 2.42202164 0 11.0886883 5.77777778 11.0886883 5.77777778 2.42202164"></polygon>
        <filter x="-17.3%" y="-11.5%" width="134.6%" height="146.2%" filterUnits="objectBoundingBox" id="filter-8">
            <feOffset dx="0" dy="2" in="SourceAlpha" result="shadowOffsetOuter1"></feOffset>
            <feColorMatrix values="0 0 0 0 0   0 0 0 0 0   0 0 0 0 0  0 0 0 0.0975743007 0" type="matrix" in="shadowOffsetOuter1"></feColorMatrix>
        </filter>
        <polygon id="path-9" points="0 3.86646608 0 14.9405402 5.77777778 14.9405402 5.77777778 3.86646608"></polygon>
        <filter x="-17.3%" y="-9.0%" width="134.6%" height="136.1%" filterUnits="objectBoundingBox" id="filter-10">
            <feOffset dx="0" dy="2" in="SourceAlpha" result="shadowOffsetOuter1"></feOffset>
            <feColorMatrix values="0 0 0 0 0   0 0 0 0 0   0 0 0 0 0  0 0 0 0.0975743007 0" type="matrix" in="shadowOffsetOuter1"></feColorMatrix>
        </filter>
    </defs>
    <g id="Badges" stroke="none" stroke-width="1" fill="none" fill-rule="evenodd">
        <g id="Get-started-with-Trade-in-Microsoft-Dynamics-365-Business-Central" transform="translate(-50.000000, -460.000000)">
            <g id="Get-started-with-Trade-in-Microsoft-Dynamics-365-Business-Central/work-with-trade-master-data-in-microsoft-dynamics-365-business-central" transform="translate(50.000000, 460.000000)">
                <g id="Mask" transform="translate(2.000000, 2.000000)">
                    <mask id="mask-2" fill="white">
                        <use xlink:href="#path-1"></use>
                    </mask>
                    <use id="BG" fill="#01B6C3" xlink:href="#path-1"></use>
                    <g id="Group-19" mask="url(#mask-2)">
                        <g transform="translate(19.305556, 16.000000)">
                            <path d="M19,0 L4,0 C1.8,0 0,1.8 0,4 L0,18 L58,18 L58,10 C58,7.8 56.2,6 54,6 L24,6 L19,0" id="Fill-1" fill="#CC9547"></path>
                            <path d="M53,16 C53,17.1 52.1,18 51,18 L8,18 C6.9,18 6,17.1 6,16 L6,12 C6,10.9 6.9,10 8,10 L51,10 C52.1,10 53,10.9 53,12 L53,16" id="Fill-2" fill="#FFFFFE"></path>
                            <path d="M58,42 C58,44.2 56.2,46 54,46 L4,46 C1.8,46 0,44.2 0,42 L0,17 C0,14.8 1.8,13 4,13 L54,13 C56.2,13 58,14.8 58,17 L58,42" id="Fill-3" fill="#EFB252"></path>
                            <path d="M54,44 L4,44 C1.8,44 0,42.2 0,40 L0,42 C0,44.2 1.8,46 4,46 L54,46 C56.2,46 58,44.2 58,42 L58,40 C58,42.2 56.2,44 54,44" id="Fill-4" fill="#CC9547"></path>
                            <path d="M50,57 L32,57 L32,46 L26,46 L26,57 L8,57 C6.9,57 6,57.895 6,59 C6,60.104 6.9,61 8,61 L50,61 C51.1,61 52,60.104 52,59 C52,57.895 51.1,57 50,57" id="Fill-5" fill="#182A37"></path>
                            <path d="M26,46 L26,47 L28,47 C28.55,47 29,47.448 29,48 L29,54 L32,54 L32,46 L26,46" id="Fill-6" fill="#12202B"></path>
                            <path d="M6,59 C6,60.104 6.9,61 8,61 L50,61 C51.1,61 52,60.104 52,59 L52,58.999 L6,58.999 L6,59" id="Fill-7" fill="#12202B"></path>
                            <path d="M37,63 C37,63.55 36.55,64 36,64 L22,64 C21.45,64 21,63.55 21,63 L21,55 C21,54.45 21.45,54 22,54 L36,54 C36.55,54 37,54.45 37,55 L37,63" id="Fill-8" fill="#30404D"></path>
                            <path d="M36,54 L29,54 L29,59.999 C29,61.104 28.1,61.999 27,61.999 L21,61.999 L21,63 C21,63.55 21.45,64 22,64 L36,64 C36.55,64 37,63.55 37,63 L37,55 C37,54.45 36.55,54 36,54" id="Fill-9" fill="#182A37"></path>
                            <polygon id="Fill-10" fill="#E1E4E1" points="6 13 53 13 53 12 6 12"></polygon>
                        </g>
                    </g>
                    <g id="Group" style="mix-blend-mode: luminosity;" mask="url(#mask-2)">
                        <g transform="translate(29.805556, 32.000000)">
                            <g id="4" transform="translate(27.444444, 0.000000)">
                                <polygon id="Path" fill="#3E5162" points="4.33333333 20.3540524 4.33333333 21.3032342 1.44444444 21.3032342 1.44444444 20.3540524 2.414298 20.3540524 2.414298 1.04196888 1.44444444 1.04196888 1.44444444 0.0927870951 4.33333333 0.0927870951 4.33333333 1.04196888 3.36347978 1.04196888 3.36347978 20.3540524"></polygon>
                                <g id="Fill-860">
                                    <use fill="black" fill-opacity="1" filter="url(#filter-4)" xlink:href="#path-3"></use>
                                    <use fill="#7CB65A" fill-rule="evenodd" xlink:href="#path-3"></use>
                                </g>
                                <polyline id="Fill-862" fill="#69994E" points="2.88888889 1.94054016 2.88888889 12.5331327 5.77777778 12.5331327 5.77777778 1.94054016"></polyline>
                            </g>
                            <g id="3" transform="translate(19.259259, 9.401097)">
                                <polygon id="Path" fill="#3E5162" points="4.33333333 13.7392351 4.33333333 14.6884169 1.44444444 14.6884169 1.44444444 13.7392351 2.414298 13.7392351 2.414298 1.1678923 1.44444444 1.1678923 1.44444444 0.218710515 4.33333333 0.218710515 4.33333333 1.1678923 3.36347978 1.1678923 3.36347978 13.7392351"></polygon>
                                <g id="Fill-859">
                                    <use fill="black" fill-opacity="1" filter="url(#filter-6)" xlink:href="#path-5"></use>
                                    <use fill="#DF5142" fill-rule="evenodd" xlink:href="#path-5"></use>
                                </g>
                                <polyline id="Fill-863" fill="#C2423D" points="2.88888889 5.77777778 2.88888889 12.7592593 5.77777778 12.7592593 5.77777778 5.77777778"></polyline>
                            </g>
                            <g id="2" transform="translate(11.074074, 3.851852)">
                                <polygon id="Path" fill="#3E5162" points="4.33333333 15.5392376 4.33333333 16.4884194 1.44444444 16.4884194 1.44444444 15.5392376 2.414298 15.5392376 2.414298 1.04196888 1.44444444 1.04196888 1.44444444 0.0927870951 4.33333333 0.0927870951 4.33333333 1.04196888 3.36347978 1.04196888 3.36347978 15.5392376"></polygon>
                                <g id="Fill-860">
                                    <use fill="black" fill-opacity="1" filter="url(#filter-8)" xlink:href="#path-7"></use>
                                    <use fill="#7CB65A" fill-rule="evenodd" xlink:href="#path-7"></use>
                                </g>
                                <polyline id="Fill-862" fill="#69994E" points="2.88888889 2.42202164 2.88888889 11.0886883 5.77777778 11.0886883 5.77777778 2.42202164"></polyline>
                            </g>
                            <g id="1" transform="translate(2.888889, 6.206922)">
                                <polygon id="Path" fill="#3E5162" points="4.33333333 18.5127636 4.33333333 19.4619454 1.44444444 19.4619454 1.44444444 18.5127636 2.414298 18.5127636 2.414298 1.12660604 1.44444444 1.12660604 1.44444444 0.177424257 4.33333333 0.177424257 4.33333333 1.12660604 3.36347978 1.12660604 3.36347978 18.5127636"></polygon>
                                <g id="Fill-860">
                                    <use fill="black" fill-opacity="1" filter="url(#filter-10)" xlink:href="#path-9"></use>
                                    <use fill="#7CB65A" fill-rule="evenodd" xlink:href="#path-9"></use>
                                </g>
                                <polyline id="Fill-862" fill="#69994E" points="2.88888889 3.86646608 2.88888889 14.9405402 5.77777778 14.9405402 5.77777778 3.86646608"></polyline>
                            </g>
                        </g>
                    </g>
                </g>
                <g id="Dynamic-Border" stroke="#1D8E96" stroke-width="4">
                    <rect id="Azure-Border" x="2" y="2" width="96" height="96" rx="48"></rect>
                </g>
            </g>
        </g>
    </g>
</svg>