<?xml version="1.0" encoding="UTF-8"?>
<svg width="100px" height="118px" viewBox="0 0 100 118" version="1.1" xmlns="http://www.w3.org/2000/svg" xmlns:xlink="http://www.w3.org/1999/xlink">
    <!-- Generator: Sketch 55.2 (78181) - https://sketchapp.com -->
    <title>Use cost accounting in Microsoft Dynamics 365 Business Central/use-cost-accounting-in-microsoft-dynamics-365-business-central</title>
    <desc>Created with Sketch.</desc>
    <defs>
        <path d="M42.7425,1.49663266 C44.3745,0.498877554 46.1865,0 48,0 C49.8135,0 51.627,0.498877554 53.256,1.49663266 L90.591,24.3316189 C93.933,26.3773408 96,30.2031485 96,34.3529027 L96,79.6470973 C96,83.7952317 93.933,87.6242789 90.591,89.6683811 L53.256,112.504987 C51.627,113.501122 49.8135,114 48,114 C46.1865,114 44.3745,113.501122 42.7425,112.504987 L5.409,89.6683811 C2.0655,87.6242789 0,83.7952317 0,79.6470973 L0,34.3529027 C0,30.2031485 2.0655,26.3773408 5.409,24.3316189 L42.7425,1.49663266 Z" id="path-1"></path>
        <filter x="-8.2%" y="-6.2%" width="116.3%" height="112.5%" filterUnits="objectBoundingBox" id="filter-3">
            <feOffset dx="0" dy="2" in="SourceAlpha" result="shadowOffsetOuter1"></feOffset>
            <feColorMatrix values="0 0 0 0 0   0 0 0 0 0   0 0 0 0 0  0 0 0 0.100288723 0" type="matrix" in="shadowOffsetOuter1" result="shadowMatrixOuter1"></feColorMatrix>
            <feMerge>
                <feMergeNode in="shadowMatrixOuter1"></feMergeNode>
                <feMergeNode in="SourceGraphic"></feMergeNode>
            </feMerge>
        </filter>
        <polygon id="path-4" points="0.001 0.04 20.001 0.04 20.001 12 0.001 12"></polygon>
        <path d="M0.409375809,10.4319809 C2.67612002,10.4319809 4.51215821,8.20847866 4.51215821,5.46437093 L4.51215821,5.46437093 C4.51215821,2.7202632 2.67612002,0.496760994 0.409375809,0.496760994 L0.409375809,0.496760994 L0.409375809,10.4319809 Z" id="path-6"></path>
        <circle id="path-8" cx="7" cy="7" r="7"></circle>
        <filter x="-3.6%" y="-3.6%" width="107.1%" height="107.1%" filterUnits="objectBoundingBox" id="filter-9">
            <feOffset dx="0" dy="1" in="SourceAlpha" result="shadowOffsetInner1"></feOffset>
            <feComposite in="shadowOffsetInner1" in2="SourceAlpha" operator="arithmetic" k2="-1" k3="1" result="shadowInnerInner1"></feComposite>
            <feColorMatrix values="0 0 0 0 0   0 0 0 0 0   0 0 0 0 0  0 0 0 0.1 0" type="matrix" in="shadowInnerInner1"></feColorMatrix>
        </filter>
    </defs>
    <g id="Badges" stroke="none" stroke-width="1" fill="none" fill-rule="evenodd">
        <g id="Use-cost-accounting-in-Microsoft-Dynamics-365-Business-Central" transform="translate(-50.000000, -50.000000)">
            <g id="Use-cost-accounting-in-Microsoft-Dynamics-365-Business-Central/use-cost-accounting-in-microsoft-dynamics-365-business-central" transform="translate(50.000000, 50.000000)">
                <g id="Mask" transform="translate(2.000000, 2.000000)">
                    <mask id="mask-2" fill="white">
                        <use xlink:href="#path-1"></use>
                    </mask>
                    <use id="Trophy-1" fill="#01B6C3" xlink:href="#path-1"></use>
                    <g id="Clipboard" mask="url(#mask-2)">
                        <g transform="translate(24.000000, 19.000000)">
                            <g id="Clipboard">
                                <g id="Mask">
                                    <g id="Group-4" filter="url(#filter-3)">
                                        <path d="M4.001,64 C1.801,64 0.001,62.2 0.001,60 L0.001,10 C0.001,7.8 1.801,6 4.001,6 L44.001,6 C46.201,6 48.001,7.8 48.001,10 L48.001,60 C48.001,62.2 46.201,64 44.001,64 L4.001,64" id="Fill-18" fill="#30404D"></path>
                                        <path d="M44.001,6 L24.001,6 L24.001,64 L44.001,64 C46.201,64 48.001,62.2 48.001,60 L48.001,10 C48.001,7.8 46.201,6 44.001,6" id="Fill-19" fill="#182A37"></path>
                                        <path d="M3.001,59 L3.001,11 C3.001,9.899 3.901,9 5.001,9 L43.001,9 C44.101,9 45.001,9.899 45.001,11 L45.001,59 C45.001,60.101 44.101,61 43.001,61 L5.001,61 C3.901,61 3.001,60.101 3.001,59 Z" id="Fill-20" fill="#FFFFFE"></path>
                                        <g id="Group-25" transform="translate(14.000000, 0.000000)">
                                            <mask id="mask-5" fill="white">
                                                <use xlink:href="#path-4"></use>
                                            </mask>
                                            <g id="Clip-23"></g>
                                            <path d="M19.001,11 L1.001,11 C0.451,11 0.001,10.55 0.001,10 L0.001,11 C0.001,11.55 0.451,12 1.001,12 L19.001,12 C19.551,12 20.001,11.55 20.001,11 L20.001,10 C20.001,10.55 19.551,11 19.001,11" id="Fill-22" fill="#546670" mask="url(#mask-5)"></path>
                                            <path d="M10.001,2 C11.104,2 12.001,2.897 12.001,4 L8.001,4 C8.001,2.897 8.897,2 10.001,2 Z M19.001,4 L14.001,4 C14.001,1.791 12.21,0 10.001,0 C7.792,0 6.001,1.791 6.001,4 L1.001,4 C0.451,4 0.001,4.45 0.001,5 L0.001,10 C0.001,10.55 0.451,11 1.001,11 L19.001,11 C19.551,11 20.001,10.55 20.001,10 L20.001,5 C20.001,4.45 19.551,4 19.001,4 L19.001,4 Z" id="Fill-24" fill="#ADBDC4" mask="url(#mask-5)"></path>
                                        </g>
                                        <polygon id="Fill-26" fill="#182A37" points="13.001 9 14.001 9 14.001 6 13.001 6"></polygon>
                                        <path d="M34.001,10 L34.001,5 C34.001,4.45 33.551,4 33.001,4 L29.001,4 L26.001,11 L33.001,11 C33.551,11 34.001,10.55 34.001,10" id="Fill-33" fill="#8BA6B1"></path>
                                        <path d="M24.686,0.069 L23.852,2.015 C23.902,2.011 23.95,2 24.001,2 C25.104,2 26.001,2.897 26.001,4 L23.001,4 L20.001,11 L24.001,11 L27.676,2.424 C27.151,1.202 26.033,0.303 24.686,0.069" id="Fill-34" fill="#8BA6B1"></path>
                                    </g>
                                </g>
                            </g>
                            <g id="Lines" transform="translate(25.000000, 18.000000)">
                                <rect id="Rectangle" fill="#E1E4E1" fill-rule="nonzero" x="0" y="0" width="17" height="2" rx="1"></rect>
                                <rect id="Rectangle" fill="#E1E4E1" fill-rule="nonzero" x="0" y="5" width="17" height="2" rx="1"></rect>
                            </g>
                            <g id="Pie-Chart" transform="translate(8.000000, 47.000000)">
                                <circle id="Oval" fill="#55B7D9" fill-rule="nonzero" cx="6" cy="6" r="6"></circle>
                                <path d="M6,0.021376866 C6.16086833,0.00722561873 6.32372429,-3.15303339e-14 6.48826788,-3.15303339e-14 C9.52583401,-3.15303339e-14 11.9882679,2.46243388 11.9882679,5.5 C11.9882679,5.50571981 11.9882592,5.51143758 11.9882417,5.51715329 L6,5.51715329 L6,0.021376866 Z" id="Combined-Shape" fill="#0095B2" fill-rule="nonzero"></path>
                            </g>
                            <g id="Graph" transform="translate(9.000000, 31.000000)">
                                <rect id="Blue" fill="#55B7D9" fill-rule="nonzero" x="0" y="0" width="3" height="13"></rect>
                                <rect id="Red" fill="#DF5142" fill-rule="nonzero" x="4" y="6" width="3" height="7"></rect>
                                <rect id="Green" fill="#7CB65A" fill-rule="nonzero" x="8" y="3" width="3" height="10"></rect>
                            </g>
                            <g id="Coin-Money" transform="translate(6.000000, 13.000000)">
                                <path d="M8,0 C3.58175,0 0,3.58175 0,8 C0,12.41825 3.58175,16 8,16 C12.41825,16 16,12.41825 16,8 C16,3.58175 12.41825,0 8,0" id="Fill-21" fill="#F7CB64"></path>
                                <path d="M6.53989474,15.8489677 L12.2666667,1.49650462 C11.6164439,1.0786747 10.9017009,0.752066426 10.1400113,0.533333333 L4.38371526,15.1376209 C5.203314,15.5198403 5.92204049,15.7569558 6.53989474,15.8489677 Z" id="Fill-22" fill="#F2BE53"></path>
                                <path d="M8.203204,16 C12.5092282,16 16,12.4479218 16,8.06627332 C16,5.70549377 14.9854419,3.58669289 13.3771091,2.13333333 L8,15.9947935 C8.06773467,15.996529 8.13498203,16 8.203204,16" id="Fill-23" fill="#F2BE53"></path>
                                <path d="M8,2.05714286 C4.72300952,2.05714286 2.05714286,4.72300952 2.05714286,8 C2.05714286,11.2769905 4.72300952,13.9428571 8,13.9428571 C11.2769905,13.9428571 13.9428571,11.2769905 13.9428571,8 C13.9428571,4.72300952 11.2769905,2.05714286 8,2.05714286 Z M8,14.9333333 C4.1767619,14.9333333 1.06666667,11.8229905 1.06666667,8 C1.06666667,4.1767619 4.1767619,1.06666667 8,1.06666667 C11.8232381,1.06666667 14.9333333,4.1767619 14.9333333,8 C14.9333333,11.8229905 11.8232381,14.9333333 8,14.9333333 L8,14.9333333 Z" id="Fill-24" fill="#EFB252"></path>
                            </g>
                        </g>
                    </g>
                    <g id="Gear" mask="url(#mask-2)">
                        <g transform="translate(37.000000, 51.000000)">
                            <circle id="Oval" fill="#01B6C3" fill-rule="nonzero" cx="26.3414634" cy="26.3414634" r="5.26829268"></circle>
                            <g id="Gear-1" stroke-width="1" fill="none" fill-rule="evenodd" transform="translate(27.062374, 26.279912) rotate(-45.000000) translate(-27.062374, -26.279912) translate(8.623350, 7.840887)">
                                <path d="M22.4447398,18.3199167 C22.4447398,15.8709739 20.3931549,13.8669985 17.8626589,13.8669985 C15.3318124,13.8669985 13.280578,15.8707698 13.280578,18.3199167 C13.280578,20.7690636 15.3318124,22.7728349 17.8626589,22.7728349 C20.3931549,22.7728349 22.4447398,20.7688595 22.4447398,18.3199167 Z M31.4911499,22.7186177 C31.4763521,22.7611648 31.4607852,22.8004282 31.4461149,22.8336835 L30.7312608,24.5312826 C30.7233042,24.5503604 30.7151073,24.5691437 30.7064271,24.5881656 L32.0686655,26.6789222 C32.9349806,28.0095545 32.725021,29.876581 31.5866688,30.988593 L30.7971061,31.7598861 C29.687364,32.843173 27.769713,33.0494945 26.4505772,32.2275005 L24.1986076,30.8287304 C24.2905698,30.8870556 24.2864698,30.8861015 24.2720042,30.8861015 C24.2702337,30.8861015 24.2754644,30.8849121 24.2925497,30.8775083 C24.2684399,30.8883774 24.235522,30.9027582 24.1993075,30.9168677 L22.4564259,31.6182028 C22.4207667,31.6324208 22.3847006,31.6456494 22.3500895,31.6573166 C22.4144815,31.6430028 22.3982705,31.63926 22.4214118,31.536721 L21.8441947,34.0724591 C21.4946506,35.6070672 20.0120267,36.769255 18.420867,36.769255 L17.3044508,36.769255 C15.7126489,36.769255 14.2298375,35.6069202 13.8810932,34.0723279 L13.304376,31.5387847 C13.3268653,31.6379077 13.3118665,31.6431507 13.3508768,31.6535026 C13.3488998,31.6484254 13.3182246,31.6370991 13.2653867,31.6170224 L11.5348166,30.9205813 C11.4926641,30.9041104 11.4562001,30.8881637 11.4043713,30.8634783 C11.4492394,30.8850183 11.4539077,30.8861015 11.4521972,30.8861015 C11.4364041,30.8861015 11.4314099,30.8872637 11.5174957,30.8334654 L9.27425237,32.2283489 C7.95140994,33.0489248 6.03690572,32.8421488 4.92795519,31.7596357 L4.13809075,30.9880478 C2.99953749,29.8758393 2.78974872,28.008452 3.65674534,26.6787793 L5.01846478,24.5880024 C5.01019761,24.569899 5.00231984,24.5518767 4.99487013,24.5340091 L4.27757164,22.8311255 C4.25963169,22.7873343 4.24742136,22.7563966 4.23676221,22.7267482 C4.25115116,22.7922341 4.25477178,22.777276 4.34641276,22.7970698 L1.75173941,22.2341202 C0.194586989,21.8962645 -1,20.4414999 -1,18.8652085 L-1,17.7746249 C-1,16.1979758 0.194340835,14.7437981 1.75241278,14.405143 L4.34703914,13.8425067 C4.25583079,13.8623321 4.25131151,13.8476481 4.24136944,13.8846663 C4.24785881,13.8823517 4.26025413,13.8510035 4.27868915,13.8060442 L4.99349878,12.1090961 C5.00166391,12.0895181 5.00998466,12.0705122 5.01873278,12.0514254 L3.65679858,9.96113582 C2.79029071,8.63098768 2.99976092,6.76455394 4.13834358,5.65153874 L4.92769882,4.88099352 C6.03632652,3.79724126 7.95313749,3.59119009 9.27427714,4.41239168 L11.5183484,5.80655113 C11.4314551,5.75247769 11.4368202,5.75373187 11.4521972,5.75373187 C11.4545317,5.75373187 11.4491871,5.7549858 11.424672,5.76615769 C11.4424542,5.75704268 11.4853134,5.73861114 11.5254521,5.72296569 L13.2747512,5.01909739 C13.3171886,5.0026536 13.3507411,4.99024528 13.3792768,4.98067202 C13.3115273,4.9964807 13.3273196,5.00011424 13.3044943,5.10107216 L13.8810379,2.56720317 C14.2299298,1.03273963 15.7128126,-0.129421591 17.3044508,-0.129421591 L18.420867,-0.129421591 C20.012073,-0.129421591 21.4952179,1.03280633 21.8448189,2.56766419 L22.4219429,5.10491331 C22.3989288,5.00267572 22.4142071,4.99718748 22.3677744,4.98450939 C22.377109,4.99115907 22.4120678,5.00424509 22.4593729,5.02281099 L24.189943,5.71925209 C24.2205164,5.73119846 24.2497139,5.74323824 24.2767613,5.75510715 C24.2846956,5.75562118 24.2733609,5.76370263 24.2065264,5.80613242 L26.4508431,4.41196916 C27.7723725,3.59052535 29.6885936,3.7963078 30.7973626,4.8801977 L31.5874773,5.65203019 C32.7251645,6.76417092 32.9349017,8.63063491 32.0685369,9.96056329 L30.7063349,12.0517806 C30.7145993,12.069971 30.7224729,12.088036 30.7298894,12.1058243 L31.4402386,13.7924802 C31.4590824,13.8354315 31.4761765,13.8783487 31.4893772,13.9155554 C31.4731368,13.8462992 31.4698235,13.8617959 31.3758592,13.8415587 L31.377586,13.8419322 L33.9729175,14.405691 C35.5307141,14.7435151 36.7253178,16.1977824 36.7253178,17.7746249 L36.7253178,18.8652085 C36.7253178,20.4418241 35.5303805,21.8964408 33.9725865,22.2340931 L31.3782786,22.7973267 C31.4706787,22.7772422 31.4736606,22.7928409 31.4857851,22.7473967 Z" id="Fill-376" stroke="#01B6C3" stroke-width="2" fill="#546670"></path>
                                <path d="M11.0400239,30.1111997 C11.11626,30.0635603 11.2939575,30.0126354 11.504728,30.0126354 C11.677941,30.0126354 11.8063091,30.0460377 11.8629257,30.075607 C11.8926354,30.0898441 11.922345,30.1040811 11.9531758,30.1161279 L13.7004408,30.8192194 C13.7284688,30.830171 13.7564967,30.8400274 13.7850853,30.8487887 C13.993053,30.9139506 14.2957553,31.238665 14.3434029,31.4472927 L14.9230217,33.9935355 C15.1685469,35.0739091 16.2481851,35.9204664 17.3816371,35.9204664 L18.5027567,35.9204664 C19.6356481,35.9204664 20.7152863,35.0739091 20.961372,33.9935355 L21.5409909,31.4472927 C21.5880779,31.238665 21.8913408,30.9139506 22.0993085,30.8487887 C22.127897,30.8400274 22.155925,30.830171 22.1833924,30.8192194 L23.9306574,30.1161279 C23.9614882,30.1040811 23.9917584,30.0898441 24.0209075,30.075607 C24.0780846,30.0460377 24.2064528,30.0126354 24.3785447,30.0126354 C24.5893151,30.0126354 24.7675732,30.0635603 24.8426882,30.1111997 L27.0961386,31.5108118 C28.0311524,32.093436 29.4476871,31.9390187 30.229668,31.1756934 L31.0222996,30.4014166 C31.8233395,29.618926 31.9746907,28.2740718 31.3664833,27.3399018 L29.9325713,25.1391814 C29.8154143,24.9595754 29.7957947,24.5247976 29.8966955,24.3364304 C29.9118306,24.3074087 29.9258446,24.278387 29.9381769,24.2488178 L30.6573751,22.5409185 C30.6691469,22.5140872 30.6797975,22.4867082 30.6882059,22.4587817 C30.7549125,22.2550822 31.0873245,21.9593895 31.3014584,21.9128453 L33.9069404,21.3471961 C35.0134854,21.1073564 35.8801109,20.0521715 35.8801109,18.9455141 L35.8801109,17.8503559 C35.8801109,16.743151 35.0134854,15.6885136 33.9075009,15.448674 L31.3008978,14.8824772 C31.0873245,14.8364805 30.7549125,14.5407878 30.6882059,14.3370884 C30.6797975,14.3091618 30.6691469,14.2817829 30.6573751,14.2549515 L29.9381769,12.5475999 C29.9258446,12.5180306 29.9118306,12.4884613 29.8966955,12.4599872 C29.7957947,12.2710724 29.8154143,11.835747 29.9325713,11.6566887 L31.3664833,9.45542066 C31.9746907,8.52179829 31.7621467,7.23726848 30.9616673,6.45477794 L30.2210046,5.73126035 L21.6583128,14.0958216 C22.6734866,15.0874874 23.547795,16.8882594 23.547795,18.397935 C23.547795,21.4172862 21.0325631,23.8737261 17.9421969,23.8737261 C16.3967335,23.8737261 14.7169399,22.8593815 13.7017661,21.8682633 L4.91429883,30.4523991 L5.65472575,31.1756934 C6.43558557,31.9379236 7.84987798,32.093436 8.78825511,31.5113594 L11.0400239,30.1111997 Z" id="Fill-377" fill="#30404D"></path>
                            </g>
                            <g id="Gear-2" stroke-width="1" fill="none" fill-rule="evenodd" transform="translate(21.073171, 21.073171)">
                                <path d="M5.63612393,10.4454486 C8.74951879,10.4454486 11.2722479,8.10775721 11.2722479,5.2227243 C11.2722479,2.3376914 8.74951879,0 5.63612393,0 C2.5238563,0 0,2.3376914 0,5.2227243 C0,8.10775721 2.5238563,10.4454486 5.63612393,10.4454486 Z" id="Stroke-4" stroke="#30404D"></path>
                                <g id="Group-8" transform="translate(6.148499, 0.000000)">
                                    <mask id="mask-7" fill="white">
                                        <use xlink:href="#path-6"></use>
                                    </mask>
                                    <g id="Clip-7"></g>
                                    <polygon id="Stroke-6" stroke="#C4C4C4" mask="url(#mask-7)" points="-7.79372782 15.3995908 8.61412022 15.3995908 8.61412022 -4.47084894 -7.79372782 -4.47084894"></polygon>
                                </g>
                                <path d="M5.12374903,10.4454486 C7.95410799,10.4454486 10.2474981,8.10775721 10.2474981,5.2227243 C10.2474981,2.3376914 7.95410799,0 5.12374903,0" id="Stroke-9" stroke="#546670"></path>
                            </g>
                        </g>
                    </g>
                    <g id="dynamics" mask="url(#mask-2)">
                        <g transform="translate(56.000000, 70.000000)">
                            <g id="Oval" fill-rule="nonzero">
                                <use fill="#01B6C3" xlink:href="#path-8"></use>
                                <use fill="black" fill-opacity="1" filter="url(#filter-9)" xlink:href="#path-8"></use>
                            </g>
                            <g id="Dynamics-icon" stroke-width="1" fill-rule="evenodd" transform="translate(4.200000, 2.800000)">
                                <polygon id="Path" fill="#FFFFFF" points="0 8.86666667 1.86666667 3.92787347 0 2.8"></polygon>
                                <polygon id="Path" fill="#FFFFFF" points="5.6 5.70352279 5.6 2.8 0 8.86666667"></polygon>
                                <polygon id="Path" fill="#FFFFFF" points="0 0 0 2.15055291 3.50449281 3.73333333 5.13333333 2.51324291"></polygon>
                            </g>
                        </g>
                    </g>
                </g>
                <g id="Dynamic-Hex" stroke="#1D8E96" stroke-width="4">
                    <path d="M45.5618501,3.25844398 L45.5621963,3.25823359 L6.67338401,26.8942953 C3.79673288,28.6432593 2,31.9508238 2,35.5582677 L2,82.4417323 C2,86.0486597 3.79764663,89.3586805 6.67318764,91.1055853 L45.560618,114.742485 C46.9289662,115.572418 48.4546283,116 50,116 C51.5458817,116 53.0723633,115.572188 54.4362178,114.743457 L93.3268764,91.1055464 C96.2016145,89.3583456 98,86.0476286 98,82.4417323 L98,35.5582677 C98,31.9518547 96.202529,28.6435953 93.3268966,26.8944659 L54.4351916,3.25759524 C53.0721095,2.42798656 51.5462432,2 50,2 C48.4542664,2 46.9292165,2.42775755 45.5618501,3.25844398 Z" id="Azure-Hex-Border"></path>
                </g>
            </g>
        </g>
    </g>
</svg>