<?xml version="1.0" encoding="UTF-8"?>
<svg width="100px" height="118px" viewBox="0 0 100 118" version="1.1" xmlns="http://www.w3.org/2000/svg" xmlns:xlink="http://www.w3.org/1999/xlink">
    <!-- Generator: Sketch 55.2 (78181) - https://sketchapp.com -->
    <title>Use multiple currencies in Microsoft Dynamics 365 Business Central/use-multiple-currencies-in-microsoft-dynamics-365-business-central</title>
    <desc>Created with Sketch.</desc>
    <defs>
        <path d="M42.7425,1.49663266 C44.3745,0.498877554 46.1865,0 48,0 C49.8135,0 51.627,0.498877554 53.256,1.49663266 L90.591,24.3316189 C93.933,26.3773408 96,30.2031485 96,34.3529027 L96,79.6470973 C96,83.7952317 93.933,87.6242789 90.591,89.6683811 L53.256,112.504987 C51.627,113.501122 49.8135,114 48,114 C46.1865,114 44.3745,113.501122 42.7425,112.504987 L5.409,89.6683811 C2.0655,87.6242789 0,83.7952317 0,79.6470973 L0,34.3529027 C0,30.2031485 2.0655,26.3773408 5.409,24.3316189 L42.7425,1.49663266 Z" id="path-1"></path>
        <filter x="-21.1%" y="-20.0%" width="142.1%" height="140.0%" filterUnits="objectBoundingBox" id="filter-3">
            <feOffset dx="0" dy="2" in="SourceAlpha" result="shadowOffsetOuter1"></feOffset>
            <feColorMatrix values="0 0 0 0 0   0 0 0 0 0   0 0 0 0 0  0 0 0 0.0964956975 0" type="matrix" in="shadowOffsetOuter1" result="shadowMatrixOuter1"></feColorMatrix>
            <feMerge>
                <feMergeNode in="shadowMatrixOuter1"></feMergeNode>
                <feMergeNode in="SourceGraphic"></feMergeNode>
            </feMerge>
        </filter>
        <filter x="-21.1%" y="-20.0%" width="142.1%" height="140.0%" filterUnits="objectBoundingBox" id="filter-4">
            <feOffset dx="0" dy="2" in="SourceAlpha" result="shadowOffsetOuter1"></feOffset>
            <feColorMatrix values="0 0 0 0 0   0 0 0 0 0   0 0 0 0 0  0 0 0 0.0964956975 0" type="matrix" in="shadowOffsetOuter1" result="shadowMatrixOuter1"></feColorMatrix>
            <feMerge>
                <feMergeNode in="shadowMatrixOuter1"></feMergeNode>
                <feMergeNode in="SourceGraphic"></feMergeNode>
            </feMerge>
        </filter>
        <filter x="-21.1%" y="-20.0%" width="142.1%" height="140.0%" filterUnits="objectBoundingBox" id="filter-5">
            <feOffset dx="0" dy="2" in="SourceAlpha" result="shadowOffsetOuter1"></feOffset>
            <feColorMatrix values="0 0 0 0 0   0 0 0 0 0   0 0 0 0 0  0 0 0 0.0964956975 0" type="matrix" in="shadowOffsetOuter1" result="shadowMatrixOuter1"></feColorMatrix>
            <feMerge>
                <feMergeNode in="shadowMatrixOuter1"></feMergeNode>
                <feMergeNode in="SourceGraphic"></feMergeNode>
            </feMerge>
        </filter>
        <filter x="-5.4%" y="-11.1%" width="110.8%" height="122.2%" filterUnits="objectBoundingBox" id="filter-6">
            <feOffset dx="0" dy="2" in="SourceAlpha" result="shadowOffsetOuter1"></feOffset>
            <feColorMatrix values="0 0 0 0 0   0 0 0 0 0   0 0 0 0 0  0 0 0 0.099071558 0" type="matrix" in="shadowOffsetOuter1" result="shadowMatrixOuter1"></feColorMatrix>
            <feMerge>
                <feMergeNode in="shadowMatrixOuter1"></feMergeNode>
                <feMergeNode in="SourceGraphic"></feMergeNode>
            </feMerge>
        </filter>
    </defs>
    <g id="Badges" stroke="none" stroke-width="1" fill="none" fill-rule="evenodd">
        <g id="Use-multiple-currencies-in-Microsoft-Dynamics-365-Business-Central" transform="translate(-50.000000, -50.000000)">
            <g id="Use-multiple-currencies-in-Microsoft-Dynamics-365-Business-Central/use-multiple-currencies-in-microsoft-dynamics-365-business-central" transform="translate(50.000000, 50.000000)">
                <g id="Mask" transform="translate(2.000000, 2.000000)">
                    <mask id="mask-2" fill="white">
                        <use xlink:href="#path-1"></use>
                    </mask>
                    <use id="Trophy-1" fill="#01B6C3" xlink:href="#path-1"></use>
                    <g id="Coin-Money" filter="url(#filter-3)" mask="url(#mask-2)">
                        <g transform="translate(39.000000, 14.000000)">
                            <path d="M9.5,0 C4.25332813,0 0,4.25332812 0,9.5 C0,14.7466719 4.25332813,19 9.5,19 C14.7466719,19 19,14.7466719 19,9.5 C19,4.25332812 14.7466719,0 9.5,0" id="Fill-21" fill="#F7CB64"></path>
                            <path d="M5.9536862,18.0215794 C6.7278342,18.4245364 7.56552955,18.7164126 8.44841413,18.8772483 L14.9536862,1.99818041 C14.2221855,1.51191283 13.4180997,1.13180837 12.5611989,0.87724831 L5.9536862,18.0215794" id="Fill-22" fill="#F2BE53" transform="translate(10.453686, 9.877248) rotate(2.000000) translate(-10.453686, -9.877248) "></path>
                            <path d="M9.25400499,19 C14.6365353,19 19,14.9014482 19,9.84569998 C19,7.12172358 17.7318024,4.67695333 15.7213864,3 L9,18.9939925 C9.08466833,18.995995 9.16872754,19 9.25400499,19" id="Fill-23" fill="#F2BE53"></path>
                            <path d="M9.5,3.76470588 C6.33746324,3.76470588 3.76470588,6.33746324 3.76470588,9.5 C3.76470588,12.6625368 6.33746324,15.2352941 9.5,15.2352941 C12.6625368,15.2352941 15.2352941,12.6625368 15.2352941,9.5 C15.2352941,6.33746324 12.6625368,3.76470588 9.5,3.76470588 Z M9.5,17 C5.36428571,17 2,13.6354464 2,9.5 C2,5.36428571 5.36428571,2 9.5,2 C13.6357143,2 17,5.36428571 17,9.5 C17,13.6354464 13.6357143,17 9.5,17 L9.5,17 Z" id="Fill-24" fill="#EFB252"></path>
                        </g>
                    </g>
                    <g id="Coin-Money" filter="url(#filter-4)" mask="url(#mask-2)">
                        <g transform="translate(28.000000, 34.000000)">
                            <path d="M9.5,0 C4.25332813,0 0,4.25332812 0,9.5 C0,14.7466719 4.25332813,19 9.5,19 C14.7466719,19 19,14.7466719 19,9.5 C19,4.25332812 14.7466719,0 9.5,0" id="Fill-21" fill="#F7CB64"></path>
                            <path d="M5.9536862,18.0215794 C6.7278342,18.4245364 7.56552955,18.7164126 8.44841413,18.8772483 L14.9536862,1.99818041 C14.2221855,1.51191283 13.4180997,1.13180837 12.5611989,0.87724831 L5.9536862,18.0215794" id="Fill-22" fill="#F2BE53" transform="translate(10.453686, 9.877248) rotate(2.000000) translate(-10.453686, -9.877248) "></path>
                            <path d="M9.25400499,19 C14.6365353,19 19,14.9014482 19,9.84569998 C19,7.12172358 17.7318024,4.67695333 15.7213864,3 L9,18.9939925 C9.08466833,18.995995 9.16872754,19 9.25400499,19" id="Fill-23" fill="#F2BE53"></path>
                            <path d="M9.5,3.76470588 C6.33746324,3.76470588 3.76470588,6.33746324 3.76470588,9.5 C3.76470588,12.6625368 6.33746324,15.2352941 9.5,15.2352941 C12.6625368,15.2352941 15.2352941,12.6625368 15.2352941,9.5 C15.2352941,6.33746324 12.6625368,3.76470588 9.5,3.76470588 Z M9.5,17 C5.36428571,17 2,13.6354464 2,9.5 C2,5.36428571 5.36428571,2 9.5,2 C13.6357143,2 17,5.36428571 17,9.5 C17,13.6354464 13.6357143,17 9.5,17 L9.5,17 Z" id="Fill-24" fill="#EFB252"></path>
                        </g>
                    </g>
                    <g id="Coin-Money" filter="url(#filter-5)" mask="url(#mask-2)">
                        <g transform="translate(51.000000, 34.000000)">
                            <path d="M9.5,0 C4.25332813,0 0,4.25332812 0,9.5 C0,14.7466719 4.25332813,19 9.5,19 C14.7466719,19 19,14.7466719 19,9.5 C19,4.25332812 14.7466719,0 9.5,0" id="Fill-21" fill="#F7CB64"></path>
                            <path d="M5.9536862,18.0215794 C6.7278342,18.4245364 7.56552955,18.7164126 8.44841413,18.8772483 L14.9536862,1.99818041 C14.2221855,1.51191283 13.4180997,1.13180837 12.5611989,0.87724831 L5.9536862,18.0215794" id="Fill-22" fill="#F2BE53" transform="translate(10.453686, 9.877248) rotate(2.000000) translate(-10.453686, -9.877248) "></path>
                            <path d="M9.25400499,19 C14.6365353,19 19,14.9014482 19,9.84569998 C19,7.12172358 17.7318024,4.67695333 15.7213864,3 L9,18.9939925 C9.08466833,18.995995 9.16872754,19 9.25400499,19" id="Fill-23" fill="#F2BE53"></path>
                            <path d="M9.5,3.76470588 C6.33746324,3.76470588 3.76470588,6.33746324 3.76470588,9.5 C3.76470588,12.6625368 6.33746324,15.2352941 9.5,15.2352941 C12.6625368,15.2352941 15.2352941,12.6625368 15.2352941,9.5 C15.2352941,6.33746324 12.6625368,3.76470588 9.5,3.76470588 Z M9.5,17 C5.36428571,17 2,13.6354464 2,9.5 C2,5.36428571 5.36428571,2 9.5,2 C13.6357143,2 17,5.36428571 17,9.5 C17,13.6354464 13.6357143,17 9.5,17 L9.5,17 Z" id="Fill-24" fill="#EFB252"></path>
                        </g>
                    </g>
                    <g id="Holding" mask="url(#mask-2)">
                        <g transform="translate(8.000000, 57.000000)" id="Group-7">
                            <g filter="url(#filter-6)" transform="translate(0.993269, 0.509901)">
                                <path d="M72.4416746,1.0821157 C69.4178786,0.218999315 66.1629939,0.955016901 63.8047335,3.03481542 L53.035999,12.6631271 C51.6263578,13.9063844 49.8111558,14.5927179 47.9312491,14.5927179 L37.551899,14.5927179 C36.5951917,14.5927179 35.8187336,13.8162598 35.8187336,12.8595525 C35.8187336,11.9028452 36.5951917,11.1263871 37.551899,11.1263871 C37.551899,11.1263871 44.7895979,11.1263871 45.0622826,11.1263871 C47.6146575,11.1263871 49.684057,9.05698756 49.684057,6.50461261 C49.684057,3.95223765 47.6146575,1.88283813 45.0622826,1.88283813 C44.7895979,1.88283813 35.3496235,1.88283813 32.3524027,1.88283813 C30.6631442,1.88283813 26.8617346,1.88283813 25.0569317,1.88283813 C21.382621,1.88283813 18.6627067,3.25666059 15.9994092,5.38614318 C13.6295943,7.28107072 8.37463673,12.1997942 5.9262517,14.5118369 L20.2641516,28.8497368 C21.2208589,28.6174926 22.325463,28.4580414 23.5848965,28.4580414 L46.2177262,28.4580414 C50.6292099,28.4580414 54.8269366,26.5550257 57.7340327,23.2377471 L73.3995373,4.48258627 C74.4452138,3.34562975 73.9264196,1.50616351 72.4416746,1.0821157" id="Fill-168" fill="#EAC5A7"></path>
                                <path d="M21.6148652,31.9151287 L18.4778357,35.0521581 C18.0041039,35.52589 17.2103141,35.4993148 16.7042298,34.9932305 L0.397453975,18.6864547 C-0.10863033,18.1803704 -0.135205533,17.3865806 0.338526351,16.9128487 L3.47555578,13.7758193 C3.94928766,13.3020874 4.74307743,13.3286626 5.24916174,13.8347469 L21.5559375,30.1415227 C22.0620219,30.647607 22.0885971,31.4413968 21.6148652,31.9151287" id="Fill-169" fill="#E1E4E1"></path>
                                <path d="M36.3097971,14.0646802 C36.0070709,13.7527104 35.8187336,13.3286626 35.8187336,12.8595525 C35.8187336,11.9028452 36.5951917,11.1263871 37.551899,11.1263871 C37.551899,11.1263871 39.6282312,11.1344752 41.5947962,11.1425633 C41.5947962,11.1367861 45.0622826,11.1263871 45.0622826,11.1263871 C45.2217338,11.1159881 45.6434707,11.0547496 45.8179427,10.954226 C47.3627708,10.0714671 46.5990226,7.66005623 44.8207948,7.66005623 L38.3179581,7.66005623 C36.4680929,7.66005623 34.8054095,9.02579059 34.6725335,10.871034 C34.5743208,12.2217476 35.2583434,13.4118546 36.3097971,14.0646802" id="Fill-174" fill="#D9B090"></path>
                                <path d="M18.4778357,35.0521581 L21.6148652,31.9151287 C22.0885971,31.4413968 22.0620219,30.647607 21.5559375,30.1415227 L13.881481,22.4670662 C12.9790796,21.5646648 11.5151325,21.5646648 10.612731,22.4670662 C9.85707089,23.2227263 8.62998977,23.2227263 7.87432964,22.4670662 L3.51252998,18.1052666 C2.50613858,17.0988752 0.673605001,18.1618833 1.2351506,19.4710009 C1.2617258,19.5322394 1.29292278,19.5819235 1.32874153,19.6177423 L16.7042298,34.9932305 C17.2103141,35.4993148 18.0041039,35.52589 18.4778357,35.0521581" id="Fill-175" fill="#CDD3D1"></path>
                                <path d="M18.4870793,30.7689286 C18.4870793,31.4067335 17.9694405,31.9243722 17.3316357,31.9243722 C16.6938308,31.9243722 16.1761921,31.4067335 16.1761921,30.7689286 C16.1761921,30.1311237 16.6938308,29.613485 17.3316357,29.613485 C17.9694405,29.613485 18.4870793,30.1311237 18.4870793,30.7689286" id="Fill-176" fill="#8BA6B1"></path>
                                <path d="M41.5959517,7.66005623 L41.5959517,5.34916899 C41.5959517,4.71136411 42.1135904,4.19372537 42.7513953,4.19372537 L45.0622826,4.19372537 C46.3390478,4.19372537 47.3731698,5.22784741 47.3731698,6.50461261 C47.3731698,7.78022236 46.3390478,8.81549985 45.0622826,8.81549985 L42.7513953,8.81549985 C42.1135904,8.81549985 41.5959517,8.29786111 41.5959517,7.66005623" id="Fill-180" fill="#F9D8BE"></path>
                                <path d="M42.7513953,8.81549985 L45.0622826,8.81549985 C45.5209937,8.81549985 45.9461969,8.67800206 46.3055399,8.44691333 C45.9901038,7.98935766 45.4759314,7.66005623 44.8207948,7.66005623 L41.5959517,7.66005623 C41.5959517,8.29786111 42.1135904,8.81549985 42.7513953,8.81549985" id="Fill-181" fill="#EAC5A7"></path>
                                <path d="M42.7513953,6.50461261 C42.7513953,5.58487949 42.4810215,4.79802238 42.0927924,4.42596954 C41.7993098,4.63510483 41.5959517,4.96093993 41.5959517,5.34916899 L41.5959517,7.66005623 C41.5959517,8.04712984 41.7993098,8.37412039 42.0927924,8.58325568 C42.4810215,8.21120283 42.7513953,7.42434573 42.7513953,6.50461261" id="Fill-182" fill="#FFFFFE"></path>
                                <path d="M42.0927924,8.58325568 C42.3007723,8.38336393 42.471778,8.05637339 42.5884778,7.66005623 L41.5959517,7.66005623 C41.5959517,8.04712984 41.7993098,8.37412039 42.0927924,8.58325568" id="Fill-183" fill="#F9D8BE"></path>
                                <path d="M71.0170126,2.84416722 L56.5785891,19.7714163 C56.335946,20.0475673 56.0852147,20.3133193 55.8252399,20.5709832 C52.2745616,24.0800655 47.0912415,25.3857168 42.1898497,24.4347867 L21.6310414,20.4450399 C18.5772039,19.8522973 15.4471071,20.1134276 12.5561872,21.1417724 L20.2641516,28.8497368 C21.2208589,28.6174926 22.325463,28.4580414 23.5848965,28.4580414 L46.2177262,28.4580414 C50.6292099,28.4580414 54.8269366,26.5550257 57.7340327,23.2377471 L73.3995373,4.48258627 C73.5948073,4.26998465 73.6837765,4.01694249 73.6987972,3.74656869 C73.7773674,2.34963735 71.8974606,1.75573933 71.0170126,2.84416722" id="Fill-184" fill="#D9B090"></path>
                            </g>
                        </g>
                    </g>
                </g>
                <g id="Dynamic-Hex" stroke="#1D8E96" stroke-width="4">
                    <path d="M45.5618501,3.25844398 L45.5621963,3.25823359 L6.67338401,26.8942953 C3.79673288,28.6432593 2,31.9508238 2,35.5582677 L2,82.4417323 C2,86.0486597 3.79764663,89.3586805 6.67318764,91.1055853 L45.560618,114.742485 C46.9289662,115.572418 48.4546283,116 50,116 C51.5458817,116 53.0723633,115.572188 54.4362178,114.743457 L93.3268764,91.1055464 C96.2016145,89.3583456 98,86.0476286 98,82.4417323 L98,35.5582677 C98,31.9518547 96.202529,28.6435953 93.3268966,26.8944659 L54.4351916,3.25759524 C53.0721095,2.42798656 51.5462432,2 50,2 C48.4542664,2 46.9292165,2.42775755 45.5618501,3.25844398 Z" id="Azure-Hex-Border"></path>
                </g>
            </g>
        </g>
    </g>
</svg>