<?xml version="1.0" encoding="UTF-8"?>
<svg width="100px" height="100px" viewBox="0 0 100 100" version="1.1" xmlns="http://www.w3.org/2000/svg" xmlns:xlink="http://www.w3.org/1999/xlink">
    <!-- Generator: Sketch 55.2 (78181) - https://sketchapp.com -->
    <title>Reconcile bank accounts in Microsoft Dynamics 365 Business Central/use-the-payment-reconciliation-journal-in-dynamics-365-business-central</title>
    <desc>Created with Sketch.</desc>
    <defs>
        <rect id="path-1" x="0" y="0" width="96" height="96" rx="48"></rect>
        <rect id="path-3" x="0" y="0" width="40" height="55"></rect>
        <filter x="-2.5%" y="-1.8%" width="105.0%" height="107.3%" filterUnits="objectBoundingBox" id="filter-4">
            <feOffset dx="0" dy="2" in="SourceAlpha" result="shadowOffsetOuter1"></feOffset>
            <feColorMatrix values="0 0 0 0 0   0 0 0 0 0   0 0 0 0 0  0 0 0 0.1 0" type="matrix" in="shadowOffsetOuter1"></feColorMatrix>
        </filter>
        <rect id="path-5" x="0" y="1" width="12" height="4"></rect>
        <filter x="-8.3%" y="-25.0%" width="116.7%" height="200.0%" filterUnits="objectBoundingBox" id="filter-6">
            <feOffset dx="0" dy="2" in="SourceAlpha" result="shadowOffsetOuter1"></feOffset>
            <feColorMatrix values="0 0 0 0 0   0 0 0 0 0   0 0 0 0 0  0 0 0 0.1 0" type="matrix" in="shadowOffsetOuter1"></feColorMatrix>
        </filter>
        <rect id="path-7" x="0" y="1" width="12" height="4"></rect>
        <filter x="-8.3%" y="-25.0%" width="116.7%" height="200.0%" filterUnits="objectBoundingBox" id="filter-8">
            <feOffset dx="0" dy="2" in="SourceAlpha" result="shadowOffsetOuter1"></feOffset>
            <feColorMatrix values="0 0 0 0 0   0 0 0 0 0   0 0 0 0 0  0 0 0 0.1 0" type="matrix" in="shadowOffsetOuter1"></feColorMatrix>
        </filter>
        <rect id="path-9" x="0" y="1" width="12" height="4"></rect>
        <filter x="-8.3%" y="-25.0%" width="116.7%" height="200.0%" filterUnits="objectBoundingBox" id="filter-10">
            <feOffset dx="0" dy="2" in="SourceAlpha" result="shadowOffsetOuter1"></feOffset>
            <feColorMatrix values="0 0 0 0 0   0 0 0 0 0   0 0 0 0 0  0 0 0 0.1 0" type="matrix" in="shadowOffsetOuter1"></feColorMatrix>
        </filter>
        <rect id="path-11" x="0" y="1" width="12" height="4"></rect>
        <filter x="-8.3%" y="-25.0%" width="116.7%" height="200.0%" filterUnits="objectBoundingBox" id="filter-12">
            <feOffset dx="0" dy="2" in="SourceAlpha" result="shadowOffsetOuter1"></feOffset>
            <feColorMatrix values="0 0 0 0 0   0 0 0 0 0   0 0 0 0 0  0 0 0 0.1 0" type="matrix" in="shadowOffsetOuter1"></feColorMatrix>
        </filter>
        <rect id="path-13" x="0" y="1" width="12" height="4"></rect>
        <filter x="-8.3%" y="-25.0%" width="116.7%" height="200.0%" filterUnits="objectBoundingBox" id="filter-14">
            <feOffset dx="0" dy="2" in="SourceAlpha" result="shadowOffsetOuter1"></feOffset>
            <feColorMatrix values="0 0 0 0 0   0 0 0 0 0   0 0 0 0 0  0 0 0 0.1 0" type="matrix" in="shadowOffsetOuter1"></feColorMatrix>
        </filter>
    </defs>
    <g id="Badges" stroke="none" stroke-width="1" fill="none" fill-rule="evenodd">
        <g id="Reconcile-bank-accounts-in-Microsoft-Dynamics-365-Business-Central" transform="translate(-50.000000, -660.000000)">
            <g id="Reconcile-bank-accounts-in-Microsoft-Dynamics-365-Business-Central/use-the-payment-reconciliation-journal-in-dynamics-365-business-central" transform="translate(50.000000, 660.000000)">
                <g id="Mask" transform="translate(2.000000, 2.000000)">
                    <mask id="mask-2" fill="white">
                        <use xlink:href="#path-1"></use>
                    </mask>
                    <use id="BG" fill="#01B6C3" xlink:href="#path-1"></use>
                    <g id="Journal" mask="url(#mask-2)">
                        <g transform="translate(21.000000, 19.000000)">
                            <g id="Journal-Body-Copy" transform="translate(6.000000, 0.000000)">
                                <g id="Right-Side" fill-rule="nonzero">
                                    <use fill="black" fill-opacity="1" filter="url(#filter-4)" xlink:href="#path-3"></use>
                                    <use fill="#69994E" xlink:href="#path-3"></use>
                                </g>
                                <path d="M21,10.0612001 L21,46 C21,48.7614237 18.7614237,51 16,51 L0,51 L0,4 L0,2 C-1.3527075e-16,0.8954305 0.8954305,2.02906125e-16 2,0 L38,0 C39.1045695,-2.02906125e-16 40,0.8954305 40,2 L40,5 L26.0322057,5 L26,5 C23.2385763,5 21,7.23857625 21,10 L21,10.0612001 Z" id="Left-Side" fill="#7CB65A" fill-rule="nonzero"></path>
                            </g>
                            <g id="Ring-5" transform="translate(0.000000, 44.000000)">
                                <circle id="Oval" fill="#69994E" fill-rule="nonzero" cx="10" cy="3" r="3"></circle>
                                <g id="Rectangle" fill-rule="nonzero">
                                    <use fill="black" fill-opacity="1" filter="url(#filter-6)" xlink:href="#path-5"></use>
                                    <use fill="#E1E4E1" xlink:href="#path-5"></use>
                                </g>
                                <path d="M12,3 L-2.22044605e-16,3 C5.02383897e-16,1.8954305 0.8954305,1 2,1 L10,1 C11.1045695,1 12,1.8954305 12,3 Z" id="Combined-Shape" fill="#D3DAD8" fill-rule="nonzero"></path>
                            </g>
                            <g id="Ring-4" transform="translate(0.000000, 34.000000)">
                                <circle id="Oval" fill="#69994E" fill-rule="nonzero" cx="10" cy="3" r="3"></circle>
                                <g id="Rectangle" fill-rule="nonzero">
                                    <use fill="black" fill-opacity="1" filter="url(#filter-8)" xlink:href="#path-7"></use>
                                    <use fill="#E1E4E1" xlink:href="#path-7"></use>
                                </g>
                                <path d="M12,3 L-2.22044605e-16,3 C-1.3527075e-16,1.8954305 0.8954305,1 2,1 L10,1 C11.1045695,1 12,1.8954305 12,3 Z" id="Combined-Shape" fill="#D3DAD8" fill-rule="nonzero"></path>
                            </g>
                            <g id="Ring-3" transform="translate(0.000000, 24.000000)">
                                <circle id="Oval" fill="#69994E" fill-rule="nonzero" cx="10" cy="3" r="3"></circle>
                                <g id="Rectangle" fill-rule="nonzero">
                                    <use fill="black" fill-opacity="1" filter="url(#filter-10)" xlink:href="#path-9"></use>
                                    <use fill="#E1E4E1" xlink:href="#path-9"></use>
                                </g>
                                <path d="M12,3 L4.4408921e-16,3 C-1.3527075e-16,1.8954305 0.8954305,1 2,1 L10,1 C11.1045695,1 12,1.8954305 12,3 Z" id="Combined-Shape" fill="#D3DAD8" fill-rule="nonzero"></path>
                            </g>
                            <g id="Ring-2" transform="translate(0.000000, 14.000000)">
                                <circle id="Oval" fill="#69994E" fill-rule="nonzero" cx="10" cy="3" r="3"></circle>
                                <g id="Rectangle" fill-rule="nonzero">
                                    <use fill="black" fill-opacity="1" filter="url(#filter-12)" xlink:href="#path-11"></use>
                                    <use fill="#E1E4E1" xlink:href="#path-11"></use>
                                </g>
                                <path d="M12,3 L-2.22044605e-16,3 C-1.3527075e-16,1.8954305 0.8954305,1 2,1 L10,1 C11.1045695,1 12,1.8954305 12,3 Z" id="Combined-Shape" fill="#D3DAD8" fill-rule="nonzero"></path>
                            </g>
                            <g id="Ring-1" transform="translate(0.000000, 4.000000)">
                                <circle id="Oval" fill="#69994E" fill-rule="nonzero" cx="10" cy="3" r="3"></circle>
                                <g id="Rectangle" fill-rule="nonzero">
                                    <use fill="black" fill-opacity="1" filter="url(#filter-14)" xlink:href="#path-13"></use>
                                    <use fill="#E1E4E1" xlink:href="#path-13"></use>
                                </g>
                                <path d="M12,3 L-4.4408921e-16,3 C-1.3527075e-16,1.8954305 0.8954305,1 2,1 L10,1 C11.1045695,1 12,1.8954305 12,3 Z" id="Combined-Shape" fill="#D3DAD8" fill-rule="nonzero"></path>
                            </g>
                        </g>
                    </g>
                    <circle id="Oval" fill="#FFFFFF" mask="url(#mask-2)" cx="48" cy="42" r="13"></circle>
                    <g id="g12" mask="url(#mask-2)" fill="#1C294F" fill-rule="nonzero">
                        <g transform="translate(38.000000, 32.000000)">
                            <path d="M10.0733085,1.19801278 C10.42172,1.17547083 10.8083507,1.49326748 10.8125425,1.9643208 C10.8160932,2.37078608 10.4788269,2.72279264 10.1007277,2.73329183 C9.7141463,2.74400308 9.33432106,2.42724698 9.33880874,1.95825504 C9.34359231,1.46140496 9.75428883,1.176107 10.0733085,1.19801278 Z M1.99109892,9.21729597 C2.39904858,9.21759212 2.72192469,9.55974058 2.72179158,9.9915933 C2.72163866,10.4090953 2.39070446,10.753315 1.98884522,10.7539075 C1.58623146,10.7544986 1.24960135,10.4036706 1.24903841,9.9828152 C1.24846217,9.56038168 1.58131967,9.21695102 1.99109892,9.21729597 Z M9.35912658,17.9036163 C9.36839783,17.8468053 9.37323071,17.78886 9.38763073,17.7333804 C9.49592679,17.3156812 9.90322056,17.072015 10.2970513,17.1875604 C10.5914134,17.2739605 10.8116548,17.5589034 10.8301973,17.9074136 C10.8489371,18.2601648 10.6469916,18.589442 10.3023773,18.6968504 C9.81326974,18.8493328 9.32317584,18.4314363 9.35912658,17.9036163 L9.35912658,17.9036163 Z M13.3735272,13.0995816 C13.074135,12.8089181 12.7874167,12.5305835 12.4988245,12.2504241 C12.1803966,12.5405944 11.8252783,12.7687263 11.4246914,12.9229841 C11.0441264,13.0694994 10.6515779,13.149094 10.2417197,13.1593022 C9.64130783,13.174294 9.0739371,13.0529788 8.5453774,12.7710934 C7.60321158,12.2685721 7.00289833,11.4971846 6.81732545,10.4418899 C6.64916081,9.48576787 6.90106256,8.62373916 7.52297584,7.87839008 C8.07101503,7.22151237 8.78139967,6.83991178 9.62177903,6.70567596 C10.5834243,6.55205929 11.425579,6.83162684 12.1687583,7.44200037 C12.2805557,7.53382517 12.386238,7.63304724 12.5041012,7.73710219 C12.7555591,7.45280039 13.0064253,7.16913968 13.2642449,6.87763787 C12.575115,6.17341762 11.7442535,5.74279779 10.7676657,5.57690164 C10.7654465,5.54637557 10.7615999,5.5184632 10.7615506,5.49055083 C10.7613041,4.9544459 10.7625369,4.41834591 10.7602684,3.88223605 C10.7600219,3.81882171 10.777726,3.79116084 10.8389261,3.76230162 C11.5236669,3.43969181 11.9239579,2.90747292 12.0044402,2.14807889 C12.1103198,1.14869764 11.4325818,0.244957688 10.4601858,0.0424572811 C9.40503898,-0.177283996 8.35886752,0.474504394 8.13285622,1.56812294 C7.93682852,2.51680822 8.43353065,3.41813616 9.33658956,3.78927207 C9.3972965,3.8142354 9.42037599,3.84351873 9.42012941,3.90832376 C9.41805818,4.43476292 9.41800886,4.96115276 9.41998147,5.48759192 C9.42017873,5.55081393 9.4028198,5.57487972 9.3363923,5.58627152 C8.8593176,5.66778945 8.4043854,5.81770749 7.97849982,6.04943935 C7.14527115,6.50274415 6.51413595,7.15153418 6.09046955,8.0022204 C5.85977331,8.46538823 5.7470882,8.90542726 5.67760317,9.31385528 C5.05988168,9.31385528 4.44104073,9.31385528 3.81504417,9.31385528 C3.61643729,8.8032956 3.27333211,8.41878542 2.76717627,8.19228097 C2.34503371,8.00340397 1.90651359,7.97046145 1.45874688,8.08871917 C0.608060652,8.31334964 -0.0670764857,9.1165947 0.0110959073,10.144125 C0.0796750254,11.0454579 0.744525517,11.7607248 1.60736793,11.9122209 C2.64082594,12.0937006 3.48234448,11.4975298 3.79526386,10.6987725 C3.81818554,10.6971944 3.84336585,10.6938903 3.86856096,10.6938903 C4.44664787,10.6936437 5.02471998,10.6946793 5.60284141,10.6924601 C5.67286891,10.6921642 5.6953073,10.7078958 5.71015116,10.7845808 C5.87530758,11.6375355 6.25039856,12.3839695 6.85115564,13.0162883 C7.3574249,13.5491878 7.95670253,13.9358185 8.65229263,14.1680928 C8.87292858,14.2418189 9.10401934,14.2848711 9.33155941,14.336652 C9.39098416,14.3501643 9.42003078,14.3670794 9.41973489,14.434937 C9.41731845,14.9484556 9.41771297,15.4619742 9.41998147,15.9754435 C9.42022804,16.0377285 9.39512663,16.0632738 9.34014025,16.0875368 C8.65668167,16.3892962 8.25012763,16.9157353 8.13522335,17.6481145 C8.04374375,18.2312168 8.19484535,18.764856 8.56870346,19.2268402 C8.89738889,19.6329998 9.32707174,19.8679864 9.84290814,19.9350057 C10.6052216,20.0339812 11.3725653,19.6423203 11.7583083,18.9764179 C11.9465935,18.6513325 12.0506485,18.3013923 12.0369882,17.9300985 C12.0061169,17.090311 11.6186478,16.4703703 10.8501206,16.1059314 C10.7867014,16.0758491 10.7592328,16.0453231 10.759726,15.9715476 C10.7632767,15.4645386 10.7628821,14.9574803 10.7600712,14.450422 C10.7596767,14.3764 10.7756054,14.348241 10.8568768,14.3342355 C11.6375848,14.1998518 12.3540352,13.9108157 12.984628,13.4246177 C13.1142775,13.3246559 13.2362339,13.2147818 13.3735272,13.0995816 L13.3735272,13.0995816 Z" id="path14"></path>
                            <path d="M18.1416605,9.21729623 C18.180866,9.22129075 18.2335839,9.21966335 18.2823566,9.23278118 C18.7674204,9.36292385 18.9851467,9.91170276 18.7393107,10.3805418 C18.5438748,10.753315 18.1000385,10.8644713 17.7535996,10.6273148 C17.4423718,10.4143227 17.3379223,9.95485351 17.5285253,9.6030886 C17.6562515,9.36731289 17.8501094,9.22390446 18.1416605,9.21729623 Z M9.39783897,9.98498507 C9.40720884,9.91855757 9.41189378,9.85099582 9.42668833,9.7858012 C9.54391042,9.27055658 10.1244976,9.04691241 10.5223722,9.36262795 C10.8398631,9.61457902 10.9057481,10.1270127 10.6602573,10.4574735 C10.4932763,10.6821533 10.2698293,10.7970082 9.99011384,10.7413807 C9.6353407,10.6708108 9.40503898,10.3616048 9.39783897,9.98498507 L9.39783897,9.98498507 Z M19.9919647,9.80927521 C19.9900414,9.41026638 19.7855808,8.9137122 19.3637391,8.51652804 C19.0732729,8.24302625 18.725108,8.08472464 18.3241265,8.03624785 C17.4734896,7.93337646 16.6956419,8.45271424 16.3908743,9.21887431 C16.3640962,9.28609085 16.3308084,9.3018717 16.2644302,9.30177307 C14.8207294,9.30009635 13.3770286,9.30014567 11.9333278,9.30177307 C11.8697112,9.3018717 11.8416509,9.28505523 11.8149714,9.2220798 C11.568445,8.64025973 11.1507951,8.24539338 10.5333201,8.07895477 C9.85903419,7.89717915 9.08784397,8.16180421 8.65628715,8.70994203 C8.37183741,9.07127409 8.21767827,9.4816254 8.20880154,9.93596581 C8.19045631,10.8766029 8.80413395,11.7448453 9.76937926,11.9162647 C10.6319998,12.0694869 11.4106859,11.6043958 11.7674316,10.8613645 C11.7812892,10.8325151 11.7951467,10.8036165 11.8076728,10.774126 C11.8715359,10.6239614 11.8713386,10.6239121 12.029295,10.6239121 C13.4148533,10.6239121 14.8004609,10.6258354 16.1860192,10.6205093 C16.3070385,10.6200162 16.3569948,10.6597642 16.4017729,10.7663835 C16.6489897,11.3551077 17.0766013,11.752785 17.7035941,11.8935798 C18.4504719,12.0613006 19.0752455,11.8261166 19.5598161,11.2390692 C19.8563974,10.8798083 19.9918167,10.4557967 19.9919647,9.80927521 L19.9919647,9.80927521 Z" id="path16"></path>
                        </g>
                    </g>
                </g>
                <g id="Dynamic-Border" stroke="#1D8E96" stroke-width="4">
                    <rect id="Azure-Border" x="2" y="2" width="96" height="96" rx="48"></rect>
                </g>
            </g>
        </g>
    </g>
</svg>