<?xml version="1.0" encoding="UTF-8"?>
<svg width="100px" height="100px" viewBox="0 0 100 100" version="1.1" xmlns="http://www.w3.org/2000/svg" xmlns:xlink="http://www.w3.org/1999/xlink">
    <!-- Generator: Sketch 55.2 (78181) - https://sketchapp.com -->
    <title>Deploy and Configure Microsoft Dynamics 365 Business Central/manage-users-and-implement-security-in-business-central</title>
    <desc>Created with Sketch.</desc>
    <defs>
        <rect id="path-1" x="0" y="0" width="96" height="96" rx="48"></rect>
        <filter x="-5.6%" y="-6.9%" width="111.5%" height="114.9%" filterUnits="objectBoundingBox" id="filter-3">
            <feOffset dx="0" dy="2" in="SourceAlpha" result="shadowOffsetOuter1"></feOffset>
            <feColorMatrix values="0 0 0 0 0   0 0 0 0 0   0 0 0 0 0  0 0 0 0.0983072917 0" type="matrix" in="shadowOffsetOuter1" result="shadowMatrixOuter1"></feColorMatrix>
            <feMerge>
                <feMergeNode in="shadowMatrixOuter1"></feMergeNode>
                <feMergeNode in="SourceGraphic"></feMergeNode>
            </feMerge>
        </filter>
    </defs>
    <g id="Badges" stroke="none" stroke-width="1" fill="none" fill-rule="evenodd">
        <g id="Deploy-and-Configure-Microsoft-Dynamics-365-Business-Central" transform="translate(-50.000000, -660.000000)">
            <g id="Deploy-and-Configure-Microsoft-Dynamics-365-Business-Central/manage-users-and-implement-security-in-business-central" transform="translate(50.000000, 660.000000)">
                <g id="Mask" transform="translate(2.000000, 2.000000)">
                    <mask id="mask-2" fill="white">
                        <use xlink:href="#path-1"></use>
                    </mask>
                    <use id="BG" fill="#01B6C3" xlink:href="#path-1"></use>
                    <g id="Group-3" mask="url(#mask-2)">
                        <g transform="translate(11.000000, 14.000000)">
                            <g id="Heirachy" filter="url(#filter-3)" transform="translate(1.121212, 2.242424)">
                                <path d="M62.7878788,53.8181818 C60.31,53.8181818 58.3030303,51.8112121 58.3030303,49.3333333 C58.3030303,46.8554545 60.31,44.8484848 62.7878788,44.8484848 C65.2657576,44.8484848 67.2727273,46.8554545 67.2727273,49.3333333 C67.2727273,51.8112121 65.2657576,53.8181818 62.7878788,53.8181818 Z M40.3636364,49.3333333 C40.3636364,51.8112121 38.3566667,53.8181818 35.8787879,53.8181818 C33.4009091,53.8181818 31.3939394,51.8112121 31.3939394,49.3333333 C31.3939394,46.8554545 33.4009091,44.8484848 35.8787879,44.8484848 C38.3566667,44.8484848 40.3636364,46.8554545 40.3636364,49.3333333 Z M13.4545455,49.3333333 C13.4545455,51.8112121 11.4475758,53.8181818 8.96969697,53.8181818 C6.49181818,53.8181818 4.48484848,51.8112121 4.48484848,49.3333333 C4.48484848,46.8554545 6.49181818,44.8484848 8.96969697,44.8484848 C11.4475758,44.8484848 13.4545455,46.8554545 13.4545455,49.3333333 Z M31.3939394,8.96969697 C31.3939394,6.49630303 33.4009091,4.48484848 35.8787879,4.48484848 C38.3566667,4.48484848 40.3636364,6.49630303 40.3636364,8.96969697 C40.3636364,11.4430909 38.3566667,13.4545455 35.8787879,13.4545455 C33.4009091,13.4545455 31.3939394,11.4430909 31.3939394,8.96969697 Z M65.030303,40.6551515 L65.030303,33.6363636 C65.030303,29.9262727 62.0142424,26.9090909 58.3030303,26.9090909 L38.1212121,26.9090909 L38.1212121,17.6433939 C41.9781818,16.6443939 44.8484848,13.1406061 44.8484848,8.96969697 C44.8484848,4.0240303 40.8233333,-9.09494702e-13 35.8787879,-9.09494702e-13 C30.9342424,-9.09494702e-13 26.9090909,4.0240303 26.9090909,8.96969697 C26.9090909,13.1406061 29.7793939,16.6443939 33.6363636,17.6433939 L33.6363636,26.9090909 L13.4545455,26.9090909 C9.74333333,26.9090909 6.72727273,29.9262727 6.72727273,33.6363636 L6.72727273,40.6551515 C2.87030303,41.6642424 0,45.1624242 0,49.3333333 C0,54.2778788 4.02515152,58.3030303 8.96969697,58.3030303 C13.9142424,58.3030303 17.9393939,54.2778788 17.9393939,49.3333333 C17.9393939,45.1624242 15.0690909,41.6642424 11.2121212,40.6551515 L11.2121212,33.6363636 C11.2121212,32.3996667 12.2212121,31.3939394 13.4545455,31.3939394 L33.6363636,31.3939394 L33.6363636,40.6551515 C29.7793939,41.6642424 26.9090909,45.1624242 26.9090909,49.3333333 C26.9090909,54.2778788 30.9342424,58.3030303 35.8787879,58.3030303 C40.8233333,58.3030303 44.8484848,54.2778788 44.8484848,49.3333333 C44.8484848,45.1624242 41.9781818,41.6642424 38.1212121,40.6551515 L38.1212121,31.3939394 L58.3030303,31.3939394 C59.5363636,31.3939394 60.5454545,32.3996667 60.5454545,33.6363636 L60.5454545,40.6551515 C56.6884848,41.6642424 53.8181818,45.1624242 53.8181818,49.3333333 C53.8181818,54.2778788 57.8433333,58.3030303 62.7878788,58.3030303 C67.7324242,58.3030303 71.7575758,54.2778788 71.7575758,49.3333333 C71.7575758,45.1624242 68.8872727,41.6642424 65.030303,40.6551515 L65.030303,40.6551515 Z" id="Fill-1340" fill="#30404D"></path>
                            </g>
                            <g id="Main" transform="translate(26.909091, 0.000000)">
                                <path d="M10.0909091,20.1818182 C15.6547841,20.1818182 20.1818182,15.6547841 20.1818182,10.0909091 C20.1818182,4.52671875 15.6547841,-9.09494702e-13 10.0909091,-9.09494702e-13 C4.52671875,-9.09494702e-13 0,4.52671875 0,10.0909091 C0,15.6547841 4.52671875,20.1818182 10.0909091,20.1818182" id="Fill-115" fill="#56748C"></path>
                                <path d="M10.0909091,-1.8189894e-12 C15.6547841,-1.8189894e-12 20.1818182,4.52671875 20.1818182,10.0909091 C20.1818182,15.6547841 15.6547841,20.1818182 10.0909091,20.1818182 L10.0909091,-1.81921145e-12 Z" id="Combined-Shape" fill="#4B5B67"></path>
                            </g>
                            <g id="Business-Central-logo" transform="translate(28.030303, 1.121212)">
                                <path d="M12.3523815,5.58701241 L11.929546,6.00984798 C11.8766019,5.95690389 11.8222461,5.90537148 11.7665399,5.85531205 C11.0252368,5.18915215 10.0447999,4.78383838 8.96969697,4.78383838 C6.65791111,4.78383838 4.78383838,6.65791111 4.78383838,8.96969697 C4.78383838,11.2814828 6.65791111,13.1555556 8.96969697,13.1555556 C10.1255899,13.1555556 11.1720545,12.6870374 11.929546,11.929546 L12.3523824,12.3523824 C11.4866771,13.218086 10.2907175,13.7535354 8.96969697,13.7535354 C6.32765598,13.7535354 4.18585859,11.611738 4.18585859,8.96969697 C4.18585859,6.32765598 6.32765598,4.18585859 8.96969697,4.18585859 C10.1983861,4.18585859 11.3188854,4.64907432 12.1660889,5.41039992 C12.2297531,5.46761069 12.291874,5.52650487 12.3523815,5.58701241 Z" id="Combined-Shape" fill="#FFFFFF"></path>
                                <path d="M8.96969697,3.58787879 C7.9789316,3.58787879 7.17575758,2.78470476 7.17575758,1.79393939 C7.17575758,0.803174025 7.9789316,0 8.96969697,0 C9.43045538,0 9.85064261,0.1737059 10.168344,0.459203001 C10.5337934,0.787608179 10.7636364,1.26393244 10.7636364,1.79393939 C10.7636364,2.27708501 10.5726404,2.71562114 10.2620338,3.03816259 C9.93569306,3.37704265 9.47731672,3.58787879 8.96969697,3.58787879 Z M8.96969697,2.98989899 C9.30811014,2.98989899 9.61369436,2.84934157 9.83125483,2.62342153 C10.0383259,2.40839389 10.1656566,2.11603647 10.1656566,1.79393939 C10.1656566,1.44060142 10.0124279,1.12305192 9.76879496,0.904115132 C9.55699407,0.713783731 9.27686925,0.597979798 8.96969697,0.597979798 C8.30918672,0.597979798 7.77373737,1.13342915 7.77373737,1.79393939 C7.77373737,2.45444964 8.30918672,2.98989899 8.96969697,2.98989899 Z" id="Combined-Shape" fill="#FFFFFF"></path>
                                <path d="M8.96969697,10.7636364 C7.9789316,10.7636364 7.17575758,9.96046234 7.17575758,8.96969697 C7.17575758,7.9789316 7.9789316,7.17575758 8.96969697,7.17575758 C9.43045538,7.17575758 9.85064261,7.34946348 10.168344,7.63496058 C10.5337934,7.96336575 10.7636364,8.43969002 10.7636364,8.96969697 C10.7636364,9.45284258 10.5726404,9.89137871 10.2620338,10.2139202 C9.93569306,10.5528002 9.47731672,10.7636364 8.96969697,10.7636364 Z M8.96969697,10.1656566 C9.30811014,10.1656566 9.61369436,10.0250991 9.83125483,9.7991791 C10.0383259,9.58415146 10.1656566,9.29179405 10.1656566,8.96969697 C10.1656566,8.616359 10.0124279,8.29880949 9.76879496,8.07987271 C9.55699407,7.88954131 9.27686925,7.77373737 8.96969697,7.77373737 C8.30918672,7.77373737 7.77373737,8.30918672 7.77373737,8.96969697 C7.77373737,9.63020722 8.30918672,10.1656566 8.96969697,10.1656566 Z" id="Combined-Shape" fill="#FFFFFF"></path>
                                <path d="M16.1454545,10.7636364 C15.1546892,10.7636364 14.3515152,9.96046234 14.3515152,8.96969697 C14.3515152,7.9789316 15.1546892,7.17575758 16.1454545,7.17575758 C16.606213,7.17575758 17.0264002,7.34946348 17.3441015,7.63496058 C17.709551,7.96336575 17.9393939,8.43969002 17.9393939,8.96969697 C17.9393939,9.45284258 17.748398,9.89137871 17.4377913,10.2139202 C17.1114506,10.5528002 16.6530743,10.7636364 16.1454545,10.7636364 Z M16.1454545,10.1656566 C16.4838677,10.1656566 16.7894519,10.0250991 17.0070124,9.7991791 C17.2140835,9.58415146 17.3414141,9.29179405 17.3414141,8.96969697 C17.3414141,8.616359 17.1881855,8.29880949 16.9445525,8.07987271 C16.7327516,7.88954131 16.4526268,7.77373737 16.1454545,7.77373737 C15.4849443,7.77373737 14.9494949,8.30918672 14.9494949,8.96969697 C14.9494949,9.63020722 15.4849443,10.1656566 16.1454545,10.1656566 Z" id="Combined-Shape" fill="#FFFFFF"></path>
                                <path d="M8.96969697,17.9393939 C7.9789316,17.9393939 7.17575758,17.1362199 7.17575758,16.1454545 C7.17575758,15.1546892 7.9789316,14.3515152 8.96969697,14.3515152 C9.43045538,14.3515152 9.85064261,14.5252211 10.168344,14.8107182 C10.5337934,15.1391233 10.7636364,15.6154476 10.7636364,16.1454545 C10.7636364,16.6286002 10.5726404,17.0671363 10.2620338,17.3896777 C9.93569306,17.7285578 9.47731672,17.9393939 8.96969697,17.9393939 Z M8.96969697,17.3414141 C9.30811014,17.3414141 9.61369436,17.2008567 9.83125483,16.9749367 C10.0383259,16.759909 10.1656566,16.4675516 10.1656566,16.1454545 C10.1656566,15.7921166 10.0124279,15.4745671 9.76879496,15.2556303 C9.55699407,15.0652989 9.27686925,14.9494949 8.96969697,14.9494949 C8.30918672,14.9494949 7.77373737,15.4849443 7.77373737,16.1454545 C7.77373737,16.8059648 8.30918672,17.3414141 8.96969697,17.3414141 Z" id="Combined-Shape" fill="#FFFFFF"></path>
                                <rect id="Rectangle" fill="#FFFFFF" x="10.1656566" y="8.37171717" width="4.78383838" height="1.1959596"></rect>
                                <polygon id="Rectangle" fill="#FFFFFF" transform="translate(8.969697, 3.886869) rotate(90.000000) translate(-8.969697, -3.886869) " points="8.37171717 3.28888889 9.56767677 3.28888889 9.56767677 4.48484848 8.37171717 4.48484848"></polygon>
                                <rect id="Rectangle" fill="#FFFFFF" x="3.28888889" y="8.37171717" width="1.1959596" height="1.1959596"></rect>
                                <polygon id="Rectangle" fill="#FFFFFF" transform="translate(8.969697, 14.052525) rotate(90.000000) translate(-8.969697, -14.052525) " points="8.37171717 13.4545455 9.56767677 13.4545455 9.56767677 14.6505051 8.37171717 14.6505051"></polygon>
                                <path d="M1.79393939,10.7636364 C0.803174025,10.7636364 -2.90922841e-12,9.96046234 -2.90922841e-12,8.96969697 C-2.90922841e-12,7.9789316 0.803174025,7.17575758 1.79393939,7.17575758 C2.25469781,7.17575758 2.67488504,7.34946348 2.99258638,7.63496058 C3.35803586,7.96336575 3.58787879,8.43969002 3.58787879,8.96969697 C3.58787879,9.45284258 3.39688286,9.89137871 3.08627619,10.2139202 C2.75993548,10.5528002 2.30155915,10.7636364 1.79393939,10.7636364 Z M1.79393939,10.1656566 C2.13235256,10.1656566 2.43793679,10.0250991 2.65549726,9.7991791 C2.86256837,9.58415146 2.98989899,9.29179405 2.98989899,8.96969697 C2.98989899,8.616359 2.83667037,8.29880949 2.59303738,8.07987271 C2.38123649,7.88954131 2.10111167,7.77373737 1.79393939,7.77373737 C1.13342915,7.77373737 0.597979798,8.30918672 0.597979798,8.96969697 C0.597979798,9.63020722 1.13342915,10.1656566 1.79393939,10.1656566 Z" id="Combined-Shape" fill="#FFFFFF"></path>
                            </g>
                            <g id="User1" transform="translate(0.000000, 40.363636)">
                                <path d="M10.0909091,20.1818182 C15.6547841,20.1818182 20.1818182,15.6547841 20.1818182,10.0909091 C20.1818182,4.52671875 15.6547841,-9.09494702e-13 10.0909091,-9.09494702e-13 C4.52671875,-9.09494702e-13 0,4.52671875 0,10.0909091 C0,15.6547841 4.52671875,20.1818182 10.0909091,20.1818182" id="Fill-115" fill="#ADBDC4"></path>
                                <path d="M10.0909091,-9.09494702e-13 C15.6547841,-9.09494702e-13 20.1818182,4.52671875 20.1818182,10.0909091 C20.1818182,15.6547841 15.6547841,20.1818182 10.0909091,20.1818182 L10.0909091,-9.09716746e-13 Z" id="Combined-Shape" fill-opacity="0.18" fill="#4B5B67"></path>
                                <path d="M10.0909091,12.3333333 C11.9481134,12.3333333 13.4545455,10.8275278 13.4545455,8.97010062 C13.4545455,7.11188629 11.9481336,5.60606061 10.0909091,5.60606061 C8.23368458,5.60606061 6.72727273,7.11186611 6.72727273,8.97010062 C6.72727273,10.8275278 8.23368458,12.3333333 10.0909091,12.3333333 Z" id="Path" fill="#FFFFFE"></path>
                                <path d="M10.0910492,19.0606061 C13.4169414,19.0606061 16.3303819,16.9375577 17.9393939,14.7130626 C17.9296182,14.6514748 17.9012672,14.5915308 17.8514076,14.539796 C16.8229313,13.4599642 15.1952488,13.4545455 13.011107,13.4545455 L7.17071119,13.4545455 C4.98666946,13.4545455 3.35903704,13.4599642 2.3304106,14.539796 C2.28055099,14.5915287 2.25219995,14.6514748 2.24242424,14.7130626 C3.85189176,16.9375998 6.76515707,19.0606061 10.0910492,19.0606061 Z" id="Path" fill="#FFFFFE"></path>
                            </g>
                            <g id="User2" transform="translate(26.909091, 40.363636)">
                                <path d="M10.0909091,20.1818182 C15.6547841,20.1818182 20.1818182,15.6547841 20.1818182,10.0909091 C20.1818182,4.52671875 15.6547841,-9.09494702e-13 10.0909091,-9.09494702e-13 C4.52671875,-9.09494702e-13 0,4.52671875 0,10.0909091 C0,15.6547841 4.52671875,20.1818182 10.0909091,20.1818182" id="Fill-115" fill="#ADBDC4"></path>
                                <path d="M10.0909091,0 C15.6547841,0 20.1818182,4.52671875 20.1818182,10.0909091 C20.1818182,15.6547841 15.6547841,20.1818182 10.0909091,20.1818182 L10.0909091,-6.66133815e-16 Z" id="Combined-Shape" fill-opacity="0.18" fill="#4B5B67"></path>
                                <path d="M10.0909091,12.3333333 C11.9481134,12.3333333 13.4545455,10.8275278 13.4545455,8.97010062 C13.4545455,7.11188629 11.9481336,5.60606061 10.0909091,5.60606061 C8.23368458,5.60606061 6.72727273,7.11186611 6.72727273,8.97010062 C6.72727273,10.8275278 8.23368458,12.3333333 10.0909091,12.3333333 Z" id="Path" fill="#FFFFFE"></path>
                                <path d="M10.0910492,19.0606061 C13.4169414,19.0606061 16.3303819,16.9735193 17.9393939,14.7490243 C17.9296182,14.6874364 17.9012672,14.6274925 17.8514076,14.5757576 C16.8229313,13.4959258 15.1952488,13.4545455 13.011107,13.4545455 L7.17071119,13.4545455 C4.98666946,13.4545455 3.35903704,13.4959258 2.3304106,14.5757576 C2.28055099,14.6274904 2.25219995,14.6874364 2.24242424,14.7490243 C3.85189176,16.9735614 6.76515707,19.0606061 10.0910492,19.0606061 Z" id="Path" fill="#FFFFFE"></path>
                            </g>
                            <g id="User3" transform="translate(53.818182, 40.363636)">
                                <path d="M10.0909091,20.1818182 C15.6547841,20.1818182 20.1818182,15.6547841 20.1818182,10.0909091 C20.1818182,4.52671875 15.6547841,-9.09494702e-13 10.0909091,-9.09494702e-13 C4.52671875,-9.09494702e-13 0,4.52671875 0,10.0909091 C0,15.6547841 4.52671875,20.1818182 10.0909091,20.1818182" id="Fill-115" fill="#ADBDC4"></path>
                                <path d="M10.0909091,2.59563047e-30 C15.6547841,3.95806167e-15 20.1818182,4.52671875 20.1818182,10.0909091 C20.1818182,15.6547841 15.6547841,20.1818182 10.0909091,20.1818182 L10.0909091,-2.22044605e-16 Z" id="Combined-Shape" fill-opacity="0.18" fill="#4B5B67"></path>
                                <path d="M10.0909091,12.3333333 C11.9481134,12.3333333 13.4545455,10.8275278 13.4545455,8.97010062 C13.4545455,7.11188629 11.9481336,5.60606061 10.0909091,5.60606061 C8.23368458,5.60606061 6.72727273,7.11186611 6.72727273,8.97010062 C6.72727273,10.8275278 8.23368458,12.3333333 10.0909091,12.3333333 Z" id="Path" fill="#FFFFFE"></path>
                                <path d="M10.0910492,19.0606061 C13.4169414,19.0606061 16.3303819,16.9414392 17.9393939,14.7169441 C17.9296182,14.6553562 17.9012672,14.5954123 17.8514076,14.5436774 C16.8229313,13.4638456 15.1952488,13.4545455 13.011107,13.4545455 L7.17071119,13.4545455 C4.98666946,13.4545455 3.35903704,13.4638456 2.3304106,14.5436774 C2.28055099,14.5954102 2.25219995,14.6553562 2.24242424,14.7169441 C3.85189176,16.9414812 6.76515707,19.0606061 10.0910492,19.0606061 Z" id="Path" fill="#FFFFFE"></path>
                            </g>
                        </g>
                    </g>
                </g>
                <g id="Dynamic-Border" stroke="#1D8E96" stroke-width="4">
                    <rect id="Azure-Border" x="2" y="2" width="96" height="96" rx="48"></rect>
                </g>
            </g>
        </g>
    </g>
</svg>