<?xml version="1.0" encoding="UTF-8"?>
<svg width="101px" height="101px" viewBox="0 0 101 101" version="1.1" xmlns="http://www.w3.org/2000/svg" xmlns:xlink="http://www.w3.org/1999/xlink">
    <!-- Generator: Sketch 63.1 (92452) - https://sketch.com -->
    <title>Discover the Foundation of Customizing Microsoft Dynamics 365 Business Central/Work-with-pages-in-Dynamics-365-Business-Central</title>
    <desc>Created with Sketch.</desc>
    <defs>
        <rect id="path-1" x="0" y="0" width="94.3396226" height="94.3396226" rx="47.1698113"></rect>
        <linearGradient x1="77.8299825%" y1="11.1997378%" x2="-99.6885927%" y2="253.807911%" id="linearGradient-3">
            <stop stop-color="#FFFFFF" offset="0%"></stop>
            <stop stop-color="#000000" stop-opacity="0.5" offset="100%"></stop>
        </linearGradient>
        <rect id="path-4" x="0" y="0" width="94.3396226" height="94.3396226"></rect>
        <rect id="path-5" x="0" y="0" width="100" height="100" rx="50"></rect>
        <filter x="-0.5%" y="-0.5%" width="102.0%" height="102.0%" filterUnits="objectBoundingBox" id="filter-6">
            <feOffset dx="1" dy="1" in="SourceAlpha" result="shadowOffsetOuter1"></feOffset>
            <feMorphology radius="4" operator="erode" in="SourceAlpha" result="shadowInner"></feMorphology>
            <feOffset dx="1" dy="1" in="shadowInner" result="shadowInner"></feOffset>
            <feComposite in="shadowOffsetOuter1" in2="shadowInner" operator="out" result="shadowOffsetOuter1"></feComposite>
            <feColorMatrix values="0 0 0 0 0   0 0 0 0 0   0 0 0 0 0  0 0 0 0.15 0" type="matrix" in="shadowOffsetOuter1"></feColorMatrix>
        </filter>
        <path d="M50,2.83018868 C76.0511674,2.83018868 97.1698113,23.9488326 97.1698113,50 C97.1698113,76.0511674 76.0511674,97.1698113 50,97.1698113 C23.9488326,97.1698113 2.83018868,76.0511674 2.83018868,50 C2.83018868,23.9488326 23.9488326,2.83018868 50,2.83018868 Z M50,6.60377358 C26.032926,6.60377358 6.60377358,26.032926 6.60377358,50 C6.60377358,73.967074 26.032926,93.3962264 50,93.3962264 C73.967074,93.3962264 93.3962264,73.967074 93.3962264,50 C93.3962264,26.032926 73.967074,6.60377358 50,6.60377358 Z" id="path-7"></path>
        <linearGradient x1="50%" y1="100%" x2="50%" y2="0%" id="linearGradient-9">
            <stop stop-color="#D2EBFF" offset="0%"></stop>
            <stop stop-color="#F0FFFD" offset="100%"></stop>
        </linearGradient>
        <linearGradient x1="50%" y1="100%" x2="50%" y2="0%" id="linearGradient-10">
            <stop stop-color="#CCCCCC" offset="15%"></stop>
            <stop stop-color="#707070" offset="100%"></stop>
        </linearGradient>
        <filter x="-42.9%" y="-44.4%" width="185.7%" height="188.9%" filterUnits="objectBoundingBox" id="filter-11">
            <feOffset dx="0" dy="2" in="SourceAlpha" result="shadowOffsetOuter1"></feOffset>
            <feGaussianBlur stdDeviation="2" in="shadowOffsetOuter1" result="shadowBlurOuter1"></feGaussianBlur>
            <feColorMatrix values="0 0 0 0 0   0 0 0 0 0   0 0 0 0 0  0 0 0 0.1 0" type="matrix" in="shadowBlurOuter1" result="shadowMatrixOuter1"></feColorMatrix>
            <feMerge>
                <feMergeNode in="shadowMatrixOuter1"></feMergeNode>
                <feMergeNode in="SourceGraphic"></feMergeNode>
            </feMerge>
        </filter>
        <path d="M1.98357895,0 C1.04447368,0 0.283315789,0.685914894 0.283315789,1.53191489 L0.283315789,1.53191489 L0.283315789,16.4680851 C0.283315789,17.3140851 1.04447368,18 1.98357895,18 L1.98357895,18 L26.2146316,18 C27.1537368,18 27.9152632,17.3140851 27.9152632,16.4680851 L27.9152632,16.4680851 L27.9152632,1.53191489 C27.9152632,0.685914894 27.1537368,0 26.2146316,0 L26.2146316,0 L1.98357895,0 Z" id="path-12"></path>
        <linearGradient x1="50%" y1="-7.83969624%" x2="50%" y2="136.746848%" id="linearGradient-14">
            <stop stop-color="#FFD70F" offset="0%"></stop>
            <stop stop-color="#EEB309" offset="34%"></stop>
            <stop stop-color="#DC8C03" offset="77%"></stop>
            <stop stop-color="#D57D01" offset="100%"></stop>
        </linearGradient>
        <linearGradient x1="50%" y1="0%" x2="50%" y2="100%" id="linearGradient-15">
            <stop stop-color="#E55E14" offset="0%"></stop>
            <stop stop-color="#F59051" offset="100%"></stop>
        </linearGradient>
        <linearGradient x1="50%" y1="0%" x2="50%" y2="100%" id="linearGradient-16">
            <stop stop-color="#F59051" offset="0%"></stop>
            <stop stop-color="#E55E14" offset="100%"></stop>
        </linearGradient>
        <linearGradient x1="50%" y1="-9.93901477%" x2="50%" y2="100%" id="linearGradient-17">
            <stop stop-color="#FFFFFF" offset="0%"></stop>
            <stop stop-color="#EFEFEF" offset="100%"></stop>
        </linearGradient>
        <path d="M15.7418875,19.0831959 L12.5965256,19.0831959 C12.3253869,19.0831959 12.1034421,18.8626486 12.1034421,18.593217 L12.1034421,13.8889644 C12.1034421,13.6195328 12.3253869,13.3989854 12.5965256,13.3989854 L15.7418875,13.3989854 C16.0130262,13.3989854 16.2345896,13.6195328 16.2345896,13.8889644 L16.2345896,18.593217 C16.2345896,18.8626486 16.0130262,19.0831959 15.7418875,19.0831959" id="path-18"></path>
        <filter x="-12.1%" y="-8.8%" width="124.2%" height="135.2%" filterUnits="objectBoundingBox" id="filter-19">
            <feOffset dx="0" dy="1" in="SourceAlpha" result="shadowOffsetOuter1"></feOffset>
            <feColorMatrix values="0 0 0 0 0   0 0 0 0 0   0 0 0 0 0  0 0 0 0.1 0" type="matrix" in="shadowOffsetOuter1"></feColorMatrix>
        </filter>
        <linearGradient x1="50%" y1="2.04550253%" x2="50%" y2="100%" id="linearGradient-20">
            <stop stop-color="#FFE02A" offset="0%"></stop>
            <stop stop-color="#FFB518" offset="100%"></stop>
        </linearGradient>
    </defs>
    <g id="Badges" stroke="none" stroke-width="1" fill="none" fill-rule="evenodd">
        <g id="Discover-the-Foundation-of-Customizing-Microsoft-Dynamics-365-Business-Central" transform="translate(-160.000000, -890.000000)">
            <g id="Discover-the-Foundation-of-Customizing-Microsoft-Dynamics-365-Business-Central/Work-with-pages-in-Dynamics-365-Business-Central" transform="translate(160.000000, 890.000000)">
                <g id="Badge-Plates/Circle">
                    <g id="BG" transform="translate(2.830189, 2.830189)">
                        <mask id="mask-2" fill="white">
                            <use xlink:href="#path-1"></use>
                        </mask>
                        <g></g>
                        <g id="Colors/Microsoft-365/BG-Solid-Badge" mask="url(#mask-2)">
                            <g id="Rectangle">
                                <use fill="#0078D4" xlink:href="#path-4"></use>
                                <use fill-opacity="0.4" fill="url(#linearGradient-3)" xlink:href="#path-4"></use>
                            </g>
                        </g>
                    </g>
                    <g id="Border">
                        <g id="White-Border">
                            <use fill="black" fill-opacity="1" filter="url(#filter-6)" xlink:href="#path-5"></use>
                            <rect stroke="#F2F1F0" stroke-width="4" stroke-linejoin="square" x="2" y="2" width="96" height="96" rx="48"></rect>
                        </g>
                        <mask id="mask-8" fill="white">
                            <use xlink:href="#path-7"></use>
                        </mask>
                        <use id="Boarder" fill="#0078D4" fill-rule="nonzero" xlink:href="#path-7"></use>
                        <g id="Colors/Microsoft-365/Border" mask="url(#mask-8)" fill="#0076D7">
                            <g transform="translate(2.830189, 2.830189)" id="Microsoft-365/Border">
                                <rect x="0" y="0" width="94.3396226" height="94.3396226"></rect>
                            </g>
                        </g>
                    </g>
                </g>
                <g id="Computer" transform="translate(22.000000, 26.000000)" fill-rule="nonzero">
                    <rect id="Rectangle" fill="url(#linearGradient-9)" x="0" y="0" width="55" height="38" rx="0.6"></rect>
                    <path d="M39.2310644,49.7602592 C33.6933097,48.8531317 33.4755328,44.7062635 33.4755328,38 L22.4933562,38 C22.4933562,44.7062635 22.3066903,48.8531317 16.7689356,49.7602592 C15.185589,49.9427055 13.9903944,51.3411498 14,53 L42,53 C42.0096056,51.3411498 40.814411,49.9427055 39.2310644,49.7602592 Z" id="Path" fill="url(#linearGradient-10)"></path>
                </g>
                <g id="Briefcase" transform="translate(36.000000, 32.000000)">
                    <g id="Group" filter="url(#filter-11)">
                        <g id="Group-5" transform="translate(0.000000, 7.241091)">
                            <mask id="mask-13" fill="white">
                                <use xlink:href="#path-12"></use>
                            </mask>
                            <g id="Clip-4"></g>
                            <polygon id="Fill-3" fill="url(#linearGradient-14)" mask="url(#mask-13)" points="-1.84210526 19.9148936 30.0403158 19.9148936 30.0403158 -1.91489362 -1.84210526 -1.91489362"></polygon>
                        </g>
                        <path d="M14.5800421,15.3292296 C8.80946316,15.3292296 3.66114737,13.9638823 0.283463158,11.8281349 L0.283463158,23.238998 C0.283463158,24.9203875 1.60867368,26.2830823 3.24335789,26.2830823 L24.9551474,26.2830823 C26.5898316,26.2830823 27.9150421,24.9203875 27.9150421,23.238998 L27.9150421,12.3874612 C24.5598316,14.1988296 19.8282,15.3292296 14.5800421,15.3292296" id="Fill-6" fill="url(#linearGradient-15)"></path>
                        <path d="M14.5800421,17.1995238 C8.80946316,17.1995238 3.66114737,15.9914894 0.283463158,14.1018191 L0.283463158,25.5136038 C0.283463158,26.2743671 0.961357895,26.8912928 1.79730526,26.8912928 L26.4008316,26.8912928 C27.2371474,26.8912928 27.9150421,26.2743671 27.9150421,25.5136038 L27.9150421,14.5967008 C24.5598316,16.1993665 19.8282,17.1995238 14.5800421,17.1995238" id="Fill-8" fill="url(#linearGradient-16)"></path>
                        <g id="Fill-10">
                            <use fill="black" fill-opacity="1" filter="url(#filter-19)" xlink:href="#path-18"></use>
                            <use fill="url(#linearGradient-17)" fill-rule="evenodd" xlink:href="#path-18"></use>
                        </g>
                        <path d="M23.3097053,7.29473684 L21.4676,7.29473684 C21.4676,4.31734737 18.1621263,1.89473684 14.0991789,1.89473684 C10.0362316,1.89473684 6.73075789,4.31734737 6.73075789,7.29473684 L4.88865263,7.29473684 C4.88865263,3.27258947 9.02049474,4.79616347e-14 14.0991789,4.79616347e-14 C19.1778632,4.79616347e-14 23.3097053,3.27258947 23.3097053,7.29473684" id="Fill-12" fill="url(#linearGradient-20)"></path>
                    </g>
                </g>
            </g>
        </g>
    </g>
</svg>