<?xml version="1.0" encoding="UTF-8"?>
<svg width="102px" height="102px" viewBox="0 0 102 102" version="1.1" xmlns="http://www.w3.org/2000/svg" xmlns:xlink="http://www.w3.org/1999/xlink">
    <title>Work with essential development standards for Microsoft Dynamics 365 Business Central/work-with-master-data-in-dynamics-365-business-central</title>
    <defs>
        <rect id="path-1" x="0" y="0" width="94.3396226" height="94.3396226" rx="47.1698113"></rect>
        <filter x="-2.9%" y="-2.9%" width="106.4%" height="106.4%" filterUnits="objectBoundingBox" id="filter-3">
            <feMorphology radius="2.5" operator="dilate" in="SourceAlpha" result="shadowSpreadOuter1"></feMorphology>
            <feOffset dx="0.5" dy="0.5" in="shadowSpreadOuter1" result="shadowOffsetOuter1"></feOffset>
            <feMorphology radius="1" operator="erode" in="SourceAlpha" result="shadowInner"></feMorphology>
            <feOffset dx="0.5" dy="0.5" in="shadowInner" result="shadowInner"></feOffset>
            <feComposite in="shadowOffsetOuter1" in2="shadowInner" operator="out" result="shadowOffsetOuter1"></feComposite>
            <feColorMatrix values="0 0 0 0 0.821822822   0 0 0 0 0.831640661   0 0 0 0 0.835737288  0 0 0 1 0" type="matrix" in="shadowOffsetOuter1"></feColorMatrix>
        </filter>
        <linearGradient x1="77.8299825%" y1="11.1997378%" x2="-99.6885927%" y2="253.807911%" id="linearGradient-4">
            <stop stop-color="#FFFFFF" offset="0%"></stop>
            <stop stop-color="#000000" stop-opacity="0.5" offset="100%"></stop>
        </linearGradient>
        <rect id="path-5" x="0" y="0" width="94.3396226" height="94.3396226"></rect>
        <path d="M47.1698113,0 C73.2209788,0 94.3396226,21.1186439 94.3396226,47.1698113 C94.3396226,73.2209788 73.2209788,94.3396226 47.1698113,94.3396226 C21.1186439,94.3396226 0,73.2209788 0,47.1698113 C0,21.1186439 21.1186439,0 47.1698113,0 Z M47.1698113,3.77358491 C23.2027373,3.77358491 3.77358491,23.2027373 3.77358491,47.1698113 C3.77358491,71.1368854 23.2027373,90.5660377 47.1698113,90.5660377 C71.1368854,90.5660377 90.5660377,71.1368854 90.5660377,47.1698113 C90.5660377,23.2027373 71.1368854,3.77358491 47.1698113,3.77358491 Z" id="path-6"></path>
        <filter x="-30.8%" y="-23.5%" width="161.5%" height="147.1%" filterUnits="objectBoundingBox" id="filter-8">
            <feOffset dx="0" dy="2" in="SourceAlpha" result="shadowOffsetOuter1"></feOffset>
            <feGaussianBlur stdDeviation="2" in="shadowOffsetOuter1" result="shadowBlurOuter1"></feGaussianBlur>
            <feColorMatrix values="0 0 0 0 0   0 0 0 0 0   0 0 0 0 0  0 0 0 0.1 0" type="matrix" in="shadowBlurOuter1" result="shadowMatrixOuter1"></feColorMatrix>
            <feMerge>
                <feMergeNode in="shadowMatrixOuter1"></feMergeNode>
                <feMergeNode in="SourceGraphic"></feMergeNode>
            </feMerge>
        </filter>
        <linearGradient x1="-1.00359143e-14%" y1="50%" x2="100%" y2="50%" id="linearGradient-9">
            <stop stop-color="#32BEDD" offset="0%"></stop>
            <stop stop-color="#37C5E3" offset="6%"></stop>
            <stop stop-color="#49DDF7" offset="30%"></stop>
            <stop stop-color="#50E6FF" offset="45%"></stop>
            <stop stop-color="#50E6FF" offset="55%"></stop>
            <stop stop-color="#49DDF7" offset="70%"></stop>
            <stop stop-color="#37C5E3" offset="94%"></stop>
            <stop stop-color="#32BEDD" offset="100%"></stop>
        </linearGradient>
        <linearGradient x1="50%" y1="100%" x2="50%" y2="0%" id="linearGradient-10">
            <stop stop-color="#D2EBFF" offset="0%"></stop>
            <stop stop-color="#F0FFFD" offset="100%"></stop>
        </linearGradient>
        <filter x="-66.7%" y="-66.7%" width="233.3%" height="233.3%" filterUnits="objectBoundingBox" id="filter-11">
            <feOffset dx="0" dy="2" in="SourceAlpha" result="shadowOffsetOuter1"></feOffset>
            <feGaussianBlur stdDeviation="2" in="shadowOffsetOuter1" result="shadowBlurOuter1"></feGaussianBlur>
            <feColorMatrix values="0 0 0 0 0   0 0 0 0 0   0 0 0 0 0  0 0 0 0.1 0" type="matrix" in="shadowBlurOuter1" result="shadowMatrixOuter1"></feColorMatrix>
            <feMerge>
                <feMergeNode in="shadowMatrixOuter1"></feMergeNode>
                <feMergeNode in="SourceGraphic"></feMergeNode>
            </feMerge>
        </filter>
        <linearGradient x1="50%" y1="0%" x2="50%" y2="100%" id="linearGradient-12">
            <stop stop-color="#1E5CA5" offset="0%"></stop>
            <stop stop-color="#225496" offset="100%"></stop>
        </linearGradient>
        <path d="M17.625,9.81481481 L17.625,7.74074074 L15.5934917,7 L15.0945248,5.59259259 L16.0924587,3.40740741 L16.0924587,3.18518519 L15.4509298,2.51851852 L14.7024793,1.62962963 L14.4173554,1.62962963 L12.4214876,2.74074074 L11.0671488,2.33333333 L10.1761364,0 L8.21590909,0 L7.53873967,2.11111111 L6.04183884,2.74074074 L3.72520661,1.59259259 L2.33522727,3.03703704 L2.33522727,3.2962963 L3.36880165,5.37037037 L2.76291322,6.92592593 L0.375,7.85185185 L0.375,9.92592593 L0.660123967,9.92592593 L2.76291322,10.6666667 L3.33316116,12.0740741 L2.26394628,14.4814815 L3.65392562,15.962963 L3.93904959,15.962963 L5.89927686,14.9259259 L7.2892562,15.5185185 L8.1446281,18 L10.1404959,18 L10.1404959,17.7037037 L10.8176653,15.4814815 L12.1720041,14.8888889 L14.5242769,16.037037 L15.9142562,14.5925926 L15.9142562,14.2962963 L14.9163223,12.2222222 L15.3083678,10.7777778 L17.625,9.81481481 Z M9.14294789,11.5711889 C7.65791911,11.4048054 6.53571429,10.159765 6.53571429,8.67856988 C6.53571429,7.19737477 7.65791911,5.95233441 9.14294789,5.78595083 C9.91849411,5.77609555 10.6657049,6.07455531 11.217626,6.61464326 C11.7695471,7.1547312 12.0801791,7.89143412 12.0801154,8.66014556 L12.0801154,8.66014556 C12.0902074,9.4352253 11.7839985,10.1814863 11.2309699,10.7295961 C10.6779414,11.2777059 9.9249833,11.5811912 9.14294789,11.5711889 Z" id="path-13"></path>
        <filter x="0.0%" y="0.0%" width="100.0%" height="100.0%" filterUnits="objectBoundingBox" id="filter-14">
            <feOffset dx="0" dy="0" in="SourceAlpha" result="shadowOffsetOuter1"></feOffset>
            <feColorMatrix values="0 0 0 0 0   0 0 0 0 0   0 0 0 0 0  0 0 0 0.1 0" type="matrix" in="shadowOffsetOuter1"></feColorMatrix>
        </filter>
        <linearGradient x1="50%" y1="0%" x2="50%" y2="100%" id="linearGradient-15">
            <stop stop-color="#B3DC93" offset="0%"></stop>
            <stop stop-color="#7CB65A" offset="100%"></stop>
        </linearGradient>
    </defs>
    <g id="Badges" stroke="none" stroke-width="1" fill="none" fill-rule="evenodd">
        <g id="Work-with-essential-development-standards-for-Microsoft-Dynamics-365-Business-Central" transform="translate(-159.000000, -509.000000)">
            <g id="Work-with-essential-development-standards-for-Microsoft-Dynamics-365-Business-Central/work-with-master-data-in-dynamics-365-business-central" transform="translate(160.000000, 510.000000)">
                <g id="Badge-Plates/Circle">
                    <g id="BG" transform="translate(2.830189, 2.830189)">
                        <mask id="mask-2" fill="white">
                            <use xlink:href="#path-1"></use>
                        </mask>
                        <g>
                            <use fill="black" fill-opacity="1" filter="url(#filter-3)" xlink:href="#path-1"></use>
                            <rect stroke="#F2F1F0" stroke-width="2.5" x="-1.25" y="-1.25" width="96.8396226" height="96.8396226" rx="48.4198113"></rect>
                        </g>
                        <g id="Colors/Microsoft-365/BG-Solid-Badge" mask="url(#mask-2)">
                            <g id="Rectangle">
                                <use fill="#0078D4" xlink:href="#path-5"></use>
                                <use fill-opacity="0.4" fill="url(#linearGradient-4)" xlink:href="#path-5"></use>
                            </g>
                        </g>
                    </g>
                    <g id="Border" transform="translate(2.830189, 2.830189)">
                        <mask id="mask-7" fill="white">
                            <use xlink:href="#path-6"></use>
                        </mask>
                        <use id="Boarder" fill="#0078D4" fill-rule="nonzero" xlink:href="#path-6"></use>
                        <g id="Colors/Microsoft-365/Border" mask="url(#mask-7)" fill="#0076D7">
                            <rect id="Microsoft-365/Border" x="0" y="0" width="94.3396226" height="94.3396226"></rect>
                        </g>
                    </g>
                </g>
                <g id="Group-6" transform="translate(24.000000, 21.000000)">
                    <g id="Database" filter="url(#filter-8)" fill-rule="nonzero">
                        <path d="M19.5220339,12.2713004 C8.72542373,12.2713004 0,9.02242152 0,5 L0,43.7286996 C0,47.6995516 8.81355932,50.9484305 19.2576271,51 L19.5220339,51 C30.2745763,51 39,47.7511211 39,43.7286996 L39,5 C39,9.02242152 30.2745763,12.2713004 19.5220339,12.2713004 Z" id="Path" fill="url(#linearGradient-9)"></path>
                        <path d="M39,7 C39,10.8723404 30.1864407,14 19.5220339,14 C8.85762712,14 0,10.8723404 0,7 C0,3.12765957 8.81355932,0 19.5220339,0 C30.2305085,0 39,3.12765957 39,7" id="Path" fill="#E8E8E8"></path>
                        <path d="M19.5213549,10 C11.5346097,10 5,8.63333333 5,7 C5,5.36666667 11.4918999,4 19.5213549,4 C27.55081,4 34,5.33333333 34,7 C34,8.63333333 27.5081001,10 19.5213549,10 Z" id="Path" fill="#50E6FF"></path>
                        <path d="M6,7.41321472 C7.43637116,8.54108212 9.17930595,9.99536691 20.0392061,9.99119734 C26.0058602,10.0829278 30.7640158,9.46881038 34,7.62735168 C29.8850684,6.44763379 24.3115526,5.92328169 20.0392061,6.01811195 C15.7665,5.91615764 10.1135479,6.22650526 6,7.41321472 Z" id="Path" fill="#32BEDD"></path>
                    </g>
                    <g id="Group-18" transform="translate(20.000000, 18.000000)" fill-rule="nonzero">
                        <g id="Group">
                            <path d="M18.1307383,0.0354399824 L1.52805393,0.0354399824 C0.801132746,0.0354399824 0.21184669,0.620653037 0.21184669,1.34254992 L0.21184669,36.6574501 C0.21184669,37.379347 0.801132746,37.96456 1.52805393,37.96456 L30.1151516,37.96456 C30.8420728,37.96456 31.4313589,37.379347 31.4313589,36.6574501 L31.4313589,13.2899934 C31.4313589,12.5680965 30.8420728,11.9828835 30.1151516,11.9828835 L20.6246047,11.9828835 C19.9104365,11.9828835 19.3314888,11.4079373 19.3314888,10.6987053 L19.3314888,1.34254992 C19.345534,0.658845693 18.8175956,0.0841438989 18.1307383,0.0354399824 Z" id="Path" fill="url(#linearGradient-10)"></path>
                            <path d="M31.6097561,12.7959184 L18.7317073,0 L18.7317073,10.3678504 C18.7317073,11.7088353 19.819575,12.7959184 21.1615278,12.7959184 L31.6097561,12.7959184 Z" id="Path" fill="#92C4FC"></path>
                        </g>
                    </g>
                    <g id="Group-4" transform="translate(22.000000, 20.000000)" fill="#4B95E8" fill-rule="nonzero">
                        <path d="M1.47922363,16 L1.47922363,12.7788086 L1.2638916,12.7788086 C1.18039551,12.8388672 1.09946289,12.892334 1.02109375,12.939209 C0.942724609,12.986084 0.865087891,13.0285645 0.788183594,13.0666504 C0.711279297,13.1047363 0.633276367,13.1391602 0.554174805,13.1699219 C0.475073242,13.2006836 0.393041992,13.2299805 0.308081055,13.2578125 L0.308081055,13.2578125 L0.308081055,13.6928711 C0.444311523,13.6577148 0.565527344,13.6170654 0.671728516,13.5709229 C0.777929688,13.5247803 0.877172852,13.46875 0.969458008,13.402832 L0.969458008,13.402832 L0.969458008,16 L1.47922363,16 Z M3.67354004,16.0527344 C4.02510254,16.0527344 4.29866211,15.9124756 4.49421875,15.631958 C4.68977539,15.3514404 4.78755371,14.9445801 4.78755371,14.411377 C4.78755371,13.3347168 4.44111816,12.7963867 3.74824707,12.7963867 C3.38643066,12.7963867 3.1095752,12.939209 2.91768066,13.2248535 C2.72578613,13.510498 2.62983887,13.9316406 2.62983887,14.4882812 C2.62983887,14.9951172 2.72175781,15.3825684 2.9055957,15.6506348 C3.08943359,15.9187012 3.34541504,16.0527344 3.67354004,16.0527344 Z M3.71309082,15.6484375 C3.33809082,15.6484375 3.15059082,15.2543945 3.15059082,14.4663086 C3.15059082,13.6240234 3.34175293,13.2028809 3.72407715,13.2028809 C4.08589355,13.2028809 4.26680176,13.6174316 4.26680176,14.4465332 C4.26680176,15.2478027 4.08223145,15.6484375 3.71309082,15.6484375 Z M6.82806152,16 L6.82806152,12.7788086 L6.61272949,12.7788086 C6.5292334,12.8388672 6.44830078,12.892334 6.36993164,12.939209 C6.2915625,12.986084 6.21392578,13.0285645 6.13702148,13.0666504 C6.06011719,13.1047363 5.98211426,13.1391602 5.9030127,13.1699219 C5.82391113,13.2006836 5.74187988,13.2299805 5.65691895,13.2578125 L5.65691895,13.2578125 L5.65691895,13.6928711 C5.79314941,13.6577148 5.91436523,13.6170654 6.02056641,13.5709229 C6.12676758,13.5247803 6.22601074,13.46875 6.3182959,13.402832 L6.3182959,13.402832 L6.3182959,16 L6.82806152,16 Z M9.02237793,16.0527344 C9.37394043,16.0527344 9.6475,15.9124756 9.84305664,15.631958 C10.0386133,15.3514404 10.1363916,14.9445801 10.1363916,14.411377 C10.1363916,13.3347168 9.78995605,12.7963867 9.09708496,12.7963867 C8.73526855,12.7963867 8.45841309,12.939209 8.26651855,13.2248535 C8.07462402,13.510498 7.97867676,13.9316406 7.97867676,14.4882812 C7.97867676,14.9951172 8.0705957,15.3825684 8.25443359,15.6506348 C8.43827148,15.9187012 8.69425293,16.0527344 9.02237793,16.0527344 Z M9.06192871,15.6484375 C8.68692871,15.6484375 8.49942871,15.2543945 8.49942871,14.4663086 C8.49942871,13.6240234 8.69059082,13.2028809 9.07291504,13.2028809 C9.43473145,13.2028809 9.61563965,13.6174316 9.61563965,14.4465332 C9.61563965,15.2478027 9.43106934,15.6484375 9.06192871,15.6484375 Z M12.1768994,16 L12.1768994,12.7788086 L11.9615674,12.7788086 C11.8780713,12.8388672 11.7971387,12.892334 11.7187695,12.939209 C11.6404004,12.986084 11.5627637,13.0285645 11.4858594,13.0666504 C11.4089551,13.1047363 11.3309521,13.1391602 11.2518506,13.1699219 C11.172749,13.2006836 11.0907178,13.2299805 11.0057568,13.2578125 L11.0057568,13.2578125 L11.0057568,13.6928711 C11.1419873,13.6577148 11.2632031,13.6170654 11.3694043,13.5709229 C11.4756055,13.5247803 11.5748486,13.46875 11.6671338,13.402832 L11.6671338,13.402832 L11.6671338,16 L12.1768994,16 Z M14.3712158,16.0527344 C14.7227783,16.0527344 14.9963379,15.9124756 15.1918945,15.631958 C15.3874512,15.3514404 15.4852295,14.9445801 15.4852295,14.411377 C15.4852295,13.3347168 15.1387939,12.7963867 14.4459229,12.7963867 C14.0841064,12.7963867 13.807251,12.939209 13.6153564,13.2248535 C13.4234619,13.510498 13.3275146,13.9316406 13.3275146,14.4882812 C13.3275146,14.9951172 13.4194336,15.3825684 13.6032715,15.6506348 C13.7871094,15.9187012 14.0430908,16.0527344 14.3712158,16.0527344 Z M14.4107666,15.6484375 C14.0357666,15.6484375 13.8482666,15.2543945 13.8482666,14.4663086 C13.8482666,13.6240234 14.0394287,13.2028809 14.4217529,13.2028809 C14.7835693,13.2028809 14.9644775,13.6174316 14.9644775,14.4465332 C14.9644775,15.2478027 14.7799072,15.6484375 14.4107666,15.6484375 Z M17.5257373,16 L17.5257373,12.7788086 L17.3104053,12.7788086 C17.2269092,12.8388672 17.1459766,12.892334 17.0676074,12.939209 C16.9892383,12.986084 16.9116016,13.0285645 16.8346973,13.0666504 C16.757793,13.1047363 16.67979,13.1391602 16.6006885,13.1699219 C16.5215869,13.2006836 16.4395557,13.2299805 16.3545947,13.2578125 L16.3545947,13.2578125 L16.3545947,13.6928711 C16.4908252,13.6577148 16.612041,13.6170654 16.7182422,13.5709229 C16.8244434,13.5247803 16.9236865,13.46875 17.0159717,13.402832 L17.0159717,13.402832 L17.0159717,16 L17.5257373,16 Z M19.7200537,16.0527344 C20.0716162,16.0527344 20.3451758,15.9124756 20.5407324,15.631958 C20.7362891,15.3514404 20.8340674,14.9445801 20.8340674,14.411377 C20.8340674,13.3347168 20.4876318,12.7963867 19.7947607,12.7963867 C19.4329443,12.7963867 19.1560889,12.939209 18.9641943,13.2248535 C18.7722998,13.510498 18.6763525,13.9316406 18.6763525,14.4882812 C18.6763525,14.9951172 18.7682715,15.3825684 18.9521094,15.6506348 C19.1359473,15.9187012 19.3919287,16.0527344 19.7200537,16.0527344 Z M19.7596045,15.6484375 C19.3846045,15.6484375 19.1971045,15.2543945 19.1971045,14.4663086 C19.1971045,13.6240234 19.3882666,13.2028809 19.7705908,13.2028809 C20.1324072,13.2028809 20.3133154,13.6174316 20.3133154,14.4465332 C20.3133154,15.2478027 20.1287451,15.6484375 19.7596045,15.6484375 Z M22.8745752,16 L22.8745752,12.7788086 L22.6592432,12.7788086 C22.5757471,12.8388672 22.4948145,12.892334 22.4164453,12.939209 C22.3380762,12.986084 22.2604395,13.0285645 22.1835352,13.0666504 C22.1066309,13.1047363 22.0286279,13.1391602 21.9495264,13.1699219 C21.8704248,13.2006836 21.7883936,13.2299805 21.7034326,13.2578125 L21.7034326,13.2578125 L21.7034326,13.6928711 C21.8396631,13.6577148 21.9608789,13.6170654 22.0670801,13.5709229 C22.1732813,13.5247803 22.2725244,13.46875 22.3648096,13.402832 L22.3648096,13.402832 L22.3648096,16 L22.8745752,16 Z M25.0688916,16.0527344 C25.4204541,16.0527344 25.6940137,15.9124756 25.8895703,15.631958 C26.085127,15.3514404 26.1829053,14.9445801 26.1829053,14.411377 C26.1829053,13.3347168 25.8364697,12.7963867 25.1435986,12.7963867 C24.7817822,12.7963867 24.5049268,12.939209 24.3130322,13.2248535 C24.1211377,13.510498 24.0251904,13.9316406 24.0251904,14.4882812 C24.0251904,14.9951172 24.1171094,15.3825684 24.3009473,15.6506348 C24.4847852,15.9187012 24.7407666,16.0527344 25.0688916,16.0527344 Z M25.1084424,15.6484375 C24.7334424,15.6484375 24.5459424,15.2543945 24.5459424,14.4663086 C24.5459424,13.6240234 24.7371045,13.2028809 25.1194287,13.2028809 C25.4812451,13.2028809 25.6621533,13.6174316 25.6621533,14.4465332 C25.6621533,15.2478027 25.477583,15.6484375 25.1084424,15.6484375 Z" id="1010101010"></path>
                        <path d="M1.35131836,4 L1.35131836,0.778808594 L1.13598633,0.778808594 C1.05249023,0.838867188 0.971557617,0.892333984 0.893188477,0.939208984 C0.814819336,0.986083984 0.737182617,1.02856445 0.66027832,1.06665039 C0.583374023,1.10473633 0.505371094,1.13916016 0.426269531,1.16992188 C0.347167969,1.20068359 0.265136719,1.22998047 0.180175781,1.2578125 L0.180175781,1.2578125 L0.180175781,1.69287109 C0.31640625,1.65771484 0.43762207,1.61706543 0.543823242,1.57092285 C0.650024414,1.52478027 0.749267578,1.46875 0.841552734,1.40283203 L0.841552734,1.40283203 L0.841552734,4 L1.35131836,4 Z M3.54563477,4.05273438 C3.89719727,4.05273438 4.17075684,3.91247559 4.36631348,3.63195801 C4.56187012,3.35144043 4.65964844,2.94458008 4.65964844,2.41137695 C4.65964844,1.3347168 4.31321289,0.796386719 3.6203418,0.796386719 C3.25852539,0.796386719 2.98166992,0.939208984 2.78977539,1.22485352 C2.59788086,1.51049805 2.50193359,1.93164062 2.50193359,2.48828125 C2.50193359,2.99511719 2.59385254,3.38256836 2.77769043,3.65063477 C2.96152832,3.91870117 3.21750977,4.05273438 3.54563477,4.05273438 Z M3.58518555,3.6484375 C3.21018555,3.6484375 3.02268555,3.25439453 3.02268555,2.46630859 C3.02268555,1.62402344 3.21384766,1.20288086 3.59617188,1.20288086 C3.95798828,1.20288086 4.13889648,1.61743164 4.13889648,2.4465332 C4.13889648,3.24780273 3.95432617,3.6484375 3.58518555,3.6484375 Z M6.70015625,4 L6.70015625,0.778808594 L6.48482422,0.778808594 C6.40132812,0.838867188 6.32039551,0.892333984 6.24202637,0.939208984 C6.16365723,0.986083984 6.08602051,1.02856445 6.00911621,1.06665039 C5.93221191,1.10473633 5.85420898,1.13916016 5.77510742,1.16992188 C5.69600586,1.20068359 5.61397461,1.22998047 5.52901367,1.2578125 L5.52901367,1.2578125 L5.52901367,1.69287109 C5.66524414,1.65771484 5.78645996,1.61706543 5.89266113,1.57092285 C5.9988623,1.52478027 6.09810547,1.46875 6.19039062,1.40283203 L6.19039062,1.40283203 L6.19039062,4 L6.70015625,4 Z M8.89447266,4.05273438 C9.24603516,4.05273438 9.51959473,3.91247559 9.71515137,3.63195801 C9.91070801,3.35144043 10.0084863,2.94458008 10.0084863,2.41137695 C10.0084863,1.3347168 9.66205078,0.796386719 8.96917969,0.796386719 C8.60736328,0.796386719 8.33050781,0.939208984 8.13861328,1.22485352 C7.94671875,1.51049805 7.85077148,1.93164062 7.85077148,2.48828125 C7.85077148,2.99511719 7.94269043,3.38256836 8.12652832,3.65063477 C8.31036621,3.91870117 8.56634766,4.05273438 8.89447266,4.05273438 Z M8.93402344,3.6484375 C8.55902344,3.6484375 8.37152344,3.25439453 8.37152344,2.46630859 C8.37152344,1.62402344 8.56268555,1.20288086 8.94500977,1.20288086 C9.30682617,1.20288086 9.48773438,1.61743164 9.48773438,2.4465332 C9.48773438,3.24780273 9.30316406,3.6484375 8.93402344,3.6484375 Z M12.0489941,4 L12.0489941,0.778808594 L11.8336621,0.778808594 C11.750166,0.838867188 11.6692334,0.892333984 11.5908643,0.939208984 C11.5124951,0.986083984 11.4348584,1.02856445 11.3579541,1.06665039 C11.2810498,1.10473633 11.2030469,1.13916016 11.1239453,1.16992188 C11.0448438,1.20068359 10.9628125,1.22998047 10.8778516,1.2578125 L10.8778516,1.2578125 L10.8778516,1.69287109 C11.014082,1.65771484 11.1352979,1.61706543 11.241499,1.57092285 C11.3477002,1.52478027 11.4469434,1.46875 11.5392285,1.40283203 L11.5392285,1.40283203 L11.5392285,4 L12.0489941,4 Z M14.2433105,4.05273438 C14.594873,4.05273438 14.8684326,3.91247559 15.0639893,3.63195801 C15.2595459,3.35144043 15.3573242,2.94458008 15.3573242,2.41137695 C15.3573242,1.3347168 15.0108887,0.796386719 14.3180176,0.796386719 C13.9562012,0.796386719 13.6793457,0.939208984 13.4874512,1.22485352 C13.2955566,1.51049805 13.1996094,1.93164062 13.1996094,2.48828125 C13.1996094,2.99511719 13.2915283,3.38256836 13.4753662,3.65063477 C13.6592041,3.91870117 13.9151855,4.05273438 14.2433105,4.05273438 Z M14.2828613,3.6484375 C13.9078613,3.6484375 13.7203613,3.25439453 13.7203613,2.46630859 C13.7203613,1.62402344 13.9115234,1.20288086 14.2938477,1.20288086 C14.6556641,1.20288086 14.8365723,1.61743164 14.8365723,2.4465332 C14.8365723,3.24780273 14.652002,3.6484375 14.2828613,3.6484375 Z" id="101010"></path>
                        <path d="M1.47922363,28 L1.47922363,24.7788086 L1.2638916,24.7788086 C1.18039551,24.8388672 1.09946289,24.892334 1.02109375,24.939209 C0.942724609,24.986084 0.865087891,25.0285645 0.788183594,25.0666504 C0.711279297,25.1047363 0.633276367,25.1391602 0.554174805,25.1699219 C0.475073242,25.2006836 0.393041992,25.2299805 0.308081055,25.2578125 L0.308081055,25.2578125 L0.308081055,25.6928711 C0.444311523,25.6577148 0.565527344,25.6170654 0.671728516,25.5709229 C0.777929688,25.5247803 0.877172852,25.46875 0.969458008,25.402832 L0.969458008,25.402832 L0.969458008,28 L1.47922363,28 Z M3.67354004,28.0527344 C4.02510254,28.0527344 4.29866211,27.9124756 4.49421875,27.631958 C4.68977539,27.3514404 4.78755371,26.9445801 4.78755371,26.411377 C4.78755371,25.3347168 4.44111816,24.7963867 3.74824707,24.7963867 C3.38643066,24.7963867 3.1095752,24.939209 2.91768066,25.2248535 C2.72578613,25.510498 2.62983887,25.9316406 2.62983887,26.4882812 C2.62983887,26.9951172 2.72175781,27.3825684 2.9055957,27.6506348 C3.08943359,27.9187012 3.34541504,28.0527344 3.67354004,28.0527344 Z M3.71309082,27.6484375 C3.33809082,27.6484375 3.15059082,27.2543945 3.15059082,26.4663086 C3.15059082,25.6240234 3.34175293,25.2028809 3.72407715,25.2028809 C4.08589355,25.2028809 4.26680176,25.6174316 4.26680176,26.4465332 C4.26680176,27.2478027 4.08223145,27.6484375 3.71309082,27.6484375 Z M6.82806152,28 L6.82806152,24.7788086 L6.61272949,24.7788086 C6.5292334,24.8388672 6.44830078,24.892334 6.36993164,24.939209 C6.2915625,24.986084 6.21392578,25.0285645 6.13702148,25.0666504 C6.06011719,25.1047363 5.98211426,25.1391602 5.9030127,25.1699219 C5.82391113,25.2006836 5.74187988,25.2299805 5.65691895,25.2578125 L5.65691895,25.2578125 L5.65691895,25.6928711 C5.79314941,25.6577148 5.91436523,25.6170654 6.02056641,25.5709229 C6.12676758,25.5247803 6.22601074,25.46875 6.3182959,25.402832 L6.3182959,25.402832 L6.3182959,28 L6.82806152,28 Z M9.02237793,28.0527344 C9.37394043,28.0527344 9.6475,27.9124756 9.84305664,27.631958 C10.0386133,27.3514404 10.1363916,26.9445801 10.1363916,26.411377 C10.1363916,25.3347168 9.78995605,24.7963867 9.09708496,24.7963867 C8.73526855,24.7963867 8.45841309,24.939209 8.26651855,25.2248535 C8.07462402,25.510498 7.97867676,25.9316406 7.97867676,26.4882812 C7.97867676,26.9951172 8.0705957,27.3825684 8.25443359,27.6506348 C8.43827148,27.9187012 8.69425293,28.0527344 9.02237793,28.0527344 Z M9.06192871,27.6484375 C8.68692871,27.6484375 8.49942871,27.2543945 8.49942871,26.4663086 C8.49942871,25.6240234 8.69059082,25.2028809 9.07291504,25.2028809 C9.43473145,25.2028809 9.61563965,25.6174316 9.61563965,26.4465332 C9.61563965,27.2478027 9.43106934,27.6484375 9.06192871,27.6484375 Z M12.1768994,28 L12.1768994,24.7788086 L11.9615674,24.7788086 C11.8780713,24.8388672 11.7971387,24.892334 11.7187695,24.939209 C11.6404004,24.986084 11.5627637,25.0285645 11.4858594,25.0666504 C11.4089551,25.1047363 11.3309521,25.1391602 11.2518506,25.1699219 C11.172749,25.2006836 11.0907178,25.2299805 11.0057568,25.2578125 L11.0057568,25.2578125 L11.0057568,25.6928711 C11.1419873,25.6577148 11.2632031,25.6170654 11.3694043,25.5709229 C11.4756055,25.5247803 11.5748486,25.46875 11.6671338,25.402832 L11.6671338,25.402832 L11.6671338,28 L12.1768994,28 Z M14.3712158,28.0527344 C14.7227783,28.0527344 14.9963379,27.9124756 15.1918945,27.631958 C15.3874512,27.3514404 15.4852295,26.9445801 15.4852295,26.411377 C15.4852295,25.3347168 15.1387939,24.7963867 14.4459229,24.7963867 C14.0841064,24.7963867 13.807251,24.939209 13.6153564,25.2248535 C13.4234619,25.510498 13.3275146,25.9316406 13.3275146,26.4882812 C13.3275146,26.9951172 13.4194336,27.3825684 13.6032715,27.6506348 C13.7871094,27.9187012 14.0430908,28.0527344 14.3712158,28.0527344 Z M14.4107666,27.6484375 C14.0357666,27.6484375 13.8482666,27.2543945 13.8482666,26.4663086 C13.8482666,25.6240234 14.0394287,25.2028809 14.4217529,25.2028809 C14.7835693,25.2028809 14.9644775,25.6174316 14.9644775,26.4465332 C14.9644775,27.2478027 14.7799072,27.6484375 14.4107666,27.6484375 Z M17.5257373,28 L17.5257373,24.7788086 L17.3104053,24.7788086 C17.2269092,24.8388672 17.1459766,24.892334 17.0676074,24.939209 C16.9892383,24.986084 16.9116016,25.0285645 16.8346973,25.0666504 C16.757793,25.1047363 16.67979,25.1391602 16.6006885,25.1699219 C16.5215869,25.2006836 16.4395557,25.2299805 16.3545947,25.2578125 L16.3545947,25.2578125 L16.3545947,25.6928711 C16.4908252,25.6577148 16.612041,25.6170654 16.7182422,25.5709229 C16.8244434,25.5247803 16.9236865,25.46875 17.0159717,25.402832 L17.0159717,25.402832 L17.0159717,28 L17.5257373,28 Z M19.7200537,28.0527344 C20.0716162,28.0527344 20.3451758,27.9124756 20.5407324,27.631958 C20.7362891,27.3514404 20.8340674,26.9445801 20.8340674,26.411377 C20.8340674,25.3347168 20.4876318,24.7963867 19.7947607,24.7963867 C19.4329443,24.7963867 19.1560889,24.939209 18.9641943,25.2248535 C18.7722998,25.510498 18.6763525,25.9316406 18.6763525,26.4882812 C18.6763525,26.9951172 18.7682715,27.3825684 18.9521094,27.6506348 C19.1359473,27.9187012 19.3919287,28.0527344 19.7200537,28.0527344 Z M19.7596045,27.6484375 C19.3846045,27.6484375 19.1971045,27.2543945 19.1971045,26.4663086 C19.1971045,25.6240234 19.3882666,25.2028809 19.7705908,25.2028809 C20.1324072,25.2028809 20.3133154,25.6174316 20.3133154,26.4465332 C20.3133154,27.2478027 20.1287451,27.6484375 19.7596045,27.6484375 Z M22.8745752,28 L22.8745752,24.7788086 L22.6592432,24.7788086 C22.5757471,24.8388672 22.4948145,24.892334 22.4164453,24.939209 C22.3380762,24.986084 22.2604395,25.0285645 22.1835352,25.0666504 C22.1066309,25.1047363 22.0286279,25.1391602 21.9495264,25.1699219 C21.8704248,25.2006836 21.7883936,25.2299805 21.7034326,25.2578125 L21.7034326,25.2578125 L21.7034326,25.6928711 C21.8396631,25.6577148 21.9608789,25.6170654 22.0670801,25.5709229 C22.1732813,25.5247803 22.2725244,25.46875 22.3648096,25.402832 L22.3648096,25.402832 L22.3648096,28 L22.8745752,28 Z M25.0688916,28.0527344 C25.4204541,28.0527344 25.6940137,27.9124756 25.8895703,27.631958 C26.085127,27.3514404 26.1829053,26.9445801 26.1829053,26.411377 C26.1829053,25.3347168 25.8364697,24.7963867 25.1435986,24.7963867 C24.7817822,24.7963867 24.5049268,24.939209 24.3130322,25.2248535 C24.1211377,25.510498 24.0251904,25.9316406 24.0251904,26.4882812 C24.0251904,26.9951172 24.1171094,27.3825684 24.3009473,27.6506348 C24.4847852,27.9187012 24.7407666,28.0527344 25.0688916,28.0527344 Z M25.1084424,27.6484375 C24.7334424,27.6484375 24.5459424,27.2543945 24.5459424,26.4663086 C24.5459424,25.6240234 24.7371045,25.2028809 25.1194287,25.2028809 C25.4812451,25.2028809 25.6621533,25.6174316 25.6621533,26.4465332 C25.6621533,27.2478027 25.477583,27.6484375 25.1084424,27.6484375 Z" id="1010101010"></path>
                        <path d="M1.34299316,22.0527344 C1.69455566,22.0527344 1.96811523,21.9124756 2.16367188,21.631958 C2.35922852,21.3514404 2.45700684,20.9445801 2.45700684,20.411377 C2.45700684,19.3347168 2.11057129,18.7963867 1.4177002,18.7963867 C1.05588379,18.7963867 0.77902832,18.939209 0.587133789,19.2248535 C0.395239258,19.510498 0.299291992,19.9316406 0.299291992,20.4882812 C0.299291992,20.9951172 0.391210938,21.3825684 0.575048828,21.6506348 C0.758886719,21.9187012 1.01486816,22.0527344 1.34299316,22.0527344 Z M1.38254395,21.6484375 C1.00754395,21.6484375 0.820043945,21.2543945 0.820043945,20.4663086 C0.820043945,19.6240234 1.01120605,19.2028809 1.39353027,19.2028809 C1.75534668,19.2028809 1.93625488,19.6174316 1.93625488,20.4465332 C1.93625488,21.2478027 1.75168457,21.6484375 1.38254395,21.6484375 Z M4.49751465,22 L4.49751465,18.7788086 L4.28218262,18.7788086 C4.19868652,18.8388672 4.11775391,18.892334 4.03938477,18.939209 C3.96101563,18.986084 3.88337891,19.0285645 3.80647461,19.0666504 C3.72957031,19.1047363 3.65156738,19.1391602 3.57246582,19.1699219 C3.49336426,19.2006836 3.41133301,19.2299805 3.32637207,19.2578125 L3.32637207,19.2578125 L3.32637207,19.6928711 C3.46260254,19.6577148 3.58381836,19.6170654 3.69001953,19.5709229 C3.7962207,19.5247803 3.89546387,19.46875 3.98774902,19.402832 L3.98774902,19.402832 L3.98774902,22 L4.49751465,22 Z M6.69183105,22.0527344 C7.04339355,22.0527344 7.31695313,21.9124756 7.51250977,21.631958 C7.70806641,21.3514404 7.80584473,20.9445801 7.80584473,20.411377 C7.80584473,19.3347168 7.45940918,18.7963867 6.76653809,18.7963867 C6.40472168,18.7963867 6.12786621,18.939209 5.93597168,19.2248535 C5.74407715,19.510498 5.64812988,19.9316406 5.64812988,20.4882812 C5.64812988,20.9951172 5.74004883,21.3825684 5.92388672,21.6506348 C6.10772461,21.9187012 6.36370605,22.0527344 6.69183105,22.0527344 Z M6.73138184,21.6484375 C6.35638184,21.6484375 6.16888184,21.2543945 6.16888184,20.4663086 C6.16888184,19.6240234 6.36004395,19.2028809 6.74236816,19.2028809 C7.10418457,19.2028809 7.28509277,19.6174316 7.28509277,20.4465332 C7.28509277,21.2478027 7.10052246,21.6484375 6.73138184,21.6484375 Z M9.84635254,22 L9.84635254,18.7788086 L9.63102051,18.7788086 C9.54752441,18.8388672 9.4665918,18.892334 9.38822266,18.939209 C9.30985352,18.986084 9.2322168,19.0285645 9.1553125,19.0666504 C9.0784082,19.1047363 9.00040527,19.1391602 8.92130371,19.1699219 C8.84220215,19.2006836 8.7601709,19.2299805 8.67520996,19.2578125 L8.67520996,19.2578125 L8.67520996,19.6928711 C8.81144043,19.6577148 8.93265625,19.6170654 9.03885742,19.5709229 C9.14505859,19.5247803 9.24430176,19.46875 9.33658691,19.402832 L9.33658691,19.402832 L9.33658691,22 L9.84635254,22 Z M12.0406689,22.0527344 C12.3922314,22.0527344 12.665791,21.9124756 12.8613477,21.631958 C13.0569043,21.3514404 13.1546826,20.9445801 13.1546826,20.411377 C13.1546826,19.3347168 12.8082471,18.7963867 12.115376,18.7963867 C11.7535596,18.7963867 11.4767041,18.939209 11.2848096,19.2248535 C11.092915,19.510498 10.9969678,19.9316406 10.9969678,20.4882812 C10.9969678,20.9951172 11.0888867,21.3825684 11.2727246,21.6506348 C11.4565625,21.9187012 11.7125439,22.0527344 12.0406689,22.0527344 Z M12.0802197,21.6484375 C11.7052197,21.6484375 11.5177197,21.2543945 11.5177197,20.4663086 C11.5177197,19.6240234 11.7088818,19.2028809 12.0912061,19.2028809 C12.4530225,19.2028809 12.6339307,19.6174316 12.6339307,20.4465332 C12.6339307,21.2478027 12.4493604,21.6484375 12.0802197,21.6484375 Z M15.1951904,22 L15.1951904,18.7788086 L14.9798584,18.7788086 C14.8963623,18.8388672 14.8154297,18.892334 14.7370605,18.939209 C14.6586914,18.986084 14.5810547,19.0285645 14.5041504,19.0666504 C14.4272461,19.1047363 14.3492432,19.1391602 14.2701416,19.1699219 C14.19104,19.2006836 14.1090088,19.2299805 14.0240479,19.2578125 L14.0240479,19.2578125 L14.0240479,19.6928711 C14.1602783,19.6577148 14.2814941,19.6170654 14.3876953,19.5709229 C14.4938965,19.5247803 14.5931396,19.46875 14.6854248,19.402832 L14.6854248,19.402832 L14.6854248,22 L15.1951904,22 Z M17.3895068,22.0527344 C17.7410693,22.0527344 18.0146289,21.9124756 18.2101855,21.631958 C18.4057422,21.3514404 18.5035205,20.9445801 18.5035205,20.411377 C18.5035205,19.3347168 18.157085,18.7963867 17.4642139,18.7963867 C17.1023975,18.7963867 16.825542,18.939209 16.6336475,19.2248535 C16.4417529,19.510498 16.3458057,19.9316406 16.3458057,20.4882812 C16.3458057,20.9951172 16.4377246,21.3825684 16.6215625,21.6506348 C16.8054004,21.9187012 17.0613818,22.0527344 17.3895068,22.0527344 Z M17.4290576,21.6484375 C17.0540576,21.6484375 16.8665576,21.2543945 16.8665576,20.4663086 C16.8665576,19.6240234 17.0577197,19.2028809 17.4400439,19.2028809 C17.8018604,19.2028809 17.9827686,19.6174316 17.9827686,20.4465332 C17.9827686,21.2478027 17.7981982,21.6484375 17.4290576,21.6484375 Z M20.5440283,22 L20.5440283,18.7788086 L20.3286963,18.7788086 C20.2452002,18.8388672 20.1642676,18.892334 20.0858984,18.939209 C20.0075293,18.986084 19.9298926,19.0285645 19.8529883,19.0666504 C19.776084,19.1047363 19.6980811,19.1391602 19.6189795,19.1699219 C19.5398779,19.2006836 19.4578467,19.2299805 19.3728857,19.2578125 L19.3728857,19.2578125 L19.3728857,19.6928711 C19.5091162,19.6577148 19.630332,19.6170654 19.7365332,19.5709229 C19.8427344,19.5247803 19.9419775,19.46875 20.0342627,19.402832 L20.0342627,19.402832 L20.0342627,22 L20.5440283,22 Z M22.7383447,22.0527344 C23.0899072,22.0527344 23.3634668,21.9124756 23.5590234,21.631958 C23.7545801,21.3514404 23.8523584,20.9445801 23.8523584,20.411377 C23.8523584,19.3347168 23.5059229,18.7963867 22.8130518,18.7963867 C22.4512354,18.7963867 22.1743799,18.939209 21.9824854,19.2248535 C21.7905908,19.510498 21.6946436,19.9316406 21.6946436,20.4882812 C21.6946436,20.9951172 21.7865625,21.3825684 21.9704004,21.6506348 C22.1542383,21.9187012 22.4102197,22.0527344 22.7383447,22.0527344 Z M22.7778955,21.6484375 C22.4028955,21.6484375 22.2153955,21.2543945 22.2153955,20.4663086 C22.2153955,19.6240234 22.4065576,19.2028809 22.7888818,19.2028809 C23.1506982,19.2028809 23.3316064,19.6174316 23.3316064,20.4465332 C23.3316064,21.2478027 23.1470361,21.6484375 22.7778955,21.6484375 Z M25.8928662,22 L25.8928662,18.7788086 L25.6775342,18.7788086 C25.5940381,18.8388672 25.5131055,18.892334 25.4347363,18.939209 C25.3563672,18.986084 25.2787305,19.0285645 25.2018262,19.0666504 C25.1249219,19.1047363 25.0469189,19.1391602 24.9678174,19.1699219 C24.8887158,19.2006836 24.8066846,19.2299805 24.7217236,19.2578125 L24.7217236,19.2578125 L24.7217236,19.6928711 C24.8579541,19.6577148 24.9791699,19.6170654 25.0853711,19.5709229 C25.1915723,19.5247803 25.2908154,19.46875 25.3831006,19.402832 L25.3831006,19.402832 L25.3831006,22 L25.8928662,22 Z" id="0101010101"></path>
                        <path d="M1.21508789,10.0527344 C1.56665039,10.0527344 1.84020996,9.91247559 2.0357666,9.63195801 C2.23132324,9.35144043 2.32910156,8.94458008 2.32910156,8.41137695 C2.32910156,7.3347168 1.98266602,6.79638672 1.28979492,6.79638672 C0.927978516,6.79638672 0.651123047,6.93920898 0.459228516,7.22485352 C0.267333984,7.51049805 0.171386719,7.93164062 0.171386719,8.48828125 C0.171386719,8.99511719 0.263305664,9.38256836 0.447143555,9.65063477 C0.630981445,9.91870117 0.886962891,10.0527344 1.21508789,10.0527344 Z M1.25463867,9.6484375 C0.879638672,9.6484375 0.692138672,9.25439453 0.692138672,8.46630859 C0.692138672,7.62402344 0.883300781,7.20288086 1.265625,7.20288086 C1.62744141,7.20288086 1.80834961,7.61743164 1.80834961,8.4465332 C1.80834961,9.24780273 1.6237793,9.6484375 1.25463867,9.6484375 Z M4.36960937,10 L4.36960937,6.77880859 L4.15427734,6.77880859 C4.07078125,6.83886719 3.98984863,6.89233398 3.91147949,6.93920898 C3.83311035,6.98608398 3.75547363,7.02856445 3.67856934,7.06665039 C3.60166504,7.10473633 3.52366211,7.13916016 3.44456055,7.16992188 C3.36545898,7.20068359 3.28342773,7.22998047 3.1984668,7.2578125 L3.1984668,7.2578125 L3.1984668,7.69287109 C3.33469727,7.65771484 3.45591309,7.61706543 3.56211426,7.57092285 C3.66831543,7.52478027 3.76755859,7.46875 3.85984375,7.40283203 L3.85984375,7.40283203 L3.85984375,10 L4.36960937,10 Z M6.56392578,10.0527344 C6.91548828,10.0527344 7.18904785,9.91247559 7.38460449,9.63195801 C7.58016113,9.35144043 7.67793945,8.94458008 7.67793945,8.41137695 C7.67793945,7.3347168 7.33150391,6.79638672 6.63863281,6.79638672 C6.27681641,6.79638672 5.99996094,6.93920898 5.80806641,7.22485352 C5.61617187,7.51049805 5.52022461,7.93164062 5.52022461,8.48828125 C5.52022461,8.99511719 5.61214355,9.38256836 5.79598145,9.65063477 C5.97981934,9.91870117 6.23580078,10.0527344 6.56392578,10.0527344 Z M6.60347656,9.6484375 C6.22847656,9.6484375 6.04097656,9.25439453 6.04097656,8.46630859 C6.04097656,7.62402344 6.23213867,7.20288086 6.61446289,7.20288086 C6.9762793,7.20288086 7.1571875,7.61743164 7.1571875,8.4465332 C7.1571875,9.24780273 6.97261719,9.6484375 6.60347656,9.6484375 Z M9.71844727,10 L9.71844727,6.77880859 L9.50311523,6.77880859 C9.41961914,6.83886719 9.33868652,6.89233398 9.26031738,6.93920898 C9.18194824,6.98608398 9.10431152,7.02856445 9.02740723,7.06665039 C8.95050293,7.10473633 8.8725,7.13916016 8.79339844,7.16992188 C8.71429688,7.20068359 8.63226563,7.22998047 8.54730469,7.2578125 L8.54730469,7.2578125 L8.54730469,7.69287109 C8.68353516,7.65771484 8.80475098,7.61706543 8.91095215,7.57092285 C9.01715332,7.52478027 9.11639648,7.46875 9.20868164,7.40283203 L9.20868164,7.40283203 L9.20868164,10 L9.71844727,10 Z M11.9127637,10.0527344 C12.2643262,10.0527344 12.5378857,9.91247559 12.7334424,9.63195801 C12.928999,9.35144043 13.0267773,8.94458008 13.0267773,8.41137695 C13.0267773,7.3347168 12.6803418,6.79638672 11.9874707,6.79638672 C11.6256543,6.79638672 11.3487988,6.93920898 11.1569043,7.22485352 C10.9650098,7.51049805 10.8690625,7.93164062 10.8690625,8.48828125 C10.8690625,8.99511719 10.9609814,9.38256836 11.1448193,9.65063477 C11.3286572,9.91870117 11.5846387,10.0527344 11.9127637,10.0527344 Z M11.9523145,9.6484375 C11.5773145,9.6484375 11.3898145,9.25439453 11.3898145,8.46630859 C11.3898145,7.62402344 11.5809766,7.20288086 11.9633008,7.20288086 C12.3251172,7.20288086 12.5060254,7.61743164 12.5060254,8.4465332 C12.5060254,9.24780273 12.3214551,9.6484375 11.9523145,9.6484375 Z M15.0672852,10 L15.0672852,6.77880859 L14.8519531,6.77880859 C14.768457,6.83886719 14.6875244,6.89233398 14.6091553,6.93920898 C14.5307861,6.98608398 14.4531494,7.02856445 14.3762451,7.06665039 C14.2993408,7.10473633 14.2213379,7.13916016 14.1422363,7.16992188 C14.0631348,7.20068359 13.9811035,7.22998047 13.8961426,7.2578125 L13.8961426,7.2578125 L13.8961426,7.69287109 C14.032373,7.65771484 14.1535889,7.61706543 14.25979,7.57092285 C14.3659912,7.52478027 14.4652344,7.46875 14.5575195,7.40283203 L14.5575195,7.40283203 L14.5575195,10 L15.0672852,10 Z" id="010101"></path>
                        <path d="M1.34299316,34.0527344 C1.69455566,34.0527344 1.96811523,33.9124756 2.16367188,33.631958 C2.35922852,33.3514404 2.45700684,32.9445801 2.45700684,32.411377 C2.45700684,31.3347168 2.11057129,30.7963867 1.4177002,30.7963867 C1.05588379,30.7963867 0.77902832,30.939209 0.587133789,31.2248535 C0.395239258,31.510498 0.299291992,31.9316406 0.299291992,32.4882812 C0.299291992,32.9951172 0.391210938,33.3825684 0.575048828,33.6506348 C0.758886719,33.9187012 1.01486816,34.0527344 1.34299316,34.0527344 Z M1.38254395,33.6484375 C1.00754395,33.6484375 0.820043945,33.2543945 0.820043945,32.4663086 C0.820043945,31.6240234 1.01120605,31.2028809 1.39353027,31.2028809 C1.75534668,31.2028809 1.93625488,31.6174316 1.93625488,32.4465332 C1.93625488,33.2478027 1.75168457,33.6484375 1.38254395,33.6484375 Z M4.49751465,34 L4.49751465,30.7788086 L4.28218262,30.7788086 C4.19868652,30.8388672 4.11775391,30.892334 4.03938477,30.939209 C3.96101563,30.986084 3.88337891,31.0285645 3.80647461,31.0666504 C3.72957031,31.1047363 3.65156738,31.1391602 3.57246582,31.1699219 C3.49336426,31.2006836 3.41133301,31.2299805 3.32637207,31.2578125 L3.32637207,31.2578125 L3.32637207,31.6928711 C3.46260254,31.6577148 3.58381836,31.6170654 3.69001953,31.5709229 C3.7962207,31.5247803 3.89546387,31.46875 3.98774902,31.402832 L3.98774902,31.402832 L3.98774902,34 L4.49751465,34 Z M6.69183105,34.0527344 C7.04339355,34.0527344 7.31695313,33.9124756 7.51250977,33.631958 C7.70806641,33.3514404 7.80584473,32.9445801 7.80584473,32.411377 C7.80584473,31.3347168 7.45940918,30.7963867 6.76653809,30.7963867 C6.40472168,30.7963867 6.12786621,30.939209 5.93597168,31.2248535 C5.74407715,31.510498 5.64812988,31.9316406 5.64812988,32.4882812 C5.64812988,32.9951172 5.74004883,33.3825684 5.92388672,33.6506348 C6.10772461,33.9187012 6.36370605,34.0527344 6.69183105,34.0527344 Z M6.73138184,33.6484375 C6.35638184,33.6484375 6.16888184,33.2543945 6.16888184,32.4663086 C6.16888184,31.6240234 6.36004395,31.2028809 6.74236816,31.2028809 C7.10418457,31.2028809 7.28509277,31.6174316 7.28509277,32.4465332 C7.28509277,33.2478027 7.10052246,33.6484375 6.73138184,33.6484375 Z M9.84635254,34 L9.84635254,30.7788086 L9.63102051,30.7788086 C9.54752441,30.8388672 9.4665918,30.892334 9.38822266,30.939209 C9.30985352,30.986084 9.2322168,31.0285645 9.1553125,31.0666504 C9.0784082,31.1047363 9.00040527,31.1391602 8.92130371,31.1699219 C8.84220215,31.2006836 8.7601709,31.2299805 8.67520996,31.2578125 L8.67520996,31.2578125 L8.67520996,31.6928711 C8.81144043,31.6577148 8.93265625,31.6170654 9.03885742,31.5709229 C9.14505859,31.5247803 9.24430176,31.46875 9.33658691,31.402832 L9.33658691,31.402832 L9.33658691,34 L9.84635254,34 Z M12.0406689,34.0527344 C12.3922314,34.0527344 12.665791,33.9124756 12.8613477,33.631958 C13.0569043,33.3514404 13.1546826,32.9445801 13.1546826,32.411377 C13.1546826,31.3347168 12.8082471,30.7963867 12.115376,30.7963867 C11.7535596,30.7963867 11.4767041,30.939209 11.2848096,31.2248535 C11.092915,31.510498 10.9969678,31.9316406 10.9969678,32.4882812 C10.9969678,32.9951172 11.0888867,33.3825684 11.2727246,33.6506348 C11.4565625,33.9187012 11.7125439,34.0527344 12.0406689,34.0527344 Z M12.0802197,33.6484375 C11.7052197,33.6484375 11.5177197,33.2543945 11.5177197,32.4663086 C11.5177197,31.6240234 11.7088818,31.2028809 12.0912061,31.2028809 C12.4530225,31.2028809 12.6339307,31.6174316 12.6339307,32.4465332 C12.6339307,33.2478027 12.4493604,33.6484375 12.0802197,33.6484375 Z M15.1951904,34 L15.1951904,30.7788086 L14.9798584,30.7788086 C14.8963623,30.8388672 14.8154297,30.892334 14.7370605,30.939209 C14.6586914,30.986084 14.5810547,31.0285645 14.5041504,31.0666504 C14.4272461,31.1047363 14.3492432,31.1391602 14.2701416,31.1699219 C14.19104,31.2006836 14.1090088,31.2299805 14.0240479,31.2578125 L14.0240479,31.2578125 L14.0240479,31.6928711 C14.1602783,31.6577148 14.2814941,31.6170654 14.3876953,31.5709229 C14.4938965,31.5247803 14.5931396,31.46875 14.6854248,31.402832 L14.6854248,31.402832 L14.6854248,34 L15.1951904,34 Z M17.3895068,34.0527344 C17.7410693,34.0527344 18.0146289,33.9124756 18.2101855,33.631958 C18.4057422,33.3514404 18.5035205,32.9445801 18.5035205,32.411377 C18.5035205,31.3347168 18.157085,30.7963867 17.4642139,30.7963867 C17.1023975,30.7963867 16.825542,30.939209 16.6336475,31.2248535 C16.4417529,31.510498 16.3458057,31.9316406 16.3458057,32.4882812 C16.3458057,32.9951172 16.4377246,33.3825684 16.6215625,33.6506348 C16.8054004,33.9187012 17.0613818,34.0527344 17.3895068,34.0527344 Z M17.4290576,33.6484375 C17.0540576,33.6484375 16.8665576,33.2543945 16.8665576,32.4663086 C16.8665576,31.6240234 17.0577197,31.2028809 17.4400439,31.2028809 C17.8018604,31.2028809 17.9827686,31.6174316 17.9827686,32.4465332 C17.9827686,33.2478027 17.7981982,33.6484375 17.4290576,33.6484375 Z M20.5440283,34 L20.5440283,30.7788086 L20.3286963,30.7788086 C20.2452002,30.8388672 20.1642676,30.892334 20.0858984,30.939209 C20.0075293,30.986084 19.9298926,31.0285645 19.8529883,31.0666504 C19.776084,31.1047363 19.6980811,31.1391602 19.6189795,31.1699219 C19.5398779,31.2006836 19.4578467,31.2299805 19.3728857,31.2578125 L19.3728857,31.2578125 L19.3728857,31.6928711 C19.5091162,31.6577148 19.630332,31.6170654 19.7365332,31.5709229 C19.8427344,31.5247803 19.9419775,31.46875 20.0342627,31.402832 L20.0342627,31.402832 L20.0342627,34 L20.5440283,34 Z M22.7383447,34.0527344 C23.0899072,34.0527344 23.3634668,33.9124756 23.5590234,33.631958 C23.7545801,33.3514404 23.8523584,32.9445801 23.8523584,32.411377 C23.8523584,31.3347168 23.5059229,30.7963867 22.8130518,30.7963867 C22.4512354,30.7963867 22.1743799,30.939209 21.9824854,31.2248535 C21.7905908,31.510498 21.6946436,31.9316406 21.6946436,32.4882812 C21.6946436,32.9951172 21.7865625,33.3825684 21.9704004,33.6506348 C22.1542383,33.9187012 22.4102197,34.0527344 22.7383447,34.0527344 Z M22.7778955,33.6484375 C22.4028955,33.6484375 22.2153955,33.2543945 22.2153955,32.4663086 C22.2153955,31.6240234 22.4065576,31.2028809 22.7888818,31.2028809 C23.1506982,31.2028809 23.3316064,31.6174316 23.3316064,32.4465332 C23.3316064,33.2478027 23.1470361,33.6484375 22.7778955,33.6484375 Z M25.8928662,34 L25.8928662,30.7788086 L25.6775342,30.7788086 C25.5940381,30.8388672 25.5131055,30.892334 25.4347363,30.939209 C25.3563672,30.986084 25.2787305,31.0285645 25.2018262,31.0666504 C25.1249219,31.1047363 25.0469189,31.1391602 24.9678174,31.1699219 C24.8887158,31.2006836 24.8066846,31.2299805 24.7217236,31.2578125 L24.7217236,31.2578125 L24.7217236,31.6928711 C24.8579541,31.6577148 24.9791699,31.6170654 25.0853711,31.5709229 C25.1915723,31.5247803 25.2908154,31.46875 25.3831006,31.402832 L25.3831006,31.402832 L25.3831006,34 L25.8928662,34 Z" id="0101010101"></path>
                    </g>
                    <g id="Gear" filter="url(#filter-11)" transform="translate(37.000000, 42.000000)">
                        <g fill-rule="nonzero" id="Shape">
                            <g>
                                <use fill="black" fill-opacity="1" filter="url(#filter-14)" xlink:href="#path-13"></use>
                                <use fill="url(#linearGradient-12)" xlink:href="#path-13"></use>
                            </g>
                        </g>
                        <circle id="Oval" fill="#FFFFFF" cx="9" cy="9" r="4"></circle>
                    </g>
                    <circle id="Oval-2" fill="url(#linearGradient-15)" cx="46" cy="51" r="4"></circle>
                    <polyline id="Path-67" stroke="#FFFFFF" stroke-linecap="round" points="47.7226818 49.599725 45.6408268 52.3091508 44.1823138 51.3229412"></polyline>
                </g>
            </g>
        </g>
    </g>
</svg>