<?xml version="1.0" encoding="UTF-8"?>
<svg width="102px" height="102px" viewBox="0 0 102 102" version="1.1" xmlns="http://www.w3.org/2000/svg" xmlns:xlink="http://www.w3.org/1999/xlink">
    <title>Learn the Data Management Foundation in Microsoft Dynamics 365 Business Central/work-with-xml-ports-in-dynamics-365-business-central</title>
    <defs>
        <rect id="path-1" x="0" y="0" width="94.3396226" height="94.3396226" rx="47.1698113"></rect>
        <filter x="-2.9%" y="-2.9%" width="106.4%" height="106.4%" filterUnits="objectBoundingBox" id="filter-3">
            <feMorphology radius="2.5" operator="dilate" in="SourceAlpha" result="shadowSpreadOuter1"></feMorphology>
            <feOffset dx="0.5" dy="0.5" in="shadowSpreadOuter1" result="shadowOffsetOuter1"></feOffset>
            <feMorphology radius="1" operator="erode" in="SourceAlpha" result="shadowInner"></feMorphology>
            <feOffset dx="0.5" dy="0.5" in="shadowInner" result="shadowInner"></feOffset>
            <feComposite in="shadowOffsetOuter1" in2="shadowInner" operator="out" result="shadowOffsetOuter1"></feComposite>
            <feColorMatrix values="0 0 0 0 0.821822822   0 0 0 0 0.831640661   0 0 0 0 0.835737288  0 0 0 1 0" type="matrix" in="shadowOffsetOuter1"></feColorMatrix>
        </filter>
        <linearGradient x1="77.8299825%" y1="11.1997378%" x2="-99.6885927%" y2="253.807911%" id="linearGradient-4">
            <stop stop-color="#FFFFFF" offset="0%"></stop>
            <stop stop-color="#000000" stop-opacity="0.5" offset="100%"></stop>
        </linearGradient>
        <rect id="path-5" x="0" y="0" width="94.3396226" height="94.3396226"></rect>
        <path d="M48.1132075,0.739331515 C74.2770768,0.739331515 95.4870836,21.9493383 95.4870836,48.1132075 C95.4870836,74.2770768 74.2770768,95.4870836 48.1132075,95.4870836 C21.9493383,95.4870836 0.739331515,74.2770768 0.739331515,48.1132075 C0.739331515,21.9493383 21.9493383,0.739331515 48.1132075,0.739331515 Z M48.1132075,4.71698113 C24.1461335,4.71698113 4.71698113,24.1461335 4.71698113,48.1132075 C4.71698113,72.0802816 24.1461335,91.509434 48.1132075,91.509434 C72.0802816,91.509434 91.509434,72.0802816 91.509434,48.1132075 C91.509434,24.1461335 72.0802816,4.71698113 48.1132075,4.71698113 Z" id="path-6"></path>
        <linearGradient x1="50%" y1="100%" x2="50%" y2="0%" id="linearGradient-8">
            <stop stop-color="#D2EBFF" offset="0%"></stop>
            <stop stop-color="#F0FFFD" offset="100%"></stop>
        </linearGradient>
        <filter x="-38.7%" y="-41.4%" width="177.4%" height="182.8%" filterUnits="objectBoundingBox" id="filter-9">
            <feOffset dx="0" dy="2" in="SourceAlpha" result="shadowOffsetOuter1"></feOffset>
            <feGaussianBlur stdDeviation="2" in="shadowOffsetOuter1" result="shadowBlurOuter1"></feGaussianBlur>
            <feColorMatrix values="0 0 0 0 0   0 0 0 0 0   0 0 0 0 0  0 0 0 0.1 0" type="matrix" in="shadowBlurOuter1" result="shadowMatrixOuter1"></feColorMatrix>
            <feMerge>
                <feMergeNode in="shadowMatrixOuter1"></feMergeNode>
                <feMergeNode in="SourceGraphic"></feMergeNode>
            </feMerge>
        </filter>
        <path d="M1.9075079,0 C0.853935281,0 0,0.76212766 0,1.70212766 L0,1.70212766 L0,18.2978723 C0,19.2378723 0.853935281,20 1.9075079,20 L1.9075079,20 L29.0920788,20 C30.1456514,20 31,19.2378723 31,18.2978723 L31,18.2978723 L31,1.70212766 C31,0.76212766 30.1456514,0 29.0920788,0 L29.0920788,0 L1.9075079,0 Z" id="path-10"></path>
        <linearGradient x1="50%" y1="-7.83969624%" x2="50%" y2="136.746848%" id="linearGradient-12">
            <stop stop-color="#FFD70F" offset="0%"></stop>
            <stop stop-color="#EEB309" offset="34%"></stop>
            <stop stop-color="#DC8C03" offset="77%"></stop>
            <stop stop-color="#D57D01" offset="100%"></stop>
        </linearGradient>
        <linearGradient x1="50%" y1="0%" x2="50%" y2="100%" id="linearGradient-13">
            <stop stop-color="#E55E14" offset="0%"></stop>
            <stop stop-color="#F59051" offset="100%"></stop>
        </linearGradient>
        <linearGradient x1="50%" y1="0%" x2="50%" y2="100%" id="linearGradient-14">
            <stop stop-color="#F59051" offset="0%"></stop>
            <stop stop-color="#E55E14" offset="100%"></stop>
        </linearGradient>
        <linearGradient x1="50%" y1="-9.93901477%" x2="50%" y2="100%" id="linearGradient-15">
            <stop stop-color="#FFFFFF" offset="0%"></stop>
            <stop stop-color="#EFEFEF" offset="100%"></stop>
        </linearGradient>
        <path d="M17.403674,21 L13.5967876,21 C13.2686236,21 13,20.7672 13,20.4828 L13,15.5172 C13,15.2328 13.2686236,15 13.5967876,15 L17.403674,15 C17.7318379,15 18,15.2328 18,15.5172 L18,20.4828 C18,20.7672 17.7318379,21 17.403674,21" id="path-16"></path>
        <filter x="-10.0%" y="-8.3%" width="120.0%" height="133.3%" filterUnits="objectBoundingBox" id="filter-17">
            <feOffset dx="0" dy="1" in="SourceAlpha" result="shadowOffsetOuter1"></feOffset>
            <feColorMatrix values="0 0 0 0 0   0 0 0 0 0   0 0 0 0 0  0 0 0 0.1 0" type="matrix" in="shadowOffsetOuter1"></feColorMatrix>
        </filter>
        <linearGradient x1="50%" y1="2.04550253%" x2="50%" y2="100%" id="linearGradient-18">
            <stop stop-color="#FFE02A" offset="0%"></stop>
            <stop stop-color="#FFB518" offset="100%"></stop>
        </linearGradient>
    </defs>
    <g id="Badges" stroke="none" stroke-width="1" fill="none" fill-rule="evenodd">
        <g id="Learn-the-Data-Management-Foundation-in-Microsoft-Dynamics-365-Business-Central" transform="translate(-159.000000, -699.000000)">
            <g id="Learn-the-Data-Management-Foundation-in-Microsoft-Dynamics-365-Business-Central/work-with-xml-ports-in-dynamics-365-business-central" transform="translate(160.000000, 700.000000)">
                <g id="Badge-Plates/Circle">
                    <g id="BG" transform="translate(2.830189, 2.830189)">
                        <mask id="mask-2" fill="white">
                            <use xlink:href="#path-1"></use>
                        </mask>
                        <g>
                            <use fill="black" fill-opacity="1" filter="url(#filter-3)" xlink:href="#path-1"></use>
                            <rect stroke="#F2F1F0" stroke-width="2.5" x="-1.25" y="-1.25" width="96.8396226" height="96.8396226" rx="48.4198113"></rect>
                        </g>
                        <g id="Colors/Microsoft-365/BG-Solid-Badge" mask="url(#mask-2)">
                            <g id="Rectangle">
                                <use fill="#0078D4" xlink:href="#path-5"></use>
                                <use fill-opacity="0.4" fill="url(#linearGradient-4)" xlink:href="#path-5"></use>
                            </g>
                        </g>
                    </g>
                    <g id="Border" transform="translate(1.886792, 1.886792)">
                        <mask id="mask-7" fill="white">
                            <use xlink:href="#path-6"></use>
                        </mask>
                        <use id="Boarder" fill="#0078D4" fill-rule="nonzero" xlink:href="#path-6"></use>
                        <g id="Colors/Microsoft-365/Border" mask="url(#mask-7)" fill="#0076D7">
                            <g transform="translate(-1.886792, -1.886792)" id="Microsoft-365/Border">
                                <rect x="0" y="0" width="100" height="100"></rect>
                            </g>
                        </g>
                    </g>
                </g>
                <g id="Group-18" transform="translate(24.000000, 22.000000)" fill-rule="nonzero">
                    <g id="Group">
                        <path d="M22.6634229,0.0438336625 L1.91006742,0.0438336625 C1.00141593,0.0438336625 0.264808362,0.767649808 0.264808362,1.66052227 L0.264808362,45.3394777 C0.264808362,46.2323502 1.00141593,46.9561663 1.91006742,46.9561663 L37.6439396,46.9561663 C38.552591,46.9561663 39.2891986,46.2323502 39.2891986,45.3394777 L39.2891986,16.4376234 C39.2891986,15.544751 38.552591,14.8209348 37.6439396,14.8209348 L25.7807558,14.8209348 C24.8880456,14.8209348 24.164361,14.1098172 24.164361,13.2326092 L24.164361,1.66052227 C24.1819174,0.814888094 23.5219945,0.104072717 22.6634229,0.0438336625 Z" id="Path" fill="url(#linearGradient-8)"></path>
                        <path d="M39.5121951,15.8265306 L23.4146341,0 L23.4146341,12.8233939 C23.4146341,14.4819805 24.7744688,15.8265306 26.4519098,15.8265306 L39.5121951,15.8265306 Z" id="Path" fill="#92C4FC"></path>
                    </g>
                </g>
                <path d="M26.7225405,47 L23,47 C22.4477153,47 22,47.4477153 22,48 L22,59 C22,59.5522847 22.4477153,60 23,60 L65,60 C65.5522847,60 66,59.5522847 66,59 L66,48 C66,47.4477153 65.5522847,47 65,47 L62.4962723,47 L62.4962723,47" id="Path-106" fill="#92C4FC"></path>
                <path d="M34.0278405,57 L35.3340858,54.4170153 C35.4253825,54.1678289 35.4833208,53.9818689 35.5079007,53.8591353 L35.5079007,53.8591353 L35.5289691,53.8591353 C35.5816403,54.1194793 35.6325558,54.2980009 35.6817156,54.3947001 L35.6817156,54.3947001 L36.9826938,57 L39,57 L36.6719338,52.9665272 L38.9367946,49 L37.0406321,49 L35.8397291,51.376569 C35.7238525,51.6852627 35.6448457,51.9177127 35.6027088,52.0739191 L35.6027088,52.0739191 L35.5816403,52.0739191 C35.5149235,51.8135751 35.4394281,51.5885635 35.3551543,51.3988842 L35.3551543,51.3988842 L34.275395,49 L32.2054176,49 L34.407073,53 L32,57 L34.0278405,57 Z M41.4247246,57 L41.4247246,52.5760112 C41.4247246,51.9809391 41.4035088,51.2891678 41.3610771,50.5006974 L41.3610771,50.5006974 L41.4051408,50.5006974 C41.5063239,51.0994886 41.5797634,51.4714086 41.625459,51.6164575 L41.625459,51.6164575 L43.2998776,57 L44.5924113,57 L46.2374541,51.5606695 C46.3027336,51.3449558 46.376173,50.9916318 46.4577723,50.5006974 L46.4577723,50.5006974 L46.49694,50.5006974 C46.4577723,51.125523 46.4381885,51.6964203 46.4381885,52.2133891 L46.4381885,52.2133891 L46.4381885,57 L48,57 L48,49 L45.7429621,49 L44.3084455,53.7308229 C44.2105263,54.0581125 44.1175031,54.4430497 44.0293758,54.8856346 L44.0293758,54.8856346 L44,54.8856346 C43.9477764,54.502557 43.8645451,54.1213389 43.750306,53.7419805 L43.750306,53.7419805 L42.3157895,49 L40,49 L40,57 L41.4247246,57 Z M54,57 L54,55.5383543 L51.5128806,55.5383543 L51.5128806,49 L50,49 L50,57 L54,57 Z" id="XML" fill="#FFFFFF" fill-rule="nonzero"></path>
                <g id="Group" filter="url(#filter-9)" transform="translate(49.000000, 48.000000)">
                    <g id="Group-5" transform="translate(0.000000, 8.000000)">
                        <mask id="mask-11" fill="white">
                            <use xlink:href="#path-10"></use>
                        </mask>
                        <g id="Clip-4"></g>
                        <polygon id="Fill-3" fill="url(#linearGradient-12)" mask="url(#mask-11)" points="-2 22 33 22 33 -2 -2 -2"></polygon>
                    </g>
                    <path d="M16.0394,16.8753179 C9.56536,16.8753179 3.78944,15.364032 0,13 L0,25.6305414 C0,27.4916503 1.48676,29 3.32072,29 L27.67928,29 C29.51324,29 31,27.4916503 31,25.6305414 L31,13.6191113 C27.2357733,15.6240923 21.9273333,16.8753179 16.0394,16.8753179" id="Fill-6" fill="url(#linearGradient-13)"></path>
                    <path d="M16.0394,18.3909031 C9.56536,18.3909031 3.78944,17.068528 0,15 L0,27.4919124 C0,28.3246821 0.760533333,29 1.69838667,29 L29.3012,29 C30.2394667,29 31,28.3246821 31,27.4919124 L31,15.5417224 C27.2357733,17.2960807 21.9273333,18.3909031 16.0394,18.3909031" id="Fill-8" fill="url(#linearGradient-14)"></path>
                    <g id="Fill-10">
                        <use fill="black" fill-opacity="1" filter="url(#filter-17)" xlink:href="#path-16"></use>
                        <use fill="url(#linearGradient-15)" fill-rule="evenodd" xlink:href="#path-16"></use>
                    </g>
                    <path d="M26,8 L24,8 C24,4.73475325 20.4112,2.07792208 16,2.07792208 C11.5888,2.07792208 8,4.73475325 8,8 L6,8 C6,3.58898701 10.486,0 16,0 C21.514,0 26,3.58898701 26,8" id="Fill-12" fill="url(#linearGradient-18)"></path>
                </g>
            </g>
        </g>
    </g>
</svg>