<?xml version="1.0" encoding="UTF-8"?>
<svg width="100px" height="100px" viewBox="0 0 100 100" version="1.1" xmlns="http://www.w3.org/2000/svg" xmlns:xlink="http://www.w3.org/1999/xlink">
    <!-- Generator: Sketch 55.2 (78181) - https://sketchapp.com -->
    <title>Create financial reports in Microsoft Dynamics 365 Business Central/set-up-xbrl-reports-in-dynamics-365-business-central</title>
    <desc>Created with Sketch.</desc>
    <defs>
        <rect id="path-1" x="0" y="0" width="96" height="96" rx="48"></rect>
        <filter x="-6.1%" y="-7.2%" width="112.1%" height="114.6%" filterUnits="objectBoundingBox" id="filter-3">
            <feOffset dx="0" dy="2" in="SourceAlpha" result="shadowOffsetOuter1"></feOffset>
            <feColorMatrix values="0 0 0 0 0   0 0 0 0 0   0 0 0 0 0  0 0 0 0.1 0" type="matrix" in="shadowOffsetOuter1" result="shadowMatrixOuter1"></feColorMatrix>
            <feMerge>
                <feMergeNode in="shadowMatrixOuter1"></feMergeNode>
                <feMergeNode in="SourceGraphic"></feMergeNode>
            </feMerge>
        </filter>
        <path d="M0.343540518,8.75432312 C2.24574984,8.75432312 3.78651873,6.88840168 3.78651873,4.58559783 L3.78651873,4.58559783 C3.78651873,2.28279397 2.24574984,0.41687253 0.343540518,0.41687253 L0.343540518,0.41687253 L0.343540518,8.75432312 Z" id="path-4"></path>
    </defs>
    <g id="Badges" stroke="none" stroke-width="1" fill="none" fill-rule="evenodd">
        <g id="Create-financial-reports-in-Microsoft-Dynamics-365-Business-Central" transform="translate(-50.000000, -860.000000)">
            <g id="Create-financial-reports-in-Microsoft-Dynamics-365-Business-Central/set-up-xbrl-reports-in-dynamics-365-business-central" transform="translate(50.000000, 860.000000)">
                <g id="Mask" transform="translate(2.000000, 2.000000)">
                    <mask id="mask-2" fill="white">
                        <use xlink:href="#path-1"></use>
                    </mask>
                    <use id="BG" fill="#01B6C3" xlink:href="#path-1"></use>
                    <g id="table-+-record" filter="url(#filter-3)" mask="url(#mask-2)">
                        <g transform="translate(15.000000, 20.000000)" id="table">
                            <g transform="translate(-0.000000, -0.000000)">
                                <path d="M-1.42108547e-13,52.5813018 C-1.42108547e-13,54.3769704 1.84252034,55.8461538 4.09448964,55.8461538 C39.6048366,55.8461538 58.6453322,55.8461538 61.2159763,55.8461538 C65.0719425,55.8461538 65.5118343,54.6191394 65.5118343,50.9412465 C65.5118343,48.4893179 65.5118343,36.5207367 65.5118343,15.035503 L-1.42108547e-13,15.035503 L-1.42108547e-13,52.5813018 Z" id="Fill-1315" fill="#FFFFFE"></path>
                                <path d="M65.5118343,2.14792899 C65.5118343,0.966568047 64.5905741,0 63.4645895,0 L2.04724482,0 C0.92126017,0 0,0.966568047 0,2.14792899 L0,12.887574 L65.5118343,12.887574 L65.5118343,2.14792899" id="Fill-1316" fill="#546670"></path>
                                <polygon id="Fill-1317" fill="#DBE5E7" points="0 15.035503 65.5118343 15.035503 65.5118343 12.887574 0 12.887574"></polygon>
                                <path d="M10.739645,24.7011834 C10.739645,25.2918639 10.2563609,25.7751479 9.66568047,25.7751479 L5.36982249,25.7751479 C4.77914201,25.7751479 4.29585799,25.2918639 4.29585799,24.7011834 L4.29585799,20.4053254 C4.29585799,19.814645 4.77914201,19.3313609 5.36982249,19.3313609 L9.66568047,19.3313609 C10.2563609,19.3313609 10.739645,19.814645 10.739645,20.4053254 L10.739645,24.7011834" id="Fill-1327" fill="#C5CCCD"></path>
                                <path d="M19.3313609,24.7011834 C19.3313609,25.2918639 18.8480769,25.7751479 18.2573964,25.7751479 L13.9615385,25.7751479 C13.370858,25.7751479 12.887574,25.2918639 12.887574,24.7011834 L12.887574,20.4053254 C12.887574,19.814645 13.370858,19.3313609 13.9615385,19.3313609 L18.2573964,19.3313609 C18.8480769,19.3313609 19.3313609,19.814645 19.3313609,20.4053254 L19.3313609,24.7011834" id="Fill-1328" fill="#C5CCCD"></path>
                                <path d="M27.9230769,24.7011834 C27.9230769,25.2918639 27.4397929,25.7751479 26.8491124,25.7751479 L22.5532544,25.7751479 C21.962574,25.7751479 21.4792899,25.2918639 21.4792899,24.7011834 L21.4792899,20.4053254 C21.4792899,19.814645 21.962574,19.3313609 22.5532544,19.3313609 L26.8491124,19.3313609 C27.4397929,19.3313609 27.9230769,19.814645 27.9230769,20.4053254 L27.9230769,24.7011834" id="Fill-1329" fill="#C5CCCD"></path>
                                <path d="M36.5147929,24.7011834 C36.5147929,25.2918639 36.0315089,25.7751479 35.4408284,25.7751479 L31.1449704,25.7751479 C30.5542899,25.7751479 30.0710059,25.2918639 30.0710059,24.7011834 L30.0710059,20.4053254 C30.0710059,19.814645 30.5542899,19.3313609 31.1449704,19.3313609 L35.4408284,19.3313609 C36.0315089,19.3313609 36.5147929,19.814645 36.5147929,20.4053254 L36.5147929,24.7011834" id="Fill-1330" fill="#C5CCCD"></path>
                                <path d="M45.1065089,24.7011834 C45.1065089,25.2918639 44.6232249,25.7751479 44.0325444,25.7751479 L39.7366864,25.7751479 C39.1460059,25.7751479 38.6627219,25.2918639 38.6627219,24.7011834 L38.6627219,20.4053254 C38.6627219,19.814645 39.1460059,19.3313609 39.7366864,19.3313609 L44.0325444,19.3313609 C44.6232249,19.3313609 45.1065089,19.814645 45.1065089,20.4053254 L45.1065089,24.7011834" id="Fill-1331" fill="#C5CCCD"></path>
                                <path d="M53.6982249,24.7011834 C53.6982249,25.2918639 53.2149408,25.7751479 52.6242604,25.7751479 L48.3284024,25.7751479 C47.7377219,25.7751479 47.2544379,25.2918639 47.2544379,24.7011834 L47.2544379,20.4053254 C47.2544379,19.814645 47.7377219,19.3313609 48.3284024,19.3313609 L52.6242604,19.3313609 C53.2149408,19.3313609 53.6982249,19.814645 53.6982249,20.4053254 L53.6982249,24.7011834" id="Fill-1332" fill="#C5CCCD"></path>
                                <path d="M62.2899408,24.7011834 C62.2899408,25.2918639 61.8066568,25.7751479 61.2159763,25.7751479 L56.9201183,25.7751479 C56.3294379,25.7751479 55.8461538,25.2918639 55.8461538,24.7011834 L55.8461538,20.4053254 C55.8461538,19.814645 56.3294379,19.3313609 56.9201183,19.3313609 L61.2159763,19.3313609 C61.8066568,19.3313609 62.2899408,19.814645 62.2899408,20.4053254 L62.2899408,24.7011834" id="Fill-1333" fill="#C5CCCD"></path>
                                <path d="M10.739645,33.2928994 C10.739645,33.8835799 10.2563609,34.3668639 9.66568047,34.3668639 L5.36982249,34.3668639 C4.77914201,34.3668639 4.29585799,33.8835799 4.29585799,33.2928994 L4.29585799,28.9970414 C4.29585799,28.4063609 4.77914201,27.9230769 5.36982249,27.9230769 L9.66568047,27.9230769 C10.2563609,27.9230769 10.739645,28.4063609 10.739645,28.9970414 L10.739645,33.2928994" id="Fill-1334" fill="#C5CCCD"></path>
                                <path d="M19.3313609,33.2928994 C19.3313609,33.8835799 18.8480769,34.3668639 18.2573964,34.3668639 L13.9615385,34.3668639 C13.370858,34.3668639 12.887574,33.8835799 12.887574,33.2928994 L12.887574,28.9970414 C12.887574,28.4063609 13.370858,27.9230769 13.9615385,27.9230769 L18.2573964,27.9230769 C18.8480769,27.9230769 19.3313609,28.4063609 19.3313609,28.9970414 L19.3313609,33.2928994" id="Fill-1335" fill="#C5CCCD"></path>
                                <path d="M27.9230769,33.2928994 C27.9230769,33.8835799 27.4397929,34.3668639 26.8491124,34.3668639 L22.5532544,34.3668639 C21.962574,34.3668639 21.4792899,33.8835799 21.4792899,33.2928994 L21.4792899,28.9970414 C21.4792899,28.4063609 21.962574,27.9230769 22.5532544,27.9230769 L26.8491124,27.9230769 C27.4397929,27.9230769 27.9230769,28.4063609 27.9230769,28.9970414 L27.9230769,33.2928994" id="Fill-1336" fill="#C5CCCD"></path>
                                <path d="M36.5147929,33.2928994 C36.5147929,33.8835799 36.0315089,34.3668639 35.4408284,34.3668639 L31.1449704,34.3668639 C30.5542899,34.3668639 30.0710059,33.8835799 30.0710059,33.2928994 L30.0710059,28.9970414 C30.0710059,28.4063609 30.5542899,27.9230769 31.1449704,27.9230769 L35.4408284,27.9230769 C36.0315089,27.9230769 36.5147929,28.4063609 36.5147929,28.9970414 L36.5147929,33.2928994" id="Fill-1337" fill="#C5CCCD"></path>
                                <path d="M45.1065089,33.2928994 C45.1065089,33.8835799 44.6232249,34.3668639 44.0325444,34.3668639 L39.7366864,34.3668639 C39.1460059,34.3668639 38.6627219,33.8835799 38.6627219,33.2928994 L38.6627219,28.9970414 C38.6627219,28.4063609 39.1460059,27.9230769 39.7366864,27.9230769 L44.0325444,27.9230769 C44.6232249,27.9230769 45.1065089,28.4063609 45.1065089,28.9970414 L45.1065089,33.2928994" id="Fill-1338" fill="#C5CCCD"></path>
                                <path d="M53.6982249,33.2928994 C53.6982249,33.8835799 53.2149408,34.3668639 52.6242604,34.3668639 L48.3284024,34.3668639 C47.7377219,34.3668639 47.2544379,33.8835799 47.2544379,33.2928994 L47.2544379,28.9970414 C47.2544379,28.4063609 47.7377219,27.9230769 48.3284024,27.9230769 L52.6242604,27.9230769 C53.2149408,27.9230769 53.6982249,28.4063609 53.6982249,28.9970414 L53.6982249,33.2928994" id="Fill-1339" fill="#C5CCCD"></path>
                                <path d="M62.2899408,33.2928994 C62.2899408,33.8835799 61.8066568,34.3668639 61.2159763,34.3668639 L56.9201183,34.3668639 C56.3294379,34.3668639 55.8461538,33.8835799 55.8461538,33.2928994 L55.8461538,28.9970414 C55.8461538,28.4063609 56.3294379,27.9230769 56.9201183,27.9230769 L61.2159763,27.9230769 C61.8066568,27.9230769 62.2899408,28.4063609 62.2899408,28.9970414 L62.2899408,33.2928994" id="Fill-1340" fill="#C5CCCD"></path>
                                <path d="M10.739645,41.8846154 C10.739645,42.4752959 10.2563609,42.9585799 9.66568047,42.9585799 L5.36982249,42.9585799 C4.77914201,42.9585799 4.29585799,42.4752959 4.29585799,41.8846154 L4.29585799,37.5887574 C4.29585799,36.9980769 4.77914201,36.5147929 5.36982249,36.5147929 L9.66568047,36.5147929 C10.2563609,36.5147929 10.739645,36.9980769 10.739645,37.5887574 L10.739645,41.8846154" id="Fill-1341" fill="#C5CCCD"></path>
                                <path d="M19.3313609,41.8846154 C19.3313609,42.4752959 18.8480769,42.9585799 18.2573964,42.9585799 L13.9615385,42.9585799 C13.370858,42.9585799 12.887574,42.4752959 12.887574,41.8846154 L12.887574,37.5887574 C12.887574,36.9980769 13.370858,36.5147929 13.9615385,36.5147929 L18.2573964,36.5147929 C18.8480769,36.5147929 19.3313609,36.9980769 19.3313609,37.5887574 L19.3313609,41.8846154" id="Fill-1342" fill="#C5CCCD"></path>
                                <path d="M27.9230769,41.8846154 C27.9230769,42.4752959 27.4397929,42.9585799 26.8491124,42.9585799 L22.5532544,42.9585799 C21.962574,42.9585799 21.4792899,42.4752959 21.4792899,41.8846154 L21.4792899,37.5887574 C21.4792899,36.9980769 21.962574,36.5147929 22.5532544,36.5147929 L26.8491124,36.5147929 C27.4397929,36.5147929 27.9230769,36.9980769 27.9230769,37.5887574 L27.9230769,41.8846154" id="Fill-1343" fill="#C5CCCD"></path>
                                <path d="M36.5147929,41.8846154 C36.5147929,42.4752959 36.0315089,42.9585799 35.4408284,42.9585799 L31.1449704,42.9585799 C30.5542899,42.9585799 30.0710059,42.4752959 30.0710059,41.8846154 L30.0710059,37.5887574 C30.0710059,36.9980769 30.5542899,36.5147929 31.1449704,36.5147929 L35.4408284,36.5147929 C36.0315089,36.5147929 36.5147929,36.9980769 36.5147929,37.5887574 L36.5147929,41.8846154" id="Fill-1344" fill="#C5CCCD"></path>
                                <path d="M45.1065089,41.8846154 C45.1065089,42.4752959 44.6232249,42.9585799 44.0325444,42.9585799 L39.7366864,42.9585799 C39.1460059,42.9585799 38.6627219,42.4752959 38.6627219,41.8846154 L38.6627219,37.5887574 C38.6627219,36.9980769 39.1460059,36.5147929 39.7366864,36.5147929 L44.0325444,36.5147929 C44.6232249,36.5147929 45.1065089,36.9980769 45.1065089,37.5887574 L45.1065089,41.8846154" id="Fill-1345" fill="#C5CCCD"></path>
                                <path d="M53.6982249,41.8846154 C53.6982249,42.4752959 53.2149408,42.9585799 52.6242604,42.9585799 L48.3284024,42.9585799 C47.7377219,42.9585799 47.2544379,42.4752959 47.2544379,41.8846154 L47.2544379,37.5887574 C47.2544379,36.9980769 47.7377219,36.5147929 48.3284024,36.5147929 L52.6242604,36.5147929 C53.2149408,36.5147929 53.6982249,36.9980769 53.6982249,37.5887574 L53.6982249,41.8846154" id="Fill-1346" fill="#C5CCCD"></path>
                                <path d="M62.2899408,41.8846154 C62.2899408,42.4752959 61.8066568,42.9585799 61.2159763,42.9585799 L56.9201183,42.9585799 C56.3294379,42.9585799 55.8461538,42.4752959 55.8461538,41.8846154 L55.8461538,37.5887574 C55.8461538,36.9980769 56.3294379,36.5147929 56.9201183,36.5147929 L61.2159763,36.5147929 C61.8066568,36.5147929 62.2899408,36.9980769 62.2899408,37.5887574 L62.2899408,41.8846154" id="Fill-1347" fill="#C5CCCD"></path>
                                <path d="M10.739645,50.4763314 C10.739645,51.0670118 10.2563609,51.5502959 9.66568047,51.5502959 L5.36982249,51.5502959 C4.77914201,51.5502959 4.29585799,51.0670118 4.29585799,50.4763314 L4.29585799,46.1804734 C4.29585799,45.5897929 4.77914201,45.1065089 5.36982249,45.1065089 L9.66568047,45.1065089 C10.2563609,45.1065089 10.739645,45.5897929 10.739645,46.1804734 L10.739645,50.4763314" id="Fill-1348" fill="#C5CCCD"></path>
                                <path d="M19.3313609,50.4763314 C19.3313609,51.0670118 18.8480769,51.5502959 18.2573964,51.5502959 L13.9615385,51.5502959 C13.370858,51.5502959 12.887574,51.0670118 12.887574,50.4763314 L12.887574,46.1804734 C12.887574,45.5897929 13.370858,45.1065089 13.9615385,45.1065089 L18.2573964,45.1065089 C18.8480769,45.1065089 19.3313609,45.5897929 19.3313609,46.1804734 L19.3313609,50.4763314" id="Fill-1349" fill="#C5CCCD"></path>
                                <path d="M27.9230769,50.4763314 C27.9230769,51.0670118 27.4397929,51.5502959 26.8491124,51.5502959 L22.5532544,51.5502959 C21.962574,51.5502959 21.4792899,51.0670118 21.4792899,50.4763314 L21.4792899,46.1804734 C21.4792899,45.5897929 21.962574,45.1065089 22.5532544,45.1065089 L26.8491124,45.1065089 C27.4397929,45.1065089 27.9230769,45.5897929 27.9230769,46.1804734 L27.9230769,50.4763314" id="Fill-1350" fill="#C5CCCD"></path>
                                <path d="M36.5147929,50.4763314 C36.5147929,51.0670118 36.0315089,51.5502959 35.4408284,51.5502959 L31.1449704,51.5502959 C30.5542899,51.5502959 30.0710059,51.0670118 30.0710059,50.4763314 L30.0710059,46.1804734 C30.0710059,45.5897929 30.5542899,45.1065089 31.1449704,45.1065089 L35.4408284,45.1065089 C36.0315089,45.1065089 36.5147929,45.5897929 36.5147929,46.1804734 L36.5147929,50.4763314" id="Fill-1351" fill="#C5CCCD"></path>
                                <path d="M45.1065089,50.4763314 C45.1065089,51.0670118 44.6232249,51.5502959 44.0325444,51.5502959 L39.7366864,51.5502959 C39.1460059,51.5502959 38.6627219,51.0670118 38.6627219,50.4763314 L38.6627219,46.1804734 C38.6627219,45.5897929 39.1460059,45.1065089 39.7366864,45.1065089 L44.0325444,45.1065089 C44.6232249,45.1065089 45.1065089,45.5897929 45.1065089,46.1804734 L45.1065089,50.4763314" id="Fill-1352" fill="#C5CCCD"></path>
                                <path d="M53.6982249,50.4763314 C53.6982249,51.0670118 53.2149408,51.5502959 52.6242604,51.5502959 L48.3284024,51.5502959 C47.7377219,51.5502959 47.2544379,51.0670118 47.2544379,50.4763314 L47.2544379,46.1804734 C47.2544379,45.5897929 47.7377219,45.1065089 48.3284024,45.1065089 L52.6242604,45.1065089 C53.2149408,45.1065089 53.6982249,45.5897929 53.6982249,46.1804734 L53.6982249,50.4763314" id="Fill-1353" fill="#C5CCCD"></path>
                                <path d="M62.2899408,50.4763314 C62.2899408,51.0670118 61.8066568,51.5502959 61.2159763,51.5502959 L56.9201183,51.5502959 C56.3294379,51.5502959 55.8461538,51.0670118 55.8461538,50.4763314 L55.8461538,46.1804734 C55.8461538,45.5897929 56.3294379,45.1065089 56.9201183,45.1065089 L61.2159763,45.1065089 C61.8066568,45.1065089 62.2899408,45.5897929 62.2899408,46.1804734 L62.2899408,50.4763314" id="Fill-1354" fill="#C5CCCD"></path>
                            </g>
                        </g>
                    </g>
                    <g id="Gear" mask="url(#mask-2)">
                        <g transform="translate(48.000000, 49.000000)">
                            <circle id="Oval" fill="#01B6C3" fill-rule="nonzero" cx="21.5" cy="21.5" r="4.5"></circle>
                            <g id="Gear-1" stroke-width="1" fill="none" fill-rule="evenodd" transform="translate(21.291883, 20.950929) rotate(-45.000000) translate(-21.291883, -20.950929) translate(6.791883, 6.450929)">
                                <path d="M17.6906676,14.6050447 C17.6906676,12.7657636 16.1469369,11.2578571 14.2405086,11.2578571 C12.3338039,11.2578571 10.7903497,12.7655977 10.7903497,14.6050447 C10.7903497,16.4444917 12.3338039,17.9522323 14.2405086,17.9522323 C16.1469369,17.9522323 17.6906676,16.4443258 17.6906676,14.6050447 Z M17.2390783,5.67355316 L17.2371343,5.67277088 C17.2361614,5.6724645 17.2374296,5.67294211 17.2390768,5.67355253 Z M25.2341269,10.8752079 L27.1269403,11.2863655 C28.4613742,11.5757511 29.4810172,12.8170277 29.4810172,14.1703259 L29.4810172,15.0397635 C29.4810172,16.3928859 28.4611,17.6344479 27.1267225,17.9236746 L25.2344081,18.3345029 L24.7089309,19.5823763 L25.7357885,21.1583921 C26.4792996,22.3004013 26.2998798,23.895858 25.3232918,24.8498489 L24.6937829,25.4647917 C23.7421781,26.3937112 22.1106078,26.569253 20.9799983,25.8647354 L19.340878,24.8466158 L18.0299177,25.3741449 L17.6123913,27.2083557 C17.3125462,28.5247694 16.0479581,29.5160449 14.6855245,29.5160449 L13.7954927,29.5160449 C12.4325301,29.5160449 11.1677545,28.5246224 10.8685961,27.2082245 L10.4511455,25.3743457 L9.13935649,24.846426 L7.50053066,25.8654732 C6.36678871,26.5687477 4.73793013,26.3928228 3.78697786,25.4645412 L3.15728037,24.8494142 C2.18050856,23.8952437 2.00122925,22.2994295 2.74532178,21.1582492 L3.77176153,19.582259 L3.24609836,18.3343202 L1.35352926,17.9237016 C0.01960898,17.6342807 -1,16.3926038 -1,15.0397635 L-1,14.1703259 C-1,12.8172042 0.0193970791,11.5760304 1.35408944,11.2859281 L3.24614815,10.8756413 L3.77192292,9.62746236 L2.74537502,8.05192196 C2.00168791,6.91031199 2.18069266,5.31533333 3.1575332,4.3604283 L3.78672149,3.7462334 C4.73743021,2.81685672 6.36829273,2.64154412 7.50066862,3.34541284 L9.13949388,4.36355514 L10.4512212,3.83576366 L10.8685408,2.00167317 C11.1678422,0.685313947 12.4326723,-0.305955546 13.7954927,-0.305955546 L14.6855245,-0.305955546 C16.0479824,-0.305955546 17.3129955,0.685339095 17.6129023,2.00202362 L18.0300585,3.83599789 L19.3407659,4.36348236 L20.980151,3.3451009 C22.1128702,2.64101883 23.7432636,2.81610631 24.6940394,3.74554815 L25.3239871,4.36091976 C26.3000033,5.31501977 26.4792358,6.91002078 25.73566,8.05146 L24.7088133,9.6278477 L25.2341269,10.8752079 Z" id="Fill-376" stroke="#01B6C3" stroke-width="2" fill="#546670"></path>
                                <path d="M8.80135237,24.0053175 C8.86212951,23.9673383 9.00379388,23.9267399 9.1718248,23.9267399 C9.30991404,23.9267399 9.41225202,23.953369 9.45738798,23.9769423 C9.48107319,23.9882924 9.5047584,23.9996425 9.52933739,24.0092464 L10.9222958,24.5697666 C10.9446404,24.5784975 10.9669849,24.5863552 10.9897763,24.5933399 C11.1555728,24.6452884 11.3968938,24.904158 11.4348795,25.0704805 L11.8969645,27.1004019 C12.0927027,27.9616997 12.9534142,28.636594 13.8570273,28.636594 L14.7508088,28.636594 C15.653975,28.636594 16.5146866,27.9616997 16.7108716,27.1004019 L17.1729566,25.0704805 C17.2104954,24.904158 17.4522633,24.6452884 17.6180598,24.5933399 C17.6408512,24.5863552 17.6631958,24.5784975 17.6850934,24.5697666 L19.0780518,24.0092464 C19.1026308,23.9996425 19.1267629,23.9882924 19.1500013,23.9769423 C19.1955841,23.953369 19.2979221,23.9267399 19.4351175,23.9267399 C19.6031485,23.9267399 19.7452597,23.9673383 19.8051431,24.0053175 L21.6016439,25.1211194 C22.3470576,25.5856004 23.4763505,25.4624955 24.0997631,24.8539556 L24.7316666,24.2366849 C25.3702735,23.612866 25.490934,22.5407183 25.0060575,21.7959773 L23.862911,20.041514 C23.7695108,19.8983282 23.7538697,19.5517137 23.83431,19.4015431 C23.846376,19.3784064 23.8575483,19.3552697 23.8673799,19.3316964 L24.4407407,17.9701212 C24.4501254,17.9487306 24.4586164,17.9269035 24.4653197,17.9046398 C24.5184997,17.7422461 24.7835059,17.5065133 24.9542182,17.4694072 L27.0313664,17.0184591 C27.9135287,16.8272536 28.6044218,15.9860367 28.6044218,15.1037849 L28.6044218,14.2307004 C28.6044218,13.348012 27.9135287,12.5072317 27.0318132,12.3160262 L24.9537713,11.8646415 C24.7835059,11.827972 24.5184997,11.5922392 24.4653197,11.4298455 C24.4586164,11.4075818 24.4501254,11.3857547 24.4407407,11.3643641 L23.8673799,10.0032255 C23.8575483,9.97965217 23.846376,9.95607889 23.83431,9.93337869 C23.7538697,9.78277162 23.7695108,9.43572055 23.862911,9.29297124 L25.0060575,7.53807147 C25.490934,6.79376697 25.3214892,5.76971126 24.6833292,5.14589242 L24.0928564,4.56908811 L17.2664883,11.2375023 C18.0758074,12.0280802 18.7728255,13.4636957 18.7728255,14.6672426 C18.7728255,17.0743365 16.7676267,19.032665 14.3039181,19.032665 C13.0718403,19.032665 11.7326716,18.2240069 10.9233524,17.4338655 L3.91778823,24.2773293 L4.50807303,24.8539556 C5.13059183,25.4616224 6.25809717,25.5856004 7.00619227,25.121556 L8.80135237,24.0053175 Z" id="Fill-377" fill="#30404D"></path>
                            </g>
                            <g id="Gear-2" stroke-width="1" fill="none" fill-rule="evenodd" transform="translate(17.000000, 17.000000)">
                                <path d="M4.72972973,8.765625 C7.34243243,8.765625 9.45945946,6.80387813 9.45945946,4.3828125 C9.45945946,1.96174688 7.34243243,0 4.72972973,0 C2.11797297,0 0,1.96174688 0,4.3828125 C0,6.80387813 2.11797297,8.765625 4.72972973,8.765625 Z" id="Stroke-4" stroke="#30404D"></path>
                                <g id="Group-8" transform="translate(5.159705, 0.000000)">
                                    <mask id="mask-5" fill="white">
                                        <use xlink:href="#path-4"></use>
                                    </mask>
                                    <g id="Clip-7"></g>
                                    <polygon id="Stroke-6" stroke="#C4C4C4" mask="url(#mask-5)" points="-6.54035054 12.9230484 7.22880849 12.9230484 7.22880849 -3.75185277 -6.54035054 -3.75185277"></polygon>
                                </g>
                                <path d="M4.2997543,8.765625 C6.67493857,8.765625 8.5995086,6.80387813 8.5995086,4.3828125 C8.5995086,1.96174688 6.67493857,0 4.2997543,0" id="Stroke-9" stroke="#546670"></path>
                            </g>
                        </g>
                    </g>
                    <path d="M25.21875,30.4023437 L23.5488281,30.4023437 L21.8261719,27.3203125 C21.7753904,27.226562 21.7187503,27.0937509 21.65625,26.921875 L21.6328125,26.921875 C21.5976561,27.0078129 21.5390629,27.1406241 21.4570312,27.3203125 L19.6816406,30.4023437 L18,30.4023437 L20.7539062,26.1777344 L18.2226562,22 L19.9277344,22 L21.4453125,24.8359375 C21.5429692,25.0234384 21.630859,25.2109366 21.7089844,25.3984375 L21.7265625,25.3984375 C21.8398443,25.1523425 21.9374996,24.957032 22.0195312,24.8125 L23.5957031,22 L25.1660156,22 L22.5761719,26.1660156 L25.21875,30.4023437 Z M26.3671875,30.4023437 L26.3671875,22 L29.0332031,22 C29.8457072,22 30.4892554,22.1777326 30.9638672,22.5332031 C31.4384789,22.8886737 31.6757812,23.3515596 31.6757812,23.921875 C31.6757812,24.3984399 31.541017,24.8124982 31.2714844,25.1640625 C31.0019518,25.5156268 30.6289086,25.7656243 30.1523438,25.9140625 L30.1523438,25.9375 C30.7304716,26.0039066 31.1923811,26.2177716 31.5380859,26.5791016 C31.8837908,26.9404315 32.0566406,27.4101534 32.0566406,27.9882812 C32.0566406,28.7070348 31.7734403,29.2890603 31.2070312,29.734375 C30.6406222,30.1796897 29.9257856,30.4023437 29.0625,30.4023437 L26.3671875,30.4023437 Z M27.7558594,23.1191406 L27.7558594,25.5097656 L28.6582031,25.5097656 C29.1425805,25.5097656 29.5224596,25.395509 29.7978516,25.1669922 C30.0732436,24.9384754 30.2109375,24.6152365 30.2109375,24.1972656 C30.2109375,23.478512 29.7304736,23.1191406 28.7695312,23.1191406 L27.7558594,23.1191406 Z M27.7558594,26.6289062 L27.7558594,29.2890625 L28.9453125,29.2890625 C29.4648463,29.2890625 29.8662095,29.1689465 30.1494141,28.9287109 C30.4326186,28.6884754 30.5742188,28.357424 30.5742188,27.9355469 C30.5742188,27.0644488 29.9707092,26.6289062 28.7636719,26.6289062 L27.7558594,26.6289062 Z M40.1074219,30.4023437 L38.4785156,30.4023437 L37.1367188,28.1523437 C37.0156244,27.9453115 36.8974615,27.7685554 36.7822266,27.6220703 C36.6669916,27.4755852 36.5498053,27.3554692 36.4306641,27.2617187 C36.3115228,27.1679683 36.1816413,27.0996096 36.0410156,27.0566406 C35.9003899,27.0136717 35.7421884,26.9921875 35.5664062,26.9921875 L35.0039062,26.9921875 L35.0039062,30.4023437 L33.6152344,30.4023437 L33.6152344,22 L36.3808594,22 C36.7753926,22 37.1386702,22.0468745 37.4707031,22.140625 C37.802736,22.2343755 38.0917956,22.3759756 38.3378906,22.5654297 C38.5839856,22.7548838 38.7763665,22.9912095 38.9150391,23.2744141 C39.0537116,23.5576186 39.1230469,23.88867 39.1230469,24.2675781 C39.1230469,24.5644546 39.079102,24.8369128 38.9912109,25.0849609 C38.9033199,25.3330091 38.7783211,25.55371 38.6162109,25.7470703 C38.4541008,25.9404307 38.2587902,26.1054681 38.0302734,26.2421875 C37.8017567,26.3789069 37.5449233,26.4843746 37.2597656,26.5585937 L37.2597656,26.5820312 C37.4121101,26.6679692 37.5449213,26.7626948 37.6582031,26.8662109 C37.7714849,26.9697271 37.8789057,27.0761713 37.9804688,27.1855469 C38.0820318,27.2949224 38.1826167,27.4189446 38.2822266,27.5576172 C38.3818364,27.6962898 38.4921869,27.857421 38.6132812,28.0410156 L40.1074219,30.4023437 Z M35.0039062,23.1308594 L35.0039062,25.8613281 L36.1640625,25.8613281 C36.3789073,25.8613281 36.5771475,25.8281253 36.7587891,25.7617187 C36.9404306,25.6953122 37.0976556,25.59961 37.2304688,25.4746094 C37.3632819,25.3496087 37.4667965,25.1972665 37.5410156,25.0175781 C37.6152347,24.8378897 37.6523438,24.6367199 37.6523438,24.4140625 C37.6523438,24.0117167 37.5253919,23.6972668 37.2714844,23.4707031 C37.0175769,23.2441395 36.6523461,23.1308594 36.1757812,23.1308594 L35.0039062,23.1308594 Z M45.7382812,30.4023437 L41.0859375,30.4023437 L41.0859375,22 L42.4804688,22 L42.4804688,29.2246094 L45.7382812,29.2246094 L45.7382812,30.4023437 Z" id="XBRL" fill="#FFFFFF" fill-rule="nonzero" mask="url(#mask-2)"></path>
                </g>
                <g id="Dynamic-Border" stroke="#1D8E96" stroke-width="4">
                    <rect id="Azure-Border" x="2" y="2" width="96" height="96" rx="48"></rect>
                </g>
            </g>
        </g>
    </g>
</svg>