<?xml version="1.0" encoding="UTF-8"?>
<svg width="100px" height="100px" viewBox="0 0 100 100" version="1.1" xmlns="http://www.w3.org/2000/svg" xmlns:xlink="http://www.w3.org/1999/xlink">
    <!-- Generator: Sketch 55.2 (78181) - https://sketchapp.com -->
    <title>Deploy and Configure Microsoft Dynamics 365 Business Central/administer-business-central-online</title>
    <desc>Created with Sketch.</desc>
    <defs>
        <rect id="path-1" x="0" y="0" width="96" height="96" rx="48"></rect>
        <filter x="-6.8%" y="-5.8%" width="113.6%" height="111.6%" filterUnits="objectBoundingBox" id="filter-3">
            <feOffset dx="0" dy="2" in="SourceAlpha" result="shadowOffsetOuter1"></feOffset>
            <feColorMatrix values="0 0 0 0 0   0 0 0 0 0   0 0 0 0 0  0 0 0 0.100939764 0" type="matrix" in="shadowOffsetOuter1" result="shadowMatrixOuter1"></feColorMatrix>
            <feMerge>
                <feMergeNode in="shadowMatrixOuter1"></feMergeNode>
                <feMergeNode in="SourceGraphic"></feMergeNode>
            </feMerge>
        </filter>
    </defs>
    <g id="Badges" stroke="none" stroke-width="1" fill="none" fill-rule="evenodd">
        <g id="Deploy-and-Configure-Microsoft-Dynamics-365-Business-Central" transform="translate(-50.000000, -260.000000)">
            <g id="Deploy-and-Configure-Microsoft-Dynamics-365-Business-Central/administer-business-central-online" transform="translate(50.000000, 260.000000)">
                <g id="Mask" transform="translate(2.000000, 2.000000)">
                    <mask id="mask-2" fill="white">
                        <use xlink:href="#path-1"></use>
                    </mask>
                    <use id="BG" fill="#01B6C3" xlink:href="#path-1"></use>
                    <g id="Robot" filter="url(#filter-3)" mask="url(#mask-2)">
                        <g transform="translate(19.000000, 14.000000)">
                            <g id="Group-4">
                                <path d="M54.0196743,60.3040935 L4.9131116,60.3040935 C2.19997401,60.3040935 0.00245532814,58.1016641 0.00245532814,55.3934372 L0.00245532814,25.9294996 C0.00245532814,23.2139066 2.19997401,21.0188433 4.9131116,21.0188433 L54.0196743,21.0188433 C56.7303566,21.0188433 58.9303306,23.2139066 58.9303306,25.9294996 L58.9303306,55.3934372 C58.9303306,58.1016641 56.7303566,60.3040935 54.0196743,60.3040935" id="Fill-302" fill="#546670"></path>
                                <path d="M24.5557367,55.3934372 L0.00245532814,55.3934372 C0.00245532814,58.1016641 2.19997401,60.3040935 4.9131116,60.3040935 L54.0196743,60.3040935 C56.7303566,60.3040935 58.9303306,58.1065748 58.9303306,55.3934372 L58.9303306,25.9294996 L31.466393,25.9294996 C30.3618235,25.9294996 29.466393,26.8249301 29.466393,27.9294996 L29.466393,50.4827809 C29.466393,53.1959185 27.2664189,55.3934372 24.5557367,55.3934372 Z" id="Fill-303" fill="#30404D"></path>
                                <g id="Group-2" transform="translate(19.304426, 0.699820)">
                                    <path d="M10.161205,16.9325196 C9.22483669,16.9325196 8.46795306,16.0232433 8.46795306,14.898924 L8.46795306,8.80321695 C8.46795306,7.68228415 9.22483669,6.77300785 10.161205,6.77300785 C11.0958801,6.77300785 11.854457,7.68228415 11.854457,8.80321695 L11.854457,14.898924 C11.854457,16.0232433 11.0958801,16.9325196 10.161205,16.9325196" id="Fill-304" fill="#243038"></path>
                                    <path d="M15.2409609,5.07975589 C15.2409609,7.88378113 12.963537,10.1595118 10.161205,10.1595118 C7.35379327,10.1595118 5.08144914,7.88378113 5.08144914,5.07975589 C5.08144914,2.27573064 7.35379327,0 10.161205,0 C12.963537,0 15.2409609,2.27573064 15.2409609,5.07975589" id="Fill-305" fill="#30404D"></path>
                                    <path d="M12.7925186,0.755190375 C13.2615494,1.52392677 13.5477089,2.41965705 13.5477089,3.38650392 C13.5477089,6.19052917 11.2702851,8.46625981 8.46795306,8.46625981 C7.49941294,8.46625981 6.6053759,8.18179348 5.83494626,7.71106943 C6.72729004,9.17403913 8.32233339,10.1595118 10.161205,10.1595118 C12.963537,10.1595118 15.2409609,7.88378113 15.2409609,5.07975589 C15.2409609,3.24257751 14.253795,1.64753416 12.7925186,0.755190375" id="Fill-306" fill="#182A37"></path>
                                    <path d="M19.7280786,20.3190235 C18.3277592,16.3788262 14.5738196,13.5460157 10.161205,13.5460157 C5.74689716,13.5460157 1.99465081,16.3788262 0.592638187,20.3190235 L19.7280786,20.3190235" id="Fill-307" fill="#30404D"></path>
                                    <path d="M10.8080273,13.5968133 L6.7747011,20.3190235 L19.7280786,20.3190235 C18.3971826,16.5752435 14.9344823,13.8609606 10.8080273,13.5968133" id="Fill-321" fill="#182A37"></path>
                                </g>
                            </g>
                            <g id="Group" transform="translate(3.557989, 24.729922)">
                                <path d="M1.72513909,0.261151311 C0.879607784,0.261151311 0.194765682,0.946758599 0.194765682,1.79152472 L0.194765682,30.8686196 C0.194765682,31.7133857 0.879607784,32.398993 1.72513909,32.398993 L7.84663274,32.398993 L7.84663274,41.5812334 C7.84663274,42.2002695 8.21927867,42.7580906 8.79163832,42.9952985 C8.98063944,43.0733475 9.17958798,43.1116069 9.37624097,43.1116069 C9.77490324,43.1116069 10.1666788,42.956274 10.4589802,42.6632074 L20.7239598,32.398993 L50.0916696,32.398993 C50.9364357,32.398993 51.622043,31.7133857 51.622043,30.8686196 L51.622043,1.79152472 C51.622043,0.946758599 50.9364357,0.261151311 50.0916696,0.261151311 L1.72513909,0.261151311 Z" id="Fill-138" fill="#FFFFFF"></path>
                                <path d="M7.84663274,32.398993 L7.84663274,41.5812334 C7.84663274,42.2002695 8.21927867,42.7580906 8.79163832,42.9952985 C8.98063944,43.0733475 9.17958798,43.1116069 9.37624097,43.1116069 C9.77490324,43.1116069 10.1666788,42.956274 10.4589802,42.6632074 L20.7239598,32.398993 L7.84663274,32.398993 Z" id="Fill-138-Copy-2" fill="#E1E4E1"></path>
                                <path d="M51.622043,3.29360249 L51.622043,30.8686196 C51.622043,31.7133857 50.9364357,32.398993 50.0916696,32.398993 L20.7239598,32.398993 L20.6026624,32.5202814 L7.84663274,32.5202814 L7.84663274,32.398993 L1.72513909,32.398993 C0.83368965,32.398993 0.194765682,31.7075885 0.194765682,30.6692277 L21.7309279,30.6692277 C24.0368949,30.6692277 25.9084043,28.8008079 25.9084043,26.4939879 L25.9084043,5.29360249 C25.9084043,4.18903299 26.8038348,3.29360249 27.9084043,3.29360249 L51.622043,3.29360249 Z" id="Fill-138-Copy" fill="#E1E4E1"></path>
                            </g>
                        </g>
                    </g>
                    <g id="Business-Central-logo" mask="url(#mask-2)" fill="#30404D">
                        <g transform="translate(34.000000, 41.000000)">
                            <path d="M19.2797306,8.72026937 L18.6197643,9.3802357 C18.5371286,9.29759998 18.4522895,9.21716764 18.3653427,9.13903435 C17.2083088,8.09928478 15.6780323,7.46666667 14,7.46666667 C10.3917396,7.46666667 7.46666667,10.3917396 7.46666667,14 C7.46666667,17.6082604 10.3917396,20.5333333 14,20.5333333 C15.8041302,20.5333333 17.4374635,19.8020651 18.6197643,18.6197643 L19.279732,19.279732 C17.9285297,20.6309315 16.0618631,21.4666667 14,21.4666667 C9.87627387,21.4666667 6.53333333,18.1237261 6.53333333,14 C6.53333333,9.87627387 9.87627387,6.53333333 14,6.53333333 C15.9177512,6.53333333 17.6666386,7.25632546 18.9889631,8.44461069 C19.0883309,8.53390588 19.1852898,8.62582855 19.2797306,8.72026937 Z" id="Combined-Shape"></path>
                            <path d="M14,5.6 C12.4536027,5.6 11.2,4.3463973 11.2,2.8 C11.2,1.2536027 12.4536027,0 14,0 C14.7191567,0 15.3749895,0.271122047 15.8708612,0.716729009 C16.4412587,1.22930736 16.8,1.97275942 16.8,2.8 C16.8,3.5540989 16.5018915,4.23857083 16.0170932,4.74199702 C15.5077371,5.27092468 14.7922984,5.6 14,5.6 Z M14,4.66666667 C14.5281989,4.66666667 15.0051581,4.44728312 15.3447288,4.09466468 C15.6679277,3.75904722 15.8666667,3.3027326 15.8666667,2.8 C15.8666667,2.24850628 15.6275058,1.75287157 15.2472408,1.41115267 C14.9166597,1.11408136 14.4794378,0.933333333 14,0.933333333 C12.9690685,0.933333333 12.1333333,1.76906847 12.1333333,2.8 C12.1333333,3.83093153 12.9690685,4.66666667 14,4.66666667 Z" id="Combined-Shape"></path>
                            <path d="M14,16.8 C12.4536027,16.8 11.2,15.5463973 11.2,14 C11.2,12.4536027 12.4536027,11.2 14,11.2 C14.7191567,11.2 15.3749895,11.471122 15.8708612,11.916729 C16.4412587,12.4293074 16.8,13.1727594 16.8,14 C16.8,14.7540989 16.5018915,15.4385708 16.0170932,15.941997 C15.5077371,16.4709247 14.7922984,16.8 14,16.8 Z M14,15.8666667 C14.5281989,15.8666667 15.0051581,15.6472831 15.3447288,15.2946647 C15.6679277,14.9590472 15.8666667,14.5027326 15.8666667,14 C15.8666667,13.4485063 15.6275058,12.9528716 15.2472408,12.6111527 C14.9166597,12.3140814 14.4794378,12.1333333 14,12.1333333 C12.9690685,12.1333333 12.1333333,12.9690685 12.1333333,14 C12.1333333,15.0309315 12.9690685,15.8666667 14,15.8666667 Z" id="Combined-Shape"></path>
                            <path d="M25.2,16.8 C23.6536027,16.8 22.4,15.5463973 22.4,14 C22.4,12.4536027 23.6536027,11.2 25.2,11.2 C25.9191567,11.2 26.5749895,11.471122 27.0708612,11.916729 C27.6412587,12.4293074 28,13.1727594 28,14 C28,14.7540989 27.7018915,15.4385708 27.2170932,15.941997 C26.7077371,16.4709247 25.9922984,16.8 25.2,16.8 Z M25.2,15.8666667 C25.7281989,15.8666667 26.2051581,15.6472831 26.5447288,15.2946647 C26.8679277,14.9590472 27.0666667,14.5027326 27.0666667,14 C27.0666667,13.4485063 26.8275058,12.9528716 26.4472408,12.6111527 C26.1166597,12.3140814 25.6794378,12.1333333 25.2,12.1333333 C24.1690685,12.1333333 23.3333333,12.9690685 23.3333333,14 C23.3333333,15.0309315 24.1690685,15.8666667 25.2,15.8666667 Z" id="Combined-Shape"></path>
                            <path d="M14,28 C12.4536027,28 11.2,26.7463973 11.2,25.2 C11.2,23.6536027 12.4536027,22.4 14,22.4 C14.7191567,22.4 15.3749895,22.671122 15.8708612,23.116729 C16.4412587,23.6293074 16.8,24.3727594 16.8,25.2 C16.8,25.9540989 16.5018915,26.6385708 16.0170932,27.141997 C15.5077371,27.6709247 14.7922984,28 14,28 Z M14,27.0666667 C14.5281989,27.0666667 15.0051581,26.8472831 15.3447288,26.4946647 C15.6679277,26.1590472 15.8666667,25.7027326 15.8666667,25.2 C15.8666667,24.6485063 15.6275058,24.1528716 15.2472408,23.8111527 C14.9166597,23.5140814 14.4794378,23.3333333 14,23.3333333 C12.9690685,23.3333333 12.1333333,24.1690685 12.1333333,25.2 C12.1333333,26.2309315 12.9690685,27.0666667 14,27.0666667 Z" id="Combined-Shape"></path>
                            <rect id="Rectangle" x="15.8666667" y="13.0666667" width="7.46666667" height="1.86666667"></rect>
                            <polygon id="Rectangle" transform="translate(14.000000, 6.066667) rotate(90.000000) translate(-14.000000, -6.066667) " points="13.0666667 5.13333333 14.9333333 5.13333333 14.9333333 7 13.0666667 7"></polygon>
                            <rect id="Rectangle" x="5.13333333" y="13.0666667" width="1.86666667" height="1.86666667"></rect>
                            <polygon id="Rectangle" transform="translate(14.000000, 21.933333) rotate(90.000000) translate(-14.000000, -21.933333) " points="13.0666667 21 14.9333333 21 14.9333333 22.8666667 13.0666667 22.8666667"></polygon>
                            <path d="M2.8,16.8 C1.2536027,16.8 -2.90922841e-12,15.5463973 -2.90922841e-12,14 C-2.90922841e-12,12.4536027 1.2536027,11.2 2.8,11.2 C3.51915672,11.2 4.17498948,11.471122 4.67086117,11.916729 C5.24125867,12.4293074 5.6,13.1727594 5.6,14 C5.6,14.7540989 5.30189149,15.4385708 4.81709325,15.941997 C4.30773714,16.4709247 3.5922984,16.8 2.8,16.8 Z M2.8,15.8666667 C3.32819893,15.8666667 3.80515809,15.6472831 4.14472883,15.2946647 C4.46792766,14.9590472 4.66666667,14.5027326 4.66666667,14 C4.66666667,13.4485063 4.42750578,12.9528716 4.04724078,12.6111527 C3.71665966,12.3140814 3.27943781,12.1333333 2.8,12.1333333 C1.76906847,12.1333333 0.933333333,12.9690685 0.933333333,14 C0.933333333,15.0309315 1.76906847,15.8666667 2.8,15.8666667 Z" id="Combined-Shape"></path>
                        </g>
                    </g>
                </g>
                <g id="Dynamic-Border" stroke="#1D8E96" stroke-width="4">
                    <rect id="Azure-Border" x="2" y="2" width="96" height="96" rx="48"></rect>
                </g>
            </g>
        </g>
    </g>
</svg>