<?xml version="1.0" encoding="UTF-8"?>
<svg width="101px" height="101px" viewBox="0 0 101 101" version="1.1" xmlns="http://www.w3.org/2000/svg" xmlns:xlink="http://www.w3.org/1999/xlink">
    <!-- Generator: Sketch 64 (93537) - https://sketch.com -->
    <title>Learn the application foundation with the AL programming language for Microsoft Dynamics 365 Business Central/Learn-the-AL-statements-in-Dynamics-365-Business-Central</title>
    <desc>Created with Sketch.</desc>
    <defs>
        <rect id="path-1" x="0" y="0" width="94.3396226" height="94.3396226" rx="47.1698113"></rect>
        <linearGradient x1="77.8299825%" y1="11.1997378%" x2="-99.6885927%" y2="253.807911%" id="linearGradient-3">
            <stop stop-color="#FFFFFF" offset="0%"></stop>
            <stop stop-color="#000000" stop-opacity="0.5" offset="100%"></stop>
        </linearGradient>
        <rect id="path-4" x="0" y="0" width="94.3396226" height="94.3396226"></rect>
        <rect id="path-5" x="0" y="0" width="100" height="100" rx="50"></rect>
        <filter x="-0.5%" y="-0.5%" width="102.0%" height="102.0%" filterUnits="objectBoundingBox" id="filter-6">
            <feOffset dx="1" dy="1" in="SourceAlpha" result="shadowOffsetOuter1"></feOffset>
            <feMorphology radius="4" operator="erode" in="SourceAlpha" result="shadowInner"></feMorphology>
            <feOffset dx="1" dy="1" in="shadowInner" result="shadowInner"></feOffset>
            <feComposite in="shadowOffsetOuter1" in2="shadowInner" operator="out" result="shadowOffsetOuter1"></feComposite>
            <feColorMatrix values="0 0 0 0 0   0 0 0 0 0   0 0 0 0 0  0 0 0 0.15 0" type="matrix" in="shadowOffsetOuter1"></feColorMatrix>
        </filter>
        <path d="M50,2.83018868 C76.0511674,2.83018868 97.1698113,23.9488326 97.1698113,50 C97.1698113,76.0511674 76.0511674,97.1698113 50,97.1698113 C23.9488326,97.1698113 2.83018868,76.0511674 2.83018868,50 C2.83018868,23.9488326 23.9488326,2.83018868 50,2.83018868 Z M50,6.60377358 C26.032926,6.60377358 6.60377358,26.032926 6.60377358,50 C6.60377358,73.967074 26.032926,93.3962264 50,93.3962264 C73.967074,93.3962264 93.3962264,73.967074 93.3962264,50 C93.3962264,26.032926 73.967074,6.60377358 50,6.60377358 Z" id="path-7"></path>
        <filter x="-24.0%" y="-24.9%" width="148.0%" height="151.2%" filterUnits="objectBoundingBox" id="filter-9">
            <feOffset dx="0" dy="2" in="SourceAlpha" result="shadowOffsetOuter1"></feOffset>
            <feGaussianBlur stdDeviation="2" in="shadowOffsetOuter1" result="shadowBlurOuter1"></feGaussianBlur>
            <feColorMatrix values="0 0 0 0 0   0 0 0 0 0   0 0 0 0 0  0 0 0 0.1 0" type="matrix" in="shadowBlurOuter1" result="shadowMatrixOuter1"></feColorMatrix>
            <feMerge>
                <feMergeNode in="shadowMatrixOuter1"></feMergeNode>
                <feMergeNode in="SourceGraphic"></feMergeNode>
            </feMerge>
        </filter>
        <linearGradient x1="50%" y1="100%" x2="50%" y2="0%" id="linearGradient-10">
            <stop stop-color="#0078D4" offset="0%"></stop>
            <stop stop-color="#5EA0EF" offset="82%"></stop>
        </linearGradient>
        <linearGradient x1="50%" y1="100%" x2="50%" y2="0%" id="linearGradient-11">
            <stop stop-color="#CCCCCC" offset="15%"></stop>
            <stop stop-color="#707070" offset="100%"></stop>
        </linearGradient>
        <linearGradient x1="50%" y1="97.5691716%" x2="50%" y2="-5.30956676%" id="linearGradient-12">
            <stop stop-color="#5EA0EF" offset="0%"></stop>
            <stop stop-color="#559CEC" offset="18%"></stop>
            <stop stop-color="#3C91E5" offset="47%"></stop>
            <stop stop-color="#1380DA" offset="84%"></stop>
            <stop stop-color="#0078D4" offset="100%"></stop>
        </linearGradient>
        <linearGradient x1="13.1497608%" y1="39.0695459%" x2="13.1497608%" y2="62.1446421%" id="linearGradient-13">
            <stop stop-color="#5ACAD2" offset="0%"></stop>
            <stop stop-color="#48B1B9" offset="48.4165984%"></stop>
            <stop stop-color="#4BBFC7" offset="100%"></stop>
        </linearGradient>
        <radialGradient cx="49.5767219%" cy="41.8273748%" fx="49.5767219%" fy="41.8273748%" r="46.6452425%" gradientTransform="translate(0.495767,0.418274),scale(1.000000,0.869833),translate(-0.495767,-0.418274)" id="radialGradient-14">
            <stop stop-color="#F9F194" offset="0%"></stop>
            <stop stop-color="#F3E975" offset="20%"></stop>
            <stop stop-color="#F1E05B" offset="45%"></stop>
            <stop stop-color="#EDD93A" offset="75.0554265%"></stop>
            <stop stop-color="#F1D812" offset="100%"></stop>
        </radialGradient>
    </defs>
    <g id="Badges" stroke="none" stroke-width="1" fill="none" fill-rule="evenodd">
        <g id="Learn-the-application-foundation-with-the-AL-programming-language-for-Microsoft-Dynamics-365-Business-Central" transform="translate(-160.000000, -510.000000)">
            <g id="Learn-the-application-foundation-with-the-AL-programming-language-for-Microsoft-Dynamics-365-Business-Central/Learn-the-AL-statements-in-Dynamics-365-Business-Central" transform="translate(160.000000, 510.000000)">
                <g id="Badge-Plates/Circle">
                    <g id="BG" transform="translate(2.830189, 2.830189)">
                        <mask id="mask-2" fill="white">
                            <use xlink:href="#path-1"></use>
                        </mask>
                        <g></g>
                        <g id="Colors/Dynamics-365/BG-Solid-Badges" mask="url(#mask-2)">
                            <g id="Rectangle">
                                <use fill="#01B6C3" xlink:href="#path-4"></use>
                                <use fill-opacity="0.4" fill="url(#linearGradient-3)" xlink:href="#path-4"></use>
                            </g>
                        </g>
                    </g>
                    <g id="Border">
                        <g id="White-Border">
                            <use fill="black" fill-opacity="1" filter="url(#filter-6)" xlink:href="#path-5"></use>
                            <rect stroke="#F2F1F0" stroke-width="4" stroke-linejoin="square" x="2" y="2" width="96" height="96" rx="48"></rect>
                        </g>
                        <mask id="mask-8" fill="white">
                            <use xlink:href="#path-7"></use>
                        </mask>
                        <use id="Boarder" fill="#0078D4" fill-rule="nonzero" xlink:href="#path-7"></use>
                        <g id="Colors/Dynamics-365/Border" mask="url(#mask-8)" fill="#008372">
                            <g transform="translate(2.830189, 2.830189)" id="Rectangle">
                                <rect x="0" y="0" width="94.3396226" height="94.3396226"></rect>
                            </g>
                        </g>
                    </g>
                </g>
                <g id="Group-3" transform="translate(22.000000, 23.000000)">
                    <g id="Computer-w/-code" transform="translate(0.000000, 0.000000)">
                        <g id="Icon-compute-21-Virtual-Machine" filter="url(#filter-9)" fill-rule="nonzero">
                            <rect id="Rectangle" fill="url(#linearGradient-10)" x="0" y="0" width="50" height="34.4827586" rx="0.6"></rect>
                            <path d="M35.3735201,45.29679 C30.2585988,44.4626499 30.0574502,40.6494377 30.0574502,34.4827586 L19.9138142,34.4827586 C19.9138142,40.6494377 19.7414012,44.4626499 14.6264799,45.29679 C13.1640293,45.4645568 12.0600933,46.7504826 12.0689655,48.2758621 L37.9310345,48.2758621 C37.9399067,46.7504826 36.8359707,45.4645568 35.3735201,45.29679 Z" id="Path" fill="url(#linearGradient-11)"></path>
                        </g>
                        <g id="Group-21" transform="translate(3.448276, 0.000000)">
                            <polygon id="Fill-1525" fill="url(#linearGradient-12)" points="5.45454545 34.4827586 6.36363636 34.4827586 6.36363636 3.92023578e-13 5.45454545 3.92023578e-13"></polygon>
                            <g id="Group-24" transform="translate(0.000000, 15.201850)" fill="#FFFFFF">
                                <path d="M2.51593995,0.973668888 C2.51593995,1.51113411 2.01468121,1.94733778 1.39705883,1.94733778 C0.778877014,1.94733778 0.278177713,1.51113411 0.278177713,0.973668888 C0.278177713,0.435716827 0.778877014,0 1.39705883,0 C2.01468121,0 2.51593995,0.435716827 2.51593995,0.973668888" id="Fill-1526"></path>
                                <path d="M2.51593995,6.39839555 C2.51593995,6.93586078 2.01468121,7.37206444 1.39705883,7.37206444 C0.778877014,7.37206444 0.278177713,6.93586078 0.278177713,6.39839555 C0.278177713,5.86044349 0.778877014,5.42472666 1.39705883,5.42472666 C2.01468121,5.42472666 2.51593995,5.86044349 2.51593995,6.39839555" id="Fill-1528"></path>
                                <path d="M2.51593995,11.6840267 C2.51593995,12.2214919 2.01468121,12.6576955 1.39705883,12.6576955 C0.778877014,12.6576955 0.278177713,12.2214919 0.278177713,11.6840267 C0.278177713,11.1460746 0.778877014,10.7103578 1.39705883,10.7103578 C2.01468121,10.7103578 2.51593995,11.1460746 2.51593995,11.6840267" id="Fill-1530"></path>
                            </g>
                            <path d="M21.048951,27.8595458 L12.5874126,27.8595458 C12.162028,27.8595458 11.8181818,27.4554037 11.8181818,26.9554247 C11.8181818,26.4554458 12.162028,26.0513036 12.5874126,26.0513036 L21.048951,26.0513036 C21.4743357,26.0513036 21.8181818,26.4554458 21.8181818,26.9554247 C21.8181818,27.4554037 21.4743357,27.8595458 21.048951,27.8595458" id="Fill-1531" fill="#FFFFFE"></path>
                            <path d="M31.5649351,27.8595458 L24.7467532,27.8595458 C24.1183442,27.8595458 23.6103896,27.4554037 23.6103896,26.9554247 C23.6103896,26.4554458 24.1183442,26.0513036 24.7467532,26.0513036 L31.5649351,26.0513036 C32.1933442,26.0513036 32.7012987,26.4554458 32.7012987,26.9554247 C32.7012987,27.4554037 32.1933442,27.8595458 31.5649351,27.8595458" id="Fill-1532" fill="#FFFFFF"></path>
                            <path d="M19.7467532,11.5853659 L12.9285714,11.5853659 C12.3001623,11.5853659 11.7922078,11.1812237 11.7922078,10.6812447 C11.7922078,10.1812658 12.3001623,9.77712363 12.9285714,9.77712363 L19.7467532,9.77712363 C20.3751623,9.77712363 20.8831169,10.1812658 20.8831169,10.6812447 C20.8831169,11.1812237 20.3751623,11.5853659 19.7467532,11.5853659" id="Fill-1532" fill="#FFFFFF"></path>
                            <path d="M21.8881119,22.4348192 L12.6573427,22.4348192 C12.1932867,22.4348192 11.8181818,22.030677 11.8181818,21.5306981 C11.8181818,21.0307191 12.1932867,20.626577 12.6573427,20.626577 L21.8881119,20.626577 C22.3521678,20.626577 22.7272727,21.0307191 22.7272727,21.5306981 C22.7272727,22.030677 22.3521678,22.4348192 21.8881119,22.4348192" id="Fill-1534" fill="#FFFFFE"></path>
                            <path d="M34.6153846,22.4348192 L25.3846154,22.4348192 C24.9205594,22.4348192 24.5454545,22.030677 24.5454545,21.5306981 C24.5454545,21.0307191 24.9205594,20.626577 25.3846154,20.626577 L34.6153846,20.626577 C35.0794406,20.626577 35.4545455,21.0307191 35.4545455,21.5306981 C35.4545455,22.030677 35.0794406,22.4348192 34.6153846,22.4348192" id="Fill-1534" fill="#FFFFFE"></path>
                            <path d="M40.0699301,22.4348192 L30.8391608,22.4348192 C30.3751049,22.4348192 30,22.030677 30,21.5306981 C30,21.0307191 30.3751049,20.626577 30.8391608,20.626577 L40.0699301,20.626577 C40.533986,20.626577 40.9090909,21.0307191 40.9090909,21.5306981 C40.9090909,22.030677 40.533986,22.4348192 40.0699301,22.4348192" id="Fill-1534" fill="#FFFFFE"></path>
                            <path d="M12.7712288,17.0100925 C12.2298302,17.0100925 11.7922078,16.6059504 11.7922078,16.1059714 C11.7922078,15.6059924 12.2298302,15.2018503 12.7712288,15.2018503 L23.5404595,15.2018503 C24.0818581,15.2018503 24.5194805,15.6059924 24.5194805,16.1059714 C24.5194805,16.6059504 24.0818581,17.0100925 23.5404595,17.0100925 L12.7712288,17.0100925 Z" id="Fill-1540" fill="#FFFFFE"></path>
                        </g>
                    </g>
                    <g id="Dynamics-BC-01-2" transform="translate(34.868421, 1.973684)" fill="#FFFFFF" fill-rule="nonzero">
                        <path d="M6.50349767,0.952558129 C6.72701532,0.938234345 6.9748501,1.14193188 6.97751499,1.44389724 C6.97984677,1.70472335 6.76349101,1.93023967 6.52115256,1.93706846 C6.27315123,1.94389724 6.02981346,1.74086592 6.03247835,1.44006646 C6.0356429,1.12144554 6.29896736,0.938567456 6.50349767,0.952558129 L6.50349767,0.952558129 Z M1.3209527,6.09496281 C1.58244504,6.09496281 1.78947368,6.31448351 1.78947368,6.59129897 C1.78947368,6.85912042 1.57711526,7.07980663 1.3194537,7.08030667 C1.06129247,7.08063941 0.845436376,6.85562275 0.845102875,6.58563608 C0.844770153,6.31481662 1.05829447,6.09463008 1.3209527,6.09496281 Z M6.04563624,11.6649166 C6.05146569,11.6284409 6.05463025,11.591299 6.06395736,11.5558226 C6.1332445,11.2878346 6.39440373,11.1316054 6.64690207,11.2057227 C6.83577615,11.2611857 6.97701532,11.4438972 6.98884077,11.6674149 C7.00083278,11.8935974 6.87141905,12.1046234 6.65039973,12.1735774 C6.33677548,12.2713456 6.02248501,12.0033576 6.04563624,11.6649166 Z M8.6197535,8.58430363 L8.05879414,8.03983328 C7.85476349,8.22587592 7.62691539,8.37227832 7.37008661,8.47121236 C7.12608261,8.56514973 6.87441706,8.61611576 6.61159227,8.62277798 C6.22651566,8.63227165 5.86275816,8.55449017 5.52381746,8.37377732 C4.91955363,8.05149217 4.53464357,7.55682195 4.41572285,6.88010643 C4.3077948,6.26718171 4.46935376,5.71421702 4.86808794,5.23620237 C5.21952032,4.81514973 5.67504997,4.57047951 6.21385743,4.48437025 C6.83061292,4.38576932 7.37058628,4.56514973 7.84726849,4.95655546 C7.91888741,5.0153496 7.98667555,5.07897385 8.06212525,5.14576266 L8.54963358,4.59446353 C8.10776149,4.14309777 7.57495003,3.86694854 6.94886742,3.76051949 C6.94736842,3.74103248 6.94487009,3.72304447 6.94487009,3.70522302 C6.94470353,3.3614522 6.94553631,3.01768138 6.94403731,2.67391056 C6.94403731,2.63310443 6.95519654,2.61544953 6.99450366,2.59696186 C7.4335443,2.39009977 7.69020653,2.04882728 7.74183877,1.56181862 C7.80979347,0.920912559 7.37508328,0.341465524 6.75166556,0.211552133 C6.07495003,0.0706460705 5.40423051,0.488700701 5.25932712,1.1898999 C5.13357761,1.79832762 5.45203198,2.37627565 6.0311459,2.61428365 C6.07011992,2.63027299 6.08477682,2.64909377 6.08461026,2.69056612 C6.08331381,3.02811762 6.08331381,3.36567285 6.08461026,3.70322435 C6.08461026,3.74386393 6.07361759,3.75918704 6.03097935,3.76651549 C5.72501666,3.81881396 5.43337775,3.91491656 5.16022652,4.06348418 C4.62591606,4.35429031 4.22118588,4.77017971 3.94953364,5.31581596 C3.80163225,5.61278464 3.7293471,5.89492988 3.68471019,6.15692189 L2.49050633,6.15692189 C2.36309127,5.82947352 2.14307129,5.58280463 1.81862092,5.43756812 C1.54780147,5.31648218 1.26665556,5.29532961 0.979513658,5.37127898 C0.434043971,5.51518305 0.00116588941,6.03033961 0.0512991339,6.68923368 C0.0922463727,7.25707714 0.514074042,7.72434824 1.07478348,7.82297785 C1.73767488,7.93940023 2.27714857,7.55698851 2.4778481,7.04482995 C2.492505,7.04383061 2.50866089,7.04166539 2.52481679,7.04166539 C2.89556962,7.04166539 3.2661559,7.04233161 3.63690873,7.04083261 C3.68187875,7.04066606 3.69620253,7.05082595 3.7056962,7.09995986 C3.81162558,7.64692855 4.05213191,8.12544287 4.43737508,8.53100583 C4.76215856,8.87261143 5.14623584,9.12061276 5.59227182,9.26951349 C5.7338441,9.31681529 5.88207861,9.34446353 6.02798135,9.37777465 C6.06595603,9.38626899 6.08461026,9.3970951 6.0844437,9.44073268 C6.08277815,9.77001316 6.08311126,10.0992936 6.0844437,10.4284076 C6.08477682,10.4683809 6.06862092,10.4848699 6.03347768,10.5003596 C5.59510326,10.6938972 5.3344437,11.0315055 5.26065956,11.5010258 C5.20203198,11.8749432 5.29896736,12.217215 5.53880746,12.5133509 C5.74950033,12.7738439 6.0251499,12.9245768 6.35576282,12.9675481 C6.8446036,13.0308393 7.33677548,12.7798399 7.58394404,12.3529579 C7.70469687,12.1444302 7.77148568,11.9199132 7.76265823,11.6817387 C7.74300466,11.1434309 7.49450366,10.745696 7.00166556,10.512185 C6.96102598,10.4928646 6.94337109,10.473211 6.9437042,10.4259092 C6.94603598,10.1007926 6.94570286,9.77567605 6.94387075,9.45055946 C6.9437042,9.40309111 6.95386409,9.3851031 7.005996,9.3761091 C7.50666223,9.28983328 7.96602265,9.10462342 8.37041972,8.79283128 C8.45353098,8.72870736 8.53181213,8.65825433 8.6197535,8.58430363 L8.6197535,8.58430363 Z" id="path14" transform="translate(4.333548, 6.580793) scale(-1, 1) rotate(-180.000000) translate(-4.333548, -6.580793) "></path>
                        <path d="M11.6772152,6.08316187 C11.7023651,6.08566021 11.7361759,6.08466087 11.7674883,6.09315521 C12.0786143,6.17643303 12.2181879,6.52836507 12.0606262,6.82899798 C11.9352099,7.06800531 11.6505663,7.13929112 11.4283811,6.98722583 C11.2288474,6.85065021 11.1618921,6.55601331 11.2841439,6.33049698 C11.3660893,6.17926447 11.4903398,6.08732576 11.6772152,6.08316187 L11.6772152,6.08316187 Z M6.07045303,6.57533376 C6.07644903,6.53269552 6.07944704,6.48939105 6.08877415,6.44758559 C6.1640573,6.11730578 6.53630913,5.97390138 6.79163891,6.17626647 C6.99500333,6.33782543 7.03730846,6.66643969 6.87991339,6.87829845 C6.77281812,7.02236907 6.62958028,7.09598666 6.45019987,7.06034375 C6.22268488,7.01520718 6.07495003,6.81683942 6.07045303,6.57533376 Z M12.8637575,6.46274215 C12.8625916,6.20691271 12.7313458,5.88845834 12.4608594,5.63379479 C12.2746502,5.45841171 12.0514657,5.35681277 11.7943038,5.32566687 C11.2488341,5.25971084 10.75,5.5928221 10.5546302,6.08416121 C10.537475,6.12713256 10.5161559,6.13745901 10.4735177,6.13729245 C9.54780147,6.13612656 8.62208528,6.13629312 7.69620253,6.13729245 C7.6553964,6.13729245 7.63740839,6.12646634 7.62041972,6.08615988 C7.46219187,5.71307526 7.19453698,5.45991071 6.79846769,5.35314855 C6.36608927,5.23655961 5.87158561,5.4062798 5.59493671,5.75787873 C5.41255829,5.98939105 5.31362425,6.25254895 5.30796136,6.5440213 C5.29630247,7.14695268 5.68970686,7.70391471 6.30862758,7.81384142 C6.86175883,7.91210924 7.36125916,7.61380811 7.58994004,7.13729245 C7.59876749,7.11897133 7.60759494,7.1003171 7.61575616,7.08132976 C7.65656229,6.98506061 7.65656229,6.98506061 7.75782811,6.98506061 C8.64623584,6.98506061 9.53481013,6.9862265 10.4232179,6.98289538 C10.5008328,6.98256227 10.5328115,7.00804528 10.561459,7.07649965 C10.7201865,7.45391471 10.9943371,7.70891137 11.3964024,7.79935108 C11.8752498,7.90677946 12.2758161,7.75604662 12.5866089,7.37963089 C12.7768155,7.1491179 12.8635909,6.87729912 12.8637575,6.46274215 L12.8637575,6.46274215 Z" id="path16" transform="translate(9.085733, 6.574892) scale(-1, 1) rotate(-180.000000) translate(-9.085733, -6.574892) "></path>
                    </g>
                </g>
                <path d="M73.5,74 C76.0525,73.7925 79.7089844,67.0604136 79.7089844,58.5 C79.7089844,49.9395864 82.0604136,43 73.5,43 C64.9395864,43 58,49.9395864 58,58.5 C58,67.0604136 70.9475,74.2075 73.5,74 Z" id="Oval" fill="url(#linearGradient-13)"></path>
                <g id="Icon-machinelearning-161-Batch-AI" transform="translate(62.000000, 47.000000)" fill-rule="nonzero">
                    <path d="M13.755,28.8575 L12.2675,30.415 C12.1340056,30.5512138 11.9507111,30.6270598 11.76,30.6250409 L9.24,30.6250409 C9.05536151,30.6223701 8.87924132,30.54689 8.75,30.415 L7.2625,28.8575 C7.12529288,28.7175046 7.04969164,28.5285015 7.0525,28.3325 L7.0525,24.675 L14.0525,24.675 L14.0525,28.3325 C14.033054,28.5420168 13.924744,28.7331521 13.755,28.8575 Z" id="Path" fill="#A3A3A3"></path>
                    <path d="M10.5,0.875 C7.56968607,0.846820846 4.76777955,2.07573878 2.80371791,4.2505941 C0.839656265,6.42544941 -0.0982409786,9.33771111 0.2275,12.25 C0.7,16.5375 4.795,18.5325 5.95,23.975 C6.03267195,24.3631194 6.37567372,24.6404399 6.7725,24.6400005 L14.2275,24.6400005 C14.6243263,24.6404399 14.9673281,24.3631194 15.05,23.975 C16.205,18.5325 20.3,16.5375 20.7725,12.25 C21.098241,9.33771111 20.1603437,6.42544941 18.1962821,4.2505941 C16.2322204,2.07573878 13.4303139,0.846820846 10.5,0.875 L10.5,0.875 Z" id="Path" fill="url(#radialGradient-14)"></path>
                    <g id="Group" transform="translate(7.000000, 24.500000)" fill="#E6E6E6">
                        <path d="M7,2.2925 L2.71050543e-20,3.7275 L2.71050543e-20,3.8325 C-0.00280835686,4.02850155 0.0727928813,4.21750464 0.21,4.3575 L7,3.045 L7,2.2925 Z" id="Path"></path>
                        <polygon id="Path" points="0.0175 2.7475 6.965 1.3125 6.965 0.56 0.0175 1.995"></polygon>
                    </g>
                </g>
            </g>
        </g>
    </g>
</svg>