<?xml version="1.0" encoding="UTF-8"?>
<svg width="102px" height="102px" viewBox="0 0 102 102" version="1.1" xmlns="http://www.w3.org/2000/svg" xmlns:xlink="http://www.w3.org/1999/xlink">
    <title>Tailor roles and design the UI for Microsoft Dynamics 365 Business Central/build-an-assisted-setup-in-dynamics-365-business-central</title>
    <defs>
        <rect id="path-1" x="0" y="0" width="94.3396226" height="94.3396226" rx="47.1698113"></rect>
        <filter x="-2.9%" y="-2.9%" width="106.4%" height="106.4%" filterUnits="objectBoundingBox" id="filter-3">
            <feMorphology radius="2.5" operator="dilate" in="SourceAlpha" result="shadowSpreadOuter1"></feMorphology>
            <feOffset dx="0.5" dy="0.5" in="shadowSpreadOuter1" result="shadowOffsetOuter1"></feOffset>
            <feMorphology radius="1" operator="erode" in="SourceAlpha" result="shadowInner"></feMorphology>
            <feOffset dx="0.5" dy="0.5" in="shadowInner" result="shadowInner"></feOffset>
            <feComposite in="shadowOffsetOuter1" in2="shadowInner" operator="out" result="shadowOffsetOuter1"></feComposite>
            <feColorMatrix values="0 0 0 0 0.821822822   0 0 0 0 0.831640661   0 0 0 0 0.835737288  0 0 0 1 0" type="matrix" in="shadowOffsetOuter1"></feColorMatrix>
        </filter>
        <linearGradient x1="77.8299825%" y1="11.1997378%" x2="-99.6885927%" y2="253.807911%" id="linearGradient-4">
            <stop stop-color="#FFFFFF" offset="0%"></stop>
            <stop stop-color="#000000" stop-opacity="0.5" offset="100%"></stop>
        </linearGradient>
        <rect id="path-5" x="0" y="0" width="94.3396226" height="94.3396226"></rect>
        <path d="M47.1698113,0 C73.2209788,0 94.3396226,21.1186439 94.3396226,47.1698113 C94.3396226,73.2209788 73.2209788,94.3396226 47.1698113,94.3396226 C21.1186439,94.3396226 0,73.2209788 0,47.1698113 C0,21.1186439 21.1186439,0 47.1698113,0 Z M47.1698113,3.77358491 C23.2027373,3.77358491 3.77358491,23.2027373 3.77358491,47.1698113 C3.77358491,71.1368854 23.2027373,90.5660377 47.1698113,90.5660377 C71.1368854,90.5660377 90.5660377,71.1368854 90.5660377,47.1698113 C90.5660377,23.2027373 71.1368854,3.77358491 47.1698113,3.77358491 Z" id="path-6"></path>
        <linearGradient x1="50%" y1="100%" x2="50%" y2="0%" id="linearGradient-8">
            <stop stop-color="#D2EBFF" offset="0%"></stop>
            <stop stop-color="#F0FFFD" offset="100%"></stop>
        </linearGradient>
        <linearGradient x1="50%" y1="100%" x2="50%" y2="0%" id="linearGradient-9">
            <stop stop-color="#CCCCCC" offset="15%"></stop>
            <stop stop-color="#707070" offset="100%"></stop>
        </linearGradient>
        <filter x="-38.7%" y="-40.0%" width="177.4%" height="180.0%" filterUnits="objectBoundingBox" id="filter-10">
            <feOffset dx="0" dy="2" in="SourceAlpha" result="shadowOffsetOuter1"></feOffset>
            <feGaussianBlur stdDeviation="2" in="shadowOffsetOuter1" result="shadowBlurOuter1"></feGaussianBlur>
            <feColorMatrix values="0 0 0 0 0   0 0 0 0 0   0 0 0 0 0  0 0 0 0.1 0" type="matrix" in="shadowBlurOuter1" result="shadowMatrixOuter1"></feColorMatrix>
            <feMerge>
                <feMergeNode in="shadowMatrixOuter1"></feMergeNode>
                <feMergeNode in="SourceGraphic"></feMergeNode>
            </feMerge>
        </filter>
        <path d="M2.19610526,0 C1.15638158,0 0.313671053,0.76212766 0.313671053,1.70212766 L0.313671053,1.70212766 L0.313671053,18.2978723 C0.313671053,19.2378723 1.15638158,20 2.19610526,20 L2.19610526,20 L29.0233421,20 C30.0630658,20 30.9061842,19.2378723 30.9061842,18.2978723 L30.9061842,18.2978723 L30.9061842,1.70212766 C30.9061842,0.76212766 30.0630658,0 29.0233421,0 L29.0233421,0 L2.19610526,0 Z" id="path-11"></path>
        <linearGradient x1="50%" y1="-7.83969624%" x2="50%" y2="136.746848%" id="linearGradient-13">
            <stop stop-color="#FFD70F" offset="0%"></stop>
            <stop stop-color="#EEB309" offset="34%"></stop>
            <stop stop-color="#DC8C03" offset="77%"></stop>
            <stop stop-color="#D57D01" offset="100%"></stop>
        </linearGradient>
        <linearGradient x1="50%" y1="0%" x2="50%" y2="100%" id="linearGradient-14">
            <stop stop-color="#E55E14" offset="0%"></stop>
            <stop stop-color="#F59051" offset="100%"></stop>
        </linearGradient>
        <linearGradient x1="50%" y1="0%" x2="50%" y2="100%" id="linearGradient-15">
            <stop stop-color="#F59051" offset="0%"></stop>
            <stop stop-color="#E55E14" offset="100%"></stop>
        </linearGradient>
        <linearGradient x1="50%" y1="-9.93901477%" x2="50%" y2="100%" id="linearGradient-16">
            <stop stop-color="#FFFFFF" offset="0%"></stop>
            <stop stop-color="#EFEFEF" offset="100%"></stop>
        </linearGradient>
        <path d="M17.4285183,20.8421053 L13.9461534,20.8421053 C13.6459641,20.8421053 13.4002395,20.5970526 13.4002395,20.2976842 L13.4002395,15.0707368 C13.4002395,14.7713684 13.6459641,14.5263158 13.9461534,14.5263158 L17.4285183,14.5263158 C17.7287076,14.5263158 17.97401,14.7713684 17.97401,15.0707368 L17.97401,20.2976842 C17.97401,20.5970526 17.7287076,20.8421053 17.4285183,20.8421053" id="path-17"></path>
        <filter x="-10.9%" y="-7.9%" width="121.9%" height="131.7%" filterUnits="objectBoundingBox" id="filter-18">
            <feOffset dx="0" dy="1" in="SourceAlpha" result="shadowOffsetOuter1"></feOffset>
            <feColorMatrix values="0 0 0 0 0   0 0 0 0 0   0 0 0 0 0  0 0 0 0.1 0" type="matrix" in="shadowOffsetOuter1"></feColorMatrix>
        </filter>
        <linearGradient x1="50%" y1="2.04550253%" x2="50%" y2="100%" id="linearGradient-19">
            <stop stop-color="#FFE02A" offset="0%"></stop>
            <stop stop-color="#FFB518" offset="100%"></stop>
        </linearGradient>
        <filter x="-54.5%" y="-48.0%" width="209.1%" height="196.0%" filterUnits="objectBoundingBox" id="filter-20">
            <feOffset dx="0" dy="2" in="SourceAlpha" result="shadowOffsetOuter1"></feOffset>
            <feGaussianBlur stdDeviation="2" in="shadowOffsetOuter1" result="shadowBlurOuter1"></feGaussianBlur>
            <feColorMatrix values="0 0 0 0 0   0 0 0 0 0   0 0 0 0 0  0 0 0 0.1 0" type="matrix" in="shadowBlurOuter1" result="shadowMatrixOuter1"></feColorMatrix>
            <feMerge>
                <feMergeNode in="shadowMatrixOuter1"></feMergeNode>
                <feMergeNode in="SourceGraphic"></feMergeNode>
            </feMerge>
        </filter>
        <linearGradient x1="50%" y1="0%" x2="50%" y2="100%" id="linearGradient-21">
            <stop stop-color="#0062B3" offset="0%"></stop>
            <stop stop-color="#00549B" offset="100%"></stop>
        </linearGradient>
    </defs>
    <g id="Badges" stroke="none" stroke-width="1" fill="none" fill-rule="evenodd">
        <g id="Tailor-roles-and-design-the-UI-for-Microsoft-Dynamics-365-Business-Central" transform="translate(-159.000000, -509.000000)">
            <g id="Tailor-roles-and-design-the-UI-for-Microsoft-Dynamics-365-Business-Central/build-an-assisted-setup-in-dynamics-365-business-central" transform="translate(160.000000, 510.000000)">
                <g id="Badge-Plates/Circle">
                    <g id="BG" transform="translate(2.830189, 2.830189)">
                        <mask id="mask-2" fill="white">
                            <use xlink:href="#path-1"></use>
                        </mask>
                        <g>
                            <use fill="black" fill-opacity="1" filter="url(#filter-3)" xlink:href="#path-1"></use>
                            <rect stroke="#F2F1F0" stroke-width="2.5" x="-1.25" y="-1.25" width="96.8396226" height="96.8396226" rx="48.4198113"></rect>
                        </g>
                        <g id="Colors/Microsoft-365/BG-Solid-Badge" mask="url(#mask-2)">
                            <g id="Rectangle">
                                <use fill="#0078D4" xlink:href="#path-5"></use>
                                <use fill-opacity="0.4" fill="url(#linearGradient-4)" xlink:href="#path-5"></use>
                            </g>
                        </g>
                    </g>
                    <g id="Border" transform="translate(2.830189, 2.830189)">
                        <mask id="mask-7" fill="white">
                            <use xlink:href="#path-6"></use>
                        </mask>
                        <use id="Boarder" fill="#0078D4" fill-rule="nonzero" xlink:href="#path-6"></use>
                        <g id="Colors/Microsoft-365/Border" mask="url(#mask-7)" fill="#0076D7">
                            <rect id="Microsoft-365/Border" x="0" y="0" width="94.3396226" height="94.3396226"></rect>
                        </g>
                    </g>
                </g>
                <g id="Computer" transform="translate(21.000000, 25.000000)" fill-rule="nonzero">
                    <rect id="Rectangle" fill="url(#linearGradient-8)" x="0" y="0" width="50" height="35" rx="0.6"></rect>
                    <path d="M35.4288455,45.1922246 C30.2866447,44.4060475 30.0844233,40.812095 30.0844233,35 L19.8866879,35 C19.8866879,40.812095 19.7133553,44.4060475 14.5711545,45.1922246 C13.1009041,45.3503448 11.9910805,46.5623299 12,48 L38,48 C38.0089195,46.5623299 36.8990959,45.3503448 35.4288455,45.1922246 Z" id="Path" fill="url(#linearGradient-9)"></path>
                </g>
                <g id="Briefcase" transform="translate(47.000000, 47.000000)">
                    <g id="Group" filter="url(#filter-10)">
                        <g id="Group-5" transform="translate(0.000000, 7.684211)">
                            <mask id="mask-12" fill="white">
                                <use xlink:href="#path-11"></use>
                            </mask>
                            <g id="Clip-4"></g>
                            <polygon id="Fill-3" fill="url(#linearGradient-13)" mask="url(#mask-12)" points="-2.03947368 22.1276596 33.2589211 22.1276596 33.2589211 -2.12765957 -2.03947368 -2.12765957"></polygon>
                        </g>
                        <path d="M16.1421895,16.6710316 C9.75333421,16.6710316 4.05341316,15.1539789 0.313834211,12.7809263 L0.313834211,25.4596632 C0.313834211,27.3278737 1.78103158,28.8419789 3.59086053,28.8419789 L27.6289132,28.8419789 C29.4387421,28.8419789 30.9059395,27.3278737 30.9059395,25.4596632 L30.9059395,13.4024 C27.1912421,15.4150316 21.95265,16.6710316 16.1421895,16.6710316" id="Fill-6" fill="url(#linearGradient-14)"></path>
                        <path d="M16.1421895,18.7491363 C9.75333421,18.7491363 4.05341316,17.4068758 0.313834211,15.3072421 L0.313834211,27.9870029 C0.313834211,28.8322954 1.06436053,29.5177684 1.98987368,29.5177684 L29.2294921,29.5177684 C30.1554132,29.5177684 30.9059395,28.8322954 30.9059395,27.9870029 L30.9059395,15.8571107 C27.1912421,17.6378504 21.95265,18.7491363 16.1421895,18.7491363" id="Fill-8" fill="url(#linearGradient-15)"></path>
                        <g id="Fill-10">
                            <use fill="black" fill-opacity="1" filter="url(#filter-18)" xlink:href="#path-17"></use>
                            <use fill="url(#linearGradient-16)" fill-rule="evenodd" xlink:href="#path-17"></use>
                        </g>
                        <path d="M25.8071737,8.10526316 L23.7677,8.10526316 C23.7677,4.79705263 20.1080684,2.10526316 15.6098053,2.10526316 C11.1115421,2.10526316 7.45191053,4.79705263 7.45191053,8.10526316 L5.41243684,8.10526316 C5.41243684,3.63621053 9.98697632,-7.01660952e-14 15.6098053,-7.01660952e-14 C21.2326342,-7.01660952e-14 25.8071737,3.63621053 25.8071737,8.10526316" id="Fill-12" fill="url(#linearGradient-19)"></path>
                    </g>
                </g>
                <g id="noun_setup_2226462" filter="url(#filter-20)" transform="translate(35.000000, 30.000000)" fill-rule="nonzero">
                    <g id="Group">
                        <path d="M21.6630631,9.18650794 C21.6432432,9.18650794 21.6432432,9.18650794 21.6234234,9.18650794 C21.0486486,9.18650794 20.4738739,9.16666667 19.9189189,9.18650794 C19.8396396,9.18650794 19.7801802,9.18650794 19.7405405,9.16666667 C19.5027027,7.99603175 19.0468468,6.92460317 18.4126126,5.95238095 C18.4522523,5.89285714 18.5117117,5.83333333 18.6108108,5.73412698 C18.9873874,5.33730159 19.3837838,4.96031746 19.7801802,4.56349206 C19.0864865,3.59126984 18.2342342,2.73809524 17.2630631,2.04365079 C16.8666667,2.46031746 16.4306306,2.85714286 16.0342342,3.27380952 C15.9747748,3.33333333 15.9351351,3.37301587 15.8756757,3.39285714 C14.9243243,2.75793651 13.8342342,2.3015873 12.6648649,2.08333333 C12.645045,2.04365079 12.645045,2.00396825 12.645045,1.96428571 C12.6648649,1.6468254 12.645045,1.34920635 12.645045,1.03174603 L12.645045,1.03174603 C12.645045,0.734126984 12.645045,0.456349206 12.645045,0.158730159 L12.645045,0.158730159 C12.0702703,0.0992063492 11.4954955,0.0595238095 10.9009009,0.0595238095 C10.3063063,0.0595238095 9.73153153,0.0992063492 9.15675676,0.198412698 L9.15675676,0.198412698 C9.17657658,0.496031746 9.15675676,0.773809524 9.15675676,1.07142857 L9.15675676,1.07142857 C9.15675676,1.38888889 9.15675676,1.68650794 9.15675676,2.00396825 C9.15675676,2.04365079 9.15675676,2.1031746 9.13693694,2.12301587 C7.96756757,2.36111111 6.87747748,2.81746032 5.92612613,3.43253968 C5.86666667,3.41269841 5.82702703,3.37301587 5.76756757,3.31349206 C5.37117117,2.8968254 4.95495495,2.5 4.53873874,2.08333333 C3.56756757,2.77777778 2.71531532,3.63095238 2.02162162,4.6031746 C2.41801802,4.98015873 2.79459459,5.37698413 3.19099099,5.77380952 C3.29009009,5.87301587 3.34954955,5.93253968 3.38918919,5.99206349 C2.77477477,6.94444444 2.2990991,8.01587302 2.08108108,9.18650794 C2.02162162,9.20634921 1.96216216,9.20634921 1.9027027,9.20634921 C1.32792793,9.18650794 0.753153153,9.20634921 0.178378378,9.20634921 C0.158558559,9.20634921 0.158558559,9.20634921 0.138738739,9.20634921 C0.0396396396,9.78174603 7.0414145e-16,10.3769841 7.0414145e-16,10.9920635 C7.0414145e-16,11.5873016 0.0396396396,12.1825397 0.138738739,12.7579365 C0.158558559,12.7579365 0.178378378,12.7579365 0.218018018,12.7579365 C0.812612613,12.7579365 1.40720721,12.7579365 2.02162162,12.7579365 C2.04144144,12.7579365 2.06126126,12.7579365 2.08108108,12.7579365 C2.31891892,13.9484127 2.79459459,15.0396825 3.42882883,16.0119048 C3.40900901,16.0515873 3.38918919,16.0714286 3.34954955,16.1111111 C2.95315315,16.468254 2.57657658,16.8650794 2.18018018,17.2420635 C2.14054054,17.281746 2.1009009,17.3214286 2.06126126,17.3611111 C2.75495495,18.3134921 3.58738739,19.1666667 4.55855856,19.8412698 L4.5981982,19.8015873 C5.01441441,19.3849206 5.43063063,18.968254 5.84684685,18.5515873 C5.88648649,18.5119048 5.90630631,18.4920635 5.94594595,18.4722222 C6.58018018,18.8888889 7.27387387,19.2460317 8.02702703,19.484127 L8.02702703,15.6547619 C7.92792793,15.5952381 7.82882883,15.515873 7.72972973,15.4563492 C7.25405405,15.1190476 6.81801802,14.6825397 6.46126126,14.2063492 C5.96576577,13.531746 5.62882883,12.7380952 5.49009009,11.8650794 C5.45045045,11.5674603 5.41081081,11.2698413 5.41081081,10.9722222 C5.41081081,10.6746032 5.43063063,10.3571429 5.49009009,10.0793651 C5.62882883,9.22619048 5.96576577,8.43253968 6.46126126,7.75793651 C6.81801802,7.26190476 7.23423423,6.8452381 7.72972973,6.48809524 C8.4036036,6.01190476 9.1963964,5.67460317 10.0486486,5.53571429 C10.3261261,5.49603175 10.6234234,5.45634921 10.9207207,5.45634921 C11.218018,5.45634921 11.5153153,5.47619048 11.7927928,5.53571429 C12.645045,5.67460317 13.4378378,6.01190476 14.1117117,6.48809524 C14.6072072,6.8452381 15.0234234,7.26190476 15.3801802,7.75793651 C15.8558559,8.43253968 16.2126126,9.22619048 16.3513514,10.0793651 C16.390991,10.3769841 16.4306306,10.6746032 16.4306306,10.9722222 C16.4306306,11.2698413 16.4108108,11.5674603 16.3513514,11.8650794 C16.2126126,12.718254 15.8756757,13.531746 15.3801802,14.2063492 C15.0234234,14.6825397 14.6072072,15.1190476 14.1117117,15.4563492 C14.0126126,15.5357143 13.9135135,15.5952381 13.8144144,15.6547619 L13.8144144,19.5039683 C14.5477477,19.2460317 15.2414414,18.9087302 15.8954955,18.4920635 C15.9351351,18.5119048 15.954955,18.531746 15.9945946,18.5714286 C16.4108108,18.9880952 16.827027,19.4047619 17.2432432,19.8214286 C17.2630631,19.8412698 17.2630631,19.8412698 17.2828829,19.8611111 C18.2342342,19.1666667 19.0864865,18.3333333 19.7801802,17.3809524 C19.7405405,17.3412698 19.7009009,17.3015873 19.6612613,17.2619048 C19.2846847,16.8849206 18.8882883,16.4880952 18.5117117,16.1111111 C18.4720721,16.0714286 18.4522523,16.0515873 18.4324324,16.0119048 C19.0864865,15.0396825 19.5423423,13.9484127 19.7801802,12.7579365 C19.8,12.7579365 19.8198198,12.7579365 19.8396396,12.7579365 C20.4342342,12.7579365 21.0288288,12.7579365 21.6432432,12.7579365 C21.6630631,12.7579365 21.6828829,12.7579365 21.7225225,12.7579365 C21.8216216,12.1825397 21.8612613,11.5873016 21.8612613,10.9920635 C21.8018018,10.3769841 21.7621622,9.78174603 21.6630631,9.18650794 Z" id="Path" fill="url(#linearGradient-21)"></path>
                        <path d="M14.963964,11.031746 L14.963964,11.031746 C14.963964,9.64285714 14.2702703,8.43253968 13.2198198,7.6984127 C13.1405405,7.63888889 13.0612613,7.59920635 12.981982,7.53968254 L12.981982,7.75793651 L12.981982,10.5555556 C12.981982,11.0912698 12.5459459,11.5277778 12.0108108,11.5277778 L9.79099099,11.5277778 C9.25585586,11.5277778 8.81981982,11.0912698 8.81981982,10.5555556 L8.81981982,7.77777778 L8.81981982,7.53968254 C8.72072072,7.59920635 8.64144144,7.65873016 8.56216216,7.71825397 C7.53153153,8.45238095 6.85765766,9.66269841 6.83783784,11.031746 L6.83783784,11.031746 C6.83783784,11.0714286 6.83783784,11.1111111 6.83783784,11.1706349 C6.87747748,12.5 7.55135135,13.6706349 8.56216216,14.3849206 C8.74054054,14.5039683 8.91891892,14.6031746 9.0972973,14.702381 C9.0972973,14.702381 9.0972973,14.702381 9.0972973,14.702381 L9.0972973,23.0952381 C9.07747748,24.0674603 9.81081081,24.8611111 10.781982,24.9603175 C10.8216216,24.9603175 10.8612613,24.9603175 10.8810811,24.9603175 C11.8720721,24.9603175 12.6846847,24.1666667 12.6846847,23.1746032 L12.6846847,14.702381 C12.8630631,14.6230159 13.0216216,14.5238095 13.1801802,14.4047619 C14.2306306,13.6904762 14.9243243,12.4801587 14.9441441,11.1309524 C14.963964,11.0912698 14.963964,11.0714286 14.963964,11.031746 Z" id="Path" fill="#92C4FC"></path>
                    </g>
                </g>
            </g>
        </g>
    </g>
</svg>