<?xml version="1.0" encoding="UTF-8"?>
<svg width="100px" height="100px" viewBox="0 0 100 100" version="1.1" xmlns="http://www.w3.org/2000/svg" xmlns:xlink="http://www.w3.org/1999/xlink">
    <!-- Generator: Sketch 55.2 (78181) - https://sketchapp.com -->
    <title>Setup Microsoft Dynamics 365 Business Central for reporting/change-how-documents-look-in-business-central</title>
    <desc>Created with Sketch.</desc>
    <defs>
        <rect id="path-1" x="0" y="0" width="96" height="96" rx="48"></rect>
        <filter x="-8.5%" y="-6.2%" width="117.0%" height="112.5%" filterUnits="objectBoundingBox" id="filter-3">
            <feOffset dx="0" dy="2" in="SourceAlpha" result="shadowOffsetOuter1"></feOffset>
            <feColorMatrix values="0 0 0 0 0   0 0 0 0 0   0 0 0 0 0  0 0 0 0.0964956975 0" type="matrix" in="shadowOffsetOuter1" result="shadowMatrixOuter1"></feColorMatrix>
            <feMerge>
                <feMergeNode in="shadowMatrixOuter1"></feMergeNode>
                <feMergeNode in="SourceGraphic"></feMergeNode>
            </feMerge>
        </filter>
        <filter x="-23.9%" y="-4.8%" width="149.3%" height="110.0%" filterUnits="objectBoundingBox" id="filter-4">
            <feOffset dx="0" dy="2" in="SourceAlpha" result="shadowOffsetOuter1"></feOffset>
            <feColorMatrix values="0 0 0 0 0   0 0 0 0 0   0 0 0 0 0  0 0 0 0.1 0" type="matrix" in="shadowOffsetOuter1" result="shadowMatrixOuter1"></feColorMatrix>
            <feMerge>
                <feMergeNode in="shadowMatrixOuter1"></feMergeNode>
                <feMergeNode in="SourceGraphic"></feMergeNode>
            </feMerge>
        </filter>
    </defs>
    <g id="Badges" stroke="none" stroke-width="1" fill="none" fill-rule="evenodd">
        <g id="Setup-Microsoft-Dynamics-365-Business-Central-for-reporting" transform="translate(-50.000000, -260.000000)">
            <g id="Setup-Microsoft-Dynamics-365-Business-Central-for-reporting/change-how-documents-look-in-business-central" transform="translate(50.000000, 260.000000)">
                <g id="Mask" transform="translate(2.000000, 2.000000)">
                    <mask id="mask-2" fill="white">
                        <use xlink:href="#path-1"></use>
                    </mask>
                    <use id="BG" fill="#01B6C3" xlink:href="#path-1"></use>
                    <g id="Paper" filter="url(#filter-3)" mask="url(#mask-2)">
                        <g transform="translate(25.000000, 16.000000)" id="Group-2">
                            <g>
                                <path d="M4.002,0 C1.802,0 0.002,1.8 0.002,4 L0.002,60 C0.002,62.2 1.802,64 4.002,64 L42.002,64 C44.203,64 46.002,62.2 46.002,60 L46.002,16 L30.002,0 L4.002,0" id="Fill-12" fill="#E1E4E1"></path>
                                <path d="M34.002,16 L46.002,16 L30.002,0 L30.002,12 C30.002,14.2 31.802,16 34.002,16" id="Fill-13" fill="#697D85"></path>
                                <path d="M37.6686667,38 L7.33533333,38 C6.04733333,38 5.002,37.104 5.002,36 C5.002,34.896 6.04733333,34 7.33533333,34 L37.6686667,34 C38.9578333,34 40.002,34.896 40.002,36 C40.002,37.104 38.9578333,38 37.6686667,38" id="Fill-14" fill="#55B7D9"></path>
                                <path d="M18.7162857,31 L7.28771429,31 C6.026,31 5.002,30.104 5.002,29 C5.002,27.896 6.026,27 7.28771429,27 L18.7162857,27 C19.9791429,27 21.002,27.896 21.002,29 C21.002,30.104 19.9791429,31 18.7162857,31" id="Fill-15" fill="#C5CCCD"></path>
                                <path d="M37.6686667,45 L7.33533333,45 C6.04733333,45 5.002,44.104 5.002,43 C5.002,41.896 6.04733333,41 7.33533333,41 L37.6686667,41 C38.9578333,41 40.002,41.896 40.002,43 C40.002,44.104 38.9578333,45 37.6686667,45" id="Fill-17" fill="#C5CCCD"></path>
                                <path d="M37.6686667,52 L7.33533333,52 C6.04733333,52 5.002,51.104 5.002,50 C5.002,48.896 6.04733333,48 7.33533333,48 L37.6686667,48 C38.9578333,48 40.002,48.896 40.002,50 C40.002,51.104 38.9578333,52 37.6686667,52" id="Fill-18" fill="#C5CCCD"></path>
                                <path d="M37.6686667,59 L7.33533333,59 C6.04733333,59 5.002,58.104 5.002,57 C5.002,55.896 6.04733333,55 7.33533333,55 L37.6686667,55 C38.9578333,55 40.002,55.896 40.002,57 C40.002,58.104 38.9578333,59 37.6686667,59" id="Fill-19" fill="#C5CCCD"></path>
                                <polyline id="Fill-20" fill="#C5CCCD" points="46.002 28 34.002 16 46.002 16 46.002 28"></polyline>
                                <circle id="Oval" fill="#FFFFFF" cx="14" cy="13" r="9"></circle>
                                <g id="Business-Central-logo" transform="translate(7.000000, 6.000000)" fill="#30404D">
                                    <path d="M9.63986929,4.36013071 L9.30988215,4.69011785 C9.2685643,4.64879999 9.22614475,4.60858382 9.18267137,4.56951718 C8.6041544,4.04964239 7.83901617,3.73333333 7,3.73333333 C5.19586982,3.73333333 3.73333333,5.19586982 3.73333333,7 C3.73333333,8.80413018 5.19586982,10.2666667 7,10.2666667 C7.90206509,10.2666667 8.71873176,9.90103255 9.30988215,9.30988215 L9.63986598,9.63986598 C8.96426487,10.3154658 8.03093153,10.7333333 7,10.7333333 C4.93813693,10.7333333 3.26666667,9.06186307 3.26666667,7 C3.26666667,4.93813693 4.93813693,3.26666667 7,3.26666667 C7.95887562,3.26666667 8.83331931,3.62816273 9.49448157,4.22230535 C9.54416543,4.26695294 9.59264491,4.31291428 9.63986532,4.36013468 Z" id="Combined-Shape"></path>
                                    <path d="M7,2.8 C6.22680135,2.8 5.6,2.17319865 5.6,1.4 C5.6,0.62680135 6.22680135,0 7,0 C7.35957836,0 7.68749474,0.135561023 7.93543059,0.358364504 C8.22062933,0.61465368 8.4,0.986379708 8.4,1.4 C8.4,1.77704945 8.25094575,2.11928541 8.00854662,2.37099851 C7.75386857,2.63546234 7.3961492,2.8 7,2.8 Z M7,2.33333333 C7.26409947,2.33333333 7.50257905,2.22364156 7.67236442,2.04733234 C7.83396383,1.87952361 7.93333333,1.6513663 7.93333333,1.4 C7.93333333,1.12425314 7.81375289,0.876435787 7.62362039,0.705576336 C7.45832983,0.557040682 7.23971891,0.466666667 7,0.466666667 C6.48453423,0.466666667 6.06666667,0.884534234 6.06666667,1.4 C6.06666667,1.91546577 6.48453423,2.33333333 7,2.33333333 Z" id="Combined-Shape"></path>
                                    <path d="M7,8.4 C6.22680135,8.4 5.6,7.77319865 5.6,7 C5.6,6.22680135 6.22680135,5.6 7,5.6 C7.35957836,5.6 7.68749474,5.73556102 7.93543059,5.9583645 C8.22062933,6.21465368 8.4,6.58637971 8.4,7 C8.4,7.37704945 8.25094575,7.71928541 8.00854662,7.97099851 C7.75386857,8.23546234 7.3961492,8.4 7,8.4 Z M7,7.93333333 C7.26409947,7.93333333 7.50257905,7.82364156 7.67236442,7.64733234 C7.83396383,7.47952361 7.93333333,7.2513663 7.93333333,7 C7.93333333,6.72425314 7.81375289,6.47643579 7.62362039,6.30557634 C7.45832983,6.15704068 7.23971891,6.06666667 7,6.06666667 C6.48453423,6.06666667 6.06666667,6.48453423 6.06666667,7 C6.06666667,7.51546577 6.48453423,7.93333333 7,7.93333333 Z" id="Combined-Shape"></path>
                                    <path d="M12.6,8.4 C11.8268014,8.4 11.2,7.77319865 11.2,7 C11.2,6.22680135 11.8268014,5.6 12.6,5.6 C12.9595784,5.6 13.2874947,5.73556102 13.5354306,5.9583645 C13.8206293,6.21465368 14,6.58637971 14,7 C14,7.37704945 13.8509457,7.71928541 13.6085466,7.97099851 C13.3538686,8.23546234 12.9961492,8.4 12.6,8.4 Z M12.6,7.93333333 C12.8640995,7.93333333 13.102579,7.82364156 13.2723644,7.64733234 C13.4339638,7.47952361 13.5333333,7.2513663 13.5333333,7 C13.5333333,6.72425314 13.4137529,6.47643579 13.2236204,6.30557634 C13.0583298,6.15704068 12.8397189,6.06666667 12.6,6.06666667 C12.0845342,6.06666667 11.6666667,6.48453423 11.6666667,7 C11.6666667,7.51546577 12.0845342,7.93333333 12.6,7.93333333 Z" id="Combined-Shape"></path>
                                    <path d="M7,14 C6.22680135,14 5.6,13.3731986 5.6,12.6 C5.6,11.8268014 6.22680135,11.2 7,11.2 C7.35957836,11.2 7.68749474,11.335561 7.93543059,11.5583645 C8.22062933,11.8146537 8.4,12.1863797 8.4,12.6 C8.4,12.9770494 8.25094575,13.3192854 8.00854662,13.5709985 C7.75386857,13.8354623 7.3961492,14 7,14 Z M7,13.5333333 C7.26409947,13.5333333 7.50257905,13.4236416 7.67236442,13.2473323 C7.83396383,13.0795236 7.93333333,12.8513663 7.93333333,12.6 C7.93333333,12.3242531 7.81375289,12.0764358 7.62362039,11.9055763 C7.45832983,11.7570407 7.23971891,11.6666667 7,11.6666667 C6.48453423,11.6666667 6.06666667,12.0845342 6.06666667,12.6 C6.06666667,13.1154658 6.48453423,13.5333333 7,13.5333333 Z" id="Combined-Shape"></path>
                                    <rect id="Rectangle" x="7.93333333" y="6.53333333" width="3.73333333" height="1"></rect>
                                    <polygon id="Rectangle" transform="translate(7.000000, 3.033333) rotate(90.000000) translate(-7.000000, -3.033333) " points="6.53333333 2.56666667 7.46666667 2.56666667 7.46666667 3.5 6.53333333 3.5"></polygon>
                                    <rect id="Rectangle" x="2.56666667" y="6.53333333" width="1" height="1"></rect>
                                    <polygon id="Rectangle" transform="translate(7.000000, 10.966667) rotate(90.000000) translate(-7.000000, -10.966667) " points="6.53333333 10.5 7.46666667 10.5 7.46666667 11.4333333 6.53333333 11.4333333"></polygon>
                                    <path d="M1.4,8.4 C0.62680135,8.4 -2.90922841e-12,7.77319865 -2.90922841e-12,7 C-2.90922841e-12,6.22680135 0.62680135,5.6 1.4,5.6 C1.75957836,5.6 2.08749474,5.73556102 2.33543059,5.9583645 C2.62062933,6.21465368 2.8,6.58637971 2.8,7 C2.8,7.37704945 2.65094575,7.71928541 2.40854662,7.97099851 C2.15386857,8.23546234 1.7961492,8.4 1.4,8.4 Z M1.4,7.93333333 C1.66409947,7.93333333 1.90257905,7.82364156 2.07236442,7.64733234 C2.23396383,7.47952361 2.33333333,7.2513663 2.33333333,7 C2.33333333,6.72425314 2.21375289,6.47643579 2.02362039,6.30557634 C1.85832983,6.15704068 1.63971891,6.06666667 1.4,6.06666667 C0.884534234,6.06666667 0.466666667,6.48453423 0.466666667,7 C0.466666667,7.51546577 0.884534234,7.93333333 1.4,7.93333333 Z" id="Combined-Shape"></path>
                                </g>
                            </g>
                        </g>
                    </g>
                    <g id="paint-brush" filter="url(#filter-4)" mask="url(#mask-2)">
                        <g transform="translate(83.375000, 83.382353) rotate(-40.000000) translate(-83.375000, -83.382353) translate(75.000000, 42.000000)">
                            <path d="M5.2315623,31.4195596 C5.2315623,31.4195596 11.3054786,31.4195596 11.3054786,31.4195596 C13.0598121,35.6123417 13.0598121,36.983238 13.0598121,50.1646739 C13.0598121,58.2944693 12.6251227,68.0000996 11.7557439,79.2815647 C11.6353112,80.8443812 10.3320624,82.0510624 8.7646124,82.0510624 L8.39038222,82.0510624 C6.82779625,82.0510624 5.5268798,80.8516258 5.40024943,79.2941793 C2.48634254,41.5583447 3.20854789,35.1742227 5.2315623,31.4195596 Z" id="Rectangle" fill="#0078D7" fill-rule="evenodd"></path>
                            <path d="M8.4180718,31.4195596 C11.6045813,31.4195596 11.3054786,31.4195596 11.3054786,31.4195596 C13.0598121,35.6123417 13.0598121,36.983238 13.0598121,50.1646739 C13.0598121,58.2944731 12.6251223,68.0001085 11.7557427,79.2815802 C11.6352953,80.8443874 10.3320531,82.0510624 8.76461122,82.0510624 L8.4180718,82.0510624 C7.80847155,42.5603972 7.92734538,36.3120257 8.4180718,31.4195596 Z" id="Rectangle" fill="#005A9E" fill-rule="evenodd"></path>
                            <path d="M10.5071807,39.2070171 C12.0765527,35.2215564 12.8368728,32.5931372 12.8368728,32.5931372 L10.0853629,31.2893744 L6.30524617,39.2075394 L10.5071807,39.2075394 L10.5071807,39.2070171 Z" id="Shape" fill="#005A9E" fill-rule="nonzero" transform="translate(9.571060, 35.248457) rotate(-25.000000) translate(-9.571060, -35.248457) "></path>
                            <polygon id="Shape" fill="#A9C5D3" fill-rule="nonzero" transform="translate(8.061450, 24.542032) rotate(-25.000000) translate(-8.061450, -24.542032) " points="7.97106076 32.134518 2.95588235 29.7547331 10.2525451 16.949547 13.1670182 18.3327056"></polygon>
                            <polygon id="Shape" fill="#92B3C5" fill-rule="nonzero" transform="translate(8.418072, 30.883185) rotate(-25.000000) translate(-8.418072, -30.883185) " points="11.5274719 32.9754212 4.82973811 29.7995888 5.31181565 28.7909486 12.0064055 31.9673034"></polygon>
                            <path d="M11.7258391,1.61930326 C11.2259456,10.0822698 2.41440661,3.33414829 3.69767606,15.8128713 L6.57651737,17.1782703 C9.06131269,17.0591766 11.3323171,14.8690014 12.6590783,12.0849246 C14.3447777,8.55598981 14.5208408,4.06803719 11.7258391,1.61930326 Z" id="Shape" fill="#645252" fill-rule="nonzero" transform="translate(8.727482, 9.398787) rotate(-25.000000) translate(-8.727482, -9.398787) "></path>
                            <path d="M6.43835306,16.5437388 C6.43835306,16.5437388 7.7436304,12.8142251 6.43782906,11.4822559 C6.43782906,11.4822559 10.6926874,12.5702919 9.52155333,9.11814122 C9.52155333,9.11814122 14.1867015,9.48795854 11.5876748,0.985294118 C16.637437,4.78532383 11.9193651,16.928704 6.43835306,16.5437388 Z" id="Shape" fill="#000000" fill-rule="nonzero" opacity="0.55" transform="translate(10.088053, 8.768991) rotate(-25.000000) translate(-10.088053, -8.768991) "></path>
                        </g>
                    </g>
                </g>
                <g id="Dynamic-Border" stroke="#1D8E96" stroke-width="4">
                    <rect id="Azure-Border" x="2" y="2" width="96" height="96" rx="48"></rect>
                </g>
            </g>
        </g>
    </g>
</svg>