<?xml version="1.0" encoding="UTF-8"?>
<svg width="100px" height="100px" viewBox="0 0 100 100" version="1.1" xmlns="http://www.w3.org/2000/svg" xmlns:xlink="http://www.w3.org/1999/xlink">
    <!-- Generator: Sketch 55.2 (78181) - https://sketchapp.com -->
    <title>Setup Microsoft Dynamics 365 Business Central for reporting/configure-business-central-for-excel-and-power-bi</title>
    <desc>Created with Sketch.</desc>
    <defs>
        <rect id="path-1" x="0" y="0" width="96" height="96" rx="48"></rect>
        <circle id="path-3" cx="15" cy="15" r="15"></circle>
        <filter x="-3.3%" y="-3.3%" width="106.7%" height="113.3%" filterUnits="objectBoundingBox" id="filter-4">
            <feOffset dx="0" dy="2" in="SourceAlpha" result="shadowOffsetOuter1"></feOffset>
            <feColorMatrix values="0 0 0 0 0   0 0 0 0 0   0 0 0 0 0  0 0 0 0.1 0" type="matrix" in="shadowOffsetOuter1"></feColorMatrix>
        </filter>
        <circle id="path-5" cx="15" cy="15" r="15"></circle>
        <filter x="-3.3%" y="-3.3%" width="106.7%" height="113.3%" filterUnits="objectBoundingBox" id="filter-6">
            <feOffset dx="0" dy="2" in="SourceAlpha" result="shadowOffsetOuter1"></feOffset>
            <feColorMatrix values="0 0 0 0 0   0 0 0 0 0   0 0 0 0 0  0 0 0 0.1 0" type="matrix" in="shadowOffsetOuter1"></feColorMatrix>
        </filter>
        <filter x="-11.8%" y="-11.8%" width="123.5%" height="123.5%" filterUnits="objectBoundingBox" id="filter-7">
            <feOffset dx="0" dy="2" in="SourceAlpha" result="shadowOffsetOuter1"></feOffset>
            <feColorMatrix values="0 0 0 0 0   0 0 0 0 0   0 0 0 0 0  0 0 0 0.0964956975 0" type="matrix" in="shadowOffsetOuter1" result="shadowMatrixOuter1"></feColorMatrix>
            <feMerge>
                <feMergeNode in="shadowMatrixOuter1"></feMergeNode>
                <feMergeNode in="SourceGraphic"></feMergeNode>
            </feMerge>
        </filter>
    </defs>
    <g id="Badges" stroke="none" stroke-width="1" fill="none" fill-rule="evenodd">
        <g id="Setup-Microsoft-Dynamics-365-Business-Central-for-reporting" transform="translate(-50.000000, -460.000000)">
            <g id="Setup-Microsoft-Dynamics-365-Business-Central-for-reporting/configure-business-central-for-excel-and-power-bi" transform="translate(50.000000, 460.000000)">
                <g id="Mask" transform="translate(2.000000, 2.000000)">
                    <mask id="mask-2" fill="white">
                        <use xlink:href="#path-1"></use>
                    </mask>
                    <use id="BG" fill="#01B6C3" xlink:href="#path-1"></use>
                    <g id="Group-5" mask="url(#mask-2)">
                        <g transform="translate(27.000000, 37.000000)">
                            <path d="M0,21 C0,18.0798538 0,15.1831506 0,12.3098903 C0,8 -0.0420595788,8 3.00141868,8 C6.04489694,8 36.9436863,8 40.0008495,8 C43.0580126,8 42.9955096,8 42.9955096,12.3098903 C42.9955096,15.1831506 42.9955096,18.0798538 42.9955096,21" id="Path-234" stroke="#FFFFFF" stroke-width="2" fill="none"></path>
                            <rect id="Rectangle" stroke="none" fill="#FFFFFF" fill-rule="evenodd" x="20" y="0" width="2" height="8"></rect>
                        </g>
                    </g>
                    <g id="excel" mask="url(#mask-2)">
                        <g transform="translate(12.000000, 50.000000)">
                            <g id="Oval">
                                <use fill="black" fill-opacity="1" filter="url(#filter-4)" xlink:href="#path-3"></use>
                                <use fill="#FFFFFF" fill-rule="evenodd" xlink:href="#path-3"></use>
                            </g>
                            <g id="excel-icon" stroke-width="1" fill-rule="evenodd" transform="translate(3.000000, 6.000000)">
                                <g id="Group-3" transform="translate(4.285714, 0.000000)">
                                    <rect id="Rectangle" fill="#195C37" x="0.476190476" y="0" width="15.2380952" height="19.047619" rx="1"></rect>
                                    <rect id="Rectangle" fill="#107B42" x="8.0952381" y="9.52380952" width="7.61904762" height="4.76190476"></rect>
                                    <rect id="Rectangle" fill="#22A366" x="8.0952381" y="4.76190476" width="7.61904762" height="4.76190476"></rect>
                                    <rect id="Rectangle" fill="#117740" x="0" y="4.76190476" width="8.0952381" height="4.76190476"></rect>
                                    <path d="M8.0952381,0 L14.7142857,0 C15.2665705,-1.01453063e-16 15.7142857,0.44771525 15.7142857,1 L15.7142857,4.76190476 L8.0952381,4.76190476 L8.0952381,0 Z" id="Rectangle" fill="#34C481"></path>
                                    <path d="M0,0 L7.0952381,0 C7.64752285,3.89074334e-16 8.0952381,0.44771525 8.0952381,1 L8.0952381,4.76190476 L0,4.76190476 L0,0 Z" id="Rectangle" fill="#21A465" transform="translate(4.047619, 2.380952) scale(-1, 1) translate(-4.047619, -2.380952) "></path>
                                </g>
                                <g id="Group" transform="translate(0.000000, 4.761905)">
                                    <rect id="Rectangle" fill="#137F47" x="0" y="0" width="10.4761905" height="10" rx="1"></rect>
                                    <path d="M4.29500144,5.25822072 L2.5663065,2.38095238 L3.92669529,2.38095238 L5.10510561,4.56375344 L6.28351593,2.38095238 L7.54048693,2.38095238 L5.80340578,5.22191066 L7.61904762,8.0952381 L6.20495524,8.0952381 L5.02654492,5.76149701 L3.83570606,8.0952381 L2.38095238,8.0952381 L4.29500144,5.25822072 Z" id="Combined-Shape" fill="#FFFFFF"></path>
                                </g>
                            </g>
                        </g>
                    </g>
                    <g id="power-bi" mask="url(#mask-2)">
                        <g transform="translate(55.000000, 50.000000)">
                            <g id="Oval">
                                <use fill="black" fill-opacity="1" filter="url(#filter-6)" xlink:href="#path-5"></use>
                                <use fill="#FFFFFF" fill-rule="evenodd" xlink:href="#path-5"></use>
                            </g>
                            <g id="Power-BI-Logo" stroke-width="1" fill-rule="evenodd" transform="translate(5.000000, 7.000000)">
                                <path d="M17.6371299,15.1192684 L17.6371299,14.1779568 L18.5230994,14.1779568 C19.4227809,14.1767475 20.1518455,13.3665665 20.1529338,12.3667856 L20.1529338,2.75248282 C20.1519664,1.75260668 19.4228665,0.942277309 18.5230994,0.941067707 L2.47668112,0.941067707 C1.57691405,0.942277309 0.847814107,1.75260668 0.846846753,2.75248282 L0.846846753,12.3675172 C0.847935005,13.3672981 1.57699961,14.1774791 2.47668112,14.1786884 L3.36813887,14.1786884 L3.36813887,15.12 L2.47668112,15.12 C1.10946413,15.1181186 0.00157185752,13.8868522 1.77635684e-15,12.3675172 L1.77635684e-15,2.75248282 C0.00157210036,1.23305276 1.10959787,0.0017470137 2.47690057,0 L18.5230994,0 C19.8904021,0.0017470137 20.9984279,1.23305276 21,2.75248282 L21,12.3675172 C20.9984279,13.8869472 19.8904021,15.118253 18.5230994,15.12 L17.6371299,15.1192684 Z" id="Shape" fill="#0078D7" fill-rule="nonzero"></path>
                                <path d="M5.46036079,11.76 L5.46036079,11.76 C5.79443788,11.76 6.11483204,11.9038592 6.35106022,12.1599302 C6.58728839,12.4160011 6.72,12.7633079 6.72,13.1254469 L6.72,16.2742922 C6.72,17.0285517 6.15593263,17.64 5.46012026,17.64 L5.46012026,17.64 C5.12595983,17.6401382 4.80544207,17.4963401 4.56910984,17.2402542 C4.33277762,16.9841682 4.2,16.6367824 4.2,16.274553 L4.2,13.1257077 C4.2,12.3714482 4.76406737,11.76 5.45987974,11.76 L5.46036079,11.76 Z" id="Shape" fill="#0078D7" fill-rule="nonzero"></path>
                                <path d="M8.82012026,17.639757 C8.12426898,17.639757 7.56013282,17.0698744 7.56,16.3668008 L7.56,8.83307769 C7.56,8.1299763 8.12412122,7.56 8.82,7.56 C9.51587878,7.56 10.08,8.1299763 10.08,8.83307769 L10.08,16.3668008 C10.08,17.0698744 9.51597153,17.6398658 8.82012026,17.64" id="Shape" fill="#0078D7" fill-rule="nonzero"></path>
                                <path d="M15.5401203,17.6397528 C14.844269,17.6397529 14.2801328,17.0601674 14.28,16.3451233 L14.28,5.49475316 C14.28,4.77968074 14.8441212,4.2 15.54,4.2 C16.2358788,4.2 16.8,4.77968074 16.8,5.49475316 L16.8,16.3451233 C16.8,17.0601674 16.2359715,17.6398635 15.5401203,17.64" id="Shape" fill="#0078D7" fill-rule="nonzero"></path>
                                <path d="M12.1801203,17.6397493 C11.484269,17.6397493 10.9201328,17.0518707 10.92,16.3265951 L10.92,10.5532795 C10.92,9.82797527 11.4841212,9.24 12.18,9.24 C12.8758788,9.24 13.44,9.82797527 13.44,10.5532795 L13.44,16.3265951 C13.44,17.0518707 12.8759715,17.6398616 12.1801203,17.64" id="Shape" fill="#0078D7" fill-rule="nonzero"></path>
                            </g>
                        </g>
                    </g>
                    <g id="central" mask="url(#mask-2)">
                        <g transform="translate(31.000000, 6.000000)">
                            <g id="Gear" filter="url(#filter-7)" stroke-width="1" fill="none">
                                <path d="M21.9697538,16.7384615 C21.9697538,19.6227077 19.6227077,21.9692308 16.7389846,21.9692308 C13.8547385,21.9692308 11.5082154,19.6227077 11.5082154,16.7384615 C11.5082154,13.8542154 13.8547385,11.5076923 16.7389846,11.5076923 C19.6227077,11.5076923 21.9697538,13.8542154 21.9697538,16.7384615 Z M31.6367385,13.9211692 L29.2044308,13.3803077 C29.0051385,13.3363692 28.6949538,13.0539077 28.6327077,12.8593231 C28.6248615,12.8326462 28.6149231,12.8064923 28.6039385,12.7808615 L27.9328308,11.1499077 C27.9213231,11.1216615 27.9082462,11.0934154 27.8941231,11.0662154 C27.7999692,10.8857538 27.8182769,10.4699077 27.9276,10.2988615 L29.2656308,8.19609231 C29.8331692,7.30424615 29.6919385,6.02009231 28.9449846,5.27261538 L28.2048308,4.53246154 C27.4751385,3.80224615 26.1543692,3.65630769 25.2813538,4.21181538 L23.1780615,5.54932308 C23.1079692,5.59483077 22.9421538,5.64347692 22.7454769,5.64347692 C22.5843692,5.64347692 22.4645846,5.61104615 22.4112308,5.58332308 C22.3845538,5.56867692 22.3557846,5.55612308 22.3270154,5.54461538 L20.6965846,4.87298462 C20.6709538,4.86252308 20.6448,4.85258462 20.6181231,4.84473846 C20.4240615,4.78249231 20.1410769,4.47230769 20.0971385,4.27249231 L19.5568,1.84070769 C19.3271692,0.808676923 18.3192,0 17.2620615,0 L16.2159077,0 C15.1582462,0 14.1508,0.808676923 13.9216923,1.84018462 L13.3808308,4.27353846 C13.3363692,4.47230769 13.0539077,4.78249231 12.8598462,4.84473846 C12.8331692,4.85258462 12.8070154,4.86252308 12.7808615,4.87298462 L11.1504308,5.54461538 C11.1216615,5.55612308 11.0934154,5.56867692 11.0662154,5.58332308 C11.0133846,5.61104615 10.8936,5.64347692 10.7319692,5.64347692 C10.5352923,5.64347692 10.3694769,5.59430769 10.2988615,5.54932308 L8.19661538,4.21233846 C7.3236,3.65683077 6.00230769,3.80329231 5.27313846,4.53298462 L4.53298462,5.27261538 C3.78550769,6.02061538 3.6448,7.30476923 4.21233846,8.19661538 L5.55036923,10.2988615 C5.65916923,10.4704308 5.67747692,10.8852308 5.58384615,11.0656923 C5.56972308,11.0934154 5.55612308,11.1216615 5.54461538,11.1499077 L4.87350769,12.7808615 C4.86304615,12.8064923 4.85310769,12.8326462 4.84473846,12.8593231 C4.78249231,13.0539077 4.47283077,13.3363692 4.27301538,13.3808308 L1.84123077,13.9206462 C0.8092,14.1502769 0.000523076923,15.1577231 0.000523076923,16.2153846 L0.000523076923,17.2615385 C0.000523076923,18.3186769 0.8092,19.3266462 1.84070769,19.5557538 L4.27353846,20.0960923 C4.47283077,20.1405538 4.78249231,20.4230154 4.84473846,20.6176 C4.85310769,20.6442769 4.86304615,20.6704308 4.87350769,20.6960615 L5.54461538,22.3270154 C5.55612308,22.3552615 5.5692,22.3829846 5.58384615,22.4107077 C5.67747692,22.5906462 5.65916923,23.0064923 5.54984615,23.1780615 L4.21233846,25.2803077 C3.64427692,26.1721538 3.78550769,27.4568308 4.53298462,28.2043077 L5.27313846,28.9444615 C6.00178462,29.6725846 7.32150769,29.8211385 8.19713846,29.2651077 L10.2983385,27.9276 C10.3694769,27.8820923 10.5352923,27.8334462 10.7319692,27.8334462 C10.8936,27.8334462 11.0133846,27.8653538 11.0662154,27.8936 C11.0939385,27.9072 11.1216615,27.9208 11.1504308,27.9323077 L12.7808615,28.6039385 C12.8070154,28.6144 12.8331692,28.6238154 12.8598462,28.6321846 C13.0539077,28.6944308 13.3363692,29.0046154 13.3808308,29.2039077 L13.9216923,31.6362154 C14.1508,32.6682462 15.1582462,33.4769231 16.2159077,33.4769231 L17.2620615,33.4769231 C18.3192,33.4769231 19.3266462,32.6682462 19.5562769,31.6362154 L20.0971385,29.2039077 C20.1410769,29.0046154 20.4240615,28.6944308 20.6181231,28.6321846 C20.6448,28.6238154 20.6709538,28.6144 20.6965846,28.6039385 L22.3270154,27.9323077 C22.3557846,27.9208 22.3840308,27.9072 22.4112308,27.8936 C22.4645846,27.8653538 22.5843692,27.8334462 22.7449538,27.8334462 C22.9416308,27.8334462 23.1079692,27.8820923 23.1780615,27.9276 L25.2808308,29.2645846 C26.1533231,29.8211385 27.4751385,29.6736308 28.2048308,28.9444615 L28.9444615,28.2048308 C29.6919385,27.4573538 29.8331692,26.1726769 29.2656308,25.2803077 L27.9276,23.1780615 C27.8182769,23.0064923 27.7999692,22.5911692 27.8941231,22.4112308 C27.9082462,22.3835077 27.9213231,22.3557846 27.9328308,22.3275385 L28.6039385,20.6960615 C28.6149231,20.6704308 28.6248615,20.6442769 28.6327077,20.6176 C28.6949538,20.4230154 29.0051385,20.1405538 29.2049538,20.0960923 L31.6362154,19.5557538 C32.6687692,19.3266462 33.4774462,18.3186769 33.4774462,17.2615385 L33.4774462,16.2153846 C33.4774462,15.1577231 32.6687692,14.1502769 31.6367385,13.9211692 L31.6367385,13.9211692 Z" id="Fill-376" fill="#ADBDC4"></path>
                                <path d="M8.19713846,29.2651077 L10.2983385,27.9276 C10.3694769,27.8820923 10.5352923,27.8334462 10.7319692,27.8334462 C10.8936,27.8334462 11.0133846,27.8653538 11.0662154,27.8936 C11.0939385,27.9072 11.1216615,27.9208 11.1504308,27.9323077 L12.7808615,28.6039385 C12.8070154,28.6144 12.8331692,28.6238154 12.8598462,28.6321846 C13.0539077,28.6944308 13.3363692,29.0046154 13.3808308,29.2039077 L13.9216923,31.6362154 C14.1508,32.6682462 15.1582462,33.4769231 16.2159077,33.4769231 L17.2620615,33.4769231 C18.3192,33.4769231 19.3266462,32.6682462 19.5562769,31.6362154 L20.0971385,29.2039077 C20.1410769,29.0046154 20.4240615,28.6944308 20.6181231,28.6321846 C20.6448,28.6238154 20.6709538,28.6144 20.6965846,28.6039385 L22.3270154,27.9323077 C22.3557846,27.9208 22.3840308,27.9072 22.4112308,27.8936 C22.4645846,27.8653538 22.5843692,27.8334462 22.7449538,27.8334462 C22.9416308,27.8334462 23.1079692,27.8820923 23.1780615,27.9276 L25.2808308,29.2645846 C26.1533231,29.8211385 27.4751385,29.6736308 28.2048308,28.9444615 L28.9444615,28.2048308 C29.6919385,27.4573538 29.8331692,26.1726769 29.2656308,25.2803077 L27.9276,23.1780615 C27.8182769,23.0064923 27.7999692,22.5911692 27.8941231,22.4112308 C27.9082462,22.3835077 27.9213231,22.3557846 27.9328308,22.3275385 L28.6039385,20.6960615 C28.6149231,20.6704308 28.6248615,20.6442769 28.6327077,20.6176 C28.6949538,20.4230154 29.0051385,20.1405538 29.2049538,20.0960923 L31.6362154,19.5557538 C32.6687692,19.3266462 33.4774462,18.3186769 33.4774462,17.2615385 L33.4774462,16.2153846 C33.4774462,15.1577231 32.6687692,14.1502769 31.6367385,13.9211692 L29.2044308,13.3803077 C29.0051385,13.3363692 28.6949538,13.0539077 28.6327077,12.8593231 C28.6248615,12.8326462 28.6149231,12.8064923 28.6039385,12.7808615 L27.9328308,11.1499077 C27.9213231,11.1216615 27.9082462,11.0934154 27.8941231,11.0662154 C27.7999692,10.8857538 27.8182769,10.4699077 27.9276,10.2988615 L29.2656308,8.19609231 C29.8331692,7.30424615 29.6919385,6.02009231 28.9449846,5.27261538 L28.5746462,4.90227692 L20.4355692,13.0413538 C21.3828615,13.9886462 21.9697538,15.2963385 21.9697538,16.7384615 C21.9697538,19.6227077 19.6227077,21.9692308 16.7389846,21.9692308 C15.2968615,21.9692308 13.9891692,21.3823385 13.0418769,20.4355692 L4.90332308,28.5741231 L5.27313846,28.9444615 C6.00178462,29.6725846 7.32150769,29.8211385 8.19713846,29.2651077" id="Fill-377" fill="#8BA6B1"></path>
                                <path d="M16.7389846,21.9692308 C13.8500308,21.9692308 11.5082154,19.6274154 11.5082154,16.7384615 C11.5082154,13.8495077 13.8500308,11.5076923 16.7389846,11.5076923 C19.6279385,11.5076923 21.9697538,13.8495077 21.9697538,16.7384615 C21.9697538,19.6274154 19.6279385,21.9692308 16.7389846,21.9692308 Z M16.7389846,9.41538462 C12.6945538,9.41538462 9.41590769,12.6940308 9.41590769,16.7384615 C9.41590769,20.7828923 12.6945538,24.0615385 16.7389846,24.0615385 C20.7834154,24.0615385 24.0620615,20.7828923 24.0620615,16.7384615 C24.0620615,12.6940308 20.7834154,9.41538462 16.7389846,9.41538462 L16.7389846,9.41538462 Z" id="Fill-378" fill="#8BA6B1"></path>
                                <path d="M21.9697538,16.7384615 C21.9697538,19.6274154 19.6279385,21.9692308 16.7389846,21.9692308 C15.2942462,21.9692308 13.9865538,21.3839077 13.0403077,20.4371385 L11.5605231,21.9164 C12.886,23.2418769 14.7167692,24.0615385 16.7389846,24.0615385 C20.7834154,24.0615385 24.0620615,20.7828923 24.0620615,16.7384615 C24.0620615,14.7162462 23.2424,12.8854769 21.9174462,11.56 L20.4376615,13.0397846 C21.3844308,13.9860308 21.9697538,15.2937231 21.9697538,16.7384615" id="Fill-379" fill="#ADBDC4"></path>
                            </g>
                            <circle id="Oval" fill="#FFFFFF" cx="17" cy="17" r="9.60869565"></circle>
                            <g id="Business-Central-logo" stroke-width="1" fill="none" transform="translate(10.347826, 10.347826)">
                                <path d="M9.16086958,4.14347825 L8.84727931,4.45706851 C8.80801452,4.41780372 8.76770278,4.37958587 8.72638956,4.34246042 C8.17661878,3.84841792 7.44949984,3.54782609 6.65217391,3.54782609 C4.93768995,3.54782609 3.54782609,4.93768995 3.54782609,6.65217391 C3.54782609,8.36665788 4.93768995,9.75652174 6.65217391,9.75652174 C7.50941589,9.75652174 8.28550285,9.40905577 8.84727931,8.84727931 L9.16086643,9.16086643 C8.51883556,9.80289604 7.63187903,10.2 6.65217391,10.2 C4.69276367,10.2 3.10434783,8.61158416 3.10434783,6.65217391 C3.10434783,4.69276367 4.69276367,3.10434783 6.65217391,3.10434783 C7.56340354,3.10434783 8.39439661,3.44788135 9.02270608,4.01250135 C9.06992119,4.05493043 9.11599175,4.09860798 9.1608658,4.14348203 Z" id="Combined-Shape" fill="#30404D"></path>
                                <path d="M6.65217391,2.66086957 C5.91739507,2.66086957 5.32173913,2.06521362 5.32173913,1.33043478 C5.32173913,0.595655942 5.91739507,0 6.65217391,0 C6.99388502,0 7.30550743,0.128825072 7.54112348,0.340557573 C7.81215086,0.584111882 7.9826087,0.937367052 7.9826087,1.33043478 C7.9826087,1.68874886 7.84096087,2.01397931 7.61060642,2.25318492 C7.36858318,2.50450769 7.02863868,2.66086957 6.65217391,2.66086957 Z M6.65217391,2.2173913 C6.90315042,2.2173913 7.12978009,2.11315005 7.29112892,1.94560154 C7.44469855,1.78613113 7.53913043,1.56931083 7.53913043,1.33043478 C7.53913043,1.06838963 7.42549188,0.832886182 7.24480696,0.670516643 C7.08772959,0.529361642 6.87998132,0.443478261 6.65217391,0.443478261 C6.16232135,0.443478261 5.76521739,0.840582222 5.76521739,1.33043478 C5.76521739,1.82028734 6.16232135,2.2173913 6.65217391,2.2173913 Z" id="Combined-Shape" fill="#30404D"></path>
                                <path d="M6.65217391,7.9826087 C5.91739507,7.9826087 5.32173913,7.38695275 5.32173913,6.65217391 C5.32173913,5.91739507 5.91739507,5.32173913 6.65217391,5.32173913 C6.99388502,5.32173913 7.30550743,5.4505642 7.54112348,5.6622967 C7.81215086,5.90585101 7.9826087,6.25910618 7.9826087,6.65217391 C7.9826087,7.01048799 7.84096087,7.33571844 7.61060642,7.57492405 C7.36858318,7.82624682 7.02863868,7.9826087 6.65217391,7.9826087 Z M6.65217391,7.53913043 C6.90315042,7.53913043 7.12978009,7.43488918 7.29112892,7.26734067 C7.44469855,7.10787026 7.53913043,6.89104996 7.53913043,6.65217391 C7.53913043,6.39012876 7.42549188,6.15462531 7.24480696,5.99225577 C7.08772959,5.85110077 6.87998132,5.76521739 6.65217391,5.76521739 C6.16232135,5.76521739 5.76521739,6.16232135 5.76521739,6.65217391 C5.76521739,7.14202647 6.16232135,7.53913043 6.65217391,7.53913043 Z" id="Combined-Shape" fill="#30404D"></path>
                                <path d="M11.973913,7.9826087 C11.2391342,7.9826087 10.6434783,7.38695275 10.6434783,6.65217391 C10.6434783,5.91739507 11.2391342,5.32173913 11.973913,5.32173913 C12.3156242,5.32173913 12.6272466,5.4505642 12.8628626,5.6622967 C13.13389,5.90585101 13.3043478,6.25910618 13.3043478,6.65217391 C13.3043478,7.01048799 13.1627,7.33571844 12.9323455,7.57492405 C12.6903223,7.82624682 12.3503778,7.9826087 11.973913,7.9826087 Z M11.973913,7.53913043 C12.2248896,7.53913043 12.4515192,7.43488918 12.612868,7.26734067 C12.7664377,7.10787026 12.8608696,6.89104996 12.8608696,6.65217391 C12.8608696,6.39012876 12.747231,6.15462531 12.5665461,5.99225577 C12.4094687,5.85110077 12.2017205,5.76521739 11.973913,5.76521739 C11.4840605,5.76521739 11.0869565,6.16232135 11.0869565,6.65217391 C11.0869565,7.14202647 11.4840605,7.53913043 11.973913,7.53913043 Z" id="Combined-Shape" fill="#30404D"></path>
                                <path d="M6.65217391,13.3043478 C5.91739507,13.3043478 5.32173913,12.7086919 5.32173913,11.973913 C5.32173913,11.2391342 5.91739507,10.6434783 6.65217391,10.6434783 C6.99388502,10.6434783 7.30550743,10.7723033 7.54112348,10.9840358 C7.81215086,11.2275901 7.9826087,11.5808453 7.9826087,11.973913 C7.9826087,12.3322271 7.84096087,12.6574576 7.61060642,12.8966632 C7.36858318,13.147986 7.02863868,13.3043478 6.65217391,13.3043478 Z M6.65217391,12.8608696 C6.90315042,12.8608696 7.12978009,12.7566283 7.29112892,12.5890798 C7.44469855,12.4296094 7.53913043,12.2127891 7.53913043,11.973913 C7.53913043,11.7118679 7.42549188,11.4763644 7.24480696,11.3139949 C7.08772959,11.1728399 6.87998132,11.0869565 6.65217391,11.0869565 C6.16232135,11.0869565 5.76521739,11.4840605 5.76521739,11.973913 C5.76521739,12.4637656 6.16232135,12.8608696 6.65217391,12.8608696 Z" id="Combined-Shape" fill="#30404D"></path>
                                <rect id="Rectangle" fill="#30404D" x="7.53913043" y="6.20869565" width="3.54782609" height="1"></rect>
                                <polygon id="Rectangle" fill="#30404D" transform="translate(6.652174, 2.882609) rotate(90.000000) translate(-6.652174, -2.882609) " points="6.20869565 2.43913043 7.09565217 2.43913043 7.09565217 3.32608696 6.20869565 3.32608696"></polygon>
                                <rect id="Rectangle" fill="#30404D" x="2.43913043" y="6.20869565" width="1" height="1"></rect>
                                <polygon id="Rectangle" fill="#30404D" transform="translate(6.652174, 10.421739) rotate(90.000000) translate(-6.652174, -10.421739) " points="6.20869565 9.97826087 7.09565217 9.97826087 7.09565217 10.8652174 6.20869565 10.8652174"></polygon>
                                <path d="M1.33043478,7.9826087 C0.595655942,7.9826087 -2.90922841e-12,7.38695275 -2.90922841e-12,6.65217391 C-2.90922841e-12,5.91739507 0.595655942,5.32173913 1.33043478,5.32173913 C1.67214589,5.32173913 1.9837683,5.4505642 2.21938435,5.6622967 C2.49041173,5.90585101 2.66086957,6.25910618 2.66086957,6.65217391 C2.66086957,7.01048799 2.51922173,7.33571844 2.28886729,7.57492405 C2.04684405,7.82624682 1.70689955,7.9826087 1.33043478,7.9826087 Z M1.33043478,7.53913043 C1.58141129,7.53913043 1.80804096,7.43488918 1.96938979,7.26734067 C2.12295942,7.10787026 2.2173913,6.89104996 2.2173913,6.65217391 C2.2173913,6.39012876 2.10375275,6.15462531 1.92306783,5.99225577 C1.76599046,5.85110077 1.55824219,5.76521739 1.33043478,5.76521739 C0.840582222,5.76521739 0.443478261,6.16232135 0.443478261,6.65217391 C0.443478261,7.14202647 0.840582222,7.53913043 1.33043478,7.53913043 Z" id="Combined-Shape" fill="#30404D"></path>
                            </g>
                        </g>
                    </g>
                </g>
                <g id="Dynamic-Border" stroke="#1D8E96" stroke-width="4">
                    <rect id="Azure-Border" x="2" y="2" width="96" height="96" rx="48"></rect>
                </g>
            </g>
        </g>
    </g>
</svg>