<?xml version="1.0" encoding="UTF-8"?>
<svg width="102px" height="102px" viewBox="0 0 102 102" version="1.1" xmlns="http://www.w3.org/2000/svg" xmlns:xlink="http://www.w3.org/1999/xlink">
    <title>Tailor roles and design the UI for Microsoft Dynamics 365 Business Central/customize-the-ui-experience-in-dynamics-365-business-central</title>
    <defs>
        <rect id="path-1" x="0" y="0" width="94.3396226" height="94.3396226" rx="47.1698113"></rect>
        <filter x="-2.9%" y="-2.9%" width="106.4%" height="106.4%" filterUnits="objectBoundingBox" id="filter-3">
            <feMorphology radius="2.5" operator="dilate" in="SourceAlpha" result="shadowSpreadOuter1"></feMorphology>
            <feOffset dx="0.5" dy="0.5" in="shadowSpreadOuter1" result="shadowOffsetOuter1"></feOffset>
            <feMorphology radius="1" operator="erode" in="SourceAlpha" result="shadowInner"></feMorphology>
            <feOffset dx="0.5" dy="0.5" in="shadowInner" result="shadowInner"></feOffset>
            <feComposite in="shadowOffsetOuter1" in2="shadowInner" operator="out" result="shadowOffsetOuter1"></feComposite>
            <feColorMatrix values="0 0 0 0 0.821822822   0 0 0 0 0.831640661   0 0 0 0 0.835737288  0 0 0 1 0" type="matrix" in="shadowOffsetOuter1"></feColorMatrix>
        </filter>
        <linearGradient x1="77.8299825%" y1="11.1997378%" x2="-99.6885927%" y2="253.807911%" id="linearGradient-4">
            <stop stop-color="#FFFFFF" offset="0%"></stop>
            <stop stop-color="#000000" stop-opacity="0.5" offset="100%"></stop>
        </linearGradient>
        <rect id="path-5" x="0" y="0" width="94.3396226" height="94.3396226"></rect>
        <path d="M47.1698113,0 C73.2209788,0 94.3396226,21.1186439 94.3396226,47.1698113 C94.3396226,73.2209788 73.2209788,94.3396226 47.1698113,94.3396226 C21.1186439,94.3396226 0,73.2209788 0,47.1698113 C0,21.1186439 21.1186439,0 47.1698113,0 Z M47.1698113,3.77358491 C23.2027373,3.77358491 3.77358491,23.2027373 3.77358491,47.1698113 C3.77358491,71.1368854 23.2027373,90.5660377 47.1698113,90.5660377 C71.1368854,90.5660377 90.5660377,71.1368854 90.5660377,47.1698113 C90.5660377,23.2027373 71.1368854,3.77358491 47.1698113,3.77358491 Z" id="path-6"></path>
        <linearGradient x1="50%" y1="100%" x2="50%" y2="0%" id="linearGradient-8">
            <stop stop-color="#D2EBFF" offset="0%"></stop>
            <stop stop-color="#F0FFFD" offset="100%"></stop>
        </linearGradient>
        <linearGradient x1="50%" y1="100%" x2="50%" y2="0%" id="linearGradient-9">
            <stop stop-color="#CCCCCC" offset="15%"></stop>
            <stop stop-color="#707070" offset="100%"></stop>
        </linearGradient>
        <filter x="-38.7%" y="-40.0%" width="177.4%" height="180.0%" filterUnits="objectBoundingBox" id="filter-10">
            <feOffset dx="0" dy="2" in="SourceAlpha" result="shadowOffsetOuter1"></feOffset>
            <feGaussianBlur stdDeviation="2" in="shadowOffsetOuter1" result="shadowBlurOuter1"></feGaussianBlur>
            <feColorMatrix values="0 0 0 0 0   0 0 0 0 0   0 0 0 0 0  0 0 0 0.1 0" type="matrix" in="shadowBlurOuter1" result="shadowMatrixOuter1"></feColorMatrix>
            <feMerge>
                <feMergeNode in="shadowMatrixOuter1"></feMergeNode>
                <feMergeNode in="SourceGraphic"></feMergeNode>
            </feMerge>
        </filter>
        <path d="M2.19610526,0 C1.15638158,0 0.313671053,0.76212766 0.313671053,1.70212766 L0.313671053,1.70212766 L0.313671053,18.2978723 C0.313671053,19.2378723 1.15638158,20 2.19610526,20 L2.19610526,20 L29.0233421,20 C30.0630658,20 30.9061842,19.2378723 30.9061842,18.2978723 L30.9061842,18.2978723 L30.9061842,1.70212766 C30.9061842,0.76212766 30.0630658,0 29.0233421,0 L29.0233421,0 L2.19610526,0 Z" id="path-11"></path>
        <linearGradient x1="50%" y1="-7.83969624%" x2="50%" y2="136.746848%" id="linearGradient-13">
            <stop stop-color="#FFD70F" offset="0%"></stop>
            <stop stop-color="#EEB309" offset="34%"></stop>
            <stop stop-color="#DC8C03" offset="77%"></stop>
            <stop stop-color="#D57D01" offset="100%"></stop>
        </linearGradient>
        <linearGradient x1="50%" y1="0%" x2="50%" y2="100%" id="linearGradient-14">
            <stop stop-color="#E55E14" offset="0%"></stop>
            <stop stop-color="#F59051" offset="100%"></stop>
        </linearGradient>
        <linearGradient x1="50%" y1="0%" x2="50%" y2="100%" id="linearGradient-15">
            <stop stop-color="#F59051" offset="0%"></stop>
            <stop stop-color="#E55E14" offset="100%"></stop>
        </linearGradient>
        <linearGradient x1="50%" y1="-9.93901477%" x2="50%" y2="100%" id="linearGradient-16">
            <stop stop-color="#FFFFFF" offset="0%"></stop>
            <stop stop-color="#EFEFEF" offset="100%"></stop>
        </linearGradient>
        <path d="M17.4285183,20.8421053 L13.9461534,20.8421053 C13.6459641,20.8421053 13.4002395,20.5970526 13.4002395,20.2976842 L13.4002395,15.0707368 C13.4002395,14.7713684 13.6459641,14.5263158 13.9461534,14.5263158 L17.4285183,14.5263158 C17.7287076,14.5263158 17.97401,14.7713684 17.97401,15.0707368 L17.97401,20.2976842 C17.97401,20.5970526 17.7287076,20.8421053 17.4285183,20.8421053" id="path-17"></path>
        <filter x="-10.9%" y="-7.9%" width="121.9%" height="131.7%" filterUnits="objectBoundingBox" id="filter-18">
            <feOffset dx="0" dy="1" in="SourceAlpha" result="shadowOffsetOuter1"></feOffset>
            <feColorMatrix values="0 0 0 0 0   0 0 0 0 0   0 0 0 0 0  0 0 0 0.1 0" type="matrix" in="shadowOffsetOuter1"></feColorMatrix>
        </filter>
        <linearGradient x1="50%" y1="2.04550253%" x2="50%" y2="100%" id="linearGradient-19">
            <stop stop-color="#FFE02A" offset="0%"></stop>
            <stop stop-color="#FFB518" offset="100%"></stop>
        </linearGradient>
        <linearGradient x1="50%" y1="0%" x2="50%" y2="100%" id="linearGradient-20">
            <stop stop-color="#1E5CA5" offset="0%"></stop>
            <stop stop-color="#225496" offset="100%"></stop>
        </linearGradient>
        <path d="M19,9.81481481 L19,7.74074074 L16.7623967,7 L16.2128099,5.59259259 L17.3119835,3.40740741 L17.3119835,3.18518519 L16.6053719,2.51851852 L15.7809917,1.62962963 L15.4669421,1.62962963 L13.268595,2.74074074 L11.7768595,2.33333333 L10.7954545,0 L8.63636364,0 L7.89049587,2.11111111 L6.24173554,2.74074074 L3.69008264,1.59259259 L2.15909091,3.03703704 L2.15909091,3.2962963 L3.29752066,5.37037037 L2.63016529,6.92592593 L0,7.85185185 L0,9.92592593 L0.314049587,9.92592593 L2.63016529,10.6666667 L3.25826446,12.0740741 L2.08057851,14.4814815 L3.61157025,15.962963 L3.92561983,15.962963 L6.08471074,14.9259259 L7.61570248,15.5185185 L8.55785124,18 L10.7561983,18 L10.7561983,17.7037037 L11.5020661,15.4814815 L12.9938017,14.8888889 L15.5847107,16.037037 L17.1157025,14.5925926 L17.1157025,14.2962963 L16.0165289,12.2222222 L16.4483471,10.7777778 L19,9.81481481 Z M9.65744985,11.5711889 C8.02176598,11.4048054 6.78571429,10.159765 6.78571429,8.67856988 C6.78571429,7.19737477 8.02176598,5.95233441 9.65744985,5.78595083 C10.5116747,5.77609555 11.3346895,6.07455531 11.9426026,6.61464326 C12.5505157,7.1547312 12.892661,7.89143412 12.8925908,8.66014556 C12.9037067,9.4352253 12.5664332,10.1814863 11.9573002,10.7295961 C11.3481673,11.2777059 10.5188222,11.5811912 9.65744985,11.5711889 Z" id="path-21"></path>
        <filter x="-2.6%" y="-2.8%" width="105.3%" height="111.1%" filterUnits="objectBoundingBox" id="filter-22">
            <feOffset dx="0" dy="1" in="SourceAlpha" result="shadowOffsetOuter1"></feOffset>
            <feColorMatrix values="0 0 0 0 0   0 0 0 0 0   0 0 0 0 0  0 0 0 0.1 0" type="matrix" in="shadowOffsetOuter1"></feColorMatrix>
        </filter>
    </defs>
    <g id="Badges" stroke="none" stroke-width="1" fill="none" fill-rule="evenodd">
        <g id="Tailor-roles-and-design-the-UI-for-Microsoft-Dynamics-365-Business-Central" transform="translate(-159.000000, -889.000000)">
            <g id="Tailor-roles-and-design-the-UI-for-Microsoft-Dynamics-365-Business-Central/customize-the-ui-experience-in-dynamics-365-business-central" transform="translate(160.000000, 890.000000)">
                <g id="Badge-Plates/Circle">
                    <g id="BG" transform="translate(2.830189, 2.830189)">
                        <mask id="mask-2" fill="white">
                            <use xlink:href="#path-1"></use>
                        </mask>
                        <g>
                            <use fill="black" fill-opacity="1" filter="url(#filter-3)" xlink:href="#path-1"></use>
                            <rect stroke="#F2F1F0" stroke-width="2.5" x="-1.25" y="-1.25" width="96.8396226" height="96.8396226" rx="48.4198113"></rect>
                        </g>
                        <g id="Colors/Microsoft-365/BG-Solid-Badge" mask="url(#mask-2)">
                            <g id="Rectangle">
                                <use fill="#0078D4" xlink:href="#path-5"></use>
                                <use fill-opacity="0.4" fill="url(#linearGradient-4)" xlink:href="#path-5"></use>
                            </g>
                        </g>
                    </g>
                    <g id="Border" transform="translate(2.830189, 2.830189)">
                        <mask id="mask-7" fill="white">
                            <use xlink:href="#path-6"></use>
                        </mask>
                        <use id="Boarder" fill="#0078D4" fill-rule="nonzero" xlink:href="#path-6"></use>
                        <g id="Colors/Microsoft-365/Border" mask="url(#mask-7)" fill="#0076D7">
                            <rect id="Microsoft-365/Border" x="0" y="0" width="94.3396226" height="94.3396226"></rect>
                        </g>
                    </g>
                </g>
                <g id="Computer" transform="translate(20.000000, 25.000000)" fill-rule="nonzero">
                    <rect id="Rectangle" fill="url(#linearGradient-8)" x="0" y="0" width="52" height="36" rx="0.6"></rect>
                    <path d="M37.329955,46.9762419 C31.9899772,46.1295896 31.7799781,42.2591793 31.7799781,36 L21.1900221,36 C21.1900221,42.2591793 21.0100228,46.1295896 15.670045,46.9762419 C14.1432465,47.1465252 12.9907374,48.4517399 13,50 L40,50 C40.0092626,48.4517399 38.8567535,47.1465252 37.329955,46.9762419 Z" id="Path" fill="url(#linearGradient-9)"></path>
                </g>
                <rect id="Rectangle" fill="#92C4FC" x="23" y="28" width="14" height="30"></rect>
                <rect id="Rectangle" fill="#92C4FC" x="39" y="28" width="14" height="30"></rect>
                <rect id="Rectangle" fill="#92C4FC" x="55" y="28" width="14" height="30"></rect>
                <g id="Briefcase" transform="translate(49.000000, 47.000000)">
                    <g id="Group" filter="url(#filter-10)">
                        <g id="Group-5" transform="translate(0.000000, 7.684211)">
                            <mask id="mask-12" fill="white">
                                <use xlink:href="#path-11"></use>
                            </mask>
                            <g id="Clip-4"></g>
                            <polygon id="Fill-3" fill="url(#linearGradient-13)" mask="url(#mask-12)" points="-2.03947368 22.1276596 33.2589211 22.1276596 33.2589211 -2.12765957 -2.03947368 -2.12765957"></polygon>
                        </g>
                        <path d="M16.1421895,16.6710316 C9.75333421,16.6710316 4.05341316,15.1539789 0.313834211,12.7809263 L0.313834211,25.4596632 C0.313834211,27.3278737 1.78103158,28.8419789 3.59086053,28.8419789 L27.6289132,28.8419789 C29.4387421,28.8419789 30.9059395,27.3278737 30.9059395,25.4596632 L30.9059395,13.4024 C27.1912421,15.4150316 21.95265,16.6710316 16.1421895,16.6710316" id="Fill-6" fill="url(#linearGradient-14)"></path>
                        <path d="M16.1421895,18.7491363 C9.75333421,18.7491363 4.05341316,17.4068758 0.313834211,15.3072421 L0.313834211,27.9870029 C0.313834211,28.8322954 1.06436053,29.5177684 1.98987368,29.5177684 L29.2294921,29.5177684 C30.1554132,29.5177684 30.9059395,28.8322954 30.9059395,27.9870029 L30.9059395,15.8571107 C27.1912421,17.6378504 21.95265,18.7491363 16.1421895,18.7491363" id="Fill-8" fill="url(#linearGradient-15)"></path>
                        <g id="Fill-10">
                            <use fill="black" fill-opacity="1" filter="url(#filter-18)" xlink:href="#path-17"></use>
                            <use fill="url(#linearGradient-16)" fill-rule="evenodd" xlink:href="#path-17"></use>
                        </g>
                        <path d="M25.8071737,8.10526316 L23.7677,8.10526316 C23.7677,4.79705263 20.1080684,2.10526316 15.6098053,2.10526316 C11.1115421,2.10526316 7.45191053,4.79705263 7.45191053,8.10526316 L5.41243684,8.10526316 C5.41243684,3.63621053 9.98697632,-7.01660952e-14 15.6098053,-7.01660952e-14 C21.2326342,-7.01660952e-14 25.8071737,3.63621053 25.8071737,8.10526316" id="Fill-12" fill="url(#linearGradient-19)"></path>
                    </g>
                </g>
                <g id="Group-22" transform="translate(36.000000, 34.000000)">
                    <g id="a30ee4c9-49d5-4d00-a305-a6a3597e53b7" transform="translate(0.272727, 0.000000)" fill-rule="nonzero">
                        <g id="Shape">
                            <use fill="black" fill-opacity="1" filter="url(#filter-22)" xlink:href="#path-21"></use>
                            <use fill="url(#linearGradient-20)" xlink:href="#path-21"></use>
                        </g>
                    </g>
                    <circle id="Oval" fill="#FFFFFF" cx="9.77272727" cy="8.5" r="3.5"></circle>
                </g>
            </g>
        </g>
    </g>
</svg>