<?xml version="1.0" encoding="UTF-8"?>
<svg width="100px" height="100px" viewBox="0 0 100 100" version="1.1" xmlns="http://www.w3.org/2000/svg" xmlns:xlink="http://www.w3.org/1999/xlink">
    <!-- Generator: Sketch 55.2 (78181) - https://sketchapp.com -->
    <title>Create financial reports in Microsoft Dynamics 365 Business Central/use-dimensions-in-your-financial-reports-in-dynamics-365-business-central</title>
    <desc>Created with Sketch.</desc>
    <defs>
        <rect id="path-1" x="0" y="0" width="96" height="96" rx="48"></rect>
        <filter x="-36.8%" y="-22.1%" width="174.9%" height="144.2%" filterUnits="objectBoundingBox" id="filter-3">
            <feOffset dx="0" dy="2" in="SourceAlpha" result="shadowOffsetOuter1"></feOffset>
            <feColorMatrix values="0 0 0 0 0   0 0 0 0 0   0 0 0 0 0  0 0 0 0.1 0" type="matrix" in="shadowOffsetOuter1" result="shadowMatrixOuter1"></feColorMatrix>
            <feMerge>
                <feMergeNode in="shadowMatrixOuter1"></feMergeNode>
                <feMergeNode in="SourceGraphic"></feMergeNode>
            </feMerge>
        </filter>
        <filter x="-38.3%" y="-22.7%" width="181.8%" height="147.5%" filterUnits="objectBoundingBox" id="filter-4">
            <feOffset dx="0" dy="2" in="SourceAlpha" result="shadowOffsetOuter1"></feOffset>
            <feColorMatrix values="0 0 0 0 0   0 0 0 0 0   0 0 0 0 0  0 0 0 0.1 0" type="matrix" in="shadowOffsetOuter1" result="shadowMatrixOuter1"></feColorMatrix>
            <feMerge>
                <feMergeNode in="shadowMatrixOuter1"></feMergeNode>
                <feMergeNode in="SourceGraphic"></feMergeNode>
            </feMerge>
        </filter>
        <filter x="-10.0%" y="-11.8%" width="120.0%" height="124.1%" filterUnits="objectBoundingBox" id="filter-5">
            <feOffset dx="0" dy="2" in="SourceAlpha" result="shadowOffsetOuter1"></feOffset>
            <feColorMatrix values="0 0 0 0 0   0 0 0 0 0   0 0 0 0 0  0 0 0 0.1 0" type="matrix" in="shadowOffsetOuter1" result="shadowMatrixOuter1"></feColorMatrix>
            <feMerge>
                <feMergeNode in="shadowMatrixOuter1"></feMergeNode>
                <feMergeNode in="SourceGraphic"></feMergeNode>
            </feMerge>
        </filter>
        <filter x="-10.0%" y="-11.8%" width="120.0%" height="123.5%" filterUnits="objectBoundingBox" id="filter-6">
            <feOffset dx="0" dy="2" in="SourceAlpha" result="shadowOffsetOuter1"></feOffset>
            <feColorMatrix values="0 0 0 0 0   0 0 0 0 0   0 0 0 0 0  0 0 0 0.1 0" type="matrix" in="shadowOffsetOuter1" result="shadowMatrixOuter1"></feColorMatrix>
            <feMerge>
                <feMergeNode in="shadowMatrixOuter1"></feMergeNode>
                <feMergeNode in="SourceGraphic"></feMergeNode>
            </feMerge>
        </filter>
    </defs>
    <g id="Badges" stroke="none" stroke-width="1" fill="none" fill-rule="evenodd">
        <g id="Create-financial-reports-in-Microsoft-Dynamics-365-Business-Central" transform="translate(-50.000000, -1060.000000)">
            <g id="Create-financial-reports-in-Microsoft-Dynamics-365-Business-Central/use-dimensions-in-your-financial-reports-in-dynamics-365-business-central" transform="translate(50.000000, 1060.000000)">
                <g id="Mask" transform="translate(2.000000, 2.000000)">
                    <mask id="mask-2" fill="white">
                        <use xlink:href="#path-1"></use>
                    </mask>
                    <use id="BG" fill="#01B6C3" xlink:href="#path-1"></use>
                    <g id="Group-2" mask="url(#mask-2)">
                        <g transform="translate(38.000000, 39.000000)">
                            <g id="Right-Arrow" filter="url(#filter-3)" transform="translate(10.500000, 7.603448) scale(1, -1) rotate(-105.000000) translate(-10.500000, -7.603448) translate(5.068966, -1.448276)">
                                <path d="M0.324667077,5.05583961 L6.31670051,0.161684696 C6.67052347,-0.145655767 7.21262405,0.0038718639 7.36914195,0.451979674 L10.1821434,7.77482781 C10.4202938,8.3685099 9.81024282,8.93929249 9.25004597,8.66171226 L7.07721291,7.55226792 L4.49774382,17.1846407 C4.41660185,17.4963733 4.15698935,17.5662004 3.85416339,17.4826719 L0.993859353,16.7162557 C0.691033392,16.6327272 0.460551086,16.4017335 0.541693057,16.0900009 L3.12171629,6.46122309 L0.701114688,6.30366011 C0.0805144712,6.2555375 -0.154368304,5.4517003 0.324667077,5.05583961 Z" id="Fill-1-Copy" fill="#F7CB64"></path>
                                <path d="M7.32962807,0.441646678 L10.1426295,7.76449481 C10.3807799,8.3581769 9.77072894,8.92895949 9.21053209,8.65137927 L7.03769902,7.54193493 L4.63686501,16.7393824 L4.09241682,16.593498 C3.14512322,16.3322059 2.69575901,15.5852697 2.87831198,14.8839346 L6.81937033,-1.09139364e-11 C7.04228973,0.0401832523 7.24385568,0.196081954 7.32962807,0.441646678 Z" id="Combined-Shape" fill="#EFB252"></path>
                            </g>
                            <g id="Left-Arrow" filter="url(#filter-4)" transform="translate(10.484839, 18.239363) scale(-1, -1) rotate(-105.000000) translate(-10.484839, -18.239363) translate(5.258059, 9.428506)">
                                <path d="M0.324667077,5.05583961 L6.31670051,0.161684696 C6.67052347,-0.145655767 7.21262405,0.00387186389 7.36914195,0.451979674 L10.1821434,7.77482781 C10.4202938,8.3685099 9.81024282,8.93929249 9.25004597,8.66171226 L7.07721291,7.55226792 L4.49774382,17.1846407 C4.41660185,17.4963733 4.15698935,17.5662004 3.85416339,17.4826719 L0.993859353,16.7162557 C0.691033392,16.6327272 0.460551086,16.4017335 0.541693057,16.0900009 L3.12171629,6.46122309 L0.701114688,6.30366011 C0.0805144712,6.2555375 -0.154368304,5.4517003 0.324667077,5.05583961 Z" id="Fill-1-Copy" fill="#F7CB64"></path>
                                <path d="M7.32962807,0.441646678 L10.1426295,7.76449481 C10.3807799,8.3581769 9.77072894,8.92895949 9.21053209,8.65137927 L7.03769902,7.54193493 L4.63686501,16.7393824 L4.09241682,16.593498 C3.14512322,16.3322059 2.69575901,15.5852697 2.87831198,14.8839346 L6.81937033,-1.63709046e-11 C7.04228973,0.0401832523 7.24385568,0.196081954 7.32962807,0.441646678 Z" id="Combined-Shape" fill="#EFB252"></path>
                            </g>
                        </g>
                    </g>
                    <g id="table-+-record" filter="url(#filter-5)" mask="url(#mask-2)">
                        <g transform="translate(-2.000000, 25.000000)" id="table">
                            <g transform="translate(-0.000000, -0.000000)">
                                <path d="M-1.42108547e-13,31.8674556 C-1.42108547e-13,32.9557396 1.11667899,33.8461538 2.48150888,33.8461538 C24.0029313,33.8461538 35.5426256,33.8461538 37.1005917,33.8461538 C39.4375409,33.8461538 39.704142,33.1025087 39.704142,30.8734827 C39.704142,29.3874654 39.704142,22.1337798 39.704142,9.11242604 L-1.42108547e-13,9.11242604 L-1.42108547e-13,31.8674556 Z" id="Fill-1315" fill="#FFFFFE"></path>
                                <path d="M39.704142,1.30177515 C39.704142,0.585798817 39.1458025,0 38.4633876,0 L1.24075444,0 C0.558339497,0 0,0.585798817 0,1.30177515 L0,7.81065089 L39.704142,7.81065089 L39.704142,1.30177515" id="Fill-1316" fill="#546670"></path>
                                <polygon id="Fill-1317" fill="#DBE5E7" points="0 9.11242604 39.704142 9.11242604 39.704142 7.81065089 0 7.81065089"></polygon>
                                <path d="M6.50887574,14.9704142 C6.50887574,15.3284024 6.21597633,15.6213018 5.85798817,15.6213018 L3.25443787,15.6213018 C2.8964497,15.6213018 2.6035503,15.3284024 2.6035503,14.9704142 L2.6035503,12.3668639 C2.6035503,12.0088757 2.8964497,11.7159763 3.25443787,11.7159763 L5.85798817,11.7159763 C6.21597633,11.7159763 6.50887574,12.0088757 6.50887574,12.3668639 L6.50887574,14.9704142" id="Fill-1327" fill="#C5CCCD"></path>
                                <path d="M11.7159763,14.9704142 C11.7159763,15.3284024 11.4230769,15.6213018 11.0650888,15.6213018 L8.46153846,15.6213018 C8.1035503,15.6213018 7.81065089,15.3284024 7.81065089,14.9704142 L7.81065089,12.3668639 C7.81065089,12.0088757 8.1035503,11.7159763 8.46153846,11.7159763 L11.0650888,11.7159763 C11.4230769,11.7159763 11.7159763,12.0088757 11.7159763,12.3668639 L11.7159763,14.9704142" id="Fill-1328" fill="#C5CCCD"></path>
                                <path d="M16.9230769,14.9704142 C16.9230769,15.3284024 16.6301775,15.6213018 16.2721893,15.6213018 L13.6686391,15.6213018 C13.3106509,15.6213018 13.0177515,15.3284024 13.0177515,14.9704142 L13.0177515,12.3668639 C13.0177515,12.0088757 13.3106509,11.7159763 13.6686391,11.7159763 L16.2721893,11.7159763 C16.6301775,11.7159763 16.9230769,12.0088757 16.9230769,12.3668639 L16.9230769,14.9704142" id="Fill-1329" fill="#C5CCCD"></path>
                                <path d="M22.1301775,14.9704142 C22.1301775,15.3284024 21.8372781,15.6213018 21.4792899,15.6213018 L18.8757396,15.6213018 C18.5177515,15.6213018 18.2248521,15.3284024 18.2248521,14.9704142 L18.2248521,12.3668639 C18.2248521,12.0088757 18.5177515,11.7159763 18.8757396,11.7159763 L21.4792899,11.7159763 C21.8372781,11.7159763 22.1301775,12.0088757 22.1301775,12.3668639 L22.1301775,14.9704142" id="Fill-1330" fill="#C5CCCD"></path>
                                <path d="M27.3372781,14.9704142 C27.3372781,15.3284024 27.0443787,15.6213018 26.6863905,15.6213018 L24.0828402,15.6213018 C23.7248521,15.6213018 23.4319527,15.3284024 23.4319527,14.9704142 L23.4319527,12.3668639 C23.4319527,12.0088757 23.7248521,11.7159763 24.0828402,11.7159763 L26.6863905,11.7159763 C27.0443787,11.7159763 27.3372781,12.0088757 27.3372781,12.3668639 L27.3372781,14.9704142" id="Fill-1331" fill="#C5CCCD"></path>
                                <path d="M32.5443787,14.9704142 C32.5443787,15.3284024 32.2514793,15.6213018 31.8934911,15.6213018 L29.2899408,15.6213018 C28.9319527,15.6213018 28.6390533,15.3284024 28.6390533,14.9704142 L28.6390533,12.3668639 C28.6390533,12.0088757 28.9319527,11.7159763 29.2899408,11.7159763 L31.8934911,11.7159763 C32.2514793,11.7159763 32.5443787,12.0088757 32.5443787,12.3668639 L32.5443787,14.9704142" id="Fill-1332" fill="#C5CCCD"></path>
                                <path d="M37.7514793,14.9704142 C37.7514793,15.3284024 37.4585799,15.6213018 37.1005917,15.6213018 L34.4970414,15.6213018 C34.1390533,15.6213018 33.8461538,15.3284024 33.8461538,14.9704142 L33.8461538,12.3668639 C33.8461538,12.0088757 34.1390533,11.7159763 34.4970414,11.7159763 L37.1005917,11.7159763 C37.4585799,11.7159763 37.7514793,12.0088757 37.7514793,12.3668639 L37.7514793,14.9704142" id="Fill-1333" fill="#C5CCCD"></path>
                                <path d="M6.50887574,20.1775148 C6.50887574,20.535503 6.21597633,20.8284024 5.85798817,20.8284024 L3.25443787,20.8284024 C2.8964497,20.8284024 2.6035503,20.535503 2.6035503,20.1775148 L2.6035503,17.5739645 C2.6035503,17.2159763 2.8964497,16.9230769 3.25443787,16.9230769 L5.85798817,16.9230769 C6.21597633,16.9230769 6.50887574,17.2159763 6.50887574,17.5739645 L6.50887574,20.1775148" id="Fill-1334" fill="#C5CCCD"></path>
                                <path d="M11.7159763,20.1775148 C11.7159763,20.535503 11.4230769,20.8284024 11.0650888,20.8284024 L8.46153846,20.8284024 C8.1035503,20.8284024 7.81065089,20.535503 7.81065089,20.1775148 L7.81065089,17.5739645 C7.81065089,17.2159763 8.1035503,16.9230769 8.46153846,16.9230769 L11.0650888,16.9230769 C11.4230769,16.9230769 11.7159763,17.2159763 11.7159763,17.5739645 L11.7159763,20.1775148" id="Fill-1335" fill="#C5CCCD"></path>
                                <path d="M16.9230769,20.1775148 C16.9230769,20.535503 16.6301775,20.8284024 16.2721893,20.8284024 L13.6686391,20.8284024 C13.3106509,20.8284024 13.0177515,20.535503 13.0177515,20.1775148 L13.0177515,17.5739645 C13.0177515,17.2159763 13.3106509,16.9230769 13.6686391,16.9230769 L16.2721893,16.9230769 C16.6301775,16.9230769 16.9230769,17.2159763 16.9230769,17.5739645 L16.9230769,20.1775148" id="Fill-1336" fill="#C5CCCD"></path>
                                <path d="M22.1301775,20.1775148 C22.1301775,20.535503 21.8372781,20.8284024 21.4792899,20.8284024 L18.8757396,20.8284024 C18.5177515,20.8284024 18.2248521,20.535503 18.2248521,20.1775148 L18.2248521,17.5739645 C18.2248521,17.2159763 18.5177515,16.9230769 18.8757396,16.9230769 L21.4792899,16.9230769 C21.8372781,16.9230769 22.1301775,17.2159763 22.1301775,17.5739645 L22.1301775,20.1775148" id="Fill-1337" fill="#C5CCCD"></path>
                                <path d="M27.3372781,20.1775148 C27.3372781,20.535503 27.0443787,20.8284024 26.6863905,20.8284024 L24.0828402,20.8284024 C23.7248521,20.8284024 23.4319527,20.535503 23.4319527,20.1775148 L23.4319527,17.5739645 C23.4319527,17.2159763 23.7248521,16.9230769 24.0828402,16.9230769 L26.6863905,16.9230769 C27.0443787,16.9230769 27.3372781,17.2159763 27.3372781,17.5739645 L27.3372781,20.1775148" id="Fill-1338" fill="#C5CCCD"></path>
                                <path d="M32.5443787,20.1775148 C32.5443787,20.535503 32.2514793,20.8284024 31.8934911,20.8284024 L29.2899408,20.8284024 C28.9319527,20.8284024 28.6390533,20.535503 28.6390533,20.1775148 L28.6390533,17.5739645 C28.6390533,17.2159763 28.9319527,16.9230769 29.2899408,16.9230769 L31.8934911,16.9230769 C32.2514793,16.9230769 32.5443787,17.2159763 32.5443787,17.5739645 L32.5443787,20.1775148" id="Fill-1339" fill="#C5CCCD"></path>
                                <path d="M37.7514793,20.1775148 C37.7514793,20.535503 37.4585799,20.8284024 37.1005917,20.8284024 L34.4970414,20.8284024 C34.1390533,20.8284024 33.8461538,20.535503 33.8461538,20.1775148 L33.8461538,17.5739645 C33.8461538,17.2159763 34.1390533,16.9230769 34.4970414,16.9230769 L37.1005917,16.9230769 C37.4585799,16.9230769 37.7514793,17.2159763 37.7514793,17.5739645 L37.7514793,20.1775148" id="Fill-1340" fill="#C5CCCD"></path>
                                <path d="M6.50887574,25.3846154 C6.50887574,25.7426036 6.21597633,26.035503 5.85798817,26.035503 L3.25443787,26.035503 C2.8964497,26.035503 2.6035503,25.7426036 2.6035503,25.3846154 L2.6035503,22.7810651 C2.6035503,22.4230769 2.8964497,22.1301775 3.25443787,22.1301775 L5.85798817,22.1301775 C6.21597633,22.1301775 6.50887574,22.4230769 6.50887574,22.7810651 L6.50887574,25.3846154" id="Fill-1341" fill="#C5CCCD"></path>
                                <path d="M11.7159763,25.3846154 C11.7159763,25.7426036 11.4230769,26.035503 11.0650888,26.035503 L8.46153846,26.035503 C8.1035503,26.035503 7.81065089,25.7426036 7.81065089,25.3846154 L7.81065089,22.7810651 C7.81065089,22.4230769 8.1035503,22.1301775 8.46153846,22.1301775 L11.0650888,22.1301775 C11.4230769,22.1301775 11.7159763,22.4230769 11.7159763,22.7810651 L11.7159763,25.3846154" id="Fill-1342" fill="#C5CCCD"></path>
                                <path d="M16.9230769,25.3846154 C16.9230769,25.7426036 16.6301775,26.035503 16.2721893,26.035503 L13.6686391,26.035503 C13.3106509,26.035503 13.0177515,25.7426036 13.0177515,25.3846154 L13.0177515,22.7810651 C13.0177515,22.4230769 13.3106509,22.1301775 13.6686391,22.1301775 L16.2721893,22.1301775 C16.6301775,22.1301775 16.9230769,22.4230769 16.9230769,22.7810651 L16.9230769,25.3846154" id="Fill-1343" fill="#C5CCCD"></path>
                                <path d="M22.1301775,25.3846154 C22.1301775,25.7426036 21.8372781,26.035503 21.4792899,26.035503 L18.8757396,26.035503 C18.5177515,26.035503 18.2248521,25.7426036 18.2248521,25.3846154 L18.2248521,22.7810651 C18.2248521,22.4230769 18.5177515,22.1301775 18.8757396,22.1301775 L21.4792899,22.1301775 C21.8372781,22.1301775 22.1301775,22.4230769 22.1301775,22.7810651 L22.1301775,25.3846154" id="Fill-1344" fill="#C5CCCD"></path>
                                <path d="M27.3372781,25.3846154 C27.3372781,25.7426036 27.0443787,26.035503 26.6863905,26.035503 L24.0828402,26.035503 C23.7248521,26.035503 23.4319527,25.7426036 23.4319527,25.3846154 L23.4319527,22.7810651 C23.4319527,22.4230769 23.7248521,22.1301775 24.0828402,22.1301775 L26.6863905,22.1301775 C27.0443787,22.1301775 27.3372781,22.4230769 27.3372781,22.7810651 L27.3372781,25.3846154" id="Fill-1345" fill="#C5CCCD"></path>
                                <path d="M32.5443787,25.3846154 C32.5443787,25.7426036 32.2514793,26.035503 31.8934911,26.035503 L29.2899408,26.035503 C28.9319527,26.035503 28.6390533,25.7426036 28.6390533,25.3846154 L28.6390533,22.7810651 C28.6390533,22.4230769 28.9319527,22.1301775 29.2899408,22.1301775 L31.8934911,22.1301775 C32.2514793,22.1301775 32.5443787,22.4230769 32.5443787,22.7810651 L32.5443787,25.3846154" id="Fill-1346" fill="#C5CCCD"></path>
                                <path d="M37.7514793,25.3846154 C37.7514793,25.7426036 37.4585799,26.035503 37.1005917,26.035503 L34.4970414,26.035503 C34.1390533,26.035503 33.8461538,25.7426036 33.8461538,25.3846154 L33.8461538,22.7810651 C33.8461538,22.4230769 34.1390533,22.1301775 34.4970414,22.1301775 L37.1005917,22.1301775 C37.4585799,22.1301775 37.7514793,22.4230769 37.7514793,22.7810651 L37.7514793,25.3846154" id="Fill-1347" fill="#C5CCCD"></path>
                                <path d="M6.50887574,30.591716 C6.50887574,30.9497041 6.21597633,31.2426036 5.85798817,31.2426036 L3.25443787,31.2426036 C2.8964497,31.2426036 2.6035503,30.9497041 2.6035503,30.591716 L2.6035503,27.9881657 C2.6035503,27.6301775 2.8964497,27.3372781 3.25443787,27.3372781 L5.85798817,27.3372781 C6.21597633,27.3372781 6.50887574,27.6301775 6.50887574,27.9881657 L6.50887574,30.591716" id="Fill-1348" fill="#C5CCCD"></path>
                                <path d="M11.7159763,30.591716 C11.7159763,30.9497041 11.4230769,31.2426036 11.0650888,31.2426036 L8.46153846,31.2426036 C8.1035503,31.2426036 7.81065089,30.9497041 7.81065089,30.591716 L7.81065089,27.9881657 C7.81065089,27.6301775 8.1035503,27.3372781 8.46153846,27.3372781 L11.0650888,27.3372781 C11.4230769,27.3372781 11.7159763,27.6301775 11.7159763,27.9881657 L11.7159763,30.591716" id="Fill-1349" fill="#C5CCCD"></path>
                                <path d="M16.9230769,30.591716 C16.9230769,30.9497041 16.6301775,31.2426036 16.2721893,31.2426036 L13.6686391,31.2426036 C13.3106509,31.2426036 13.0177515,30.9497041 13.0177515,30.591716 L13.0177515,27.9881657 C13.0177515,27.6301775 13.3106509,27.3372781 13.6686391,27.3372781 L16.2721893,27.3372781 C16.6301775,27.3372781 16.9230769,27.6301775 16.9230769,27.9881657 L16.9230769,30.591716" id="Fill-1350" fill="#C5CCCD"></path>
                                <path d="M22.1301775,30.591716 C22.1301775,30.9497041 21.8372781,31.2426036 21.4792899,31.2426036 L18.8757396,31.2426036 C18.5177515,31.2426036 18.2248521,30.9497041 18.2248521,30.591716 L18.2248521,27.9881657 C18.2248521,27.6301775 18.5177515,27.3372781 18.8757396,27.3372781 L21.4792899,27.3372781 C21.8372781,27.3372781 22.1301775,27.6301775 22.1301775,27.9881657 L22.1301775,30.591716" id="Fill-1351" fill="#C5CCCD"></path>
                                <path d="M27.3372781,30.591716 C27.3372781,30.9497041 27.0443787,31.2426036 26.6863905,31.2426036 L24.0828402,31.2426036 C23.7248521,31.2426036 23.4319527,30.9497041 23.4319527,30.591716 L23.4319527,27.9881657 C23.4319527,27.6301775 23.7248521,27.3372781 24.0828402,27.3372781 L26.6863905,27.3372781 C27.0443787,27.3372781 27.3372781,27.6301775 27.3372781,27.9881657 L27.3372781,30.591716" id="Fill-1352" fill="#C5CCCD"></path>
                                <path d="M32.5443787,30.591716 C32.5443787,30.9497041 32.2514793,31.2426036 31.8934911,31.2426036 L29.2899408,31.2426036 C28.9319527,31.2426036 28.6390533,30.9497041 28.6390533,30.591716 L28.6390533,27.9881657 C28.6390533,27.6301775 28.9319527,27.3372781 29.2899408,27.3372781 L31.8934911,27.3372781 C32.2514793,27.3372781 32.5443787,27.6301775 32.5443787,27.9881657 L32.5443787,30.591716" id="Fill-1353" fill="#C5CCCD"></path>
                                <path d="M37.7514793,30.591716 C37.7514793,30.9497041 37.4585799,31.2426036 37.1005917,31.2426036 L34.4970414,31.2426036 C34.1390533,31.2426036 33.8461538,30.9497041 33.8461538,30.591716 L33.8461538,27.9881657 C33.8461538,27.6301775 34.1390533,27.3372781 34.4970414,27.3372781 L37.1005917,27.3372781 C37.4585799,27.3372781 37.7514793,27.6301775 37.7514793,27.9881657 L37.7514793,30.591716" id="Fill-1354" fill="#C5CCCD"></path>
                            </g>
                        </g>
                    </g>
                    <g id="table-+-record" filter="url(#filter-6)" mask="url(#mask-2)">
                        <g transform="translate(59.000000, 42.000000)" id="table">
                            <g transform="translate(-0.000000, -0.000000)">
                                <path d="M-1.42108547e-13,31.8674556 C-1.42108547e-13,32.9557396 1.11667899,33.8461538 2.48150888,33.8461538 C24.0029313,33.8461538 35.5426256,33.8461538 37.1005917,33.8461538 C39.4375409,33.8461538 39.704142,33.1025087 39.704142,30.8734827 C39.704142,29.3874654 39.704142,22.1337798 39.704142,9.11242604 L-1.42108547e-13,9.11242604 L-1.42108547e-13,31.8674556 Z" id="Fill-1315" fill="#FFFFFE"></path>
                                <path d="M39.704142,1.30177515 C39.704142,0.585798817 39.1458025,0 38.4633876,0 L1.24075444,0 C0.558339497,0 0,0.585798817 0,1.30177515 L0,7.81065089 L39.704142,7.81065089 L39.704142,1.30177515" id="Fill-1316" fill="#3E4C53"></path>
                                <polygon id="Fill-1317" fill="#DBE5E7" points="0 9.11242604 39.704142 9.11242604 39.704142 7.81065089 0 7.81065089"></polygon>
                                <path d="M6.50887574,14.9704142 C6.50887574,15.3284024 6.21597633,15.6213018 5.85798817,15.6213018 L3.25443787,15.6213018 C2.8964497,15.6213018 2.6035503,15.3284024 2.6035503,14.9704142 L2.6035503,12.3668639 C2.6035503,12.0088757 2.8964497,11.7159763 3.25443787,11.7159763 L5.85798817,11.7159763 C6.21597633,11.7159763 6.50887574,12.0088757 6.50887574,12.3668639 L6.50887574,14.9704142" id="Fill-1327" fill="#C5CCCD"></path>
                                <path d="M11.7159763,14.9704142 C11.7159763,15.3284024 11.4230769,15.6213018 11.0650888,15.6213018 L8.46153846,15.6213018 C8.1035503,15.6213018 7.81065089,15.3284024 7.81065089,14.9704142 L7.81065089,12.3668639 C7.81065089,12.0088757 8.1035503,11.7159763 8.46153846,11.7159763 L11.0650888,11.7159763 C11.4230769,11.7159763 11.7159763,12.0088757 11.7159763,12.3668639 L11.7159763,14.9704142" id="Fill-1328" fill="#C5CCCD"></path>
                                <path d="M16.9230769,14.9704142 C16.9230769,15.3284024 16.6301775,15.6213018 16.2721893,15.6213018 L13.6686391,15.6213018 C13.3106509,15.6213018 13.0177515,15.3284024 13.0177515,14.9704142 L13.0177515,12.3668639 C13.0177515,12.0088757 13.3106509,11.7159763 13.6686391,11.7159763 L16.2721893,11.7159763 C16.6301775,11.7159763 16.9230769,12.0088757 16.9230769,12.3668639 L16.9230769,14.9704142" id="Fill-1329" fill="#C5CCCD"></path>
                                <path d="M22.1301775,14.9704142 C22.1301775,15.3284024 21.8372781,15.6213018 21.4792899,15.6213018 L18.8757396,15.6213018 C18.5177515,15.6213018 18.2248521,15.3284024 18.2248521,14.9704142 L18.2248521,12.3668639 C18.2248521,12.0088757 18.5177515,11.7159763 18.8757396,11.7159763 L21.4792899,11.7159763 C21.8372781,11.7159763 22.1301775,12.0088757 22.1301775,12.3668639 L22.1301775,14.9704142" id="Fill-1330" fill="#C5CCCD"></path>
                                <path d="M27.3372781,14.9704142 C27.3372781,15.3284024 27.0443787,15.6213018 26.6863905,15.6213018 L24.0828402,15.6213018 C23.7248521,15.6213018 23.4319527,15.3284024 23.4319527,14.9704142 L23.4319527,12.3668639 C23.4319527,12.0088757 23.7248521,11.7159763 24.0828402,11.7159763 L26.6863905,11.7159763 C27.0443787,11.7159763 27.3372781,12.0088757 27.3372781,12.3668639 L27.3372781,14.9704142" id="Fill-1331" fill="#C5CCCD"></path>
                                <path d="M32.5443787,14.9704142 C32.5443787,15.3284024 32.2514793,15.6213018 31.8934911,15.6213018 L29.2899408,15.6213018 C28.9319527,15.6213018 28.6390533,15.3284024 28.6390533,14.9704142 L28.6390533,12.3668639 C28.6390533,12.0088757 28.9319527,11.7159763 29.2899408,11.7159763 L31.8934911,11.7159763 C32.2514793,11.7159763 32.5443787,12.0088757 32.5443787,12.3668639 L32.5443787,14.9704142" id="Fill-1332" fill="#C5CCCD"></path>
                                <path d="M37.7514793,14.9704142 C37.7514793,15.3284024 37.4585799,15.6213018 37.1005917,15.6213018 L34.4970414,15.6213018 C34.1390533,15.6213018 33.8461538,15.3284024 33.8461538,14.9704142 L33.8461538,12.3668639 C33.8461538,12.0088757 34.1390533,11.7159763 34.4970414,11.7159763 L37.1005917,11.7159763 C37.4585799,11.7159763 37.7514793,12.0088757 37.7514793,12.3668639 L37.7514793,14.9704142" id="Fill-1333" fill="#C5CCCD"></path>
                                <path d="M6.50887574,20.1775148 C6.50887574,20.535503 6.21597633,20.8284024 5.85798817,20.8284024 L3.25443787,20.8284024 C2.8964497,20.8284024 2.6035503,20.535503 2.6035503,20.1775148 L2.6035503,17.5739645 C2.6035503,17.2159763 2.8964497,16.9230769 3.25443787,16.9230769 L5.85798817,16.9230769 C6.21597633,16.9230769 6.50887574,17.2159763 6.50887574,17.5739645 L6.50887574,20.1775148" id="Fill-1334" fill="#C5CCCD"></path>
                                <path d="M11.7159763,20.1775148 C11.7159763,20.535503 11.4230769,20.8284024 11.0650888,20.8284024 L8.46153846,20.8284024 C8.1035503,20.8284024 7.81065089,20.535503 7.81065089,20.1775148 L7.81065089,17.5739645 C7.81065089,17.2159763 8.1035503,16.9230769 8.46153846,16.9230769 L11.0650888,16.9230769 C11.4230769,16.9230769 11.7159763,17.2159763 11.7159763,17.5739645 L11.7159763,20.1775148" id="Fill-1335" fill="#C5CCCD"></path>
                                <path d="M16.9230769,20.1775148 C16.9230769,20.535503 16.6301775,20.8284024 16.2721893,20.8284024 L13.6686391,20.8284024 C13.3106509,20.8284024 13.0177515,20.535503 13.0177515,20.1775148 L13.0177515,17.5739645 C13.0177515,17.2159763 13.3106509,16.9230769 13.6686391,16.9230769 L16.2721893,16.9230769 C16.6301775,16.9230769 16.9230769,17.2159763 16.9230769,17.5739645 L16.9230769,20.1775148" id="Fill-1336" fill="#C5CCCD"></path>
                                <path d="M22.1301775,20.1775148 C22.1301775,20.535503 21.8372781,20.8284024 21.4792899,20.8284024 L18.8757396,20.8284024 C18.5177515,20.8284024 18.2248521,20.535503 18.2248521,20.1775148 L18.2248521,17.5739645 C18.2248521,17.2159763 18.5177515,16.9230769 18.8757396,16.9230769 L21.4792899,16.9230769 C21.8372781,16.9230769 22.1301775,17.2159763 22.1301775,17.5739645 L22.1301775,20.1775148" id="Fill-1337" fill="#C5CCCD"></path>
                                <path d="M27.3372781,20.1775148 C27.3372781,20.535503 27.0443787,20.8284024 26.6863905,20.8284024 L24.0828402,20.8284024 C23.7248521,20.8284024 23.4319527,20.535503 23.4319527,20.1775148 L23.4319527,17.5739645 C23.4319527,17.2159763 23.7248521,16.9230769 24.0828402,16.9230769 L26.6863905,16.9230769 C27.0443787,16.9230769 27.3372781,17.2159763 27.3372781,17.5739645 L27.3372781,20.1775148" id="Fill-1338" fill="#C5CCCD"></path>
                                <path d="M32.5443787,20.1775148 C32.5443787,20.535503 32.2514793,20.8284024 31.8934911,20.8284024 L29.2899408,20.8284024 C28.9319527,20.8284024 28.6390533,20.535503 28.6390533,20.1775148 L28.6390533,17.5739645 C28.6390533,17.2159763 28.9319527,16.9230769 29.2899408,16.9230769 L31.8934911,16.9230769 C32.2514793,16.9230769 32.5443787,17.2159763 32.5443787,17.5739645 L32.5443787,20.1775148" id="Fill-1339" fill="#C5CCCD"></path>
                                <path d="M37.7514793,20.1775148 C37.7514793,20.535503 37.4585799,20.8284024 37.1005917,20.8284024 L34.4970414,20.8284024 C34.1390533,20.8284024 33.8461538,20.535503 33.8461538,20.1775148 L33.8461538,17.5739645 C33.8461538,17.2159763 34.1390533,16.9230769 34.4970414,16.9230769 L37.1005917,16.9230769 C37.4585799,16.9230769 37.7514793,17.2159763 37.7514793,17.5739645 L37.7514793,20.1775148" id="Fill-1340" fill="#C5CCCD"></path>
                                <path d="M6.50887574,25.3846154 C6.50887574,25.7426036 6.21597633,26.035503 5.85798817,26.035503 L3.25443787,26.035503 C2.8964497,26.035503 2.6035503,25.7426036 2.6035503,25.3846154 L2.6035503,22.7810651 C2.6035503,22.4230769 2.8964497,22.1301775 3.25443787,22.1301775 L5.85798817,22.1301775 C6.21597633,22.1301775 6.50887574,22.4230769 6.50887574,22.7810651 L6.50887574,25.3846154" id="Fill-1341" fill="#C5CCCD"></path>
                                <path d="M11.7159763,25.3846154 C11.7159763,25.7426036 11.4230769,26.035503 11.0650888,26.035503 L8.46153846,26.035503 C8.1035503,26.035503 7.81065089,25.7426036 7.81065089,25.3846154 L7.81065089,22.7810651 C7.81065089,22.4230769 8.1035503,22.1301775 8.46153846,22.1301775 L11.0650888,22.1301775 C11.4230769,22.1301775 11.7159763,22.4230769 11.7159763,22.7810651 L11.7159763,25.3846154" id="Fill-1342" fill="#C5CCCD"></path>
                                <path d="M16.9230769,25.3846154 C16.9230769,25.7426036 16.6301775,26.035503 16.2721893,26.035503 L13.6686391,26.035503 C13.3106509,26.035503 13.0177515,25.7426036 13.0177515,25.3846154 L13.0177515,22.7810651 C13.0177515,22.4230769 13.3106509,22.1301775 13.6686391,22.1301775 L16.2721893,22.1301775 C16.6301775,22.1301775 16.9230769,22.4230769 16.9230769,22.7810651 L16.9230769,25.3846154" id="Fill-1343" fill="#C5CCCD"></path>
                                <path d="M22.1301775,25.3846154 C22.1301775,25.7426036 21.8372781,26.035503 21.4792899,26.035503 L18.8757396,26.035503 C18.5177515,26.035503 18.2248521,25.7426036 18.2248521,25.3846154 L18.2248521,22.7810651 C18.2248521,22.4230769 18.5177515,22.1301775 18.8757396,22.1301775 L21.4792899,22.1301775 C21.8372781,22.1301775 22.1301775,22.4230769 22.1301775,22.7810651 L22.1301775,25.3846154" id="Fill-1344" fill="#C5CCCD"></path>
                                <path d="M27.3372781,25.3846154 C27.3372781,25.7426036 27.0443787,26.035503 26.6863905,26.035503 L24.0828402,26.035503 C23.7248521,26.035503 23.4319527,25.7426036 23.4319527,25.3846154 L23.4319527,22.7810651 C23.4319527,22.4230769 23.7248521,22.1301775 24.0828402,22.1301775 L26.6863905,22.1301775 C27.0443787,22.1301775 27.3372781,22.4230769 27.3372781,22.7810651 L27.3372781,25.3846154" id="Fill-1345" fill="#C5CCCD"></path>
                                <path d="M32.5443787,25.3846154 C32.5443787,25.7426036 32.2514793,26.035503 31.8934911,26.035503 L29.2899408,26.035503 C28.9319527,26.035503 28.6390533,25.7426036 28.6390533,25.3846154 L28.6390533,22.7810651 C28.6390533,22.4230769 28.9319527,22.1301775 29.2899408,22.1301775 L31.8934911,22.1301775 C32.2514793,22.1301775 32.5443787,22.4230769 32.5443787,22.7810651 L32.5443787,25.3846154" id="Fill-1346" fill="#C5CCCD"></path>
                                <path d="M37.7514793,25.3846154 C37.7514793,25.7426036 37.4585799,26.035503 37.1005917,26.035503 L34.4970414,26.035503 C34.1390533,26.035503 33.8461538,25.7426036 33.8461538,25.3846154 L33.8461538,22.7810651 C33.8461538,22.4230769 34.1390533,22.1301775 34.4970414,22.1301775 L37.1005917,22.1301775 C37.4585799,22.1301775 37.7514793,22.4230769 37.7514793,22.7810651 L37.7514793,25.3846154" id="Fill-1347" fill="#C5CCCD"></path>
                                <path d="M6.50887574,30.591716 C6.50887574,30.9497041 6.21597633,31.2426036 5.85798817,31.2426036 L3.25443787,31.2426036 C2.8964497,31.2426036 2.6035503,30.9497041 2.6035503,30.591716 L2.6035503,27.9881657 C2.6035503,27.6301775 2.8964497,27.3372781 3.25443787,27.3372781 L5.85798817,27.3372781 C6.21597633,27.3372781 6.50887574,27.6301775 6.50887574,27.9881657 L6.50887574,30.591716" id="Fill-1348" fill="#C5CCCD"></path>
                                <path d="M11.7159763,30.591716 C11.7159763,30.9497041 11.4230769,31.2426036 11.0650888,31.2426036 L8.46153846,31.2426036 C8.1035503,31.2426036 7.81065089,30.9497041 7.81065089,30.591716 L7.81065089,27.9881657 C7.81065089,27.6301775 8.1035503,27.3372781 8.46153846,27.3372781 L11.0650888,27.3372781 C11.4230769,27.3372781 11.7159763,27.6301775 11.7159763,27.9881657 L11.7159763,30.591716" id="Fill-1349" fill="#C5CCCD"></path>
                                <path d="M16.9230769,30.591716 C16.9230769,30.9497041 16.6301775,31.2426036 16.2721893,31.2426036 L13.6686391,31.2426036 C13.3106509,31.2426036 13.0177515,30.9497041 13.0177515,30.591716 L13.0177515,27.9881657 C13.0177515,27.6301775 13.3106509,27.3372781 13.6686391,27.3372781 L16.2721893,27.3372781 C16.6301775,27.3372781 16.9230769,27.6301775 16.9230769,27.9881657 L16.9230769,30.591716" id="Fill-1350" fill="#C5CCCD"></path>
                                <path d="M22.1301775,30.591716 C22.1301775,30.9497041 21.8372781,31.2426036 21.4792899,31.2426036 L18.8757396,31.2426036 C18.5177515,31.2426036 18.2248521,30.9497041 18.2248521,30.591716 L18.2248521,27.9881657 C18.2248521,27.6301775 18.5177515,27.3372781 18.8757396,27.3372781 L21.4792899,27.3372781 C21.8372781,27.3372781 22.1301775,27.6301775 22.1301775,27.9881657 L22.1301775,30.591716" id="Fill-1351" fill="#C5CCCD"></path>
                                <path d="M27.3372781,30.591716 C27.3372781,30.9497041 27.0443787,31.2426036 26.6863905,31.2426036 L24.0828402,31.2426036 C23.7248521,31.2426036 23.4319527,30.9497041 23.4319527,30.591716 L23.4319527,27.9881657 C23.4319527,27.6301775 23.7248521,27.3372781 24.0828402,27.3372781 L26.6863905,27.3372781 C27.0443787,27.3372781 27.3372781,27.6301775 27.3372781,27.9881657 L27.3372781,30.591716" id="Fill-1352" fill="#C5CCCD"></path>
                                <path d="M32.5443787,30.591716 C32.5443787,30.9497041 32.2514793,31.2426036 31.8934911,31.2426036 L29.2899408,31.2426036 C28.9319527,31.2426036 28.6390533,30.9497041 28.6390533,30.591716 L28.6390533,27.9881657 C28.6390533,27.6301775 28.9319527,27.3372781 29.2899408,27.3372781 L31.8934911,27.3372781 C32.2514793,27.3372781 32.5443787,27.6301775 32.5443787,27.9881657 L32.5443787,30.591716" id="Fill-1353" fill="#C5CCCD"></path>
                                <path d="M37.7514793,30.591716 C37.7514793,30.9497041 37.4585799,31.2426036 37.1005917,31.2426036 L34.4970414,31.2426036 C34.1390533,31.2426036 33.8461538,30.9497041 33.8461538,30.591716 L33.8461538,27.9881657 C33.8461538,27.6301775 34.1390533,27.3372781 34.4970414,27.3372781 L37.1005917,27.3372781 C37.4585799,27.3372781 37.7514793,27.6301775 37.7514793,27.9881657 L37.7514793,30.591716" id="Fill-1354" fill="#C5CCCD"></path>
                            </g>
                        </g>
                    </g>
                </g>
                <g id="Dynamic-Border" stroke="#1D8E96" stroke-width="4">
                    <rect id="Azure-Border" x="2" y="2" width="96" height="96" rx="48"></rect>
                </g>
            </g>
        </g>
    </g>
</svg>