<?xml version="1.0" encoding="UTF-8"?>
<svg width="182px" height="148px" viewBox="0 0 182 148" version="1.1" xmlns="http://www.w3.org/2000/svg" xmlns:xlink="http://www.w3.org/1999/xlink">
    <title>Work with essential development standards for Microsoft Dynamics 365 Business Central/work with essential development standards for microsoft dynamics 365 business central</title>
    <defs>
        <path d="M23.0601937,0 L156.939806,0 C167.985501,-5.58177493e-15 176.939806,8.954305 176.939806,20 C176.939806,20.9463774 176.872634,21.8915613 176.738796,22.8284271 L162.453082,122.828427 C161.045514,132.681402 152.607099,140 142.654092,140 L37.345908,140 C27.3929005,140 18.954486,132.681402 17.5469182,122.828427 L3.26120387,22.8284271 C1.69910671,11.893747 9.29708645,1.76310729 20.2317666,0.201010127 C21.1686324,0.0671721544 22.1138164,-3.37886697e-15 23.0601937,0 Z" id="path-1"></path>
        <linearGradient x1="50%" y1="0%" x2="50%" y2="100%" id="linearGradient-3">
            <stop stop-color="#153A66" stop-opacity="0.996585446" offset="0%"></stop>
            <stop stop-color="#051D32" offset="100%"></stop>
        </linearGradient>
        <path d="M155.350715,0.570314132 C166.464213,0.570314132 175.473483,9.57958397 175.473483,20.6930815 C175.473483,21.6452681 175.405898,22.5962539 175.271239,23.5388706 L160.897833,124.152708 C159.481625,134.066163 150.991413,141.429686 140.97731,141.429686 L35.0227056,141.429686 C25.0086028,141.429686 16.5183902,134.066163 15.1021822,124.152708 L0.728776909,23.5388706 C-0.842908988,12.5370693 6.80170997,2.34424403 17.8035112,0.772558133 C18.7461279,0.637898614 19.6971137,0.570314132 20.6493003,0.570314132 L155.350715,0.570314132 Z M155.169088,5.7773664 L20.8309204,5.7773664 C20.1187063,5.7773664 19.4073903,5.82791807 18.7023343,5.92864036 C10.5787359,7.08915441 4.90225992,14.5338025 5.88899253,22.6411364 L5.93081739,22.9573295 L20.2654621,123.299843 C21.3089435,130.604212 27.4868536,136.057798 34.8309531,136.218965 L35.1655652,136.222634 L140.834444,136.222634 C148.212971,136.222634 154.485434,130.878068 155.683593,123.630573 L155.734547,123.299843 L170.069191,22.9573295 C170.169914,22.2522735 170.220465,21.5409575 170.220465,20.8287434 C170.220465,12.6213208 163.651255,5.94821937 155.483991,5.78059518 L155.169088,5.7773664 Z" id="path-4"></path>
        <filter x="-12.5%" y="-12.9%" width="125.0%" height="125.8%" filterUnits="objectBoundingBox" id="filter-6">
            <feOffset dx="0" dy="2" in="SourceAlpha" result="shadowOffsetOuter1"></feOffset>
            <feGaussianBlur stdDeviation="2" in="shadowOffsetOuter1" result="shadowBlurOuter1"></feGaussianBlur>
            <feColorMatrix values="0 0 0 0 0   0 0 0 0 0   0 0 0 0 0  0 0 0 0.1 0" type="matrix" in="shadowBlurOuter1" result="shadowMatrixOuter1"></feColorMatrix>
            <feMerge>
                <feMergeNode in="shadowMatrixOuter1"></feMergeNode>
                <feMergeNode in="SourceGraphic"></feMergeNode>
            </feMerge>
        </filter>
        <linearGradient x1="50%" y1="100%" x2="50%" y2="0%" id="linearGradient-7">
            <stop stop-color="#0078D4" offset="0%"></stop>
            <stop stop-color="#5EA0EF" offset="82%"></stop>
        </linearGradient>
        <linearGradient x1="50%" y1="100%" x2="50%" y2="0%" id="linearGradient-8">
            <stop stop-color="#CCCCCC" offset="15%"></stop>
            <stop stop-color="#707070" offset="100%"></stop>
        </linearGradient>
        <linearGradient x1="50%" y1="97.5691716%" x2="50%" y2="-5.30956676%" id="linearGradient-9">
            <stop stop-color="#5EA0EF" offset="0%"></stop>
            <stop stop-color="#559CEC" offset="18%"></stop>
            <stop stop-color="#3C91E5" offset="47%"></stop>
            <stop stop-color="#1380DA" offset="84%"></stop>
            <stop stop-color="#0078D4" offset="100%"></stop>
        </linearGradient>
        <filter x="-26.1%" y="-26.1%" width="152.2%" height="152.2%" filterUnits="objectBoundingBox" id="filter-10">
            <feOffset dx="0" dy="2" in="SourceAlpha" result="shadowOffsetOuter1"></feOffset>
            <feGaussianBlur stdDeviation="2" in="shadowOffsetOuter1" result="shadowBlurOuter1"></feGaussianBlur>
            <feColorMatrix values="0 0 0 0 0   0 0 0 0 0   0 0 0 0 0  0 0 0 0.1 0" type="matrix" in="shadowBlurOuter1" result="shadowMatrixOuter1"></feColorMatrix>
            <feMerge>
                <feMergeNode in="shadowMatrixOuter1"></feMergeNode>
                <feMergeNode in="SourceGraphic"></feMergeNode>
            </feMerge>
        </filter>
        <linearGradient x1="50%" y1="-9.93901477%" x2="50%" y2="100%" id="linearGradient-11">
            <stop stop-color="#FFFFFF" offset="0%"></stop>
            <stop stop-color="#CBCBCB" offset="100%"></stop>
        </linearGradient>
        <path d="M46,25.0823045 L46,19.781893 L40.5826446,17.8888889 L39.2520661,14.2921811 L41.9132231,8.70781893 L41.9132231,8.1399177 L40.2024793,6.43621399 L38.2066116,4.16460905 L37.446281,4.16460905 L32.1239669,7.00411523 L28.5123967,5.96296296 L26.1363636,0 L20.9090909,0 L19.1033058,5.39506173 L15.1115702,7.00411523 L8.9338843,4.06995885 L5.22727273,7.76131687 L5.22727273,8.42386831 L7.98347107,13.7242798 L6.3677686,17.6995885 L0,20.0658436 L0,25.3662551 L0.760330579,25.3662551 L6.3677686,27.2592593 L7.88842975,30.8559671 L5.03719008,37.0082305 L8.74380165,40.7942387 L9.50413223,40.7942387 L14.731405,38.1440329 L18.4380165,39.6584362 L20.7190083,46 L26.0413223,46 L26.0413223,45.2427984 L27.8471074,39.563786 L31.4586777,38.0493827 L37.731405,40.9835391 L41.4380165,37.2921811 L41.4380165,36.5349794 L38.7768595,31.2345679 L39.822314,27.5432099 L46,25.0823045 Z M23.3811944,29.5708162 C19.4211176,29.1456137 16.4285714,25.9638439 16.4285714,22.1785675 C16.4285714,18.3932911 19.4211176,15.2115213 23.3811944,14.7863188 C25.4493176,14.7611331 27.4418798,15.5238636 28.9136694,16.9040883 C30.385459,18.2843131 31.2138109,20.1669983 31.213641,22.1314831 L31.213641,22.1314831 C31.2405531,24.1122424 30.4239961,26.0193539 28.9492532,27.4200789 C27.4745103,28.8208039 25.4666221,29.5963776 23.3811944,29.5708162 Z" id="path-12"></path>
        <filter x="0.0%" y="0.0%" width="100.0%" height="100.0%" filterUnits="objectBoundingBox" id="filter-13">
            <feOffset dx="0" dy="0" in="SourceAlpha" result="shadowOffsetOuter1"></feOffset>
            <feColorMatrix values="0 0 0 0 0   0 0 0 0 0   0 0 0 0 0  0 0 0 0.1 0" type="matrix" in="shadowOffsetOuter1"></feColorMatrix>
        </filter>
        <linearGradient x1="50%" y1="0%" x2="50%" y2="100%" id="linearGradient-14">
            <stop stop-color="#B3DC93" offset="0%"></stop>
            <stop stop-color="#7CB65A" offset="100%"></stop>
        </linearGradient>
    </defs>
    <g id="Badges" stroke="none" stroke-width="1" fill="none" fill-rule="evenodd">
        <g id="Work-with-essential-development-standards-for-Microsoft-Dynamics-365-Business-Central" transform="translate(-119.000000, -56.000000)">
            <g id="Work-with-essential-development-standards-for-Microsoft-Dynamics-365-Business-Central/work-with-essential-development-standards-for-microsoft-dynamics-365-business-central" transform="translate(156.000000, 80.000000)">
                <g id="Trophy-Plates/Quadrilateral" transform="translate(4.000000, 0.000000)">
                    <g id="BG" transform="translate(-40.000000, -20.000000)">
                        <mask id="mask-2" fill="white">
                            <use xlink:href="#path-1"></use>
                        </mask>
                        <path stroke="#FFFFFF" stroke-width="4" d="M156.939806,-2 L23.0601937,-2 C22.0191786,-2 20.9794763,-1.92611063 19.9489239,-1.77888886 C13.9348498,-0.919735419 8.83836834,2.29576721 5.46019375,6.8 C2.08201916,11.3042328 0.422151446,17.0971957 1.28130489,23.1112698 L15.5670192,123.11127 C16.3411815,128.530406 19.0488266,133.252588 22.9314697,136.619987 C26.8141128,139.987386 31.8717539,142 37.345908,142 L142.654092,142 C148.128246,142 153.185887,139.987386 157.06853,136.619987 C160.951173,133.252588 163.658819,128.530406 164.432981,123.11127 L178.718695,23.1112698 C178.865917,22.0807174 178.939806,21.0410151 178.939806,20 C178.939806,13.9248678 176.477372,8.42486775 172.496155,4.44365081 C168.514938,0.462433876 163.014938,-2 156.939806,-2 Z"></path>
                        <g id="Colors/Microsoft-365/BG-Gradient-5" mask="url(#mask-2)" fill="url(#linearGradient-3)">
                            <rect id="Rectangle" x="0" y="0" width="180" height="140"></rect>
                        </g>
                    </g>
                    <g id="Border" transform="translate(-38.000000, -21.000000)">
                        <mask id="mask-5" fill="white">
                            <use xlink:href="#path-4"></use>
                        </mask>
                        <use fill="#000000" fill-rule="nonzero" xlink:href="#path-4"></use>
                        <g id="Colors/Microsoft-365/Border" mask="url(#mask-5)" fill="#0076D7">
                            <g transform="translate(-2.243358, -0.116102)" id="Microsoft-365/Border">
                                <rect x="0" y="0" width="180.486716" height="142.232205"></rect>
                            </g>
                        </g>
                    </g>
                </g>
                <g id="Computer-w/-code" transform="translate(0.386364, 3.000000)">
                    <g id="Icon-compute-21-Virtual-Machine" filter="url(#filter-6)" transform="translate(0.613636, 0.000000)" fill-rule="nonzero">
                        <rect id="Rectangle" fill="url(#linearGradient-7)" x="0" y="0" width="96" height="66.4285714" rx="0.6"></rect>
                        <path d="M67.9171586,87.2610305 C58.0965098,85.6541191 57.7103045,78.3082382 57.7103045,66.4285714 L38.2345233,66.4285714 C38.2345233,78.3082382 37.9034902,85.6541191 28.0828414,87.2610305 C25.2749362,87.5842212 23.1553792,90.0614654 23.1724138,93 L72.8275862,93 C72.8446208,90.0614654 70.7250638,87.5842212 67.9171586,87.2610305 Z" id="Path" fill="url(#linearGradient-8)"></path>
                    </g>
                    <g id="Group-21" transform="translate(6.613636, 0.000000)">
                        <polygon id="Fill-1525" fill="url(#linearGradient-9)" points="10.5454545 66 12.3030303 66 12.3030303 9.09494702e-13 10.5454545 9.09494702e-13"></polygon>
                        <g id="Group-24" transform="translate(0.000000, 29.537195)" fill="#FFFFFF">
                            <path d="M4.86415057,1.89183865 C4.86415057,2.93613358 3.89505034,3.7836773 2.70098041,3.7836773 C1.50582889,3.7836773 0.537810246,2.93613358 0.537810246,1.89183865 C0.537810246,0.846597795 1.50582889,0 2.70098041,0 C3.89505034,0 4.86415057,0.846597795 4.86415057,1.89183865" id="Fill-1526"></path>
                            <path d="M4.86415057,12.4320826 C4.86415057,13.4763775 3.89505034,14.3239212 2.70098041,14.3239212 C1.50582889,14.3239212 0.537810246,13.4763775 0.537810246,12.4320826 C0.537810246,11.3868417 1.50582889,10.5402439 2.70098041,10.5402439 C3.89505034,10.5402439 4.86415057,11.3868417 4.86415057,12.4320826" id="Fill-1528"></path>
                            <path d="M4.86415057,22.7020638 C4.86415057,23.7463587 3.89505034,24.5939024 2.70098041,24.5939024 C1.50582889,24.5939024 0.537810246,23.7463587 0.537810246,22.7020638 C0.537810246,21.6568229 1.50582889,20.8102251 2.70098041,20.8102251 C3.89505034,20.8102251 4.86415057,21.6568229 4.86415057,22.7020638" id="Fill-1530"></path>
                        </g>
                        <path d="M40.6946387,54.1310976 L24.3356643,54.1310976 C23.5132541,54.1310976 22.8484848,53.3458494 22.8484848,52.3743902 C22.8484848,51.4029311 23.5132541,50.6176829 24.3356643,50.6176829 L40.6946387,50.6176829 C41.517049,50.6176829 42.1818182,51.4029311 42.1818182,52.3743902 C42.1818182,53.3458494 41.517049,54.1310976 40.6946387,54.1310976" id="Fill-1531" fill="#FFFFFE"></path>
                        <path d="M61.0255411,54.1310976 L47.8437229,54.1310976 C46.6287987,54.1310976 45.6467532,53.3458494 45.6467532,52.3743902 C45.6467532,51.4029311 46.6287987,50.6176829 47.8437229,50.6176829 L61.0255411,50.6176829 C62.2404654,50.6176829 63.2225108,51.4029311 63.2225108,52.3743902 C63.2225108,53.3458494 62.2404654,54.1310976 61.0255411,54.1310976" id="Fill-1532" fill="#FFFFFF"></path>
                        <path d="M38.1770563,22.5103659 L24.9952381,22.5103659 C23.7803139,22.5103659 22.7982684,21.7251177 22.7982684,20.7536585 C22.7982684,19.7821994 23.7803139,18.9969512 24.9952381,18.9969512 L38.1770563,18.9969512 C39.3919805,18.9969512 40.374026,19.7821994 40.374026,20.7536585 C40.374026,21.7251177 39.3919805,22.5103659 38.1770563,22.5103659" id="Fill-1532" fill="#FFFFFF"></path>
                        <path d="M42.3170163,43.5908537 L24.4708625,43.5908537 C23.5736876,43.5908537 22.8484848,42.8056055 22.8484848,41.8341463 C22.8484848,40.8626872 23.5736876,40.077439 24.4708625,40.077439 L42.3170163,40.077439 C43.2141911,40.077439 43.9393939,40.8626872 43.9393939,41.8341463 C43.9393939,42.8056055 43.2141911,43.5908537 42.3170163,43.5908537" id="Fill-1534" fill="#FFFFFE"></path>
                        <path d="M66.9230769,43.5908537 L49.0769231,43.5908537 C48.1797483,43.5908537 47.4545455,42.8056055 47.4545455,41.8341463 C47.4545455,40.8626872 48.1797483,40.077439 49.0769231,40.077439 L66.9230769,40.077439 C67.8202517,40.077439 68.5454545,40.8626872 68.5454545,41.8341463 C68.5454545,42.8056055 67.8202517,43.5908537 66.9230769,43.5908537" id="Fill-1534" fill="#FFFFFE"></path>
                        <path d="M77.4685315,43.5908537 L59.6223776,43.5908537 C58.7252028,43.5908537 58,42.8056055 58,41.8341463 C58,40.8626872 58.7252028,40.077439 59.6223776,40.077439 L77.4685315,40.077439 C78.3657063,40.077439 79.0909091,40.8626872 79.0909091,41.8341463 C79.0909091,42.8056055 78.3657063,43.5908537 77.4685315,43.5908537" id="Fill-1534" fill="#FFFFFE"></path>
                        <path d="M24.6910423,33.0506098 C23.6443383,33.0506098 22.7982684,32.2653616 22.7982684,31.2939024 C22.7982684,30.3224433 23.6443383,29.5371951 24.6910423,29.5371951 L45.5115551,29.5371951 C46.5582591,29.5371951 47.404329,30.3224433 47.404329,31.2939024 C47.404329,32.2653616 46.5582591,33.0506098 45.5115551,33.0506098 L24.6910423,33.0506098 Z" id="Fill-1540" fill="#FFFFFE"></path>
                    </g>
                </g>
                <g id="Group-5" transform="translate(66.000000, 46.000000)">
                    <g id="Gear" filter="url(#filter-10)">
                        <g fill-rule="nonzero" id="Shape">
                            <g>
                                <use fill="black" fill-opacity="1" filter="url(#filter-13)" xlink:href="#path-12"></use>
                                <use fill="url(#linearGradient-11)" xlink:href="#path-12"></use>
                            </g>
                        </g>
                        <circle id="Oval" fill="#FFFFFF" cx="23.5" cy="23.5" r="10.5"></circle>
                    </g>
                    <circle id="Oval-2" fill="url(#linearGradient-14)" cx="23.5" cy="23.5" r="10.5"></circle>
                    <path d="M28,21 L22.8996015,26.3516161 C22.547868,26.720674 21.9748063,26.7660404 21.5693852,26.4569226 L19,24.4978667 L19,24.4978667" id="Path-67" stroke="#FFFFFF" stroke-width="2" stroke-linecap="round"></path>
                </g>
            </g>
        </g>
    </g>
</svg>