<?xml version="1.0" encoding="UTF-8"?>
<svg width="101px" height="101px" viewBox="0 0 101 101" version="1.1" xmlns="http://www.w3.org/2000/svg" xmlns:xlink="http://www.w3.org/1999/xlink">
    <!-- Generator: Sketch 64 (93537) - https://sketch.com -->
    <title>Learn the application foundation with the AL programming language for Microsoft Dynamics 365 Business Central/Use-events-and-triggers-in-Dynamics-365-Business-Central</title>
    <desc>Created with Sketch.</desc>
    <defs>
        <rect id="path-1" x="0" y="0" width="94.3396226" height="94.3396226" rx="47.1698113"></rect>
        <linearGradient x1="77.8299825%" y1="11.1997378%" x2="-99.6885927%" y2="253.807911%" id="linearGradient-3">
            <stop stop-color="#FFFFFF" offset="0%"></stop>
            <stop stop-color="#000000" stop-opacity="0.5" offset="100%"></stop>
        </linearGradient>
        <rect id="path-4" x="0" y="0" width="94.3396226" height="94.3396226"></rect>
        <rect id="path-5" x="0" y="0" width="100" height="100" rx="50"></rect>
        <filter x="-0.5%" y="-0.5%" width="102.0%" height="102.0%" filterUnits="objectBoundingBox" id="filter-6">
            <feOffset dx="1" dy="1" in="SourceAlpha" result="shadowOffsetOuter1"></feOffset>
            <feMorphology radius="4" operator="erode" in="SourceAlpha" result="shadowInner"></feMorphology>
            <feOffset dx="1" dy="1" in="shadowInner" result="shadowInner"></feOffset>
            <feComposite in="shadowOffsetOuter1" in2="shadowInner" operator="out" result="shadowOffsetOuter1"></feComposite>
            <feColorMatrix values="0 0 0 0 0   0 0 0 0 0   0 0 0 0 0  0 0 0 0.15 0" type="matrix" in="shadowOffsetOuter1"></feColorMatrix>
        </filter>
        <path d="M50,2.83018868 C76.0511674,2.83018868 97.1698113,23.9488326 97.1698113,50 C97.1698113,76.0511674 76.0511674,97.1698113 50,97.1698113 C23.9488326,97.1698113 2.83018868,76.0511674 2.83018868,50 C2.83018868,23.9488326 23.9488326,2.83018868 50,2.83018868 Z M50,6.60377358 C26.032926,6.60377358 6.60377358,26.032926 6.60377358,50 C6.60377358,73.967074 26.032926,93.3962264 50,93.3962264 C73.967074,93.3962264 93.3962264,73.967074 93.3962264,50 C93.3962264,26.032926 73.967074,6.60377358 50,6.60377358 Z" id="path-7"></path>
        <filter x="-6.7%" y="-6.7%" width="113.3%" height="113.3%" filterUnits="objectBoundingBox" id="filter-9">
            <feOffset dx="0" dy="2" in="SourceAlpha" result="shadowOffsetOuter1"></feOffset>
            <feColorMatrix values="0 0 0 0 0   0 0 0 0 0   0 0 0 0 0  0 0 0 0.0983072917 0" type="matrix" in="shadowOffsetOuter1" result="shadowMatrixOuter1"></feColorMatrix>
            <feMerge>
                <feMergeNode in="shadowMatrixOuter1"></feMergeNode>
                <feMergeNode in="SourceGraphic"></feMergeNode>
            </feMerge>
        </filter>
        <linearGradient x1="50.0140555%" y1="2.51545844e-15%" x2="50.0140555%" y2="100.054352%" id="linearGradient-10">
            <stop stop-color="#B77AF4" offset="0%"></stop>
            <stop stop-color="#8C4FE4" offset="62%"></stop>
            <stop stop-color="#773ADC" offset="100%"></stop>
        </linearGradient>
        <linearGradient x1="50.0140555%" y1="2.51545844e-15%" x2="50.0140555%" y2="100.054352%" id="linearGradient-11">
            <stop stop-color="#B77AF4" offset="0%"></stop>
            <stop stop-color="#8C4FE4" offset="62%"></stop>
            <stop stop-color="#773ADC" offset="100%"></stop>
        </linearGradient>
        <linearGradient x1="50%" y1="100%" x2="50%" y2="0%" id="linearGradient-12">
            <stop stop-color="#D2EBFF" offset="0%"></stop>
            <stop stop-color="#F0FFFD" offset="100%"></stop>
        </linearGradient>
        <linearGradient x1="50%" y1="0%" x2="50%" y2="100%" id="linearGradient-13">
            <stop stop-color="#EEDFFF" offset="0%"></stop>
            <stop stop-color="#C29EF5" offset="100%"></stop>
        </linearGradient>
    </defs>
    <g id="Badges" stroke="none" stroke-width="1" fill="none" fill-rule="evenodd">
        <g id="Learn-the-application-foundation-with-the-AL-programming-language-for-Microsoft-Dynamics-365-Business-Central" transform="translate(-160.000000, -1270.000000)">
            <g id="Learn-the-application-foundation-with-the-AL-programming-language-for-Microsoft-Dynamics-365-Business-Central/Use-events-and-triggers-in-Dynamics-365-Business-Central" transform="translate(160.000000, 1270.000000)">
                <g id="Badge-Plates/Circle">
                    <g id="BG" transform="translate(2.830189, 2.830189)">
                        <mask id="mask-2" fill="white">
                            <use xlink:href="#path-1"></use>
                        </mask>
                        <g></g>
                        <g id="Colors/Dynamics-365/BG-Solid-Badges" mask="url(#mask-2)">
                            <g id="Rectangle">
                                <use fill="#01B6C3" xlink:href="#path-4"></use>
                                <use fill-opacity="0.4" fill="url(#linearGradient-3)" xlink:href="#path-4"></use>
                            </g>
                        </g>
                    </g>
                    <g id="Border">
                        <g id="White-Border">
                            <use fill="black" fill-opacity="1" filter="url(#filter-6)" xlink:href="#path-5"></use>
                            <rect stroke="#F2F1F0" stroke-width="4" stroke-linejoin="square" x="2" y="2" width="96" height="96" rx="48"></rect>
                        </g>
                        <mask id="mask-8" fill="white">
                            <use xlink:href="#path-7"></use>
                        </mask>
                        <use id="Boarder" fill="#0078D4" fill-rule="nonzero" xlink:href="#path-7"></use>
                        <g id="Colors/Dynamics-365/Border" mask="url(#mask-8)" fill="#008372">
                            <g transform="translate(2.830189, 2.830189)" id="Rectangle">
                                <rect x="0" y="0" width="94.3396226" height="94.3396226"></rect>
                            </g>
                        </g>
                    </g>
                </g>
                <g id="Calendar" filter="url(#filter-9)" transform="translate(20.000000, 20.000000)">
                    <path d="M0,56.25 L0,58 C-3.78894842e-15,59.1045695 0.8954305,60 2,60 L48.75,60 L48.75,60 L58,60 C59.1045695,60 60,59.1045695 60,58 L60,13.125 L60,13.125 L0,13.125 L0,56.25 Z" id="Fill-1315" fill="url(#linearGradient-10)"></path>
                    <path d="M60,1.875 C60,0.84375 59.15625,0 58.125,0 L1.875,0 C0.84375,0 0,0.84375 0,1.875 L0,11.25 L60,11.25 L60,1.875" id="Fill-1316" fill="url(#linearGradient-11)"></path>
                    <polygon id="Fill-1317" fill="#501AA7" points="0 13.125 60 13.125 60 11.25 0 11.25"></polygon>
                    <path d="M31.875,5.625 C31.875,6.66 31.035,7.5 30,7.5 C28.9640625,7.5 28.125,6.66 28.125,5.625 C28.125,4.5890625 28.9640625,3.75 30,3.75 C31.035,3.75 31.875,4.5890625 31.875,5.625" id="Fill-1318" fill="#6227C1"></path>
                    <path d="M46.875,5.625 C46.875,6.66 46.035,7.5 45,7.5 C43.9640625,7.5 43.125,6.66 43.125,5.625 C43.125,4.5890625 43.9640625,3.75 45,3.75 C46.035,3.75 46.875,4.5890625 46.875,5.625" id="Fill-1319" fill="#6227C1"></path>
                    <path d="M16.875,5.625 C16.875,6.66 16.035,7.5 15,7.5 C13.9640625,7.5 13.125,6.66 13.125,5.625 C13.125,4.5890625 13.9640625,3.75 15,3.75 C16.035,3.75 16.875,4.5890625 16.875,5.625" id="Fill-1320" fill="#6227C1"></path>
                    <path d="M31.875,15 C31.875,16.035 31.035,16.875 30,16.875 C28.9640625,16.875 28.125,16.035 28.125,15 C28.125,13.9640625 28.9640625,13.125 30,13.125 C31.035,13.125 31.875,13.9640625 31.875,15" id="Fill-1321" fill="#9558D5"></path>
                    <path d="M46.875,15 C46.875,16.035 46.035,16.875 45,16.875 C43.9640625,16.875 43.125,16.035 43.125,15 C43.125,13.9640625 43.9640625,13.125 45,13.125 C46.035,13.125 46.875,13.9640625 46.875,15" id="Fill-1322" fill="#9558D5"></path>
                    <path d="M16.875,15 C16.875,16.035 16.035,16.875 15,16.875 C13.9640625,16.875 13.125,16.035 13.125,15 C13.125,13.9640625 13.9640625,13.125 15,13.125 C16.035,13.125 16.875,13.9640625 16.875,15" id="Fill-1323" fill="#9558D5"></path>
                    <path d="M45,15.9375 C44.4815625,15.9375 44.0625,15.5184375 44.0625,15 L44.0625,5.625 C44.0625,5.1065625 44.4815625,4.6875 45,4.6875 C45.5184375,4.6875 45.9375,5.1065625 45.9375,5.625 L45.9375,15 C45.9375,15.5184375 45.5184375,15.9375 45,15.9375" id="Fill-1324" fill="#AAB0B1"></path>
                    <path d="M30,15.9375 C29.4815625,15.9375 29.0625,15.5184375 29.0625,15 L29.0625,5.625 C29.0625,5.1065625 29.4815625,4.6875 30,4.6875 C30.5184375,4.6875 30.9375,5.1065625 30.9375,5.625 L30.9375,15 C30.9375,15.5184375 30.5184375,15.9375 30,15.9375" id="Fill-1325" fill="#AAB0B1"></path>
                    <path d="M15,15.9375 C14.4815625,15.9375 14.0625,15.5184375 14.0625,15 L14.0625,5.625 C14.0625,5.1065625 14.4815625,4.6875 15,4.6875 C15.5184375,4.6875 15.9375,5.1065625 15.9375,5.625 L15.9375,15 C15.9375,15.5184375 15.5184375,15.9375 15,15.9375" id="Fill-1326" fill="#AAB0B1"></path>
                    <path d="M10.3125,27.5892857 C10.3125,28.1049107 9.890625,28.5267857 9.375,28.5267857 L5.625,28.5267857 C5.109375,28.5267857 4.6875,28.1049107 4.6875,27.5892857 L4.6875,23.8392857 C4.6875,23.3236607 5.109375,22.9017857 5.625,22.9017857 L9.375,22.9017857 C9.890625,22.9017857 10.3125,23.3236607 10.3125,23.8392857 L10.3125,27.5892857" id="Fill-1327" fill="url(#linearGradient-12)"></path>
                    <path d="M17.8125,27.5892857 C17.8125,28.1049107 17.390625,28.5267857 16.875,28.5267857 L13.125,28.5267857 C12.609375,28.5267857 12.1875,28.1049107 12.1875,27.5892857 L12.1875,23.8392857 C12.1875,23.3236607 12.609375,22.9017857 13.125,22.9017857 L16.875,22.9017857 C17.390625,22.9017857 17.8125,23.3236607 17.8125,23.8392857 L17.8125,27.5892857" id="Fill-1328" fill="url(#linearGradient-12)"></path>
                    <path d="M25.3125,27.5892857 C25.3125,28.1049107 24.890625,28.5267857 24.375,28.5267857 L20.625,28.5267857 C20.109375,28.5267857 19.6875,28.1049107 19.6875,27.5892857 L19.6875,23.8392857 C19.6875,23.3236607 20.109375,22.9017857 20.625,22.9017857 L24.375,22.9017857 C24.890625,22.9017857 25.3125,23.3236607 25.3125,23.8392857 L25.3125,27.5892857" id="Fill-1329" fill="url(#linearGradient-12)"></path>
                    <path d="M32.8125,27.5892857 C32.8125,28.1049107 32.390625,28.5267857 31.875,28.5267857 L28.125,28.5267857 C27.609375,28.5267857 27.1875,28.1049107 27.1875,27.5892857 L27.1875,23.8392857 C27.1875,23.3236607 27.609375,22.9017857 28.125,22.9017857 L31.875,22.9017857 C32.390625,22.9017857 32.8125,23.3236607 32.8125,23.8392857 L32.8125,27.5892857" id="Fill-1330" fill="url(#linearGradient-12)"></path>
                    <path d="M40.3125,27.5892857 C40.3125,28.1049107 39.890625,28.5267857 39.375,28.5267857 L35.625,28.5267857 C35.109375,28.5267857 34.6875,28.1049107 34.6875,27.5892857 L34.6875,23.8392857 C34.6875,23.3236607 35.109375,22.9017857 35.625,22.9017857 L39.375,22.9017857 C39.890625,22.9017857 40.3125,23.3236607 40.3125,23.8392857 L40.3125,27.5892857" id="Fill-1331" fill="url(#linearGradient-12)"></path>
                    <path d="M47.8125,27.5892857 C47.8125,28.1049107 47.390625,28.5267857 46.875,28.5267857 L43.125,28.5267857 C42.609375,28.5267857 42.1875,28.1049107 42.1875,27.5892857 L42.1875,23.8392857 C42.1875,23.3236607 42.609375,22.9017857 43.125,22.9017857 L46.875,22.9017857 C47.390625,22.9017857 47.8125,23.3236607 47.8125,23.8392857 L47.8125,27.5892857" id="Fill-1332" fill="url(#linearGradient-13)"></path>
                    <path d="M55.3125,27.5892857 C55.3125,28.1049107 54.890625,28.5267857 54.375,28.5267857 L50.625,28.5267857 C50.109375,28.5267857 49.6875,28.1049107 49.6875,27.5892857 L49.6875,23.8392857 C49.6875,23.3236607 50.109375,22.9017857 50.625,22.9017857 L54.375,22.9017857 C54.890625,22.9017857 55.3125,23.3236607 55.3125,23.8392857 L55.3125,27.5892857" id="Fill-1333" fill="url(#linearGradient-13)"></path>
                    <path d="M10.3125,35.0892857 C10.3125,35.6049107 9.890625,36.0267857 9.375,36.0267857 L5.625,36.0267857 C5.109375,36.0267857 4.6875,35.6049107 4.6875,35.0892857 L4.6875,31.3392857 C4.6875,30.8236607 5.109375,30.4017857 5.625,30.4017857 L9.375,30.4017857 C9.890625,30.4017857 10.3125,30.8236607 10.3125,31.3392857 L10.3125,35.0892857" id="Fill-1334" fill="url(#linearGradient-12)"></path>
                    <path d="M17.8125,35.0892857 C17.8125,35.6049107 17.390625,36.0267857 16.875,36.0267857 L13.125,36.0267857 C12.609375,36.0267857 12.1875,35.6049107 12.1875,35.0892857 L12.1875,31.3392857 C12.1875,30.8236607 12.609375,30.4017857 13.125,30.4017857 L16.875,30.4017857 C17.390625,30.4017857 17.8125,30.8236607 17.8125,31.3392857 L17.8125,35.0892857" id="Fill-1335" fill="url(#linearGradient-12)"></path>
                    <path d="M25.3125,35.0892857 C25.3125,35.6049107 24.890625,36.0267857 24.375,36.0267857 L20.625,36.0267857 C20.109375,36.0267857 19.6875,35.6049107 19.6875,35.0892857 L19.6875,31.3392857 C19.6875,30.8236607 20.109375,30.4017857 20.625,30.4017857 L24.375,30.4017857 C24.890625,30.4017857 25.3125,30.8236607 25.3125,31.3392857 L25.3125,35.0892857" id="Fill-1336" fill="url(#linearGradient-12)"></path>
                    <path d="M32.8125,35.0892857 C32.8125,35.6049107 32.390625,36.0267857 31.875,36.0267857 L28.125,36.0267857 C27.609375,36.0267857 27.1875,35.6049107 27.1875,35.0892857 L27.1875,31.3392857 C27.1875,30.8236607 27.609375,30.4017857 28.125,30.4017857 L31.875,30.4017857 C32.390625,30.4017857 32.8125,30.8236607 32.8125,31.3392857 L32.8125,35.0892857" id="Fill-1337" fill="url(#linearGradient-12)"></path>
                    <path d="M40.3125,35.0892857 C40.3125,35.6049107 39.890625,36.0267857 39.375,36.0267857 L35.625,36.0267857 C35.109375,36.0267857 34.6875,35.6049107 34.6875,35.0892857 L34.6875,31.3392857 C34.6875,30.8236607 35.109375,30.4017857 35.625,30.4017857 L39.375,30.4017857 C39.890625,30.4017857 40.3125,30.8236607 40.3125,31.3392857 L40.3125,35.0892857" id="Fill-1338" fill="url(#linearGradient-12)"></path>
                    <path d="M47.8125,35.0892857 C47.8125,35.6049107 47.390625,36.0267857 46.875,36.0267857 L43.125,36.0267857 C42.609375,36.0267857 42.1875,35.6049107 42.1875,35.0892857 L42.1875,31.3392857 C42.1875,30.8236607 42.609375,30.4017857 43.125,30.4017857 L46.875,30.4017857 C47.390625,30.4017857 47.8125,30.8236607 47.8125,31.3392857 L47.8125,35.0892857" id="Fill-1339" fill="url(#linearGradient-13)"></path>
                    <path d="M55.3125,35.0892857 C55.3125,35.6049107 54.890625,36.0267857 54.375,36.0267857 L50.625,36.0267857 C50.109375,36.0267857 49.6875,35.6049107 49.6875,35.0892857 L49.6875,31.3392857 C49.6875,30.8236607 50.109375,30.4017857 50.625,30.4017857 L54.375,30.4017857 C54.890625,30.4017857 55.3125,30.8236607 55.3125,31.3392857 L55.3125,35.0892857" id="Fill-1340" fill="url(#linearGradient-13)"></path>
                    <path d="M10.3125,42.5892857 C10.3125,43.1049107 9.890625,43.5267857 9.375,43.5267857 L5.625,43.5267857 C5.109375,43.5267857 4.6875,43.1049107 4.6875,42.5892857 L4.6875,38.8392857 C4.6875,38.3236607 5.109375,37.9017857 5.625,37.9017857 L9.375,37.9017857 C9.890625,37.9017857 10.3125,38.3236607 10.3125,38.8392857 L10.3125,42.5892857" id="Fill-1341" fill="url(#linearGradient-12)"></path>
                    <path d="M17.8125,42.5892857 C17.8125,43.1049107 17.390625,43.5267857 16.875,43.5267857 L13.125,43.5267857 C12.609375,43.5267857 12.1875,43.1049107 12.1875,42.5892857 L12.1875,38.8392857 C12.1875,38.3236607 12.609375,37.9017857 13.125,37.9017857 L16.875,37.9017857 C17.390625,37.9017857 17.8125,38.3236607 17.8125,38.8392857 L17.8125,42.5892857" id="Fill-1342" fill="url(#linearGradient-12)"></path>
                    <path d="M25.3125,42.5892857 C25.3125,43.1049107 24.890625,43.5267857 24.375,43.5267857 L20.625,43.5267857 C20.109375,43.5267857 19.6875,43.1049107 19.6875,42.5892857 L19.6875,38.8392857 C19.6875,38.3236607 20.109375,37.9017857 20.625,37.9017857 L24.375,37.9017857 C24.890625,37.9017857 25.3125,38.3236607 25.3125,38.8392857 L25.3125,42.5892857" id="Fill-1343" fill="url(#linearGradient-12)"></path>
                    <path d="M32.8125,42.5892857 C32.8125,43.1049107 32.390625,43.5267857 31.875,43.5267857 L28.125,43.5267857 C27.609375,43.5267857 27.1875,43.1049107 27.1875,42.5892857 L27.1875,38.8392857 C27.1875,38.3236607 27.609375,37.9017857 28.125,37.9017857 L31.875,37.9017857 C32.390625,37.9017857 32.8125,38.3236607 32.8125,38.8392857 L32.8125,42.5892857" id="Fill-1344" fill="url(#linearGradient-12)"></path>
                    <path d="M40.3125,42.5892857 C40.3125,43.1049107 39.890625,43.5267857 39.375,43.5267857 L35.625,43.5267857 C35.109375,43.5267857 34.6875,43.1049107 34.6875,42.5892857 L34.6875,38.8392857 C34.6875,38.3236607 35.109375,37.9017857 35.625,37.9017857 L39.375,37.9017857 C39.890625,37.9017857 40.3125,38.3236607 40.3125,38.8392857 L40.3125,42.5892857" id="Fill-1345" fill="url(#linearGradient-12)"></path>
                    <path d="M47.8125,42.5892857 C47.8125,43.1049107 47.390625,43.5267857 46.875,43.5267857 L43.125,43.5267857 C42.609375,43.5267857 42.1875,43.1049107 42.1875,42.5892857 L42.1875,38.8392857 C42.1875,38.3236607 42.609375,37.9017857 43.125,37.9017857 L46.875,37.9017857 C47.390625,37.9017857 47.8125,38.3236607 47.8125,38.8392857 L47.8125,42.5892857" id="Fill-1346" fill="url(#linearGradient-13)"></path>
                    <path d="M55.3125,42.5892857 C55.3125,43.1049107 54.890625,43.5267857 54.375,43.5267857 L50.625,43.5267857 C50.109375,43.5267857 49.6875,43.1049107 49.6875,42.5892857 L49.6875,38.8392857 C49.6875,38.3236607 50.109375,37.9017857 50.625,37.9017857 L54.375,37.9017857 C54.890625,37.9017857 55.3125,38.3236607 55.3125,38.8392857 L55.3125,42.5892857" id="Fill-1347" fill="url(#linearGradient-13)"></path>
                    <path d="M10.3125,50.0892857 C10.3125,50.6049107 9.890625,51.0267857 9.375,51.0267857 L5.625,51.0267857 C5.109375,51.0267857 4.6875,50.6049107 4.6875,50.0892857 L4.6875,46.3392857 C4.6875,45.8236607 5.109375,45.4017857 5.625,45.4017857 L9.375,45.4017857 C9.890625,45.4017857 10.3125,45.8236607 10.3125,46.3392857 L10.3125,50.0892857" id="Fill-1348" fill="url(#linearGradient-12)"></path>
                    <path d="M17.8125,50.0892857 C17.8125,50.6049107 17.390625,51.0267857 16.875,51.0267857 L13.125,51.0267857 C12.609375,51.0267857 12.1875,50.6049107 12.1875,50.0892857 L12.1875,46.3392857 C12.1875,45.8236607 12.609375,45.4017857 13.125,45.4017857 L16.875,45.4017857 C17.390625,45.4017857 17.8125,45.8236607 17.8125,46.3392857 L17.8125,50.0892857" id="Fill-1349" fill="url(#linearGradient-12)"></path>
                    <path d="M25.3125,50.0892857 C25.3125,50.6049107 24.890625,51.0267857 24.375,51.0267857 L20.625,51.0267857 C20.109375,51.0267857 19.6875,50.6049107 19.6875,50.0892857 L19.6875,46.3392857 C19.6875,45.8236607 20.109375,45.4017857 20.625,45.4017857 L24.375,45.4017857 C24.890625,45.4017857 25.3125,45.8236607 25.3125,46.3392857 L25.3125,50.0892857" id="Fill-1350" fill="url(#linearGradient-12)"></path>
                    <path d="M32.8125,50.0892857 C32.8125,50.6049107 32.390625,51.0267857 31.875,51.0267857 L28.125,51.0267857 C27.609375,51.0267857 27.1875,50.6049107 27.1875,50.0892857 L27.1875,46.3392857 C27.1875,45.8236607 27.609375,45.4017857 28.125,45.4017857 L31.875,45.4017857 C32.390625,45.4017857 32.8125,45.8236607 32.8125,46.3392857 L32.8125,50.0892857" id="Fill-1351" fill="url(#linearGradient-12)"></path>
                    <path d="M40.3125,50.0892857 C40.3125,50.6049107 39.890625,51.0267857 39.375,51.0267857 L35.625,51.0267857 C35.109375,51.0267857 34.6875,50.6049107 34.6875,50.0892857 L34.6875,46.3392857 C34.6875,45.8236607 35.109375,45.4017857 35.625,45.4017857 L39.375,45.4017857 C39.890625,45.4017857 40.3125,45.8236607 40.3125,46.3392857 L40.3125,50.0892857" id="Fill-1352" fill="url(#linearGradient-12)"></path>
                    <path d="M47.8125,50.0892857 C47.8125,50.6049107 47.390625,51.0267857 46.875,51.0267857 L43.125,51.0267857 C42.609375,51.0267857 42.1875,50.6049107 42.1875,50.0892857 L42.1875,46.3392857 C42.1875,45.8236607 42.609375,45.4017857 43.125,45.4017857 L46.875,45.4017857 C47.390625,45.4017857 47.8125,45.8236607 47.8125,46.3392857 L47.8125,50.0892857" id="Fill-1353" fill="url(#linearGradient-13)"></path>
                    <path d="M55.3125,50.0892857 C55.3125,50.6049107 54.890625,51.0267857 54.375,51.0267857 L50.625,51.0267857 C50.109375,51.0267857 49.6875,50.6049107 49.6875,50.0892857 L49.6875,46.3392857 C49.6875,45.8236607 50.109375,45.4017857 50.625,45.4017857 L54.375,45.4017857 C54.890625,45.4017857 55.3125,45.8236607 55.3125,46.3392857 L55.3125,50.0892857" id="Fill-1354" fill="url(#linearGradient-13)"></path>
                </g>
                <g id="Dynamics-BC-01-2" transform="translate(69.000000, 20.500000)" fill="#FFFFFF" fill-rule="nonzero">
                    <path d="M4.94265823,0.723944178 C5.11253165,0.713058102 5.30088608,0.867868229 5.30291139,1.0973619 C5.30468354,1.29558975 5.14025316,1.46698215 4.95607595,1.47217203 C4.76759494,1.4773619 4.58265823,1.3230581 4.58468354,1.09445051 C4.58708861,0.852298608 4.78721519,0.713311267 4.94265823,0.723944178 L4.94265823,0.723944178 Z M1.00392405,4.63217174 C1.20265823,4.63217174 1.36,4.79900747 1.36,5.00938722 C1.36,5.21293152 1.19860759,5.38065304 1.00278481,5.38103307 C0.806582278,5.38128595 0.642531646,5.21027329 0.642278185,5.00508342 C0.642025316,4.79926063 0.804303797,4.63191886 1.00392405,4.63217174 Z M4.59468354,8.86533658 C4.59911392,8.83761506 4.60151899,8.80938722 4.60860759,8.78242519 C4.66126582,8.5787543 4.85974684,8.46002013 5.05164557,8.51634924 C5.19518987,8.55850114 5.30253165,8.6973619 5.31151899,8.86723532 C5.32063291,9.03913405 5.22227848,9.1995138 5.0543038,9.25191886 C4.81594937,9.32622266 4.57708861,9.12255177 4.59468354,8.86533658 Z M6.55101266,6.52407076 L6.12468354,6.11027329 C5.96962025,6.2516657 5.7964557,6.36293152 5.60126582,6.43812139 C5.41582278,6.5095138 5.22455696,6.54824798 5.02481013,6.55331127 C4.7321519,6.56052646 4.4556962,6.50141253 4.19810127,6.36407076 C3.73886076,6.11913405 3.44632911,5.74318468 3.35594937,5.22888089 C3.27392405,4.7630581 3.39670886,4.34280494 3.69974684,3.9795138 C3.96683544,3.6595138 4.31303797,3.47356443 4.72253165,3.40812139 C5.19126582,3.33318468 5.60164557,3.4695138 5.96392405,3.76698215 C6.01835443,3.8116657 6.06987342,3.86002013 6.12721519,3.91077962 L6.49772152,3.49179228 C6.16189873,3.1487543 5.75696203,2.93888089 5.28113924,2.85799481 C5.28,2.84318468 5.27810127,2.8295138 5.27810127,2.81596949 C5.27797468,2.55470367 5.27860759,2.29343785 5.27746835,2.03217203 C5.27746835,2.00115937 5.28594937,1.98774165 5.31582278,1.97369101 C5.64949367,1.81647582 5.84455696,1.55710874 5.88379747,1.18698215 C5.93544304,0.699893545 5.60506329,0.259513798 5.13126582,0.160779621 C4.61696203,0.0536910136 4.10721519,0.371412533 3.99708861,0.904323925 C3.90151899,1.36672899 4.1435443,1.80596949 4.58367089,1.98685557 C4.61329114,1.99900747 4.62443038,2.01331127 4.6243038,2.04483025 C4.6233185,2.30136939 4.6233185,2.55791137 4.6243038,2.81445051 C4.6243038,2.84533658 4.61594937,2.85698215 4.5835443,2.86255177 C4.35101266,2.90229861 4.12936709,2.97533658 3.92177215,3.08824798 C3.5156962,3.30926063 3.20810127,3.62533658 3.00164557,4.04002013 C2.88924051,4.26571633 2.8343038,4.48014671 2.80037975,4.67926063 L1.89278481,4.67926063 C1.79594937,4.43039987 1.62873418,4.24293152 1.3821519,4.13255177 C1.17632911,4.04052646 0.962658228,4.02445051 0.74443038,4.08217203 C0.329873418,4.19153911 0.000886075949,4.5830581 0.0389873418,5.0838176 C0.0701072432,5.51537862 0.390696272,5.87050467 0.816835443,5.94546317 C1.32063291,6.03394418 1.73063291,5.74331127 1.88316456,5.35407076 C1.8943038,5.35331127 1.90658228,5.3516657 1.91886076,5.3516657 C2.20063291,5.3516657 2.48227848,5.35217203 2.76405063,5.35103279 C2.79822785,5.3509062 2.80911392,5.35862772 2.81632911,5.39596949 C2.89683544,5.8116657 3.07962025,6.17533658 3.37240506,6.48356443 C3.61924051,6.74318468 3.91113924,6.9316657 4.25012658,7.04483025 C4.35772152,7.08077962 4.47037975,7.10179228 4.58126582,7.12710874 C4.61012658,7.13356443 4.6243038,7.14179228 4.62417722,7.17495684 C4.62291139,7.42521 4.62316456,7.67546317 4.62417722,7.92558975 C4.62443038,7.95596949 4.6121519,7.96850114 4.58544304,7.98027329 C4.25227848,8.1273619 4.05417722,8.38394418 3.99810127,8.74077962 C3.9535443,9.02495684 4.02721519,9.28508342 4.20949367,9.51014671 C4.36962025,9.70812139 4.57911392,9.82267836 4.83037975,9.85533658 C5.20189873,9.90343785 5.57594937,9.71267836 5.76379747,9.38824798 C5.85556962,9.22976696 5.90632911,9.05913405 5.89962025,8.87812139 C5.88468354,8.46900747 5.69582278,8.16672899 5.32126582,7.98926063 C5.29037975,7.97457709 5.27696203,7.95964038 5.27721519,7.92369101 C5.27898734,7.67660241 5.27873418,7.4295138 5.27734177,7.18242519 C5.27721519,7.14634924 5.28493671,7.13267836 5.32455696,7.12584291 C5.70506329,7.06027329 6.05417722,6.9195138 6.36151899,6.68255177 C6.42468354,6.6338176 6.48417722,6.58027329 6.55101266,6.52407076 L6.55101266,6.52407076 Z" id="path14" transform="translate(3.293497, 5.001402) scale(-1, 1) rotate(-180.000000) translate(-3.293497, -5.001402) "></path>
                    <path d="M8.87468354,4.62320302 C8.89379747,4.62510176 8.91949367,4.62434226 8.94329114,4.63079796 C9.17974684,4.6940891 9.28582278,4.96155745 9.16607595,5.19003847 C9.07075949,5.37168404 8.85443038,5.42586125 8.68556962,5.31029163 C8.53392405,5.20649416 8.48303797,4.98257011 8.57594937,4.81117771 C8.63822785,4.696241 8.73265823,4.62636758 8.87468354,4.62320302 L8.87468354,4.62320302 Z M4.6135443,4.99725366 C4.61810127,4.96484859 4.62037975,4.9319372 4.62746835,4.90016505 C4.68468354,4.64915239 4.96759494,4.54016505 5.16164557,4.69396252 C5.31620253,4.81674733 5.34835443,5.06649416 5.22873418,5.22750682 C5.14734177,5.33700049 5.03848101,5.39294986 4.9021519,5.36586125 C4.72924051,5.33155745 4.61696203,5.18079796 4.6135443,4.99725366 Z M9.7764557,4.91168404 C9.77556962,4.71725366 9.67582278,4.47522834 9.47025316,4.28168404 C9.32873418,4.1483929 9.15911392,4.07117771 8.96367089,4.04750682 C8.54911392,3.99738024 8.17,4.2505448 8.02151899,4.62396252 C8.00848101,4.65662075 7.99227848,4.66446885 7.95987342,4.66434226 C7.25632911,4.66345619 6.55278481,4.66358277 5.84911392,4.66434226 C5.81810127,4.66434226 5.80443038,4.65611442 5.79151899,4.62548151 C5.67126582,4.3419372 5.4678481,4.14953214 5.16683544,4.0683929 C4.83822785,3.9797853 4.46240506,4.10877264 4.2521519,4.37598783 C4.1135443,4.5519372 4.03835443,4.7519372 4.03405063,4.97345619 C4.02518987,5.43168404 4.32417722,5.85497518 4.79455696,5.93851948 C5.21493671,6.01320302 5.59455696,5.78649416 5.76835443,5.42434226 C5.77506329,5.41041821 5.78177215,5.396241 5.78797468,5.38181062 C5.81898734,5.30864606 5.81898734,5.30864606 5.89594937,5.30864606 C6.57113924,5.30864606 7.2464557,5.30953214 7.92164557,5.30700049 C7.98063291,5.30674733 8.00493671,5.32611442 8.02670886,5.37813973 C8.14734177,5.66497518 8.3556962,5.85877264 8.66126582,5.92750682 C9.02518987,6.00915239 9.32962025,5.89459543 9.56582278,5.60851948 C9.71037975,5.43332961 9.77632911,5.22674733 9.7764557,4.91168404 L9.7764557,4.91168404 Z" id="path16" transform="translate(6.905157, 4.996918) scale(-1, 1) rotate(-180.000000) translate(-6.905157, -4.996918) "></path>
                </g>
            </g>
        </g>
    </g>
</svg>