<?xml version="1.0" encoding="UTF-8"?>
<svg width="107px" height="107px" viewBox="0 0 107 107" version="1.1" xmlns="http://www.w3.org/2000/svg" xmlns:xlink="http://www.w3.org/1999/xlink">
    <!-- Generator: Sketch 60 (88103) - https://sketch.com -->
    <title>NA/introduction-to-dynamics-365-business-central</title>
    <desc>Created with Sketch.</desc>
    <defs>
        <rect id="path-1" x="0" y="0" width="100" height="100" rx="50"></rect>
        <filter x="-6.2%" y="-6.5%" width="112.5%" height="112.9%" filterUnits="objectBoundingBox" id="filter-3">
            <feOffset dx="0" dy="2" in="SourceAlpha" result="shadowOffsetOuter1"></feOffset>
            <feColorMatrix values="0 0 0 0 0   0 0 0 0 0   0 0 0 0 0  0 0 0 0.10082654 0" type="matrix" in="shadowOffsetOuter1" result="shadowMatrixOuter1"></feColorMatrix>
            <feMerge>
                <feMergeNode in="shadowMatrixOuter1"></feMergeNode>
                <feMergeNode in="SourceGraphic"></feMergeNode>
            </feMerge>
        </filter>
        <linearGradient x1="78.4210223%" y1="-7.24023438%" x2="15.5786468%" y2="110.793945%" id="linearGradient-4">
            <stop stop-color="#FFFFFF" offset="0%"></stop>
            <stop stop-color="#000000" stop-opacity="0.5" offset="100%"></stop>
        </linearGradient>
        <rect id="path-5" x="-3" y="-3" width="106" height="106" rx="53"></rect>
        <filter x="-0.5%" y="-0.5%" width="101.9%" height="101.9%" filterUnits="objectBoundingBox" id="filter-6">
            <feOffset dx="1" dy="1" in="SourceAlpha" result="shadowOffsetOuter1"></feOffset>
            <feMorphology radius="4" operator="erode" in="SourceAlpha" result="shadowInner"></feMorphology>
            <feOffset dx="1" dy="1" in="shadowInner" result="shadowInner"></feOffset>
            <feComposite in="shadowOffsetOuter1" in2="shadowInner" operator="out" result="shadowOffsetOuter1"></feComposite>
            <feColorMatrix values="0 0 0 0 0   0 0 0 0 0   0 0 0 0 0  0 0 0 0.15 0" type="matrix" in="shadowOffsetOuter1"></feColorMatrix>
        </filter>
    </defs>
    <g id="Badges" stroke="none" stroke-width="1" fill="none" fill-rule="evenodd">
        <g id="N/A-62" transform="translate(-47.000000, -1057.000000)">
            <g id="NA/introduction-to-dynamics-365-business-central" transform="translate(50.000000, 1060.000000)">
                <g id="Mask" transform="translate(2.000000, 2.000000)">
                    <g id="Circle-" transform="translate(-2.000000, -0.000000)">
                        <mask id="mask-2" fill="white">
                            <use xlink:href="#path-1"></use>
                        </mask>
                        <g id="BG"></g>
                        <g id="Color/01" mask="url(#mask-2)" fill="#01B6C3" fill-rule="evenodd">
                            <rect id="Rectangle" x="0" y="0" width="100" height="100"></rect>
                        </g>
                    </g>
                    <g id="Screen" filter="url(#filter-3)" transform="translate(16.000000, 18.000000)">
                        <path d="M41.414,58.586 L34,51.172 L34,48 C34,46.895 33.104,46 32,46 C30.896,46 30,46.895 30,48 L30,51.172 L22.586,58.586 C21.805,59.367 21.805,60.633 22.586,61.414 C22.977,61.805 23.488,62 24,62 C24.512,62 25.023,61.805 25.414,61.414 L30,56.828 L30,59 C30,60.104 30.896,61 32,61 C33.104,61 34,60.104 34,59 L34,56.828 L38.586,61.414 C38.977,61.805 39.488,62 40,62 C40.512,62 41.023,61.805 41.414,61.414 C42.195,60.633 42.195,59.367 41.414,58.586" id="Fill-1016" fill="#546670"></path>
                        <path d="M62,10 L62,46 C62,47.1 61.1,48 60,48 L4,48 C2.9,48 2,47.1 2,46 L2,10 L62,10" id="Fill-1017" fill="#E1E4E1"></path>
                        <path d="M32,6 C30.896,6 30,5.104 30,4 L30,2 C30,0.895 30.896,0 32,0 C33.104,0 34,0.895 34,2 L34,4 C34,5.104 33.104,6 32,6" id="Fill-1018" fill="#546670"></path>
                        <path d="M64,9 C64,9.55 63.55,10 63,10 L1,10 C0.45,10 0,9.55 0,9 L0,5 C0,4.45 0.45,4 1,4 L63,4 C63.55,4 64,4.45 64,5 L64,9" id="Fill-1019" fill="#30404D"></path>
                        <polygon id="Fill-1020" fill="#C5CCCD" points="2 12 62 12 62 10 2 10"></polygon>
                        <path d="M24.117,59.883 C23.637,60.362 22.815,60.239 22.512,59.631 C22.409,59.425 22.328,59.217 22.271,59.011 C21.834,59.775 21.934,60.762 22.586,61.414 C22.977,61.805 23.488,62 24,62 C24.512,62 25.023,61.805 25.414,61.414 L32,55 L32,52 L24.117,59.883" id="Fill-1022" fill="#30404D"></path>
                        <path d="M39.883,59.883 C40.362,60.362 41.185,60.239 41.488,59.631 C41.591,59.425 41.672,59.217 41.729,59.011 C42.166,59.775 42.066,60.762 41.414,61.414 C41.023,61.805 40.512,62 40,62 C39.488,62 38.977,61.805 38.586,61.414 L32,55 L32,52 L39.883,59.883" id="Fill-1023" fill="#30404D"></path>
                        <path d="M32,54 L32,58.838 C32,59.533 31.31,60.007 30.653,59.78 C30.447,59.709 30.254,59.623 30.078,59.524 C30.325,60.428 31.18,61.081 32.182,60.992 C33.234,60.899 34,59.938 34,58.882 L34,54 L32,54" id="Fill-1024" fill="#30404D"></path>
                        <path d="M30,48 L30,49 L30.914,49 C31.514,49 32,49.486 32,50.086 C32,50.686 32.486,51.172 33.086,51.172 L34,51.172 L34,48 L30,48" id="Fill-1025" fill="#30404D"></path>
                        <path d="M1,10 L63,10 C63.55,10 64,9.55 64,9 L64,5 C64,4.45 63.55,4 63,4 L32,4 L32,6 C32,6.552 31.552,7 31,7 L0,7 L0,9 C0,9.55 0.45,10 1,10" id="Fill-1026" fill="#182A37"></path>
                        <path d="M32,1.903 L32,4 L34,4 L34,2 C34,1.885 33.99,1.773 33.972,1.664 C33.775,0.499 32,0.722 32,1.903" id="Fill-1027" fill="#30404D"></path>
                    </g>
                    <g id="g12" transform="translate(34.000000, 34.000000)" fill="#1C294F" fill-rule="nonzero">
                        <path d="M14.1026319,1.6772179 C14.590408,1.64565916 15.131691,2.09057447 15.1375595,2.75004912 C15.1425305,3.31910051 14.6703577,3.81190969 14.1410188,3.82660857 C13.5998048,3.84160432 13.0680495,3.39814578 13.0743322,2.74155705 C13.0810292,2.04596695 13.6560044,1.64654979 14.1026319,1.6772179 Z M2.78753849,12.9042144 C3.35866802,12.904629 3.81069457,13.3836368 3.81050822,13.9882306 C3.81029413,14.5727334 3.34698625,15.054641 2.78438331,15.0554705 C2.22072404,15.056298 1.7494419,14.5651389 1.74865378,13.9759413 C1.74784704,13.3845344 2.21384754,12.9037314 2.78753849,12.9042144 Z M13.1027772,25.0650628 C13.115757,24.9855274 13.122523,24.9044039 13.142683,24.8267326 C13.2942975,24.2419536 13.8645088,23.9008211 14.4158718,24.0625846 C14.8279787,24.1835448 15.1363167,24.5824648 15.1622762,25.070379 C15.1885119,25.5642307 14.9057882,26.0252188 14.4233283,26.1755905 C13.7385776,26.3890659 13.0524462,25.8040108 13.1027772,25.0650628 L13.1027772,25.0650628 Z M18.7229381,18.3394142 C18.303789,17.9324854 17.9023834,17.5428168 17.4983543,17.1505938 C17.0525553,17.5568322 16.5553896,17.8762168 15.9945679,18.0921777 C15.461777,18.2972991 14.912209,18.4087316 14.3384076,18.4230231 C13.497831,18.4440116 12.7035119,18.2741703 11.9635284,17.8795308 C10.6444962,17.1760009 9.80405767,16.0960585 9.54425563,14.6186458 C9.30882513,13.280075 9.66148759,12.0732348 10.5321662,11.0297461 C11.299421,10.1101173 12.2939595,9.5758765 13.4704906,9.38794635 C14.8167941,9.17288301 15.9958107,9.56427758 17.0362616,10.4188005 C17.192778,10.5473552 17.3407333,10.6862661 17.5057417,10.8319431 C17.8577828,10.4339205 18.2089954,10.0367956 18.5699428,9.62869302 C17.6051611,8.64278467 16.4419549,8.0399169 15.074732,7.8076623 C15.0716251,7.7649258 15.0662399,7.72584848 15.0661709,7.68677116 C15.0658257,6.93622426 15.0675517,6.18568427 15.0643758,5.43513047 C15.0640306,5.34635039 15.0888164,5.30762518 15.1744965,5.26722227 C16.1331336,4.81556854 16.693541,4.07046209 16.8062163,3.00731044 C16.9544477,1.6081767 16.0056145,0.342940763 14.6442601,0.0594401935 C13.1670546,-0.248197594 11.7024145,0.664306151 11.3859987,2.19537211 C11.1115599,3.5235315 11.8069429,4.78539063 13.0712254,5.3049809 C13.1562151,5.33992956 13.1885264,5.38092622 13.1881812,5.47165326 C13.1852814,6.20866808 13.1852124,6.94561386 13.1879741,7.68262868 C13.1882502,7.7711395 13.1639477,7.80483161 13.0709492,7.82078013 C12.4030446,7.93490523 11.7661396,8.14479048 11.1698997,8.46921509 C10.0033796,9.10384181 9.11979032,10.0121478 8.52665737,11.2031086 C8.20368263,11.8515435 8.04592348,12.4675982 7.94864443,13.0393974 C7.08383435,13.0393974 6.21745703,13.0393974 5.34106183,13.0393974 C5.0630122,12.3246138 4.58266495,11.7862996 3.87404678,11.4691934 C3.28304719,11.2047656 2.66911902,11.158646 2.04224563,11.3242068 C0.851284913,11.6386895 -0.09390708,12.7632326 0.0155342702,14.201775 C0.111545036,15.4636411 1.04233572,16.4650147 2.2503151,16.6771092 C3.69715631,16.9311808 4.87528227,16.0965418 5.31336941,14.9782814 C5.34545976,14.9760721 5.38071219,14.9714464 5.41598534,14.9714464 C6.22530701,14.9711012 7.03460797,14.972551 7.84397797,14.9694442 C7.94201648,14.9690299 7.97343022,14.9910541 7.99421162,15.0984131 C8.22543061,16.2925497 8.75055798,17.3375574 9.59161789,18.2228036 C10.3003949,18.9688629 11.1393835,19.5101459 12.1132097,19.8353299 C12.4221,19.9385465 12.7456271,19.9988195 13.0641832,20.0713128 C13.1473778,20.09023 13.1880431,20.1139112 13.1876288,20.2089119 C13.1842458,20.9278379 13.1847982,21.6467639 13.1879741,22.3656209 C13.1883193,22.4528199 13.1531773,22.4885833 13.0761963,22.5225516 C12.1193543,22.9450147 11.5501787,23.6820295 11.3893127,24.7073604 C11.2612413,25.5237035 11.4727835,26.2707984 11.9961848,26.9175763 C12.4563444,27.4861997 13.0579004,27.815181 13.7800714,27.909008 C14.8473103,28.0475737 15.9215914,27.4992484 16.4616316,26.5669851 C16.7252309,26.1118655 16.8709079,25.6219492 16.8517835,25.1021379 C16.8085637,23.9264353 16.266107,23.0585184 15.1901689,22.5483039 C15.1013819,22.5061888 15.0629259,22.4634523 15.0636164,22.3601667 C15.0685873,21.6503541 15.068035,20.9404724 15.0640997,20.2305908 C15.0635473,20.12696 15.0858476,20.0875374 15.1996275,20.0679297 C16.2926188,19.8797925 17.2956493,19.475142 18.1784792,18.7944648 C18.3599885,18.6545183 18.5307274,18.5006945 18.7229381,18.3394142 L18.7229381,18.3394142 Z" id="path14"></path>
                        <path d="M25.3983247,12.9042147 C25.4532125,12.9098071 25.5270175,12.9075287 25.5952992,12.9258937 C26.2743885,13.1080934 26.5792054,13.8763839 26.235035,14.5327586 C25.9614247,15.054641 25.3400539,15.2102599 24.8550395,14.8782407 C24.4193205,14.5800518 24.2730912,13.9367949 24.5399354,13.444324 C24.7187522,13.1142381 24.9901531,12.9134662 25.3983247,12.9042147 Z M13.1569746,13.9789791 C13.1700924,13.8859806 13.1766513,13.7913942 13.1973637,13.7001217 C13.3614746,12.9787792 14.1742967,12.6656774 14.7313211,13.1076791 C15.1758083,13.4604106 15.2680474,14.1778178 14.9243603,14.6404628 C14.6905868,14.9550146 14.3777611,15.1158115 13.9861594,15.037933 C13.489477,14.9391351 13.1670546,14.5062467 13.1569746,13.9789791 L13.1569746,13.9789791 Z M27.9887506,13.7329853 C27.986058,13.1743729 27.6998131,12.4791971 27.1092347,11.9231393 C26.702582,11.5402368 26.2151512,11.3186145 25.6537771,11.250747 C24.4628855,11.106727 23.3738986,11.8337999 22.947224,12.906424 C22.9097346,13.0005272 22.8631318,13.0226204 22.7702023,13.0224823 C20.7490212,13.0201349 18.72784,13.0202039 16.7066589,13.0224823 C16.6175957,13.0226204 16.5783113,12.9990773 16.54096,12.9109117 C16.195823,12.0963636 15.6111131,11.5435507 14.7466482,11.3105367 C13.8026479,11.0560508 12.7229816,11.4265259 12.118802,12.1939188 C11.7205724,12.6997837 11.5047496,13.2742756 11.4923222,13.9103521 C11.4666388,15.227244 12.3257875,16.4427834 13.677131,16.6827706 C14.8847997,16.8972816 15.9749602,16.2461541 16.4744043,15.2059103 C16.4938048,15.1655212 16.5132054,15.125063 16.5307419,15.0837764 C16.6201502,14.8735459 16.6198741,14.8734769 16.841013,14.8734769 C18.7807946,14.8734769 20.7206452,14.8761695 22.6604268,14.8687131 C22.8298539,14.8680226 22.8997927,14.9236698 22.9624821,15.0729369 C23.3085856,15.8971508 23.9072419,16.453899 24.7850317,16.6510117 C25.8306607,16.8858208 26.7053437,16.5565633 27.3837425,15.7346968 C27.7989563,15.2317317 27.9885434,14.6381154 27.9887506,13.7329853 L27.9887506,13.7329853 Z" id="path16"></path>
                    </g>
                </g>
                <g id="Dynamic-Border">
                    <path d="M50,0 C74.5263677,-4.50542066e-15 94.9281966,17.6592499 99.1842495,40.9565123 L94.2027317,73.3905473 C85.8096395,89.2186645 69.1638777,100 50,100 C30.9551233,100 14.3971863,89.3521454 5.95457608,73.6848234 L0.0261464987,48.3675131 C0.887696267,21.508872 22.932015,4.97230817e-15 50,0 Z" id="Combined-Shape" fill="url(#linearGradient-4)" fill-rule="evenodd" opacity="0.400000006" style="mix-blend-mode: overlay;"></path>
                    <g id="Azure-Border">
                        <use fill="black" fill-opacity="1" filter="url(#filter-6)" xlink:href="#path-5"></use>
                        <rect stroke="#F2F1F0" stroke-width="4" stroke-linejoin="square" x="-1" y="-1" width="102" height="102" rx="51"></rect>
                    </g>
                    <rect id="Azure-Border" stroke="#006458" stroke-width="4" x="2" y="2" width="96" height="96" rx="48"></rect>
                </g>
            </g>
        </g>
    </g>
</svg>