<?xml version="1.0" encoding="UTF-8"?>
<svg width="101px" height="101px" viewBox="0 0 101 101" version="1.1" xmlns="http://www.w3.org/2000/svg" xmlns:xlink="http://www.w3.org/1999/xlink">
    <!-- Generator: Sketch 63.1 (92452) - https://sketch.com -->
    <title>Discover the Foundation of Customizing Microsoft Dynamics 365 Business Central/Introduction-to-the-development-environment-for-Dynamics-365-Business-Central</title>
    <desc>Created with Sketch.</desc>
    <defs>
        <rect id="path-1" x="0" y="0" width="94.3396226" height="94.3396226" rx="47.1698113"></rect>
        <linearGradient x1="77.8299825%" y1="11.1997378%" x2="-99.6885927%" y2="253.807911%" id="linearGradient-3">
            <stop stop-color="#FFFFFF" offset="0%"></stop>
            <stop stop-color="#000000" stop-opacity="0.5" offset="100%"></stop>
        </linearGradient>
        <rect id="path-4" x="0" y="0" width="94.3396226" height="94.3396226"></rect>
        <rect id="path-5" x="0" y="0" width="100" height="100" rx="50"></rect>
        <filter x="-0.5%" y="-0.5%" width="102.0%" height="102.0%" filterUnits="objectBoundingBox" id="filter-6">
            <feOffset dx="1" dy="1" in="SourceAlpha" result="shadowOffsetOuter1"></feOffset>
            <feMorphology radius="4" operator="erode" in="SourceAlpha" result="shadowInner"></feMorphology>
            <feOffset dx="1" dy="1" in="shadowInner" result="shadowInner"></feOffset>
            <feComposite in="shadowOffsetOuter1" in2="shadowInner" operator="out" result="shadowOffsetOuter1"></feComposite>
            <feColorMatrix values="0 0 0 0 0   0 0 0 0 0   0 0 0 0 0  0 0 0 0.15 0" type="matrix" in="shadowOffsetOuter1"></feColorMatrix>
        </filter>
        <path d="M50,2.83018868 C76.0511674,2.83018868 97.1698113,23.9488326 97.1698113,50 C97.1698113,76.0511674 76.0511674,97.1698113 50,97.1698113 C23.9488326,97.1698113 2.83018868,76.0511674 2.83018868,50 C2.83018868,23.9488326 23.9488326,2.83018868 50,2.83018868 Z M50,6.60377358 C26.032926,6.60377358 6.60377358,26.032926 6.60377358,50 C6.60377358,73.967074 26.032926,93.3962264 50,93.3962264 C73.967074,93.3962264 93.3962264,73.967074 93.3962264,50 C93.3962264,26.032926 73.967074,6.60377358 50,6.60377358 Z" id="path-7"></path>
        <filter x="-21.1%" y="-27.9%" width="142.1%" height="155.8%" filterUnits="objectBoundingBox" id="filter-9">
            <feOffset dx="0" dy="2" in="SourceAlpha" result="shadowOffsetOuter1"></feOffset>
            <feGaussianBlur stdDeviation="2" in="shadowOffsetOuter1" result="shadowBlurOuter1"></feGaussianBlur>
            <feColorMatrix values="0 0 0 0 0   0 0 0 0 0   0 0 0 0 0  0 0 0 0.1 0" type="matrix" in="shadowBlurOuter1" result="shadowMatrixOuter1"></feColorMatrix>
            <feMerge>
                <feMergeNode in="shadowMatrixOuter1"></feMergeNode>
                <feMergeNode in="SourceGraphic"></feMergeNode>
            </feMerge>
        </filter>
        <linearGradient x1="50%" y1="0%" x2="50%" y2="100%" id="linearGradient-10">
            <stop stop-color="#EEEEEE" offset="0%"></stop>
            <stop stop-color="#E7E7E7" offset="42.1958913%"></stop>
            <stop stop-color="#D8D8D8" offset="100%"></stop>
        </linearGradient>
        <rect id="path-11" x="0" y="0" width="57" height="43" rx="1"></rect>
        <linearGradient x1="50%" y1="100%" x2="50%" y2="0%" id="linearGradient-13">
            <stop stop-color="#D2EBFF" offset="0%"></stop>
            <stop stop-color="#F0FFFD" offset="100%"></stop>
        </linearGradient>
        <linearGradient x1="50%" y1="0%" x2="50%" y2="100%" id="linearGradient-14">
            <stop stop-color="#EEEEEE" offset="0%"></stop>
            <stop stop-color="#E7E7E7" offset="42.1958913%"></stop>
            <stop stop-color="#D8D8D8" offset="100%"></stop>
        </linearGradient>
        <rect id="path-15" x="0" y="0" width="57" height="8" rx="1"></rect>
        <filter x="-40.0%" y="-40.0%" width="180.0%" height="180.0%" filterUnits="objectBoundingBox" id="filter-17">
            <feOffset dx="0" dy="2" in="SourceAlpha" result="shadowOffsetOuter1"></feOffset>
            <feGaussianBlur stdDeviation="2" in="shadowOffsetOuter1" result="shadowBlurOuter1"></feGaussianBlur>
            <feColorMatrix values="0 0 0 0 0   0 0 0 0 0   0 0 0 0 0  0 0 0 0.1 0" type="matrix" in="shadowBlurOuter1" result="shadowMatrixOuter1"></feColorMatrix>
            <feMerge>
                <feMergeNode in="shadowMatrixOuter1"></feMergeNode>
                <feMergeNode in="SourceGraphic"></feMergeNode>
            </feMerge>
        </filter>
        <path d="M2.12526316,0 C1.11907895,0 0.303552632,0.76212766 0.303552632,1.70212766 L0.303552632,1.70212766 L0.303552632,18.2978723 C0.303552632,19.2378723 1.11907895,20 2.12526316,20 L2.12526316,20 L28.0871053,20 C29.0932895,20 29.9092105,19.2378723 29.9092105,18.2978723 L29.9092105,18.2978723 L29.9092105,1.70212766 C29.9092105,0.76212766 29.0932895,0 28.0871053,0 L28.0871053,0 L2.12526316,0 Z" id="path-18"></path>
        <linearGradient x1="50%" y1="-7.83969624%" x2="50%" y2="136.746848%" id="linearGradient-20">
            <stop stop-color="#FFD70F" offset="0%"></stop>
            <stop stop-color="#EEB309" offset="34%"></stop>
            <stop stop-color="#DC8C03" offset="77%"></stop>
            <stop stop-color="#D57D01" offset="100%"></stop>
        </linearGradient>
        <linearGradient x1="50%" y1="0%" x2="50%" y2="100%" id="linearGradient-21">
            <stop stop-color="#E55E14" offset="0%"></stop>
            <stop stop-color="#F59051" offset="100%"></stop>
        </linearGradient>
        <linearGradient x1="50%" y1="0%" x2="50%" y2="100%" id="linearGradient-22">
            <stop stop-color="#F59051" offset="0%"></stop>
            <stop stop-color="#E55E14" offset="100%"></stop>
        </linearGradient>
        <linearGradient x1="50%" y1="-9.93901477%" x2="50%" y2="100%" id="linearGradient-23">
            <stop stop-color="#FFFFFF" offset="0%"></stop>
            <stop stop-color="#EFEFEF" offset="100%"></stop>
        </linearGradient>
        <path d="M16.866308,21.203551 L13.4962775,21.203551 C13.2057717,21.203551 12.9679737,20.9584984 12.9679737,20.65913 L12.9679737,15.4321826 C12.9679737,15.1328142 13.2057717,14.8877616 13.4962775,14.8877616 L16.866308,14.8877616 C17.1568138,14.8877616 17.3942032,15.1328142 17.3942032,15.4321826 L17.3942032,20.65913 C17.3942032,20.9584984 17.1568138,21.203551 16.866308,21.203551" id="path-24"></path>
        <filter x="-11.3%" y="-7.9%" width="122.6%" height="131.7%" filterUnits="objectBoundingBox" id="filter-25">
            <feOffset dx="0" dy="1" in="SourceAlpha" result="shadowOffsetOuter1"></feOffset>
            <feColorMatrix values="0 0 0 0 0   0 0 0 0 0   0 0 0 0 0  0 0 0 0.1 0" type="matrix" in="shadowOffsetOuter1"></feColorMatrix>
        </filter>
        <linearGradient x1="50%" y1="2.04550253%" x2="50%" y2="100%" id="linearGradient-26">
            <stop stop-color="#FFE02A" offset="0%"></stop>
            <stop stop-color="#FFB518" offset="100%"></stop>
        </linearGradient>
    </defs>
    <g id="Badges" stroke="none" stroke-width="1" fill="none" fill-rule="evenodd">
        <g id="Discover-the-Foundation-of-Customizing-Microsoft-Dynamics-365-Business-Central" transform="translate(-160.000000, -320.000000)">
            <g id="Discover-the-Foundation-of-Customizing-Microsoft-Dynamics-365-Business-Central/Introduction-to-the-development-environment-for-Dynamics-365-Business-Central" transform="translate(160.000000, 320.000000)">
                <g id="Badge-Plates/Circle">
                    <g id="BG" transform="translate(2.830189, 2.830189)">
                        <mask id="mask-2" fill="white">
                            <use xlink:href="#path-1"></use>
                        </mask>
                        <g></g>
                        <g id="Colors/Microsoft-365/BG-Solid-Badge" mask="url(#mask-2)">
                            <g id="Rectangle">
                                <use fill="#0078D4" xlink:href="#path-4"></use>
                                <use fill-opacity="0.4" fill="url(#linearGradient-3)" xlink:href="#path-4"></use>
                            </g>
                        </g>
                    </g>
                    <g id="Border">
                        <g id="White-Border">
                            <use fill="black" fill-opacity="1" filter="url(#filter-6)" xlink:href="#path-5"></use>
                            <rect stroke="#F2F1F0" stroke-width="4" stroke-linejoin="square" x="2" y="2" width="96" height="96" rx="48"></rect>
                        </g>
                        <mask id="mask-8" fill="white">
                            <use xlink:href="#path-7"></use>
                        </mask>
                        <use id="Boarder" fill="#0078D4" fill-rule="nonzero" xlink:href="#path-7"></use>
                        <g id="Colors/Microsoft-365/Border" mask="url(#mask-8)" fill="#0076D7">
                            <g transform="translate(2.830189, 2.830189)" id="Microsoft-365/Border">
                                <rect x="0" y="0" width="94.3396226" height="94.3396226"></rect>
                            </g>
                        </g>
                    </g>
                </g>
                <g id="Monitor-Window-w/-Code" filter="url(#filter-9)" transform="translate(20.000000, 28.000000)">
                    <g id="Group-28">
                        <g id="Icon/Monitor-Window">
                            <g id="Color" transform="translate(-0.000000, 0.000000)">
                                <mask id="mask-12" fill="white">
                                    <use xlink:href="#path-11"></use>
                                </mask>
                                <use id="BG" fill="url(#linearGradient-10)" xlink:href="#path-11"></use>
                                <g id="Color-/-.Net" mask="url(#mask-12)" fill="url(#linearGradient-13)">
                                    <rect id="Rectangle" x="0" y="0" width="57" height="43"></rect>
                                </g>
                            </g>
                            <g id="Misc" transform="translate(40.800000, 3.000000)" fill="#FFFFFF" fill-rule="nonzero">
                                <path d="M11.7,0.3 C11.3,-0.1 10.7,-0.1 10.3,0.3 C10.1,0.5 10,0.7 10,1 C10,1.3 10.1,1.5 10.3,1.7 C10.5,1.9 10.7,2 11,2 C11.3,2 11.5,1.9 11.7,1.7 C11.9,1.5 12,1.2 12,1 C12,0.7 11.9,0.5 11.7,0.3 Z" id="Path"></path>
                                <path d="M6,0 C5.4,0 5,0.5 5,1 C5,1.6 5.4,2 6,2 C6.6,2 7,1.6 7,1 C7,0.5 6.6,0 6,0 Z" id="Path"></path>
                                <path d="M0.3,0.3 C0.1,0.5 0,0.7 0,1 C0,1.3 0.1,1.5 0.3,1.7 C0.5,1.9 0.7,2 1,2 C1.3,2 1.5,1.9 1.7,1.7 C1.9,1.5 2,1.3 2,1 C2,0.7 1.9,0.5 1.7,0.3 C1.4,-0.1 0.7,-0.1 0.3,0.3 Z" id="Path"></path>
                            </g>
                        </g>
                        <g id="Icon/Monitor-Window">
                            <g id="Color">
                                <mask id="mask-16" fill="white">
                                    <use xlink:href="#path-15"></use>
                                </mask>
                                <use id="BG" fill="url(#linearGradient-14)" xlink:href="#path-15"></use>
                                <g id="Color-/-.Net" mask="url(#mask-16)" fill="#92C4FC">
                                    <rect id="Rectangle" x="0" y="0" width="57" height="8"></rect>
                                </g>
                            </g>
                            <g id="Misc" transform="translate(41.000000, 3.000000)" fill="#FFFFFF" fill-rule="nonzero">
                                <path d="M11.7,0.3 C11.3,-0.1 10.7,-0.1 10.3,0.3 C10.1,0.5 10,0.7 10,1 C10,1.3 10.1,1.5 10.3,1.7 C10.5,1.9 10.7,2 11,2 C11.3,2 11.5,1.9 11.7,1.7 C11.9,1.5 12,1.2 12,1 C12,0.7 11.9,0.5 11.7,0.3 Z" id="Path"></path>
                                <path d="M6,0 C5.4,0 5,0.5 5,1 C5,1.6 5.4,2 6,2 C6.6,2 7,1.6 7,1 C7,0.5 6.6,0 6,0 Z" id="Path"></path>
                                <path d="M0.3,0.3 C0.1,0.5 0,0.7 0,1 C0,1.3 0.1,1.5 0.3,1.7 C0.5,1.9 0.7,2 1,2 C1.3,2 1.5,1.9 1.7,1.7 C1.9,1.5 2,1.3 2,1 C2,0.7 1.9,0.5 1.7,0.3 C1.4,-0.1 0.7,-0.1 0.3,0.3 Z" id="Path"></path>
                            </g>
                        </g>
                        <polygon id="Fill-1525" fill="#92C4FC" points="12.0999048 43 13.8888778 43 13.8888778 8 12.0999048 8"></polygon>
                        <g id="Group-24" transform="translate(5.212337, 22.081081)" fill="#92C4FC">
                            <path d="M2.34423408,1.16216216 C2.34423408,1.80367568 1.82455408,2.32432432 1.18423408,2.32432432 C0.543334078,2.32432432 0.0242340776,1.80367568 0.0242340776,1.16216216 C0.0242340776,0.520067568 0.543334078,0 1.18423408,0 C1.82455408,0 2.34423408,0.520067568 2.34423408,1.16216216" id="Fill-1526"></path>
                            <path d="M2.34423408,6.97297297 C2.34423408,7.61448649 1.82455408,8.13513514 1.18423408,8.13513514 C0.543334078,8.13513514 0.0242340776,7.61448649 0.0242340776,6.97297297 C0.0242340776,6.33087838 0.543334078,5.81081081 1.18423408,5.81081081 C1.82455408,5.81081081 2.34423408,6.33087838 2.34423408,6.97297297" id="Fill-1528"></path>
                            <path d="M2.34423408,13.9459459 C2.34423408,14.5874595 1.82455408,15.1081081 1.18423408,15.1081081 C0.543334078,15.1081081 0.0242340776,14.5874595 0.0242340776,13.9459459 C0.0242340776,13.3038514 0.543334078,12.7837838 1.18423408,12.7837838 C1.82455408,12.7837838 2.34423408,13.3038514 2.34423408,13.9459459" id="Fill-1530"></path>
                        </g>
                        <path d="M29.2020505,36.027027 L19.6320505,36.027027 C19.1509405,36.027027 18.7620505,35.7672838 18.7620505,35.4459459 C18.7620505,35.1246081 19.1509405,34.8648649 19.6320505,34.8648649 L29.2020505,34.8648649 C29.6831605,34.8648649 30.0720505,35.1246081 30.0720505,35.4459459 C30.0720505,35.7672838 29.6831605,36.027027 29.2020505,36.027027" id="Fill-1531" fill="#92C4FC"></path>
                        <path d="M36.8266338,36.027027 L32.1141338,36.027027 C31.6797984,36.027027 31.3287172,35.7672838 31.3287172,35.4459459 C31.3287172,35.1246081 31.6797984,34.8648649 32.1141338,34.8648649 L36.8266338,34.8648649 C37.2609693,34.8648649 37.6120505,35.1246081 37.6120505,35.4459459 C37.6120505,35.7672838 37.2609693,36.027027 36.8266338,36.027027" id="Fill-1532" fill="#92C4FC"></path>
                        <path d="M29.2020505,30.2162162 L19.6320505,30.2162162 C19.1509405,30.2162162 18.7620505,29.956473 18.7620505,29.6351351 C18.7620505,29.3137973 19.1509405,29.0540541 19.6320505,29.0540541 L29.2020505,29.0540541 C29.6831605,29.0540541 30.0720505,29.3137973 30.0720505,29.6351351 C30.0720505,29.956473 29.6831605,30.2162162 29.2020505,30.2162162" id="Fill-1534" fill="#92C4FC"></path>
                        <path d="M39.4487172,30.2162162 L32.0053838,30.2162162 C31.6311872,30.2162162 31.3287172,29.956473 31.3287172,29.6351351 C31.3287172,29.3137973 31.6311872,29.0540541 32.0053838,29.0540541 L39.4487172,29.0540541 C39.8229138,29.0540541 40.1253838,29.3137973 40.1253838,29.6351351 C40.1253838,29.956473 39.8229138,30.2162162 39.4487172,30.2162162" id="Fill-1535" fill="#92C4FC"></path>
                        <path d="M45.4033838,30.2162162 L42.3873838,30.2162162 C41.8314345,30.2162162 41.3820505,29.956473 41.3820505,29.6351351 C41.3820505,29.3137973 41.8314345,29.0540541 42.3873838,29.0540541 L45.4033838,29.0540541 C45.9593332,29.0540541 46.4087172,29.3137973 46.4087172,29.6351351 C46.4087172,29.956473 45.9593332,30.2162162 45.4033838,30.2162162" id="Fill-1536" fill="#92C4FC"></path>
                        <path d="M19.6320505,24.4054054 C19.1509405,24.4054054 18.7620505,24.1456622 18.7620505,23.8243243 C18.7620505,23.5029865 19.1509405,23.2432432 19.6320505,23.2432432 L29.2020505,23.2432432 C29.6831605,23.2432432 30.0720505,23.5029865 30.0720505,23.8243243 C30.0720505,24.1456622 29.6831605,24.4054054 29.2020505,24.4054054 L19.6320505,24.4054054 Z" id="Fill-1540" fill="#92C4FC"></path>
                        <path d="M25.0453838,18.5945946 L20.0187172,18.5945946 C19.3237805,18.5945946 18.7620505,18.3348514 18.7620505,18.0135135 C18.7620505,17.6921757 19.3237805,17.4324324 20.0187172,17.4324324 L25.0453838,17.4324324 C25.7403205,17.4324324 26.3020505,17.6921757 26.3020505,18.0135135 C26.3020505,18.3348514 25.7403205,18.5945946 25.0453838,18.5945946" id="Fill-1542" fill="#92C4FC"></path>
                    </g>
                </g>
                <g id="Briefcase" transform="translate(51.000000, 46.000000)">
                    <g id="Group" filter="url(#filter-17)">
                        <g id="Group-5" transform="translate(0.000000, 8.045656)">
                            <mask id="mask-19" fill="white">
                                <use xlink:href="#path-18"></use>
                            </mask>
                            <g id="Clip-4"></g>
                            <polygon id="Fill-3" fill="url(#linearGradient-20)" mask="url(#mask-19)" points="-1.97368421 22.1276596 32.1860526 22.1276596 32.1860526 -2.12765957 -1.97368421 -2.12765957"></polygon>
                        </g>
                        <path d="M15.6214737,17.0324774 C9.43871053,17.0324774 3.92265789,15.5154247 0.303710526,13.1423721 L0.303710526,25.8211089 C0.303710526,27.6893195 1.72357895,29.2034247 3.47502632,29.2034247 L26.7376579,29.2034247 C28.4891053,29.2034247 29.9089737,27.6893195 29.9089737,25.8211089 L29.9089737,13.7638458 C26.3141053,15.7764774 21.2445,17.0324774 15.6214737,17.0324774" id="Fill-6" fill="url(#linearGradient-21)"></path>
                        <path d="M15.6214737,19.110582 C9.43871053,19.110582 3.92265789,17.7683216 0.303710526,15.6686879 L0.303710526,28.3484486 C0.303710526,29.1937412 1.03002632,29.8792142 1.92568421,29.8792142 L28.2866053,29.8792142 C29.1826579,29.8792142 29.9089737,29.1937412 29.9089737,28.3484486 L29.9089737,16.2185565 C26.3141053,17.9992962 21.2445,19.110582 15.6214737,19.110582" id="Fill-8" fill="url(#linearGradient-22)"></path>
                        <g id="Fill-10">
                            <use fill="black" fill-opacity="1" filter="url(#filter-25)" xlink:href="#path-24"></use>
                            <use fill="url(#linearGradient-23)" fill-rule="evenodd" xlink:href="#path-24"></use>
                        </g>
                        <path d="M24.9746842,8.10526316 L23.001,8.10526316 C23.001,4.79705263 19.4594211,2.10526316 15.1062632,2.10526316 C10.7531053,2.10526316 7.21152632,4.79705263 7.21152632,8.10526316 L5.23784211,8.10526316 C5.23784211,3.63621053 9.66481579,4.79616347e-14 15.1062632,4.79616347e-14 C20.5477105,4.79616347e-14 24.9746842,3.63621053 24.9746842,8.10526316" id="Fill-12" fill="url(#linearGradient-26)"></path>
                    </g>
                </g>
            </g>
        </g>
    </g>
</svg>