<?xml version="1.0" encoding="UTF-8"?>
<svg width="101px" height="101px" viewBox="0 0 101 101" version="1.1" xmlns="http://www.w3.org/2000/svg" xmlns:xlink="http://www.w3.org/1999/xlink">
    <!-- Generator: Sketch 64 (93537) - https://sketch.com -->
    <title>Learn the application foundation with the AL programming language for Microsoft Dynamics 365 Business Central/Manipulate-data-via-code-in-Dynamics-365-Business-Central</title>
    <desc>Created with Sketch.</desc>
    <defs>
        <rect id="path-1" x="0" y="0" width="94.3396226" height="94.3396226" rx="47.1698113"></rect>
        <linearGradient x1="77.8299825%" y1="11.1997378%" x2="-99.6885927%" y2="253.807911%" id="linearGradient-3">
            <stop stop-color="#FFFFFF" offset="0%"></stop>
            <stop stop-color="#000000" stop-opacity="0.5" offset="100%"></stop>
        </linearGradient>
        <rect id="path-4" x="0" y="0" width="94.3396226" height="94.3396226"></rect>
        <rect id="path-5" x="0" y="0" width="100" height="100" rx="50"></rect>
        <filter x="-0.5%" y="-0.5%" width="102.0%" height="102.0%" filterUnits="objectBoundingBox" id="filter-6">
            <feOffset dx="1" dy="1" in="SourceAlpha" result="shadowOffsetOuter1"></feOffset>
            <feMorphology radius="4" operator="erode" in="SourceAlpha" result="shadowInner"></feMorphology>
            <feOffset dx="1" dy="1" in="shadowInner" result="shadowInner"></feOffset>
            <feComposite in="shadowOffsetOuter1" in2="shadowInner" operator="out" result="shadowOffsetOuter1"></feComposite>
            <feColorMatrix values="0 0 0 0 0   0 0 0 0 0   0 0 0 0 0  0 0 0 0.15 0" type="matrix" in="shadowOffsetOuter1"></feColorMatrix>
        </filter>
        <path d="M50,2.83018868 C76.0511674,2.83018868 97.1698113,23.9488326 97.1698113,50 C97.1698113,76.0511674 76.0511674,97.1698113 50,97.1698113 C23.9488326,97.1698113 2.83018868,76.0511674 2.83018868,50 C2.83018868,23.9488326 23.9488326,2.83018868 50,2.83018868 Z M50,6.60377358 C26.032926,6.60377358 6.60377358,26.032926 6.60377358,50 C6.60377358,73.967074 26.032926,93.3962264 50,93.3962264 C73.967074,93.3962264 93.3962264,73.967074 93.3962264,50 C93.3962264,26.032926 73.967074,6.60377358 50,6.60377358 Z" id="path-7"></path>
        <linearGradient x1="50%" y1="100%" x2="50%" y2="0%" id="linearGradient-9">
            <stop stop-color="#D2EBFF" offset="0%"></stop>
            <stop stop-color="#F0FFFD" offset="100%"></stop>
        </linearGradient>
        <filter x="-46.7%" y="-34.6%" width="193.3%" height="170.8%" filterUnits="objectBoundingBox" id="filter-10">
            <feOffset dx="0" dy="2" in="SourceAlpha" result="shadowOffsetOuter1"></feOffset>
            <feGaussianBlur stdDeviation="2" in="shadowOffsetOuter1" result="shadowBlurOuter1"></feGaussianBlur>
            <feColorMatrix values="0 0 0 0 0   0 0 0 0 0   0 0 0 0 0  0 0 0 0.1 0" type="matrix" in="shadowBlurOuter1" result="shadowMatrixOuter1"></feColorMatrix>
            <feMerge>
                <feMergeNode in="shadowMatrixOuter1"></feMergeNode>
                <feMergeNode in="SourceGraphic"></feMergeNode>
            </feMerge>
        </filter>
        <filter x="-8.3%" y="-6.2%" width="116.7%" height="113.8%" filterUnits="objectBoundingBox" id="filter-11">
            <feOffset dx="0" dy="1" in="SourceAlpha" result="shadowOffsetOuter1"></feOffset>
            <feColorMatrix values="0 0 0 0 0   0 0 0 0 0   0 0 0 0 0  0 0 0 0.12 0" type="matrix" in="shadowOffsetOuter1" result="shadowMatrixOuter1"></feColorMatrix>
            <feMerge>
                <feMergeNode in="shadowMatrixOuter1"></feMergeNode>
                <feMergeNode in="SourceGraphic"></feMergeNode>
            </feMerge>
        </filter>
        <linearGradient x1="50%" y1="97.5691716%" x2="50%" y2="-5.30956676%" id="linearGradient-12">
            <stop stop-color="#0078D4" offset="0%"></stop>
            <stop stop-color="#1380DA" offset="16%"></stop>
            <stop stop-color="#3C91E5" offset="53%"></stop>
            <stop stop-color="#559CEC" offset="82%"></stop>
            <stop stop-color="#5EA0EF" offset="100%"></stop>
        </linearGradient>
        <linearGradient x1="50%" y1="100%" x2="50%" y2="0%" id="linearGradient-13">
            <stop stop-color="#D2EBFF" offset="0%"></stop>
            <stop stop-color="#F0FFFD" offset="100%"></stop>
        </linearGradient>
    </defs>
    <g id="Badges" stroke="none" stroke-width="1" fill="none" fill-rule="evenodd">
        <g id="Learn-the-application-foundation-with-the-AL-programming-language-for-Microsoft-Dynamics-365-Business-Central--2" transform="translate(-160.000000, -320.000000)">
            <g id="Learn-the-application-foundation-with-the-AL-programming-language-for-Microsoft-Dynamics-365-Business-Central/Manipulate-data-via-code-in-Dynamics-365-Business-Central" transform="translate(160.000000, 320.000000)">
                <g id="Badge-Plates/Circle">
                    <g id="BG" transform="translate(2.830189, 2.830189)">
                        <mask id="mask-2" fill="white">
                            <use xlink:href="#path-1"></use>
                        </mask>
                        <g></g>
                        <g id="Colors/Dynamics-365/BG-Solid-Badges" mask="url(#mask-2)">
                            <g id="Rectangle">
                                <use fill="#01B6C3" xlink:href="#path-4"></use>
                                <use fill-opacity="0.4" fill="url(#linearGradient-3)" xlink:href="#path-4"></use>
                            </g>
                        </g>
                    </g>
                    <g id="Border">
                        <g id="White-Border">
                            <use fill="black" fill-opacity="1" filter="url(#filter-6)" xlink:href="#path-5"></use>
                            <rect stroke="#F2F1F0" stroke-width="4" stroke-linejoin="square" x="2" y="2" width="96" height="96" rx="48"></rect>
                        </g>
                        <mask id="mask-8" fill="white">
                            <use xlink:href="#path-7"></use>
                        </mask>
                        <use id="Boarder" fill="#0078D4" fill-rule="nonzero" xlink:href="#path-7"></use>
                        <g id="Colors/Dynamics-365/Border" mask="url(#mask-8)" fill="#008372">
                            <g transform="translate(2.830189, 2.830189)" id="Rectangle">
                                <rect x="0" y="0" width="94.3396226" height="94.3396226"></rect>
                            </g>
                        </g>
                    </g>
                </g>
                <rect id="Rectangle" fill="url(#linearGradient-9)" x="21" y="20" width="7" height="7"></rect>
                <rect id="Rectangle" fill="url(#linearGradient-9)" x="72" y="20" width="7" height="7"></rect>
                <rect id="Rectangle" fill="url(#linearGradient-9)" x="21" y="73" width="7" height="7"></rect>
                <rect id="Rectangle" fill="url(#linearGradient-9)" x="72" y="73" width="7" height="7"></rect>
                <g id="Database" filter="url(#filter-10)" transform="translate(35.000000, 30.000000)" fill-rule="nonzero">
                    <g id="Group-2">
                        <g id="Icon-databases-133-Azure-Database-Migration-Services" filter="url(#filter-11)">
                            <path d="M15.0169492,9.78946646 C6.71186441,9.78946646 0,7.22092066 0,4.04081633 L0,34.6595131 C0,37.7988469 6.77966102,40.3673927 14.8135593,40.4081633 L15.0169492,40.4081633 C23.2881356,40.4081633 30,37.8396175 30,34.6595131 L30,4.04081633 C30,7.22092066 23.2881356,9.78946646 15.0169492,9.78946646 Z" id="Path" fill="url(#linearGradient-12)"></path>
                            <path d="M30,5.3877551 C30,8.36821537 23.220339,10.7755102 15.0169492,10.7755102 C6.81355932,10.7755102 0,8.36821537 0,5.3877551 C0,2.40729483 6.77966102,0 15.0169492,0 C23.2542373,0 30,2.40729483 30,5.3877551" id="Path" fill="#E8E8E8"></path>
                            <path d="M15.0163284,8.08163265 C8.90952168,8.08163265 3.91304348,6.85442177 3.91304348,5.3877551 C3.91304348,3.92108844 8.87686495,2.69387755 15.0163284,2.69387755 C21.1557918,2.69387755 26.0869565,3.89115646 26.0869565,5.3877551 C26.0869565,6.85442177 21.123135,8.08163265 15.0163284,8.08163265 Z" id="Path" fill="#0078D4"></path>
                            <path d="M4.14298335,5.83919258 C5.25378017,6.78620491 6.60165355,8.00729316 15,8.00379219 C19.6142255,8.08081352 23.2938762,7.56517069 25.7963777,6.01899238 C22.614155,5.02844387 18.3039573,4.58817233 15,4.66779643 C11.6957646,4.58219063 7.32413599,4.84277359 4.14298335,5.83919258 Z" id="Path" fill="#0060A9"></path>
                        </g>
                    </g>
                </g>
                <g id="Group" transform="translate(37.000000, 45.000000)" fill="url(#linearGradient-13)" fill-rule="nonzero">
                    <path d="M3.42896216,17.5397757 C2.74355739,17.5960383 2.05914065,17.4190217 1.47866026,17.0353524 C1.04143103,16.5509494 0.831556321,15.8904269 0.905042058,15.2300479 L0.905042058,10.5442208 C0.905042058,9.77431158 0.611859419,9.36280835 -3.52162743e-14,9.36280835 L-3.52162743e-14,8.19467016 C0.611859419,8.19467016 0.905042058,7.78316693 0.905042058,6.97343477 L0.905042058,2.36725348 C0.835540387,1.69524568 1.04415179,1.02421641 1.47866026,0.52212611 C2.05094308,0.118913342 2.74202173,-0.0598262584 3.42896216,0.0177027989 L3.42896216,1.19911529 C2.77886153,1.19911529 2.42194353,1.55752133 2.42194353,2.32743059 L2.42194353,6.84069179 C2.42194353,7.87608701 2.1287609,8.5132533 1.47866026,8.77873925 C2.15496619,9.15207345 2.53265138,9.92805649 2.42194353,10.7167867 L2.42194353,15.190225 C2.41003225,15.506473 2.4852221,15.819672 2.63864375,16.0928773 C2.83659216,16.2886005 3.10625178,16.3854325 3.37797388,16.3583632 L3.37797388,17.5397757 L3.42896216,17.5397757 Z" id="Path"></path>
                    <path d="M22.478752,0.0102269951 C23.1641567,-0.0460504454 23.8485735,0.131012905 24.4290539,0.514783602 C24.8662831,0.999314599 25.0761578,1.66001169 25.0026721,2.32056514 L25.0026721,7.00763046 C25.0026721,7.77774318 25.2958547,8.18935515 25.9077141,8.18935515 L25.9077141,9.35780203 C25.2958547,9.35780203 25.0026721,9.769414 25.0026721,10.5793601 L25.0026721,15.1336474 C25.0742607,15.8100861 24.8656142,16.4862356 24.4290539,16.9925402 C23.8623035,17.4109553 23.1704203,17.6040815 22.478752,17.5369302 L22.478752,16.3552055 C23.1288526,16.3552055 23.4857706,15.9967048 23.4857706,15.226592 L23.4857706,10.7121382 C23.4857706,9.67646936 23.7789532,9.0391347 24.4290539,8.77357859 C23.7527479,8.40014573 23.3750627,7.62395764 23.4857706,6.83501899 L23.4857706,2.36039856 C23.4976819,2.04406697 23.422492,1.7307852 23.2690704,1.45750779 C23.071122,1.26173285 22.8014623,1.16487523 22.5297402,1.19195168 L22.478752,0.0102269951 Z" id="Path"></path>
                </g>
                <g id="Dynamics-BC-01-2" transform="translate(43.000000, 47.000000)" fill="#FFFFFF" fill-rule="nonzero">
                    <path d="M6.91972152,1.01352185 C7.1575443,0.998281343 7.42124051,1.21501552 7.42407595,1.53630666 C7.42655696,1.81382565 7.19635443,2.05377501 6.93850633,2.06104084 C6.67463291,2.06830666 6.41572152,1.85228134 6.41855696,1.53223071 C6.42192405,1.19321805 6.70210127,0.998635773 6.91972152,1.01352185 L6.91972152,1.01352185 Z M1.40549367,6.48504044 C1.68372152,6.48504044 1.904,6.71861046 1.904,7.0131421 C1.904,7.29810413 1.67805063,7.53291425 1.40389873,7.53344629 C1.12921519,7.53380033 0.899544304,7.29438261 0.899189459,7.00711679 C0.898835443,6.71896489 1.12602532,6.48468641 1.40549367,6.48504044 Z M6.43255696,12.4114712 C6.43875949,12.3726611 6.44212658,12.3331421 6.45205063,12.2953953 C6.52577215,12.010256 6.80364557,11.8440282 7.0723038,11.9228889 C7.27326582,11.9819016 7.4235443,12.1763067 7.43612658,12.4141294 C7.44888608,12.6547877 7.31118987,12.8793193 7.07602532,12.9526864 C6.74232911,13.0567117 6.40792405,12.7715725 6.43255696,12.4114712 Z M9.17141772,9.13369906 L8.57455696,8.55438261 C8.35746835,8.75233198 8.11503797,8.90810413 7.84177215,9.01336995 C7.5821519,9.11331932 7.31437975,9.16754717 7.03473418,9.17463577 C6.62501266,9.18473704 6.23797468,9.10197755 5.87734177,8.90969906 C5.23440506,8.56678767 4.82486076,8.04045856 4.69832911,7.32043324 C4.58349367,6.66828134 4.75539241,6.07992691 5.17964557,5.57131932 C5.55356962,5.12331932 6.03825316,4.8629902 6.6115443,4.77136995 C7.26777215,4.66645856 7.8423038,4.85731932 8.34949367,5.27377501 C8.4256962,5.33633198 8.49782278,5.40402818 8.57810127,5.47509147 L9.09681013,4.88850919 C8.62665823,4.40825603 8.05974684,4.11443324 7.39359494,4.00119274 C7.392,3.98045856 7.38934177,3.96131932 7.38934177,3.94235729 C7.38916456,3.57658514 7.39005063,3.21081299 7.3884557,2.84504084 C7.3884557,2.80162312 7.40032911,2.78283831 7.4421519,2.76316742 C7.90929114,2.54306615 8.18237975,2.17995223 8.23731646,1.66177501 C8.30962025,0.979850963 7.84708861,0.363319318 7.18377215,0.22509147 C6.46374684,0.075167419 5.75010127,0.519977546 5.59592405,1.26605349 C5.46212658,1.91342058 5.80096203,2.52835729 6.41713924,2.7815978 C6.45860759,2.79861046 6.47420253,2.81863577 6.47402532,2.86276236 C6.47264589,3.22191715 6.47264589,3.58107592 6.47402532,3.94023071 C6.47402532,3.98347122 6.46232911,3.99977501 6.41696203,4.00757248 C6.09141772,4.06321805 5.78111392,4.16547122 5.49048101,4.32354717 C4.92197468,4.63296489 4.49134177,5.07547122 4.2023038,5.65602818 C4.04493671,5.97200286 3.96802532,6.27220539 3.92053165,6.55096489 L2.64989873,6.55096489 C2.51432911,6.20255982 2.28022785,5.94010413 1.93501266,5.78557248 C1.64686076,5.65673704 1.34772152,5.63423071 1.04220253,5.71504084 C0.461822785,5.86815476 0.00124050633,6.41628134 0.0545822785,7.11734463 C0.0981501405,7.72153007 0.546974781,8.21870653 1.14356962,8.32364843 C1.84888608,8.44752185 2.42288608,8.04063577 2.63643038,7.49569906 C2.65202532,7.49463577 2.66921519,7.49233198 2.68640506,7.49233198 C3.08088608,7.49233198 3.47518987,7.49304084 3.86967089,7.4914459 C3.91751899,7.49126868 3.93275949,7.50207881 3.94286076,7.55435729 C4.05556962,8.13633198 4.31146835,8.64547122 4.72136709,9.0769902 C5.06693671,9.44045856 5.47559494,9.70433198 5.95017722,9.86276236 C6.10081013,9.91309147 6.25853165,9.94250919 6.41377215,9.97795223 C6.45417722,9.9869902 6.47402532,9.99850919 6.4738481,10.0449396 C6.47207595,10.395294 6.47243038,10.7456484 6.4738481,11.0958256 C6.47420253,11.1383573 6.45701266,11.1559016 6.41962025,11.1723826 C5.95318987,11.3783067 5.6758481,11.7375218 5.59734177,12.2370915 C5.53496203,12.6349396 5.63810127,12.9991168 5.89329114,13.3142054 C6.11746835,13.59137 6.41075949,13.7517497 6.76253165,13.7974712 C7.28265823,13.864813 7.80632911,13.5977497 8.06931646,13.1435472 C8.19779747,12.9216737 8.26886076,12.6827877 8.25946835,12.42937 C8.23855696,11.8566105 7.9741519,11.4334206 7.44977215,11.1849649 C7.40653165,11.1644079 7.38774684,11.1434965 7.38810127,11.0931674 C7.39058228,10.7472434 7.39022785,10.4013193 7.38827848,10.0553953 C7.38810127,10.0048889 7.39891139,9.9857497 7.45437975,9.97618008 C7.98708861,9.88438261 8.4758481,9.68731932 8.90612658,9.35557248 C8.99455696,9.28734463 9.0778481,9.21238261 9.17141772,9.13369906 L9.17141772,9.13369906 Z" id="path14" transform="translate(4.610895, 7.001963) scale(-1, 1) rotate(-180.000000) translate(-4.610895, -7.001963) "></path>
                    <path d="M12.424557,6.47248423 C12.4513165,6.47514246 12.4872911,6.47407917 12.5206076,6.48311715 C12.8516456,6.57172474 13.0001519,6.94618044 12.8325063,7.26605385 C12.6990633,7.52035765 12.3962025,7.59620575 12.1597975,7.43440828 C11.9474937,7.28909183 11.8762532,6.97559816 12.0063291,6.73564879 C12.093519,6.5747374 12.2257215,6.47691461 12.424557,6.47248423 L12.424557,6.47248423 Z M6.45896203,6.99615512 C6.46534177,6.95078803 6.46853165,6.90471208 6.4784557,6.86023107 C6.55855696,6.50881335 6.95463291,6.35623107 7.2263038,6.57154752 C7.44268354,6.74344626 7.4876962,7.09309183 7.32022785,7.31850955 C7.20627848,7.47180069 7.05387342,7.5501298 6.86301266,7.51220575 C6.62093671,7.46418044 6.46374684,7.25311715 6.45896203,6.99615512 Z M13.687038,6.87635765 C13.6857975,6.60415512 13.5461519,6.26531968 13.2583544,5.99435765 C13.0602278,5.80775006 12.8227595,5.69964879 12.5491392,5.66650955 C11.9687595,5.59633234 11.438,5.95076271 11.2301266,6.47354752 C11.2118734,6.51926904 11.1891899,6.53025639 11.1438228,6.53007917 C10.1588608,6.52883866 9.17389873,6.52901588 8.18875949,6.53007917 C8.14534177,6.53007917 8.12620253,6.51856018 8.10812658,6.47567411 C7.93977215,6.07871208 7.65498734,5.80934499 7.23356962,5.69575006 C6.77351899,5.57169942 6.24736709,5.7522817 5.95301266,6.12638297 C5.75896203,6.37271208 5.6536962,6.65271208 5.64767089,6.96283866 C5.63526582,7.60435765 6.0538481,8.19696525 6.71237975,8.31392727 C7.30091139,8.41848423 7.83237975,8.10109183 8.0756962,7.59407917 C8.08508861,7.5745855 8.09448101,7.5547374 8.10316456,7.53453487 C8.14658228,7.43210449 8.14658228,7.43210449 8.25432911,7.43210449 C9.19959494,7.43210449 10.145038,7.43334499 11.0903038,7.42980069 C11.1728861,7.42944626 11.2069114,7.45656018 11.2373924,7.52939563 C11.4062785,7.93096525 11.6979747,8.2022817 12.1257722,8.29850955 C12.6352658,8.41281335 13.0614684,8.2524336 13.3921519,7.85192727 C13.5945316,7.60666145 13.6868608,7.31744626 13.687038,6.87635765 L13.687038,6.87635765 Z" id="path16" transform="translate(9.667220, 6.995685) scale(-1, 1) rotate(-180.000000) translate(-9.667220, -6.995685) "></path>
                </g>
                <line x1="48" y1="51" x2="48" y2="102" id="Line" stroke="#DFF3FE" stroke-linecap="square" stroke-dasharray="2,3" transform="translate(48.000000, 76.500000) rotate(-90.000000) translate(-48.000000, -76.500000) "></line>
                <line x1="50" y1="-2" x2="50" y2="49" id="Line" stroke="#DFF3FE" stroke-linecap="square" stroke-dasharray="2,3" transform="translate(50.000000, 23.500000) rotate(-90.000000) translate(-50.000000, -23.500000) "></line>
                <g id="Group-3" transform="translate(24.000000, 22.000000)" stroke="#DFF3FE" stroke-dasharray="2,3" stroke-linecap="square">
                    <line x1="51.5" y1="1.64285714" x2="51.5" y2="54.3571429" id="Line"></line>
                    <line x1="0.5" y1="0" x2="0.5" y2="52" id="Line"></line>
                </g>
                <g id="Group-4" transform="translate(65.000000, 27.000000)" fill="#E8FAFE">
                    <polygon id="Path-51" transform="translate(5.000000, 2.406070) rotate(45.000000) translate(-5.000000, -2.406070) " points="3 3.81214063 7 3.81214063 5 1"></polygon>
                    <rect id="Rectangle" transform="translate(3.000000, 4.500000) scale(1, -1) rotate(45.000000) translate(-3.000000, -4.500000) " x="0" y="4" width="6" height="1"></rect>
                </g>
                <g id="Group-4" transform="translate(31.000000, 30.500000) scale(-1, 1) translate(-31.000000, -30.500000) translate(27.000000, 27.000000)" fill="#E8FAFE">
                    <polygon id="Path-51" transform="translate(5.000000, 2.406070) rotate(45.000000) translate(-5.000000, -2.406070) " points="3 3.81214063 7 3.81214063 5 1"></polygon>
                    <rect id="Rectangle" transform="translate(3.000000, 4.500000) scale(1, -1) rotate(45.000000) translate(-3.000000, -4.500000) " x="0" y="4" width="6" height="1"></rect>
                </g>
                <g id="Group-4" transform="translate(69.000000, 70.500000) scale(1, -1) translate(-69.000000, -70.500000) translate(65.000000, 67.000000)" fill="#E8FAFE">
                    <polygon id="Path-51" transform="translate(5.000000, 2.406070) rotate(45.000000) translate(-5.000000, -2.406070) " points="3 3.81214063 7 3.81214063 5 1"></polygon>
                    <rect id="Rectangle" transform="translate(3.000000, 4.500000) scale(1, -1) rotate(45.000000) translate(-3.000000, -4.500000) " x="0" y="4" width="6" height="1"></rect>
                </g>
                <g id="Group-4" transform="translate(31.000000, 70.500000) scale(-1, -1) translate(-31.000000, -70.500000) translate(27.000000, 67.000000)" fill="#E8FAFE">
                    <polygon id="Path-51" transform="translate(5.000000, 2.406070) rotate(45.000000) translate(-5.000000, -2.406070) " points="3 3.81214063 7 3.81214063 5 1"></polygon>
                    <rect id="Rectangle" transform="translate(3.000000, 4.500000) scale(1, -1) rotate(45.000000) translate(-3.000000, -4.500000) " x="0" y="4" width="6" height="1"></rect>
                </g>
            </g>
        </g>
    </g>
</svg>