<?xml version="1.0" encoding="UTF-8"?>
<svg width="100px" height="100px" viewBox="0 0 100 100" version="1.1" xmlns="http://www.w3.org/2000/svg" xmlns:xlink="http://www.w3.org/1999/xlink">
    <!-- Generator: Sketch 55.2 (78181) - https://sketchapp.com -->
    <title>Purchase items and services in Microsoft Dynamics 365 Business Central/post-purchase-item-charges-in-dynamics-365-business-central</title>
    <desc>Created with Sketch.</desc>
    <defs>
        <rect id="path-1" x="0" y="0" width="96" height="96" rx="48"></rect>
        <path d="M60.024694,12.2138049 C76.7649359,21.878788 82.5005663,43.2844522 72.8355832,60.024694 C63.1706001,76.7649359 41.7649359,82.5005663 25.024694,72.8355832 C8.28445223,63.1706001 2.5488218,41.7649359 12.2138049,25.024694 C21.878788,8.28445223 43.2844522,2.5488218 60.024694,12.2138049 Z" id="path-3"></path>
        <filter x="-3.6%" y="-3.6%" width="107.1%" height="110.0%" filterUnits="objectBoundingBox" id="filter-4">
            <feMorphology radius="1.5" operator="dilate" in="SourceAlpha" result="shadowSpreadOuter1"></feMorphology>
            <feOffset dx="0" dy="2" in="shadowSpreadOuter1" result="shadowOffsetOuter1"></feOffset>
            <feMorphology radius="1.5" operator="erode" in="SourceAlpha" result="shadowInner"></feMorphology>
            <feOffset dx="0" dy="2" in="shadowInner" result="shadowInner"></feOffset>
            <feComposite in="shadowOffsetOuter1" in2="shadowInner" operator="out" result="shadowOffsetOuter1"></feComposite>
            <feColorMatrix values="0 0 0 0 0   0 0 0 0 0   0 0 0 0 0  0 0 0 0.1 0" type="matrix" in="shadowOffsetOuter1"></feColorMatrix>
        </filter>
        <filter x="-8.2%" y="-8.9%" width="116.3%" height="117.8%" filterUnits="objectBoundingBox" id="filter-5">
            <feOffset dx="0" dy="2" in="SourceAlpha" result="shadowOffsetOuter1"></feOffset>
            <feColorMatrix values="0 0 0 0 0   0 0 0 0 0   0 0 0 0 0  0 0 0 0.101398601 0" type="matrix" in="shadowOffsetOuter1" result="shadowMatrixOuter1"></feColorMatrix>
            <feMerge>
                <feMergeNode in="shadowMatrixOuter1"></feMergeNode>
                <feMergeNode in="SourceGraphic"></feMergeNode>
            </feMerge>
        </filter>
    </defs>
    <g id="Badges" stroke="none" stroke-width="1" fill="none" fill-rule="evenodd">
        <g id="Purchase-items-and-services-in-Microsoft-Dynamics-365-Business-Central" transform="translate(-50.000000, -660.000000)">
            <g id="Purchase-items-and-services-in-Microsoft-Dynamics-365-Business-Central/post-purchase-item-charges-in-dynamics-365-business-central" transform="translate(50.000000, 660.000000)">
                <g id="Mask" transform="translate(2.000000, 2.000000)">
                    <mask id="mask-2" fill="white">
                        <use xlink:href="#path-1"></use>
                    </mask>
                    <use id="BG" fill="#01B6C3" xlink:href="#path-1"></use>
                    <g id="Group" mask="url(#mask-2)" fill-rule="nonzero">
                        <g transform="translate(4.953498, 5.335488)">
                            <path d="M63.7834914,5.70337696 C84.1193433,17.4442865 91.0869207,43.4476395 79.3460111,63.7834914 C67.6051016,84.1193433 41.6017486,91.0869207 21.2658967,79.3460111 C0.930044823,67.6051016 -6.0375326,41.6017486 5.70337696,21.2658967 C17.4442865,0.930044823 43.4476395,-6.0375326 63.7834914,5.70337696 Z" id="Circle" fill="none"></path>
                            <g id="Circle" fill="none">
                                <use fill="black" fill-opacity="1" filter="url(#filter-4)" xlink:href="#path-3"></use>
                                <use stroke="#FFFFFF" stroke-width="3" xlink:href="#path-3"></use>
                            </g>
                            <polygon id="Rectangle" fill="#01B6C3" points="15.1267326 31.6647002 6.46647859 26.6647002 13.4664786 14.5403445 22.1267326 19.5403445"></polygon>
                            <path d="M22.3321119,19.7954448 C22.4608276,19.9173256 22.5548322,20.0712307 22.6044967,20.2413957 C22.7592314,20.7715614 22.4548844,21.3267828 21.9247188,21.4815174 L12.7130678,24.1700389 C12.5374548,24.2212935 12.3511467,24.2233926 12.1744235,24.1761077 C11.6409061,24.0333573 11.3241269,23.485134 11.4668772,22.9516167 L13.9028848,13.8472453 C13.9458997,13.686481 14.0283565,13.5389936 14.1427806,13.4181527 C14.5225123,13.0171261 15.1554419,12.9998632 15.5564685,13.3795948 L22.3321119,19.7954448 Z" id="Path-44" fill="#FFFFFF"></path>
                        </g>
                    </g>
                    <g id="Group-58" filter="url(#filter-5)" mask="url(#mask-2)">
                        <g transform="translate(23.613793, 23.900000)">
                            <path d="M44.2,39.6277865 L46.4862069,19.8139934 L2.2862069,19.8139934 L4.57241379,39.6277865 C4.57241379,42.1426141 6.62923793,44.2002003 9.14482759,44.2002003 L39.6275862,44.2002003 C42.1416517,44.2002003 44.2,42.1426141 44.2,39.6277865" id="Fill-60" fill="#EFB252"></path>
                            <path d="M9.78572759,18.0261796 C9.50528621,18.3462486 9.01298966,18.3790176 8.69215862,18.0993382 L6.36022759,16.0615658 C6.03939655,15.7811245 6.00662759,15.28959 6.28783103,14.9702831 L19.1728931,0.26311411 C19.4533345,-0.0569548557 19.945631,-0.0897238212 20.2664621,0.190717558 L22.5983931,2.22848997 C22.9192241,2.50816928 22.9519931,2.9989417 22.6715517,3.31901066 L9.78572759,18.0261796" id="Fill-61" fill="#30404D"></path>
                            <path d="M38.9866862,18.0261796 C39.2671276,18.3462486 39.7594241,18.3790176 40.0802552,18.0993382 L42.4121862,16.0615658 C42.7330172,15.7811245 42.7657862,15.28959 42.4853448,14.9702831 L29.5995207,0.26311411 C29.3190793,-0.0569548557 28.8267828,-0.0897238212 28.5059517,0.190717558 L26.1740207,2.22848997 C25.8531897,2.50816928 25.8204207,2.9989417 26.1008621,3.31901066 L38.9866862,18.0261796" id="Fill-62" fill="#30404D"></path>
                            <path d="M22.862069,37.3415796 L22.862069,28.9664417 C22.862069,28.958821 22.862069,28.958821 22.862069,28.958821 C22.862069,28.1174969 22.1807793,27.4346831 21.337931,27.4346831 C20.497369,27.4346831 19.8153172,28.1159727 19.8137931,28.958821 L19.8137931,37.3415796 C19.8137931,38.1874762 20.497369,38.8657176 21.337931,38.8657176 C22.1807793,38.8657176 22.862069,38.1874762 22.862069,37.3415796" id="Fill-63" fill="#CC9547"></path>
                            <path d="M20.5758621,38.1036486 L20.5758621,29.72089 C20.5773862,28.8749934 21.2586759,28.196752 22.1,28.196752 C22.3232862,28.196752 22.5336172,28.2500969 22.7248966,28.3339245 C22.486369,27.8050486 21.956731,27.4346831 21.337931,27.4346831 C20.497369,27.4346831 19.8153172,28.1167348 19.8137931,28.958821 L19.8137931,37.3415796 C19.8137931,37.9588555 20.1841586,38.4923038 20.7130345,38.7285451 C20.6269207,38.5380279 20.5758621,38.3246486 20.5758621,38.1036486" id="Fill-64" fill="#BB8A43"></path>
                            <path d="M35.0551724,37.3415796 L35.0551724,28.9664417 C35.0551724,28.958821 35.0551724,28.958821 35.0551724,28.958821 C35.0551724,28.1174969 34.3731207,27.4346831 33.5310345,27.4346831 C32.6897103,27.4346831 32.0084207,28.1159727 32.0068966,28.958821 L32.0068966,37.3415796 C32.0068966,38.1874762 32.6897103,38.8657176 33.5310345,38.8657176 C34.3731207,38.8657176 35.0551724,38.1874762 35.0551724,37.3415796" id="Fill-65" fill="#CC9547"></path>
                            <path d="M28.9586207,37.3415796 L28.9586207,28.9664417 C28.9586207,28.958821 28.9586207,28.958821 28.9586207,28.958821 C28.9586207,28.1174969 28.276569,27.4346831 27.4344828,27.4346831 C26.5931586,27.4346831 25.911869,28.1159727 25.9103448,28.958821 L25.9103448,37.3415796 C25.9103448,38.1874762 26.5931586,38.8657176 27.4344828,38.8657176 C28.276569,38.8657176 28.9586207,38.1874762 28.9586207,37.3415796" id="Fill-66" fill="#CC9547"></path>
                            <path d="M16.7655172,37.3415796 L16.7655172,28.9664417 C16.7655172,28.958821 16.7655172,28.958821 16.7655172,28.958821 C16.7655172,28.1174969 16.0834655,27.4346831 15.2413793,27.4346831 C14.4000552,27.4346831 13.7187655,28.1159727 13.7172414,28.958821 L13.7172414,37.3415796 C13.7172414,38.1874762 14.4000552,38.8657176 15.2413793,38.8657176 C16.0834655,38.8657176 16.7655172,38.1874762 16.7655172,37.3415796" id="Fill-67" fill="#CC9547"></path>
                            <path d="M48.7724138,20.5760624 C48.7724138,21.4143382 48.0865517,22.1002003 47.2482759,22.1002003 L1.52413793,22.1002003 C0.685862069,22.1002003 0,21.4143382 0,20.5760624 L0,14.4795107 C0,13.6404727 0.685862069,12.9553727 1.52413793,12.9553727 L47.2482759,12.9553727 C48.0865517,12.9553727 48.7724138,13.6404727 48.7724138,14.4795107 L48.7724138,20.5760624" id="Fill-68" fill="#EFB252"></path>
                            <path d="M9.52586207,17.5277865 C9.52586207,18.3683486 8.84304828,19.0519245 8.00172414,19.0519245 C7.1604,19.0519245 6.47758621,18.3683486 6.47758621,17.5277865 C6.47758621,16.6849382 7.1604,16.0036486 8.00172414,16.0036486 C8.84304828,16.0036486 9.52586207,16.6849382 9.52586207,17.5277865" id="Fill-69" fill="#30404D"></path>
                            <path d="M46.222531,22.1002003 L2.54988276,22.1002003 L2.57045862,22.2747141 C2.65885862,23.0436417 3.31042759,23.6243382 4.08392759,23.6243382 L22.862069,23.6243382 C23.7041552,23.6243382 24.3862069,24.30639 24.3862069,25.1484762 L24.3862069,41.1519245 C24.3862069,41.9902003 23.7041552,42.6760624 22.862069,42.6760624 L5.75057241,42.6760624 C6.58884828,43.6057865 7.79977586,44.2002003 9.14482759,44.2002003 L39.6275862,44.2002003 C42.1416517,44.2002003 44.2,42.1426141 44.2,39.6277865 L46.222531,22.1002003" id="Fill-70" fill="#CC9547"></path>
                            <path d="M22.862069,19.8139934 L0,19.8139934 L0,20.5760624 C0,21.4143382 0.685862069,22.1002003 1.52413793,22.1002003 L47.2482759,22.1002003 C48.0865517,22.1002003 48.7724138,21.4143382 48.7724138,20.5760624 L48.7724138,14.4795107 L25.9103448,14.4795107 C25.0682586,14.4795107 24.3862069,15.1615624 24.3862069,16.0036486 L24.3862069,18.2898555 C24.3862069,19.1319417 23.7041552,19.8139934 22.862069,19.8139934" id="Fill-71" fill="#CC9547"></path>
                            <path d="M14.4793103,38.1036486 L14.4793103,29.72089 C14.4808345,28.8749934 15.1621241,28.196752 16.0034483,28.196752 C16.2267345,28.196752 16.4370655,28.2500969 16.6283448,28.3339245 C16.3890552,27.8050486 15.8601793,27.4346831 15.2413793,27.4346831 C14.4000552,27.4346831 13.7187655,28.1167348 13.7172414,28.958821 L13.7172414,37.3415796 C13.7172414,37.9588555 14.0876069,38.4923038 14.6164828,38.7285451 C14.530369,38.5380279 14.4793103,38.3246486 14.4793103,38.1036486" id="Fill-72" fill="#BB8A43"></path>
                            <path d="M26.6724138,38.1036486 L26.6724138,29.72089 C26.6739379,28.8749934 27.3559897,28.196752 28.1965517,28.196752 C28.4198379,28.196752 28.630169,28.2500969 28.8214483,28.3339245 C28.5829207,27.8050486 28.0532828,27.4346831 27.4344828,27.4346831 C26.5931586,27.4346831 25.911869,28.1167348 25.9103448,28.958821 L25.9103448,37.3415796 C25.9103448,37.9588555 26.2807103,38.4923038 26.8095862,38.7285451 C26.7227103,38.5380279 26.6724138,38.3246486 26.6724138,38.1036486" id="Fill-73" fill="#BB8A43"></path>
                            <path d="M32.7689655,38.1036486 L32.7689655,29.72089 C32.7704897,28.8749934 33.4517793,28.196752 34.2931034,28.196752 C34.5163897,28.196752 34.7267207,28.2500969 34.918,28.3339245 C34.6787103,27.8050486 34.1498345,27.4346831 33.5310345,27.4346831 C32.6897103,27.4346831 32.0084207,28.1167348 32.0068966,28.958821 L32.0068966,37.3415796 C32.0068966,37.9588555 32.3772621,38.4923038 32.9061379,38.7285451 C32.8200241,38.5380279 32.7689655,38.3246486 32.7689655,38.1036486" id="Fill-74" fill="#BB8A43"></path>
                            <path d="M41.5327586,17.5277865 C41.5327586,18.3683486 40.8499448,19.0519245 40.0086207,19.0519245 C39.1672966,19.0519245 38.4844828,18.3683486 38.4844828,17.5277865 C38.4844828,16.6849382 39.1672966,16.0036486 40.0086207,16.0036486 C40.8499448,16.0036486 41.5327586,16.6849382 41.5327586,17.5277865" id="Fill-75" fill="#30404D"></path>
                            <polyline id="Fill-76" fill="#182A37" points="40.719631 12.9553727 39.3844862 11.4312348 33.2086793 11.4312348 34.5438241 12.9553727 40.719631 12.9553727"></polyline>
                            <polyline id="Fill-77" fill="#182A37" points="8.05278276 12.9553727 9.38792759 11.4312348 15.5637345 11.4312348 14.2285897 12.9553727 8.05278276 12.9553727"></polyline>
                        </g>
                    </g>
                </g>
                <g id="Dynamic-Border" stroke="#1D8E96" stroke-width="4">
                    <rect id="Azure-Border" x="2" y="2" width="96" height="96" rx="48"></rect>
                </g>
            </g>
        </g>
    </g>
</svg>