<?xml version="1.0" encoding="UTF-8"?>
<svg width="100px" height="118px" viewBox="0 0 100 118" version="1.1" xmlns="http://www.w3.org/2000/svg" xmlns:xlink="http://www.w3.org/1999/xlink">
    <!-- Generator: Sketch 55.2 (78181) - https://sketchapp.com -->
    <title>Process financial periodic activities in Microsoft Dynamics 365 Business Central/process-financial-periodic-activities-in-microsoft-dynamics-365-business-central</title>
    <desc>Created with Sketch.</desc>
    <defs>
        <path d="M42.7425,1.49663266 C44.3745,0.498877554 46.1865,0 48,0 C49.8135,0 51.627,0.498877554 53.256,1.49663266 L90.591,24.3316189 C93.933,26.3773408 96,30.2031485 96,34.3529027 L96,79.6470973 C96,83.7952317 93.933,87.6242789 90.591,89.6683811 L53.256,112.504987 C51.627,113.501122 49.8135,114 48,114 C46.1865,114 44.3745,113.501122 42.7425,112.504987 L5.409,89.6683811 C2.0655,87.6242789 0,83.7952317 0,79.6470973 L0,34.3529027 C0,30.2031485 2.0655,26.3773408 5.409,24.3316189 L42.7425,1.49663266 Z" id="path-1"></path>
        <filter x="-6.2%" y="-7.1%" width="112.3%" height="114.3%" filterUnits="objectBoundingBox" id="filter-3">
            <feOffset dx="0" dy="2" in="SourceAlpha" result="shadowOffsetOuter1"></feOffset>
            <feColorMatrix values="0 0 0 0 0   0 0 0 0 0   0 0 0 0 0  0 0 0 0.103665865 0" type="matrix" in="shadowOffsetOuter1" result="shadowMatrixOuter1"></feColorMatrix>
            <feMerge>
                <feMergeNode in="shadowMatrixOuter1"></feMergeNode>
                <feMergeNode in="SourceGraphic"></feMergeNode>
            </feMerge>
        </filter>
    </defs>
    <g id="Badges" stroke="none" stroke-width="1" fill="none" fill-rule="evenodd">
        <g id="Process-financial-periodic-activities-in-Microsoft-Dynamics-365-Business-Central" transform="translate(-50.000000, -50.000000)">
            <g id="Process-financial-periodic-activities-in-Microsoft-Dynamics-365-Business-Central/process-financial-periodic-activities-in-microsoft-dynamics-365-business-central" transform="translate(50.000000, 50.000000)">
                <g id="Mask" transform="translate(2.000000, 2.000000)">
                    <mask id="mask-2" fill="white">
                        <use xlink:href="#path-1"></use>
                    </mask>
                    <use id="Trophy-1" fill="#01B6C3" xlink:href="#path-1"></use>
                    <g id="Group-56" filter="url(#filter-3)" mask="url(#mask-2)">
                        <g transform="translate(15.500000, 32.500000)">
                            <path d="M34,43 C34,33.612 41.611,26 51,26 C56.219,26 60.883,28.357 64.001,32.058 L64.001,4 C64.001,1.8 62.201,0 60.001,0 L4.001,0 C1.801,0 0.001,1.8 0.001,4 L0.001,42 C0.001,44.2 1.801,46 4.001,46 L34.28,46 C34.106,45.025 34,44.025 34,43" id="Fill-105" fill="#E1E4E1"></path>
                            <polyline id="Fill-106" fill="#C5CCCD" points="25.001 46 17.001 46 39.001 0 47.001 0 25.001 46"></polyline>
                            <path d="M34,43 C34,33.612 41.611,26 51,26 C56.219,26 60.883,28.357 64.001,32.058 L64.001,4 C64.001,1.8 62.201,0 60.001,0 L52.001,0 L30.001,46 L34.28,46 C34.106,45.025 34,44.025 34,43" id="Fill-107" fill="#C5CCCD"></path>
                            <path d="M64,43 C64,50.179 58.18,56 51,56 C43.82,56 38,50.179 38,43 C38,35.821 43.82,30 51,30 C58.18,30 64,35.821 64,43" id="Fill-108" fill="#7CB65A"></path>
                            <g id="Group-3" stroke-width="1" fill="none" transform="translate(41.395308, 35.500000)">
                                <path d="M5.78963086,6.02494872 C5.50603226,5.73383362 5.03975269,5.72717126 4.74863759,6.01160265 L3.82859173,6.90745477 C3.80940756,6.93664956 3.76019367,6.98169307 3.70347181,7.03007203 C3.87780562,4.2299603 5.9556474,1.93187424 8.76664952,1.50394593 C10.9378946,1.17279262 13.111702,2.05613146 14.4403297,3.80950578 C14.5863016,4.00135604 14.8240345,4.0981225 15.0625982,4.06141548 C15.1693667,4.04556676 15.2719649,4.0021931 15.35871,3.93629556 C15.5505603,3.79032375 15.6473267,3.55259078 15.6114525,3.31485995 C15.5947689,3.20725648 15.5513952,3.10549325 15.4854998,3.01791529 C13.8672945,0.881690334 11.2173206,-0.195177162 8.56967438,0.208621457 C5.11293612,0.734947652 2.55967325,3.57674182 2.38457285,7.02920934 C2.36538654,7.00919024 2.34953995,6.99000607 2.34203199,6.97499014 L1.36108535,5.96820551 C1.07748675,5.67792321 0.610373963,5.67126085 0.320091656,5.95485945 C0.0289765547,6.23845804 0.0231469924,6.70557041 0.306745589,6.99668551 L2.4920845,9.239679 C2.64055896,9.39232385 2.83991505,9.46656215 3.03760768,9.46156538 C3.21694466,9.457395 3.39462032,9.38816201 3.53307776,9.25219868 L5.77607125,7.0668602 C6.06718636,6.7832616 6.07301592,6.31614924 5.78941732,6.02503414 L5.78963086,6.02494872 Z M3.06276234,8.01601117 C3.0711031,8.01601117 3.08027879,8.01517624 3.08861955,8.01434344 C3.08027879,8.02435192 3.0719359,8.02435192 3.06276234,8.01601117 Z" id="Fill-1" fill="#FFFFFF"></path>
                                <path d="M18.9112709,7.98671388 L16.7267866,5.74372039 C16.5783121,5.59107554 16.378956,5.51683724 16.1812634,5.52183401 C16.0019264,5.52600439 15.823418,5.59607231 15.6857933,5.73120071 L13.4419457,7.91568504 C13.1508306,8.20011643 13.1441682,8.666396 13.4285996,8.9575111 C13.7121982,9.24779341 14.1784778,9.25528856 14.4695929,8.97085717 L15.3896387,8.07500506 C15.407988,8.04747799 15.4513638,8.00743979 15.5030803,7.96323121 C15.3095623,10.7426298 13.2385196,13.018081 10.442465,13.444301 C8.27122001,13.7754543 6.09655838,12.8921154 4.76878482,11.1387411 C4.622813,10.9468909 4.38508004,10.8501244 4.1473492,10.8868314 C4.04058066,10.9026802 3.9379825,10.9460538 3.85123734,11.0119514 C3.65938708,11.1570904 3.56262062,11.3956561 3.59932764,11.633387 C3.61600916,11.7401555 3.65938495,11.8427537 3.72528035,11.9294988 C5.3443185,14.0657238 7.99345951,15.1425913 10.6411058,14.7387927 C14.0886619,14.2132993 16.6367999,11.3830574 16.8227907,7.94148032 C16.8469802,7.9656698 16.8678342,7.98985928 16.8770099,8.00737573 L17.8579566,9.01416035 C18.1415551,9.30444266 18.6086675,9.31110502 18.8989498,9.02750642 C19.1900649,8.74474062 19.1958945,8.27846105 18.911461,7.98651315 L18.9112709,7.98671388 Z" id="Fill-2" fill="#FFFFFF"></path>
                            </g>
                            <path d="M36.299,34.49 C35.949,34.189 35.499,34 35.001,34 L10,34 C8.896,34 8.001,34.894 8.001,36 C8.001,37.103 8.896,38 10,38 L34.75,38 C35.131,36.761 35.661,35.59 36.299,34.49" id="Fill-109" fill="#6E828F"></path>
                            <polygon id="Fill-111" fill="#182A37" points="0 20 64 20 64 8 0 8"></polygon>
                        </g>
                    </g>
                </g>
                <g id="Dynamic-Hex" stroke="#1D8E96" stroke-width="4">
                    <path d="M45.5618501,3.25844398 L45.5621963,3.25823359 L6.67338401,26.8942953 C3.79673288,28.6432593 2,31.9508238 2,35.5582677 L2,82.4417323 C2,86.0486597 3.79764663,89.3586805 6.67318764,91.1055853 L45.560618,114.742485 C46.9289662,115.572418 48.4546283,116 50,116 C51.5458817,116 53.0723633,115.572188 54.4362178,114.743457 L93.3268764,91.1055464 C96.2016145,89.3583456 98,86.0476286 98,82.4417323 L98,35.5582677 C98,31.9518547 96.202529,28.6435953 93.3268966,26.8944659 L54.4351916,3.25759524 C53.0721095,2.42798656 51.5462432,2 50,2 C48.4542664,2 46.9292165,2.42775755 45.5618501,3.25844398 Z" id="Azure-Hex-Border"></path>
                </g>
            </g>
        </g>
    </g>
</svg>