<?xml version="1.0" encoding="UTF-8"?>
<svg width="100px" height="118px" viewBox="0 0 100 118" version="1.1" xmlns="http://www.w3.org/2000/svg" xmlns:xlink="http://www.w3.org/1999/xlink">
    <!-- Generator: Sketch 55.2 (78181) - https://sketchapp.com -->
    <title>Purchase items and services in Microsoft Dynamics 365 Business Central/purchase-items-and-services-in-microsoft-dynamics-365-business-central</title>
    <desc>Created with Sketch.</desc>
    <defs>
        <path d="M42.7425,1.49663266 C44.3745,0.498877554 46.1865,0 48,0 C49.8135,0 51.627,0.498877554 53.256,1.49663266 L90.591,24.3316189 C93.933,26.3773408 96,30.2031485 96,34.3529027 L96,79.6470973 C96,83.7952317 93.933,87.6242789 90.591,89.6683811 L53.256,112.504987 C51.627,113.501122 49.8135,114 48,114 C46.1865,114 44.3745,113.501122 42.7425,112.504987 L5.409,89.6683811 C2.0655,87.6242789 0,83.7952317 0,79.6470973 L0,34.3529027 C0,30.2031485 2.0655,26.3773408 5.409,24.3316189 L42.7425,1.49663266 Z" id="path-1"></path>
        <filter x="-6.2%" y="-6.9%" width="112.5%" height="113.8%" filterUnits="objectBoundingBox" id="filter-3">
            <feOffset dx="0" dy="2" in="SourceAlpha" result="shadowOffsetOuter1"></feOffset>
            <feColorMatrix values="0 0 0 0 0   0 0 0 0 0   0 0 0 0 0  0 0 0 0.104895105 0" type="matrix" in="shadowOffsetOuter1" result="shadowMatrixOuter1"></feColorMatrix>
            <feMerge>
                <feMergeNode in="shadowMatrixOuter1"></feMergeNode>
                <feMergeNode in="SourceGraphic"></feMergeNode>
            </feMerge>
        </filter>
    </defs>
    <g id="Badges" stroke="none" stroke-width="1" fill="none" fill-rule="evenodd">
        <g id="Purchase-items-and-services-in-Microsoft-Dynamics-365-Business-Central" transform="translate(-50.000000, -50.000000)">
            <g id="Purchase-items-and-services-in-Microsoft-Dynamics-365-Business-Central/purchase-items-and-services-in-microsoft-dynamics-365-business-central" transform="translate(50.000000, 50.000000)">
                <g id="Mask" transform="translate(2.000000, 2.000000)">
                    <mask id="mask-2" fill="white">
                        <use xlink:href="#path-1"></use>
                    </mask>
                    <use id="Trophy-1" fill="#01B6C3" xlink:href="#path-1"></use>
                    <g id="Group-44" filter="url(#filter-3)" mask="url(#mask-2)">
                        <g transform="translate(16.000000, 28.000000)">
                            <path d="M29,4 L13,4 C11.895,4 11,4.894 11,6 L11,17 L31,17 L31,6 C31,4.894 30.104,4 29,4" id="Fill-78" fill="#0095B2"></path>
                            <path d="M21,8 L21,13 C21,14.105 20.105,15 19,15 L11,15 L11,17 L26,17 L26,15 L31,15 L31,6 L23,6 C21.895,6 21,6.895 21,8" id="Fill-79" fill="#008AA5"></path>
                            <path d="M58,52 L61,26 L3,26 L6,52 C6,55.3 8.699,58 12,58 L52,58 C55.299,58 58,55.3 58,52" id="Fill-80" fill="#EFB252"></path>
                            <path d="M30,49 L30,38.01 C30,38 30,38 30,38 C30,36.896 29.105,36 28,36 C26.896,36 26.002,36.894 26,38 L26,49 C26,50.11 26.896,51 28,51 C29.105,51 30,50.11 30,49" id="Fill-81" fill="#CC9547"></path>
                            <path d="M46,49 L46,38.01 C46,38 46,38 46,38 C46,36.896 45.105,36 44,36 C42.896,36 42.002,36.894 42,38 L42,49 C42,50.11 42.896,51 44,51 C45.105,51 46,50.11 46,49" id="Fill-82" fill="#CC9547"></path>
                            <path d="M38,49 L38,38.01 C38,38 38,38 38,38 C38,36.896 37.105,36 36,36 C34.896,36 34.002,36.894 34,38 L34,49 C34,50.11 34.896,51 36,51 C37.105,51 38,50.11 38,49" id="Fill-83" fill="#CC9547"></path>
                            <path d="M22,49 L22,38.01 C22,38 22,38 22,38 C22,36.896 21.105,36 20,36 C18.896,36 18.002,36.894 18,38 L18,49 C18,50.11 18.896,51 20,51 C21.105,51 22,50.11 22,49" id="Fill-84" fill="#CC9547"></path>
                            <path d="M64,27 C64,28.1 63.1,29 62,29 L2,29 C0.9,29 0,28.1 0,27 L0,19 C0,17.899 0.9,17 2,17 L62,17 C63.1,17 64,17.899 64,19 L64,27" id="Fill-85" fill="#EFB252"></path>
                            <path d="M12.5,23 C12.5,24.103 11.604,25 10.5,25 C9.395,25 8.5,24.103 8.5,23 C8.5,21.894 9.395,21 10.5,21 C11.604,21 12.5,21.894 12.5,23" id="Fill-86" fill="#30404D"></path>
                            <path d="M51,0 L43,0 C41.895,0 41,0.894 41,2 L41,17 L53,17 L53,2 C53,0.894 52.104,0 51,0" id="Fill-87" fill="#DF5142"></path>
                            <path d="M41,6 L28,6 C26.895,6 26,6.894 26,8 L26,17 L43,17 L43,8 C43,6.894 42.104,6 41,6" id="Fill-88" fill="#7CB65A"></path>
                            <path d="M27,50 L27,39 C27.002,37.89 27.896,37 29,37 C29.293,37 29.569,37.07 29.82,37.18 C29.506,36.486 28.812,36 28,36 C26.896,36 26.002,36.895 26,38 L26,49 C26,49.81 26.486,50.51 27.18,50.82 C27.066,50.57 27,50.29 27,50" id="Fill-89" fill="#BB8A43"></path>
                            <path d="M60.654,29 L3.346,29 L3.373,29.229 C3.489,30.238 4.344,31 5.359,31 L30,31 C31.105,31 32,31.895 32,33 L32,54 C32,55.1 31.105,56 30,56 L7.546,56 C8.646,57.22 10.235,58 12,58 L52,58 C55.299,58 58,55.3 58,52 L60.654,29" id="Fill-90" fill="#CC9547"></path>
                            <path d="M30,26 L0,26 L0,27 C0,28.1 0.9,29 2,29 L62,29 C63.1,29 64,28.1 64,27 L64,19 L34,19 C32.895,19 32,19.895 32,21 L32,24 C32,25.105 31.105,26 30,26" id="Fill-91" fill="#CC9547"></path>
                            <path d="M19,50 L19,39 C19.002,37.89 19.896,37 21,37 C21.293,37 21.569,37.07 21.82,37.18 C21.506,36.486 20.812,36 20,36 C18.896,36 18.002,36.895 18,38 L18,49 C18,49.81 18.486,50.51 19.18,50.82 C19.066,50.57 19,50.29 19,50" id="Fill-92" fill="#BB8A43"></path>
                            <path d="M35,50 L35,39 C35.002,37.89 35.896,37 37,37 C37.293,37 37.569,37.07 37.82,37.18 C37.506,36.486 36.812,36 36,36 C34.896,36 34.002,36.895 34,38 L34,49 C34,49.81 34.486,50.51 35.18,50.82 C35.066,50.57 35,50.29 35,50" id="Fill-93" fill="#BB8A43"></path>
                            <path d="M43,50 L43,39 C43.002,37.89 43.896,37 45,37 C45.293,37 45.569,37.07 45.82,37.18 C45.506,36.486 44.812,36 44,36 C42.896,36 42.002,36.895 42,38 L42,49 C42,49.81 42.486,50.51 43.18,50.82 C43.066,50.57 43,50.29 43,50" id="Fill-94" fill="#BB8A43"></path>
                            <path d="M54.5,23 C54.5,24.103 53.604,25 52.5,25 C51.395,25 50.5,24.103 50.5,23 C50.5,21.894 51.395,21 52.5,21 C53.604,21 54.5,21.894 54.5,23" id="Fill-95" fill="#30404D"></path>
                            <path d="M35,10 L35,13 C35,14.105 34.105,15 33,15 L26,15 L26,17 L43,17 L43,8 L37,8 C35.895,8 35,8.895 35,10" id="Fill-96" fill="#69994E"></path>
                            <path d="M47,4 L47,13 C47,14.105 46.105,15 45,15 L43,15 L43,17 L53,17 L53,2 L49,2 C47.895,2 47,2.895 47,4" id="Fill-97" fill="#C2423D"></path>
                        </g>
                    </g>
                </g>
                <g id="Dynamic-Hex" stroke="#1D8E96" stroke-width="4">
                    <path d="M45.5618501,3.25844398 L45.5621963,3.25823359 L6.67338401,26.8942953 C3.79673288,28.6432593 2,31.9508238 2,35.5582677 L2,82.4417323 C2,86.0486597 3.79764663,89.3586805 6.67318764,91.1055853 L45.560618,114.742485 C46.9289662,115.572418 48.4546283,116 50,116 C51.5458817,116 53.0723633,115.572188 54.4362178,114.743457 L93.3268764,91.1055464 C96.2016145,89.3583456 98,86.0476286 98,82.4417323 L98,35.5582677 C98,31.9518547 96.202529,28.6435953 93.3268966,26.8944659 L54.4351916,3.25759524 C53.0721095,2.42798656 51.5462432,2 50,2 C48.4542664,2 46.9292165,2.42775755 45.5618501,3.25844398 Z" id="Azure-Hex-Border"></path>
                </g>
            </g>
        </g>
    </g>
</svg>