<?xml version="1.0" encoding="UTF-8"?>
<svg width="100px" height="100px" viewBox="0 0 100 100" version="1.1" xmlns="http://www.w3.org/2000/svg" xmlns:xlink="http://www.w3.org/1999/xlink">
    <!-- Generator: Sketch 55.2 (78181) - https://sketchapp.com -->
    <title>Process VAT in Microsoft Dynamics 365 Business Central/perform-a-vat-rate-change-in-dynamics-365-business-central</title>
    <desc>Created with Sketch.</desc>
    <defs>
        <rect id="path-1" x="0" y="0" width="96" height="96" rx="48"></rect>
        <filter x="-4.8%" y="-4.8%" width="109.6%" height="109.6%" filterUnits="objectBoundingBox" id="filter-3">
            <feOffset dx="0" dy="2" in="SourceAlpha" result="shadowOffsetOuter1"></feOffset>
            <feColorMatrix values="0 0 0 0 0   0 0 0 0 0   0 0 0 0 0  0 0 0 0.1 0" type="matrix" in="shadowOffsetOuter1" result="shadowMatrixOuter1"></feColorMatrix>
            <feMerge>
                <feMergeNode in="shadowMatrixOuter1"></feMergeNode>
                <feMergeNode in="SourceGraphic"></feMergeNode>
            </feMerge>
        </filter>
        <path d="M19.0276091,16.4041746 C19.0276091,16.7199257 19.0374762,17.0850074 19.0572106,17.4994307 C19.0769451,17.9138541 19.1460146,18.3036035 19.2644213,18.6686907 C19.3828279,19.0337779 19.5703023,19.3445907 19.8268501,19.6011385 C20.0833979,19.8576863 20.4484796,19.9859583 20.9221063,19.9859583 C21.3759985,19.9859583 21.7361467,19.8576863 22.0025617,19.6011385 C22.2689767,19.3445907 22.4663181,19.0337779 22.594592,18.6686907 C22.7228659,18.3036035 22.8018025,17.9187876 22.8314042,17.5142315 C22.8610058,17.1096754 22.8758065,16.7495272 22.8758065,16.4337761 C22.8758065,16.1377594 22.8610058,15.7874783 22.8314042,15.3829222 C22.8018025,14.9783661 22.7277995,14.5935502 22.6093928,14.228463 C22.4909861,13.8633758 22.3084453,13.5476294 22.0617647,13.2812144 C21.8150842,13.0147994 21.4746701,12.8815939 21.0405123,12.8815939 C20.5668857,12.8815939 20.1968704,12.9999988 19.9304554,13.2368121 C19.6640404,13.4736255 19.4617654,13.7696377 19.3236243,14.1248577 C19.1854832,14.4800777 19.1016131,14.8648936 19.0720114,15.2793169 C19.0424097,15.6937402 19.0276091,16.068689 19.0276091,16.4041746 Z M16.0082543,16.3745731 C16.0082543,15.5654609 16.106925,14.8155632 16.3042694,14.1248577 C16.5016129,13.4341521 16.8074932,12.8322606 17.2219165,12.3191651 C17.6363398,11.8060695 18.1592948,11.4015195 18.790797,11.1055028 C19.4222992,10.8094862 20.1721968,10.6614801 21.0405123,10.6614801 C21.9680312,10.6614801 22.737663,10.8144197 23.3494307,11.1203036 C23.9611985,11.4261875 24.4594857,11.8406046 24.8443074,12.3635674 C25.2291291,12.8865301 25.5004736,13.5032223 25.6583491,14.2136622 C25.8162247,14.9241022 25.8951613,15.6838669 25.8951613,16.4929791 C25.8951613,17.3020913 25.7964906,18.051989 25.5991461,18.7426945 C25.4018017,19.4334 25.1008559,20.0352941 24.6962998,20.5483871 C24.2917437,21.0614826 23.7737223,21.4610991 23.1422201,21.7472486 C22.5107179,22.033398 21.7608203,22.1764706 20.8925047,22.1764706 C19.9847203,22.1764706 19.2200221,22.0284645 18.5983871,21.7324478 C17.9767521,21.4364312 17.4735313,21.0269476 17.0887097,20.5039848 C16.703888,19.9810221 16.4276099,19.3643299 16.2598672,18.6538899 C16.0921244,17.94345 16.0082543,17.1836853 16.0082543,16.3745731 Z M18.2875712,0.419354839 L20.8037002,0.419354839 L8.60787476,22.4132827 L6.03254269,22.4132827 L18.2875712,0.419354839 Z M3.75322581,6.57647059 C3.75322581,6.89222169 3.76309288,7.24743636 3.78282732,7.64212524 C3.80256177,8.03681412 3.87163129,8.40682939 3.99003795,8.75218216 C4.10844461,9.09753493 4.29591902,9.38861362 4.55246679,9.62542694 C4.80901457,9.86224027 5.1740963,9.98064516 5.64772296,9.98064516 C6.10161517,9.98064516 6.46176337,9.86224027 6.72817837,9.62542694 C6.99459336,9.38861362 7.19193484,9.09753493 7.32020873,8.75218216 C7.44848261,8.40682939 7.52741921,8.04174765 7.55702087,7.656926 C7.58662254,7.27210434 7.60142315,6.92182321 7.60142315,6.60607211 C7.60142315,6.31005545 7.58662254,5.94990724 7.55702087,5.5256167 C7.52741921,5.10132615 7.45341615,4.69184258 7.33500949,4.2971537 C7.21660282,3.90246482 7.03406195,3.5669843 6.7873814,3.29070209 C6.54070085,3.01441987 6.2002868,2.87628083 5.76612903,2.87628083 C5.29250238,2.87628083 4.9224871,3.0045528 4.65607211,3.26110057 C4.38965711,3.51764834 4.18738209,3.83339471 4.04924099,4.20834915 C3.91109988,4.58330358 3.82722975,4.98785362 3.79762808,5.42201139 C3.76802642,5.85616915 3.75322581,6.24098504 3.75322581,6.57647059 Z M0.733870968,6.51726755 C0.733870968,5.70815535 0.832541708,4.94839065 1.02988615,4.23795066 C1.2272296,3.52751068 1.53310988,2.90588502 1.94753321,2.37305503 C2.36195653,1.84022504 2.88491145,1.42087439 3.51641366,1.11499051 C4.14791587,0.80910663 4.8978135,0.656166983 5.76612903,0.656166983 C6.6936479,0.656166983 7.46327967,0.814040167 8.07504744,1.12979127 C8.6868152,1.44554238 9.18510244,1.87476009 9.5699241,2.41745731 C9.95474576,2.96015452 10.2260903,3.59658079 10.3839658,4.32675522 C10.5418414,5.05692965 10.620778,5.82656142 10.620778,6.63567362 C10.620778,7.44478583 10.5221072,8.18974992 10.3247628,8.87058824 C10.1274184,9.55142655 9.82647261,10.1385175 9.42191651,10.6318786 C9.01736041,11.1252397 8.49933902,11.5100569 7.86783681,11.7863378 C7.2363346,12.06262 6.48643698,12.200759 5.61812144,12.200759 C4.71033702,12.200759 3.94563878,12.0576864 3.3240038,11.771537 C2.70236881,11.4853876 2.19914803,11.0907046 1.81432638,10.5874763 C1.42950472,10.084248 1.15322665,9.48235644 0.985483871,8.78178368 C0.817741097,8.08121092 0.733870968,7.32637976 0.733870968,6.51726755 Z" id="path-4"></path>
        <filter x="-4.0%" y="-4.5%" width="107.9%" height="118.2%" filterUnits="objectBoundingBox" id="filter-5">
            <feOffset dx="0" dy="2" in="SourceAlpha" result="shadowOffsetOuter1"></feOffset>
            <feColorMatrix values="0 0 0 0 0   0 0 0 0 0   0 0 0 0 0  0 0 0 0.1 0" type="matrix" in="shadowOffsetOuter1"></feColorMatrix>
        </filter>
    </defs>
    <g id="Badges" stroke="none" stroke-width="1" fill="none" fill-rule="evenodd">
        <g id="Process-VAT-in-Microsoft-Dynamics-365-Business-Central" transform="translate(-50.000000, -460.000000)">
            <g id="Process-VAT-in-Microsoft-Dynamics-365-Business-Central/perform-a-vat-rate-change-in-dynamics-365-business-central" transform="translate(50.000000, 460.000000)">
                <g id="Mask" transform="translate(2.000000, 2.000000)">
                    <mask id="mask-2" fill="white">
                        <use xlink:href="#path-1"></use>
                    </mask>
                    <use id="BG" fill="#01B6C3" xlink:href="#path-1"></use>
                    <g id="lifecycle" filter="url(#filter-3)" mask="url(#mask-2)">
                        <g transform="translate(7.000000, 7.000000)">
                            <path d="M82.3051163,42.3172387 L74.329586,54.5219856 C74.2077704,54.7079049 73.9999169,54.82 73.7769898,54.82 C73.5540628,54.82 73.3462093,54.7079049 73.2243936,54.5219856 L65.2488633,42.3172387 C65.1152419,42.1151885 65.1039305,41.8563621 65.2194198,41.6435161 C65.3349091,41.4306701 65.5585134,41.2982422 65.8014595,41.2988076 L69.9253118,41.2988076 C69.9110807,31.3936057 64.6377628,22.2344155 56.0609205,17.21784 C55.6724028,16.9922706 55.4281423,16.5831514 55.4147235,16.1355053 C55.4013048,15.6878592 55.6206244,15.2649598 55.9949389,15.0167147 L60.4816901,12.1092582 C61.0577146,11.7235806 61.8108854,11.7235806 62.3869099,12.1092582 C71.9507528,18.7782963 77.6483922,29.6721825 77.653411,41.2988076 L81.7772632,41.2988076 C82.0157642,41.3070696 82.2311974,41.4429336 82.3406503,41.6541103 C82.4501033,41.8652871 82.4365155,42.1188602 82.3051163,42.3172387 Z" id="Path" fill="#EFF8FB" fill-rule="nonzero"></path>
                            <path d="M68.2174267,56.4071858 C67.9699432,56.0291934 67.5448196,55.8071318 67.0944003,55.8205776 C66.6439809,55.8340234 66.2327556,56.0810513 66.0080883,56.4731382 C60.978602,65.0214807 51.8258837,70.2686005 41.9353338,70.2736969 L41.9353338,66.1516662 C41.9358992,65.9088274 41.8034714,65.6853219 41.5906254,65.5698836 C41.3777793,65.4544453 41.1189529,65.4657517 40.9169027,65.5993141 L28.7121558,73.6290298 C28.5262365,73.7507917 28.4141414,73.9585534 28.4141414,74.1813819 C28.4141414,74.4042105 28.5262365,74.6119722 28.7121558,74.733734 L40.9086896,82.7057413 C41.1109995,82.8439187 41.3730473,82.8577994 41.5887221,82.7417627 C41.804397,82.6257259 41.9379624,82.3989986 41.9353338,82.1533892 L41.9353338,78.0313586 C53.5604491,78.028226 64.4540329,72.3363382 71.1248833,62.7798452 C71.5105608,62.2040752 71.5105608,61.451237 71.1248833,60.875467 L68.2174267,56.4071858 Z" id="Path" fill="#FFFFFF" fill-rule="nonzero"></path>
                            <path d="M20.4378081,70.5306866 C21.0135781,70.9164378 21.7664163,70.9164378 22.3421863,70.5306866 L26.8269557,67.6308893 C27.2049481,67.3833586 27.4270096,66.9581537 27.4135638,66.5076484 C27.400118,66.057143 27.1530901,65.6458391 26.7610032,65.4211288 C18.2126607,60.3906817 12.9655409,51.2362148 12.9604445,41.3437755 L17.0824752,41.3437755 C17.325314,41.344341 17.5488196,41.2118878 17.6642578,40.9990012 C17.7796961,40.7861145 17.7683897,40.5272386 17.6348273,40.3251498 L9.60511158,28.1180713 C9.48334973,27.9321165 9.27558805,27.82 9.05275947,27.82 C8.8299309,27.82 8.62216922,27.9321165 8.50040736,28.1180713 L0.528400078,40.3169351 C0.390222668,40.5192837 0.376341992,40.7813815 0.492378741,40.9970976 C0.608415491,41.2128137 0.835142823,41.3464046 1.08075219,41.3437755 L5.20278284,41.3437755 C5.20483312,52.9651907 10.889949,63.8566051 20.4378081,70.5306866 Z" id="Path" fill="#FFFFFF" fill-rule="nonzero"></path>
                            <path d="M42.9172063,0.928737359 C42.7151175,0.795147535 42.4562416,0.783838775 42.243355,0.899300768 C42.0304683,1.01476276 41.8980151,1.23831418 41.8985806,1.4812029 L41.8985806,5.60408006 C30.2712445,5.60721328 19.3755796,11.3002699 12.7034548,20.8587256 C12.3177036,21.4346138 12.3177036,22.1876066 12.7034548,22.7634948 L15.6114668,27.2326937 C15.8589976,27.6107637 16.2842024,27.8328708 16.7347078,27.8194223 C17.1852132,27.8059737 17.596517,27.558895 17.8212273,27.1667276 C22.8516744,18.6166297 32.0061413,13.3684323 41.8985806,13.3633349 L41.8985806,17.486212 C41.8980151,17.7291008 42.0304683,17.9526522 42.243355,18.0681142 C42.4562416,18.1835762 42.7151175,18.1722674 42.9172063,18.0386776 L55.1160701,10.0650332 C55.3020249,9.94324629 55.4141414,9.73544195 55.4141414,9.51256761 C55.4141414,9.28969327 55.3020249,9.08188893 55.1160701,8.96010207 L42.9172063,0.928737359 Z" id="Path" fill="#FFFFFF" fill-rule="nonzero"></path>
                            <path d="M28.4141414,74.080351 C28.4141414,74.7477097 29.2094895,74.9545609 29.8276702,75.3619424 C36.1079312,79.5006377 39.7706167,82.0316204 40.5971246,82.5387264 C41.9581131,83.3737644 41.9581131,82.1768152 41.9581131,81.1987865 C41.9581131,80.5467674 41.9581131,79.4757383 41.9581131,77.9856991 C45.5720787,77.7927743 48.2361619,77.4919456 49.9503626,77.0832129 C53.2988138,76.2848109 56.1107359,75.1174749 58.3755392,74.080351 C62.3795021,72.2468117 66.3923695,68.7377439 70.4141414,63.5531475 C69.2193263,61.6545419 67.880097,61.3158309 66.3964535,62.5370144 C64.1709882,64.3687897 64.8848243,65.0616525 57.8838479,69.1490512 C55.0368189,70.8112397 52.1674517,72.3608505 49.4141414,73.0813597 C46.6608311,73.8018689 44.0481578,74.080351 41.2832427,74.080351 C35.6866394,74.080351 33.0615075,74.080351 28.4141414,74.080351 Z" id="Path-87" fill="#DDE6E9" fill-rule="evenodd"></path>
                            <path d="M-9.58585859,51.080351 C-9.58585859,51.7477097 -8.79051052,51.9545609 -8.17232977,52.3619424 C-1.89206875,56.5006377 1.77061668,59.0316204 2.59712455,59.5387264 C3.95811307,60.3737644 3.95811307,59.1768152 3.95811307,58.1987865 C3.95811307,57.5467674 3.95811307,56.4757383 3.95811307,54.9856991 C7.57207872,54.7927743 10.2361619,54.4919456 11.9503626,54.0832129 C15.2988138,53.2848109 18.1107359,52.1174749 20.3755392,51.080351 C24.3795021,49.2468117 28.3923695,45.7377439 32.4141414,40.5531475 C31.2193263,38.6545419 29.880097,38.3158309 28.3964535,39.5370144 C26.1709882,41.3687897 26.8848243,42.0616525 19.8838479,46.1490512 C17.0368189,47.8112397 14.1674517,49.3608505 11.4141414,50.0813597 C8.66083112,50.8018689 6.04815776,51.080351 3.28324273,51.080351 C-2.31336058,51.080351 -4.93849255,51.080351 -9.58585859,51.080351 Z" id="Path-87" fill="#DDE6E9" fill-rule="evenodd" transform="translate(11.414141, 49.320000) rotate(90.000000) translate(-11.414141, -49.320000) "></path>
                            <path d="M13.4141414,13.080351 C13.4141414,13.7477097 14.2094895,13.9545609 14.8276702,14.3619424 C21.1079312,18.5006377 24.7706167,21.0316204 25.5971246,21.5387264 C26.9581131,22.3737644 26.9581131,21.1768152 26.9581131,20.1987865 C26.9581131,19.5467674 26.9581131,18.4757383 26.9581131,16.9856991 C30.5720787,16.7927743 33.2361619,16.4919456 34.9503626,16.0832129 C38.2988138,15.2848109 41.1107359,14.1174749 43.3755392,13.080351 C47.3795021,11.2468117 51.3923695,7.73774387 55.4141414,2.55314746 C54.2193263,0.654541924 52.880097,0.315830914 51.3964535,1.53701443 C49.1709882,3.3687897 49.8848243,4.0616525 42.8838479,8.14905118 C40.0368189,9.81123973 37.1674517,11.3608505 34.4141414,12.0813597 C31.6608311,12.8018689 29.0481578,13.080351 26.2832427,13.080351 C20.6866394,13.080351 18.0615075,13.080351 13.4141414,13.080351 Z" id="Path-87" fill="#DDE6E9" fill-rule="evenodd" transform="translate(34.414141, 11.320000) scale(-1, -1) translate(-34.414141, -11.320000) "></path>
                            <path d="M51.4141414,35.760351 C51.4141414,36.4277097 52.2094895,36.6345609 52.8276702,37.0419424 C59.1079312,41.1806377 62.7706167,43.7116204 63.5971246,44.2187264 C64.9581131,45.0537644 64.9581131,43.8568152 64.9581131,42.8787865 C64.9581131,42.2267674 64.9581131,41.1557383 64.9581131,39.6656991 C68.5720787,39.4727743 71.2361619,39.1719456 72.9503626,38.7632129 C76.2988138,37.9648109 79.1107359,36.7974749 81.3755392,35.760351 C85.3795021,33.9268117 89.3923695,30.4177439 93.4141414,25.2331475 C92.2193263,23.3345419 90.880097,22.9958309 89.3964535,24.2170144 C87.1709882,26.0487897 87.8848243,26.7416525 80.8838479,30.8290512 C78.0368189,32.4912397 75.1674517,34.0408505 72.4141414,34.7613597 C69.6608311,35.4818689 67.0481578,35.760351 64.2832427,35.760351 C58.6866394,35.760351 56.0615075,35.760351 51.4141414,35.760351 Z" id="Path-87" fill="#DDE6E9" fill-rule="evenodd" transform="translate(72.414141, 34.000000) scale(-1, -1) rotate(90.000000) translate(-72.414141, -34.000000) "></path>
                        </g>
                    </g>
                    <g id="Group" mask="url(#mask-2)" fill-rule="nonzero">
                        <g transform="translate(36.000000, 37.000000)" id="%">
                            <g>
                                <use fill="black" fill-opacity="1" filter="url(#filter-5)" xlink:href="#path-4"></use>
                                <use fill="#FFFFFF" xlink:href="#path-4"></use>
                            </g>
                        </g>
                    </g>
                </g>
                <g id="Dynamic-Border" stroke="#1D8E96" stroke-width="4">
                    <rect id="Azure-Border" x="2" y="2" width="96" height="96" rx="48"></rect>
                </g>
            </g>
        </g>
    </g>
</svg>