<?xml version="1.0" encoding="UTF-8"?>
<svg width="100px" height="100px" viewBox="0 0 100 100" version="1.1" xmlns="http://www.w3.org/2000/svg" xmlns:xlink="http://www.w3.org/1999/xlink">
    <!-- Generator: Sketch 55.2 (78181) - https://sketchapp.com -->
    <title>Purchase items and services in Microsoft Dynamics 365 Business Central/receive-and-invoice-items-in-dynamics-365-business-central</title>
    <desc>Created with Sketch.</desc>
    <defs>
        <rect id="path-1" x="0" y="0" width="96" height="96" rx="48"></rect>
        <filter x="-11.8%" y="-5.5%" width="123.5%" height="111.0%" filterUnits="objectBoundingBox" id="filter-3">
            <feOffset dx="0" dy="2" in="SourceAlpha" result="shadowOffsetOuter1"></feOffset>
            <feColorMatrix values="0 0 0 0 0   0 0 0 0 0   0 0 0 0 0  0 0 0 0.104184878 0" type="matrix" in="shadowOffsetOuter1" result="shadowMatrixOuter1"></feColorMatrix>
            <feMerge>
                <feMergeNode in="shadowMatrixOuter1"></feMergeNode>
                <feMergeNode in="SourceGraphic"></feMergeNode>
            </feMerge>
        </filter>
    </defs>
    <g id="Badges" stroke="none" stroke-width="1" fill="none" fill-rule="evenodd">
        <g id="Purchase-items-and-services-in-Microsoft-Dynamics-365-Business-Central" transform="translate(-50.000000, -860.000000)">
            <g id="Purchase-items-and-services-in-Microsoft-Dynamics-365-Business-Central/receive-and-invoice-items-in-dynamics-365-business-central" transform="translate(50.000000, 860.000000)">
                <g id="Mask" transform="translate(2.000000, 2.000000)">
                    <mask id="mask-2" fill="white">
                        <use xlink:href="#path-1"></use>
                    </mask>
                    <use id="BG" fill="#01B6C3" xlink:href="#path-1"></use>
                    <g id="Group-750" filter="url(#filter-3)" mask="url(#mask-2)">
                        <g transform="translate(31.320261, 11.500000)" id="Group-53">
                            <g transform="translate(0.000000, 0.001895)">
                                <path d="M29.7202614,0.301372549 C29.1804444,-0.100457516 28.4404706,-0.100457516 27.9006536,0.301372549 L25.7777778,1.89352941 L23.654902,0.301372549 C23.115085,-0.100457516 22.3751111,-0.100457516 21.8352941,0.301372549 L19.7124183,1.89352941 L17.5895425,0.301372549 C17.0497255,-0.100457516 16.3097516,-0.100457516 15.7699346,0.301372549 L13.6470588,1.89352941 L11.524183,0.301372549 C10.984366,-0.100457516 10.2443922,-0.100457516 9.70457516,0.301372549 L7.58169935,1.89352941 L5.45882353,0.301372549 C4.91900654,-0.100457516 4.17903268,-0.100457516 3.63921569,0.301372549 L0.606535948,2.57588235 C0.224418301,2.86398693 0,3.31130719 0,3.78895425 L0,67.7301307 C0,68.2077778 0.224418301,68.655098 0.606535948,68.9432026 L3.63921569,71.2177124 C4.17903268,71.6195425 4.91900654,71.6195425 5.45882353,71.2177124 L7.58169935,69.6255556 L9.70457516,71.2177124 C10.2443922,71.6195425 10.984366,71.6195425 11.524183,71.2177124 L13.6470588,69.6255556 L15.7699346,71.2177124 C16.3097516,71.6195425 17.0497255,71.6195425 17.5895425,71.2177124 L19.7124183,69.6255556 L21.8352941,71.2177124 C22.3751111,71.6195425 23.115085,71.6195425 23.654902,71.2177124 L25.7777778,69.6255556 L27.9006536,71.2177124 C28.1705621,71.4224183 28.4905098,71.5209804 28.8104575,71.5209804 C29.1304052,71.5209804 29.4503529,71.4224183 29.7202614,71.2177124 L32.7529412,68.9432026 C33.1350588,68.655098 33.3594771,68.2077778 33.3594771,67.7301307 L33.3594771,3.78895425 C33.3594771,3.31130719 33.1350588,2.86398693 32.7529412,2.57588235 L29.7202614,0.301372549 Z" id="Fill-749" fill="#E1E4E1"></path>
                                <path d="M27.2941176,21.9850327 L6.06535948,21.9850327 C5.64684967,21.9850327 5.30718954,21.6438562 5.30718954,21.2268627 C5.30718954,20.8098693 5.64684967,20.4686928 6.06535948,20.4686928 L27.2941176,20.4686928 C27.7126275,20.4686928 28.0522876,20.8098693 28.0522876,21.2268627 C28.0522876,21.6438562 27.7126275,21.9850327 27.2941176,21.9850327" id="Fill-751" fill="#C5CCCD"></path>
                                <path d="M19.7124183,13.7892157 C19.7124183,12.47 18.6411242,11.4009804 17.3249412,11.4009804 L16.0360523,11.4009804 C15.5819085,11.4009804 15.2126797,11.0294771 15.2126797,10.5745752 C15.2126797,10.1196732 15.5819085,9.75575163 16.0360523,9.75575163 L18.9299869,9.75575163 L18.9299869,8.18633987 L17.4379085,8.18633987 L17.4379085,6.82163399 L15.9215686,6.82163399 L15.9215686,8.20150327 C14.6584575,8.26215686 13.6470588,9.30084967 13.6470588,10.5745752 C13.6470588,11.8937908 14.7191111,12.9628105 16.0360523,12.9628105 L17.3249412,12.9628105 C17.7775686,12.9628105 18.1467974,13.3343137 18.1467974,13.7892157 C18.1467974,14.2441176 17.7775686,14.6080392 17.3249412,14.6080392 L14.2596601,14.6080392 L14.2596601,16.177451 L15.9215686,16.177451 L15.9215686,17.4360131 L17.4379085,17.4360131 L17.4379085,16.1622876 C18.7002614,16.101634 19.7124183,15.0629412 19.7124183,13.7892157" id="Fill-752" fill="#C5CCCD"></path>
                                <path d="M17.4379085,26.5340523 L6.06535948,26.5340523 C5.4140915,26.5340523 5.30718954,26.1928758 5.30718954,25.7758824 C5.30718954,25.3588889 5.4140915,25.0177124 6.06535948,25.0177124 L17.4379085,25.0177124 C18.0891765,25.0177124 18.1960784,25.3588889 18.1960784,25.7758824 C18.1960784,26.1928758 18.0891765,26.5340523 17.4379085,26.5340523" id="Fill-753" fill="#6E828F"></path>
                                <path d="M27.2941176,26.5340523 L21.9869281,26.5340523 C21.3356601,26.5340523 21.2287582,26.1928758 21.2287582,25.7758824 C21.2287582,25.3588889 21.3356601,25.0177124 21.9869281,25.0177124 L27.2941176,25.0177124 C27.9453856,25.0177124 28.0522876,25.3588889 28.0522876,25.7758824 C28.0522876,26.1928758 27.9453856,26.5340523 27.2941176,26.5340523" id="Fill-754" fill="#6E828F"></path>
                                <path d="M17.4379085,29.566732 L6.06535948,29.566732 C5.4140915,29.566732 5.30718954,29.2255556 5.30718954,28.8085621 C5.30718954,28.3915686 5.4140915,28.0503922 6.06535948,28.0503922 L17.4379085,28.0503922 C18.0891765,28.0503922 18.1960784,28.3915686 18.1960784,28.8085621 C18.1960784,29.2255556 18.0891765,29.566732 17.4379085,29.566732" id="Fill-755" fill="#6E828F"></path>
                                <path d="M27.2941176,29.566732 L21.9869281,29.566732 C21.3356601,29.566732 21.2287582,29.2255556 21.2287582,28.8085621 C21.2287582,28.3915686 21.3356601,28.0503922 21.9869281,28.0503922 L27.2941176,28.0503922 C27.9453856,28.0503922 28.0522876,28.3915686 28.0522876,28.8085621 C28.0522876,29.2255556 27.9453856,29.566732 27.2941176,29.566732" id="Fill-756" fill="#6E828F"></path>
                                <path d="M17.4379085,32.5994118 L6.06535948,32.5994118 C5.4140915,32.5994118 5.30718954,32.2582353 5.30718954,31.8412418 C5.30718954,31.4242484 5.4140915,31.0830719 6.06535948,31.0830719 L17.4379085,31.0830719 C18.0891765,31.0830719 18.1960784,31.4242484 18.1960784,31.8412418 C18.1960784,32.2582353 18.0891765,32.5994118 17.4379085,32.5994118" id="Fill-757" fill="#6E828F"></path>
                                <path d="M27.2941176,32.5994118 L21.9869281,32.5994118 C21.3356601,32.5994118 21.2287582,32.2582353 21.2287582,31.8412418 C21.2287582,31.4242484 21.3356601,31.0830719 21.9869281,31.0830719 L27.2941176,31.0830719 C27.9453856,31.0830719 28.0522876,31.4242484 28.0522876,31.8412418 C28.0522876,32.2582353 27.9453856,32.5994118 27.2941176,32.5994118" id="Fill-758" fill="#6E828F"></path>
                                <path d="M17.4379085,35.6320915 L6.06535948,35.6320915 C5.4140915,35.6320915 5.30718954,35.290915 5.30718954,34.8739216 C5.30718954,34.4569281 5.4140915,34.1157516 6.06535948,34.1157516 L17.4379085,34.1157516 C18.0891765,34.1157516 18.1960784,34.4569281 18.1960784,34.8739216 C18.1960784,35.290915 18.0891765,35.6320915 17.4379085,35.6320915" id="Fill-759" fill="#6E828F"></path>
                                <path d="M27.2941176,35.6320915 L21.9869281,35.6320915 C21.3356601,35.6320915 21.2287582,35.290915 21.2287582,34.8739216 C21.2287582,34.4569281 21.3356601,34.1157516 21.9869281,34.1157516 L27.2941176,34.1157516 C27.9453856,34.1157516 28.0522876,34.4569281 28.0522876,34.8739216 C28.0522876,35.290915 27.9453856,35.6320915 27.2941176,35.6320915" id="Fill-760" fill="#6E828F"></path>
                                <path d="M17.4379085,38.6647712 L6.06535948,38.6647712 C5.4140915,38.6647712 5.30718954,38.3235948 5.30718954,37.9066013 C5.30718954,37.4896078 5.4140915,37.1484314 6.06535948,37.1484314 L17.4379085,37.1484314 C18.0891765,37.1484314 18.1960784,37.4896078 18.1960784,37.9066013 C18.1960784,38.3235948 18.0891765,38.6647712 17.4379085,38.6647712" id="Fill-761" fill="#6E828F"></path>
                                <path d="M27.2941176,38.6647712 L21.9869281,38.6647712 C21.3356601,38.6647712 21.2287582,38.3235948 21.2287582,37.9066013 C21.2287582,37.4896078 21.3356601,37.1484314 21.9869281,37.1484314 L27.2941176,37.1484314 C27.9453856,37.1484314 28.0522876,37.4896078 28.0522876,37.9066013 C28.0522876,38.3235948 27.9453856,38.6647712 27.2941176,38.6647712" id="Fill-762" fill="#6E828F"></path>
                                <polygon id="Fill-749" fill="#000000" opacity="0.049999997" points="-2.8315128e-12 64.0587806 -2.8315128e-12 67.3071466 33.3594771 67.3071466 33.3594771 64.0587806"></polygon>
                            </g>
                        </g>
                    </g>
                    <g id="Group-47" mask="url(#mask-2)">
                        <g transform="translate(23.738562, 39.168519)" id="Group-50">
                            <g>
                                <path d="M4.54901961,37.1503268 C2.4587451,37.1503268 0.758169935,35.4520261 0.758169935,33.3594771 L0.758169935,4.54901961 C0.758169935,2.45647059 2.4587451,0.758169935 4.54901961,0.758169935 L43.9738562,0.758169935 C46.0641307,0.758169935 47.7647059,2.45647059 47.7647059,4.54901961 L47.7647059,33.3594771 C47.7647059,35.4520261 46.0641307,37.1503268 43.9738562,37.1503268 L4.54901961,37.1503268" id="Fill-729" fill="#E1E4E1"></path>
                                <path d="M1.51633987,33.3594771 L1.51633987,4.54901961 C1.51633987,2.87346405 2.87422222,1.51633987 4.54901961,1.51633987 L22.745098,1.51633987 C23.5828758,1.51633987 24.2614379,2.19869281 24.2614379,3.03267974 L24.2614379,34.875817 C24.2614379,35.7098039 23.5828758,36.3921569 22.745098,36.3921569 L4.54901961,36.3921569 C2.87422222,36.3921569 1.51633987,35.0350327 1.51633987,33.3594771 Z M43.9738562,0 L4.54901961,0 C2.04705882,0 0,2.04705882 0,4.54901961 L0,33.3594771 C0,35.8614379 2.04705882,37.9084967 4.54901961,37.9084967 L43.9738562,37.9084967 C46.475817,37.9084967 48.5228758,35.8614379 48.5228758,33.3594771 L48.5228758,4.54901961 C48.5228758,2.04705882 46.475817,0 43.9738562,0 L43.9738562,0 Z" id="Fill-730" fill="#C5CCCD"></path>
                                <path d="M40.1830065,19.7124183 L40.1830065,28.8104575 C40.1830065,29.6520261 40.8623268,30.3267974 41.6993464,30.3267974 C42.5371242,30.3267974 43.2156863,29.6520261 43.2156863,28.8104575 L43.2156863,19.7124183 L40.1830065,19.7124183" id="Fill-731" fill="#30404D"></path>
                                <path d="M15.1633987,19.7124183 L15.1633987,28.8104575 C15.1633987,29.6520261 15.842719,30.3267974 16.6797386,30.3267974 C17.5175163,30.3267974 18.1960784,29.6520261 18.1960784,28.8104575 L18.1960784,19.7124183 L15.1633987,19.7124183" id="Fill-732" fill="#30404D"></path>
                                <path d="M9.09803922,19.7124183 L9.09803922,28.8104575 C9.09803922,29.6520261 9.77735948,30.3267974 10.6143791,30.3267974 C11.4521569,30.3267974 12.130719,29.6520261 12.130719,28.8104575 L12.130719,19.7124183 L9.09803922,19.7124183" id="Fill-733" fill="#30404D"></path>
                                <path d="M25.7777778,19.7124183 L25.7777778,28.8104575 C25.7777778,29.6520261 26.457098,30.3267974 27.2941176,30.3267974 C28.1318954,30.3267974 28.8104575,29.6520261 28.8104575,28.8104575 L28.8104575,19.7124183 L25.7777778,19.7124183" id="Fill-734" fill="#30404D"></path>
                                <path d="M30.3267974,19.7124183 L30.3267974,28.8104575 C30.3267974,29.6520261 31.0061176,30.3267974 31.8431373,30.3267974 C32.680915,30.3267974 33.3594771,29.6520261 33.3594771,28.8104575 L33.3594771,19.7124183 L30.3267974,19.7124183" id="Fill-735" fill="#30404D"></path>
                                <path d="M35.6339869,19.7124183 L35.6339869,29.5686275 C35.6339869,29.9856209 35.9728889,30.3267974 36.3921569,30.3267974 C36.8114248,30.3267974 37.1503268,29.9856209 37.1503268,29.5686275 L37.1503268,19.7124183 L35.6339869,19.7124183" id="Fill-736" fill="#30404D"></path>
                                <path d="M21.2287582,19.7124183 L21.2287582,29.5686275 C21.2287582,29.9856209 21.5676601,30.3267974 21.9869281,30.3267974 C22.4061961,30.3267974 22.745098,29.9856209 22.745098,29.5686275 L22.745098,19.7124183 L21.2287582,19.7124183" id="Fill-737" fill="#30404D"></path>
                                <path d="M5.30718954,19.7124183 L5.30718954,29.5686275 C5.30718954,29.9856209 5.6460915,30.3267974 6.06535948,30.3267974 C6.48462745,30.3267974 6.82352941,29.9856209 6.82352941,29.5686275 L6.82352941,19.7124183 L5.30718954,19.7124183" id="Fill-738" fill="#30404D"></path>
                                <path d="M40.1830065,18.1960784 L40.1830065,9.09803922 C40.1830065,8.25647059 40.8623268,7.58169935 41.6993464,7.58169935 C42.5371242,7.58169935 43.2156863,8.25647059 43.2156863,9.09803922 L43.2156863,18.1960784 L40.1830065,18.1960784" id="Fill-739" fill="#30404D"></path>
                                <path d="M15.1633987,18.1960784 L15.1633987,9.09803922 C15.1633987,8.25647059 15.842719,7.58169935 16.6797386,7.58169935 C17.5175163,7.58169935 18.1960784,8.25647059 18.1960784,9.09803922 L18.1960784,18.1960784 L15.1633987,18.1960784" id="Fill-740" fill="#30404D"></path>
                                <path d="M9.09803922,18.1960784 L9.09803922,9.09803922 C9.09803922,8.25647059 9.77735948,7.58169935 10.6143791,7.58169935 C11.4521569,7.58169935 12.130719,8.25647059 12.130719,9.09803922 L12.130719,18.1960784 L9.09803922,18.1960784" id="Fill-741" fill="#30404D"></path>
                                <path d="M25.7777778,18.1960784 L25.7777778,9.09803922 C25.7777778,8.25647059 26.457098,7.58169935 27.2941176,7.58169935 C28.1318954,7.58169935 28.8104575,8.25647059 28.8104575,9.09803922 L28.8104575,18.1960784 L25.7777778,18.1960784" id="Fill-742" fill="#30404D"></path>
                                <path d="M30.3267974,18.1960784 L30.3267974,9.09803922 C30.3267974,8.25647059 31.0061176,7.58169935 31.8431373,7.58169935 C32.680915,7.58169935 33.3594771,8.25647059 33.3594771,9.09803922 L33.3594771,18.1960784 L30.3267974,18.1960784" id="Fill-743" fill="#30404D"></path>
                                <path d="M35.6339869,18.1960784 L35.6339869,8.33986928 C35.6339869,7.92287582 35.9728889,7.58169935 36.3921569,7.58169935 C36.8114248,7.58169935 37.1503268,7.92287582 37.1503268,8.33986928 L37.1503268,18.1960784 L35.6339869,18.1960784" id="Fill-744" fill="#30404D"></path>
                                <path d="M21.2287582,18.1960784 L21.2287582,8.33986928 C21.2287582,7.92287582 21.5676601,7.58169935 21.9869281,7.58169935 C22.4061961,7.58169935 22.745098,7.92287582 22.745098,8.33986928 L22.745098,18.1960784 L21.2287582,18.1960784" id="Fill-745" fill="#30404D"></path>
                                <path d="M5.30718954,18.1960784 L5.30718954,8.33986928 C5.30718954,7.92287582 5.6460915,7.58169935 6.06535948,7.58169935 C6.48462745,7.58169935 6.82352941,7.92287582 6.82352941,8.33986928 L6.82352941,18.1960784 L5.30718954,18.1960784" id="Fill-746" fill="#30404D"></path>
                                <path d="M43.9738562,20.4705882 L4.54901961,20.4705882 C3.71124183,20.4705882 3.03267974,19.7882353 3.03267974,18.9542484 C3.03267974,18.1202614 3.71124183,17.4379085 4.54901961,17.4379085 L43.9738562,17.4379085 C44.8108758,17.4379085 45.4901961,18.1202614 45.4901961,18.9542484 C45.4901961,19.7882353 44.8108758,20.4705882 43.9738562,20.4705882" id="Fill-747" fill="#DF5142"></path>
                            </g>
                        </g>
                    </g>
                </g>
                <g id="Dynamic-Border" stroke="#1D8E96" stroke-width="4">
                    <rect id="Azure-Border" x="2" y="2" width="96" height="96" rx="48"></rect>
                </g>
            </g>
        </g>
    </g>
</svg>