<?xml version="1.0" encoding="UTF-8"?>
<svg width="100px" height="118px" viewBox="0 0 100 118" version="1.1" xmlns="http://www.w3.org/2000/svg" xmlns:xlink="http://www.w3.org/1999/xlink">
    <!-- Generator: Sketch 55.2 (78181) - https://sketchapp.com -->
    <title>Reconcile bank accounts in Microsoft Dynamics 365 Business Central/reconcile-bank-accounts-in-microsoft-dynamics-365-business-central</title>
    <desc>Created with Sketch.</desc>
    <defs>
        <path d="M42.7425,1.49663266 C44.3745,0.498877554 46.1865,0 48,0 C49.8135,0 51.627,0.498877554 53.256,1.49663266 L90.591,24.3316189 C93.933,26.3773408 96,30.2031485 96,34.3529027 L96,79.6470973 C96,83.7952317 93.933,87.6242789 90.591,89.6683811 L53.256,112.504987 C51.627,113.501122 49.8135,114 48,114 C46.1865,114 44.3745,113.501122 42.7425,112.504987 L5.409,89.6683811 C2.0655,87.6242789 0,83.7952317 0,79.6470973 L0,34.3529027 C0,30.2031485 2.0655,26.3773408 5.409,24.3316189 L42.7425,1.49663266 Z" id="path-1"></path>
        <filter x="-9.1%" y="-6.2%" width="118.2%" height="112.5%" filterUnits="objectBoundingBox" id="filter-3">
            <feOffset dx="0" dy="2" in="SourceAlpha" result="shadowOffsetOuter1"></feOffset>
            <feColorMatrix values="0 0 0 0 0   0 0 0 0 0   0 0 0 0 0  0 0 0 0.0957440997 0" type="matrix" in="shadowOffsetOuter1" result="shadowMatrixOuter1"></feColorMatrix>
            <feMerge>
                <feMergeNode in="shadowMatrixOuter1"></feMergeNode>
                <feMergeNode in="SourceGraphic"></feMergeNode>
            </feMerge>
        </filter>
        <filter x="-13.3%" y="-13.3%" width="126.7%" height="126.7%" filterUnits="objectBoundingBox" id="filter-4">
            <feOffset dx="0" dy="2" in="SourceAlpha" result="shadowOffsetOuter1"></feOffset>
            <feColorMatrix values="0 0 0 0 0   0 0 0 0 0   0 0 0 0 0  0 0 0 0.0959626311 0" type="matrix" in="shadowOffsetOuter1" result="shadowMatrixOuter1"></feColorMatrix>
            <feMerge>
                <feMergeNode in="shadowMatrixOuter1"></feMergeNode>
                <feMergeNode in="SourceGraphic"></feMergeNode>
            </feMerge>
        </filter>
    </defs>
    <g id="Badges" stroke="none" stroke-width="1" fill="none" fill-rule="evenodd">
        <g id="Reconcile-bank-accounts-in-Microsoft-Dynamics-365-Business-Central" transform="translate(-50.000000, -50.000000)">
            <g id="Reconcile-bank-accounts-in-Microsoft-Dynamics-365-Business-Central/reconcile-bank-accounts-in-microsoft-dynamics-365-business-central" transform="translate(50.000000, 50.000000)">
                <g id="Mask" transform="translate(2.000000, 2.000000)">
                    <mask id="mask-2" fill="white">
                        <use xlink:href="#path-1"></use>
                    </mask>
                    <use id="Trophy-1" fill="#01B6C3" xlink:href="#path-1"></use>
                    <g id="Group-53" filter="url(#filter-3)" mask="url(#mask-2)">
                        <g transform="translate(27.000000, 27.000000)">
                            <path d="M43.2,3.3975 L39.2,0.3975 C38.488,-0.1325 37.512,-0.1325 36.8,0.3975 L34,2.4975 L31.2,0.3975 C30.488,-0.1325 29.512,-0.1325 28.8,0.3975 L26,2.4975 L23.2,0.3975 C22.488,-0.1325 21.512,-0.1325 20.8,0.3975 L18,2.4975 L15.2,0.3975 C14.488,-0.1325 13.512,-0.1325 12.8,0.3975 L10,2.4975 L7.2,0.3975 C6.488,-0.1325 5.512,-0.1325 4.8,0.3975 L0.8,3.3975 C0.296,3.7775 0,4.3675 0,4.9975 L0,58.9975 C0,59.6275 0.296,60.2175 0.8,60.5975 L4.8,63.5975 C5.512,64.1275 6.488,64.1275 7.2,63.5975 L10,61.4975 L12.8,63.5975 C13.512,64.1275 14.488,64.1275 15.2,63.5975 L18,61.4975 L20.8,63.5975 C21.512,64.1275 22.488,64.1275 23.2,63.5975 L26,61.4975 L28.8,63.5975 C29.512,64.1275 30.488,64.1275 31.2,63.5975 L34,61.4975 L36.8,63.5975 C37.156,63.8675 37.578,63.9975 38,63.9975 C38.422,63.9975 38.844,63.8675 39.2,63.5975 L43.2,60.5975 C43.704,60.2175 44,59.6275 44,58.9975 L44,4.9975 C44,4.3675 43.704,3.7775 43.2,3.3975" id="Fill-749" fill="#E1E4E1"></path>
                            <path d="M36,31.9975 L8,31.9975 C7.448,31.9975 7,31.5475 7,30.9975 C7,30.4475 7.448,29.9975 8,29.9975 L36,29.9975 C36.552,29.9975 37,30.4475 37,30.9975 C37,31.5475 36.552,31.9975 36,31.9975" id="Fill-751" fill="#C5CCCD"></path>
                            <path d="M23,37.9975 L8,37.9975 C7.141,37.9975 7,37.5475 7,36.9975 C7,36.4475 7.141,35.9975 8,35.9975 L23,35.9975 C23.859,35.9975 24,36.4475 24,36.9975 C24,37.5475 23.859,37.9975 23,37.9975" id="Fill-753" fill="#6E828F"></path>
                            <path d="M36,37.9975 L29,37.9975 C28.141,37.9975 28,37.5475 28,36.9975 C28,36.4475 28.141,35.9975 29,35.9975 L36,35.9975 C36.859,35.9975 37,36.4475 37,36.9975 C37,37.5475 36.859,37.9975 36,37.9975" id="Fill-754" fill="#6E828F"></path>
                            <path d="M23,41.9975 L8,41.9975 C7.141,41.9975 7,41.5475 7,40.9975 C7,40.4475 7.141,39.9975 8,39.9975 L23,39.9975 C23.859,39.9975 24,40.4475 24,40.9975 C24,41.5475 23.859,41.9975 23,41.9975" id="Fill-755" fill="#6E828F"></path>
                            <path d="M36,41.9975 L29,41.9975 C28.141,41.9975 28,41.5475 28,40.9975 C28,40.4475 28.141,39.9975 29,39.9975 L36,39.9975 C36.859,39.9975 37,40.4475 37,40.9975 C37,41.5475 36.859,41.9975 36,41.9975" id="Fill-756" fill="#6E828F"></path>
                            <path d="M23,45.9975 L8,45.9975 C7.141,45.9975 7,45.5475 7,44.9975 C7,44.4475 7.141,43.9975 8,43.9975 L23,43.9975 C23.859,43.9975 24,44.4475 24,44.9975 C24,45.5475 23.859,45.9975 23,45.9975" id="Fill-757" fill="#6E828F"></path>
                            <path d="M36,45.9975 L29,45.9975 C28.141,45.9975 28,45.5475 28,44.9975 C28,44.4475 28.141,43.9975 29,43.9975 L36,43.9975 C36.859,43.9975 37,44.4475 37,44.9975 C37,45.5475 36.859,45.9975 36,45.9975" id="Fill-758" fill="#6E828F"></path>
                            <path d="M23,49.9975 L8,49.9975 C7.141,49.9975 7,49.5475 7,48.9975 C7,48.4475 7.141,47.9975 8,47.9975 L23,47.9975 C23.859,47.9975 24,48.4475 24,48.9975 C24,49.5475 23.859,49.9975 23,49.9975" id="Fill-759" fill="#6E828F"></path>
                            <path d="M36,49.9975 L29,49.9975 C28.141,49.9975 28,49.5475 28,48.9975 C28,48.4475 28.141,47.9975 29,47.9975 L36,47.9975 C36.859,47.9975 37,48.4475 37,48.9975 C37,49.5475 36.859,49.9975 36,49.9975" id="Fill-760" fill="#6E828F"></path>
                            <path d="M23,53.9975 L8,53.9975 C7.141,53.9975 7,53.5475 7,52.9975 C7,52.4475 7.141,51.9975 8,51.9975 L23,51.9975 C23.859,51.9975 24,52.4475 24,52.9975 C24,53.5475 23.859,53.9975 23,53.9975" id="Fill-761" fill="#6E828F"></path>
                            <path d="M36,53.9975 L29,53.9975 C28.141,53.9975 28,53.5475 28,52.9975 C28,52.4475 28.141,51.9975 29,51.9975 L36,51.9975 C36.859,51.9975 37,52.4475 37,52.9975 C37,53.5475 36.859,53.9975 36,53.9975" id="Fill-762" fill="#6E828F"></path>
                        </g>
                    </g>
                    <g id="Group-9" filter="url(#filter-4)" mask="url(#mask-2)">
                        <g transform="translate(7.000000, 42.000000)">
                            <path d="M9.85044,3.4914 L7.09044,0.7314 C6.73118,0.368 6.14882,0.368 5.78956,0.7314 L0.26956,6.2514 C-0.0897,6.6102 -0.0897,7.1898 0.26956,7.5486 L3.02956,10.3086 C3.20942,10.488 3.44448,10.58 3.68,10.58 C3.91552,10.58 4.15058,10.488 4.33044,10.3086 L9.85044,4.7886 C10.2097,4.4298 10.2097,3.8502 9.85044,3.4914" id="Fill-267" fill="#546670"></path>
                            <path d="M9.85044,3.4914 L8.74,2.3782 L5.98,5.1382 C5.62074,5.497 5.03838,5.497 4.67912,5.1382 L3.02956,3.4914 L0.26956,6.2514 C-0.0897,6.6102 -0.0897,7.1898 0.26956,7.5486 L3.02956,10.3086 C3.07464,10.3546 3.12294,10.396 3.174,10.4282 C3.21356,10.4558 3.25588,10.4742 3.2982,10.4926 C3.31062,10.4972 3.32166,10.5064 3.33408,10.511 C3.44448,10.557 3.56224,10.58 3.68,10.58 C3.91552,10.58 4.15058,10.488 4.33044,10.3086 L9.85044,4.7886 C10.2097,4.4298 10.2097,3.8502 9.85044,3.4914" id="Fill-268" fill="#30404D"></path>
                            <path d="M29.17044,28.3314 L27.79044,26.9514 C27.43118,26.588 26.84882,26.588 26.48956,26.9514 C26.1303,27.3102 26.1303,27.8898 26.48956,28.2486 L27.86956,29.6286 C28.04942,29.808 28.28448,29.9 28.52,29.9 C28.75552,29.9 28.99058,29.808 29.17044,29.6286 C29.5297,29.2698 29.5297,28.6902 29.17044,28.3314" id="Fill-269" fill="#30404D"></path>
                            <path d="M26.48956,26.9514 C26.1303,27.3102 26.1303,27.8898 26.48956,28.2486 L27.86956,29.6286 C28.04942,29.808 28.28448,29.9 28.52,29.9 C28.75552,29.9 28.99058,29.808 29.17044,29.6286 L26.48956,26.9514" id="Fill-270" fill="#182A37"></path>
                            <path d="M28.06,27.14 L28.06,23.92 C28.06,23.6762 27.96294,23.4416 27.79044,23.2714 L26.41044,21.8914 C26.05118,21.528 25.46882,21.528 25.10956,21.8914 L21.42956,25.5714 C21.0703,25.9302 21.0703,26.5098 21.42956,26.8686 L22.80956,28.2486 C22.98206,28.4234 23.2162,28.52 23.46,28.52 L26.68,28.52 L28.06,27.14" id="Fill-271" fill="#7CB65A"></path>
                            <path d="M27.37,27.83 L23.26956,23.7314 L21.42956,25.5714 C21.0703,25.9302 21.0703,26.5098 21.42956,26.8686 L22.80956,28.2486 C22.98206,28.4234 23.2162,28.52 23.46,28.52 L26.68,28.52 L27.37,27.83" id="Fill-272" fill="#69994E"></path>
                            <path d="M26.41044,21.8914 L17.21044,12.6914 C16.85118,12.328 16.26882,12.328 15.90956,12.6914 L12.22956,16.3714 C11.8703,16.7302 11.8703,17.3098 12.22956,17.6686 L21.42956,26.8686 L26.41044,21.8914" id="Fill-273" fill="#546670"></path>
                            <path d="M23.92,24.38 L16.86176,17.3236 C16.5025,16.9648 16.5025,16.3806 16.86176,16.0218 L18.70176,14.1818 L17.21044,12.6914 C16.85118,12.328 16.26882,12.328 15.90956,12.6914 L12.22956,16.3714 C12.13986,16.4588 12.07224,16.5646 12.02716,16.675 C11.89284,17.0062 11.960034,17.4018 12.22956,17.6686 L13.72088,19.1636 L21.42956,26.8686 L23.92,24.38" id="Fill-274" fill="#30404D"></path>
                            <path d="M10.77044,19.1314 L4.33044,12.6914 C4.32078,12.6776 4.30882,12.673 4.2987,12.6638 C4.2872,12.6546 4.27892,12.6408 4.26696,12.6316 C3.88838,12.3188 3.68,11.914 3.68046,11.5 C3.68046,11.0814 3.88838,10.6812 4.2665,10.3684 C4.65796,10.0464 4.7127,9.4668 4.3884,9.0712 C4.0641,8.6802 3.4845,8.625 3.0935,8.9516 C2.28574,9.6186 1.84045963,10.5248 1.84045963,11.5 C1.84,12.4476 2.2632,13.3262 3.0291,13.9886 C3.02956,13.9886 3.02956,13.9886 3.02956,13.9886 L9.46956,20.4286 C9.64942,20.608 9.88448,20.7 10.12,20.7 C10.35552,20.7 10.59058,20.608 10.77044,20.4286 C11.1297,20.0698 11.1297,19.4902 10.77044,19.1314" id="Fill-275" fill="#30404D"></path>
                            <path d="M18.13044,11.7714 L9.2,2.8382 L2.37912,9.66 L11.30956,18.5886 C11.48942,18.768 11.72448,18.86 11.96,18.86 C12.19552,18.86 12.43058,18.768 12.61044,18.5886 L18.13044,13.0686 C18.4897,12.7098 18.4897,12.1302 18.13044,11.7714" id="Fill-276" fill="#7CB65A"></path>
                            <path d="M11.96,18.86 C12.19552,18.86 12.43058,18.768 12.61044,18.5886 L15.37044,15.8286 L5.78956,6.2514 L2.37912,9.66 L11.30956,18.5886 C11.48942,18.768 11.72448,18.86 11.96,18.86" id="Fill-277" fill="#69994E"></path>
                        </g>
                    </g>
                    <g id="g12" mask="url(#mask-2)" fill="#1C294F" fill-rule="nonzero">
                        <g transform="translate(38.000000, 31.000000)">
                            <path d="M11.0806393,1.31781406 C11.463892,1.29301791 11.8891858,1.64259423 11.8937967,2.16075288 C11.8977025,2.60786468 11.5267096,2.9950719 11.1108005,3.00662102 C10.6855609,3.01840339 10.2677532,2.66997168 10.2726896,2.15408054 C10.2779515,1.60754546 10.7297177,1.2937177 11.0806393,1.31781406 Z M2.19020881,10.1390256 C2.63895344,10.1393513 2.99411716,10.5157146 2.99397074,10.9907526 C2.99380253,11.4500048 2.62977491,11.8286465 2.18772974,11.8292983 C1.7448546,11.8299484 1.37456149,11.4440377 1.37394225,10.9810967 C1.37330839,10.5164198 1.73945163,10.1386461 2.19020881,10.1390256 Z M10.2950392,19.6939779 C10.3052376,19.6314858 10.3105538,19.567746 10.3263938,19.5067185 C10.4455195,19.0472493 10.8935426,18.7792165 11.3267564,18.9063165 C11.6505547,19.0013566 11.8928203,19.3147938 11.913217,19.6981549 C11.9338308,20.0861813 11.7116907,20.4483862 11.3326151,20.5665354 C10.7945967,20.7342661 10.2554934,20.2745799 10.2950392,19.6939779 L10.2950392,19.6939779 Z M14.7108799,14.4095397 C14.3815485,14.0898099 14.0661584,13.7836418 13.748707,13.4754665 C13.3984363,13.7946539 13.0078061,14.0455989 12.5671605,14.2152825 C12.148539,14.3764493 11.7167356,14.4640034 11.2658917,14.4752325 C10.6054386,14.4917234 9.98133081,14.3582767 9.39991513,14.0482028 C8.36353273,13.4954293 7.70318817,12.6469031 7.49905799,11.4860789 C7.31407689,10.4343447 7.59116882,9.48611307 8.27527342,8.66622909 C8.87811653,7.9436636 9.65953964,7.52390296 10.5839569,7.37624356 C11.6417668,7.20726522 12.5681369,7.51478952 13.3856341,8.18620041 C13.5086113,8.28720769 13.6248618,8.39635196 13.7545114,8.51081241 C14.0311151,8.19808043 14.3070678,7.88605365 14.5906693,7.56540166 C13.8326265,6.79075938 12.9186788,6.31707756 11.8444323,6.13459181 C11.8419912,6.10101313 11.8377599,6.07030952 11.8377057,6.03960591 C11.8374345,5.44989049 11.8387906,4.8601805 11.8362953,4.27045965 C11.836024,4.20070388 11.8554986,4.17027693 11.9228187,4.13853178 C12.6760335,3.78366099 13.1163537,3.19822021 13.2048842,2.36288678 C13.3213518,1.2635674 12.57584,0.269453457 11.5062044,0.0467030092 C10.3455429,-0.195012396 9.19475427,0.521954833 8.94614184,1.72493523 C8.73051138,2.76848904 9.27688371,3.75994978 10.2702485,4.16819928 C10.3370262,4.19565894 10.3624136,4.2278706 10.3621424,4.29915614 C10.359864,4.87823921 10.3598097,5.45726804 10.3619796,6.03635111 C10.3621966,6.10589532 10.3431018,6.13236769 10.2700315,6.14489867 C9.74524936,6.2345684 9.24482394,6.39947824 8.7763498,6.65438328 C7.85979827,7.15301856 7.16554954,7.86668759 6.6995165,8.80244244 C6.44575064,9.31192706 6.32179702,9.79596998 6.24536348,10.2452408 C5.56586984,10.2452408 4.88514481,10.2452408 4.19654858,10.2452408 C3.97808102,9.68362516 3.60066532,9.26066396 3.0438939,9.01150906 C2.57953708,8.80374436 2.09716495,8.7675076 1.60462157,8.89759108 C0.668866717,9.14468461 -0.0737841343,10.0282542 0.012205498,11.1585375 C0.087642528,12.1500037 0.818978069,12.9367972 1.76810472,13.103443 C2.90490853,13.3030707 3.83057893,12.6472828 4.17479025,11.7686497 C4.20000409,11.7669138 4.22770244,11.7632793 4.25541705,11.7632793 C4.89131265,11.763008 5.52719198,11.7641472 6.16312555,11.7617061 C6.2401558,11.7613806 6.26483803,11.7786853 6.28116628,11.8630389 C6.46283833,12.8012891 6.87543841,13.6223665 7.5362712,14.3179171 C8.09316739,14.9041065 8.75237278,15.3294003 9.51752189,15.5849021 C9.76022144,15.6660008 10.0144213,15.7133582 10.2647154,15.7703172 C10.3300826,15.7851807 10.3620339,15.8037874 10.3617084,15.8784308 C10.3590503,16.4433012 10.3594843,17.0081717 10.3619796,17.5729879 C10.3622508,17.6415014 10.3346393,17.6696012 10.2741543,17.6962905 C9.52234984,18.0282258 9.07514039,18.6073089 8.94874568,19.412926 C8.84811813,20.0543385 9.01432989,20.6413416 9.4255738,21.1495243 C9.78712778,21.5962997 10.2597789,21.8547851 10.827199,21.9285063 C11.6657438,22.0373793 12.5098218,21.6065524 12.9341391,20.8740597 C13.1412529,20.5164658 13.2557133,20.1315315 13.240687,19.7231084 C13.2067286,18.7993421 12.7805126,18.1174073 11.9351327,17.7165245 C11.8653715,17.683434 11.8351561,17.6498554 11.8356986,17.5687024 C11.8396043,17.0109925 11.8391704,16.4532283 11.8360783,15.8954642 C11.8356443,15.81404 11.853166,15.7830651 11.9425645,15.7676591 C12.8013433,15.6198369 13.5894388,15.3018973 14.2830908,14.7670795 C14.4257053,14.6571215 14.5598572,14.5362599 14.7108799,14.4095397 L14.7108799,14.4095397 Z" id="path14"></path>
                            <path d="M19.9558266,10.1390258 C19.9989526,10.1434198 20.0569423,10.1416297 20.1105923,10.1560593 C20.6441624,10.2992162 20.8836614,10.902873 20.6132418,11.418596 C20.3982623,11.8286465 19.9100424,11.9509185 19.5289596,11.6900463 C19.1866089,11.455755 19.0717145,10.9503389 19.2813779,10.5633975 C19.4218767,10.3040442 19.6351203,10.1462949 19.9558266,10.1390258 Z M10.3376229,10.9834836 C10.3479297,10.9104133 10.3530832,10.8360954 10.3693572,10.7643813 C10.4983015,10.1976122 11.1369474,9.95160365 11.5746094,10.2988908 C11.9238494,10.5760369 11.9963229,11.1397139 11.7262831,11.5032208 C11.5426039,11.7503686 11.2968123,11.876709 10.9891252,11.8155188 C10.5988748,11.7378918 10.3455429,11.3977653 10.3376229,10.9834836 L10.3376229,10.9834836 Z M21.9911612,10.7902027 C21.9890455,10.351293 21.7641389,9.80508342 21.300113,9.36818084 C20.9806002,9.06732888 20.5976188,8.8931971 20.1565392,8.83987264 C19.2208386,8.72671411 18.365206,9.29798566 18.0299617,10.1407617 C18.0005058,10.2146999 17.9638893,10.2320589 17.8908733,10.2319504 C16.3028024,10.230106 14.7147314,10.2301602 13.1266605,10.2319504 C13.0566823,10.2320589 13.025816,10.2135608 12.9964686,10.1442878 C12.7252895,9.5042857 12.2658746,9.06993271 11.5866522,8.88685024 C10.8449376,8.68689706 9.99662837,8.97798463 9.52191587,9.58093623 C9.20902115,9.9784015 9.03944609,10.4297879 9.02968169,10.9295624 C9.00950194,11.9642631 9.68454735,12.9193298 10.7463172,13.1078912 C11.6951997,13.2764356 12.5517545,12.7648353 12.9441748,11.9475009 C12.9594181,11.9157666 12.9746614,11.8839781 12.9884401,11.8515386 C13.0586895,11.6863575 13.0584725,11.6863033 13.2322245,11.6863033 C14.7563386,11.6863033 16.280507,11.6884189 17.8046211,11.6825603 C17.9377424,11.6820178 17.9926942,11.7257406 18.0419502,11.8430219 C18.3138887,12.4906185 18.7842615,12.9280635 19.4739535,13.0829377 C20.2955191,13.2674306 20.98277,13.0087283 21.5157977,12.3629761 C21.8420371,11.9677892 21.9909984,11.5013764 21.9911612,10.7902027 L21.9911612,10.7902027 Z" id="path16"></path>
                        </g>
                    </g>
                </g>
                <g id="Dynamic-Hex" stroke="#1D8E96" stroke-width="4">
                    <path d="M45.5618501,3.25844398 L45.5621963,3.25823359 L6.67338401,26.8942953 C3.79673288,28.6432593 2,31.9508238 2,35.5582677 L2,82.4417323 C2,86.0486597 3.79764663,89.3586805 6.67318764,91.1055853 L45.560618,114.742485 C46.9289662,115.572418 48.4546283,116 50,116 C51.5458817,116 53.0723633,115.572188 54.4362178,114.743457 L93.3268764,91.1055464 C96.2016145,89.3583456 98,86.0476286 98,82.4417323 L98,35.5582677 C98,31.9518547 96.202529,28.6435953 93.3268966,26.8944659 L54.4351916,3.25759524 C53.0721095,2.42798656 51.5462432,2 50,2 C48.4542664,2 46.9292165,2.42775755 45.5618501,3.25844398 Z" id="Azure-Hex-Border"></path>
                </g>
            </g>
        </g>
    </g>
</svg>