<?xml version="1.0" encoding="UTF-8"?>
<svg width="100px" height="118px" viewBox="0 0 100 118" version="1.1" xmlns="http://www.w3.org/2000/svg" xmlns:xlink="http://www.w3.org/1999/xlink">
    <!-- Generator: Sketch 55.2 (78181) - https://sketchapp.com -->
    <title>Set up financial management in Microsoft Dynamics 365 Business Central/set-up-financial-management-in-microsoft-dynamics-365-business-central</title>
    <desc>Created with Sketch.</desc>
    <defs>
        <path d="M42.7425,1.49663266 C44.3745,0.498877554 46.1865,0 48,0 C49.8135,0 51.627,0.498877554 53.256,1.49663266 L90.591,24.3316189 C93.933,26.3773408 96,30.2031485 96,34.3529027 L96,79.6470973 C96,83.7952317 93.933,87.6242789 90.591,89.6683811 L53.256,112.504987 C51.627,113.501122 49.8135,114 48,114 C46.1865,114 44.3745,113.501122 42.7425,112.504987 L5.409,89.6683811 C2.0655,87.6242789 0,83.7952317 0,79.6470973 L0,34.3529027 C0,30.2031485 2.0655,26.3773408 5.409,24.3316189 L42.7425,1.49663266 Z" id="path-1"></path>
        <filter x="-5.2%" y="-6.9%" width="110.3%" height="112.6%" filterUnits="objectBoundingBox" id="filter-3">
            <feOffset dx="0" dy="2" in="SourceAlpha" result="shadowOffsetOuter1"></feOffset>
            <feColorMatrix values="0 0 0 0 0   0 0 0 0 0   0 0 0 0 0  0 0 0 0.099732299 0" type="matrix" in="shadowOffsetOuter1" result="shadowMatrixOuter1"></feColorMatrix>
            <feMerge>
                <feMergeNode in="shadowMatrixOuter1"></feMergeNode>
                <feMergeNode in="SourceGraphic"></feMergeNode>
            </feMerge>
        </filter>
    </defs>
    <g id="Badges" stroke="none" stroke-width="1" fill="none" fill-rule="evenodd">
        <g id="Set-up-financial-management-in-Microsoft-Dynamics-365-Business-Central" transform="translate(-50.000000, -50.000000)">
            <g id="Set-up-financial-management-in-Microsoft-Dynamics-365-Business-Central/set-up-financial-management-in-microsoft-dynamics-365-business-central" transform="translate(50.000000, 50.000000)">
                <g id="Mask" transform="translate(2.000000, 2.000000)">
                    <mask id="mask-2" fill="white">
                        <use xlink:href="#path-1"></use>
                    </mask>
                    <use id="Trophy-1" fill="#01B6C3" xlink:href="#path-1"></use>
                    <g id="Group-51" filter="url(#filter-3)" mask="url(#mask-2)">
                        <g transform="translate(-9.644065, 18.000000)">
                            <polyline id="Path-5" stroke="#FFFFFF" stroke-width="5" fill="none" stroke-linejoin="round" points="0.413295629 87 23.1671418 19.9588235 55.2902187 76.2734118 66.9141483 39.3770709"></polyline>
                            <path d="M87,28 L87.002,22.057 C87.001,22.097 86.995,22.136 86.993,22.175 C86.995,22.117 87.004,22.059 87.004,22 L87,22 L87.002,16.057 C86.926,21.001 77.109,25 65.005,25 C52.855,25 43.005,20.971 43.005,16 L43.003,22 C43.003,22.01 43.005,22.019 43.005,22.029 L43.005,23.084 C43.664,23.034 44.328,23 45,23 C59.359,23 71,34.641 71,49 C71,53.294 69.953,57.34 68.11,60.909 C78.788,60.291 87.004,56.539 87.004,52 L87,52 L87.002,46.057 C87.001,46.097 86.995,46.136 86.993,46.175 C86.995,46.117 87.004,46.059 87.004,46 L87,46 L87.002,40.057 C87.001,40.097 86.995,40.136 86.993,40.175 C86.995,40.117 87.004,40.059 87.004,40 L87,40 L87.002,34.057 C87.001,34.097 86.995,34.136 86.993,34.175 C86.995,34.117 87.004,34.059 87.004,34 L87,34 L87.002,28.057 C87.001,28.097 86.995,28.136 86.993,28.175 C86.995,28.117 87.004,28.059 87.004,28 L87,28" id="Fill-400" stroke="none" fill="#EFB252" fill-rule="evenodd"></path>
                            <path d="M87,16 C87,20.971 77.15,25 65,25 C52.85,25 43,20.971 43,16 C43,11.029 52.85,7 65,7 C77.15,7 87,11.029 87,16" id="Fill-401" stroke="none" fill="#F7CB64" fill-rule="evenodd"></path>
                            <path d="M65.005,21 C55.617,21 48.007,18.761 48.007,16 C48.007,13.239 55.617,11 65.005,11 C74.393,11 82.003,13.239 82.003,16 C82.003,18.761 74.393,21 65.005,21 Z M65.005,9 C53.961,9 45.007,12.134 45.007,16 C45.007,19.866 53.961,23 65.005,23 C76.05,23 85.003,19.866 85.003,16 C85.003,12.134 76.05,9 65.005,9 L65.005,9 Z" id="Fill-402" stroke="none" fill="#F2BE53" fill-rule="evenodd"></path>
                            <path d="M44.994,30.999 C54.926,31.002 62.996,39.056 62.998,49 C62.998,58.943 54.939,66.997 44.997,67 C35.056,66.997 27,58.943 26.995,49 C26.994,39.055 35.055,30.998 44.994,30.999 Z M45.003,71.0000019 C57.154,71.002 67,61.153 67,49.001 C67.001,36.853 57.155,26.994 45.004,26.9989981 C32.852,26.994 23,36.853 23,49.001 C23,61.145 32.852,71.005 45.003,71.0000019 L45.003,71.0000019 Z" id="Fill-404" stroke="none" fill="#EFB252" fill-rule="evenodd"></path>
                            <path d="M44.994,30.998 C54.926,31.001 62.996,39.055 62.998,48.999 C62.998,58.943 54.939,66.997 44.997,66.999 C35.056,66.997 27,58.943 26.995,48.999 C26.994,39.054 35.055,30.998 44.994,30.998" id="Fill-405" stroke="none" fill="#F7CB64" fill-rule="evenodd"></path>
                            <path d="M39.947,66.267 L53.1,32.946 C50.661,31.711 47.912,30.999 44.994,30.998 C44.607,30.998 44.228,31.032 43.846,31.056 L31.9,61.32 C34.068,63.624 36.828,65.356 39.947,66.267" id="Fill-406" stroke="none" fill="#F2BE53" fill-rule="evenodd"></path>
                            <path d="M57.034,35.648 L44.665,66.983 C44.776,66.985 44.885,66.999 44.997,67 C54.939,66.997 62.998,58.943 62.998,49 C62.997,43.694 60.685,38.942 57.034,35.648" id="Fill-407" stroke="none" fill="#F2BE53" fill-rule="evenodd"></path>
                            <path d="M87,17 L87,16.077 C86.899,21.012 77.093,25 65.005,25 C65.005,25 65.004,25 65.003,25 C52.854,25 43.005,20.97 43.005,16 L43.004,21.005 C43.005,21.706 43.223,22.384 43.594,23.039 C44.06,23.014 44.528,23 45,23 C51.829,23 58.04,25.637 62.68,29.943 C62.847,29.95 63.01,29.964 63.178,29.969 C64.174,30.003 65.003,29.101 65.003,27.969 C65.003,26.893 65.754,26.003 66.7,25.974 C78.03,25.62 86.959,21.755 87.002,17.033 L87.002,17 L87,17" id="Fill-409" stroke="none" fill="#F2BE53" fill-rule="evenodd"></path>
                            <path d="M43.166,23.072 C43.064,22.72 43.005,22.363 43.005,22 L43.005,23.084 C43.058,23.08 43.112,23.075 43.166,23.072" id="Fill-410" stroke="none" fill="#F2BE53" fill-rule="evenodd"></path>
                            <path d="M87,23 L87,22.077 C86.899,27.012 77.093,31 65.005,31 C65.005,31 65.004,31 65.003,31 C64.578,31 64.156,30.994 63.736,30.984 C64.297,31.567 64.831,32.175 65.336,32.809 C65.643,32.32 66.134,31.991 66.7,31.974 C78.03,31.62 86.959,27.755 87.002,23.033 L87.002,23 L87,23" id="Fill-411" stroke="none" fill="#F2BE53" fill-rule="evenodd"></path>
                            <path d="M87,29 L87,28.077 C86.907,32.594 78.681,36.316 68.019,36.914 C68.187,37.233 68.351,37.555 68.506,37.882 C78.963,37.196 86.962,33.501 87.002,29.033 L87.002,29 L87,29" id="Fill-412" stroke="none" fill="#F2BE53" fill-rule="evenodd"></path>
                            <path d="M87,35 L87,34.077 C86.914,38.275 79.801,41.787 70.237,42.742 C70.317,43.064 70.394,43.388 70.461,43.715 C79.943,42.723 86.964,39.218 87.002,35.033 L87.002,35 L87,35" id="Fill-413" stroke="none" fill="#F2BE53" fill-rule="evenodd"></path>
                            <path d="M87,41 L87,40.077 C86.916,44.164 80.172,47.599 70.991,48.66 C70.993,48.774 71,48.886 71,49 C71,49.221 70.989,49.44 70.983,49.66 C80.201,48.597 86.965,45.141 87.002,41.033 L87.002,41 L87,41" id="Fill-414" stroke="none" fill="#F2BE53" fill-rule="evenodd"></path>
                            <path d="M87,47 L87,46.077 C86.914,50.258 79.862,53.758 70.359,54.73 C70.282,55.072 70.201,55.411 70.111,55.747 C79.768,54.806 86.964,51.269 87.002,47.033 L87.002,47 L87,47" id="Fill-415" stroke="none" fill="#F2BE53" fill-rule="evenodd"></path>
                            <polyline id="Path-5" stroke="#FFFFFF" stroke-width="5" fill="none" stroke-linejoin="round" points="66.9141483 39.4058824 78.0440649 2.67220906 98.1209879 29.3942997 115.520988 4.26325641e-14"></polyline>
                        </g>
                    </g>
                </g>
                <g id="Dynamic-Hex" stroke="#1D8E96" stroke-width="4">
                    <path d="M45.5618501,3.25844398 L45.5621963,3.25823359 L6.67338401,26.8942953 C3.79673288,28.6432593 2,31.9508238 2,35.5582677 L2,82.4417323 C2,86.0486597 3.79764663,89.3586805 6.67318764,91.1055853 L45.560618,114.742485 C46.9289662,115.572418 48.4546283,116 50,116 C51.5458817,116 53.0723633,115.572188 54.4362178,114.743457 L93.3268764,91.1055464 C96.2016145,89.3583456 98,86.0476286 98,82.4417323 L98,35.5582677 C98,31.9518547 96.202529,28.6435953 93.3268966,26.8944659 L54.4351916,3.25759524 C53.0721095,2.42798656 51.5462432,2 50,2 C48.4542664,2 46.9292165,2.42775755 45.5618501,3.25844398 Z" id="Azure-Hex-Border"></path>
                </g>
            </g>
        </g>
    </g>
</svg>