<?xml version="1.0" encoding="UTF-8"?>
<svg width="100px" height="100px" viewBox="0 0 100 100" version="1.1" xmlns="http://www.w3.org/2000/svg" xmlns:xlink="http://www.w3.org/1999/xlink">
    <!-- Generator: Sketch 55.2 (78181) - https://sketchapp.com -->
    <title>Replenish items in Microsoft Dynamics 365 Business Central/set-up-inventory-replenishment-in-dynamics-365-business-central</title>
    <desc>Created with Sketch.</desc>
    <defs>
        <rect id="path-1" x="0" y="0" width="96" height="96" rx="48"></rect>
        <filter x="-19.0%" y="-21.8%" width="138.1%" height="146.8%" filterUnits="objectBoundingBox" id="filter-3">
            <feOffset dx="0" dy="2" in="SourceAlpha" result="shadowOffsetOuter1"></feOffset>
            <feColorMatrix values="0 0 0 0 0   0 0 0 0 0   0 0 0 0 0  0 0 0 0.0992980072 0" type="matrix" in="shadowOffsetOuter1" result="shadowMatrixOuter1"></feColorMatrix>
            <feMerge>
                <feMergeNode in="shadowMatrixOuter1"></feMergeNode>
                <feMergeNode in="SourceGraphic"></feMergeNode>
            </feMerge>
        </filter>
        <filter x="-18.2%" y="-21.8%" width="136.4%" height="146.8%" filterUnits="objectBoundingBox" id="filter-4">
            <feOffset dx="0" dy="2" in="SourceAlpha" result="shadowOffsetOuter1"></feOffset>
            <feColorMatrix values="0 0 0 0 0   0 0 0 0 0   0 0 0 0 0  0 0 0 0.0992980072 0" type="matrix" in="shadowOffsetOuter1" result="shadowMatrixOuter1"></feColorMatrix>
            <feMerge>
                <feMergeNode in="shadowMatrixOuter1"></feMergeNode>
                <feMergeNode in="SourceGraphic"></feMergeNode>
            </feMerge>
        </filter>
        <filter x="-19.0%" y="-21.8%" width="138.1%" height="146.8%" filterUnits="objectBoundingBox" id="filter-5">
            <feOffset dx="0" dy="2" in="SourceAlpha" result="shadowOffsetOuter1"></feOffset>
            <feColorMatrix values="0 0 0 0 0   0 0 0 0 0   0 0 0 0 0  0 0 0 0.0992980072 0" type="matrix" in="shadowOffsetOuter1" result="shadowMatrixOuter1"></feColorMatrix>
            <feMerge>
                <feMergeNode in="shadowMatrixOuter1"></feMergeNode>
                <feMergeNode in="SourceGraphic"></feMergeNode>
            </feMerge>
        </filter>
        <path d="M73.4912777,56.7520794 L76.8994949,56.7520794 L71.9497475,61.7018268 L67,56.7520794 L70.4912777,56.7520794 L70.4912777,50.2520794 L73.4912777,50.2520794 L73.4912777,56.7520794 Z" id="path-6"></path>
        <filter x="-10.1%" y="-8.7%" width="120.2%" height="134.9%" filterUnits="objectBoundingBox" id="filter-7">
            <feOffset dx="0" dy="2" in="SourceAlpha" result="shadowOffsetOuter1"></feOffset>
            <feColorMatrix values="0 0 0 0 0   0 0 0 0 0   0 0 0 0 0  0 0 0 0.1 0" type="matrix" in="shadowOffsetOuter1"></feColorMatrix>
        </filter>
    </defs>
    <g id="Badges" stroke="none" stroke-width="1" fill="none" fill-rule="evenodd">
        <g id="Replenish-items-in-Microsoft-Dynamics-365-Business-Central" transform="translate(-50.000000, -660.000000)">
            <g id="Replenish-items-in-Microsoft-Dynamics-365-Business-Central/set-up-inventory-replenishment-in-dynamics-365-business-central" transform="translate(50.000000, 660.000000)">
                <g id="Mask" transform="translate(2.000000, 2.000000)">
                    <mask id="mask-2" fill="white">
                        <use xlink:href="#path-1"></use>
                    </mask>
                    <use id="BG" fill="#01B6C3" xlink:href="#path-1"></use>
                    <g id="Paper-Box" filter="url(#filter-3)" mask="url(#mask-2)">
                        <g transform="translate(13.000000, 44.399841)">
                            <path d="M21,2.85223836 L0,2.85223836 L2.10032813,1.25223836 C2.38907813,1.03223836 2.92064063,0.852238357 3.28157813,0.852238357 L17.7190781,0.852238357 C18.0800156,0.852238357 18.6115781,1.03223836 18.9003281,1.25223836 L21,2.85223836" id="Fill-680" fill="#CC9547"></path>
                            <path d="M20.9996719,18.2122384 C20.9996719,18.5642384 20.704364,18.8522384 20.3434321,18.8522384 L0.656239746,18.8522384 C0.294979766,18.8522384 0,18.5642384 0,18.2122384 L0.000328119873,2.85223836 L21,2.85223836 L20.9996719,18.2122384" id="Fill-681" fill="#F2BE53"></path>
                            <polyline id="Fill-682" fill="#EFB252" points="15 2.85223836 6 2.85223836 7.125 0.852238357 13.875 0.852238357 15 2.85223836"></polyline>
                            <path d="M20.3434321,18.8522384 C20.704364,18.8522384 20.9996719,18.5522384 20.9996719,18.1855717 L21,2.85223836 L11.4841956,2.85223836 C10.9405009,2.85223836 10.4998359,3.29890502 10.4998359,3.85223836 L10.4998359,17.1855717 C10.4998359,17.738905 10.059171,18.1855717 9.51547632,18.1855717 L0,18.1855717 C0,18.5522384 0.294979766,18.8522384 0.656239746,18.8522384 L20.3434321,18.8522384" id="Fill-683" fill="#EFB252"></path>
                            <path d="M6,2.85223836 L6,7.67235226 C6,7.82515126 6.135,7.87515821 6.3,7.78347881 L7.2,7.28340935 C7.365,7.19172995 7.635,7.19172995 7.8,7.28340935 L8.7,7.78347881 C8.865,7.87515821 9.135,7.87515821 9.3,7.78347881 L10.2,7.28340935 C10.365,7.19172995 10.635,7.19172995 10.8,7.28340935 L11.7,7.78347881 C11.865,7.87515821 12.135,7.87515821 12.3,7.78347881 L13.2,7.28340935 C13.365,7.19172995 13.635,7.19172995 13.8,7.28340935 L14.7,7.78347881 C14.865,7.87515821 15,7.82515126 15,7.67235226 L15,2.85223836 L6,2.85223836" id="Fill-684" fill="#F7CB64"></path>
                            <path d="M11,2.85223836 C11.0065997,2.85927925 11.0067841,3.2710538 11.0067841,3.78988486 L11.0067841,7.13415741 C11.1274434,7.13415741 11.2485188,7.1622868 11.3400535,7.21229462 L12.3386134,7.77488252 C12.5216828,7.87802364 12.8212508,7.87802364 13.0043201,7.77488252 L14.0028801,7.21229462 C14.1859494,7.1091535 14.4855174,7.1091535 14.6685867,7.21229462 L15.6671467,7.77488252 C15.850216,7.87802364 16,7.82176485 16,7.64986299 L16,2.85223836 L12.254984,2.85223836 L11,2.85223836 Z" id="Fill-685" fill="#F2BE53"></path>
                        </g>
                    </g>
                    <g id="Paper-Box" filter="url(#filter-4)" mask="url(#mask-2)">
                        <g transform="translate(37.000000, 44.399841)">
                            <path d="M22,2.85223836 L0,2.85223836 L2.20034375,1.25223836 C2.50284375,1.03223836 3.05971875,0.852238357 3.43784375,0.852238357 L18.5628438,0.852238357 C18.9409687,0.852238357 19.4978438,1.03223836 19.8003437,1.25223836 L22,2.85223836" id="Fill-680" fill="#CC9547"></path>
                            <path d="M21.9996563,18.2122384 C21.9996563,18.5642384 21.6902861,18.8522384 21.312167,18.8522384 L0.687489258,18.8522384 C0.309026421,18.8522384 0,18.5642384 0,18.2122384 L0.000343744629,2.85223836 L22,2.85223836 L21.9996563,18.2122384" id="Fill-681" fill="#F2BE53"></path>
                            <polyline id="Fill-682" fill="#EFB252" points="16 2.85223836 7 2.85223836 8.125 0.852238357 14.875 0.852238357 16 2.85223836"></polyline>
                            <path d="M21.312167,18.8522384 C21.6902861,18.8522384 21.9996563,18.5522384 21.9996563,18.1855717 L22,2.85223836 L12.031062,2.85223836 C11.4614772,2.85223836 10.9998281,3.29890502 10.9998281,3.85223836 L10.9998281,17.1855717 C10.9998281,17.738905 10.5381791,18.1855717 9.96859424,18.1855717 L0,18.1855717 C0,18.5522384 0.309026421,18.8522384 0.687489258,18.8522384 L21.312167,18.8522384" id="Fill-683" fill="#EFB252"></path>
                            <path d="M7,2.85223836 L7,7.67235226 C7,7.82515126 7.135,7.87515821 7.3,7.78347881 L8.2,7.28340935 C8.365,7.19172995 8.635,7.19172995 8.8,7.28340935 L9.7,7.78347881 C9.865,7.87515821 10.135,7.87515821 10.3,7.78347881 L11.2,7.28340935 C11.365,7.19172995 11.635,7.19172995 11.8,7.28340935 L12.7,7.78347881 C12.865,7.87515821 13.135,7.87515821 13.3,7.78347881 L14.2,7.28340935 C14.365,7.19172995 14.635,7.19172995 14.8,7.28340935 L15.7,7.78347881 C15.865,7.87515821 16,7.82515126 16,7.67235226 L16,2.85223836 L7,2.85223836" id="Fill-684" fill="#F7CB64"></path>
                            <path d="M12,2.85223836 C12.0065997,2.85927925 12.0067841,3.2710538 12.0067841,3.78988486 L12.0067841,7.13415741 C12.1274434,7.13415741 12.2485188,7.1622868 12.3400535,7.21229462 L13.3386134,7.77488252 C13.5216828,7.87802364 13.8212508,7.87802364 14.0043201,7.77488252 L15.0028801,7.21229462 C15.1859494,7.1091535 15.4855174,7.1091535 15.6685867,7.21229462 L16.6671467,7.77488252 C16.850216,7.87802364 17,7.82176485 17,7.64986299 L17,2.85223836 L13.254984,2.85223836 L12,2.85223836 Z" id="Fill-685" fill="#F2BE53"></path>
                        </g>
                    </g>
                    <g id="Paper-Box" filter="url(#filter-5)" mask="url(#mask-2)">
                        <g transform="translate(61.000000, 27.000000)">
                            <path d="M21,2.25207937 L0,2.25207937 L2.10032813,0.652079375 C2.38907813,0.432079375 2.92064063,0.252079375 3.28157813,0.252079375 L17.7190781,0.252079375 C18.0800156,0.252079375 18.6115781,0.432079375 18.9003281,0.652079375 L21,2.25207937" id="Fill-680" fill="#CC9547"></path>
                            <path d="M20.9996719,17.6120794 C20.9996719,17.9640794 20.704364,18.2520794 20.3434321,18.2520794 L0.656239746,18.2520794 C0.294979766,18.2520794 0,17.9640794 0,17.6120794 L0.000328119873,2.25207937 L21,2.25207937 L20.9996719,17.6120794" id="Fill-681" fill="#F2BE53"></path>
                            <polyline id="Fill-682" fill="#EFB252" points="15 2.25207937 6 2.25207937 7.125 0.252079375 13.875 0.252079375 15 2.25207937"></polyline>
                            <path d="M20.3434321,18.2520794 C20.704364,18.2520794 20.9996719,17.9520794 20.9996719,17.5854127 L21,2.25207937 L11.4841956,2.25207937 C10.9405009,2.25207937 10.4998359,2.69874604 10.4998359,3.25207937 L10.4998359,16.5854127 C10.4998359,17.138746 10.059171,17.5854127 9.51547632,17.5854127 L0,17.5854127 C0,17.9520794 0.294979766,18.2520794 0.656239746,18.2520794 L20.3434321,18.2520794" id="Fill-683" fill="#EFB252"></path>
                            <path d="M6,3.25207937 L6,8.07219328 C6,8.22499228 6.135,8.27499922 6.3,8.18331982 L7.2,7.68325037 C7.365,7.59157097 7.635,7.59157097 7.8,7.68325037 L8.7,8.18331982 C8.865,8.27499922 9.135,8.27499922 9.3,8.18331982 L10.2,7.68325037 C10.365,7.59157097 10.635,7.59157097 10.8,7.68325037 L11.7,8.18331982 C11.865,8.27499922 12.135,8.27499922 12.3,8.18331982 L13.2,7.68325037 C13.365,7.59157097 13.635,7.59157097 13.8,7.68325037 L14.7,8.18331982 C14.865,8.27499922 15,8.22499228 15,8.07219328 L15,3.25207937 L6,3.25207937" id="Fill-684" fill="#F7CB64"></path>
                            <path d="M11,3.25207937 C11.0065997,3.25912026 11.0067841,3.67089481 11.0067841,4.18972588 L11.0067841,7.53399842 C11.1274434,7.53399842 11.2485188,7.56212782 11.3400535,7.61213563 L12.3386134,8.17472354 C12.5216828,8.27786465 12.8212508,8.27786465 13.0043201,8.17472354 L14.0028801,7.61213563 C14.1859494,7.50899452 14.4855174,7.50899452 14.6685867,7.61213563 L15.6671467,8.17472354 C15.850216,8.27786465 16,8.22160586 16,8.049704 L16,3.25207937 L12.254984,3.25207937 L11,3.25207937 Z" id="Fill-685" fill="#F2BE53"></path>
                        </g>
                    </g>
                    <g id="Combined-Shape" mask="url(#mask-2)">
                        <use fill="black" fill-opacity="1" filter="url(#filter-7)" xlink:href="#path-6"></use>
                        <use fill="#FFFFFF" fill-rule="evenodd" xlink:href="#path-6"></use>
                    </g>
                </g>
                <g id="Dynamic-Border" stroke="#1D8E96" stroke-width="4">
                    <rect id="Azure-Border" x="2" y="2" width="96" height="96" rx="48"></rect>
                </g>
            </g>
        </g>
    </g>
</svg>