<?xml version="1.0" encoding="UTF-8"?>
<svg width="100px" height="100px" viewBox="0 0 100 100" version="1.1" xmlns="http://www.w3.org/2000/svg" xmlns:xlink="http://www.w3.org/1999/xlink">
    <!-- Generator: Sketch 55.2 (78181) - https://sketchapp.com -->
    <title>Replenish items in Microsoft Dynamics 365 Business Central/set-up-inventory-planning-in-dynamics-365-business-central</title>
    <desc>Created with Sketch.</desc>
    <defs>
        <rect id="path-1" x="0" y="0" width="96" height="96" rx="48"></rect>
        <filter x="-21.1%" y="-23.5%" width="142.1%" height="147.1%" filterUnits="objectBoundingBox" id="filter-3">
            <feOffset dx="0" dy="2" in="SourceAlpha" result="shadowOffsetOuter1"></feOffset>
            <feColorMatrix values="0 0 0 0 0   0 0 0 0 0   0 0 0 0 0  0 0 0 0.0992980072 0" type="matrix" in="shadowOffsetOuter1" result="shadowMatrixOuter1"></feColorMatrix>
            <feMerge>
                <feMergeNode in="shadowMatrixOuter1"></feMergeNode>
                <feMergeNode in="SourceGraphic"></feMergeNode>
            </feMerge>
        </filter>
        <filter x="-21.1%" y="-23.5%" width="142.1%" height="147.1%" filterUnits="objectBoundingBox" id="filter-4">
            <feOffset dx="0" dy="2" in="SourceAlpha" result="shadowOffsetOuter1"></feOffset>
            <feColorMatrix values="0 0 0 0 0   0 0 0 0 0   0 0 0 0 0  0 0 0 0.0992980072 0" type="matrix" in="shadowOffsetOuter1" result="shadowMatrixOuter1"></feColorMatrix>
            <feMerge>
                <feMergeNode in="shadowMatrixOuter1"></feMergeNode>
                <feMergeNode in="SourceGraphic"></feMergeNode>
            </feMerge>
        </filter>
        <filter x="-21.1%" y="-23.5%" width="142.1%" height="147.1%" filterUnits="objectBoundingBox" id="filter-5">
            <feOffset dx="0" dy="2" in="SourceAlpha" result="shadowOffsetOuter1"></feOffset>
            <feColorMatrix values="0 0 0 0 0   0 0 0 0 0   0 0 0 0 0  0 0 0 0.0992980072 0" type="matrix" in="shadowOffsetOuter1" result="shadowMatrixOuter1"></feColorMatrix>
            <feMerge>
                <feMergeNode in="shadowMatrixOuter1"></feMergeNode>
                <feMergeNode in="SourceGraphic"></feMergeNode>
            </feMerge>
        </filter>
        <filter x="-21.1%" y="-23.5%" width="142.1%" height="147.1%" filterUnits="objectBoundingBox" id="filter-6">
            <feOffset dx="0" dy="2" in="SourceAlpha" result="shadowOffsetOuter1"></feOffset>
            <feColorMatrix values="0 0 0 0 0   0 0 0 0 0   0 0 0 0 0  0 0 0 0.0992980072 0" type="matrix" in="shadowOffsetOuter1" result="shadowMatrixOuter1"></feColorMatrix>
            <feMerge>
                <feMergeNode in="shadowMatrixOuter1"></feMergeNode>
                <feMergeNode in="SourceGraphic"></feMergeNode>
            </feMerge>
        </filter>
        <filter x="-21.1%" y="-23.5%" width="142.1%" height="147.1%" filterUnits="objectBoundingBox" id="filter-7">
            <feOffset dx="0" dy="2" in="SourceAlpha" result="shadowOffsetOuter1"></feOffset>
            <feColorMatrix values="0 0 0 0 0   0 0 0 0 0   0 0 0 0 0  0 0 0 0.0992980072 0" type="matrix" in="shadowOffsetOuter1" result="shadowMatrixOuter1"></feColorMatrix>
            <feMerge>
                <feMergeNode in="shadowMatrixOuter1"></feMergeNode>
                <feMergeNode in="SourceGraphic"></feMergeNode>
            </feMerge>
        </filter>
        <path d="M19,9.5 C19,14.7461923 14.7469231,19 9.5,19 C4.25380769,19 0,14.7461923 0,9.5 C0,4.25380769 4.25380769,0 9.5,0 C14.7469231,0 19,4.25380769 19,9.5" id="path-8"></path>
        <filter x="-5.3%" y="-5.3%" width="110.5%" height="121.1%" filterUnits="objectBoundingBox" id="filter-9">
            <feOffset dx="0" dy="2" in="SourceAlpha" result="shadowOffsetOuter1"></feOffset>
            <feColorMatrix values="0 0 0 0 0   0 0 0 0 0   0 0 0 0 0  0 0 0 0.1 0" type="matrix" in="shadowOffsetOuter1"></feColorMatrix>
        </filter>
    </defs>
    <g id="Badges" stroke="none" stroke-width="1" fill="none" fill-rule="evenodd">
        <g id="Replenish-items-in-Microsoft-Dynamics-365-Business-Central" transform="translate(-50.000000, -460.000000)">
            <g id="Replenish-items-in-Microsoft-Dynamics-365-Business-Central/set-up-inventory-planning-in-dynamics-365-business-central" transform="translate(50.000000, 460.000000)">
                <g id="Mask" transform="translate(2.000000, 2.000000)">
                    <mask id="mask-2" fill="white">
                        <use xlink:href="#path-1"></use>
                    </mask>
                    <use id="BG" fill="#01B6C3" xlink:href="#path-1"></use>
                    <g id="Group-2" mask="url(#mask-2)">
                        <g transform="translate(17.000000, 16.000000)" id="Paper-Box">
                            <g filter="url(#filter-3)" transform="translate(0.000000, 39.000000)">
                                <path d="M19,2 L0,2 L1.90029688,0.4 C2.16154688,0.18 2.64248438,0 2.96904688,0 L16.0315469,0 C16.3581094,0 16.8390469,0.18 17.1002969,0.4 L19,2" id="Fill-680" fill="#CC9547"></path>
                                <path d="M18.9997031,16.4 C18.9997031,16.73 18.7325198,17 18.4059624,17 L0.593740723,17 C0.266886455,17 0,16.73 0,16.4 L0.000296870361,2 L19,2 L18.9997031,16.4" id="Fill-681" fill="#F2BE53"></path>
                                <polyline id="Fill-682" fill="#EFB252" points="14 2 6 2 7 0 13 0 14 2"></polyline>
                                <path d="M18.4059624,17 C18.7325198,17 18.9997031,16.71875 18.9997031,16.375 L19,2 L10.3904626,2 C9.89854846,2 9.49985156,2.41875 9.49985156,2.9375 L9.49985156,15.4375 C9.49985156,15.95625 9.10115467,16.375 8.60924048,16.375 L0,16.375 C0,16.71875 0.266886455,17 0.593740723,17 L18.4059624,17" id="Fill-683" fill="#EFB252"></path>
                                <path d="M6,2 L6,6.8201139 C6,6.9729129 6.12,7.02291985 6.26666667,6.93124045 L7.06666667,6.431171 C7.21333333,6.3394916 7.45333333,6.3394916 7.6,6.431171 L8.4,6.93124045 C8.54666667,7.02291985 8.78666667,7.02291985 8.93333333,6.93124045 L9.73333333,6.431171 C9.88,6.3394916 10.12,6.3394916 10.2666667,6.431171 L11.0666667,6.93124045 C11.2133333,7.02291985 11.4533333,7.02291985 11.6,6.93124045 L12.4,6.431171 C12.5466667,6.3394916 12.7866667,6.3394916 12.9333333,6.431171 L13.7333333,6.93124045 C13.88,7.02291985 14,6.9729129 14,6.8201139 L14,2 L6,2" id="Fill-684" fill="#F7CB64"></path>
                                <path d="M10,2 C10.0052797,2.00704089 10.0054273,2.41881544 10.0054273,2.93764651 L10.0054273,6.28191905 C10.1019547,6.28191905 10.198815,6.31004845 10.2720428,6.36005626 L11.0708908,6.92264416 C11.2173462,7.02578528 11.4570006,7.02578528 11.6034561,6.92264416 L12.402304,6.36005626 C12.5487595,6.25691514 12.7884139,6.25691514 12.9348694,6.36005626 L13.7337173,6.92264416 C13.8801728,7.02578528 14,6.96952649 14,6.79762463 L14,2 L11.0039872,2 L10,2 Z" id="Fill-685" fill="#F2BE53"></path>
                            </g>
                            <g filter="url(#filter-4)" transform="translate(22.000000, 39.000000)">
                                <path d="M19,2 L0,2 L1.90029688,0.4 C2.16154688,0.18 2.64248438,0 2.96904688,0 L16.0315469,0 C16.3581094,0 16.8390469,0.18 17.1002969,0.4 L19,2" id="Fill-680" fill="#CC9547"></path>
                                <path d="M18.9997031,16.4 C18.9997031,16.73 18.7325198,17 18.4059624,17 L0.593740723,17 C0.266886455,17 0,16.73 0,16.4 L0.000296870361,2 L19,2 L18.9997031,16.4" id="Fill-681" fill="#F2BE53"></path>
                                <polyline id="Fill-682" fill="#EFB252" points="14 2 6 2 7 0 13 0 14 2"></polyline>
                                <path d="M18.4059624,17 C18.7325198,17 18.9997031,16.71875 18.9997031,16.375 L19,2 L10.3904626,2 C9.89854846,2 9.49985156,2.41875 9.49985156,2.9375 L9.49985156,15.4375 C9.49985156,15.95625 9.10115467,16.375 8.60924048,16.375 L0,16.375 C0,16.71875 0.266886455,17 0.593740723,17 L18.4059624,17" id="Fill-683" fill="#EFB252"></path>
                                <path d="M6,2 L6,6.8201139 C6,6.9729129 6.12,7.02291985 6.26666667,6.93124045 L7.06666667,6.431171 C7.21333333,6.3394916 7.45333333,6.3394916 7.6,6.431171 L8.4,6.93124045 C8.54666667,7.02291985 8.78666667,7.02291985 8.93333333,6.93124045 L9.73333333,6.431171 C9.88,6.3394916 10.12,6.3394916 10.2666667,6.431171 L11.0666667,6.93124045 C11.2133333,7.02291985 11.4533333,7.02291985 11.6,6.93124045 L12.4,6.431171 C12.5466667,6.3394916 12.7866667,6.3394916 12.9333333,6.431171 L13.7333333,6.93124045 C13.88,7.02291985 14,6.9729129 14,6.8201139 L14,2 L6,2" id="Fill-684" fill="#F7CB64"></path>
                                <path d="M10,2 C10.0052797,2.00704089 10.0054273,2.41881544 10.0054273,2.93764651 L10.0054273,6.28191905 C10.1019547,6.28191905 10.198815,6.31004845 10.2720428,6.36005626 L11.0708908,6.92264416 C11.2173462,7.02578528 11.4570006,7.02578528 11.6034561,6.92264416 L12.402304,6.36005626 C12.5487595,6.25691514 12.7884139,6.25691514 12.9348694,6.36005626 L13.7337173,6.92264416 C13.8801728,7.02578528 14,6.96952649 14,6.79762463 L14,2 L11.0039872,2 L10,2 Z" id="Fill-685" fill="#F2BE53"></path>
                            </g>
                            <g filter="url(#filter-5)" transform="translate(11.000000, 19.000000)">
                                <path d="M19,2 L0,2 L1.90029688,0.4 C2.16154688,0.18 2.64248438,0 2.96904688,0 L16.0315469,0 C16.3581094,0 16.8390469,0.18 17.1002969,0.4 L19,2" id="Fill-680" fill="#CC9547"></path>
                                <path d="M18.9997031,16.4 C18.9997031,16.73 18.7325198,17 18.4059624,17 L0.593740723,17 C0.266886455,17 0,16.73 0,16.4 L0.000296870361,2 L19,2 L18.9997031,16.4" id="Fill-681" fill="#F2BE53"></path>
                                <polyline id="Fill-682" fill="#EFB252" points="14 2 6 2 7 0 13 0 14 2"></polyline>
                                <path d="M18.4059624,17 C18.7325198,17 18.9997031,16.71875 18.9997031,16.375 L19,2 L10.3904626,2 C9.89854846,2 9.49985156,2.41875 9.49985156,2.9375 L9.49985156,15.4375 C9.49985156,15.95625 9.10115467,16.375 8.60924048,16.375 L0,16.375 C0,16.71875 0.266886455,17 0.593740723,17 L18.4059624,17" id="Fill-683" fill="#EFB252"></path>
                                <path d="M6,2 L6,6.8201139 C6,6.9729129 6.12,7.02291985 6.26666667,6.93124045 L7.06666667,6.431171 C7.21333333,6.3394916 7.45333333,6.3394916 7.6,6.431171 L8.4,6.93124045 C8.54666667,7.02291985 8.78666667,7.02291985 8.93333333,6.93124045 L9.73333333,6.431171 C9.88,6.3394916 10.12,6.3394916 10.2666667,6.431171 L11.0666667,6.93124045 C11.2133333,7.02291985 11.4533333,7.02291985 11.6,6.93124045 L12.4,6.431171 C12.5466667,6.3394916 12.7866667,6.3394916 12.9333333,6.431171 L13.7333333,6.93124045 C13.88,7.02291985 14,6.9729129 14,6.8201139 L14,2 L6,2" id="Fill-684" fill="#F7CB64"></path>
                                <path d="M10,2 C10.0052797,2.00704089 10.0054273,2.41881544 10.0054273,2.93764651 L10.0054273,6.28191905 C10.1019547,6.28191905 10.198815,6.31004845 10.2720428,6.36005626 L11.0708908,6.92264416 C11.2173462,7.02578528 11.4570006,7.02578528 11.6034561,6.92264416 L12.402304,6.36005626 C12.5487595,6.25691514 12.7884139,6.25691514 12.9348694,6.36005626 L13.7337173,6.92264416 C13.8801728,7.02578528 14,6.96952649 14,6.79762463 L14,2 L11.0039872,2 L10,2 Z" id="Fill-685" fill="#F2BE53"></path>
                            </g>
                            <g filter="url(#filter-6)" transform="translate(33.000000, 19.000000)">
                                <path d="M19,2 L0,2 L1.90029688,0.4 C2.16154688,0.18 2.64248438,0 2.96904688,0 L16.0315469,0 C16.3581094,0 16.8390469,0.18 17.1002969,0.4 L19,2" id="Fill-680" fill="#CC9547"></path>
                                <path d="M18.9997031,16.4 C18.9997031,16.73 18.7325198,17 18.4059624,17 L0.593740723,17 C0.266886455,17 0,16.73 0,16.4 L0.000296870361,2 L19,2 L18.9997031,16.4" id="Fill-681" fill="#F2BE53"></path>
                                <polyline id="Fill-682" fill="#EFB252" points="14 2 6 2 7 0 13 0 14 2"></polyline>
                                <path d="M18.4059624,17 C18.7325198,17 18.9997031,16.71875 18.9997031,16.375 L19,2 L10.3904626,2 C9.89854846,2 9.49985156,2.41875 9.49985156,2.9375 L9.49985156,15.4375 C9.49985156,15.95625 9.10115467,16.375 8.60924048,16.375 L0,16.375 C0,16.71875 0.266886455,17 0.593740723,17 L18.4059624,17" id="Fill-683" fill="#EFB252"></path>
                                <path d="M6,2 L6,6.8201139 C6,6.9729129 6.12,7.02291985 6.26666667,6.93124045 L7.06666667,6.431171 C7.21333333,6.3394916 7.45333333,6.3394916 7.6,6.431171 L8.4,6.93124045 C8.54666667,7.02291985 8.78666667,7.02291985 8.93333333,6.93124045 L9.73333333,6.431171 C9.88,6.3394916 10.12,6.3394916 10.2666667,6.431171 L11.0666667,6.93124045 C11.2133333,7.02291985 11.4533333,7.02291985 11.6,6.93124045 L12.4,6.431171 C12.5466667,6.3394916 12.7866667,6.3394916 12.9333333,6.431171 L13.7333333,6.93124045 C13.88,7.02291985 14,6.9729129 14,6.8201139 L14,2 L6,2" id="Fill-684" fill="#F7CB64"></path>
                                <path d="M10,2 C10.0052797,2.00704089 10.0054273,2.41881544 10.0054273,2.93764651 L10.0054273,6.28191905 C10.1019547,6.28191905 10.198815,6.31004845 10.2720428,6.36005626 L11.0708908,6.92264416 C11.2173462,7.02578528 11.4570006,7.02578528 11.6034561,6.92264416 L12.402304,6.36005626 C12.5487595,6.25691514 12.7884139,6.25691514 12.9348694,6.36005626 L13.7337173,6.92264416 C13.8801728,7.02578528 14,6.96952649 14,6.79762463 L14,2 L11.0039872,2 L10,2 Z" id="Fill-685" fill="#F2BE53"></path>
                            </g>
                            <g filter="url(#filter-7)" transform="translate(22.000000, 0.000000)">
                                <path d="M19,2 L0,2 L1.90029688,0.4 C2.16154688,0.18 2.64248438,0 2.96904688,0 L16.0315469,0 C16.3581094,0 16.8390469,0.18 17.1002969,0.4 L19,2" id="Fill-680" fill="#CC9547"></path>
                                <path d="M18.9997031,16.4 C18.9997031,16.73 18.7325198,17 18.4059624,17 L0.593740723,17 C0.266886455,17 0,16.73 0,16.4 L0.000296870361,2 L19,2 L18.9997031,16.4" id="Fill-681" fill="#F2BE53"></path>
                                <polyline id="Fill-682" fill="#EFB252" points="14 2 6 2 7 0 13 0 14 2"></polyline>
                                <path d="M18.4059624,17 C18.7325198,17 18.9997031,16.71875 18.9997031,16.375 L19,2 L10.3904626,2 C9.89854846,2 9.49985156,2.41875 9.49985156,2.9375 L9.49985156,15.4375 C9.49985156,15.95625 9.10115467,16.375 8.60924048,16.375 L0,16.375 C0,16.71875 0.266886455,17 0.593740723,17 L18.4059624,17" id="Fill-683" fill="#EFB252"></path>
                                <path d="M6,2 L6,6.8201139 C6,6.9729129 6.12,7.02291985 6.26666667,6.93124045 L7.06666667,6.431171 C7.21333333,6.3394916 7.45333333,6.3394916 7.6,6.431171 L8.4,6.93124045 C8.54666667,7.02291985 8.78666667,7.02291985 8.93333333,6.93124045 L9.73333333,6.431171 C9.88,6.3394916 10.12,6.3394916 10.2666667,6.431171 L11.0666667,6.93124045 C11.2133333,7.02291985 11.4533333,7.02291985 11.6,6.93124045 L12.4,6.431171 C12.5466667,6.3394916 12.7866667,6.3394916 12.9333333,6.431171 L13.7333333,6.93124045 C13.88,7.02291985 14,6.9729129 14,6.8201139 L14,2 L6,2" id="Fill-684" fill="#F7CB64"></path>
                                <path d="M10,2 C10.0052797,2.00704089 10.0054273,2.41881544 10.0054273,2.93764651 L10.0054273,6.28191905 C10.1019547,6.28191905 10.198815,6.31004845 10.2720428,6.36005626 L11.0708908,6.92264416 C11.2173462,7.02578528 11.4570006,7.02578528 11.6034561,6.92264416 L12.402304,6.36005626 C12.5487595,6.25691514 12.7884139,6.25691514 12.9348694,6.36005626 L13.7337173,6.92264416 C13.8801728,7.02578528 14,6.96952649 14,6.79762463 L14,2 L11.0039872,2 L10,2 Z" id="Fill-685" fill="#F2BE53"></path>
                            </g>
                        </g>
                    </g>
                    <g id="Plus-Mark" mask="url(#mask-2)">
                        <g transform="translate(60.000000, 54.000000)" id="Fill-10">
                            <g>
                                <use fill="black" fill-opacity="1" filter="url(#filter-9)" xlink:href="#path-8"></use>
                                <use fill="#7CB65A" fill-rule="evenodd" xlink:href="#path-8"></use>
                            </g>
                        </g>
                    </g>
                    <path d="M73.7359141,60.3417017 C73.2812354,59.8860994 72.5436197,59.8860994 72.0895232,60.3417017 L68.2518257,64.1871953 L66.865667,62.8104713 C66.832483,62.7638027 66.7987169,62.717134 66.7562181,62.6751323 C66.3015394,62.21953 65.5639237,62.21953 65.1098272,62.6751323 C64.6592238,63.124901 64.6563129,63.8540981 65.0976015,64.3108671 L65.0836293,64.3248677 L67.4321233,66.6582983 C67.8868019,67.1139006 68.6244176,67.1139006 69.0790963,66.6582983 L73.732421,61.9943539 C73.7335854,61.9937706 73.7347497,61.9926039 73.7359141,61.9914371 C74.1905927,61.5358348 74.1905927,60.7961373 73.7359141,60.3417017" id="Fill-26" fill="#FFFFFF" mask="url(#mask-2)"></path>
                </g>
                <g id="Dynamic-Border" stroke="#1D8E96" stroke-width="4">
                    <rect id="Azure-Border" x="2" y="2" width="96" height="96" rx="48"></rect>
                </g>
            </g>
        </g>
    </g>
</svg>