<?xml version="1.0" encoding="UTF-8"?>
<svg width="182px" height="148px" viewBox="0 0 182 148" version="1.1" xmlns="http://www.w3.org/2000/svg" xmlns:xlink="http://www.w3.org/1999/xlink">
    <title>Tailor roles and design the UI for Microsoft Dynamics 365 Business Central/tailor-roles-and-design-the-ui-for-microsoft-dynamics-365-business-central</title>
    <defs>
        <path d="M23.0601937,0 L156.939806,0 C167.985501,-5.58177493e-15 176.939806,8.954305 176.939806,20 C176.939806,20.9463774 176.872634,21.8915613 176.738796,22.8284271 L162.453082,122.828427 C161.045514,132.681402 152.607099,140 142.654092,140 L37.345908,140 C27.3929005,140 18.954486,132.681402 17.5469182,122.828427 L3.26120387,22.8284271 C1.69910671,11.893747 9.29708645,1.76310729 20.2317666,0.201010127 C21.1686324,0.0671721544 22.1138164,-3.37886697e-15 23.0601937,0 Z" id="path-1"></path>
        <linearGradient x1="50%" y1="0%" x2="50%" y2="100%" id="linearGradient-3">
            <stop stop-color="#0062B3" offset="0%"></stop>
            <stop stop-color="#00549B" offset="100%"></stop>
        </linearGradient>
        <path d="M155.350715,0.570314132 C166.464213,0.570314132 175.473483,9.57958397 175.473483,20.6930815 C175.473483,21.6452681 175.405898,22.5962539 175.271239,23.5388706 L160.897833,124.152708 C159.481625,134.066163 150.991413,141.429686 140.97731,141.429686 L35.0227056,141.429686 C25.0086028,141.429686 16.5183902,134.066163 15.1021822,124.152708 L0.728776909,23.5388706 C-0.842908988,12.5370693 6.80170997,2.34424403 17.8035112,0.772558133 C18.7461279,0.637898614 19.6971137,0.570314132 20.6493003,0.570314132 L155.350715,0.570314132 Z M155.169088,5.7773664 L20.8309204,5.7773664 C20.1187063,5.7773664 19.4073903,5.82791807 18.7023343,5.92864036 C10.5787359,7.08915441 4.90225992,14.5338025 5.88899253,22.6411364 L5.93081739,22.9573295 L20.2654621,123.299843 C21.3089435,130.604212 27.4868536,136.057798 34.8309531,136.218965 L35.1655652,136.222634 L140.834444,136.222634 C148.212971,136.222634 154.485434,130.878068 155.683593,123.630573 L155.734547,123.299843 L170.069191,22.9573295 C170.169914,22.2522735 170.220465,21.5409575 170.220465,20.8287434 C170.220465,12.6213208 163.651255,5.94821937 155.483991,5.78059518 L155.169088,5.7773664 Z" id="path-4"></path>
        <linearGradient x1="50%" y1="100%" x2="50%" y2="0%" id="linearGradient-6">
            <stop stop-color="#D2EBFF" offset="0%"></stop>
            <stop stop-color="#F0FFFD" offset="100%"></stop>
        </linearGradient>
        <linearGradient x1="50%" y1="100%" x2="50%" y2="0%" id="linearGradient-7">
            <stop stop-color="#CCCCCC" offset="15%"></stop>
            <stop stop-color="#707070" offset="100%"></stop>
        </linearGradient>
        <linearGradient x1="50%" y1="0%" x2="50%" y2="100%" id="linearGradient-8">
            <stop stop-color="#6FABF4" offset="0%"></stop>
            <stop stop-color="#398CF0" offset="100%"></stop>
        </linearGradient>
        <linearGradient x1="50%" y1="0%" x2="50%" y2="100%" id="linearGradient-9">
            <stop stop-color="#6FABF4" offset="0%"></stop>
            <stop stop-color="#398CF0" offset="100%"></stop>
        </linearGradient>
        <radialGradient cx="40.0032698%" cy="47.4456727%" fx="40.0032698%" fy="47.4456727%" r="92.8740125%" gradientTransform="translate(0.400033,0.474457),scale(1.000000,0.576700),rotate(0.665785),translate(-0.400033,-0.474457)" id="radialGradient-10">
            <stop stop-color="#FFD70F" offset="27%"></stop>
            <stop stop-color="#FFCB12" offset="49%"></stop>
            <stop stop-color="#FEAC19" offset="88%"></stop>
            <stop stop-color="#FEA11B" offset="100%"></stop>
        </radialGradient>
        <filter x="-21.8%" y="-22.2%" width="143.6%" height="144.4%" filterUnits="objectBoundingBox" id="filter-11">
            <feOffset dx="0" dy="2" in="SourceAlpha" result="shadowOffsetOuter1"></feOffset>
            <feGaussianBlur stdDeviation="2" in="shadowOffsetOuter1" result="shadowBlurOuter1"></feGaussianBlur>
            <feColorMatrix values="0 0 0 0 0   0 0 0 0 0   0 0 0 0 0  0 0 0 0.1 0" type="matrix" in="shadowBlurOuter1" result="shadowMatrixOuter1"></feColorMatrix>
            <feMerge>
                <feMergeNode in="shadowMatrixOuter1"></feMergeNode>
                <feMergeNode in="SourceGraphic"></feMergeNode>
            </feMerge>
        </filter>
        <path d="M3.89631579,0 C2.05164474,0 0.556513158,1.37182979 0.556513158,3.06382979 L0.556513158,3.06382979 L0.556513158,32.9361702 C0.556513158,34.6281702 2.05164474,36 3.89631579,36 L3.89631579,36 L51.4930263,36 C53.3376974,36 54.8335526,34.6281702 54.8335526,32.9361702 L54.8335526,32.9361702 L54.8335526,3.06382979 C54.8335526,1.37182979 53.3376974,0 51.4930263,0 L51.4930263,0 L3.89631579,0 Z" id="path-12"></path>
        <linearGradient x1="50%" y1="-7.83969624%" x2="50%" y2="136.746848%" id="linearGradient-14">
            <stop stop-color="#FFD70F" offset="0%"></stop>
            <stop stop-color="#EEB309" offset="34%"></stop>
            <stop stop-color="#DC8C03" offset="77%"></stop>
            <stop stop-color="#D57D01" offset="100%"></stop>
        </linearGradient>
        <linearGradient x1="50%" y1="0%" x2="50%" y2="100%" id="linearGradient-15">
            <stop stop-color="#E55E14" offset="0%"></stop>
            <stop stop-color="#F59051" offset="100%"></stop>
        </linearGradient>
        <linearGradient x1="50%" y1="0%" x2="50%" y2="100%" id="linearGradient-16">
            <stop stop-color="#F59051" offset="0%"></stop>
            <stop stop-color="#E55E14" offset="100%"></stop>
        </linearGradient>
        <linearGradient x1="50%" y1="-9.93901477%" x2="50%" y2="100%" id="linearGradient-17">
            <stop stop-color="#FFFFFF" offset="0%"></stop>
            <stop stop-color="#EFEFEF" offset="100%"></stop>
        </linearGradient>
        <path d="M30.9215647,37.5157895 L24.7431753,37.5157895 C24.2105814,37.5157895 23.7746184,37.0746947 23.7746184,36.5358316 L23.7746184,27.1273263 C23.7746184,26.5884632 24.2105814,26.1473684 24.7431753,26.1473684 L30.9215647,26.1473684 C31.4541586,26.1473684 31.8893725,26.5884632 31.8893725,27.1273263 L31.8893725,36.5358316 C31.8893725,37.0746947 31.4541586,37.5157895 30.9215647,37.5157895" id="path-18"></path>
        <filter x="-6.2%" y="-4.4%" width="112.3%" height="117.6%" filterUnits="objectBoundingBox" id="filter-19">
            <feOffset dx="0" dy="1" in="SourceAlpha" result="shadowOffsetOuter1"></feOffset>
            <feColorMatrix values="0 0 0 0 0   0 0 0 0 0   0 0 0 0 0  0 0 0 0.1 0" type="matrix" in="shadowOffsetOuter1"></feColorMatrix>
        </filter>
        <linearGradient x1="50%" y1="2.04550253%" x2="50%" y2="100%" id="linearGradient-20">
            <stop stop-color="#FFE02A" offset="0%"></stop>
            <stop stop-color="#FFB518" offset="100%"></stop>
        </linearGradient>
    </defs>
    <g id="Badges" stroke="none" stroke-width="1" fill="none" fill-rule="evenodd">
        <g id="Tailor-roles-and-design-the-UI-for-Microsoft-Dynamics-365-Business-Central" transform="translate(-119.000000, -56.000000)">
            <g id="Tailor-roles-and-design-the-UI-for-Microsoft-Dynamics-365-Business-Central/tailor-roles-and-design-the-ui-for-microsoft-dynamics-365-business-central" transform="translate(153.000000, 80.000000)">
                <g id="Trophy-Plates/Quadrilateral" transform="translate(7.000000, 0.000000)">
                    <g id="BG" transform="translate(-40.000000, -20.000000)">
                        <mask id="mask-2" fill="white">
                            <use xlink:href="#path-1"></use>
                        </mask>
                        <path stroke="#FFFFFF" stroke-width="4" d="M156.939806,-2 L23.0601937,-2 C22.0191786,-2 20.9794763,-1.92611063 19.9489239,-1.77888886 C13.9348498,-0.919735419 8.83836834,2.29576721 5.46019375,6.8 C2.08201916,11.3042328 0.422151446,17.0971957 1.28130489,23.1112698 L15.5670192,123.11127 C16.3411815,128.530406 19.0488266,133.252588 22.9314697,136.619987 C26.8141128,139.987386 31.8717539,142 37.345908,142 L142.654092,142 C148.128246,142 153.185887,139.987386 157.06853,136.619987 C160.951173,133.252588 163.658819,128.530406 164.432981,123.11127 L178.718695,23.1112698 C178.865917,22.0807174 178.939806,21.0410151 178.939806,20 C178.939806,13.9248678 176.477372,8.42486775 172.496155,4.44365081 C168.514938,0.462433876 163.014938,-2 156.939806,-2 Z"></path>
                        <g id="Colors/Microsoft-365/BG-Gradient-3" mask="url(#mask-2)" fill="url(#linearGradient-3)">
                            <rect id="Rectangle" x="0" y="0" width="180" height="140"></rect>
                        </g>
                    </g>
                    <g id="Border" transform="translate(-38.000000, -21.000000)">
                        <mask id="mask-5" fill="white">
                            <use xlink:href="#path-4"></use>
                        </mask>
                        <use fill="#000000" fill-rule="nonzero" xlink:href="#path-4"></use>
                        <g id="Colors/Microsoft-365/Border" mask="url(#mask-5)" fill="#0076D7">
                            <g transform="translate(-2.243358, -0.116102)" id="Microsoft-365/Border">
                                <rect x="0" y="0" width="180.486716" height="142.232205"></rect>
                            </g>
                        </g>
                    </g>
                </g>
                <g id="Group-2" transform="translate(0.000000, 2.000000)">
                    <g id="Computer" fill-rule="nonzero">
                        <rect id="Rectangle" fill="url(#linearGradient-6)" x="0" y="0" width="95" height="65.3058824" rx="0.6"></rect>
                        <path d="M67.5254872,85.4505145 C57.9175726,83.8966586 57.5397332,76.7933172 57.5397332,65.3058824 L38.4858352,65.3058824 C38.4858352,76.7933172 38.1619729,83.8966586 28.5540583,85.4505145 C25.8069777,85.7630344 23.7333344,88.1584873 23.75,91 L72.3295455,91 C72.346211,88.1584873 70.2725678,85.7630344 67.5254872,85.4505145 Z" id="Path" fill="url(#linearGradient-7)"></path>
                    </g>
                    <g id="Person-w/-key" transform="translate(10.000000, 9.000000)" fill-rule="nonzero">
                        <g id="Group">
                            <path d="M36.0263353,44.3774038 C37.9589111,44.3774038 39.5296306,42.8071363 39.5440528,40.8605769 C39.5579147,40.7198969 39.5579147,40.57818 39.5440528,40.4375 C38.1527168,29.3317308 31.8785787,20.2884615 19.8815868,20.2884615 C7.88459478,20.2884615 1.40044376,27.9567308 0.192869071,40.4639423 C-0.00613259509,42.4050446 1.39050989,44.1428406 3.31681228,44.3509615 L36.0263353,44.3509615 L36.0263353,44.3774038 Z" id="Path" fill="url(#linearGradient-8)"></path>
                            <path d="M19.8815868,22.9326923 C17.7652807,22.9466198 15.6920859,22.3302629 13.9224682,21.1610577 L19.8290835,36.7355769 L25.7094472,21.2668269 C23.9610813,22.3632628 21.9411052,22.9406631 19.8815868,22.9326923 Z" id="Path" fill="#FFFFFF" opacity="0.8"></path>
                            <ellipse id="Oval" fill="url(#linearGradient-9)" cx="19.8815868" cy="11.8269231" rx="11.0519335" ry="11.1322115"></ellipse>
                        </g>
                        <g id="Group" transform="translate(29.953488, 17.142857)">
                            <path d="M15.0414933,11.4205241 C15.5799206,10.833803 15.8825159,10.0371819 15.8825159,9.20642393 C15.8825159,8.37566592 15.5799206,7.57904486 15.0414933,6.99232375 L15.0414933,6.99232375 L10.1261934,1.45707328 C9.59245358,0.862023945 8.86190989,0.526699302 8.09926561,0.526699302 C7.33662132,0.526699302 6.60607764,0.862023945 6.07233782,1.45707328 L6.07233782,1.45707328 L1.00501836,6.82626623 C-0.119244306,8.05770581 -0.119244306,10.0507033 1.00501836,11.2821429 L5.08421053,15.8210482 C5.23126374,15.9828491 5.31331218,16.2019325 5.3122399,16.4299258 L5.3122399,24.7328015 C5.30361083,25.0275326 5.41494427,25.3112993 5.61627907,25.5077365 L7.46585067,27.5834555 C7.72922516,27.8540938 8.13993028,27.8540938 8.40330477,27.5834555 L10.2275398,25.5907653 L10.2275398,25.5907653 L11.2916769,24.4006865 C11.3597701,24.3278081 11.3981423,24.2280576 11.3981423,24.1239239 C11.3981423,24.0197903 11.3597701,23.9200398 11.2916769,23.8471614 L10.5062424,22.9891976 C10.3548979,22.8092146 10.3548979,22.5326268 10.5062424,22.3526438 L11.2916769,21.49468 C11.3670107,21.4263244 11.410591,21.3248949 11.410591,21.2179174 C11.410591,21.1109399 11.3670107,21.0095104 11.2916769,20.9411549 L10.5315789,20.0831911 C10.3802345,19.9032081 10.3802345,19.6266203 10.5315789,19.4466373 L11.3170135,18.5886735 C11.3851067,18.5157951 11.4234789,18.4160446 11.4234789,18.3119109 C11.4234789,18.2077773 11.3851067,18.1080268 11.3170135,18.0351484 L10.2528764,16.8450696 L10.2528764,16.5406308 L15.0414933,11.4205241 Z M8.1246022,2.81320965 C9.01854921,2.84270846 9.7330014,3.63532942 9.74614443,4.61216605 C9.75329824,5.08913384 9.58123926,5.54847532 9.27005764,5.88316286 C8.95887603,6.2178504 8.5357488,6.39865407 8.09926561,6.3834462 C7.27494538,6.27111119 6.65626375,5.50574843 6.65626375,4.59832792 C6.65626375,3.69090742 7.27494538,2.92554465 8.09926561,2.81320965 L8.1246022,2.81320965 Z" id="f2ddd4d7-46fc-4e48-ae24-8fde036c39bb" fill="url(#radialGradient-10)"></path>
                            <path d="M6.75642595,25.0649165 L6.75642595,25.0649165 C6.85794271,25.1781285 7.01234046,25.2124011 7.14625725,25.1514499 C7.28017404,25.0904986 7.36661361,24.9466105 7.36450428,24.788154 L7.36450428,18.0074722 C7.3685231,17.8680844 7.3121959,17.7347724 7.2124847,17.6476809 L7.2124847,17.6476809 C7.10215611,17.5636147 6.9577877,17.5549536 6.8396947,17.6253162 C6.72160169,17.6956788 6.65010677,17.8329563 6.65507956,17.9797959 L6.65507956,24.788154 C6.65064255,24.8920747 6.68760218,24.9930062 6.75642595,25.0649165 L6.75642595,25.0649165 Z" id="e15034b6-eebb-4253-ac69-86068a1d4276" fill="#FF9300" opacity="0.75"></path>
                            <path d="M8.1872056,5.1827325 L8.1872056,5.1827325 L8.18261794,13.3158083 L8.18261794,13.3158083 L8.1872056,5.1827325 Z" id="f3d2a589-08f4-4e99-9635-cc67abadc8f4" fill="#FF9300" opacity="0.75" transform="translate(8.184912, 9.249270) rotate(-89.650000) translate(-8.184912, -9.249270) "></path>
                            <path d="M8.16168539,6.9089725 L8.16168539,6.9089725 L8.15709773,15.0420483 L8.15709773,15.0420483 L8.16168539,6.9089725 Z" id="bc7793e0-f7bc-4cc4-abb0-181c6c62350c" fill="#FF9300" opacity="0.75" transform="translate(8.159392, 10.975510) rotate(-89.650000) translate(-8.159392, -10.975510) "></path>
                        </g>
                    </g>
                    <rect id="Rectangle" fill="#92C4FC" x="61" y="9" width="25" height="20"></rect>
                    <rect id="Rectangle" fill="#92C4FC" x="61" y="32" width="25" height="3"></rect>
                    <rect id="Rectangle" fill="#92C4FC" x="61" y="38" width="25" height="3"></rect>
                    <rect id="Rectangle" fill="#92C4FC" x="61" y="44" width="25" height="3"></rect>
                </g>
                <g id="Briefcase" transform="translate(56.000000, 46.000000)">
                    <g id="Group" filter="url(#filter-11)">
                        <g id="Group-5" transform="translate(0.000000, 13.831579)">
                            <mask id="mask-13" fill="white">
                                <use xlink:href="#path-12"></use>
                            </mask>
                            <g id="Clip-4"></g>
                            <polygon id="Fill-3" fill="url(#linearGradient-14)" mask="url(#mask-13)" points="-3.61842105 39.8297872 59.0077632 39.8297872 59.0077632 -3.82978723 -3.61842105 -3.82978723"></polygon>
                        </g>
                        <path d="M28.6393684,30.0078568 C17.3043026,30.0078568 7.19153947,27.2771621 0.556802632,23.0056674 L0.556802632,45.8273937 C0.556802632,49.1901726 3.15989474,51.9155621 6.37088158,51.9155621 L49.0190395,51.9155621 C52.2300263,51.9155621 54.8331184,49.1901726 54.8331184,45.8273937 L54.8331184,24.12432 C48.2425263,27.7470568 38.94825,30.0078568 28.6393684,30.0078568" id="Fill-6" fill="url(#linearGradient-15)"></path>
                        <path d="M28.6393684,33.7484453 C17.3043026,33.7484453 7.19153947,31.3323764 0.556802632,27.5530358 L0.556802632,50.3766051 C0.556802632,51.8981317 1.88838158,53.1319832 3.53042105,53.1319832 L51.8587763,53.1319832 C53.5015395,53.1319832 54.8331184,51.8981317 54.8331184,50.3766051 L54.8331184,28.5427992 C48.2425263,31.7481307 38.94825,33.7484453 28.6393684,33.7484453" id="Fill-8" fill="url(#linearGradient-16)"></path>
                        <g id="Fill-10">
                            <use fill="black" fill-opacity="1" filter="url(#filter-19)" xlink:href="#path-18"></use>
                            <use fill="url(#linearGradient-17)" fill-rule="evenodd" xlink:href="#path-18"></use>
                        </g>
                        <path d="M45.7869211,14.5894737 L42.1685,14.5894737 C42.1685,8.63469474 35.6756053,3.78947368 27.6948158,3.78947368 C19.7140263,3.78947368 13.2211316,8.63469474 13.2211316,14.5894737 L9.60271053,14.5894737 C9.60271053,6.54517895 17.7188289,-1.26298971e-13 27.6948158,-1.26298971e-13 C37.6708026,-1.26298971e-13 45.7869211,6.54517895 45.7869211,14.5894737" id="Fill-12" fill="url(#linearGradient-20)"></path>
                    </g>
                </g>
            </g>
        </g>
    </g>
</svg>