<?xml version="1.0" encoding="UTF-8"?>
<svg width="100px" height="118px" viewBox="0 0 100 118" version="1.1" xmlns="http://www.w3.org/2000/svg" xmlns:xlink="http://www.w3.org/1999/xlink">
    <!-- Generator: Sketch 55.2 (78181) - https://sketchapp.com -->
    <title>Use Journals in Microsoft Dynamics 365 Business Central/use-journals-in-microsoft-dynamics-365-business-central</title>
    <desc>Created with Sketch.</desc>
    <defs>
        <path d="M42.7425,1.49663266 C44.3745,0.498877554 46.1865,0 48,0 C49.8135,0 51.627,0.498877554 53.256,1.49663266 L90.591,24.3316189 C93.933,26.3773408 96,30.2031485 96,34.3529027 L96,79.6470973 C96,83.7952317 93.933,87.6242789 90.591,89.6683811 L53.256,112.504987 C51.627,113.501122 49.8135,114 48,114 C46.1865,114 44.3745,113.501122 42.7425,112.504987 L5.409,89.6683811 C2.0655,87.6242789 0,83.7952317 0,79.6470973 L0,34.3529027 C0,30.2031485 2.0655,26.3773408 5.409,24.3316189 L42.7425,1.49663266 Z" id="path-1"></path>
        <rect id="path-3" x="0" y="0" width="40" height="55"></rect>
        <filter x="-2.5%" y="-1.8%" width="105.0%" height="107.3%" filterUnits="objectBoundingBox" id="filter-4">
            <feOffset dx="0" dy="2" in="SourceAlpha" result="shadowOffsetOuter1"></feOffset>
            <feColorMatrix values="0 0 0 0 0   0 0 0 0 0   0 0 0 0 0  0 0 0 0.1 0" type="matrix" in="shadowOffsetOuter1"></feColorMatrix>
        </filter>
        <filter x="-21.1%" y="-21.1%" width="142.1%" height="142.1%" filterUnits="objectBoundingBox" id="filter-5">
            <feOffset dx="0" dy="2" in="SourceAlpha" result="shadowOffsetOuter1"></feOffset>
            <feColorMatrix values="0 0 0 0 0   0 0 0 0 0   0 0 0 0 0  0 0 0 0.0964956975 0" type="matrix" in="shadowOffsetOuter1" result="shadowMatrixOuter1"></feColorMatrix>
            <feMerge>
                <feMergeNode in="shadowMatrixOuter1"></feMergeNode>
                <feMergeNode in="SourceGraphic"></feMergeNode>
            </feMerge>
        </filter>
        <rect id="path-6" x="0" y="1" width="12" height="4"></rect>
        <filter x="-8.3%" y="-25.0%" width="116.7%" height="200.0%" filterUnits="objectBoundingBox" id="filter-7">
            <feOffset dx="0" dy="2" in="SourceAlpha" result="shadowOffsetOuter1"></feOffset>
            <feColorMatrix values="0 0 0 0 0   0 0 0 0 0   0 0 0 0 0  0 0 0 0.1 0" type="matrix" in="shadowOffsetOuter1"></feColorMatrix>
        </filter>
        <rect id="path-8" x="0" y="1" width="12" height="4"></rect>
        <filter x="-8.3%" y="-25.0%" width="116.7%" height="200.0%" filterUnits="objectBoundingBox" id="filter-9">
            <feOffset dx="0" dy="2" in="SourceAlpha" result="shadowOffsetOuter1"></feOffset>
            <feColorMatrix values="0 0 0 0 0   0 0 0 0 0   0 0 0 0 0  0 0 0 0.1 0" type="matrix" in="shadowOffsetOuter1"></feColorMatrix>
        </filter>
        <rect id="path-10" x="0" y="1" width="12" height="4"></rect>
        <filter x="-8.3%" y="-25.0%" width="116.7%" height="200.0%" filterUnits="objectBoundingBox" id="filter-11">
            <feOffset dx="0" dy="2" in="SourceAlpha" result="shadowOffsetOuter1"></feOffset>
            <feColorMatrix values="0 0 0 0 0   0 0 0 0 0   0 0 0 0 0  0 0 0 0.1 0" type="matrix" in="shadowOffsetOuter1"></feColorMatrix>
        </filter>
        <rect id="path-12" x="0" y="1" width="12" height="4"></rect>
        <filter x="-8.3%" y="-25.0%" width="116.7%" height="200.0%" filterUnits="objectBoundingBox" id="filter-13">
            <feOffset dx="0" dy="2" in="SourceAlpha" result="shadowOffsetOuter1"></feOffset>
            <feColorMatrix values="0 0 0 0 0   0 0 0 0 0   0 0 0 0 0  0 0 0 0.1 0" type="matrix" in="shadowOffsetOuter1"></feColorMatrix>
        </filter>
        <rect id="path-14" x="0" y="1" width="12" height="4"></rect>
        <filter x="-8.3%" y="-25.0%" width="116.7%" height="200.0%" filterUnits="objectBoundingBox" id="filter-15">
            <feOffset dx="0" dy="2" in="SourceAlpha" result="shadowOffsetOuter1"></feOffset>
            <feColorMatrix values="0 0 0 0 0   0 0 0 0 0   0 0 0 0 0  0 0 0 0.1 0" type="matrix" in="shadowOffsetOuter1"></feColorMatrix>
        </filter>
        <path d="M0.318403407,8.11376289 C2.08142668,8.11376289 3.50945639,6.38437229 3.50945639,4.25006628 L3.50945639,4.25006628 C3.50945639,2.11576027 2.08142668,0.386369662 0.318403407,0.386369662 L0.318403407,0.386369662 L0.318403407,8.11376289 Z" id="path-16"></path>
        <circle id="path-18" cx="6" cy="6" r="6"></circle>
        <filter x="-4.2%" y="-4.2%" width="108.3%" height="108.3%" filterUnits="objectBoundingBox" id="filter-19">
            <feOffset dx="0" dy="1" in="SourceAlpha" result="shadowOffsetInner1"></feOffset>
            <feComposite in="shadowOffsetInner1" in2="SourceAlpha" operator="arithmetic" k2="-1" k3="1" result="shadowInnerInner1"></feComposite>
            <feColorMatrix values="0 0 0 0 0   0 0 0 0 0   0 0 0 0 0  0 0 0 0.1 0" type="matrix" in="shadowInnerInner1"></feColorMatrix>
        </filter>
    </defs>
    <g id="Badges" stroke="none" stroke-width="1" fill="none" fill-rule="evenodd">
        <g id="Use-Journals-in-Microsoft-Dynamics-365-Business-Central" transform="translate(-50.000000, -50.000000)">
            <g id="Use-Journals-in-Microsoft-Dynamics-365-Business-Central/use-journals-in-microsoft-dynamics-365-business-central" transform="translate(50.000000, 50.000000)">
                <g id="Mask" transform="translate(2.000000, 2.000000)">
                    <mask id="mask-2" fill="white">
                        <use xlink:href="#path-1"></use>
                    </mask>
                    <use id="Trophy-1" fill="#01B6C3" xlink:href="#path-1"></use>
                    <g id="Journal" mask="url(#mask-2)">
                        <g transform="translate(25.000000, 30.000000)">
                            <g id="Journal-Body-Copy" transform="translate(6.000000, 0.000000)">
                                <g id="Right-Side" fill-rule="nonzero">
                                    <use fill="black" fill-opacity="1" filter="url(#filter-4)" xlink:href="#path-3"></use>
                                    <use fill="#69994E" xlink:href="#path-3"></use>
                                </g>
                                <path d="M21,10.0612001 L21,46 C21,48.7614237 18.7614237,51 16,51 L0,51 L0,4 L0,2 C-1.3527075e-16,0.8954305 0.8954305,2.02906125e-16 2,0 L38,0 C39.1045695,-2.02906125e-16 40,0.8954305 40,2 L40,5 L26.0322057,5 L26,5 C23.2385763,5 21,7.23857625 21,10 L21,10.0612001 Z" id="Left-Side" fill="#7CB65A" fill-rule="nonzero"></path>
                            </g>
                            <g id="Coin-Money" filter="url(#filter-5)" transform="translate(17.000000, 16.000000)">
                                <path d="M9.5,-9.09494702e-13 C4.25332813,-9.09494702e-13 0,4.25332812 0,9.5 C0,14.7466719 4.25332813,19 9.5,19 C14.7466719,19 19,14.7466719 19,9.5 C19,4.25332812 14.7466719,-9.09494702e-13 9.5,-9.09494702e-13" id="Fill-21" fill="#F7CB64"></path>
                                <path d="M5.9375,18.1250191 C6.70358395,18.5370706 7.53255331,18.8355344 8.40624117,19 L14.84375,1.73998092 C14.1198691,1.24273855 13.3241592,0.854055344 12.4761845,0.59375 L5.9375,18.1250191" id="Fill-22" fill="#F2BE53"></path>
                                <path d="M9.16263629,19 C14.5956278,19 19,14.7413486 19,9.48811014 C19,6.65772841 17.719913,4.11745932 15.6906494,2.375 L8.90625,18.9937578 C8.9917121,18.9958385 9.07655936,19 9.16263629,19" id="Fill-23" fill="#F2BE53"></path>
                                <path d="M9.5,2.375 C5.57115625,2.375 2.375,5.57115625 2.375,9.5 C2.375,13.4288437 5.57115625,16.625 9.5,16.625 C13.4288438,16.625 16.625,13.4288437 16.625,9.5 C16.625,5.57115625 13.4288438,2.375 9.5,2.375 Z M9.5,17.8125 C4.91625,17.8125 1.1875,14.0834531 1.1875,9.5 C1.1875,4.91625 4.91625,1.1875 9.5,1.1875 C14.08375,1.1875 17.8125,4.91625 17.8125,9.5 C17.8125,14.0834531 14.08375,17.8125 9.5,17.8125 L9.5,17.8125 Z" id="Fill-24" fill="#EFB252"></path>
                            </g>
                            <g id="Ring-5" transform="translate(0.000000, 44.000000)">
                                <circle id="Oval" fill="#69994E" fill-rule="nonzero" cx="10" cy="3" r="3"></circle>
                                <g id="Rectangle" fill-rule="nonzero">
                                    <use fill="black" fill-opacity="1" filter="url(#filter-7)" xlink:href="#path-6"></use>
                                    <use fill="#E1E4E1" xlink:href="#path-6"></use>
                                </g>
                                <path d="M12,3 L-2.22044605e-16,3 C5.02383897e-16,1.8954305 0.8954305,1 2,1 L10,1 C11.1045695,1 12,1.8954305 12,3 Z" id="Combined-Shape" fill="#D3DAD8" fill-rule="nonzero"></path>
                            </g>
                            <g id="Ring-4" transform="translate(0.000000, 34.000000)">
                                <circle id="Oval" fill="#69994E" fill-rule="nonzero" cx="10" cy="3" r="3"></circle>
                                <g id="Rectangle" fill-rule="nonzero">
                                    <use fill="black" fill-opacity="1" filter="url(#filter-9)" xlink:href="#path-8"></use>
                                    <use fill="#E1E4E1" xlink:href="#path-8"></use>
                                </g>
                                <path d="M12,3 L-2.22044605e-16,3 C-1.3527075e-16,1.8954305 0.8954305,1 2,1 L10,1 C11.1045695,1 12,1.8954305 12,3 Z" id="Combined-Shape" fill="#D3DAD8" fill-rule="nonzero"></path>
                            </g>
                            <g id="Ring-3" transform="translate(0.000000, 24.000000)">
                                <circle id="Oval" fill="#69994E" fill-rule="nonzero" cx="10" cy="3" r="3"></circle>
                                <g id="Rectangle" fill-rule="nonzero">
                                    <use fill="black" fill-opacity="1" filter="url(#filter-11)" xlink:href="#path-10"></use>
                                    <use fill="#E1E4E1" xlink:href="#path-10"></use>
                                </g>
                                <path d="M12,3 L4.4408921e-16,3 C-1.3527075e-16,1.8954305 0.8954305,1 2,1 L10,1 C11.1045695,1 12,1.8954305 12,3 Z" id="Combined-Shape" fill="#D3DAD8" fill-rule="nonzero"></path>
                            </g>
                            <g id="Ring-2" transform="translate(0.000000, 14.000000)">
                                <circle id="Oval" fill="#69994E" fill-rule="nonzero" cx="10" cy="3" r="3"></circle>
                                <g id="Rectangle" fill-rule="nonzero">
                                    <use fill="black" fill-opacity="1" filter="url(#filter-13)" xlink:href="#path-12"></use>
                                    <use fill="#E1E4E1" xlink:href="#path-12"></use>
                                </g>
                                <path d="M12,3 L-2.22044605e-16,3 C-1.3527075e-16,1.8954305 0.8954305,1 2,1 L10,1 C11.1045695,1 12,1.8954305 12,3 Z" id="Combined-Shape" fill="#D3DAD8" fill-rule="nonzero"></path>
                            </g>
                            <g id="Ring-1" transform="translate(0.000000, 4.000000)">
                                <circle id="Oval" fill="#69994E" fill-rule="nonzero" cx="10" cy="3" r="3"></circle>
                                <g id="Rectangle" fill-rule="nonzero">
                                    <use fill="black" fill-opacity="1" filter="url(#filter-15)" xlink:href="#path-14"></use>
                                    <use fill="#E1E4E1" xlink:href="#path-14"></use>
                                </g>
                                <path d="M12,3 L-4.4408921e-16,3 C-1.3527075e-16,1.8954305 0.8954305,1 2,1 L10,1 C11.1045695,1 12,1.8954305 12,3 Z" id="Combined-Shape" fill="#D3DAD8" fill-rule="nonzero"></path>
                            </g>
                        </g>
                    </g>
                    <g id="Gear" mask="url(#mask-2)">
                        <g transform="translate(46.000000, 60.000000)">
                            <circle id="Oval" fill="#01B6C3" fill-rule="nonzero" cx="20.4878049" cy="20.4878049" r="4.09756098"></circle>
                            <g id="Gear-1" stroke-width="1" fill="none" fill-rule="evenodd" transform="translate(21.048513, 20.439931) rotate(-45.000000) translate(-21.048513, -20.439931) translate(6.707050, 6.098468)">
                                <path d="M17.2347976,14.2488241 C17.2347976,12.4680037 15.7397654,11.0076655 13.8931791,11.0076655 C12.0463237,11.0076655 10.5515607,12.4678415 10.5515607,14.2488241 C10.5515607,16.0298067 12.0463237,17.4899827 13.8931791,17.4899827 C15.7397654,17.4899827 17.2347976,16.0296445 17.2347976,14.2488241 Z M16.8124991,5.55900438 L16.8076831,5.55706638 C16.8059913,5.55658971 16.8058848,5.5565597 16.812499,5.55900431 Z M4.9668053,17.0708578 C4.96625466,17.0693203 4.96624547,17.0693816 4.96622919,17.0694901 L4.9668053,17.0708578 Z M24.6362174,10.5888136 L26.4704767,10.9872521 C27.7834923,11.2719929 28.7863583,12.4928457 28.7863583,13.8247082 L28.7863583,14.67294 C28.7863583,16.0046316 27.7832238,17.2257636 26.4702698,17.5103468 L24.6364946,17.908466 L24.1337773,19.1022904 L25.1285264,20.6290262 C25.8602617,21.7529483 25.6837704,23.3223641 24.7226941,24.2612022 L24.1085327,24.8611525 C23.1720917,25.7752696 21.5679539,25.94786 20.4554223,25.2546072 L18.8667846,24.2678432 L17.611112,24.7731244 L17.2066019,26.550154 C16.9115225,27.8456449 15.6678419,28.8205316 14.327341,28.8205316 L13.4590173,28.8205316 C12.1179981,28.8205316 10.8741301,27.845498 10.5797265,26.5500228 L10.175291,24.7733199 L8.91881886,24.2676608 L7.33044775,25.2553344 C6.21483873,25.9473608 4.61337083,25.7743943 3.67756907,24.860902 L3.06323006,24.2607781 C2.10197154,23.321762 1.9256178,21.7519889 2.657925,20.6288833 L3.65226422,19.1021801 L3.14936784,17.9082901 L1.31534473,17.5103738 C0.00283026685,17.2255973 -1,16.0043535 -1,14.67294 L-1,13.8247082 C-1,12.4930206 0.00262165044,11.2722719 1.31589406,10.9868253 L3.14941708,10.5892318 L3.65242062,9.39511167 L2.65797824,7.86884666 C1.92606847,6.74531569 2.10215187,5.17636697 3.06348289,4.23662319 L3.6773127,3.63742078 C4.61287851,2.72284724 6.21632131,2.55048217 7.33059657,3.24309981 L8.91894687,4.22988386 L10.1753635,3.72434863 L10.5796712,1.94744427 C10.8742174,0.651999155 12.1181382,-0.322883459 13.4590173,-0.322883459 L14.327341,-0.322883459 C15.6678641,-0.322883459 16.9119605,0.652020319 17.2071021,1.94778412 L17.6112518,3.72457725 L18.8666728,4.22981335 L20.4555641,3.24279846 C21.5701782,2.54997026 23.1731635,2.72211439 24.1087892,3.63674614 L24.7233785,4.23711464 C25.683892,5.17606008 25.8601994,6.74503039 25.1283978,7.8683953 L24.1336621,9.39548696 L24.6362174,10.5888136 Z" id="Fill-376" stroke="#01B6C3" stroke-width="2" fill="#546670"></path>
                                <path d="M8.58668524,23.419822 C8.64598001,23.3827691 8.78418915,23.3431609 8.94812175,23.3431609 C9.08284296,23.3431609 9.18268489,23.3691405 9.22671998,23.3921388 C9.2498275,23.4032121 9.27293502,23.4142853 9.29691453,23.423655 L10.6558984,23.970504 C10.6776979,23.9790219 10.6994975,23.986688 10.721733,23.9935023 C10.8834857,24.0441838 11.1189208,24.2967395 11.15598,24.4590054 L11.6067947,26.4394165 C11.7977587,27.2797071 12.6374773,27.9381405 13.519051,27.9381405 L14.391033,27.9381405 C15.2721707,27.9381405 16.1118893,27.2797071 16.3032894,26.4394165 L16.754104,24.4590054 C16.7907273,24.2967395 17.0265984,24.0441838 17.188351,23.9935023 C17.2105866,23.986688 17.2323861,23.9790219 17.2537497,23.970504 L18.6127335,23.423655 C18.636713,23.4142853 18.6602565,23.4032121 18.6829281,23.3921388 C18.7273991,23.3691405 18.8272411,23.3431609 18.9610903,23.3431609 C19.1250229,23.3431609 19.263668,23.3827691 19.3220908,23.419822 L21.0747745,24.5084092 C21.8020074,24.9615613 22.9037566,24.841459 23.511964,24.2477616 L24.1284552,23.6455462 C24.7514863,23.0369425 24.8692039,21.9909447 24.3961537,21.2643681 L23.2808888,19.5526966 C23.1897667,19.4130031 23.174507,19.0748426 23.2529854,18.9283348 C23.2647571,18.9057623 23.2756569,18.8831899 23.2852487,18.8601916 L23.8446251,17.5318255 C23.8537809,17.5109567 23.8620647,17.4896619 23.8686046,17.4679413 C23.9204875,17.3095084 24.1790302,17.0795252 24.3455787,17.0433241 L26.3720647,16.6033747 C27.2327109,16.4168328 27.9067529,15.5961334 27.9067529,14.7353999 L27.9067529,13.8836102 C27.9067529,13.0224508 27.2327109,12.2021773 26.3725007,12.0156353 L24.3451427,11.57526 C24.1790302,11.5394849 23.9204875,11.3095016 23.8686046,11.1510687 C23.8620647,11.1293481 23.8537809,11.1080534 23.8446251,11.0871845 L23.2852487,9.75924434 C23.2756569,9.73624602 23.2647571,9.7132477 23.2529854,9.69110117 C23.174507,9.54416744 23.1897667,9.20558103 23.2808888,9.06631341 L24.3961537,7.35421607 C24.8692039,6.62806534 24.7038919,5.6289866 24.0812968,5.02038284 L23.5052258,4.45764694 L16.8453544,10.9634168 C17.634934,11.7347124 18.3149517,13.1353129 18.3149517,14.309505 C18.3149517,16.6578893 16.3586602,18.5684536 13.955042,18.5684536 C12.7530149,18.5684536 11.4465088,17.779519 10.6569292,17.0086493 L3.82223242,23.6851993 L4.39812003,24.2477616 C5.00545544,24.8406072 6.10546065,24.9615613 6.83530953,24.5088351 L8.58668524,23.419822 Z" id="Fill-377" fill="#30404D"></path>
                            </g>
                            <g id="Gear-2" stroke-width="1" fill="none" fill-rule="evenodd" transform="translate(16.390244, 16.390244)">
                                <path d="M4.38365194,8.1242378 C6.80518128,8.1242378 8.76730389,6.30603338 8.76730389,4.0621189 C8.76730389,1.81820442 6.80518128,0 4.38365194,0 C1.96299934,0 0,1.81820442 0,4.0621189 C0,6.30603338 1.96299934,8.1242378 4.38365194,8.1242378 Z" id="Stroke-4" stroke="#30404D"></path>
                                <g id="Group-8" transform="translate(4.782166, 0.000000)">
                                    <mask id="mask-17" fill="white">
                                        <use xlink:href="#path-16"></use>
                                    </mask>
                                    <g id="Clip-7"></g>
                                    <polygon id="Stroke-6" stroke="#C4C4C4" mask="url(#mask-17)" points="-6.0617883 11.9774595 6.69987128 11.9774595 6.69987128 -3.47732695 -6.0617883 -3.47732695"></polygon>
                                </g>
                                <path d="M3.98513813,8.1242378 C6.18652844,8.1242378 7.97027626,6.30603338 7.97027626,4.0621189 C7.97027626,1.81820442 6.18652844,0 3.98513813,0" id="Stroke-9" stroke="#546670"></path>
                            </g>
                        </g>
                    </g>
                    <g id="dynamics" mask="url(#mask-2)">
                        <g transform="translate(61.000000, 74.000000)">
                            <g id="Oval" fill-rule="nonzero">
                                <use fill="#01B6C3" xlink:href="#path-18"></use>
                                <use fill="black" fill-opacity="1" filter="url(#filter-19)" xlink:href="#path-18"></use>
                            </g>
                            <g id="Dynamics-icon" stroke-width="1" fill-rule="evenodd" transform="translate(3.600000, 2.400000)">
                                <polygon id="Path" fill="#FFFFFF" points="0 7.6 1.6 3.36674869 0 2.4"></polygon>
                                <polygon id="Path" fill="#FFFFFF" points="4.8 4.88873382 4.8 2.4 0 7.6"></polygon>
                                <polygon id="Path" fill="#FFFFFF" points="0 0 0 1.84333106 3.00385098 3.2 4.4 2.15420821"></polygon>
                            </g>
                        </g>
                    </g>
                </g>
                <g id="Dynamic-Hex" stroke="#1D8E96" stroke-width="4">
                    <path d="M45.5618501,3.25844398 L45.5621963,3.25823359 L6.67338401,26.8942953 C3.79673288,28.6432593 2,31.9508238 2,35.5582677 L2,82.4417323 C2,86.0486597 3.79764663,89.3586805 6.67318764,91.1055853 L45.560618,114.742485 C46.9289662,115.572418 48.4546283,116 50,116 C51.5458817,116 53.0723633,115.572188 54.4362178,114.743457 L93.3268764,91.1055464 C96.2016145,89.3583456 98,86.0476286 98,82.4417323 L98,35.5582677 C98,31.9518547 96.202529,28.6435953 93.3268966,26.8944659 L54.4351916,3.25759524 C53.0721095,2.42798656 51.5462432,2 50,2 C48.4542664,2 46.9292165,2.42775755 45.5618501,3.25844398 Z" id="Azure-Hex-Border"></path>
                </g>
            </g>
        </g>
    </g>
</svg>