<?xml version="1.0" encoding="UTF-8"?>
<svg width="100px" height="100px" viewBox="0 0 100 100" version="1.1" xmlns="http://www.w3.org/2000/svg" xmlns:xlink="http://www.w3.org/1999/xlink">
    <!-- Generator: Sketch 55.2 (78181) - https://sketchapp.com -->
    <title>Work with the Business Central user interface/user-interface-essentials-in-business-central</title>
    <desc>Created with Sketch.</desc>
    <defs>
        <rect id="path-1" x="0" y="0" width="96" height="96" rx="48"></rect>
        <filter x="-6.7%" y="-6.1%" width="113.3%" height="112.1%" filterUnits="objectBoundingBox" id="filter-3">
            <feOffset dx="0" dy="2" in="SourceAlpha" result="shadowOffsetOuter1"></feOffset>
            <feColorMatrix values="0 0 0 0 0   0 0 0 0 0   0 0 0 0 0  0 0 0 0.1 0" type="matrix" in="shadowOffsetOuter1" result="shadowMatrixOuter1"></feColorMatrix>
            <feMerge>
                <feMergeNode in="shadowMatrixOuter1"></feMergeNode>
                <feMergeNode in="SourceGraphic"></feMergeNode>
            </feMerge>
        </filter>
    </defs>
    <g id="Badges" stroke="none" stroke-width="1" fill="none" fill-rule="evenodd">
        <g id="Work-with-the-Business-Central-user-interface" transform="translate(-50.000000, -660.000000)">
            <g id="Work-with-the-Business-Central-user-interface/user-interface-essentials-in-business-central" transform="translate(50.000000, 660.000000)">
                <g id="Mask" transform="translate(2.000000, 2.000000)">
                    <mask id="mask-2" fill="white">
                        <use xlink:href="#path-1"></use>
                    </mask>
                    <use id="BG" fill="#01B6C3" xlink:href="#path-1"></use>
                    <g id="Mug-o-Plenty" filter="url(#filter-3)" mask="url(#mask-2)">
                        <g transform="translate(18.000000, 15.000000)">
                            <polygon id="Rectangle-path" fill="#765B49" fill-rule="nonzero" transform="translate(29.331565, 46.060701) rotate(2.407173) translate(-29.331565, -46.060701) " points="27.131604 45.6880261 31.5315266 45.6880261 31.5315266 46.4333765 27.131604 46.4333765"></polygon>
                            <polygon id="Rectangle-path" fill="#765B49" fill-rule="nonzero" transform="translate(31.034567, 33.226530) rotate(2.452969) translate(-31.034567, -33.226530) " points="29.9884134 32.8998332 32.0807202 32.8998332 32.0807202 33.5532264 29.9884134 33.5532264"></polygon>
                            <polygon id="Rectangle-path" fill="#765B49" fill-rule="nonzero" transform="translate(30.956195, 35.029765) rotate(2.412898) translate(-30.956195, -35.029765) " points="29.9105274 34.7035307 32.0018631 34.7035307 32.0018631 35.3559983 29.9105274 35.3559983"></polygon>
                            <polygon id="Rectangle-path" fill="#765B49" fill-rule="nonzero" transform="translate(30.878055, 36.834334) rotate(2.430071) translate(-30.878055, -36.834334) " points="29.8319196 36.507643 31.9241908 36.507643 31.9241908 37.161025 29.8319196 37.161025"></polygon>
                            <polygon id="Rectangle-path" fill="#765B49" fill-rule="nonzero" transform="translate(30.803229, 38.633227) rotate(2.395724) translate(-30.803229, -38.633227) " points="29.7582565 38.3072239 31.8482022 38.3072239 31.8482022 38.9592301 29.7582565 38.9592301"></polygon>
                            <polygon id="Shape" fill="#765B49" fill-rule="nonzero" points="31.7840909 40.1581033 29.6936364 40.0697471 29.6668182 40.7226765 31.7581818 40.8110327"></polygon>
                            <polygon id="Rectangle-path" fill="#765B49" fill-rule="nonzero" transform="translate(30.649576, 42.242753) rotate(2.412898) translate(-30.649576, -42.242753) " points="29.6039082 41.9162927 31.6952439 41.9162927 31.6952439 42.5692134 29.6039082 42.5692134"></polygon>
                            <polygon id="Rectangle-path" fill="#765B49" fill-rule="nonzero" transform="translate(30.575490, 44.045532) rotate(2.441520) translate(-30.575490, -44.045532) " points="29.5288909 43.7188382 31.622089 43.7188382 31.622089 44.3722258 29.5288909 44.3722258"></polygon>
                            <path d="M25.9777273,42.8953319 L23.9940909,39.4662065 L22.5404545,40.3021918 L24.2609091,43.2741307 C24.3309091,43.3951106 24.4463636,43.4834668 24.5818182,43.5197155 C24.7172727,43.5559642 24.8613636,43.5373867 24.9831818,43.4671549 L25.9777273,42.8953319 Z" id="Shape" fill="#E08E71" fill-rule="nonzero"></path>
                            <path d="M28.8754545,41.2287987 C28.6186364,40.4838883 28.4127273,39.7616333 28.0195455,39.0665648 C28.0195455,39.0665648 28.0181818,39.0652055 28.0172727,39.0652055 C27.6781818,38.6302213 27.4681818,38.1086934 27.2554545,37.5889779 L23.9927273,39.4666596 L25.9777273,42.895785 L28.8754545,41.2287987 Z" id="Shape" fill="#F09F84" fill-rule="nonzero"></path>
                            <path d="M28.5618182,41.3746997 L29.5568182,40.8024236 C29.6781818,40.7326449 29.7668182,40.6175553 29.8031818,40.482529 C29.8390909,40.3479557 29.8204545,40.2038672 29.7504545,40.0828872 L28.0445455,37.1381349 L26.5936364,37.9732139 L28.5618182,41.3746997 Z" id="Shape" fill="#EFAA84" fill-rule="nonzero"></path>
                            <polygon id="Rectangle-path" fill="#E6E6E6" fill-rule="nonzero" transform="translate(27.028855, 36.978516) rotate(59.973695) translate(-27.028855, -36.978516) " points="26.3247604 36.1445657 27.7329491 36.1445657 27.7329491 37.8124664 26.3247604 37.8124664"></polygon>
                            <polygon id="Rectangle-path" fill="#FFFFFF" fill-rule="nonzero" transform="translate(25.005482, 38.144497) rotate(59.973695) translate(-25.005482, -38.144497) " points="24.3009328 36.6467392 25.7100306 36.6467392 25.7100306 39.6422544 24.3009328 39.6422544"></polygon>
                            <polygon id="Rectangle-path" fill="#EBEBEB" fill-rule="nonzero" transform="translate(22.974983, 39.313443) rotate(149.999272) translate(-22.974983, -39.313443) " points="22.136138 38.6115931 23.8138284 38.6115931 23.8138284 40.0152925 22.136138 40.0152925"></polygon>
                            <path d="M48.2818182,37.1553471 L42.9490909,37.1630558 L42.9545455,40.7530348 L47.5509091,40.7462381 C48.5459091,40.7448788 49.3536364,41.5477871 49.355,42.5396417 L49.3713636,53.8383562 C49.3727273,54.8297576 48.5672727,55.6349315 47.5727273,55.6367439 L42.9759091,55.6435406 L42.9813636,59.3798736 L48.3140909,59.3721707 C50.9231818,59.3680927 53.0345455,57.256607 53.0309138,54.6566702 L53.0122727,41.8577134 C53.0086364,39.2564173 50.8913636,37.151275 48.2818182,37.1553471 Z" id="Shape" fill="#8BA6B1" fill-rule="nonzero"></path>
                            <polyline id="Shape" fill="#383838" fill-rule="nonzero" opacity="0.31" points="42.955 40.8314226 43.9618182 37.0271233 46.1040909 40.8268915"></polyline>
                            <polyline id="Shape" fill="#383838" fill-rule="nonzero" opacity="0.31" points="42.9813636 59.2557218 43.9877273 55.2139937 46.13 59.2511907"></polyline>
                            <polygon id="Shape" fill="#000000" fill-rule="nonzero" opacity="0.23" points="31.6795455 31.5155111 31.8713636 31.5168704 31.9118182 31.0465437"></polygon>
                            <path d="M44.0877311,60.2294521 L44.0504545,31.0216228 L13.2922727,31.0660274 L12.9813636,31.0664805 L13.0186364,60.2407798 C13.0218182,62.6939094 15.0177273,64.6812434 17.4786364,64.6812434 L39.6277273,64.6812434 C42.0931818,64.6812434 44.0909091,62.6871128 44.0877311,60.2294521 Z" id="Shape" fill="#ADBDC4" fill-rule="nonzero"></path>
                            <path d="M42.8025709,63.3577854 C42.795445,63.3649847 42.7882946,63.3721599 42.7811199,63.3793109 C42.7882914,63.3721611 42.7954387,63.3649869 42.8025615,63.3577887 Z M13.4426499,62.1295339 L24.7959091,62.1295339 C26.4527633,62.1295339 27.7959091,60.7863881 27.7959091,59.1295339 L27.7959091,31.0456375 L44.0504545,31.0220759 L44.0872765,60.2299052 C44.0888527,61.4487845 43.5982713,62.5536505 42.8025615,63.3577887 Z" id="Shape" fill="#8BA6B1" fill-rule="nonzero"></path>
                            <g id="Group" stroke-width="1" fill="none" fill-rule="evenodd" transform="translate(9.545455, 0.000000)">
                                <path d="M29.8013636,31.0411064 C31.1627273,27.5838883 31.8222727,25.3038462 31.8222727,25.3038462 L29.4354545,24.1728872 L26.1563636,31.0415595 L29.8013636,31.0415595 L29.8013636,31.0411064 Z" id="Shape" fill="#005A9E" fill-rule="nonzero"></path>
                                <path d="M26.1563636,31.0411064 L29.4354545,24.1724341 L29.4022727,24.1547629 L26.9813636,23.0061328 C26.9813636,23.0061328 24.8,26.1334879 22.2359091,31.0406533 L26.1563636,31.0406533 L26.1563636,31.0411064 Z" id="Shape" fill="#0078D7" fill-rule="nonzero"></path>
                                <polygon id="Shape" fill="#A9C5D3" fill-rule="nonzero" points="31.6490909 25.2227397 27.2986364 23.1583772 33.6281818 12.0504215 36.1563636 13.2502529"></polygon>
                                <polygon id="Shape" fill="#92B3C5" fill-rule="nonzero" points="32.3804545 25.5675553 26.5704545 22.8126554 26.9886364 21.9377028 32.7959091 24.6930558"></polygon>
                                <path d="M40.4036364,0.227007376 C39.97,7.56827187 32.3263636,1.7145627 33.4395455,12.5393256 L35.9368182,13.7237513 C38.0922727,13.6204426 40.0622727,11.7205585 41.2131818,9.30548999 C42.6754545,6.24428872 42.8281818,2.35118019 40.4036364,0.227007376 Z" id="Shape" fill="#645252" fill-rule="nonzero"></path>
                                <path d="M22.5640909,31.0411064 L23.8136364,1.6774078 C23.8213636,1.48982086 23.7545455,1.30767123 23.6272727,1.16992624 C23.5004545,1.03172813 23.3236364,0.94971549 23.1354545,0.942012645 L14.1972727,0.564573235 C13.8063636,0.547808219 13.4763636,0.850484721 13.4595455,1.24015806 L12.1918182,31.0411064 L22.5640909,31.0411064 Z" id="Shape" fill="#EFB252" fill-rule="nonzero"></path>
                                <path d="M15.8622727,31.0411064 L16.5027273,0.662444679 L14.1990909,0.564573235 C13.8072727,0.548261328 13.4768182,0.850484721 13.46,1.24061117 L12.1931818,31.0411064 L15.8622727,31.0411064 Z" id="Shape" fill="#DD9D3F" fill-rule="nonzero"></path>
                                <polygon id="Rectangle-path" fill="#765B49" fill-rule="nonzero" transform="translate(21.632745, 2.636730) rotate(2.424347) translate(-21.632745, -2.636730) " points="19.4323013 2.26382393 23.8331886 2.26382393 23.8331886 3.00963689 19.4323013 3.00963689"></polygon>
                                <polygon id="Shape" fill="#765B49" fill-rule="nonzero" points="23.2227273 17.0604426 18.8245455 16.8755743 18.7913636 17.6209378 23.1895455 17.8067123"></polygon>
                                <polygon id="Shape" fill="#765B49" fill-rule="nonzero" points="23.7536364 4.56506849 21.6627273 4.47580611 21.6363636 5.12918862 23.7240909 5.21709168"></polygon>
                                <polygon id="Shape" fill="#765B49" fill-rule="nonzero" points="23.6772727 6.36844046 21.5863636 6.2800843 21.5595455 6.9330137 23.6477273 7.02046365"></polygon>
                                <polygon id="Rectangle-path" fill="#765B49" fill-rule="nonzero" transform="translate(22.540272, 8.454456) rotate(2.424347) translate(-22.540272, -8.454456) " points="21.49505 8.12753959 23.5854942 8.12753959 23.5854942 8.78137197 21.49505 8.78137197"></polygon>
                                <polygon id="Rectangle-path" fill="#765B49" fill-rule="nonzero" transform="translate(22.463503, 10.259276) rotate(2.441520) translate(-22.463503, -10.259276) " points="21.4178127 9.93235542 23.5091926 9.93235542 23.5091926 10.5861961 21.4178127 10.5861961"></polygon>
                                <polygon id="Rectangle-path" fill="#765B49" fill-rule="nonzero" transform="translate(22.388070, 12.059662) rotate(2.430071) translate(-22.388070, -12.059662) " points="21.3423887 11.7329712 23.4337508 11.7329712 23.4337508 12.3863532 21.3423887 12.3863532"></polygon>
                                <polygon id="Rectangle-path" fill="#765B49" fill-rule="nonzero" transform="translate(22.312752, 13.860355) rotate(2.424347) translate(-22.312752, -13.860355) " points="21.2661663 13.5332123 23.3593378 13.5332123 23.3593378 14.1874977 21.2661663 14.1874977"></polygon>
                                <polygon id="Shape" fill="#765B49" fill-rule="nonzero" points="23.2931818 15.3834879 21.2045455 15.2969442 21.1745455 15.9485142 23.265 16.0364173"></polygon>
                                <polygon id="Rectangle-path" fill="#765B49" fill-rule="nonzero" transform="translate(22.086593, 19.103076) rotate(2.441520) translate(-22.086593, -19.103076) " points="21.0409034 18.7759291 23.1322833 18.7759291 23.1322833 19.4302229 21.0409034 19.4302229"></polygon>
                                <polygon id="Rectangle-path" fill="#765B49" fill-rule="nonzero" transform="translate(22.013847, 20.900939) rotate(2.435796) translate(-22.013847, -20.900939) " points="20.9679345 20.5742461 23.0597601 20.5742461 23.0597601 21.227631 20.9679345 21.227631"></polygon>
                                <polygon id="Rectangle-path" fill="#765B49" fill-rule="nonzero" transform="translate(21.935758, 22.705159) rotate(2.435796) translate(-21.935758, -22.705159) " points="20.8900725 22.3784662 22.9814435 22.3784662 22.9814435 23.031851 20.8900725 23.031851"></polygon>
                                <polygon id="Shape" fill="#765B49" fill-rule="nonzero" points="22.9163636 24.2272603 20.8263636 24.1389041 20.8004545 24.7922866 22.8877273 24.8792835"></polygon>
                                <polygon id="Rectangle-path" fill="#765B49" fill-rule="nonzero" transform="translate(21.779770, 26.310234) rotate(2.389999) translate(-21.779770, -26.310234) " points="20.7348011 25.9837791 22.8247381 25.9837791 22.8247381 26.6366888 20.7348011 26.6366888"></polygon>
                                <polygon id="Shape" fill="#765B49" fill-rule="nonzero" points="22.7636364 27.8344573 20.6754545 27.7461012 20.645 28.3976712 22.7340909 28.4869336"></polygon>
                                <polygon id="Rectangle-path" fill="#765B49" fill-rule="nonzero" transform="translate(21.627024, 29.921004) rotate(2.447244) translate(-21.627024, -29.921004) " points="20.5813301 29.5943086 22.6727189 29.5943086 22.6727189 30.2476989 20.5813301 30.2476989"></polygon>
                                <polygon id="Shape" fill="#000000" fill-rule="nonzero" opacity="0.23" points="14.6181818 31.0411064 12.7031818 19.2861117 12.1072727 31.0411064"></polygon>
                                <polygon id="XMLID_5_" fill="#000000" fill-rule="nonzero" points="1.71227273 13.0816965 0.0781818182 12.1600738 0.11 14.0042255"></polygon>
                                <polygon id="Shape" fill="#FFFFFF" fill-rule="nonzero" opacity="0.2" points="2.44818182 13.5728662 0.154090909 12.2901159 1.40636364 14.0246154"></polygon>
                                <polygon id="Shape" fill="#E0C086" fill-rule="nonzero" points="14.8904545 31.0411064 5.53954545 15.2788198 1.71181818 13.0816965 0.11 14.0042255 0.0613636364 18.4301897 7.54363636 31.0411064"></polygon>
                                <polygon id="Shape" fill="#6F5242" fill-rule="nonzero" opacity="0.24" points="2.74636364 16.866059 0.108181818 14.0848788 0.0636363636 18.410706"></polygon>
                                <polygon id="Shape" fill="#E0C086" fill-rule="nonzero" points="1.71227273 13.0816965 0.11 14.0042255 0.108181818 14.0667545 1.76681818 13.1125079"></polygon>
                                <path d="M9.44909091,31.0411064 L1.46409091,17.5806112 C0.788636364,17.4854584 0.0690909091,17.7600421 0.0113636364,18.4165964 L7.50136364,31.0415595 L9.44909091,31.0415595 L9.44909091,31.0411064 Z" id="Shape" fill="#D4502E" fill-rule="nonzero"></path>
                                <polygon id="Shape" fill="#DF5142" fill-rule="nonzero" points="14.8486364 31.0411064 5.48954545 15.2647734 1.46409091 17.5806112 9.44909091 31.0411064"></polygon>
                                <path d="M14.8822727,31.0411064 L5.50045455,15.2258061 C4.76363636,15.0065016 4.19272727,15.2190095 4.04863636,16.0608851 L12.9345455,31.0415595 L14.8822727,31.0415595 L14.8822727,31.0411064 Z" id="Shape" fill="#C2423D" fill-rule="nonzero"></path>
                                <polygon id="Shape" fill="#000000" fill-rule="nonzero" opacity="0.23" points="23.655 28.4366386 22.3663636 31.0465437 22.3259091 31.5168704 30.2304545 32.3768704"></polygon>
                                <path d="M35.9372727,13.7232982 C35.9372727,13.7232982 37.0695455,10.4881033 35.9368182,9.3326765 C35.9368182,9.3326765 39.6277273,10.2765016 38.6118182,7.28190727 C38.6118182,7.28190727 42.6586364,7.60270811 40.4040909,0.227007376 C44.7845455,3.52337197 40.6918182,14.0572392 35.9372727,13.7232982 Z" id="Shape" fill="#000000" fill-rule="nonzero" opacity="0.55"></path>
                            </g>
                            <path d="M44.1222727,32.3768704 L12.8313636,32.3768704 C12.1618182,32.3768704 11.6190909,31.8358588 11.6190909,31.1684299 L11.6190909,31.0465437 L45.4572727,31.0465437 L45.4572727,31.0465437 C45.4568182,31.7814858 44.8590909,32.3768704 44.1222727,32.3768704 Z" id="Shape" fill="#D5E1E6" fill-rule="nonzero"></path>
                        </g>
                    </g>
                    <circle id="Oval" stroke="#0197A2" fill="#02A0AB" mask="url(#mask-2)" cx="46.5" cy="63.5" r="11.5"></circle>
                    <g id="Business-Central-logo" mask="url(#mask-2)" fill="#FFFFFF">
                        <g transform="translate(38.000000, 55.000000)">
                            <path d="M11.7055507,5.29444926 L11.3048569,5.6951431 C11.2546852,5.64497142 11.2031758,5.5961375 11.1503867,5.54869943 C10.4479018,4.9174229 9.51880535,4.53333333 8.5,4.53333333 C6.30927049,4.53333333 4.53333333,6.30927049 4.53333333,8.5 C4.53333333,10.6907295 6.30927049,12.4666667 8.5,12.4666667 C9.59536475,12.4666667 10.5870314,12.0226824 11.3048569,11.3048569 L11.7055515,11.7055515 C10.8851788,12.5259227 9.75184543,13.0333333 8.5,13.0333333 C5.99630913,13.0333333 3.96666667,11.0036909 3.96666667,8.5 C3.96666667,5.99630913 5.99630913,3.96666667 8.5,3.96666667 C9.66434897,3.96666667 10.7261735,4.40562617 11.5290133,5.12708506 C11.5893437,5.1813 11.6482117,5.23711019 11.7055507,5.29444926 Z" id="Combined-Shape"></path>
                            <path d="M8.5,3.4 C7.56111593,3.4 6.8,2.63888407 6.8,1.7 C6.8,0.761115925 7.56111593,0 8.5,0 C8.93663086,0 9.33481504,0.164609814 9.63588,0.435156898 C9.98219276,0.746365183 10.2,1.19774679 10.2,1.7 C10.2,2.15784576 10.0190056,2.573418 9.72466376,2.87906962 C9.41541184,3.20020427 8.98103831,3.4 8.5,3.4 Z M8.5,2.83333333 C8.82069221,2.83333333 9.11027456,2.70013618 9.3164425,2.48604641 C9.51267037,2.28227867 9.63333333,2.00523051 9.63333333,1.7 C9.63333333,1.36516453 9.48812851,1.06424346 9.25725333,0.856771265 C9.05654336,0.676406543 8.79108724,0.566666667 8.5,0.566666667 C7.87407728,0.566666667 7.36666667,1.07407728 7.36666667,1.7 C7.36666667,2.32592272 7.87407728,2.83333333 8.5,2.83333333 Z" id="Combined-Shape"></path>
                            <path d="M8.5,10.2 C7.56111593,10.2 6.8,9.43888407 6.8,8.5 C6.8,7.56111593 7.56111593,6.8 8.5,6.8 C8.93663086,6.8 9.33481504,6.96460981 9.63588,7.2351569 C9.98219276,7.54636518 10.2,7.99774679 10.2,8.5 C10.2,8.95784576 10.0190056,9.373418 9.72466376,9.67906962 C9.41541184,10.0002043 8.98103831,10.2 8.5,10.2 Z M8.5,9.63333333 C8.82069221,9.63333333 9.11027456,9.50013618 9.3164425,9.28604641 C9.51267037,9.08227867 9.63333333,8.80523051 9.63333333,8.5 C9.63333333,8.16516453 9.48812851,7.86424346 9.25725333,7.65677127 C9.05654336,7.47640654 8.79108724,7.36666667 8.5,7.36666667 C7.87407728,7.36666667 7.36666667,7.87407728 7.36666667,8.5 C7.36666667,9.12592272 7.87407728,9.63333333 8.5,9.63333333 Z" id="Combined-Shape"></path>
                            <path d="M15.3,10.2 C14.3611159,10.2 13.6,9.43888407 13.6,8.5 C13.6,7.56111593 14.3611159,6.8 15.3,6.8 C15.7366309,6.8 16.134815,6.96460981 16.43588,7.2351569 C16.7821928,7.54636518 17,7.99774679 17,8.5 C17,8.95784576 16.8190056,9.373418 16.5246638,9.67906962 C16.2154118,10.0002043 15.7810383,10.2 15.3,10.2 Z M15.3,9.63333333 C15.6206922,9.63333333 15.9102746,9.50013618 16.1164425,9.28604641 C16.3126704,9.08227867 16.4333333,8.80523051 16.4333333,8.5 C16.4333333,8.16516453 16.2881285,7.86424346 16.0572533,7.65677127 C15.8565434,7.47640654 15.5910872,7.36666667 15.3,7.36666667 C14.6740773,7.36666667 14.1666667,7.87407728 14.1666667,8.5 C14.1666667,9.12592272 14.6740773,9.63333333 15.3,9.63333333 Z" id="Combined-Shape"></path>
                            <path d="M8.5,17 C7.56111593,17 6.8,16.2388841 6.8,15.3 C6.8,14.3611159 7.56111593,13.6 8.5,13.6 C8.93663086,13.6 9.33481504,13.7646098 9.63588,14.0351569 C9.98219276,14.3463652 10.2,14.7977468 10.2,15.3 C10.2,15.7578458 10.0190056,16.173418 9.72466376,16.4790696 C9.41541184,16.8002043 8.98103831,17 8.5,17 Z M8.5,16.4333333 C8.82069221,16.4333333 9.11027456,16.3001362 9.3164425,16.0860464 C9.51267037,15.8822787 9.63333333,15.6052305 9.63333333,15.3 C9.63333333,14.9651645 9.48812851,14.6642435 9.25725333,14.4567713 C9.05654336,14.2764065 8.79108724,14.1666667 8.5,14.1666667 C7.87407728,14.1666667 7.36666667,14.6740773 7.36666667,15.3 C7.36666667,15.9259227 7.87407728,16.4333333 8.5,16.4333333 Z" id="Combined-Shape"></path>
                            <rect id="Rectangle" x="9.63333333" y="7.93333333" width="4.53333333" height="1.13333333"></rect>
                            <polygon id="Rectangle" transform="translate(8.500000, 3.683333) rotate(90.000000) translate(-8.500000, -3.683333) " points="7.93333333 3.11666667 9.06666667 3.11666667 9.06666667 4.25 7.93333333 4.25"></polygon>
                            <rect id="Rectangle" x="3.11666667" y="7.93333333" width="1.13333333" height="1.13333333"></rect>
                            <polygon id="Rectangle" transform="translate(8.500000, 13.316667) rotate(90.000000) translate(-8.500000, -13.316667) " points="7.93333333 12.75 9.06666667 12.75 9.06666667 13.8833333 7.93333333 13.8833333"></polygon>
                            <path d="M1.7,10.2 C0.761115925,10.2 0,9.43888407 0,8.5 C0,7.56111593 0.761115925,6.8 1.7,6.8 C2.13663086,6.8 2.53481504,6.96460981 2.83588,7.2351569 C3.18219276,7.54636518 3.4,7.99774679 3.4,8.5 C3.4,8.95784576 3.21900555,9.373418 2.92466376,9.67906962 C2.61541184,10.0002043 2.18103831,10.2 1.7,10.2 Z M1.7,9.63333333 C2.02069221,9.63333333 2.31027456,9.50013618 2.5164425,9.28604641 C2.71267037,9.08227867 2.83333333,8.80523051 2.83333333,8.5 C2.83333333,8.16516453 2.68812851,7.86424346 2.45725333,7.65677127 C2.25654336,7.47640654 1.99108724,7.36666667 1.7,7.36666667 C1.07407728,7.36666667 0.566666667,7.87407728 0.566666667,8.5 C0.566666667,9.12592272 1.07407728,9.63333333 1.7,9.63333333 Z" id="Combined-Shape"></path>
                        </g>
                    </g>
                </g>
                <g id="Dynamic-Border" stroke="#1D8E96" stroke-width="4">
                    <rect id="Azure-Border" x="2" y="2" width="96" height="96" rx="48"></rect>
                </g>
            </g>
        </g>
    </g>
</svg>