<?xml version="1.0" encoding="UTF-8"?>
<svg width="100px" height="118px" viewBox="0 0 100 118" version="1.1" xmlns="http://www.w3.org/2000/svg" xmlns:xlink="http://www.w3.org/1999/xlink">
    <!-- Generator: Sketch 55.2 (78181) - https://sketchapp.com -->
    <title>Process VAT in Microsoft Dynamics 365 Business Central/process-vat-in-microsoft-dynamics-365-business-central</title>
    <desc>Created with Sketch.</desc>
    <defs>
        <path d="M42.7425,1.49663266 C44.3745,0.498877554 46.1865,0 48,0 C49.8135,0 51.627,0.498877554 53.256,1.49663266 L90.591,24.3316189 C93.933,26.3773408 96,30.2031485 96,34.3529027 L96,79.6470973 C96,83.7952317 93.933,87.6242789 90.591,89.6683811 L53.256,112.504987 C51.627,113.501122 49.8135,114 48,114 C46.1865,114 44.3745,113.501122 42.7425,112.504987 L5.409,89.6683811 C2.0655,87.6242789 0,83.7952317 0,79.6470973 L0,34.3529027 C0,30.2031485 2.0655,26.3773408 5.409,24.3316189 L42.7425,1.49663266 Z" id="path-1"></path>
        <filter x="-9.1%" y="-6.2%" width="118.2%" height="112.5%" filterUnits="objectBoundingBox" id="filter-3">
            <feOffset dx="0" dy="2" in="SourceAlpha" result="shadowOffsetOuter1"></feOffset>
            <feColorMatrix values="0 0 0 0 0   0 0 0 0 0   0 0 0 0 0  0 0 0 0.0957440997 0" type="matrix" in="shadowOffsetOuter1" result="shadowMatrixOuter1"></feColorMatrix>
            <feMerge>
                <feMergeNode in="shadowMatrixOuter1"></feMergeNode>
                <feMergeNode in="SourceGraphic"></feMergeNode>
            </feMerge>
        </filter>
        <filter x="-12.5%" y="-12.5%" width="125.0%" height="125.0%" filterUnits="objectBoundingBox" id="filter-4">
            <feOffset dx="0" dy="2" in="SourceAlpha" result="shadowOffsetOuter1"></feOffset>
            <feColorMatrix values="0 0 0 0 0   0 0 0 0 0   0 0 0 0 0  0 0 0 0.0964956975 0" type="matrix" in="shadowOffsetOuter1" result="shadowMatrixOuter1"></feColorMatrix>
            <feMerge>
                <feMergeNode in="shadowMatrixOuter1"></feMergeNode>
                <feMergeNode in="SourceGraphic"></feMergeNode>
            </feMerge>
        </filter>
    </defs>
    <g id="Badges" stroke="none" stroke-width="1" fill="none" fill-rule="evenodd">
        <g id="Process-VAT-in-Microsoft-Dynamics-365-Business-Central" transform="translate(-50.000000, -50.000000)">
            <g id="Process-VAT-in-Microsoft-Dynamics-365-Business-Central/process-vat-in-microsoft-dynamics-365-business-central" transform="translate(50.000000, 50.000000)">
                <g id="Mask" transform="translate(2.000000, 2.000000)">
                    <mask id="mask-2" fill="white">
                        <use xlink:href="#path-1"></use>
                    </mask>
                    <use id="Trophy-1" fill="#01B6C3" xlink:href="#path-1"></use>
                    <g id="Group-53" filter="url(#filter-3)" mask="url(#mask-2)">
                        <g transform="translate(24.500000, 24.750000)">
                            <path d="M43.2,3.3975 L39.2,0.3975 C38.488,-0.1325 37.512,-0.1325 36.8,0.3975 L34,2.4975 L31.2,0.3975 C30.488,-0.1325 29.512,-0.1325 28.8,0.3975 L26,2.4975 L23.2,0.3975 C22.488,-0.1325 21.512,-0.1325 20.8,0.3975 L18,2.4975 L15.2,0.3975 C14.488,-0.1325 13.512,-0.1325 12.8,0.3975 L10,2.4975 L7.2,0.3975 C6.488,-0.1325 5.512,-0.1325 4.8,0.3975 L0.8,3.3975 C0.296,3.7775 0,4.3675 0,4.9975 L0,58.9975 C0,59.6275 0.296,60.2175 0.8,60.5975 L4.8,63.5975 C5.512,64.1275 6.488,64.1275 7.2,63.5975 L10,61.4975 L12.8,63.5975 C13.512,64.1275 14.488,64.1275 15.2,63.5975 L18,61.4975 L20.8,63.5975 C21.512,64.1275 22.488,64.1275 23.2,63.5975 L26,61.4975 L28.8,63.5975 C29.512,64.1275 30.488,64.1275 31.2,63.5975 L34,61.4975 L36.8,63.5975 C37.156,63.8675 37.578,63.9975 38,63.9975 C38.422,63.9975 38.844,63.8675 39.2,63.5975 L43.2,60.5975 C43.704,60.2175 44,59.6275 44,58.9975 L44,4.9975 C44,4.3675 43.704,3.7775 43.2,3.3975" id="Fill-749" fill="#E1E4E1"></path>
                            <path d="M36,28.9975 L8,28.9975 C7.448,28.9975 7,28.5475 7,27.9975 C7,27.4475 7.448,26.9975 8,26.9975 L36,26.9975 C36.552,26.9975 37,27.4475 37,27.9975 C37,28.5475 36.552,28.9975 36,28.9975" id="Fill-751" fill="#C5CCCD"></path>
                            <path d="M26,18.1875 C26,16.4475 24.587,15.0375 22.851,15.0375 L21.151,15.0375 C20.552,15.0375 20.065,14.5475 20.065,13.9475 C20.065,13.3475 20.552,12.8675 21.151,12.8675 L24.968,12.8675 L24.968,10.7975 L23,10.7975 L23,8.9975 L21,8.9975 L21,10.8175 C19.334,10.8975 18,12.2675 18,13.9475 C18,15.6875 19.414,17.0975 21.151,17.0975 L22.851,17.0975 C23.448,17.0975 23.935,17.5875 23.935,18.1875 C23.935,18.7875 23.448,19.2675 22.851,19.2675 L18.808,19.2675 L18.808,21.3375 L21,21.3375 L21,22.9975 L23,22.9975 L23,21.3175 C24.665,21.2375 26,19.8675 26,18.1875" id="Fill-752" fill="#C5CCCD"></path>
                            <path d="M23,34.9975 L8,34.9975 C7.141,34.9975 7,34.5475 7,33.9975 C7,33.4475 7.141,32.9975 8,32.9975 L23,32.9975 C23.859,32.9975 24,33.4475 24,33.9975 C24,34.5475 23.859,34.9975 23,34.9975" id="Fill-753" fill="#6E828F"></path>
                            <path d="M36,34.9975 L29,34.9975 C28.141,34.9975 28,34.5475 28,33.9975 C28,33.4475 28.141,32.9975 29,32.9975 L36,32.9975 C36.859,32.9975 37,33.4475 37,33.9975 C37,34.5475 36.859,34.9975 36,34.9975" id="Fill-754" fill="#6E828F"></path>
                            <path d="M23,38.9975 L8,38.9975 C7.141,38.9975 7,38.5475 7,37.9975 C7,37.4475 7.141,36.9975 8,36.9975 L23,36.9975 C23.859,36.9975 24,37.4475 24,37.9975 C24,38.5475 23.859,38.9975 23,38.9975" id="Fill-755" fill="#6E828F"></path>
                            <path d="M36,38.9975 L29,38.9975 C28.141,38.9975 28,38.5475 28,37.9975 C28,37.4475 28.141,36.9975 29,36.9975 L36,36.9975 C36.859,36.9975 37,37.4475 37,37.9975 C37,38.5475 36.859,38.9975 36,38.9975" id="Fill-756" fill="#6E828F"></path>
                            <path d="M23,42.9975 L8,42.9975 C7.141,42.9975 7,42.5475 7,41.9975 C7,41.4475 7.141,40.9975 8,40.9975 L23,40.9975 C23.859,40.9975 24,41.4475 24,41.9975 C24,42.5475 23.859,42.9975 23,42.9975" id="Fill-757" fill="#6E828F"></path>
                            <path d="M36,42.9975 L29,42.9975 C28.141,42.9975 28,42.5475 28,41.9975 C28,41.4475 28.141,40.9975 29,40.9975 L36,40.9975 C36.859,40.9975 37,41.4475 37,41.9975 C37,42.5475 36.859,42.9975 36,42.9975" id="Fill-758" fill="#6E828F"></path>
                            <path d="M23,46.9975 L8,46.9975 C7.141,46.9975 7,46.5475 7,45.9975 C7,45.4475 7.141,44.9975 8,44.9975 L23,44.9975 C23.859,44.9975 24,45.4475 24,45.9975 C24,46.5475 23.859,46.9975 23,46.9975" id="Fill-759" fill="#6E828F"></path>
                            <path d="M36,46.9975 L29,46.9975 C28.141,46.9975 28,46.5475 28,45.9975 C28,45.4475 28.141,44.9975 29,44.9975 L36,44.9975 C36.859,44.9975 37,45.4475 37,45.9975 C37,46.5475 36.859,46.9975 36,46.9975" id="Fill-760" fill="#6E828F"></path>
                            <path d="M23,50.9975 L8,50.9975 C7.141,50.9975 7,50.5475 7,49.9975 C7,49.4475 7.141,48.9975 8,48.9975 L23,48.9975 C23.859,48.9975 24,49.4475 24,49.9975 C24,50.5475 23.859,50.9975 23,50.9975" id="Fill-761" fill="#6E828F"></path>
                            <path d="M36,50.9975 L29,50.9975 C28.141,50.9975 28,50.5475 28,49.9975 C28,49.4475 28.141,48.9975 29,48.9975 L36,48.9975 C36.859,48.9975 37,49.4475 37,49.9975 C37,50.5475 36.859,50.9975 36,50.9975" id="Fill-762" fill="#6E828F"></path>
                        </g>
                    </g>
                    <g id="Coin-Money" mask="url(#mask-2)">
                        <g transform="translate(37.000000, 30.000000)">
                            <path d="M9.5,-9.09494702e-13 C4.25332813,-9.09494702e-13 0,4.25332812 0,9.5 C0,14.7466719 4.25332813,19 9.5,19 C14.7466719,19 19,14.7466719 19,9.5 C19,4.25332812 14.7466719,-9.09494702e-13 9.5,-9.09494702e-13" id="Fill-21" fill="#F7CB64"></path>
                            <path d="M5.9375,18.1250191 C6.70358395,18.5370706 7.53255331,18.8355344 8.40624117,19 L14.84375,1.73998092 C14.1198691,1.24273855 13.3241592,0.854055344 12.4761845,0.59375 L5.9375,18.1250191" id="Fill-22" fill="#F2BE53"></path>
                            <path d="M9.16263629,19 C14.5956278,19 19,14.7413486 19,9.48811014 C19,6.65772841 17.719913,4.11745932 15.6906494,2.375 L8.90625,18.9937578 C8.9917121,18.9958385 9.07655936,19 9.16263629,19" id="Fill-23" fill="#F2BE53"></path>
                            <path d="M9.5,2.375 C5.57115625,2.375 2.375,5.57115625 2.375,9.5 C2.375,13.4288437 5.57115625,16.625 9.5,16.625 C13.4288438,16.625 16.625,13.4288437 16.625,9.5 C16.625,5.57115625 13.4288438,2.375 9.5,2.375 Z M9.5,17.8125 C4.91625,17.8125 1.1875,14.0834531 1.1875,9.5 C1.1875,4.91625 4.91625,1.1875 9.5,1.1875 C14.08375,1.1875 17.8125,4.91625 17.8125,9.5 C17.8125,14.0834531 14.08375,17.8125 9.5,17.8125 L9.5,17.8125 Z" id="Fill-24" fill="#EFB252"></path>
                        </g>
                    </g>
                    <path d="M77.1454867,76.9160616 C76.9568327,76.8744686 76.6632059,76.607085 76.6042825,76.4228873 C76.5968551,76.3976344 76.5874472,76.3728767 76.577049,76.3486141 L75.9417653,74.8047212 C75.9308718,74.7779829 75.918493,74.7512445 75.9051238,74.7254964 C75.8159959,74.554668 75.8333263,74.1610199 75.9368137,73.9991043 L77.2034199,72.0085817 C77.7406629,71.1643426 77.6069711,69.9487374 76.8998899,69.2411611 L76.1992458,68.540517 C75.5085047,67.8492808 74.2582387,67.7111325 73.4318252,68.236987 L71.4408075,69.503098 C71.3744567,69.5461765 71.2174926,69.5922259 71.0313144,69.5922259 C70.8788067,69.5922259 70.7654162,69.5615263 70.7149104,69.5352831 C70.6896575,69.5214188 70.662424,69.509535 70.6351905,69.4986416 L69.0917928,68.8628628 C69.0675302,68.8529597 69.0427724,68.8435517 69.0175195,68.8361244 C68.8338171,68.777201 68.5659383,68.4835741 68.5243453,68.294425 L68.0128503,65.99245 C67.7954773,65.0155094 66.8413139,64.25 65.8406059,64.25 L64.8502961,64.25 C63.849093,64.25 62.8954247,65.0155094 62.6785469,65.9919548 L62.1665567,68.2954153 C62.1244686,68.4835741 61.857085,68.777201 61.6733825,68.8361244 C61.6481296,68.8435517 61.6233719,68.8529597 61.5986141,68.8628628 L60.0552164,69.4986416 C60.0279829,69.509535 60.0012445,69.5214188 59.9754964,69.5352831 C59.9254858,69.5615263 59.8120953,69.5922259 59.6590925,69.5922259 C59.4729143,69.5922259 59.3159502,69.5456813 59.2491043,69.503098 L57.2590768,68.2374822 C56.4326633,67.7116277 55.1819021,67.8502711 54.4916563,68.5410121 L53.7910121,69.2411611 C53.0834358,69.9492326 52.9502391,71.1648378 53.4874822,72.0090768 L54.7540883,73.9991043 C54.8570805,74.161515 54.874411,74.5541729 54.7857782,74.7250013 C54.7724091,74.7512445 54.759535,74.7779829 54.7486416,74.8047212 L54.1133579,76.3486141 C54.1034548,76.3728767 54.0940469,76.3976344 54.0861244,76.4228873 C54.027201,76.607085 53.7340693,76.8744686 53.5449201,76.9165567 L51.2429451,77.4275566 C50.2660046,77.6449296 49.5004952,78.5985978 49.5004952,79.599801 L49.5004952,80.5901107 C49.5004952,81.5908187 50.2660046,82.5449822 51.24245,82.76186 L53.5454153,83.273355 C53.7340693,83.3154431 54.027201,83.5828268 54.0861244,83.7670244 C54.0940469,83.7922773 54.1034548,83.817035 54.1133579,83.8412976 L54.7486416,85.3851905 C54.759535,85.4119289 54.7719139,85.4381721 54.7857782,85.4644153 C54.874411,85.6347486 54.8570805,86.0283967 54.7535932,86.1908075 L53.4874822,88.1808349 C52.949744,89.025074 53.0834358,90.2411743 53.7910121,90.9487506 L54.4916563,91.6493948 C55.181407,92.3386504 56.4306827,92.4792743 57.259572,91.9529247 L59.2486091,90.6868137 C59.3159502,90.6437352 59.4729143,90.5976858 59.6590925,90.5976858 C59.8120953,90.5976858 59.9254858,90.6278903 59.9754964,90.6546286 C60.0017397,90.6675027 60.0279829,90.6803767 60.0552164,90.6912701 L61.5986141,91.327049 C61.6233719,91.3369521 61.6481296,91.3458648 61.6733825,91.3537873 C61.857085,91.4127107 62.1244686,91.7063376 62.1665567,91.8949916 L62.6785469,94.1974617 C62.8954247,95.1744023 63.849093,95.9399117 64.8502961,95.9399117 L65.8406059,95.9399117 C66.8413139,95.9399117 67.7949822,95.1744023 68.0123552,94.1974617 L68.5243453,91.8949916 C68.5659383,91.7063376 68.8338171,91.4127107 69.0175195,91.3537873 C69.0427724,91.3458648 69.0675302,91.3369521 69.0917928,91.327049 L70.6351905,90.6912701 C70.662424,90.6803767 70.6891624,90.6675027 70.7149104,90.6546286 C70.7654162,90.6278903 70.8788067,90.5976858 71.0308192,90.5976858 C71.2169975,90.5976858 71.3744567,90.6437352 71.4408075,90.6868137 L73.4313301,91.9524296 C74.2572484,92.4792743 75.5085047,92.3396407 76.1992458,91.6493948 L76.8993948,90.9492458 C77.6069711,90.2416695 77.7406629,89.0255691 77.2034199,88.1808349 L75.9368137,86.1908075 C75.8333263,86.0283967 75.8159959,85.6352437 75.9051238,85.4649104 C75.918493,85.4386672 75.9308718,85.412424 75.9417653,85.3856857 L76.577049,83.8412976 C76.5874472,83.817035 76.5968551,83.7922773 76.6042825,83.7670244 C76.6632059,83.5828268 76.9568327,83.3154431 77.1459819,83.273355 L79.4474617,82.76186 C80.4248975,82.5449822 81.1904069,81.5908187 81.1904069,80.5901107 L81.1904069,79.599801 C81.1904069,78.5985978 80.4248975,77.6449296 79.4479569,77.4280517 L77.1454867,76.9160616 Z" id="Fill-376" fill="#01B6C3" mask="url(#mask-2)"></path>
                    <g id="Gear" filter="url(#filter-4)" mask="url(#mask-2)">
                        <g transform="translate(49.500000, 64.250000)">
                            <path d="M20.7969997,15.8449559 C20.7969997,18.5752398 18.5752398,20.7965046 15.845451,20.7965046 C13.1151671,20.7965046 10.8939023,18.5752398 10.8939023,15.8449559 C10.8939023,13.1146719 13.1151671,10.8934072 15.845451,10.8934072 C18.5752398,10.8934072 20.7969997,13.1146719 20.7969997,15.8449559 Z M29.9479569,13.1780517 L27.6454867,12.6660616 C27.4568327,12.6244686 27.1632059,12.357085 27.1042825,12.1728873 C27.0968551,12.1476344 27.0874472,12.1228767 27.077049,12.0986141 L26.4417653,10.5547212 C26.4308718,10.5279829 26.418493,10.5012445 26.4051238,10.4754964 C26.3159959,10.304668 26.3333263,9.91101989 26.4368137,9.74910425 L27.7034199,7.75858167 C28.2406629,6.91434262 28.1069711,5.69873741 27.3998899,4.9911611 L26.6992458,4.29051696 C26.0085047,3.59928076 24.7582387,3.46113255 23.9318252,3.98698702 L21.9408075,5.25309802 C21.8744567,5.2961765 21.7174926,5.3422259 21.5313144,5.3422259 C21.3788067,5.3422259 21.2654162,5.3115263 21.2149104,5.28528309 C21.1896575,5.27141875 21.162424,5.25953504 21.1351905,5.24864163 L19.5917928,4.61286278 C19.5675302,4.60295968 19.5427724,4.59355174 19.5175195,4.58612441 C19.3338171,4.52720098 19.0659383,4.23357415 19.0243453,4.04442498 L18.5128503,1.74244999 C18.2954773,0.76550943 17.3413139,0 16.3406059,0 L15.3502961,0 C14.349093,0 13.3954247,0.76550943 13.1785469,1.74195484 L12.6665567,4.04541529 C12.6244686,4.23357415 12.357085,4.52720098 12.1733825,4.58612441 C12.1481296,4.59355174 12.1233719,4.60295968 12.0986141,4.61286278 L10.5552164,5.24864163 C10.5279829,5.25953504 10.5012445,5.27141875 10.4754964,5.28528309 C10.4254858,5.3115263 10.3120953,5.3422259 10.1590925,5.3422259 C9.97291425,5.3422259 9.81595016,5.29568134 9.74910425,5.25309802 L7.75907682,3.98748217 C6.93266335,3.4616277 5.68190214,3.60027107 4.99165625,4.29101211 L4.29101211,4.9911611 C3.5834358,5.69923256 3.45023914,6.91483777 3.98748217,7.75907682 L5.25408833,9.74910425 C5.35708055,9.91151505 5.37441097,10.3041729 5.28577825,10.4750013 C5.27240906,10.5012445 5.25953504,10.5279829 5.24864163,10.5547212 L4.61335793,12.0986141 C4.60345483,12.1228767 4.59404689,12.1476344 4.58612441,12.1728873 C4.52720098,12.357085 4.2340693,12.6244686 4.04492014,12.6665567 L1.74294515,13.1775566 C0.766004585,13.3949296 0.000495154871,14.3485978 0.000495154871,15.349801 L0.000495154871,16.3401107 C0.000495154871,17.3408187 0.766004585,18.2949822 1.74244999,18.51186 L4.04541529,19.023355 C4.2340693,19.0654431 4.52720098,19.3328268 4.58612441,19.5170244 C4.59404689,19.5422773 4.60345483,19.567035 4.61335793,19.5912976 L5.24864163,21.1351905 C5.25953504,21.1619289 5.27191391,21.1881721 5.28577825,21.2144153 C5.37441097,21.3847486 5.35708055,21.7783967 5.25359318,21.9408075 L3.98748217,23.9308349 C3.44974398,24.775074 3.5834358,25.9911743 4.29101211,26.6987506 L4.99165625,27.3993948 C5.68140699,28.0886504 6.93068273,28.2292743 7.75957198,27.7029247 L9.7486091,26.4368137 C9.81595016,26.3937352 9.97291425,26.3476858 10.1590925,26.3476858 C10.3120953,26.3476858 10.4254858,26.3778903 10.4754964,26.4046286 C10.5017397,26.4175027 10.5279829,26.4303767 10.5552164,26.4412701 L12.0986141,27.077049 C12.1233719,27.0869521 12.1481296,27.0958648 12.1733825,27.1037873 C12.357085,27.1627107 12.6244686,27.4563376 12.6665567,27.6449916 L13.1785469,29.9474617 C13.3954247,30.9244023 14.349093,31.6899117 15.3502961,31.6899117 L16.3406059,31.6899117 C17.3413139,31.6899117 18.2949822,30.9244023 18.5123552,29.9474617 L19.0243453,27.6449916 C19.0659383,27.4563376 19.3338171,27.1627107 19.5175195,27.1037873 C19.5427724,27.0958648 19.5675302,27.0869521 19.5917928,27.077049 L21.1351905,26.4412701 C21.162424,26.4303767 21.1891624,26.4175027 21.2149104,26.4046286 C21.2654162,26.3778903 21.3788067,26.3476858 21.5308192,26.3476858 C21.7169975,26.3476858 21.8744567,26.3937352 21.9408075,26.4368137 L23.9313301,27.7024296 C24.7572484,28.2292743 26.0085047,28.0896407 26.6992458,27.3993948 L27.3993948,26.6992458 C28.1069711,25.9916695 28.2406629,24.7755691 27.7034199,23.9308349 L26.4368137,21.9408075 C26.3333263,21.7783967 26.3159959,21.3852437 26.4051238,21.2149104 C26.418493,21.1886672 26.4308718,21.162424 26.4417653,21.1356857 L27.077049,19.5912976 C27.0874472,19.567035 27.0968551,19.5422773 27.1042825,19.5170244 C27.1632059,19.3328268 27.4568327,19.0654431 27.6459819,19.023355 L29.9474617,18.51186 C30.9248975,18.2949822 31.6904069,17.3408187 31.6904069,16.3401107 L31.6904069,15.349801 C31.6904069,14.3485978 30.9248975,13.3949296 29.9479569,13.1780517 L29.9479569,13.1780517 Z" id="Fill-376" fill="#ADBDC4"></path>
                            <path d="M7.75957198,27.7029247 L9.7486091,26.4368137 C9.81595016,26.3937352 9.97291425,26.3476858 10.1590925,26.3476858 C10.3120953,26.3476858 10.4254858,26.3778903 10.4754964,26.4046286 C10.5017397,26.4175027 10.5279829,26.4303767 10.5552164,26.4412701 L12.0986141,27.077049 C12.1233719,27.0869521 12.1481296,27.0958648 12.1733825,27.1037873 C12.357085,27.1627107 12.6244686,27.4563376 12.6665567,27.6449916 L13.1785469,29.9474617 C13.3954247,30.9244023 14.349093,31.6899117 15.3502961,31.6899117 L16.3406059,31.6899117 C17.3413139,31.6899117 18.2949822,30.9244023 18.5123552,29.9474617 L19.0243453,27.6449916 C19.0659383,27.4563376 19.3338171,27.1627107 19.5175195,27.1037873 C19.5427724,27.0958648 19.5675302,27.0869521 19.5917928,27.077049 L21.1351905,26.4412701 C21.162424,26.4303767 21.1891624,26.4175027 21.2149104,26.4046286 C21.2654162,26.3778903 21.3788067,26.3476858 21.5308192,26.3476858 C21.7169975,26.3476858 21.8744567,26.3937352 21.9408075,26.4368137 L23.9313301,27.7024296 C24.7572484,28.2292743 26.0085047,28.0896407 26.6992458,27.3993948 L27.3993948,26.6992458 C28.1069711,25.9916695 28.2406629,24.7755691 27.7034199,23.9308349 L26.4368137,21.9408075 C26.3333263,21.7783967 26.3159959,21.3852437 26.4051238,21.2149104 C26.418493,21.1886672 26.4308718,21.162424 26.4417653,21.1356857 L27.077049,19.5912976 C27.0874472,19.567035 27.0968551,19.5422773 27.1042825,19.5170244 C27.1632059,19.3328268 27.4568327,19.0654431 27.6459819,19.023355 L29.9474617,18.51186 C30.9248975,18.2949822 31.6904069,17.3408187 31.6904069,16.3401107 L31.6904069,15.349801 C31.6904069,14.3485978 30.9248975,13.3949296 29.9479569,13.1780517 L27.6454867,12.6660616 C27.4568327,12.6244686 27.1632059,12.357085 27.1042825,12.1728873 C27.0968551,12.1476344 27.0874472,12.1228767 27.077049,12.0986141 L26.4417653,10.5547212 C26.4308718,10.5279829 26.418493,10.5012445 26.4051238,10.4754964 C26.3159959,10.304668 26.3333263,9.91101989 26.4368137,9.74910425 L27.7034199,7.75858167 C28.2406629,6.91434262 28.1069711,5.69873741 27.3998899,4.9911611 L27.0493203,4.64059145 L19.3447105,12.3452012 C20.241436,13.2419267 20.7969997,14.4798139 20.7969997,15.8449559 C20.7969997,18.5752398 18.5752398,20.7965046 15.845451,20.7965046 C14.480309,20.7965046 13.2424219,20.2409408 12.3456964,19.3447105 L4.64158176,27.0488251 L4.99165625,27.3993948 C5.68140699,28.0886504 6.93068273,28.2292743 7.75957198,27.7029247" id="Fill-377" fill="#8BA6B1"></path>
                            <path d="M15.845451,20.7965046 C13.1107107,20.7965046 10.8939023,18.5796962 10.8939023,15.8449559 C10.8939023,13.1102155 13.1107107,10.8934072 15.845451,10.8934072 C18.5801914,10.8934072 20.7969997,13.1102155 20.7969997,15.8449559 C20.7969997,18.5796962 18.5801914,20.7965046 15.845451,20.7965046 Z M15.845451,8.91278767 C12.0169136,8.91278767 8.91328283,12.0164184 8.91328283,15.8449559 C8.91328283,19.6734933 12.0169136,22.7771241 15.845451,22.7771241 C19.6739885,22.7771241 22.7776192,19.6734933 22.7776192,15.8449559 C22.7776192,12.0164184 19.6739885,8.91278767 15.845451,8.91278767 L15.845451,8.91278767 Z" id="Fill-378" fill="#8BA6B1"></path>
                            <path d="M20.7969997,15.8449559 C20.7969997,18.5796962 18.5801914,20.7965046 15.845451,20.7965046 C14.4778333,20.7965046 13.2399461,20.2424263 12.3442109,19.346196 L10.9434178,20.7464939 C12.1981402,22.0012164 13.9311823,22.7771241 15.845451,22.7771241 C19.6739885,22.7771241 22.7776192,19.6734933 22.7776192,15.8449559 C22.7776192,13.9306871 22.0017115,12.1976451 20.7474842,10.9429226 L19.3466911,12.3437158 C20.2429214,13.2394509 20.7969997,14.4773381 20.7969997,15.8449559" id="Fill-379" fill="#ADBDC4"></path>
                        </g>
                    </g>
                    <g id="Group" mask="url(#mask-2)">
                        <g transform="translate(57.000000, 72.000000)">
                            <circle id="Oval" stroke="#01B6C3" stroke-width="1" fill="#E1E4E1" fill-rule="evenodd" cx="8" cy="8" r="8"></circle>
                            <path d="M10.2705882,10.3529412 C10.2705882,10.478432 10.2745098,10.6235286 10.2823529,10.7882353 C10.2901961,10.9529412 10.3176468,11.1078424 10.3647059,11.2529412 C10.4117649,11.3980399 10.486274,11.5215681 10.5882353,11.6235294 C10.6901966,11.7254907 10.8352932,11.7764706 11.0235294,11.7764706 C11.2039225,11.7764706 11.3470583,11.7254907 11.4529412,11.6235294 C11.5588241,11.5215681 11.6372546,11.3980399 11.6882353,11.2529412 C11.7392159,11.1078424 11.7705882,10.9549028 11.7823529,10.7941176 C11.7941177,10.6333325 11.8,10.4901967 11.8,10.3647059 C11.8,10.2470582 11.7941177,10.1078439 11.7823529,9.94705882 C11.7705882,9.78627371 11.7411767,9.63333406 11.6941176,9.48823529 C11.6470586,9.34313653 11.5745103,9.21764759 11.4764706,9.11176471 C11.3784309,9.00588182 11.2431381,8.95294118 11.0705882,8.95294118 C10.882352,8.95294118 10.7352946,8.99999953 10.6294118,9.09411765 C10.5235289,9.18823576 10.4431375,9.30588165 10.3882353,9.44705882 C10.3333331,9.588236 10.3000001,9.74117565 10.2882353,9.90588235 C10.2764705,10.0705891 10.2705882,10.2196072 10.2705882,10.3529412 Z M9.07058824,10.3411765 C9.07058824,10.0196062 9.10980353,9.72157 9.18823529,9.44705882 C9.26666667,9.17254765 9.38823447,8.93333435 9.55294118,8.72941176 C9.71764788,8.52548918 9.92548894,8.36470647 10.1764706,8.24705882 C10.4274522,8.12941118 10.7254885,8.07058824 11.0705882,8.07058824 C11.4392175,8.07058824 11.7450968,8.13137194 11.9882353,8.25294118 C12.2313738,8.37451041 12.429411,8.53921465 12.5823529,8.74705882 C12.7352949,8.954903 12.8431369,9.19999859 12.9058824,9.48235294 C12.9686278,9.76470729 13,10.0666651 13,10.3882353 C13,10.7098055 12.9607847,11.0078418 12.8823529,11.2823529 C12.8039212,11.5568641 12.6843145,11.7960784 12.5235294,12 C12.3627443,12.2039226 12.156864,12.3627445 11.9058824,12.4764706 C11.6549007,12.5901966 11.3568645,12.6470588 11.0117647,12.6470588 C10.6509786,12.6470588 10.3470601,12.5882359 10.1,12.4705882 C9.85293994,12.3529406 9.65294194,12.1901971 9.5,11.9823529 C9.34705806,11.7745088 9.23725524,11.5294132 9.17058824,11.2470588 C9.10392124,10.9647045 9.07058824,10.6627467 9.07058824,10.3411765 Z M9.97647059,4 L10.9764706,4 L6.12941176,12.7411765 L5.10588235,12.7411765 L9.97647059,4 Z M4.2,6.44705882 C4.2,6.57254965 4.20392153,6.71372471 4.21176471,6.87058824 C4.21960788,7.02745176 4.24705859,7.17450912 4.29411765,7.31176471 C4.34117671,7.44902029 4.41568576,7.56470541 4.51764706,7.65882353 C4.61960835,7.75294165 4.76470494,7.8 4.95294118,7.8 C5.13333424,7.8 5.27647006,7.75294165 5.38235294,7.65882353 C5.48823582,7.56470541 5.56666641,7.44902029 5.61764706,7.31176471 C5.66862771,7.17450912 5.7,7.02941253 5.71176471,6.87647059 C5.72352947,6.72352865 5.72941176,6.58431435 5.72941176,6.45882353 C5.72941176,6.34117588 5.72352947,6.19804006 5.71176471,6.02941176 C5.7,5.86078347 5.67058847,5.69804 5.62352941,5.54117647 C5.57647035,5.38431294 5.50392206,5.25098094 5.40588235,5.14117647 C5.30784265,5.031372 5.17254988,4.97647059 5,4.97647059 C4.81176376,4.97647059 4.66470641,5.02745047 4.55882353,5.12941176 C4.45294065,5.23137306 4.37254929,5.356862 4.31764706,5.50588235 C4.26274482,5.65490271 4.22941182,5.81568541 4.21764706,5.98823529 C4.20588229,6.16078518 4.2,6.31372482 4.2,6.44705882 Z M3,6.42352941 C3,6.10195918 3.03921529,5.80000141 3.11764706,5.51764706 C3.19607843,5.23529271 3.31764624,4.98823635 3.48235294,4.77647059 C3.64705965,4.56470482 3.85490071,4.39803982 4.10588235,4.27647059 C4.356864,4.15490135 4.65490024,4.09411765 5,4.09411765 C5.36862929,4.09411765 5.67450859,4.15686212 5.91764706,4.28235294 C6.16078553,4.40784376 6.35882276,4.57843029 6.51176471,4.79411765 C6.66470665,5.009805 6.77254871,5.26274365 6.83529412,5.55294118 C6.89803953,5.84313871 6.92941176,6.149018 6.92941176,6.47058824 C6.92941176,6.79215847 6.89019647,7.08823394 6.81176471,7.35882353 C6.73333294,7.62941312 6.61372629,7.86274412 6.45294118,8.05882353 C6.29215606,8.25490294 6.08627576,8.40784314 5.83529412,8.51764706 C5.58431247,8.62745153 5.28627624,8.68235294 4.94117647,8.68235294 C4.58039035,8.68235294 4.27647182,8.62549076 4.02941176,8.51176471 C3.78235171,8.39803865 3.58235371,8.24117747 3.42941176,8.04117647 C3.27646982,7.84117547 3.166667,7.60196218 3.1,7.32352941 C3.033333,7.04509665 3,6.74509965 3,6.42352941 Z" id="%" stroke="none" fill="#1D8E96" fill-rule="nonzero"></path>
                        </g>
                    </g>
                </g>
                <g id="Dynamic-Hex" stroke="#1D8E96" stroke-width="4">
                    <path d="M45.5618501,3.25844398 L45.5621963,3.25823359 L6.67338401,26.8942953 C3.79673288,28.6432593 2,31.9508238 2,35.5582677 L2,82.4417323 C2,86.0486597 3.79764663,89.3586805 6.67318764,91.1055853 L45.560618,114.742485 C46.9289662,115.572418 48.4546283,116 50,116 C51.5458817,116 53.0723633,115.572188 54.4362178,114.743457 L93.3268764,91.1055464 C96.2016145,89.3583456 98,86.0476286 98,82.4417323 L98,35.5582677 C98,31.9518547 96.202529,28.6435953 93.3268966,26.8944659 L54.4351916,3.25759524 C53.0721095,2.42798656 51.5462432,2 50,2 C48.4542664,2 46.9292165,2.42775755 45.5618501,3.25844398 Z" id="Azure-Hex-Border"></path>
                </g>
            </g>
        </g>
    </g>
</svg>