<?xml version="1.0" encoding="UTF-8"?>
<svg width="101px" height="101px" viewBox="0 0 101 101" version="1.1" xmlns="http://www.w3.org/2000/svg" xmlns:xlink="http://www.w3.org/1999/xlink">
    <!-- Generator: Sketch 64 (93537) - https://sketch.com -->
    <title>Learn the application foundation with the AL programming language for Microsoft Dynamics 365 Business Central/Work-with-CodeUnits-in-Dynamics-365-Business-Central</title>
    <desc>Created with Sketch.</desc>
    <defs>
        <rect id="path-1" x="0" y="0" width="94.3396226" height="94.3396226" rx="47.1698113"></rect>
        <linearGradient x1="77.8299825%" y1="11.1997378%" x2="-99.6885927%" y2="253.807911%" id="linearGradient-3">
            <stop stop-color="#FFFFFF" offset="0%"></stop>
            <stop stop-color="#000000" stop-opacity="0.5" offset="100%"></stop>
        </linearGradient>
        <rect id="path-4" x="0" y="0" width="94.3396226" height="94.3396226"></rect>
        <rect id="path-5" x="0" y="0" width="100" height="100" rx="50"></rect>
        <filter x="-0.5%" y="-0.5%" width="102.0%" height="102.0%" filterUnits="objectBoundingBox" id="filter-6">
            <feOffset dx="1" dy="1" in="SourceAlpha" result="shadowOffsetOuter1"></feOffset>
            <feMorphology radius="4" operator="erode" in="SourceAlpha" result="shadowInner"></feMorphology>
            <feOffset dx="1" dy="1" in="shadowInner" result="shadowInner"></feOffset>
            <feComposite in="shadowOffsetOuter1" in2="shadowInner" operator="out" result="shadowOffsetOuter1"></feComposite>
            <feColorMatrix values="0 0 0 0 0   0 0 0 0 0   0 0 0 0 0  0 0 0 0.15 0" type="matrix" in="shadowOffsetOuter1"></feColorMatrix>
        </filter>
        <path d="M50,2.83018868 C76.0511674,2.83018868 97.1698113,23.9488326 97.1698113,50 C97.1698113,76.0511674 76.0511674,97.1698113 50,97.1698113 C23.9488326,97.1698113 2.83018868,76.0511674 2.83018868,50 C2.83018868,23.9488326 23.9488326,2.83018868 50,2.83018868 Z M50,6.60377358 C26.032926,6.60377358 6.60377358,26.032926 6.60377358,50 C6.60377358,73.967074 26.032926,93.3962264 50,93.3962264 C73.967074,93.3962264 93.3962264,73.967074 93.3962264,50 C93.3962264,26.032926 73.967074,6.60377358 50,6.60377358 Z" id="path-7"></path>
        <linearGradient x1="50%" y1="0%" x2="50%" y2="100%" id="linearGradient-9">
            <stop stop-color="#A7AAB4" offset="0%"></stop>
            <stop stop-color="#7D8E9D" offset="100%"></stop>
        </linearGradient>
        <linearGradient x1="50%" y1="0.670396959%" x2="50%" y2="100%" id="linearGradient-10">
            <stop stop-color="#6A6A6A" offset="0%"></stop>
            <stop stop-color="#343333" offset="100%"></stop>
        </linearGradient>
        <linearGradient x1="50%" y1="-66.3736979%" x2="50%" y2="100%" id="linearGradient-11">
            <stop stop-color="#5ACAD2" offset="0%"></stop>
            <stop stop-color="#57C7CF" offset="100%"></stop>
        </linearGradient>
    </defs>
    <g id="Badges" stroke="none" stroke-width="1" fill="none" fill-rule="evenodd">
        <g id="Learn-the-application-foundation-with-the-AL-programming-language-for-Microsoft-Dynamics-365-Business-Central" transform="translate(-160.000000, -1080.000000)">
            <g id="Learn-the-application-foundation-with-the-AL-programming-language-for-Microsoft-Dynamics-365-Business-Central/Work-with-CodeUnits-in-Dynamics-365-Business-Central" transform="translate(160.000000, 1080.000000)">
                <g id="Badge-Plates/Circle">
                    <g id="BG" transform="translate(2.830189, 2.830189)">
                        <mask id="mask-2" fill="white">
                            <use xlink:href="#path-1"></use>
                        </mask>
                        <g></g>
                        <g id="Colors/Dynamics-365/BG-Solid-Badges" mask="url(#mask-2)">
                            <g id="Rectangle">
                                <use fill="#01B6C3" xlink:href="#path-4"></use>
                                <use fill-opacity="0.4" fill="url(#linearGradient-3)" xlink:href="#path-4"></use>
                            </g>
                        </g>
                    </g>
                    <g id="Border">
                        <g id="White-Border">
                            <use fill="black" fill-opacity="1" filter="url(#filter-6)" xlink:href="#path-5"></use>
                            <rect stroke="#F2F1F0" stroke-width="4" stroke-linejoin="square" x="2" y="2" width="96" height="96" rx="48"></rect>
                        </g>
                        <mask id="mask-8" fill="white">
                            <use xlink:href="#path-7"></use>
                        </mask>
                        <use id="Boarder" fill="#0078D4" fill-rule="nonzero" xlink:href="#path-7"></use>
                        <g id="Colors/Dynamics-365/Border" mask="url(#mask-8)" fill="#008372">
                            <g transform="translate(2.830189, 2.830189)" id="Rectangle">
                                <rect x="0" y="0" width="94.3396226" height="94.3396226"></rect>
                            </g>
                        </g>
                    </g>
                </g>
                <g id="Container" transform="translate(17.000000, 38.000000)">
                    <path d="M4.0666523,0 L0,0 L0,34.4981698 C0,35.6142871 0.914996768,36.5274739 2.03332615,36.5274739 L63.0331107,36.5274739 C64.1514401,36.5274739 65.0664369,35.6142871 65.0664369,34.4981698 L65.0664369,0 L60.9997846,0 L4.0666523,0 Z" id="Fill-1187" fill="url(#linearGradient-9)"></path>
                    <path d="M6.09997846,31.4542137 C5.53776378,31.4542137 5.08331538,31.0006642 5.08331538,30.4395616 L5.08331538,8.11721643 C5.08331538,7.55611385 5.53776378,7.10256438 6.09997846,7.10256438 C6.66219314,7.10256438 7.11664153,7.55611385 7.11664153,8.11721643 L7.11664153,30.4395616 C7.11664153,31.0006642 6.66219314,31.4542137 6.09997846,31.4542137" id="Fill-1188" fill="url(#linearGradient-10)"></path>
                    <path d="M10.1666308,31.4542137 C9.60441608,31.4542137 9.14996768,31.0006642 9.14996768,30.4395616 L9.14996768,8.11721643 C9.14996768,7.55611385 9.60441608,7.10256438 10.1666308,7.10256438 C10.7288454,7.10256438 11.1832938,7.55611385 11.1832938,8.11721643 L11.1832938,30.4395616 C11.1832938,31.0006642 10.7288454,31.4542137 10.1666308,31.4542137" id="Fill-1189" fill="url(#linearGradient-10)"></path>
                    <path d="M14.2332831,31.4542137 C13.6710684,31.4542137 13.21662,31.0006642 13.21662,30.4395616 L13.21662,8.11721643 C13.21662,7.55611385 13.6710684,7.10256438 14.2332831,7.10256438 C14.7954977,7.10256438 15.2499461,7.55611385 15.2499461,8.11721643 L15.2499461,30.4395616 C15.2499461,31.0006642 14.7954977,31.4542137 14.2332831,31.4542137" id="Fill-1190" fill="url(#linearGradient-10)"></path>
                    <path d="M18.2999354,31.4542137 C17.7377207,31.4542137 17.2832723,31.0006642 17.2832723,30.4395616 L17.2832723,8.11721643 C17.2832723,7.55611385 17.7377207,7.10256438 18.2999354,7.10256438 C18.86215,7.10256438 19.3165984,7.55611385 19.3165984,8.11721643 L19.3165984,30.4395616 C19.3165984,31.0006642 18.86215,31.4542137 18.2999354,31.4542137" id="Fill-1191" fill="url(#linearGradient-10)"></path>
                    <path d="M22.3665877,31.4542137 C21.804373,31.4542137 21.3499246,31.0006642 21.3499246,30.4395616 L21.3499246,8.11721643 C21.3499246,7.55611385 21.804373,7.10256438 22.3665877,7.10256438 C22.9288024,7.10256438 23.3832507,7.55611385 23.3832507,8.11721643 L23.3832507,30.4395616 C23.3832507,31.0006642 22.9288024,31.4542137 22.3665877,31.4542137" id="Fill-1192" fill="url(#linearGradient-10)"></path>
                    <path d="M26.43324,31.4542137 C25.8710253,31.4542137 25.4165769,31.0006642 25.4165769,30.4395616 L25.4165769,8.11721643 C25.4165769,7.55611385 25.8710253,7.10256438 26.43324,7.10256438 C26.9954547,7.10256438 27.4499031,7.55611385 27.4499031,8.11721643 L27.4499031,30.4395616 C27.4499031,31.0006642 26.9954547,31.4542137 26.43324,31.4542137" id="Fill-1193" fill="url(#linearGradient-10)"></path>
                    <path d="M30.4998923,31.4542137 C29.9376776,31.4542137 29.4832292,31.0006642 29.4832292,30.4395616 L29.4832292,8.11721643 C29.4832292,7.55611385 29.9376776,7.10256438 30.4998923,7.10256438 C31.062107,7.10256438 31.5165554,7.55611385 31.5165554,8.11721643 L31.5165554,30.4395616 C31.5165554,31.0006642 31.062107,31.4542137 30.4998923,31.4542137" id="Fill-1194" fill="url(#linearGradient-10)"></path>
                    <path d="M34.5665446,31.4542137 C34.0043299,31.4542137 33.5498815,31.0006642 33.5498815,30.4395616 L33.5498815,8.11721643 C33.5498815,7.55611385 34.0043299,7.10256438 34.5665446,7.10256438 C35.1287593,7.10256438 35.5832077,7.55611385 35.5832077,8.11721643 L35.5832077,30.4395616 C35.5832077,31.0006642 35.1287593,31.4542137 34.5665446,31.4542137" id="Fill-1195" fill="url(#linearGradient-10)"></path>
                    <path d="M38.6331969,31.4542137 C38.0709822,31.4542137 37.6165338,31.0006642 37.6165338,30.4395616 L37.6165338,8.11721643 C37.6165338,7.55611385 38.0709822,7.10256438 38.6331969,7.10256438 C39.1954116,7.10256438 39.64986,7.55611385 39.64986,8.11721643 L39.64986,30.4395616 C39.64986,31.0006642 39.1954116,31.4542137 38.6331969,31.4542137" id="Fill-1196" fill="url(#linearGradient-10)"></path>
                    <path d="M42.6998492,31.4542137 C42.1376345,31.4542137 41.6831861,31.0006642 41.6831861,30.4395616 L41.6831861,8.11721643 C41.6831861,7.55611385 42.1376345,7.10256438 42.6998492,7.10256438 C43.2620639,7.10256438 43.7165123,7.55611385 43.7165123,8.11721643 L43.7165123,30.4395616 C43.7165123,31.0006642 43.2620639,31.4542137 42.6998492,31.4542137" id="Fill-1197" fill="url(#linearGradient-10)"></path>
                    <path d="M54.8998061,31.4542137 C54.3375914,31.4542137 53.883143,31.0006642 53.883143,30.4395616 L53.883143,8.11721643 C53.883143,7.55611385 54.3375914,7.10256438 54.8998061,7.10256438 C55.4620208,7.10256438 55.9164692,7.55611385 55.9164692,8.11721643 L55.9164692,30.4395616 C55.9164692,31.0006642 55.4620208,31.4542137 54.8998061,31.4542137" id="Fill-1198" fill="url(#linearGradient-10)"></path>
                    <path d="M58.9664584,31.4542137 C58.4042437,31.4542137 57.9497953,31.0006642 57.9497953,30.4395616 L57.9497953,8.11721643 C57.9497953,7.55611385 58.4042437,7.10256438 58.9664584,7.10256438 C59.5286731,7.10256438 59.9831215,7.55611385 59.9831215,8.11721643 L59.9831215,30.4395616 C59.9831215,31.0006642 59.5286731,31.4542137 58.9664584,31.4542137" id="Fill-1199" fill="url(#linearGradient-10)"></path>
                    <path d="M46.7665015,31.4542137 C46.2042868,31.4542137 45.7498384,31.0006642 45.7498384,30.4395616 L45.7498384,8.11721643 C45.7498384,7.55611385 46.2042868,7.10256438 46.7665015,7.10256438 C47.3287162,7.10256438 47.7831646,7.55611385 47.7831646,8.11721643 L47.7831646,30.4395616 C47.7831646,31.0006642 47.3287162,31.4542137 46.7665015,31.4542137" id="Fill-1200" fill="url(#linearGradient-10)"></path>
                    <path d="M50.8331538,31.4542137 C50.2709391,31.4542137 49.8164907,31.0006642 49.8164907,30.4395616 L49.8164907,8.11721643 C49.8164907,7.55611385 50.2709391,7.10256438 50.8331538,7.10256438 C51.3953685,7.10256438 51.8498169,7.55611385 51.8498169,8.11721643 L51.8498169,30.4395616 C51.8498169,31.0006642 51.3953685,31.4542137 50.8331538,31.4542137" id="Fill-1201" fill="url(#linearGradient-10)"></path>
                </g>
                <circle id="Oval" fill="url(#linearGradient-11)" cx="50" cy="33" r="11"></circle>
                <circle id="Oval" fill="#008372" cx="50" cy="33" r="9"></circle>
                <g id="Dynamics-BC-01-2" transform="translate(44.000000, 27.000000)" fill="#FFFFFF" fill-rule="nonzero">
                    <path d="M5.93118987,0.868733014 C6.13503797,0.855669723 6.36106329,1.04144187 6.36349367,1.31683428 C6.36562025,1.5547077 6.1683038,1.76037858 5.94729114,1.76660643 C5.72111392,1.77283428 5.49918987,1.58766972 5.50162025,1.31334061 C5.50450633,1.02275833 5.74465823,0.85597352 5.93118987,0.868733014 L5.93118987,0.868733014 Z M1.20470886,5.55860609 C1.44318987,5.55860609 1.632,5.75880896 1.632,6.01126466 C1.632,6.25551782 1.43832911,6.45678365 1.20334177,6.45723968 C0.967898734,6.45754314 0.771037975,6.25232795 0.770733822,6.0061001 C0.77043038,5.75911276 0.965164557,5.55830263 1.20470886,5.55860609 Z M5.51362025,10.6384039 C5.51893671,10.6051381 5.52182278,10.5712647 5.53032911,10.5389102 C5.59351899,10.2945052 5.8316962,10.1520242 6.06197468,10.2196191 C6.23422785,10.2702014 6.36303797,10.4368343 6.37382278,10.6406824 C6.38475949,10.8469609 6.26673418,11.0394166 6.06516456,11.1023026 C5.77913924,11.1914672 5.49250633,10.9470621 5.51362025,10.6384039 Z M7.86121519,7.82888491 L7.34962025,7.33232795 C7.1635443,7.50199884 6.95574684,7.63551782 6.72151899,7.72574567 C6.49898734,7.81141656 6.26946835,7.85789757 6.02977215,7.86397352 C5.67858228,7.87263175 5.34683544,7.80169504 5.03772152,7.63688491 C4.48663291,7.34296086 4.13559494,6.89182162 4.02713924,6.27465706 C3.92870886,5.71566972 4.07605063,5.21136593 4.4396962,4.77541656 C4.76020253,4.39141656 5.17564557,4.16827732 5.66703797,4.08974567 C6.22951899,3.99982162 6.72197468,4.16341656 7.15670886,4.52037858 C7.22202532,4.57399884 7.2838481,4.63202415 7.35265823,4.69293555 L7.79726582,4.19015074 C7.39427848,3.77850517 6.90835443,3.52665706 6.33736709,3.42959377 C6.336,3.41182162 6.33372152,3.39541656 6.33372152,3.37916339 C6.33356962,3.06564441 6.33432911,2.75212542 6.33296203,2.43860643 C6.33296203,2.40139124 6.34313924,2.38528998 6.37898734,2.36842922 C6.77939241,2.17977099 7.01346835,1.86853048 7.06055696,1.42437858 C7.12253165,0.839872254 6.72607595,0.311416558 6.15751899,0.192935545 C5.54035443,0.0644292163 4.92865823,0.445695039 4.79650633,1.08518871 C4.68182278,1.64007479 4.97225316,2.16716339 5.50040506,2.38422668 C5.53594937,2.39880896 5.54931646,2.41597352 5.54916456,2.4537963 C5.5479822,2.76164327 5.5479822,3.06949364 5.54916456,3.37734061 C5.54916456,3.4144039 5.53913924,3.42837858 5.50025316,3.43506213 C5.22121519,3.48275833 4.95524051,3.5704039 4.70612658,3.70589757 C4.21883544,3.97111276 3.84972152,4.3504039 3.60197468,4.84802415 C3.46708861,5.1188596 3.40116456,5.37617605 3.3604557,5.61511276 L2.27134177,5.61511276 C2.15513924,5.31647985 1.95448101,5.09151782 1.65858228,4.95906213 C1.41159494,4.84863175 1.15518987,4.82934061 0.893316456,4.89860643 C0.395848101,5.02984694 0.00106329114,5.49966972 0.0467848101,6.10058111 C0.0841286919,6.61845435 0.468835527,7.0446056 0.980202532,7.1345558 C1.58475949,7.24073301 2.07675949,6.89197352 2.25979747,6.42488491 C2.27316456,6.42397352 2.28789873,6.42199884 2.30263291,6.42199884 C2.64075949,6.42199884 2.97873418,6.42260643 3.31686076,6.42123934 C3.35787342,6.42108744 3.37093671,6.43035327 3.37959494,6.47516339 C3.47620253,6.97399884 3.6955443,7.4104039 4.04688608,7.78027732 C4.34308861,8.09182162 4.69336709,8.31799884 5.1001519,8.4537963 C5.22926582,8.49693555 5.3644557,8.52215074 5.49751899,8.55253048 C5.5321519,8.56027732 5.54916456,8.57015074 5.54901266,8.6099482 C5.54749367,8.910252 5.54779747,9.2105558 5.54901266,9.5107077 C5.54931646,9.54716339 5.53458228,9.56220137 5.50253165,9.57632795 C5.10273418,9.75283428 4.86501266,10.060733 4.79772152,10.4889355 C4.74425316,10.8299482 4.83265823,11.1421001 5.05139241,11.4121761 C5.2435443,11.6497457 5.49493671,11.787214 5.7964557,11.8264039 C6.24227848,11.8841254 6.69113924,11.655214 6.91655696,11.2658976 C7.02668354,11.0757204 7.08759494,10.8709609 7.0795443,10.6537457 C7.06162025,10.162809 6.83498734,9.80007479 6.38551899,9.58711276 C6.3484557,9.56949251 6.33235443,9.55156846 6.33265823,9.50842922 C6.33478481,9.21192289 6.33448101,8.91541656 6.33281013,8.61891023 C6.33265823,8.57561909 6.34192405,8.55921403 6.38946835,8.55101149 C6.84607595,8.47232795 7.26501266,8.30341656 7.63382278,8.01906213 C7.70962025,7.96058111 7.78101266,7.89632795 7.86121519,7.82888491 L7.86121519,7.82888491 Z" id="path14" transform="translate(3.952196, 6.001683) scale(-1, 1) rotate(-180.000000) translate(-3.952196, -6.001683) "></path>
                    <path d="M10.6496203,5.54784363 C10.672557,5.55012211 10.7033924,5.54921072 10.7319494,5.55695755 C11.0156962,5.63290692 11.1429873,5.95386895 10.9992911,6.22804616 C10.8849114,6.44602084 10.6253165,6.5110335 10.4226835,6.37234996 C10.2407089,6.247793 10.1796456,5.97908414 10.2911392,5.77341325 C10.3658734,5.6354892 10.4791899,5.5516411 10.6496203,5.54784363 L10.6496203,5.54784363 Z M5.53625316,5.99670439 C5.54172152,5.95781831 5.5444557,5.91832464 5.55296203,5.88019806 C5.62162025,5.57898287 5.96111392,5.44819806 6.19397468,5.63275502 C6.37944304,5.78009679 6.41802532,6.079793 6.27448101,6.27300819 C6.17681013,6.40440059 6.04617722,6.47153983 5.88258228,6.4390335 C5.67508861,6.39786895 5.54035443,6.21695755 5.53625316,5.99670439 Z M11.7317468,5.89402084 C11.7306835,5.66070439 11.6109873,5.37027401 11.3643038,5.13802084 C11.194481,4.97807148 10.9909367,4.88541325 10.7564051,4.85700819 C10.2589367,4.79685629 9.804,5.10065376 9.62582278,5.54875502 C9.61017722,5.58794489 9.59073418,5.59736262 9.5518481,5.59721072 C8.70759494,5.59614743 7.86334177,5.59629933 7.01893671,5.59721072 C6.98172152,5.59721072 6.96531646,5.5873373 6.94982278,5.55057781 C6.80551899,5.21032464 6.56141772,4.97943857 6.20020253,4.88207148 C5.80587342,4.77574236 5.35488608,4.93052717 5.10258228,5.2511854 C4.93625316,5.46232464 4.84602532,5.70232464 4.84086076,5.96814743 C4.83022785,6.51802084 5.18901266,7.02597021 5.75346835,7.12622338 C6.25792405,7.21584363 6.71346835,6.943793 6.92202532,6.50921072 C6.93007595,6.49250186 6.93812658,6.4754892 6.94556962,6.45817274 C6.98278481,6.37037527 6.98278481,6.37037527 7.07513924,6.37037527 C7.88536709,6.37037527 8.69574684,6.37143857 9.50597468,6.36840059 C9.57675949,6.36809679 9.60592405,6.3913373 9.63205063,6.45376768 C9.77681013,6.79797021 10.0268354,7.03052717 10.393519,7.11300819 C10.8302278,7.21098287 11.1955443,7.07351452 11.4789873,6.73022338 C11.6524557,6.51999553 11.7315949,6.27209679 11.7317468,5.89402084 L11.7317468,5.89402084 Z" id="path16" transform="translate(8.286189, 5.996302) scale(-1, 1) rotate(-180.000000) translate(-8.286189, -5.996302) "></path>
                </g>
            </g>
        </g>
    </g>
</svg>