<?xml version="1.0" encoding="UTF-8"?>
<svg width="100px" height="118px" viewBox="0 0 100 118" version="1.1" xmlns="http://www.w3.org/2000/svg" xmlns:xlink="http://www.w3.org/1999/xlink">
    <!-- Generator: Sketch 55.2 (78181) - https://sketchapp.com -->
    <title>Work with the Business Central user interface/work-with-the-business-central-user-interface</title>
    <desc>Created with Sketch.</desc>
    <defs>
        <path d="M42.7425,1.49663266 C44.3745,0.498877554 46.1865,0 48,0 C49.8135,0 51.627,0.498877554 53.256,1.49663266 L90.591,24.3316189 C93.933,26.3773408 96,30.2031485 96,34.3529027 L96,79.6470973 C96,83.7952317 93.933,87.6242789 90.591,89.6683811 L53.256,112.504987 C51.627,113.501122 49.8135,114 48,114 C46.1865,114 44.3745,113.501122 42.7425,112.504987 L5.409,89.6683811 C2.0655,87.6242789 0,83.7952317 0,79.6470973 L0,34.3529027 C0,30.2031485 2.0655,26.3773408 5.409,24.3316189 L42.7425,1.49663266 Z" id="path-1"></path>
        <filter x="-6.2%" y="-7.1%" width="112.5%" height="114.3%" filterUnits="objectBoundingBox" id="filter-3">
            <feOffset dx="0" dy="2" in="SourceAlpha" result="shadowOffsetOuter1"></feOffset>
            <feColorMatrix values="0 0 0 0 0   0 0 0 0 0   0 0 0 0 0  0 0 0 0.0964956975 0" type="matrix" in="shadowOffsetOuter1" result="shadowMatrixOuter1"></feColorMatrix>
            <feMerge>
                <feMergeNode in="shadowMatrixOuter1"></feMergeNode>
                <feMergeNode in="SourceGraphic"></feMergeNode>
            </feMerge>
        </filter>
    </defs>
    <g id="Badges" stroke="none" stroke-width="1" fill="none" fill-rule="evenodd">
        <g id="Work-with-the-Business-Central-user-interface" transform="translate(-50.000000, -50.000000)">
            <g id="Work-with-the-Business-Central-user-interface/work-with-the-business-central-user-interface" transform="translate(50.000000, 50.000000)">
                <g id="Mask" transform="translate(2.000000, 2.000000)">
                    <mask id="mask-2" fill="white">
                        <use xlink:href="#path-1"></use>
                    </mask>
                    <use id="Trophy-1" fill="#01B6C3" xlink:href="#path-1"></use>
                    <g id="Monitor" filter="url(#filter-3)" mask="url(#mask-2)">
                        <g transform="translate(16.000000, 29.000000)">
                            <path d="M0,36 L0,42 C0,44.2 1.8,46 4,46 L60,46 C62.2,46 64,44.2 64,42 L64,36 L0,36" id="Fill-1285" fill="#E1E4E1"></path>
                            <path d="M4,0 C1.8,0 0,1.8 0,4 L0,36 L64,36 L64,4 C64,1.8 62.2,0 60,0 L4,0 Z M60,2 C61.103,2 62,2.897 62,4 L62,34 L2,34 L2,4 C2,2.897 2.897,2 4,2 L60,2 L60,2 Z" id="Fill-1287" fill="#182A37"></path>
                            <path d="M2,4 C2,2.897 2.897,2 4,2 L60,2 C61.103,2 62,2.897 62,4 L62,34 L2,34 L2,4" id="Fill-1288" fill="#30404D"></path>
                            <path d="M4,2 L31.389,2 L21.611,34 L2,34 L2,4 C2,2.897 2.897,2 4,2" id="Fill-1289" fill="#384B58"></path>
                            <path d="M4,0 L32,0 L31.389,2 L4,2 C2.897,2 2,2.897 2,4 L2,34 L21.611,34 L21,36 L0,36 L0,4 C0,1.8 1.8,0 4,0" id="Fill-1290" fill="#30404D"></path>
                            <polyline id="Fill-1291" fill="#E1E4E1" points="40 55 24 55 26 46 38 46 40 55"></polyline>
                            <path d="M40,55 L38,46 L26,46 L25.555,48 L30,48 C31.105,48 32,48.895 32,50 L32,55 L40,55" id="Fill-1292" fill="#CDD6D8"></path>
                            <path d="M44,55 C44,55.55 43.55,56 43,56 L21,56 C20.45,56 20,55.55 20,55 C20,54.45 20.45,54 21,54 L43,54 C43.55,54 44,54.45 44,55" id="Fill-1293" fill="#E1E4E1"></path>
                            <path d="M21,56 L43,56 C43.55,56 44,55.55 44,55 L20,55 C20,55.55 20.45,56 21,56" id="Fill-1294" fill="#CDD6D8"></path>
                        </g>
                    </g>
                    <g id="Business-Central-logo" mask="url(#mask-2)" fill="#D8D8D8">
                        <g transform="translate(19.000000, 36.000000)">
                            <path d="M16.5254834,7.4745166 L15.959798,8.04020203 C15.8889674,7.96937141 15.8162481,7.90042941 15.7417223,7.83345802 C14.749979,6.94224409 13.4383134,6.4 12,6.4 C8.9072054,6.4 6.4,8.9072054 6.4,12 C6.4,15.0927946 8.9072054,17.6 12,17.6 C13.5463973,17.6 14.9463973,16.9731986 15.959798,15.959798 L16.5254845,16.5254845 C15.3673112,17.6836556 13.7673112,18.4 12,18.4 C8.4653776,18.4 5.6,15.5346224 5.6,12 C5.6,8.4653776 8.4653776,5.6 12,5.6 C13.6437868,5.6 15.1428331,6.21970754 16.2762541,7.23823773 C16.3614265,7.31477647 16.4445341,7.39356733 16.5254834,7.4745166 Z" id="Combined-Shape"></path>
                            <path d="M12,4.8 C10.6745166,4.8 9.6,3.7254834 9.6,2.4 C9.6,1.0745166 10.6745166,0 12,0 C12.61642,0 13.1785624,0.232390326 13.6035953,0.61433915 C14.0925074,1.05369202 14.4,1.69093664 14.4,2.4 C14.4,3.04637048 14.1444784,3.63306071 13.7289371,4.06456887 C13.2923461,4.51793544 12.6791129,4.8 12,4.8 Z M12,4 C12.4527419,4 12.8615641,3.81195696 13.1526247,3.50971258 C13.4296523,3.22204047 13.6,2.83091366 13.6,2.4 C13.6,1.92729109 13.395005,1.50246135 13.0690635,1.20955943 C12.7857083,0.954926884 12.4109467,0.8 12,0.8 C11.1163444,0.8 10.4,1.5163444 10.4,2.4 C10.4,3.2836556 11.1163444,4 12,4 Z" id="Combined-Shape"></path>
                            <path d="M12,14.4 C10.6745166,14.4 9.6,13.3254834 9.6,12 C9.6,10.6745166 10.6745166,9.6 12,9.6 C12.61642,9.6 13.1785624,9.83239033 13.6035953,10.2143392 C14.0925074,10.653692 14.4,11.2909366 14.4,12 C14.4,12.6463705 14.1444784,13.2330607 13.7289371,13.6645689 C13.2923461,14.1179354 12.6791129,14.4 12,14.4 Z M12,13.6 C12.4527419,13.6 12.8615641,13.411957 13.1526247,13.1097126 C13.4296523,12.8220405 13.6,12.4309137 13.6,12 C13.6,11.5272911 13.395005,11.1024613 13.0690635,10.8095594 C12.7857083,10.5549269 12.4109467,10.4 12,10.4 C11.1163444,10.4 10.4,11.1163444 10.4,12 C10.4,12.8836556 11.1163444,13.6 12,13.6 Z" id="Combined-Shape"></path>
                            <path d="M21.6,14.4 C20.2745166,14.4 19.2,13.3254834 19.2,12 C19.2,10.6745166 20.2745166,9.6 21.6,9.6 C22.21642,9.6 22.7785624,9.83239033 23.2035953,10.2143392 C23.6925074,10.653692 24,11.2909366 24,12 C24,12.6463705 23.7444784,13.2330607 23.3289371,13.6645689 C22.8923461,14.1179354 22.2791129,14.4 21.6,14.4 Z M21.6,13.6 C22.0527419,13.6 22.4615641,13.411957 22.7526247,13.1097126 C23.0296523,12.8220405 23.2,12.4309137 23.2,12 C23.2,11.5272911 22.995005,11.1024613 22.6690635,10.8095594 C22.3857083,10.5549269 22.0109467,10.4 21.6,10.4 C20.7163444,10.4 20,11.1163444 20,12 C20,12.8836556 20.7163444,13.6 21.6,13.6 Z" id="Combined-Shape"></path>
                            <path d="M12,24 C10.6745166,24 9.6,22.9254834 9.6,21.6 C9.6,20.2745166 10.6745166,19.2 12,19.2 C12.61642,19.2 13.1785624,19.4323903 13.6035953,19.8143392 C14.0925074,20.253692 14.4,20.8909366 14.4,21.6 C14.4,22.2463705 14.1444784,22.8330607 13.7289371,23.2645689 C13.2923461,23.7179354 12.6791129,24 12,24 Z M12,23.2 C12.4527419,23.2 12.8615641,23.011957 13.1526247,22.7097126 C13.4296523,22.4220405 13.6,22.0309137 13.6,21.6 C13.6,21.1272911 13.395005,20.7024613 13.0690635,20.4095594 C12.7857083,20.1549269 12.4109467,20 12,20 C11.1163444,20 10.4,20.7163444 10.4,21.6 C10.4,22.4836556 11.1163444,23.2 12,23.2 Z" id="Combined-Shape"></path>
                            <rect id="Rectangle" x="13.6" y="11.2" width="6.4" height="1.6"></rect>
                            <polygon id="Rectangle" transform="translate(12.000000, 5.200000) rotate(90.000000) translate(-12.000000, -5.200000) " points="11.2 4.4 12.8 4.4 12.8 6 11.2 6"></polygon>
                            <rect id="Rectangle" x="4.4" y="11.2" width="1.6" height="1.6"></rect>
                            <polygon id="Rectangle" transform="translate(12.000000, 18.800000) rotate(90.000000) translate(-12.000000, -18.800000) " points="11.2 18 12.8 18 12.8 19.6 11.2 19.6"></polygon>
                            <path d="M2.4,14.4 C1.0745166,14.4 0,13.3254834 0,12 C0,10.6745166 1.0745166,9.6 2.4,9.6 C3.01642004,9.6 3.57856241,9.83239033 4.00359529,10.2143392 C4.49250743,10.653692 4.8,11.2909366 4.8,12 C4.8,12.6463705 4.54447842,13.2330607 4.12893707,13.6645689 C3.69234612,14.1179354 3.07911291,14.4 2.4,14.4 Z M2.4,13.6 C2.85274194,13.6 3.26156408,13.411957 3.55262471,13.1097126 C3.82965228,12.8220405 4,12.4309137 4,12 C4,11.5272911 3.79500495,11.1024613 3.46906353,10.8095594 C3.18570828,10.5549269 2.81094669,10.4 2.4,10.4 C1.5163444,10.4 0.8,11.1163444 0.8,12 C0.8,12.8836556 1.5163444,13.6 2.4,13.6 Z" id="Combined-Shape"></path>
                        </g>
                    </g>
                    <rect id="Rectangle" fill="#E1E4E1" mask="url(#mask-2)" x="48" y="38" width="25" height="1" rx="0.5"></rect>
                    <rect id="Rectangle" fill="#E1E4E1" mask="url(#mask-2)" x="48" y="53" width="25" height="1" rx="0.5"></rect>
                    <rect id="Rectangle" fill="#E1E4E1" mask="url(#mask-2)" x="48" y="56" width="25" height="1" rx="0.5"></rect>
                    <rect id="Rectangle" fill="#01B6C3" mask="url(#mask-2)" x="48" y="44" width="7" height="7" rx="0.5"></rect>
                    <rect id="Rectangle" fill="#01B6C3" mask="url(#mask-2)" x="57" y="44" width="7" height="7" rx="0.5"></rect>
                    <rect id="Rectangle" fill="#01B6C3" mask="url(#mask-2)" x="66" y="44" width="7" height="7" rx="0.5"></rect>
                    <rect id="Rectangle" fill="#E1E4E1" mask="url(#mask-2)" x="48" y="41" width="7" height="1" rx="0.5"></rect>
                    <rect id="Rectangle" fill="#E1E4E1" mask="url(#mask-2)" x="57" y="41" width="7" height="1" rx="0.5"></rect>
                    <rect id="Rectangle" fill="#E1E4E1" mask="url(#mask-2)" x="66" y="41" width="7" height="1" rx="0.5"></rect>
                </g>
                <g id="Dynamic-Hex" stroke="#1D8E96" stroke-width="4">
                    <path d="M45.5618501,3.25844398 L45.5621963,3.25823359 L6.67338401,26.8942953 C3.79673288,28.6432593 2,31.9508238 2,35.5582677 L2,82.4417323 C2,86.0486597 3.79764663,89.3586805 6.67318764,91.1055853 L45.560618,114.742485 C46.9289662,115.572418 48.4546283,116 50,116 C51.5458817,116 53.0723633,115.572188 54.4362178,114.743457 L93.3268764,91.1055464 C96.2016145,89.3583456 98,86.0476286 98,82.4417323 L98,35.5582677 C98,31.9518547 96.202529,28.6435953 93.3268966,26.8944659 L54.4351916,3.25759524 C53.0721095,2.42798656 51.5462432,2 50,2 C48.4542664,2 46.9292165,2.42775755 45.5618501,3.25844398 Z" id="Azure-Hex-Border"></path>
                </g>
            </g>
        </g>
    </g>
</svg>