<?xml version="1.0" encoding="UTF-8"?>
<svg width="101px" height="101px" viewBox="0 0 101 101" version="1.1" xmlns="http://www.w3.org/2000/svg" xmlns:xlink="http://www.w3.org/1999/xlink">
    <!-- Generator: Sketch 63.1 (92452) - https://sketch.com -->
    <title>Discover the Foundation of Customizing Microsoft Dynamics 365 Business Central/Work-with-tables-in-Dynamics-365-Business-Central</title>
    <desc>Created with Sketch.</desc>
    <defs>
        <rect id="path-1" x="0" y="0" width="94.3396226" height="94.3396226" rx="47.1698113"></rect>
        <linearGradient x1="77.8299825%" y1="11.1997378%" x2="-99.6885927%" y2="253.807911%" id="linearGradient-3">
            <stop stop-color="#FFFFFF" offset="0%"></stop>
            <stop stop-color="#000000" stop-opacity="0.5" offset="100%"></stop>
        </linearGradient>
        <rect id="path-4" x="0" y="0" width="94.3396226" height="94.3396226"></rect>
        <rect id="path-5" x="0" y="0" width="100" height="100" rx="50"></rect>
        <filter x="-0.5%" y="-0.5%" width="102.0%" height="102.0%" filterUnits="objectBoundingBox" id="filter-6">
            <feOffset dx="1" dy="1" in="SourceAlpha" result="shadowOffsetOuter1"></feOffset>
            <feMorphology radius="4" operator="erode" in="SourceAlpha" result="shadowInner"></feMorphology>
            <feOffset dx="1" dy="1" in="shadowInner" result="shadowInner"></feOffset>
            <feComposite in="shadowOffsetOuter1" in2="shadowInner" operator="out" result="shadowOffsetOuter1"></feComposite>
            <feColorMatrix values="0 0 0 0 0   0 0 0 0 0   0 0 0 0 0  0 0 0 0.15 0" type="matrix" in="shadowOffsetOuter1"></feColorMatrix>
        </filter>
        <path d="M50,2.83018868 C76.0511674,2.83018868 97.1698113,23.9488326 97.1698113,50 C97.1698113,76.0511674 76.0511674,97.1698113 50,97.1698113 C23.9488326,97.1698113 2.83018868,76.0511674 2.83018868,50 C2.83018868,23.9488326 23.9488326,2.83018868 50,2.83018868 Z M50,6.60377358 C26.032926,6.60377358 6.60377358,26.032926 6.60377358,50 C6.60377358,73.967074 26.032926,93.3962264 50,93.3962264 C73.967074,93.3962264 93.3962264,73.967074 93.3962264,50 C93.3962264,26.032926 73.967074,6.60377358 50,6.60377358 Z" id="path-7"></path>
        <linearGradient x1="50%" y1="100%" x2="50%" y2="0%" id="linearGradient-9">
            <stop stop-color="#D2EBFF" offset="0%"></stop>
            <stop stop-color="#F0FFFD" offset="100%"></stop>
        </linearGradient>
        <linearGradient x1="50%" y1="100%" x2="50%" y2="0%" id="linearGradient-10">
            <stop stop-color="#CCCCCC" offset="15%"></stop>
            <stop stop-color="#707070" offset="100%"></stop>
        </linearGradient>
        <path d="M1,0 L49,0 C49.5522847,-1.01453063e-16 50,0.44771525 50,1 L50,8 L50,8 L-3.90798505e-14,8 L-3.90798505e-14,1 C-3.91474858e-14,0.44771525 0.44771525,1.01453063e-16 1,0 Z" id="path-11"></path>
        <filter x="-40.0%" y="-40.0%" width="180.0%" height="180.0%" filterUnits="objectBoundingBox" id="filter-13">
            <feOffset dx="0" dy="2" in="SourceAlpha" result="shadowOffsetOuter1"></feOffset>
            <feGaussianBlur stdDeviation="2" in="shadowOffsetOuter1" result="shadowBlurOuter1"></feGaussianBlur>
            <feColorMatrix values="0 0 0 0 0   0 0 0 0 0   0 0 0 0 0  0 0 0 0.1 0" type="matrix" in="shadowBlurOuter1" result="shadowMatrixOuter1"></feColorMatrix>
            <feMerge>
                <feMergeNode in="shadowMatrixOuter1"></feMergeNode>
                <feMergeNode in="SourceGraphic"></feMergeNode>
            </feMerge>
        </filter>
        <path d="M2.12526316,0 C1.11907895,0 0.303552632,0.76212766 0.303552632,1.70212766 L0.303552632,1.70212766 L0.303552632,18.2978723 C0.303552632,19.2378723 1.11907895,20 2.12526316,20 L2.12526316,20 L28.0871053,20 C29.0932895,20 29.9092105,19.2378723 29.9092105,18.2978723 L29.9092105,18.2978723 L29.9092105,1.70212766 C29.9092105,0.76212766 29.0932895,0 28.0871053,0 L28.0871053,0 L2.12526316,0 Z" id="path-14"></path>
        <linearGradient x1="50%" y1="-7.83969624%" x2="50%" y2="136.746848%" id="linearGradient-16">
            <stop stop-color="#FFD70F" offset="0%"></stop>
            <stop stop-color="#EEB309" offset="34%"></stop>
            <stop stop-color="#DC8C03" offset="77%"></stop>
            <stop stop-color="#D57D01" offset="100%"></stop>
        </linearGradient>
        <linearGradient x1="50%" y1="0%" x2="50%" y2="100%" id="linearGradient-17">
            <stop stop-color="#E55E14" offset="0%"></stop>
            <stop stop-color="#F59051" offset="100%"></stop>
        </linearGradient>
        <linearGradient x1="50%" y1="0%" x2="50%" y2="100%" id="linearGradient-18">
            <stop stop-color="#F59051" offset="0%"></stop>
            <stop stop-color="#E55E14" offset="100%"></stop>
        </linearGradient>
        <linearGradient x1="50%" y1="-9.93901477%" x2="50%" y2="100%" id="linearGradient-19">
            <stop stop-color="#FFFFFF" offset="0%"></stop>
            <stop stop-color="#EFEFEF" offset="100%"></stop>
        </linearGradient>
        <path d="M16.866308,21.203551 L13.4962775,21.203551 C13.2057717,21.203551 12.9679737,20.9584984 12.9679737,20.65913 L12.9679737,15.4321826 C12.9679737,15.1328142 13.2057717,14.8877616 13.4962775,14.8877616 L16.866308,14.8877616 C17.1568138,14.8877616 17.3942032,15.1328142 17.3942032,15.4321826 L17.3942032,20.65913 C17.3942032,20.9584984 17.1568138,21.203551 16.866308,21.203551" id="path-20"></path>
        <filter x="-11.3%" y="-7.9%" width="122.6%" height="131.7%" filterUnits="objectBoundingBox" id="filter-21">
            <feOffset dx="0" dy="1" in="SourceAlpha" result="shadowOffsetOuter1"></feOffset>
            <feColorMatrix values="0 0 0 0 0   0 0 0 0 0   0 0 0 0 0  0 0 0 0.1 0" type="matrix" in="shadowOffsetOuter1"></feColorMatrix>
        </filter>
        <linearGradient x1="50%" y1="2.04550253%" x2="50%" y2="100%" id="linearGradient-22">
            <stop stop-color="#FFE02A" offset="0%"></stop>
            <stop stop-color="#FFB518" offset="100%"></stop>
        </linearGradient>
    </defs>
    <g id="Badges" stroke="none" stroke-width="1" fill="none" fill-rule="evenodd">
        <g id="Discover-the-Foundation-of-Customizing-Microsoft-Dynamics-365-Business-Central" transform="translate(-160.000000, -510.000000)">
            <g id="Discover-the-Foundation-of-Customizing-Microsoft-Dynamics-365-Business-Central/Work-with-tables-in-Dynamics-365-Business-Central" transform="translate(160.000000, 510.000000)">
                <g id="Badge-Plates/Circle">
                    <g id="BG" transform="translate(2.830189, 2.830189)">
                        <mask id="mask-2" fill="white">
                            <use xlink:href="#path-1"></use>
                        </mask>
                        <g></g>
                        <g id="Colors/Microsoft-365/BG-Solid-Badge" mask="url(#mask-2)">
                            <g id="Rectangle">
                                <use fill="#0078D4" xlink:href="#path-4"></use>
                                <use fill-opacity="0.4" fill="url(#linearGradient-3)" xlink:href="#path-4"></use>
                            </g>
                        </g>
                    </g>
                    <g id="Border">
                        <g id="White-Border">
                            <use fill="black" fill-opacity="1" filter="url(#filter-6)" xlink:href="#path-5"></use>
                            <rect stroke="#F2F1F0" stroke-width="4" stroke-linejoin="square" x="2" y="2" width="96" height="96" rx="48"></rect>
                        </g>
                        <mask id="mask-8" fill="white">
                            <use xlink:href="#path-7"></use>
                        </mask>
                        <use id="Boarder" fill="#0078D4" fill-rule="nonzero" xlink:href="#path-7"></use>
                        <g id="Colors/Microsoft-365/Border" mask="url(#mask-8)" fill="#0076D7">
                            <g transform="translate(2.830189, 2.830189)" id="Microsoft-365/Border">
                                <rect x="0" y="0" width="94.3396226" height="94.3396226"></rect>
                            </g>
                        </g>
                    </g>
                </g>
                <g id="Group-4" transform="translate(22.000000, 27.000000)">
                    <g id="Group-3">
                        <g id="Computer" transform="translate(1.000000, 0.000000)" fill-rule="nonzero">
                            <rect id="Rectangle" fill="url(#linearGradient-9)" x="0" y="0" width="50" height="35" rx="0.6"></rect>
                            <path d="M35.5277361,45.1922246 C30.5833122,44.4060475 30.3888686,40.812095 30.3888686,35 L20.5833538,35 C20.5833538,40.812095 20.4166878,44.4060475 15.4722639,45.1922246 C14.0585616,45.3503448 12.9914236,46.5623299 13,48 L38,48 C38.0085764,46.5623299 36.9414384,45.3503448 35.5277361,45.1922246 Z" id="Path" fill="url(#linearGradient-10)"></path>
                        </g>
                        <line x1="0.974684211" y1="8.5" x2="50.9746842" y2="8.5" id="Path-2" stroke="#92C4FC"></line>
                        <line x1="0.974684211" y1="17.5" x2="50.9746842" y2="17.5" id="Path-2" stroke="#92C4FC"></line>
                        <line x1="0.974684211" y1="26.5" x2="50.9746842" y2="26.5" id="Path-2" stroke="#92C4FC"></line>
                        <line x1="31.5" y1="0.104079037" x2="31.5" y2="35.104079" id="Path-2" stroke="#92C4FC"></line>
                        <line x1="21.5" y1="0.104079037" x2="21.5" y2="35.104079" id="Path-2" stroke="#92C4FC"></line>
                        <line x1="11.5" y1="0.104079037" x2="11.5" y2="35.104079" id="Path-2" stroke="#92C4FC"></line>
                        <line x1="41.5" y1="0.104079037" x2="41.5" y2="35.104079" id="Path-2" stroke="#92C4FC"></line>
                    </g>
                    <g id="Icon/Monitor-Window" transform="translate(1.000000, 0.000000)">
                        <g id="Color">
                            <mask id="mask-12" fill="white">
                                <use xlink:href="#path-11"></use>
                            </mask>
                            <use id="BG" fill="#92C4FC" xlink:href="#path-11"></use>
                        </g>
                    </g>
                    <g id="Briefcase" transform="translate(26.000000, 22.000000)">
                        <g id="Group" filter="url(#filter-13)">
                            <g id="Group-5" transform="translate(0.000000, 8.045656)">
                                <mask id="mask-15" fill="white">
                                    <use xlink:href="#path-14"></use>
                                </mask>
                                <g id="Clip-4"></g>
                                <polygon id="Fill-3" fill="url(#linearGradient-16)" mask="url(#mask-15)" points="-1.97368421 22.1276596 32.1860526 22.1276596 32.1860526 -2.12765957 -1.97368421 -2.12765957"></polygon>
                            </g>
                            <path d="M15.6214737,17.0324774 C9.43871053,17.0324774 3.92265789,15.5154247 0.303710526,13.1423721 L0.303710526,25.8211089 C0.303710526,27.6893195 1.72357895,29.2034247 3.47502632,29.2034247 L26.7376579,29.2034247 C28.4891053,29.2034247 29.9089737,27.6893195 29.9089737,25.8211089 L29.9089737,13.7638458 C26.3141053,15.7764774 21.2445,17.0324774 15.6214737,17.0324774" id="Fill-6" fill="url(#linearGradient-17)"></path>
                            <path d="M15.6214737,19.110582 C9.43871053,19.110582 3.92265789,17.7683216 0.303710526,15.6686879 L0.303710526,28.3484486 C0.303710526,29.1937412 1.03002632,29.8792142 1.92568421,29.8792142 L28.2866053,29.8792142 C29.1826579,29.8792142 29.9089737,29.1937412 29.9089737,28.3484486 L29.9089737,16.2185565 C26.3141053,17.9992962 21.2445,19.110582 15.6214737,19.110582" id="Fill-8" fill="url(#linearGradient-18)"></path>
                            <g id="Fill-10">
                                <use fill="black" fill-opacity="1" filter="url(#filter-21)" xlink:href="#path-20"></use>
                                <use fill="url(#linearGradient-19)" fill-rule="evenodd" xlink:href="#path-20"></use>
                            </g>
                            <path d="M24.9746842,8.10526316 L23.001,8.10526316 C23.001,4.79705263 19.4594211,2.10526316 15.1062632,2.10526316 C10.7531053,2.10526316 7.21152632,4.79705263 7.21152632,8.10526316 L5.23784211,8.10526316 C5.23784211,3.63621053 9.66481579,4.79616347e-14 15.1062632,4.79616347e-14 C20.5477105,4.79616347e-14 24.9746842,3.63621053 24.9746842,8.10526316" id="Fill-12" fill="url(#linearGradient-22)"></path>
                        </g>
                    </g>
                </g>
            </g>
        </g>
    </g>
</svg>